<svg width="50" height="50" viewBox="0 0 50 50" fill="none" xmlns="http://www.w3.org/2000/svg">
<circle cx="25" cy="25" r="25" fill="black"/>
<path d="M16.2061 11.3983C14.7337 12.4428 8.29939 14.7304 16.629 29.1576C25.383 44.3199 30.6857 40.0564 32.2427 39.1263L27.9719 31.7291C25.1979 33.3306 24.372 33.3595 22.6725 31.09C21.5452 29.5867 19.422 26.1163 18.4016 23.6926C17.3813 21.2689 17.7239 20.3852 20.4909 18.7877L16.2061 11.3983Z" fill="white"/>
<path d="M36.7451 36.5271C37.3487 36.1786 37.5606 35.5407 37.3086 35.1042L37.3124 35.0946C37.3124 35.0946 33.9882 29.3531 33.985 29.3476C33.7235 28.8946 33.0427 28.8015 32.4742 29.1297L29.8213 30.6614L34.089 38.0532C34.0922 38.0588 36.7381 36.5311 36.7451 36.5271Z" fill="white"/>
<path d="M25 16.1842C25.6036 15.8357 25.8204 15.2062 25.5739 14.7794L25.5778 14.7699C25.5778 14.7699 22.2327 8.99221 22.2296 8.98681C21.9737 8.54372 21.2976 8.45858 20.7291 8.7868L18.0762 10.3185L22.3439 17.7105C22.3471 17.7159 24.993 16.1882 25 16.1842Z" fill="white"/>
</svg>
