<svg width="315" height="741" viewBox="0 0 315 741" fill="none" xmlns="http://www.w3.org/2000/svg">
<path d="M186.734 216.352H185.234V217.852V328.119H1.5V151.582H95.2488H96.7488V150.082V100.677H161.319H162.819V99.1775V33.6165H206.616H208.116V32.1165V1.82812H313.5V166.32H186.734H185.234V167.82V188.313V189.813H186.734H214.102V216.352H186.734Z" fill="white" stroke="black" stroke-width="3" stroke-miterlimit="10"/>
<path d="M168.086 124.698L254.188 124.698V88.8535H168.086V124.698Z" fill="#C4C4C4"/>
<path d="M143.45 124.676H164.651V105.078H143.45V124.676Z" fill="black"/>
<path d="M156.496 111.959C156.906 111.959 157.248 111.643 157.248 111.264C157.248 110.884 156.906 110.568 156.496 110.568C156.086 110.568 155.744 110.884 155.744 111.264C155.744 111.643 156.086 111.959 156.496 111.959Z" fill="white"/>
<path d="M156.359 116.447V118.913C156.359 119.355 155.675 119.355 155.675 118.913V116.447H154.718L155.743 113.16H155.538L154.923 114.993C154.786 115.373 154.171 115.246 154.307 114.804L154.991 112.781C155.06 112.528 155.402 112.148 155.949 112.148H156.427H156.974C157.522 112.148 157.864 112.591 157.932 112.781L158.616 114.804C158.753 115.246 158.137 115.436 158 114.993L157.385 113.16H157.18L158.206 116.447H157.248V118.913C157.248 119.355 156.564 119.355 156.564 118.913V116.447H156.359Z" fill="white"/>
<path d="M150.583 112.212C150.036 112.212 149.626 112.591 149.626 113.16V115.31C149.626 115.752 150.31 115.752 150.31 115.31V113.35H150.447V118.85C150.447 119.419 151.336 119.419 151.336 118.85V115.626H151.473V118.85C151.473 119.419 152.362 119.419 152.362 118.85V113.35H152.498V115.31C152.498 115.752 153.182 115.752 153.182 115.31V113.16C153.182 112.718 152.772 112.212 152.225 112.212H150.583Z" fill="white"/>
<path d="M151.404 111.959C151.82 111.959 152.156 111.648 152.156 111.264C152.156 110.88 151.82 110.568 151.404 110.568C150.989 110.568 150.652 110.88 150.652 111.264C150.652 111.648 150.989 111.959 151.404 111.959Z" fill="white"/>
<path d="M7.5406 239.083H28.7412L28.7412 219.485H7.5406L7.5406 239.083Z" fill="black"/>
<path d="M20.6307 226.385C21.041 226.385 21.383 226.069 21.383 225.69C21.383 225.31 21.041 224.994 20.6307 224.994C20.2204 224.994 19.8784 225.31 19.8784 225.69C19.8784 226.069 20.2204 226.385 20.6307 226.385Z" fill="white"/>
<path d="M20.4932 230.811V233.276C20.4932 233.719 19.8093 233.719 19.8093 233.276V230.811H18.8519L19.8777 227.523H19.7409L19.1254 229.357C18.9887 229.736 18.3732 229.609 18.5099 229.167L19.1938 227.144C19.2622 226.891 19.6042 226.512 20.1513 226.512H20.63H21.1771C21.7242 226.512 22.0662 226.954 22.1346 227.144L22.8185 229.167C22.9552 229.609 22.3397 229.799 22.203 229.357L21.5874 227.523H21.3823L22.4081 230.811H21.4507V233.276C21.4507 233.719 20.7668 233.719 20.7668 233.276V230.811H20.4932Z" fill="white"/>
<path d="M14.7861 226.574C14.2389 226.574 13.8286 226.954 13.8286 227.522V229.672C13.8286 230.114 14.5125 230.114 14.5125 229.672V227.712H14.6493V233.212C14.6493 233.781 15.5383 233.781 15.5383 233.212V229.988H15.6751V233.212C15.6751 233.781 16.5642 233.781 16.5642 233.212V227.712H16.701V229.672C16.701 230.114 17.3848 230.114 17.3848 229.672V227.522C17.3848 227.08 16.9745 226.574 16.4274 226.574H14.7861Z" fill="white"/>
<path d="M15.5379 226.385C15.9534 226.385 16.2902 226.074 16.2902 225.69C16.2902 225.305 15.9534 224.994 15.5379 224.994C15.1225 224.994 14.7856 225.305 14.7856 225.69C14.7856 226.074 15.1225 226.385 15.5379 226.385Z" fill="white"/>
<path d="M7.73701 288.087H113.842V252.204H7.73701V288.087Z" fill="#C4C4C4"/>
<path d="M116.265 287.938H130.011V252.093H116.265V287.938Z" fill="black"/>
<path d="M180.673 220V287.96H169.662L152.702 270.891V246.552L180.673 220Z" fill="#C8A67C"/>
<path d="M127.136 275.885V270.448C127.136 269.879 126.657 269.437 126.042 269.437H120.16C119.545 269.437 119.066 269.879 119.066 270.448V275.885C119.066 276.454 119.545 276.896 120.16 276.896H126.042C126.657 276.833 127.136 276.454 127.136 275.885ZM126.247 276.011H119.955V270.258H126.247V276.011Z" fill="white"/>
<path d="M124.127 265.896C124.127 265.454 124.811 265.454 124.811 265.896V267.667L125.153 267.287C125.426 267.034 125.837 267.414 125.563 267.667L124.674 268.615C124.537 268.741 124.332 268.741 124.195 268.615L123.306 267.667C123.033 267.35 123.512 267.034 123.717 267.287L124.059 267.73L124.127 265.896Z" fill="white"/>
<path d="M121.46 268.427C121.46 268.869 122.144 268.869 122.144 268.427V266.656L122.486 267.036C122.76 267.289 123.17 266.909 122.896 266.656L122.007 265.708C121.87 265.582 121.665 265.582 121.529 265.708L120.639 266.656C120.366 266.972 120.845 267.289 121.05 267.036L121.392 266.593L121.46 268.427Z" fill="white"/>
<path d="M124.948 271.966H123.786C123.649 271.966 123.512 272.092 123.512 272.219V273.546C123.512 273.673 123.581 273.736 123.717 273.736C123.717 273.736 123.786 273.736 123.854 273.736V275.443C123.854 275.759 124.333 275.759 124.333 275.443V273.736H124.401V275.443C124.401 275.759 124.88 275.759 124.88 275.443V273.736C124.948 273.736 125.017 273.736 125.017 273.736C125.153 273.736 125.222 273.673 125.222 273.546V272.219C125.222 272.092 125.085 271.966 124.948 271.966Z" fill="white"/>
<path d="M124.402 271.839C124.59 271.839 124.744 271.698 124.744 271.523C124.744 271.349 124.59 271.207 124.402 271.207C124.213 271.207 124.06 271.349 124.06 271.523C124.06 271.698 124.213 271.839 124.402 271.839Z" fill="white"/>
<path d="M122.486 271.966H121.323C121.187 271.966 121.05 272.092 121.05 272.219V273.546C121.05 273.673 121.118 273.736 121.255 273.736C121.255 273.736 121.323 273.736 121.392 273.736V275.443C121.392 275.759 121.87 275.759 121.87 275.443V273.736H121.939V275.443C121.939 275.759 122.418 275.759 122.418 275.443V273.736C122.486 273.736 122.554 273.736 122.554 273.736C122.691 273.736 122.76 273.673 122.76 273.546V272.219C122.76 272.092 122.623 271.966 122.486 271.966Z" fill="white"/>
<path d="M121.939 271.839C122.128 271.839 122.281 271.698 122.281 271.523C122.281 271.349 122.128 271.207 121.939 271.207C121.75 271.207 121.597 271.349 121.597 271.523C121.597 271.698 121.75 271.839 121.939 271.839Z" fill="white"/>
<path d="M189.434 213.044H210.634V192.751H189.434V213.044Z" fill="black"/>
<path d="M204.073 207.545V202.108C204.073 201.539 203.594 201.097 202.979 201.097H197.097C196.482 201.097 196.003 201.539 196.003 202.108V207.545C196.003 208.114 196.482 208.556 197.097 208.556H202.979C203.594 208.556 204.073 208.114 204.073 207.545ZM203.184 207.735H196.892V201.982H203.184V207.735Z" fill="white"/>
<path d="M200.996 197.557C200.996 197.114 201.68 197.114 201.68 197.557V199.327L202.022 198.947C202.295 198.694 202.706 199.074 202.432 199.327L201.543 200.275C201.406 200.401 201.201 200.401 201.064 200.275L200.175 199.327C199.902 199.011 200.38 198.694 200.585 198.947L200.927 199.39L200.996 197.557Z" fill="white"/>
<path d="M198.397 200.088C198.397 200.53 199.081 200.53 199.081 200.088V198.318L199.423 198.697C199.696 198.95 200.106 198.57 199.833 198.318L198.944 197.369C198.807 197.243 198.602 197.243 198.465 197.369L197.576 198.318C197.302 198.634 197.781 198.95 197.986 198.697L198.328 198.254L198.397 200.088Z" fill="white"/>
<path d="M201.884 203.688H200.722C200.585 203.688 200.448 203.815 200.448 203.941V205.269C200.448 205.395 200.517 205.459 200.653 205.459C200.653 205.459 200.722 205.459 200.79 205.459V207.165C200.79 207.482 201.269 207.482 201.269 207.165V205.459H201.337V207.165C201.337 207.482 201.816 207.482 201.816 207.165V205.459C201.884 205.459 201.953 205.459 201.953 205.459C202.09 205.459 202.158 205.395 202.158 205.269V203.941C202.158 203.752 202.021 203.688 201.884 203.688Z" fill="white"/>
<path d="M201.269 203.498C201.458 203.498 201.611 203.357 201.611 203.182C201.611 203.008 201.458 202.866 201.269 202.866C201.08 202.866 200.927 203.008 200.927 203.182C200.927 203.357 201.08 203.498 201.269 203.498Z" fill="white"/>
<path d="M199.354 203.688H198.192C198.055 203.688 197.918 203.815 197.918 203.941V205.269C197.918 205.395 197.986 205.459 198.123 205.459C198.123 205.459 198.192 205.459 198.26 205.459V207.165C198.26 207.482 198.739 207.482 198.739 207.165V205.459H198.807V207.165C198.807 207.482 199.286 207.482 199.286 207.165V205.459C199.354 205.459 199.423 205.459 199.423 205.459C199.559 205.459 199.628 205.395 199.628 205.269V203.941C199.628 203.752 199.559 203.688 199.354 203.688Z" fill="white"/>
<path d="M198.807 203.498C198.996 203.498 199.149 203.357 199.149 203.182C199.149 203.008 198.996 202.866 198.807 202.866C198.618 202.866 198.465 203.008 198.465 203.182C198.465 203.357 198.618 203.498 198.807 203.498Z" fill="white"/>
<path d="M66.994 239.08H98.7266V218.724H66.994V239.08Z" fill="black"/>
<path d="M39.4602 216.207V239.092H64.6274V216.207H98.7535V155.644H7.62402V216.207H39.4602Z" fill="#C4C4C4"/>
<path d="M86.9224 233.592V228.155C86.9224 227.586 86.4437 227.144 85.8282 227.144H80.0151C79.3996 227.144 78.9209 227.586 78.9209 228.155V233.592C78.9209 234.161 79.3996 234.603 80.0151 234.603H85.8966C86.4437 234.54 86.9224 234.161 86.9224 233.592ZM86.0334 233.718H79.7416V227.965H86.0334V233.718Z" fill="white"/>
<path d="M83.9133 223.603C83.9133 223.161 84.5972 223.161 84.5972 223.603V225.373L84.9391 224.994C85.2127 224.741 85.623 225.121 85.3494 225.373L84.4604 226.322C84.3236 226.448 84.1184 226.448 83.9816 226.322L83.0926 225.373C82.819 225.057 83.2977 224.741 83.5029 224.994L83.8449 225.437L83.9133 223.603Z" fill="white"/>
<path d="M81.2463 226.134C81.2463 226.576 81.9302 226.576 81.9302 226.134V224.363L82.2721 224.743C82.5457 224.996 82.956 224.616 82.6824 224.363L81.7934 223.415C81.6566 223.289 81.4514 223.289 81.3146 223.415L80.4256 224.363C80.152 224.68 80.6308 224.996 80.8359 224.743L81.1779 224.3L81.2463 226.134Z" fill="white"/>
<path d="M84.7345 229.673H83.5719C83.4351 229.673 83.2983 229.799 83.2983 229.926V231.253C83.2983 231.38 83.3667 231.443 83.5035 231.443C83.5035 231.443 83.5719 231.443 83.6403 231.443V233.15C83.6403 233.466 84.119 233.466 84.119 233.15V231.443H84.1874V233.15C84.1874 233.466 84.6661 233.466 84.6661 233.15V231.443C84.7345 231.443 84.8029 231.443 84.8029 231.443C84.9397 231.443 85.0081 231.38 85.0081 231.253V229.926C85.0081 229.799 84.8713 229.673 84.7345 229.673Z" fill="white"/>
<path d="M84.1876 229.546C84.3765 229.546 84.5296 229.405 84.5296 229.23C84.5296 229.056 84.3765 228.914 84.1876 228.914C83.9988 228.914 83.8457 229.056 83.8457 229.23C83.8457 229.405 83.9988 229.546 84.1876 229.546Z" fill="white"/>
<path d="M82.2721 229.673H81.1095C80.9727 229.673 80.8359 229.799 80.8359 229.926V231.253C80.8359 231.38 80.9043 231.443 81.0411 231.443C81.0411 231.443 81.1095 231.443 81.1779 231.443V233.15C81.1779 233.466 81.6566 233.466 81.6566 233.15V231.443H81.725V233.15C81.725 233.466 82.2037 233.466 82.2037 233.15V231.443C82.2721 231.443 82.3405 231.443 82.3405 231.443C82.4773 231.443 82.5457 231.38 82.5457 231.253V229.926C82.5457 229.799 82.4089 229.673 82.2721 229.673Z" fill="white"/>
<path d="M81.7252 229.546C81.9141 229.546 82.0672 229.405 82.0672 229.23C82.0672 229.056 81.9141 228.914 81.7252 228.914C81.5364 228.914 81.3833 229.056 81.3833 229.23C81.3833 229.405 81.5364 229.546 81.7252 229.546Z" fill="white"/>
<path d="M168.071 77.4131H206.438V38.4706L168.071 38.4706V77.4131Z" fill="#C4C4C4"/>
<path d="M256.225 124.698H269.971V88.8535H256.225V124.698Z" fill="#FF0000"/>
<path d="M267.128 112.592V107.155C267.128 106.586 266.649 106.144 266.033 106.144H260.152C259.536 106.144 259.058 106.586 259.058 107.155V112.592C259.058 113.161 259.536 113.603 260.152 113.603H266.033C266.649 113.603 267.128 113.161 267.128 112.592ZM266.239 112.782H259.947V107.029H266.239V112.782Z" fill="white"/>
<path d="M264.119 102.603C264.119 102.161 264.803 102.161 264.803 102.603V104.374L265.145 103.994C265.418 103.741 265.829 104.121 265.555 104.374L264.666 105.322C264.529 105.448 264.324 105.448 264.187 105.322L263.298 104.374C263.025 104.057 263.503 103.741 263.708 103.994L264.05 104.437L264.119 102.603Z" fill="white"/>
<path d="M261.452 105.134C261.452 105.576 262.136 105.576 262.136 105.134V103.363L262.478 103.743C262.751 103.996 263.162 103.616 262.888 103.363L261.999 102.415C261.862 102.289 261.657 102.289 261.52 102.415L260.631 103.363C260.358 103.68 260.836 103.996 261.042 103.743L261.383 103.3L261.452 105.134Z" fill="white"/>
<path d="M264.94 108.735H263.777C263.641 108.735 263.504 108.862 263.504 108.988V110.316C263.504 110.442 263.572 110.505 263.709 110.505C263.709 110.505 263.777 110.505 263.846 110.505V112.212C263.846 112.528 264.325 112.528 264.325 112.212V110.505H264.393V112.212C264.393 112.528 264.872 112.528 264.872 112.212V110.505C264.94 110.505 265.009 110.505 265.009 110.505C265.145 110.505 265.214 110.442 265.214 110.316V108.988C265.214 108.799 265.077 108.735 264.94 108.735Z" fill="white"/>
<path d="M264.393 108.545C264.582 108.545 264.735 108.404 264.735 108.229C264.735 108.055 264.582 107.913 264.393 107.913C264.204 107.913 264.051 108.055 264.051 108.229C264.051 108.404 264.204 108.545 264.393 108.545Z" fill="white"/>
<path d="M262.478 108.735H261.315C261.178 108.735 261.042 108.862 261.042 108.988V110.316C261.042 110.442 261.11 110.505 261.247 110.505C261.247 110.505 261.315 110.505 261.383 110.505V112.212C261.383 112.528 261.862 112.528 261.862 112.212V110.505H261.931V112.212C261.931 112.528 262.409 112.528 262.409 112.212V110.505C262.478 110.505 262.546 110.505 262.546 110.505C262.683 110.505 262.751 110.442 262.751 110.316V108.988C262.751 108.799 262.614 108.735 262.478 108.735Z" fill="white"/>
<path d="M261.862 108.545C262.051 108.545 262.204 108.404 262.204 108.229C262.204 108.055 262.051 107.913 261.862 107.913C261.673 107.913 261.52 108.055 261.52 108.229C261.52 108.404 261.673 108.545 261.862 108.545Z" fill="white"/>
<path d="M232.654 145.19H269.994V132.041H232.654V145.19Z" fill="black"/>
<path d="M254.21 161.984H308.368V126.102H278.506V147.75H254.21V161.984Z" fill="#C4C4C4"/>
<path d="M278.527 125.076H308.369V64.5883H278.527V125.076Z" fill="#DAC452"/>
<path d="M265.263 54.3369L308.369 54.3369V6.15161L265.263 6.15161V54.3369Z" fill="#DAC452"/>
<path d="M213.316 54.3369L259.737 54.3369V6.15161L213.316 6.15161V54.3369Z" fill="#DAC452"/>
<path d="M250.509 136.046C250.919 136.046 251.261 135.73 251.261 135.351C251.261 134.971 250.919 134.655 250.509 134.655C250.099 134.655 249.757 134.971 249.757 135.351C249.757 135.73 250.099 136.046 250.509 136.046Z" fill="white"/>
<path d="M255.502 135.414H253.792C253.45 135.414 252.971 135.541 252.698 135.793L251.125 137.247V136.805C251.125 135.92 249.689 135.92 249.689 136.805V138.512L248.321 139.776C248.184 139.903 248.184 139.903 247.911 139.903H247.09C246.269 139.903 245.722 140.598 245.722 141.167C245.722 141.736 246.201 142.495 247.158 142.495C247.158 142.495 248.321 142.495 248.663 142.495C249.005 142.495 249.415 142.368 249.757 142.052L254.134 138.069C254.202 138.006 254.271 137.943 254.408 137.943C254.408 137.943 255.023 137.943 255.502 137.943C256.049 137.943 256.733 137.374 256.733 136.615C256.801 135.92 256.117 135.414 255.502 135.414ZM255.433 137.374H254.544C254.134 137.374 253.997 137.437 253.792 137.627L249.415 141.673C249.21 141.862 249.005 141.926 248.731 141.926H247.295C246.953 141.926 246.611 141.609 246.611 141.23C246.611 140.851 246.953 140.661 247.227 140.661H248.184C248.458 140.661 248.663 140.598 248.8 140.408L253.245 136.299C253.45 136.109 253.587 136.109 253.929 136.109H255.433C255.775 136.109 256.049 136.489 256.049 136.742C256.049 136.995 255.912 137.374 255.433 137.374Z" fill="white"/>
<path d="M116.242 324.729H153.582V311.58H116.242V324.729Z" fill="black"/>
<path d="M134.111 315.572C134.522 315.572 134.864 315.256 134.864 314.877C134.864 314.498 134.522 314.182 134.111 314.182C133.701 314.182 133.359 314.498 133.359 314.877C133.359 315.256 133.701 315.572 134.111 315.572Z" fill="white"/>
<path d="M139.103 314.94H137.462C137.12 314.94 136.641 315.067 136.368 315.32L134.795 316.774V316.331C134.795 315.446 133.359 315.446 133.359 316.331V318.038L131.991 319.303C131.854 319.429 131.854 319.429 131.581 319.429H130.76C129.939 319.429 129.392 320.124 129.392 320.693C129.392 321.262 129.871 322.021 130.828 322.021C130.828 322.021 131.991 322.021 132.333 322.021C132.675 322.021 133.085 321.895 133.427 321.578L137.804 317.596C137.872 317.532 137.941 317.469 138.078 317.469C138.078 317.469 138.693 317.469 139.172 317.469C139.719 317.469 140.403 316.9 140.403 316.142C140.403 315.446 139.65 314.94 139.103 314.94ZM139.035 316.9H138.146C137.736 316.9 137.599 316.963 137.394 317.153L133.017 321.199C132.812 321.389 132.606 321.452 132.333 321.452H130.897C130.555 321.452 130.213 321.136 130.213 320.757C130.213 320.377 130.555 320.188 130.828 320.188H131.786C132.059 320.188 132.264 320.124 132.401 319.935L136.847 315.826C137.052 315.636 137.188 315.636 137.53 315.636H139.035C139.377 315.636 139.65 316.015 139.65 316.268C139.65 316.521 139.514 316.9 139.035 316.9Z" fill="white"/>
<path d="M189.592 184.408H226.933V171.259H189.592V184.408Z" fill="black"/>
<path d="M207.424 175.241C207.834 175.241 208.176 174.925 208.176 174.546C208.176 174.167 207.834 173.851 207.424 173.851C207.013 173.851 206.671 174.167 206.671 174.546C206.671 174.925 207.013 175.241 207.424 175.241Z" fill="white"/>
<path d="M212.485 174.609H210.775C210.433 174.609 209.954 174.736 209.681 174.989L208.108 176.443V176C208.108 175.115 206.672 175.115 206.672 176V177.707L205.304 178.971C205.167 179.098 205.167 179.098 204.894 179.098H204.073C203.252 179.098 202.705 179.793 202.705 180.362C202.705 180.931 203.184 181.69 204.141 181.69C204.141 181.69 205.304 181.69 205.646 181.69C205.988 181.69 206.398 181.563 206.74 181.247L211.117 177.265C211.185 177.201 211.254 177.138 211.39 177.138C211.39 177.138 212.006 177.138 212.485 177.138C213.032 177.138 213.716 176.569 213.716 175.811C213.716 175.115 213.032 174.609 212.485 174.609ZM212.348 176.569H211.459C211.049 176.569 210.912 176.632 210.707 176.822L206.33 180.868C206.125 181.058 205.919 181.121 205.646 181.121H204.21C203.868 181.121 203.526 180.805 203.526 180.426C203.526 180.046 203.868 179.857 204.141 179.857H205.099C205.372 179.857 205.577 179.793 205.714 179.604L210.159 175.494C210.365 175.305 210.501 175.305 210.843 175.305H212.348C212.69 175.305 212.963 175.684 212.963 175.937C212.963 176.19 212.827 176.569 212.348 176.569Z" fill="white"/>
<path d="M232.654 77.3271H269.994V64.1777H232.654V77.3271Z" fill="black"/>
<path d="M250.509 68.2121C250.919 68.2121 251.261 67.896 251.261 67.5167C251.261 67.1374 250.919 66.8213 250.509 66.8213C250.099 66.8213 249.757 67.1374 249.757 67.5167C249.757 67.896 250.099 68.2121 250.509 68.2121Z" fill="white"/>
<path d="M255.502 67.5801H253.792C253.45 67.5801 252.971 67.7065 252.698 67.9594L251.125 69.4134V68.9709C251.125 68.0858 249.689 68.0858 249.689 68.9709V70.6778L248.321 71.9421C248.184 72.0686 248.184 72.0686 247.911 72.0686H247.09C246.269 72.0686 245.722 72.764 245.722 73.3329C245.722 73.9019 246.201 74.6605 247.158 74.6605C247.158 74.6605 248.321 74.6605 248.663 74.6605C249.005 74.6605 249.415 74.5341 249.757 74.218L254.134 70.2352C254.202 70.172 254.271 70.1088 254.408 70.1088C254.408 70.1088 255.023 70.1088 255.502 70.1088C256.049 70.1088 256.733 69.5398 256.733 68.7812C256.801 68.0858 256.117 67.5801 255.502 67.5801ZM255.433 69.4766H254.544C254.134 69.4766 253.997 69.5398 253.792 69.7295L249.415 73.7755C249.21 73.9651 249.005 74.0283 248.731 74.0283H247.295C246.953 74.0283 246.611 73.7122 246.611 73.3329C246.611 72.9536 246.953 72.764 247.227 72.764H248.184C248.458 72.764 248.663 72.7007 248.8 72.5111L253.245 68.4019C253.45 68.2123 253.587 68.2123 253.929 68.2123H255.433C255.775 68.2123 256.049 68.5916 256.049 68.8444C256.049 69.0973 255.912 69.4766 255.433 69.4766Z" fill="white"/>
<path d="M101.739 173.007H149.542V155.622H101.739V173.007Z" fill="#C8A67C"/>
<path d="M102 220H150V204H102V220Z" fill="#C8A67C"/>
<path d="M120.163 200.94H149.57V190.257H120.163V200.94Z" fill="#C8A67C"/>
<path d="M101.832 218.736H149.567V220.823L130.008 239.093H101.832V218.736Z" fill="#C8A67C"/>
<path d="M101.832 147.741L129.187 129.281L149.567 137.5V153.115H101.832V147.741Z" fill="#C8A67C"/>
<path d="M117.287 200.971V187.696H149.567V175.558H101.832V200.971H117.287Z" fill="#C8A67C"/>
<path d="M171.411 10H176.326V8.73224H172.949V6.99574H176.06V5.72798H172.949V3.99503H176.312V2.72727H171.411V10ZM178.788 10L179.328 8.34162H181.952L182.492 10H184.14L181.633 2.72727H179.651L177.14 10H178.788ZM179.718 7.14134L180.613 4.3892H180.67L181.565 7.14134H179.718ZM188.794 4.81889H190.268C190.247 3.52273 189.181 2.62784 187.562 2.62784C185.968 2.62784 184.799 3.50852 184.806 4.82955C184.803 5.90199 185.559 6.51634 186.788 6.81108L187.58 7.00994C188.372 7.2017 188.812 7.42898 188.816 7.91903C188.812 8.4517 188.308 8.81392 187.527 8.81392C186.727 8.81392 186.152 8.4446 186.102 7.71662H184.615C184.654 9.28977 185.779 10.103 187.544 10.103C189.32 10.103 190.364 9.25426 190.367 7.92259C190.364 6.71165 189.451 6.06889 188.187 5.7848L187.534 5.62855C186.902 5.48295 186.372 5.24858 186.383 4.72656C186.383 4.25781 186.799 3.91335 187.551 3.91335C188.286 3.91335 188.737 4.24716 188.794 4.81889ZM191.125 3.99503H193.351V10H194.871V3.99503H197.098V2.72727H191.125V3.99503ZM160.851 15.995H163.078V22H164.598V15.995H166.824V14.7273H160.851V15.995ZM174.169 18.3636C174.169 15.9844 172.692 14.6278 170.763 14.6278C168.824 14.6278 167.358 15.9844 167.358 18.3636C167.358 20.7322 168.824 22.0994 170.763 22.0994C172.692 22.0994 174.169 20.7429 174.169 18.3636ZM172.61 18.3636C172.61 19.9048 171.878 20.7393 170.763 20.7393C169.645 20.7393 168.917 19.9048 168.917 18.3636C168.917 16.8224 169.645 15.9879 170.763 15.9879C171.878 15.9879 172.61 16.8224 172.61 18.3636ZM176.672 22H178.17L179.552 17.245H179.608L180.993 22H182.492L184.573 14.7273H182.893L181.689 19.7912H181.625L180.301 14.7273H178.863L177.534 19.7805H177.474L176.27 14.7273H174.591L176.672 22ZM185.396 22H190.311V20.7322H186.933V18.9957H190.044V17.728H186.933V15.995H190.296V14.7273H185.396V22ZM191.519 22H193.057V19.4219H194.179L195.557 22H197.254L195.709 19.1733C196.537 18.8182 196.995 18.0973 196.995 17.103C196.995 15.6577 196.039 14.7273 194.388 14.7273H191.519V22ZM193.057 18.1861V15.9844H194.093C194.981 15.9844 195.411 16.3786 195.411 17.103C195.411 17.8239 194.981 18.1861 194.101 18.1861H193.057Z" fill="black"/>
<path d="M195.36 314.945H196.858L198.239 310.19H198.296L199.681 314.945H201.18L203.261 307.673H201.581L200.377 312.737H200.313L198.989 307.673H197.551L196.222 312.726H196.162L194.958 307.673H193.279L195.36 314.945ZM204.084 314.945H208.999V313.678H205.621V311.941H208.732V310.673H205.621V308.94H208.984V307.673H204.084V314.945ZM214.152 309.764H215.626C215.605 308.468 214.539 307.573 212.92 307.573C211.325 307.573 210.157 308.454 210.164 309.775C210.161 310.847 210.917 311.462 212.146 311.756L212.938 311.955C213.73 312.147 214.17 312.374 214.173 312.864C214.17 313.397 213.666 313.759 212.884 313.759C212.085 313.759 211.51 313.39 211.46 312.662H209.972C210.011 314.235 211.137 315.048 212.902 315.048C214.678 315.048 215.722 314.2 215.725 312.868C215.722 311.657 214.809 311.014 213.545 310.73L212.891 310.574C212.259 310.428 211.73 310.194 211.741 309.672C211.741 309.203 212.156 308.859 212.909 308.859C213.644 308.859 214.095 309.192 214.152 309.764ZM216.483 308.94H218.709V314.945H220.229V308.94H222.456V307.673H216.483V308.94ZM193.445 320.94H195.672V326.945H197.192V320.94H199.418V319.673H193.445V320.94ZM206.763 323.309C206.763 320.93 205.286 319.573 203.358 319.573C201.419 319.573 199.952 320.93 199.952 323.309C199.952 325.678 201.419 327.045 203.358 327.045C205.286 327.045 206.763 325.688 206.763 323.309ZM205.204 323.309C205.204 324.85 204.473 325.685 203.358 325.685C202.239 325.685 201.511 324.85 201.511 323.309C201.511 321.768 202.239 320.933 203.358 320.933C204.473 320.933 205.204 321.768 205.204 323.309ZM209.266 326.945H210.764L212.146 322.19H212.203L213.587 326.945H215.086L217.167 319.673H215.487L214.284 324.737H214.22L212.895 319.673H211.457L210.129 324.726H210.068L208.864 319.673H207.185L209.266 326.945ZM217.99 326.945H222.905V325.678H219.528V323.941H222.638V322.673H219.528V320.94H222.891V319.673H217.99V326.945ZM224.113 326.945H225.651V324.367H226.773L228.151 326.945H229.848L228.303 324.119C229.131 323.763 229.589 323.043 229.589 322.048C229.589 320.603 228.634 319.673 226.982 319.673H224.113V326.945ZM225.651 323.131V320.93H226.688C227.575 320.93 228.005 321.324 228.005 322.048C228.005 322.769 227.575 323.131 226.695 323.131H225.651Z" fill="black"/>
<path d="M16.5156 11H10.1563L2.23438 16.0156V22.0156L9.5625 17.4219H9.75V43H16.5156V11ZM24.3086 43H31.0742V29.7812H44.0898V24.2031H31.0742V16.5781H45.4961V11H24.3086V43Z" fill="black"/>
<path d="M278.52 32.7035C279.633 32.7035 280.123 31.9055 280.123 30.9325V27.4255H279.087V30.8485C279.087 31.5625 278.849 31.8075 278.394 31.8075C278.1 31.8075 277.827 31.6465 277.624 31.2685L276.91 31.7935C277.26 32.3955 277.764 32.7035 278.52 32.7035ZM282.918 32.7035C284.115 32.7035 284.822 31.9825 284.822 31.1355C284.822 30.3865 284.409 29.9875 283.779 29.7285L283.1 29.4415C282.659 29.2665 282.288 29.1335 282.288 28.7625C282.288 28.4195 282.582 28.2165 283.037 28.2165C283.464 28.2165 283.807 28.3705 284.136 28.6435L284.661 27.9925C284.241 27.5655 283.639 27.3275 283.037 27.3275C281.987 27.3275 281.245 27.9785 281.245 28.8255C281.245 29.5815 281.77 30.0015 282.295 30.2185L282.988 30.5125C283.45 30.7085 283.765 30.8275 283.765 31.2125C283.765 31.5765 283.478 31.8075 282.939 31.8075C282.484 31.8075 281.994 31.5765 281.623 31.2335L281.028 31.9475C281.532 32.4305 282.225 32.7035 282.918 32.7035ZM285.697 27.4185V28.1675H287.804C287.636 29.5955 286.838 30.6175 285.34 31.3875L285.858 32.0945C288 31.0095 288.735 29.3505 288.735 27.4185H285.697ZM291.353 29.2175H290.45V26.7535H289.526V33.1935H290.45V29.9805H291.353V29.2175ZM297.037 28.6855H293.474V27.7265H296.988V26.9915H292.557V29.4205H297.037V28.6855ZM293.46 31.1635H292.536V33.0955H297.086V32.3605H293.46V31.1635ZM291.85 29.9455V30.6805H297.681V29.9455H291.85Z" fill="black"/>
<path d="M289.056 94.2377H286.782V93.6677H289.056V94.2377ZM289.836 92.4197H289.056V93.0497H286.782V92.4197H285.996V94.8677H289.836V92.4197ZM290.43 95.3897H285.426V96.0197H287.514V97.7417H288.306V96.0197H290.43V95.3897ZM294.57 93.4397H291.528V95.1137H295.506V94.4897H292.338V94.0337H295.374V92.3837H291.522V93.0077H294.57V93.4397ZM295.95 95.5157H290.946V96.1517H293.04V97.7477H293.832V96.1517H295.95V95.5157ZM297.017 96.5057H300.083V97.7537H300.875V95.8817H297.017V96.5057ZM299.357 94.8797V94.3997H300.917V93.7757H297.863V93.0557H300.869V92.4317H297.077V94.3997H298.565V94.8797H296.471V95.5097H301.463V94.8797H299.357Z" fill="black"/>
<path d="M228.715 31.0515C228.365 31.0515 228.113 30.7715 228.113 30.2885C228.113 29.8055 228.365 29.5185 228.715 29.5185C229.065 29.5185 229.317 29.8055 229.317 30.2885C229.317 30.7715 229.065 31.0515 228.715 31.0515ZM228.715 28.7485C227.889 28.7485 227.301 29.3855 227.301 30.2885C227.301 31.1845 227.889 31.8215 228.715 31.8215C229.541 31.8215 230.129 31.1845 230.129 30.2885C230.129 29.3855 229.541 28.7485 228.715 28.7485ZM229.17 26.9355H228.26V27.7335H227.161V28.4685H230.241V27.7335H229.17V26.9355ZM231.823 26.7535V29.3855H231.333V26.8795H230.472V32.9345H231.333V30.1275H231.823V33.2005H232.698V26.7535H231.823ZM236.513 27.7125C237.353 27.7125 237.892 27.9645 237.892 28.4265C237.892 28.8955 237.353 29.1475 236.513 29.1475C235.666 29.1475 235.127 28.8955 235.127 28.4265C235.127 27.9645 235.666 27.7125 236.513 27.7125ZM236.513 29.8825C237.885 29.8825 238.844 29.3155 238.844 28.4265C238.844 27.5515 237.885 26.9775 236.513 26.9775C235.134 26.9775 234.182 27.5515 234.182 28.4265C234.182 29.3155 235.134 29.8825 236.513 29.8825ZM239.446 30.3655H233.608V31.1075H236.044V33.2145H236.968V31.1075H239.446V30.3655ZM241.335 29.7985H243.428V27.3065H240.383V28.0415H242.483V29.0705H240.39V31.7235H240.971C242.14 31.7235 243.085 31.6815 244.135 31.4995L244.037 30.7505C243.127 30.9045 242.315 30.9535 241.335 30.9605V29.7985ZM244.485 26.7535V33.2215H245.409V26.7535H244.485Z" fill="black"/>
<path d="M120.602 145.049C119.354 144.833 118.67 143.975 118.67 143.165V142.769H117.824V143.165C117.824 143.957 117.134 144.833 115.892 145.049L116.228 145.709C117.188 145.523 117.89 144.983 118.244 144.281C118.598 144.983 119.306 145.517 120.266 145.709L120.602 145.049ZM115.772 146.657V147.299H120.776V146.657H115.772ZM125.881 142.445H125.083V145.319H125.881V142.445ZM124.633 144.449C123.931 144.545 123.319 144.563 122.377 144.563V144.209H124.087V143.621H122.377V143.279H124.249V142.667H121.591V145.181H122.065C123.217 145.181 123.907 145.175 124.699 145.067L124.633 144.449ZM122.989 147.335V146.993H125.881V145.535H122.197V146.129H125.095V146.441H122.203V147.929H126.019V147.335H122.989ZM130.387 144.101H128.233V143.669H130.387V144.101ZM131.173 142.589H130.387V143.075H128.233V142.589H127.447V144.719H131.173V142.589ZM131.809 145.703V145.073H126.811V145.703H128.905V146.171H127.363V146.795H130.411V147.977H131.203V146.171H129.697V145.703H131.809ZM137.16 145.049C135.912 144.833 135.228 143.975 135.228 143.165V142.769H134.382V143.165C134.382 143.957 133.692 144.833 132.45 145.049L132.786 145.709C133.746 145.523 134.448 144.983 134.802 144.281C135.156 144.983 135.864 145.517 136.824 145.709L137.16 145.049ZM132.33 146.657V147.299H137.334V146.657H132.33Z" fill="black"/>
<path d="M115.884 163.73C115.884 163.166 116.406 162.836 117.162 162.836C117.924 162.836 118.446 163.166 118.446 163.73C118.446 164.294 117.924 164.624 117.162 164.624C116.406 164.624 115.884 164.294 115.884 163.73ZM117.558 166.166V165.23C118.536 165.116 119.226 164.552 119.226 163.73C119.226 162.806 118.344 162.206 117.162 162.206C115.986 162.206 115.104 162.806 115.104 163.73C115.104 164.552 115.794 165.11 116.766 165.23V166.166H114.666V166.808H119.67V166.166H117.558ZM123.846 163.52H120.762V165.386H124.752V164.756H121.548V164.138H124.626V162.296H120.756V162.926H123.846V163.52ZM120.186 166.178V166.826H125.19V166.178H120.186ZM126.923 163.73C126.923 163.166 127.445 162.836 128.201 162.836C128.963 162.836 129.485 163.166 129.485 163.73C129.485 164.294 128.963 164.624 128.201 164.624C127.445 164.624 126.923 164.294 126.923 163.73ZM128.597 166.166V165.23C129.575 165.116 130.265 164.552 130.265 163.73C130.265 162.806 129.383 162.206 128.201 162.206C127.025 162.206 126.143 162.806 126.143 163.73C126.143 164.552 126.833 165.11 127.805 165.23V166.166H125.705V166.808H130.709V166.166H128.597ZM134.885 163.52H131.801V165.386H135.791V164.756H132.587V164.138H135.665V162.296H131.795V162.926H134.885V163.52ZM131.225 166.178V166.826H136.229V166.178H131.225Z" fill="black"/>
<path d="M122.231 180.181H121.319V179.491H120.539V180.181H119.627V180.817H122.231V180.181ZM120.917 183.037C120.635 183.037 120.425 182.797 120.425 182.377C120.425 181.963 120.635 181.723 120.917 181.723C121.205 181.723 121.409 181.963 121.409 182.377C121.409 182.797 121.205 183.037 120.917 183.037ZM120.917 181.063C120.233 181.063 119.741 181.609 119.741 182.377C119.741 183.151 120.233 183.691 120.917 183.691C121.601 183.691 122.093 183.151 122.093 182.377C122.093 181.609 121.601 181.063 120.917 181.063ZM122.555 181.387H122.099V182.041H122.555V184.633H123.287V179.449H122.555V181.387ZM123.623 179.353V184.879H124.373V179.353H123.623ZM126.635 182.965C126.221 182.965 125.945 182.527 125.945 181.705C125.945 180.889 126.221 180.451 126.635 180.451C127.043 180.451 127.325 180.889 127.325 181.705C127.325 182.527 127.043 182.965 126.635 182.965ZM126.635 179.737C125.795 179.737 125.183 180.493 125.183 181.705C125.183 182.923 125.795 183.685 126.635 183.685C127.469 183.685 128.087 182.923 128.087 181.705C128.087 180.493 127.469 179.737 126.635 179.737ZM130.283 181.435H129.479V179.353H128.687V184.879H129.479V182.089H130.283V181.435Z" fill="black"/>
<path d="M117.315 221.582H116.265V220.802H117.315V221.582ZM118.089 221.096H119.073V223.07H119.865V218.996H119.073V220.46H118.089V219.362H117.315V220.196H116.265V219.356H115.479V222.212H118.089V221.096ZM117.009 223.79V222.674H116.217V224.42H119.985V223.79H117.009ZM120.975 219.674V220.304H122.373C122.271 221.39 121.803 222.188 120.693 222.836L121.155 223.388C122.697 222.488 123.153 221.222 123.153 219.674H120.975ZM124.743 218.99V221.072H124.251V219.134H123.513V224.282H124.251V221.708H124.743V224.516H125.499V218.99H124.743ZM129.578 221.498C128.708 221.24 128.33 220.622 128.318 219.992H129.398V219.356H126.41V219.992H127.508C127.496 220.682 127.1 221.384 126.206 221.684L126.602 222.302C127.25 222.092 127.688 221.654 127.934 221.108C128.174 221.564 128.594 221.93 129.2 222.11L129.578 221.498ZM128.828 223.91C128.12 223.91 127.742 223.76 127.742 223.448C127.742 223.13 128.12 222.98 128.828 222.98C129.53 222.98 129.908 223.13 129.908 223.448C129.908 223.76 129.53 223.91 128.828 223.91ZM128.828 222.368C127.676 222.368 126.956 222.77 126.956 223.448C126.956 224.12 127.676 224.516 128.828 224.516C129.974 224.516 130.694 224.12 130.694 223.448C130.694 222.77 129.974 222.368 128.828 222.368ZM130.634 220.262V218.99H129.842V222.272H130.634V220.91H131.366V220.262H130.634ZM132.842 221.606H134.426V220.988H132.842V220.088H134.612V219.452H132.056V223.274H132.506C133.436 223.274 134.144 223.256 134.942 223.13L134.87 222.494C134.192 222.602 133.586 222.632 132.842 222.638V221.606ZM135.65 218.984V220.934H134.702V221.57H135.65V224.528H136.442V218.984H135.65Z" fill="black"/>
<path d="M163.668 256.806C163.254 256.806 162.978 256.368 162.978 255.546C162.978 254.73 163.254 254.292 163.668 254.292C164.076 254.292 164.358 254.73 164.358 255.546C164.358 256.368 164.076 256.806 163.668 256.806ZM163.668 253.578C162.828 253.578 162.216 254.334 162.216 255.546C162.216 256.764 162.828 257.526 163.668 257.526C164.502 257.526 165.12 256.764 165.12 255.546C165.12 254.334 164.502 253.578 163.668 253.578ZM167.316 255.276H166.512V253.194H165.72V258.72H166.512V255.93H167.316V255.276ZM169.733 255.522H168.647V254.838H169.733V255.522ZM170.513 253.548H169.733V254.232H168.647V253.548H167.867V256.14H170.513V253.548ZM170.243 258.114C169.541 258.114 169.163 257.964 169.163 257.652C169.163 257.34 169.541 257.19 170.243 257.19C170.951 257.19 171.329 257.34 171.329 257.652C171.329 257.964 170.951 258.114 170.243 258.114ZM170.243 256.572C169.097 256.572 168.377 256.974 168.377 257.652C168.377 258.324 169.097 258.732 170.243 258.732C171.395 258.732 172.115 258.324 172.115 257.652C172.115 256.974 171.395 256.572 170.243 256.572ZM172.055 254.484V253.2H171.263V256.452H172.055V255.132H172.787V254.484H172.055ZM158.286 263.782H157.566V262.588H158.286V263.782ZM159.534 262.216H159.018V260.698H158.286V261.964H157.566V260.692H156.822V264.412H159.018V262.852H159.534V265.48H160.272V260.29H159.534V262.216ZM160.656 260.188V265.714H161.406V260.188H160.656ZM165.972 260.188V265.732H166.764V260.188H165.972ZM163.794 260.578C162.96 260.578 162.342 261.334 162.342 262.546C162.342 263.764 162.96 264.526 163.794 264.526C164.628 264.526 165.246 263.764 165.246 262.546C165.246 261.334 164.628 260.578 163.794 260.578ZM163.794 261.292C164.202 261.292 164.484 261.73 164.484 262.546C164.484 263.368 164.202 263.806 163.794 263.806C163.386 263.806 163.104 263.368 163.104 262.546C163.104 261.73 163.386 261.292 163.794 261.292ZM167.981 260.722V261.352H169.727C169.703 261.616 169.661 261.856 169.607 262.09L167.687 262.198L167.789 262.864L169.367 262.72C169.049 263.326 168.515 263.836 167.657 264.286L168.089 264.886C170.069 263.848 170.513 262.42 170.513 260.722H167.981ZM171.533 260.194V262.312H170.501V262.954H171.533V265.72H172.325V260.194H171.533ZM174.329 262.798H176.123V260.662H173.513V261.292H175.313V262.174H173.519V264.448H174.017C175.019 264.448 175.829 264.412 176.729 264.256L176.645 263.614C175.865 263.746 175.169 263.788 174.329 263.794V262.798ZM177.029 260.188V265.732H177.821V260.188H177.029Z" fill="black"/>
<path d="M126.92 196.149C126.324 195.957 126.076 195.493 126.076 195.025V194.625H125.54V195.021C125.54 195.525 125.28 196.017 124.66 196.217L124.94 196.629C125.36 196.489 125.652 196.201 125.816 195.833C125.976 196.165 126.248 196.429 126.648 196.561L126.92 196.149ZM125.772 196.841H125.244V198.021H127.744V197.601H125.772V196.841ZM127.616 195.469V194.401H127.088V197.097H127.616V195.905H128.104V195.469H127.616ZM129.068 196.145H130.22V195.733H129.068V195.133H130.272V194.705H128.54V197.253H128.852C129.484 197.253 129.98 197.237 130.54 197.153L130.492 196.733C130.012 196.805 129.588 196.825 129.068 196.829V196.145ZM131.816 195.797H131.28V194.401H130.752V198.089H131.28V196.233H131.816V195.797ZM132.708 195.165H133.428V196.773H132.708V195.165ZM132.188 197.189H133.948V194.749H132.188V197.189ZM135.496 195.789H134.96V194.405H134.432V198.085H134.96V196.225H135.496V195.789ZM136.491 196.137H137.687V194.713H135.947V195.133H137.147V195.721H135.951V197.237H136.283C136.951 197.237 137.491 197.213 138.091 197.109L138.035 196.681C137.515 196.769 137.051 196.797 136.491 196.801V196.137ZM138.291 194.397V198.093H138.819V194.397H138.291ZM140.423 196.809C140.147 196.809 139.963 196.517 139.963 195.969C139.963 195.425 140.147 195.133 140.423 195.133C140.695 195.133 140.883 195.425 140.883 195.969C140.883 196.517 140.695 196.809 140.423 196.809ZM140.423 194.657C139.863 194.657 139.455 195.161 139.455 195.969C139.455 196.781 139.863 197.289 140.423 197.289C140.979 197.289 141.391 196.781 141.391 195.969C141.391 195.161 140.979 194.657 140.423 194.657ZM142.855 195.789H142.319V194.401H141.791V198.085H142.319V196.225H142.855V195.789ZM145.047 197.245V196.405H146.099V195.985H144.019V194.681H143.491V196.405H144.519V197.245H143.115V197.673H146.451V197.245H145.047ZM149.934 194.405H149.434V196.301H149.934V194.405ZM147.894 195.781H147.418V195.393H147.894V195.781ZM148.382 195.589H148.686V196.281H149.178V194.465H148.686V195.173H148.382V194.601H147.894V195.005H147.418V194.605H146.922V196.185H148.382V195.589ZM147.966 197.657V197.433H149.934V196.449H147.43V196.853H149.406V197.053H147.438V198.057H150.05V197.657H147.966ZM151.146 196.137H152.314V194.713H150.622V195.133H151.794V195.721H150.626V197.241H150.938C151.578 197.241 152.086 197.217 152.638 197.117L152.59 196.689C152.11 196.773 151.674 196.801 151.146 196.805V196.137ZM153.894 195.789H153.366V194.397H152.838V198.093H153.366V196.225H153.894V195.789Z" fill="black"/>
<path fill-rule="evenodd" clip-rule="evenodd" d="M222.789 74.1964C226.317 73.5871 229 70.5207 229 66.8295C229 62.7001 225.642 59.3525 221.5 59.3525C217.358 59.3525 214 62.7001 214 66.8295C214 70.5207 216.683 73.5871 220.211 74.1964L221.5 79.3525L222.789 74.1964Z" fill="black"/>
<path fill-rule="evenodd" clip-rule="evenodd" d="M222.789 72.1964C226.317 71.5871 229 68.5207 229 64.8295C229 60.7001 225.642 57.3525 221.5 57.3525C217.358 57.3525 214 60.7001 214 64.8295C214 68.5207 216.683 71.5871 220.211 72.1964L221.5 77.3525L222.789 72.1964Z" fill="#FF0000"/>
<ellipse cx="221.5" cy="64.8292" rx="2.5" ry="2.49231" fill="white"/>
<path d="M206.616 407.357H208.116V405.857V375.5H313.5V702.5H1.5V435.5H161.319H162.819V434V407.357H206.616Z" fill="#C4C4C4" stroke="black" stroke-width="3" stroke-miterlimit="10"/>
<path d="M251.266 459.337H241.75V494.373H251.266V459.337Z" fill="black"/>
<path d="M113.266 618.412H103.75V653.448H113.266V618.412Z" fill="black"/>
<path d="M276.806 459.337H267.29V494.373H276.806V459.337Z" fill="black"/>
<path d="M138.806 618.412H129.29V653.448H138.806V618.412Z" fill="black"/>
<path d="M265.448 459.337H253.107V494.373H265.448V459.337Z" fill="#FF0000"/>
<path d="M127.448 618.412H115.107V653.448H127.448V618.412Z" fill="black"/>
<path d="M240 459.412H167V494.412H240V459.412Z" fill="black"/>
<path d="M102 618.487H29V653.487H102V618.487Z" fill="black"/>
<path d="M262.869 480.285V474.971C262.869 474.415 262.44 473.982 261.887 473.982H256.607C256.054 473.982 255.625 474.415 255.625 474.971V480.285C255.625 480.841 256.054 481.274 256.607 481.274H261.887C262.44 481.212 262.869 480.841 262.869 480.285ZM262.071 480.409H256.423V474.786H262.071V480.409Z" fill="white"/>
<path d="M260.168 470.522C260.168 470.089 260.782 470.089 260.782 470.522V472.252L261.089 471.881C261.334 471.634 261.702 472.005 261.457 472.252L260.659 473.179C260.536 473.302 260.352 473.302 260.229 473.179L259.431 472.252C259.185 471.943 259.615 471.634 259.799 471.881L260.106 472.314L260.168 470.522Z" fill="white"/>
<path d="M257.773 472.996C257.773 473.428 258.387 473.428 258.387 472.996V471.266L258.694 471.636C258.94 471.884 259.308 471.513 259.062 471.266L258.264 470.339C258.141 470.215 257.957 470.215 257.834 470.339L257.036 471.266C256.791 471.575 257.221 471.884 257.405 471.636L257.712 471.204L257.773 472.996Z" fill="white"/>
<path d="M260.905 476.453H259.861C259.738 476.453 259.615 476.577 259.615 476.7V477.998C259.615 478.122 259.677 478.183 259.799 478.183C259.799 478.183 259.861 478.183 259.922 478.183V479.852C259.922 480.161 260.352 480.161 260.352 479.852V478.183H260.413V479.852C260.413 480.161 260.843 480.161 260.843 479.852V478.183C260.905 478.183 260.966 478.183 260.966 478.183C261.089 478.183 261.15 478.122 261.15 477.998V476.7C261.15 476.577 261.027 476.453 260.905 476.453Z" fill="white"/>
<path d="M260.351 476.33C260.521 476.33 260.658 476.192 260.658 476.021C260.658 475.85 260.521 475.712 260.351 475.712C260.182 475.712 260.044 475.85 260.044 476.021C260.044 476.192 260.182 476.33 260.351 476.33Z" fill="white"/>
<path d="M258.695 476.453H257.651C257.528 476.453 257.405 476.577 257.405 476.7V477.998C257.405 478.122 257.467 478.183 257.589 478.183C257.589 478.183 257.651 478.183 257.712 478.183V479.852C257.712 480.161 258.142 480.161 258.142 479.852V478.183H258.203V479.852C258.203 480.161 258.633 480.161 258.633 479.852V478.183C258.695 478.183 258.756 478.183 258.756 478.183C258.879 478.183 258.94 478.122 258.94 477.998V476.7C258.94 476.577 258.817 476.453 258.695 476.453Z" fill="white"/>
<path d="M258.141 476.33C258.311 476.33 258.448 476.192 258.448 476.021C258.448 475.85 258.311 475.712 258.141 475.712C257.972 475.712 257.834 475.85 257.834 476.021C257.834 476.192 257.972 476.33 258.141 476.33Z" fill="white"/>
<path d="M124.869 639.359V634.045C124.869 633.489 124.44 633.057 123.887 633.057H118.607C118.054 633.057 117.625 633.489 117.625 634.045V639.359C117.625 639.916 118.054 640.348 118.607 640.348H123.887C124.44 640.286 124.869 639.916 124.869 639.359ZM124.071 639.483H118.423V633.86H124.071V639.483Z" fill="white"/>
<path d="M122.168 629.596C122.168 629.163 122.782 629.163 122.782 629.596V631.326L123.089 630.955C123.334 630.708 123.702 631.079 123.457 631.326L122.659 632.253C122.536 632.377 122.352 632.377 122.229 632.253L121.431 631.326C121.185 631.017 121.615 630.708 121.799 630.955L122.106 631.388L122.168 629.596Z" fill="white"/>
<path d="M119.773 632.07C119.773 632.503 120.387 632.503 120.387 632.07V630.34L120.694 630.711C120.94 630.958 121.308 630.587 121.062 630.34L120.264 629.413C120.141 629.289 119.957 629.289 119.834 629.413L119.036 630.34C118.791 630.649 119.221 630.958 119.405 630.711L119.712 630.278L119.773 632.07Z" fill="white"/>
<path d="M122.905 635.527H121.861C121.738 635.527 121.615 635.651 121.615 635.775V637.072C121.615 637.196 121.677 637.258 121.799 637.258C121.799 637.258 121.861 637.258 121.922 637.258V638.926C121.922 639.235 122.352 639.235 122.352 638.926V637.258H122.413V638.926C122.413 639.235 122.843 639.235 122.843 638.926V637.258C122.905 637.258 122.966 637.258 122.966 637.258C123.089 637.258 123.15 637.196 123.15 637.072V635.775C123.15 635.651 123.027 635.527 122.905 635.527Z" fill="white"/>
<path d="M122.351 635.404C122.521 635.404 122.658 635.266 122.658 635.095C122.658 634.924 122.521 634.786 122.351 634.786C122.182 634.786 122.044 634.924 122.044 635.095C122.044 635.266 122.182 635.404 122.351 635.404Z" fill="white"/>
<path d="M120.695 635.527H119.651C119.528 635.527 119.405 635.651 119.405 635.775V637.072C119.405 637.196 119.467 637.258 119.589 637.258C119.589 637.258 119.651 637.258 119.712 637.258V638.926C119.712 639.235 120.142 639.235 120.142 638.926V637.258H120.203V638.926C120.203 639.235 120.633 639.235 120.633 638.926V637.258C120.695 637.258 120.756 637.258 120.756 637.258C120.879 637.258 120.94 637.196 120.94 637.072V635.775C120.94 635.651 120.817 635.527 120.695 635.527Z" fill="white"/>
<path d="M120.141 635.404C120.311 635.404 120.448 635.266 120.448 635.095C120.448 634.924 120.311 634.786 120.141 634.786C119.972 634.786 119.834 634.924 119.834 635.095C119.834 635.266 119.972 635.404 120.141 635.404Z" fill="white"/>
<path d="M175.632 474.412H177.17V472.054H178.462C180.135 472.054 181.108 471.056 181.108 469.604C181.108 468.159 180.153 467.139 178.501 467.139H175.632V474.412ZM177.17 470.822V468.396H178.207C179.094 468.396 179.524 468.879 179.524 469.604C179.524 470.325 179.094 470.822 178.214 470.822H177.17ZM183.487 474.515C184.293 474.515 184.815 474.164 185.082 473.656H185.124V474.412H186.559V470.733C186.559 469.433 185.458 468.887 184.244 468.887C182.937 468.887 182.077 469.512 181.868 470.506L183.267 470.619C183.37 470.257 183.693 469.991 184.237 469.991C184.751 469.991 185.046 470.25 185.046 470.698V470.719C185.046 471.07 184.673 471.117 183.725 471.209C182.646 471.308 181.676 471.671 181.676 472.889C181.676 473.968 182.447 474.515 183.487 474.515ZM183.92 473.471C183.455 473.471 183.121 473.254 183.121 472.839C183.121 472.413 183.473 472.203 184.006 472.129C184.336 472.083 184.876 472.004 185.057 471.884V472.463C185.057 473.034 184.585 473.471 183.92 473.471ZM187.733 474.412H189.245V471.326C189.245 470.655 189.735 470.193 190.403 470.193C190.613 470.193 190.9 470.229 191.042 470.275V468.933C190.907 468.901 190.719 468.879 190.566 468.879C189.956 468.879 189.455 469.235 189.256 469.909H189.199V468.958H187.733V474.412ZM191.824 474.412H193.337V472.679L193.746 472.214L195.233 474.412H197.006L194.878 471.319L196.903 468.958H195.166L193.419 471.028H193.337V467.139H191.824V474.412ZM197.645 474.412H199.157V468.958H197.645V474.412ZM198.405 468.254C198.856 468.254 199.225 467.91 199.225 467.487C199.225 467.068 198.856 466.724 198.405 466.724C197.957 466.724 197.588 467.068 197.588 467.487C197.588 467.91 197.957 468.254 198.405 468.254ZM201.882 471.259C201.886 470.556 202.305 470.144 202.915 470.144C203.523 470.144 203.888 470.541 203.885 471.209V474.412H205.398V470.939C205.398 469.668 204.652 468.887 203.516 468.887C202.706 468.887 202.12 469.284 201.875 469.92H201.811V468.958H200.369V474.412H201.882V471.259ZM209.047 476.571C210.606 476.571 211.714 475.861 211.714 474.465V468.958H210.212V469.874H210.155C209.953 469.43 209.509 468.887 208.596 468.887C207.4 468.887 206.388 469.817 206.388 471.674C206.388 473.489 207.371 474.334 208.6 474.334C209.47 474.334 209.956 473.897 210.155 473.446H210.219V474.444C210.219 475.193 209.74 475.485 209.083 475.485C208.415 475.485 208.078 475.193 207.954 474.863L206.555 475.051C206.736 475.911 207.577 476.571 209.047 476.571ZM209.079 473.198C208.337 473.198 207.932 472.608 207.932 471.667C207.932 470.74 208.33 470.09 209.079 470.09C209.814 470.09 210.226 470.712 210.226 471.667C210.226 472.629 209.807 473.198 209.079 473.198ZM175.632 486.412H180.547V485.144H177.17V483.408H180.281V482.14H177.17V480.407H180.533V479.139H175.632V486.412ZM183.009 486.412L183.548 484.754H186.173L186.713 486.412H188.36L185.853 479.139H183.872L181.361 486.412H183.009ZM183.939 483.553L184.834 480.801H184.891L185.786 483.553H183.939ZM193.015 481.231H194.489C194.467 479.935 193.402 479.04 191.783 479.04C190.188 479.04 189.02 479.921 189.027 481.242C189.023 482.314 189.78 482.928 191.009 483.223L191.8 483.422C192.592 483.614 193.033 483.841 193.036 484.331C193.033 484.864 192.528 485.226 191.747 485.226C190.948 485.226 190.373 484.857 190.323 484.129H188.835C188.874 485.702 190 486.515 191.765 486.515C193.54 486.515 194.585 485.666 194.588 484.335C194.585 483.124 193.672 482.481 192.408 482.197L191.754 482.041C191.122 481.895 190.593 481.661 190.604 481.139C190.604 480.67 191.019 480.325 191.772 480.325C192.507 480.325 192.958 480.659 193.015 481.231ZM195.345 480.407H197.572V486.412H199.092V480.407H201.318V479.139H195.345V480.407ZM204.616 486.412H206.154V483.408H209.276V486.412H210.81V479.139H209.276V482.14H206.154V479.139H204.616V486.412ZM213.331 486.412L213.871 484.754H216.495L217.035 486.412H218.683L216.175 479.139H214.194L211.683 486.412H213.331ZM214.261 483.553L215.156 480.801H215.213L216.108 483.553H214.261ZM219.558 486.412H224.213V485.144H221.096V479.139H219.558V486.412ZM225.232 486.412H229.887V485.144H226.769V479.139H225.232V486.412Z" fill="white"/>
<path d="M37.6321 633.487H39.1697V631.129H40.4624C42.1349 631.129 43.108 630.131 43.108 628.679C43.108 627.234 42.1527 626.215 40.5014 626.215H37.6321V633.487ZM39.1697 629.897V627.472H40.2067C41.0945 627.472 41.5241 627.955 41.5241 628.679C41.5241 629.4 41.0945 629.897 40.2138 629.897H39.1697ZM45.4872 633.59C46.2933 633.59 46.8153 633.239 47.0817 632.731H47.1243V633.487H48.5589V629.808C48.5589 628.509 47.4581 627.962 46.2436 627.962C44.9368 627.962 44.0774 628.587 43.8679 629.581L45.267 629.695C45.37 629.332 45.6932 629.066 46.2365 629.066C46.7514 629.066 47.0462 629.325 47.0462 629.773V629.794C47.0462 630.146 46.6733 630.192 45.7251 630.284C44.6456 630.384 43.6761 630.746 43.6761 631.964C43.6761 633.043 44.4467 633.59 45.4872 633.59ZM45.9205 632.546C45.4553 632.546 45.1214 632.33 45.1214 631.914C45.1214 631.488 45.473 631.278 46.0057 631.204C46.3359 631.158 46.8757 631.08 47.0568 630.959V631.538C47.0568 632.109 46.5845 632.546 45.9205 632.546ZM49.7326 633.487H51.2454V630.401C51.2454 629.73 51.7354 629.269 52.4031 629.269C52.6126 629.269 52.9002 629.304 53.0423 629.35V628.008C52.9073 627.976 52.7191 627.955 52.5664 627.955C51.9556 627.955 51.4549 628.31 51.256 628.984H51.1992V628.033H49.7326V633.487ZM53.8244 633.487H55.3372V631.754L55.7456 631.289L57.2335 633.487H59.0055L56.8784 630.394L58.9025 628.033H57.166L55.4189 630.103H55.3372V626.215H53.8244V633.487ZM59.6447 633.487H61.1575V628.033H59.6447V633.487ZM60.4047 627.33C60.8556 627.33 61.225 626.985 61.225 626.563C61.225 626.144 60.8556 625.799 60.4047 625.799C59.9572 625.799 59.5879 626.144 59.5879 626.563C59.5879 626.985 59.9572 627.33 60.4047 627.33ZM63.8821 630.334C63.8857 629.631 64.3047 629.219 64.9155 629.219C65.5227 629.219 65.8885 629.617 65.8849 630.284V633.487H67.3977V630.014C67.3977 628.743 66.652 627.962 65.5156 627.962C64.706 627.962 64.12 628.359 63.875 628.995H63.8111V628.033H62.3693V633.487H63.8821V630.334ZM71.0474 635.646C72.6064 635.646 73.7143 634.936 73.7143 633.541V628.033H72.2122V628.949H72.1554C71.9529 628.505 71.5091 627.962 70.5964 627.962C69.3997 627.962 68.3876 628.892 68.3876 630.749C68.3876 632.564 69.3713 633.409 70.6 633.409C71.47 633.409 71.9565 632.972 72.1554 632.521H72.2193V633.519C72.2193 634.269 71.7399 634.56 71.0829 634.56C70.4153 634.56 70.0779 634.269 69.9537 633.938L68.5545 634.127C68.7356 634.986 69.5772 635.646 71.0474 635.646ZM71.0794 632.273C70.3372 632.273 69.9324 631.683 69.9324 630.742C69.9324 629.815 70.3301 629.166 71.0794 629.166C71.8145 629.166 72.2264 629.787 72.2264 630.742C72.2264 631.705 71.8074 632.273 71.0794 632.273ZM39.2692 645.487H40.7678L42.1491 640.732H42.206L43.5909 645.487H45.0895L47.1705 638.215H45.4908L44.2869 643.278H44.223L42.8984 638.215H41.4602L40.1321 643.268H40.0717L38.8679 638.215H37.1882L39.2692 645.487ZM47.9934 645.487H52.9082V644.22H49.5311V642.483H52.6419V641.215H49.5311V639.482H52.894V638.215H47.9934V645.487ZM58.0618 640.306H59.5355C59.5142 639.01 58.4489 638.115 56.8295 638.115C55.2351 638.115 54.0668 638.996 54.0739 640.317C54.0703 641.389 54.8267 642.004 56.0554 642.298L56.8473 642.497C57.6392 642.689 58.0795 642.916 58.0831 643.406C58.0795 643.939 57.5753 644.301 56.794 644.301C55.995 644.301 55.4197 643.932 55.37 643.204H53.8821C53.9212 644.777 55.0469 645.59 56.8118 645.59C58.5874 645.59 59.6314 644.742 59.6349 643.41C59.6314 642.199 58.7188 641.556 57.4545 641.272L56.8011 641.116C56.169 640.97 55.6399 640.736 55.6506 640.214C55.6506 639.745 56.0661 639.401 56.8189 639.401C57.554 639.401 58.005 639.734 58.0618 640.306ZM60.3922 639.482H62.6188V645.487H64.1387V639.482H66.3652V638.215H60.3922V639.482ZM69.6634 645.487H71.201V642.483H74.3224V645.487H75.8565V638.215H74.3224V641.215H71.201V638.215H69.6634V645.487ZM78.3778 645.487L78.9176 643.829H81.5419L82.0817 645.487H83.7294L81.2223 638.215H79.2408L76.7301 645.487H78.3778ZM79.3082 642.629L80.2031 639.877H80.2599L81.1548 642.629H79.3082ZM84.6048 645.487H89.2603V644.22H86.1424V638.215H84.6048V645.487ZM90.2786 645.487H94.9341V644.22H91.8162V638.215H90.2786V645.487Z" fill="white"/>
<path d="M2.78125 417.412H9.54688V407.037H15.2344C22.5937 407.037 26.875 402.646 26.875 396.256C26.875 389.896 22.6719 385.412 15.4063 385.412H2.78125V417.412ZM9.54688 401.615V390.943H14.1094C18.0156 390.943 19.9063 393.068 19.9063 396.256C19.9063 399.428 18.0156 401.615 14.1406 401.615H9.54688Z" fill="black"/>
<path fill-rule="evenodd" clip-rule="evenodd" d="M229.789 469.844C233.317 469.235 236 466.168 236 462.477C236 458.348 232.642 455 228.5 455C224.358 455 221 458.348 221 462.477C221 466.168 223.683 469.235 227.211 469.844L228.5 475L229.789 469.844Z" fill="black"/>
<path fill-rule="evenodd" clip-rule="evenodd" d="M229.789 467.844C233.317 467.235 236 464.168 236 460.477C236 456.348 232.642 453 228.5 453C224.358 453 221 456.348 221 460.477C221 464.168 223.683 467.235 227.211 467.844L228.5 473L229.789 467.844Z" fill="#FF0000"/>
<ellipse cx="228.5" cy="460.477" rx="2.5" ry="2.49231" fill="white"/>
<path d="M0.90918 732.96C0.90918 731.93 1.0459 730.941 1.31934 729.993C1.59733 729.045 2.00977 728.184 2.55664 727.409C3.10352 726.634 3.6709 726.088 4.25879 725.769L4.51855 726.603C3.85319 727.113 3.30632 727.892 2.87793 728.94C2.4541 729.989 2.22168 731.162 2.18066 732.461L2.17383 733.042C2.17383 734.801 2.49512 736.328 3.1377 737.622C3.52507 738.397 3.98535 739.003 4.51855 739.44L4.25879 740.213C3.65267 739.876 3.07389 739.311 2.52246 738.518C1.44694 736.968 0.90918 735.116 0.90918 732.96ZM14.3192 730.476H8.08916V728.628H14.3192V730.476ZM15.4672 725.982H14.3192V727.704H8.08916V725.982H6.95516V731.414H15.4672V725.982ZM16.9092 732.926H5.51316V733.85H10.6092V738.05H11.7572V733.85H16.9092V732.926ZM27.2541 728.376H19.7921V731.806H28.6961V730.868H20.9401V729.258H28.4161V725.982H19.7501V726.892H27.2541V728.376ZM29.7881 733.094H18.3921V734.032H23.5021V738.05H24.6501V734.032H29.7881V733.094ZM32.545 734.816H40.105V738.134H41.267V733.878H32.545V734.816ZM37.543 731.736V730.238H41.351V729.314H33.861V726.906H41.239V725.982H32.713V730.238H36.395V731.736H31.285V732.66H42.653V731.736H37.543ZM48.9945 729.146C48.9945 727.984 49.8905 727.158 51.1365 727.158C52.3965 727.158 53.3065 727.984 53.3065 729.146C53.3065 730.322 52.3965 731.134 51.1365 731.134C49.8905 731.134 48.9945 730.322 48.9945 729.146ZM54.4265 729.146C54.4265 727.41 53.0545 726.206 51.1365 726.206C49.2465 726.206 47.8745 727.41 47.8745 729.146C47.8745 730.896 49.2465 732.086 51.1365 732.086C53.0545 732.086 54.4265 730.896 54.4265 729.146ZM52.2425 734.186H54.8465V736.916H52.2425V734.186ZM55.9805 734.186H57.7165V733.276H49.3865V734.186H51.1085V736.916H49.2745V737.84H57.8705V736.916H55.9805V734.186ZM57.3805 728.544V725.492H56.2325V732.59H57.3805V729.496H59.2425V728.544H57.3805ZM63.6494 733.028C63.6494 734.045 63.515 735.02 63.2461 735.954C62.9818 736.884 62.5739 737.743 62.0225 738.531C61.4756 739.32 60.9014 739.88 60.2998 740.213L60.0332 739.44C60.735 738.903 61.2979 738.069 61.7217 736.938C62.1501 735.804 62.3688 734.546 62.3779 733.165V732.946C62.3779 731.989 62.2777 731.101 62.0771 730.28C61.8766 729.455 61.5964 728.717 61.2363 728.065C60.8809 727.414 60.4798 726.906 60.0332 726.541L60.2998 725.769C60.9014 726.101 61.4733 726.657 62.0156 727.437C62.5625 728.216 62.9704 729.075 63.2393 730.014C63.5127 730.952 63.6494 731.957 63.6494 733.028ZM71.4219 732.399H67.1084V735.927H72.1191V737H65.7959V727.047H72.0508V728.127H67.1084V731.326H71.4219V732.399ZM79.249 734.402H75.0791L74.1426 737H72.7891L76.5898 727.047H77.7383L81.5459 737H80.1992L79.249 734.402ZM75.4756 733.322H78.8594L77.1641 728.667L75.4756 733.322ZM85.8184 732.563C84.6927 732.24 83.8724 731.843 83.3574 731.374C82.847 730.9 82.5918 730.317 82.5918 729.624C82.5918 728.84 82.904 728.193 83.5283 727.683C84.1572 727.168 84.973 726.91 85.9756 726.91C86.6592 726.91 87.2676 727.042 87.8008 727.307C88.3385 727.571 88.7533 727.936 89.0449 728.4C89.3411 728.865 89.4893 729.373 89.4893 729.925H88.1699C88.1699 729.323 87.9785 728.852 87.5957 728.51C87.2129 728.163 86.6729 727.99 85.9756 727.99C85.3285 727.99 84.8226 728.134 84.458 728.421C84.098 728.703 83.918 729.098 83.918 729.604C83.918 730.009 84.0889 730.353 84.4307 730.636C84.777 730.914 85.3626 731.169 86.1875 731.401C87.0169 731.634 87.6641 731.891 88.1289 732.174C88.5983 732.452 88.9447 732.778 89.168 733.151C89.3958 733.525 89.5098 733.965 89.5098 734.471C89.5098 735.277 89.1953 735.924 88.5664 736.412C87.9375 736.895 87.0967 737.137 86.0439 737.137C85.3604 737.137 84.7223 737.007 84.1299 736.747C83.5374 736.483 83.0794 736.123 82.7559 735.667C82.4368 735.211 82.2773 734.694 82.2773 734.115H83.5967C83.5967 734.717 83.8177 735.193 84.2598 735.544C84.7064 735.89 85.3011 736.063 86.0439 736.063C86.7367 736.063 87.2676 735.922 87.6367 735.64C88.0059 735.357 88.1904 734.972 88.1904 734.484C88.1904 733.997 88.0195 733.621 87.6777 733.356C87.3359 733.088 86.7161 732.823 85.8184 732.563ZM98.0752 728.127H94.876V737H93.5703V728.127H90.3779V727.047H98.0752V728.127ZM112.936 725.492H111.83V732.016H112.936V725.492ZM103.486 728.81C103.486 727.746 104.256 726.976 105.32 726.976C106.37 726.976 107.14 727.746 107.14 728.81C107.14 729.916 106.37 730.686 105.32 730.686C104.256 730.686 103.486 729.916 103.486 728.81ZM109.464 729.272V731.932H110.542V725.744H109.464V728.348H108.134C107.938 726.976 106.818 726.066 105.32 726.066C103.654 726.066 102.464 727.186 102.464 728.81C102.464 730.462 103.654 731.596 105.32 731.596C106.818 731.596 107.952 730.672 108.148 729.272H109.464ZM105.81 736.944V735.6H112.936V732.604H104.648V733.514H111.788V734.732H104.676V737.868H113.412V736.944H105.81ZM117.093 731.12H121.727V726.64H115.903V727.578H120.565V730.196H115.945V735.012H116.981C119.137 735.012 121.041 734.928 123.309 734.55L123.197 733.612C120.999 733.962 119.151 734.06 117.093 734.06V731.12ZM124.373 725.464V738.05H125.521V725.464H124.373ZM132.282 733.948H129.636V730.7H132.282V733.948ZM135.18 730.252H133.36V726.724H132.282V729.776H129.636V726.724H128.544V734.886H133.36V731.19H135.18V737.42H136.272V725.758H135.18V730.252ZM137.672 725.478V738.036H138.764V725.478H137.672ZM150.102 725.478V738.064H151.25V725.478H150.102ZM144.628 726.444C142.766 726.444 141.436 728.152 141.436 730.826C141.436 733.5 142.766 735.208 144.628 735.208C146.49 735.208 147.82 733.5 147.82 730.826C147.82 728.152 146.49 726.444 144.628 726.444ZM144.628 727.48C145.846 727.48 146.714 728.796 146.714 730.826C146.714 732.87 145.846 734.186 144.628 734.186C143.396 734.186 142.528 732.87 142.528 730.826C142.528 728.796 143.396 727.48 144.628 727.48ZM155.575 731.078H159.691V730.154H155.575V727.564H160.237V726.612H154.427V735.026H155.393C157.787 735.026 159.313 734.956 161.133 734.634L161.007 733.696C159.299 734.004 157.843 734.088 155.575 734.088V731.078ZM163.051 725.464V730.21H160.461V731.162H163.051V738.05H164.199V725.464H163.051ZM175.524 727.676H168.188V730.364H176.882V729.538H169.322V728.46H176.658V725.842H168.16V726.654H175.524V727.676ZM169.252 735.88H176.7V733.206H168.09V734.032H175.566V735.082H168.118V737.868H177.092V737.042H169.252V735.88ZM166.732 731.316V732.184H178.114V731.316H166.732ZM192.212 725.478V738.064H193.36V725.478H192.212ZM186.738 726.444C184.876 726.444 183.546 728.152 183.546 730.826C183.546 733.5 184.876 735.208 186.738 735.208C188.6 735.208 189.93 733.5 189.93 730.826C189.93 728.152 188.6 726.444 186.738 726.444ZM186.738 727.48C187.956 727.48 188.824 728.796 188.824 730.826C188.824 732.87 187.956 734.186 186.738 734.186C185.506 734.186 184.638 732.87 184.638 730.826C184.638 728.796 185.506 727.48 186.738 727.48ZM201.633 737.14C199.659 737.14 198.497 736.65 198.497 735.796C198.497 734.942 199.659 734.452 201.633 734.452C203.593 734.452 204.769 734.942 204.769 735.796C204.769 736.65 203.593 737.14 201.633 737.14ZM201.633 733.556C198.945 733.556 197.335 734.354 197.335 735.796C197.335 737.238 198.945 738.022 201.633 738.022C204.335 738.022 205.931 737.238 205.931 735.796C205.931 734.354 204.335 733.556 201.633 733.556ZM199.897 730.224C200.415 730.308 201.003 730.364 201.633 730.364C202.277 730.364 202.865 730.308 203.383 730.224V731.694H199.897V730.224ZM198.399 728.04C198.399 727.13 199.631 726.598 201.633 726.598C203.635 726.598 204.867 727.13 204.867 728.04C204.867 728.936 203.635 729.482 201.633 729.482C199.631 729.482 198.399 728.936 198.399 728.04ZM204.517 731.694V729.916C205.483 729.524 206.043 728.88 206.043 728.04C206.043 726.57 204.363 725.702 201.633 725.702C198.917 725.702 197.223 726.57 197.223 728.04C197.223 728.894 197.769 729.524 198.763 729.93V731.694H195.949V732.618H207.317V731.694H204.517ZM212.524 734.284C211.39 734.284 210.564 733.472 210.564 732.352C210.564 731.218 211.39 730.406 212.524 730.406C213.672 730.406 214.498 731.218 214.498 732.352C214.498 733.472 213.672 734.284 212.524 734.284ZM212.524 729.454C210.76 729.454 209.486 730.658 209.486 732.352C209.486 734.06 210.76 735.236 212.524 735.236C214.316 735.236 215.59 734.06 215.59 732.352C215.59 730.658 214.316 729.454 212.524 729.454ZM213.084 725.632H211.936V727.494H208.772V728.418H216.178V727.494H213.084V725.632ZM220.574 730.644H218.516V725.492H217.368V738.036H218.516V731.61H220.574V730.644ZM228.063 732.254C228.147 731.82 228.203 731.344 228.203 730.826C228.203 730.252 228.133 729.72 228.021 729.23H230.919V732.254H228.063ZM225.081 734.186C223.877 734.186 223.037 732.87 223.037 730.826C223.037 728.796 223.877 727.48 225.081 727.48C226.271 727.48 227.125 728.796 227.125 730.826C227.125 732.87 226.271 734.186 225.081 734.186ZM230.919 725.478V728.292H227.699C227.167 727.116 226.243 726.444 225.081 726.444C223.247 726.444 221.945 728.152 221.945 730.826C221.945 733.5 223.247 735.208 225.081 735.208C226.285 735.208 227.265 734.466 227.783 733.192H230.919V738.064H232.067V725.478H230.919ZM247.2 725.478V738.064H248.348V725.478H247.2ZM241.726 726.444C239.864 726.444 238.534 728.152 238.534 730.826C238.534 733.5 239.864 735.208 241.726 735.208C243.588 735.208 244.918 733.5 244.918 730.826C244.918 728.152 243.588 726.444 241.726 726.444ZM241.726 727.48C242.944 727.48 243.812 728.796 243.812 730.826C243.812 732.87 242.944 734.186 241.726 734.186C240.494 734.186 239.626 732.87 239.626 730.826C239.626 728.796 240.494 727.48 241.726 727.48ZM256.635 737.14C254.647 737.14 253.485 736.65 253.485 735.768C253.485 734.886 254.647 734.396 256.635 734.396C258.595 734.396 259.757 734.886 259.757 735.768C259.757 736.65 258.595 737.14 256.635 737.14ZM256.635 733.5C253.947 733.5 252.323 734.312 252.323 735.768C252.323 737.224 253.947 738.036 256.635 738.036C259.295 738.036 260.919 737.224 260.919 735.768C260.919 734.312 259.295 733.5 256.635 733.5ZM257.209 731.68V730.224H260.989V729.3H253.527V726.976H260.905V726.052H252.379V730.224H256.061V731.68H250.951V732.604H262.319V731.68H257.209ZM267.512 734.284C266.378 734.284 265.552 733.472 265.552 732.352C265.552 731.218 266.378 730.406 267.512 730.406C268.66 730.406 269.486 731.218 269.486 732.352C269.486 733.472 268.66 734.284 267.512 734.284ZM267.512 729.454C265.748 729.454 264.474 730.658 264.474 732.352C264.474 734.06 265.748 735.236 267.512 735.236C269.304 735.236 270.578 734.06 270.578 732.352C270.578 730.658 269.304 729.454 267.512 729.454ZM268.072 725.632H266.924V727.494H263.76V728.418H271.166V727.494H268.072V725.632ZM275.562 730.644H273.504V725.492H272.356V738.036H273.504V731.61H275.562V730.644ZM280.433 726.668H279.327V729.062C279.327 731.218 278.291 733.472 276.569 734.48L277.283 735.334C278.529 734.564 279.439 733.15 279.887 731.484C280.335 733.01 281.175 734.34 282.365 735.068L283.023 734.172C281.371 733.164 280.433 731.036 280.433 729.02V726.668ZM283.737 729.986H281.665V730.938H283.737V737.42H284.815V725.758H283.737V729.986ZM286.285 725.478V738.036H287.377V725.478H286.285ZM293.522 732.52C294.04 732.646 294.642 732.716 295.258 732.716C295.888 732.716 296.49 732.646 297.022 732.52V735.474H293.522V732.52ZM295.258 727.172C297.274 727.172 298.73 728.096 298.73 729.496C298.73 730.896 297.274 731.82 295.258 731.82C293.242 731.82 291.8 730.896 291.8 729.496C291.8 728.096 293.242 727.172 295.258 727.172ZM298.17 735.474V732.072C299.206 731.526 299.822 730.63 299.822 729.496C299.822 727.536 297.932 726.276 295.258 726.276C292.598 726.276 290.694 727.536 290.694 729.496C290.694 730.63 291.324 731.54 292.374 732.086V735.474H289.574V736.426H300.984V735.474H298.17ZM302.709 736.337C302.709 736.118 302.773 735.936 302.9 735.79C303.033 735.644 303.229 735.571 303.488 735.571C303.748 735.571 303.944 735.644 304.076 735.79C304.213 735.936 304.281 736.118 304.281 736.337C304.281 736.547 304.213 736.722 304.076 736.863C303.944 737.005 303.748 737.075 303.488 737.075C303.229 737.075 303.033 737.005 302.9 736.863C302.773 736.722 302.709 736.547 302.709 736.337Z" fill="black"/>
<rect x="11" y="312" width="5" height="53.1429" fill="url(#paint0_linear)"/>
<path d="M13.5 372L6.13879 359.25L20.8612 359.25L13.5 372Z" fill="#FF0000"/>
<defs>
<linearGradient id="paint0_linear" x1="13.5" y1="312" x2="13.5" y2="365.143" gradientUnits="userSpaceOnUse">
<stop stop-color="#FF0000" stop-opacity="0"/>
<stop offset="0.546875" stop-color="#FF0000"/>
</linearGradient>
</defs>
</svg>
