<svg width="315" height="756" viewBox="0 0 315 756" fill="none" xmlns="http://www.w3.org/2000/svg">
<path d="M186.734 216.352H185.234V217.852V328.119H1.5V151.582H95.2488H96.7488V150.082V100.677H161.319H162.819V99.1775V33.6165H206.616H208.116V32.1165V1.82812H313.5V166.32H186.734H185.234V167.82V188.313V189.813H186.734H214.102V216.352H186.734Z" fill="white" stroke="black" stroke-width="3" stroke-miterlimit="10"/>
<path d="M168.086 124.698L254.188 124.698V88.8535H168.086V124.698Z" fill="#C4C4C4"/>
<path d="M143.45 124.676H164.651V105.078H143.45V124.676Z" fill="black"/>
<path d="M156.496 111.959C156.906 111.959 157.248 111.643 157.248 111.264C157.248 110.884 156.906 110.568 156.496 110.568C156.086 110.568 155.744 110.884 155.744 111.264C155.744 111.643 156.086 111.959 156.496 111.959Z" fill="white"/>
<path d="M156.359 116.447V118.913C156.359 119.355 155.675 119.355 155.675 118.913V116.447H154.718L155.743 113.16H155.538L154.923 114.993C154.786 115.373 154.171 115.246 154.307 114.804L154.991 112.781C155.06 112.528 155.402 112.148 155.949 112.148H156.427H156.974C157.522 112.148 157.864 112.591 157.932 112.781L158.616 114.804C158.753 115.246 158.137 115.436 158 114.993L157.385 113.16H157.18L158.206 116.447H157.248V118.913C157.248 119.355 156.564 119.355 156.564 118.913V116.447H156.359Z" fill="white"/>
<path d="M150.583 112.212C150.036 112.212 149.626 112.591 149.626 113.16V115.31C149.626 115.752 150.31 115.752 150.31 115.31V113.35H150.447V118.85C150.447 119.419 151.336 119.419 151.336 118.85V115.626H151.473V118.85C151.473 119.419 152.362 119.419 152.362 118.85V113.35H152.498V115.31C152.498 115.752 153.182 115.752 153.182 115.31V113.16C153.182 112.718 152.772 112.212 152.225 112.212H150.583Z" fill="white"/>
<path d="M151.404 111.959C151.82 111.959 152.156 111.648 152.156 111.264C152.156 110.88 151.82 110.568 151.404 110.568C150.989 110.568 150.652 110.88 150.652 111.264C150.652 111.648 150.989 111.959 151.404 111.959Z" fill="white"/>
<path d="M7.5406 239.083H28.7412L28.7412 219.485H7.5406L7.5406 239.083Z" fill="black"/>
<path d="M20.6307 226.385C21.041 226.385 21.383 226.069 21.383 225.69C21.383 225.31 21.041 224.994 20.6307 224.994C20.2204 224.994 19.8784 225.31 19.8784 225.69C19.8784 226.069 20.2204 226.385 20.6307 226.385Z" fill="white"/>
<path d="M20.4932 230.811V233.276C20.4932 233.719 19.8093 233.719 19.8093 233.276V230.811H18.8519L19.8777 227.523H19.7409L19.1254 229.357C18.9887 229.736 18.3732 229.609 18.5099 229.167L19.1938 227.144C19.2622 226.891 19.6042 226.512 20.1513 226.512H20.63H21.1771C21.7242 226.512 22.0662 226.954 22.1346 227.144L22.8185 229.167C22.9552 229.609 22.3397 229.799 22.203 229.357L21.5874 227.523H21.3823L22.4081 230.811H21.4507V233.276C21.4507 233.719 20.7668 233.719 20.7668 233.276V230.811H20.4932Z" fill="white"/>
<path d="M14.7861 226.574C14.2389 226.574 13.8286 226.954 13.8286 227.522V229.672C13.8286 230.114 14.5125 230.114 14.5125 229.672V227.712H14.6493V233.212C14.6493 233.781 15.5383 233.781 15.5383 233.212V229.988H15.6751V233.212C15.6751 233.781 16.5642 233.781 16.5642 233.212V227.712H16.701V229.672C16.701 230.114 17.3848 230.114 17.3848 229.672V227.522C17.3848 227.08 16.9745 226.574 16.4274 226.574H14.7861Z" fill="white"/>
<path d="M15.5379 226.385C15.9534 226.385 16.2902 226.074 16.2902 225.69C16.2902 225.305 15.9534 224.994 15.5379 224.994C15.1225 224.994 14.7856 225.305 14.7856 225.69C14.7856 226.074 15.1225 226.385 15.5379 226.385Z" fill="white"/>
<path d="M7.73701 288.087H113.842V252.204H7.73701V288.087Z" fill="#C4C4C4"/>
<path d="M116.265 287.938H130.011V252.093H116.265V287.938Z" fill="black"/>
<path d="M180.673 220V287.96H169.662L152.702 270.891V246.552L180.673 220Z" fill="#C8A67C"/>
<path d="M127.136 275.885V270.448C127.136 269.879 126.657 269.437 126.042 269.437H120.16C119.545 269.437 119.066 269.879 119.066 270.448V275.885C119.066 276.454 119.545 276.896 120.16 276.896H126.042C126.657 276.833 127.136 276.454 127.136 275.885ZM126.247 276.011H119.955V270.258H126.247V276.011Z" fill="white"/>
<path d="M124.127 265.896C124.127 265.454 124.811 265.454 124.811 265.896V267.667L125.153 267.287C125.426 267.034 125.837 267.414 125.563 267.667L124.674 268.615C124.537 268.741 124.332 268.741 124.195 268.615L123.306 267.667C123.033 267.35 123.512 267.034 123.717 267.287L124.059 267.73L124.127 265.896Z" fill="white"/>
<path d="M121.46 268.427C121.46 268.869 122.144 268.869 122.144 268.427V266.656L122.486 267.036C122.76 267.289 123.17 266.909 122.896 266.656L122.007 265.708C121.87 265.582 121.665 265.582 121.529 265.708L120.639 266.656C120.366 266.972 120.845 267.289 121.05 267.036L121.392 266.593L121.46 268.427Z" fill="white"/>
<path d="M124.948 271.966H123.786C123.649 271.966 123.512 272.092 123.512 272.219V273.546C123.512 273.673 123.581 273.736 123.717 273.736C123.717 273.736 123.786 273.736 123.854 273.736V275.443C123.854 275.759 124.333 275.759 124.333 275.443V273.736H124.401V275.443C124.401 275.759 124.88 275.759 124.88 275.443V273.736C124.948 273.736 125.017 273.736 125.017 273.736C125.153 273.736 125.222 273.673 125.222 273.546V272.219C125.222 272.092 125.085 271.966 124.948 271.966Z" fill="white"/>
<path d="M124.402 271.839C124.59 271.839 124.744 271.698 124.744 271.523C124.744 271.349 124.59 271.207 124.402 271.207C124.213 271.207 124.06 271.349 124.06 271.523C124.06 271.698 124.213 271.839 124.402 271.839Z" fill="white"/>
<path d="M122.486 271.966H121.323C121.187 271.966 121.05 272.092 121.05 272.219V273.546C121.05 273.673 121.118 273.736 121.255 273.736C121.255 273.736 121.323 273.736 121.392 273.736V275.443C121.392 275.759 121.87 275.759 121.87 275.443V273.736H121.939V275.443C121.939 275.759 122.418 275.759 122.418 275.443V273.736C122.486 273.736 122.554 273.736 122.554 273.736C122.691 273.736 122.76 273.673 122.76 273.546V272.219C122.76 272.092 122.623 271.966 122.486 271.966Z" fill="white"/>
<path d="M121.939 271.839C122.128 271.839 122.281 271.698 122.281 271.523C122.281 271.349 122.128 271.207 121.939 271.207C121.75 271.207 121.597 271.349 121.597 271.523C121.597 271.698 121.75 271.839 121.939 271.839Z" fill="white"/>
<path d="M189.434 213.044H210.634V192.751H189.434V213.044Z" fill="black"/>
<path d="M204.073 207.545V202.108C204.073 201.539 203.594 201.097 202.979 201.097H197.097C196.482 201.097 196.003 201.539 196.003 202.108V207.545C196.003 208.114 196.482 208.556 197.097 208.556H202.979C203.594 208.556 204.073 208.114 204.073 207.545ZM203.184 207.735H196.892V201.982H203.184V207.735Z" fill="white"/>
<path d="M200.996 197.557C200.996 197.114 201.68 197.114 201.68 197.557V199.327L202.022 198.947C202.295 198.694 202.706 199.074 202.432 199.327L201.543 200.275C201.406 200.401 201.201 200.401 201.064 200.275L200.175 199.327C199.902 199.011 200.38 198.694 200.585 198.947L200.927 199.39L200.996 197.557Z" fill="white"/>
<path d="M198.397 200.088C198.397 200.53 199.081 200.53 199.081 200.088V198.318L199.423 198.697C199.696 198.95 200.106 198.57 199.833 198.318L198.944 197.369C198.807 197.243 198.602 197.243 198.465 197.369L197.576 198.318C197.302 198.634 197.781 198.95 197.986 198.697L198.328 198.254L198.397 200.088Z" fill="white"/>
<path d="M201.884 203.688H200.722C200.585 203.688 200.448 203.815 200.448 203.941V205.269C200.448 205.395 200.517 205.459 200.653 205.459C200.653 205.459 200.722 205.459 200.79 205.459V207.165C200.79 207.482 201.269 207.482 201.269 207.165V205.459H201.337V207.165C201.337 207.482 201.816 207.482 201.816 207.165V205.459C201.884 205.459 201.953 205.459 201.953 205.459C202.09 205.459 202.158 205.395 202.158 205.269V203.941C202.158 203.752 202.021 203.688 201.884 203.688Z" fill="white"/>
<path d="M201.269 203.498C201.458 203.498 201.611 203.357 201.611 203.182C201.611 203.008 201.458 202.866 201.269 202.866C201.08 202.866 200.927 203.008 200.927 203.182C200.927 203.357 201.08 203.498 201.269 203.498Z" fill="white"/>
<path d="M199.354 203.688H198.192C198.055 203.688 197.918 203.815 197.918 203.941V205.269C197.918 205.395 197.986 205.459 198.123 205.459C198.123 205.459 198.192 205.459 198.26 205.459V207.165C198.26 207.482 198.739 207.482 198.739 207.165V205.459H198.807V207.165C198.807 207.482 199.286 207.482 199.286 207.165V205.459C199.354 205.459 199.423 205.459 199.423 205.459C199.559 205.459 199.628 205.395 199.628 205.269V203.941C199.628 203.752 199.559 203.688 199.354 203.688Z" fill="white"/>
<path d="M198.807 203.498C198.996 203.498 199.149 203.357 199.149 203.182C199.149 203.008 198.996 202.866 198.807 202.866C198.618 202.866 198.465 203.008 198.465 203.182C198.465 203.357 198.618 203.498 198.807 203.498Z" fill="white"/>
<path d="M66.994 239.08H98.7266V218.724H66.994V239.08Z" fill="black"/>
<path d="M39.4602 216.207V239.092H64.6274V216.207H98.7535V155.644H7.62402V216.207H39.4602Z" fill="#C4C4C4"/>
<path d="M86.9224 233.592V228.155C86.9224 227.586 86.4437 227.144 85.8282 227.144H80.0151C79.3996 227.144 78.9209 227.586 78.9209 228.155V233.592C78.9209 234.161 79.3996 234.603 80.0151 234.603H85.8966C86.4437 234.54 86.9224 234.161 86.9224 233.592ZM86.0334 233.718H79.7416V227.965H86.0334V233.718Z" fill="white"/>
<path d="M83.9133 223.603C83.9133 223.161 84.5972 223.161 84.5972 223.603V225.373L84.9391 224.994C85.2127 224.741 85.623 225.121 85.3494 225.373L84.4604 226.322C84.3236 226.448 84.1184 226.448 83.9816 226.322L83.0926 225.373C82.819 225.057 83.2977 224.741 83.5029 224.994L83.8449 225.437L83.9133 223.603Z" fill="white"/>
<path d="M81.2463 226.134C81.2463 226.576 81.9302 226.576 81.9302 226.134V224.363L82.2721 224.743C82.5457 224.996 82.956 224.616 82.6824 224.363L81.7934 223.415C81.6566 223.289 81.4514 223.289 81.3146 223.415L80.4256 224.363C80.152 224.68 80.6308 224.996 80.8359 224.743L81.1779 224.3L81.2463 226.134Z" fill="white"/>
<path d="M84.7345 229.673H83.5719C83.4351 229.673 83.2983 229.799 83.2983 229.926V231.253C83.2983 231.38 83.3667 231.443 83.5035 231.443C83.5035 231.443 83.5719 231.443 83.6403 231.443V233.15C83.6403 233.466 84.119 233.466 84.119 233.15V231.443H84.1874V233.15C84.1874 233.466 84.6661 233.466 84.6661 233.15V231.443C84.7345 231.443 84.8029 231.443 84.8029 231.443C84.9397 231.443 85.0081 231.38 85.0081 231.253V229.926C85.0081 229.799 84.8713 229.673 84.7345 229.673Z" fill="white"/>
<path d="M84.1876 229.546C84.3765 229.546 84.5296 229.405 84.5296 229.23C84.5296 229.056 84.3765 228.914 84.1876 228.914C83.9988 228.914 83.8457 229.056 83.8457 229.23C83.8457 229.405 83.9988 229.546 84.1876 229.546Z" fill="white"/>
<path d="M82.2721 229.673H81.1095C80.9727 229.673 80.8359 229.799 80.8359 229.926V231.253C80.8359 231.38 80.9043 231.443 81.0411 231.443C81.0411 231.443 81.1095 231.443 81.1779 231.443V233.15C81.1779 233.466 81.6566 233.466 81.6566 233.15V231.443H81.725V233.15C81.725 233.466 82.2037 233.466 82.2037 233.15V231.443C82.2721 231.443 82.3405 231.443 82.3405 231.443C82.4773 231.443 82.5457 231.38 82.5457 231.253V229.926C82.5457 229.799 82.4089 229.673 82.2721 229.673Z" fill="white"/>
<path d="M81.7252 229.546C81.9141 229.546 82.0672 229.405 82.0672 229.23C82.0672 229.056 81.9141 228.914 81.7252 228.914C81.5364 228.914 81.3833 229.056 81.3833 229.23C81.3833 229.405 81.5364 229.546 81.7252 229.546Z" fill="white"/>
<path d="M168.071 77.4131H206.438V38.4706L168.071 38.4706V77.4131Z" fill="#C4C4C4"/>
<path d="M256.225 124.698H269.971V88.8535H256.225V124.698Z" fill="black"/>
<path d="M267.128 112.592V107.155C267.128 106.586 266.649 106.144 266.033 106.144H260.152C259.536 106.144 259.058 106.586 259.058 107.155V112.592C259.058 113.161 259.536 113.603 260.152 113.603H266.033C266.649 113.603 267.128 113.161 267.128 112.592ZM266.239 112.782H259.947V107.029H266.239V112.782Z" fill="white"/>
<path d="M264.119 102.603C264.119 102.161 264.803 102.161 264.803 102.603V104.374L265.145 103.994C265.418 103.741 265.829 104.121 265.555 104.374L264.666 105.322C264.529 105.448 264.324 105.448 264.187 105.322L263.298 104.374C263.025 104.057 263.503 103.741 263.708 103.994L264.05 104.437L264.119 102.603Z" fill="white"/>
<path d="M261.452 105.134C261.452 105.576 262.136 105.576 262.136 105.134V103.363L262.478 103.743C262.751 103.996 263.162 103.616 262.888 103.363L261.999 102.415C261.862 102.289 261.657 102.289 261.52 102.415L260.631 103.363C260.358 103.68 260.836 103.996 261.042 103.743L261.383 103.3L261.452 105.134Z" fill="white"/>
<path d="M264.94 108.735H263.777C263.641 108.735 263.504 108.862 263.504 108.988V110.316C263.504 110.442 263.572 110.505 263.709 110.505C263.709 110.505 263.777 110.505 263.846 110.505V112.212C263.846 112.528 264.325 112.528 264.325 112.212V110.505H264.393V112.212C264.393 112.528 264.872 112.528 264.872 112.212V110.505C264.94 110.505 265.009 110.505 265.009 110.505C265.145 110.505 265.214 110.442 265.214 110.316V108.988C265.214 108.799 265.077 108.735 264.94 108.735Z" fill="white"/>
<path d="M264.393 108.545C264.582 108.545 264.735 108.404 264.735 108.229C264.735 108.055 264.582 107.913 264.393 107.913C264.204 107.913 264.051 108.055 264.051 108.229C264.051 108.404 264.204 108.545 264.393 108.545Z" fill="white"/>
<path d="M262.478 108.735H261.315C261.178 108.735 261.042 108.862 261.042 108.988V110.316C261.042 110.442 261.11 110.505 261.247 110.505C261.247 110.505 261.315 110.505 261.383 110.505V112.212C261.383 112.528 261.862 112.528 261.862 112.212V110.505H261.931V112.212C261.931 112.528 262.409 112.528 262.409 112.212V110.505C262.478 110.505 262.546 110.505 262.546 110.505C262.683 110.505 262.751 110.442 262.751 110.316V108.988C262.751 108.799 262.614 108.735 262.478 108.735Z" fill="white"/>
<path d="M261.862 108.545C262.051 108.545 262.204 108.404 262.204 108.229C262.204 108.055 262.051 107.913 261.862 107.913C261.673 107.913 261.52 108.055 261.52 108.229C261.52 108.404 261.673 108.545 261.862 108.545Z" fill="white"/>
<path d="M232.654 145.19H269.994V132.041H232.654V145.19Z" fill="#FF0000"/>
<path d="M254.21 161.984H308.368V126.102H278.506V147.75H254.21V161.984Z" fill="#C4C4C4"/>
<path d="M278.527 125.076H308.369V64.5883H278.527V125.076Z" fill="#DAC452"/>
<path d="M265.263 54.3369L308.369 54.3369V6.15161L265.263 6.15161V54.3369Z" fill="#DAC452"/>
<path d="M213.316 54.3369L259.737 54.3369V6.15161L213.316 6.15161V54.3369Z" fill="#DAC452"/>
<path d="M250.509 136.046C250.919 136.046 251.261 135.73 251.261 135.351C251.261 134.971 250.919 134.655 250.509 134.655C250.099 134.655 249.757 134.971 249.757 135.351C249.757 135.73 250.099 136.046 250.509 136.046Z" fill="white"/>
<path d="M255.502 135.414H253.792C253.45 135.414 252.971 135.541 252.698 135.793L251.125 137.247V136.805C251.125 135.92 249.689 135.92 249.689 136.805V138.512L248.321 139.776C248.184 139.903 248.184 139.903 247.911 139.903H247.09C246.269 139.903 245.722 140.598 245.722 141.167C245.722 141.736 246.201 142.495 247.158 142.495C247.158 142.495 248.321 142.495 248.663 142.495C249.005 142.495 249.415 142.368 249.757 142.052L254.134 138.069C254.202 138.006 254.271 137.943 254.408 137.943C254.408 137.943 255.023 137.943 255.502 137.943C256.049 137.943 256.733 137.374 256.733 136.615C256.801 135.92 256.117 135.414 255.502 135.414ZM255.433 137.374H254.544C254.134 137.374 253.997 137.437 253.792 137.627L249.415 141.673C249.21 141.862 249.005 141.926 248.731 141.926H247.295C246.953 141.926 246.611 141.609 246.611 141.23C246.611 140.851 246.953 140.661 247.227 140.661H248.184C248.458 140.661 248.663 140.598 248.8 140.408L253.245 136.299C253.45 136.109 253.587 136.109 253.929 136.109H255.433C255.775 136.109 256.049 136.489 256.049 136.742C256.049 136.995 255.912 137.374 255.433 137.374Z" fill="white"/>
<path d="M116.242 324.729H153.582V311.58H116.242V324.729Z" fill="black"/>
<path d="M134.111 315.572C134.522 315.572 134.864 315.256 134.864 314.877C134.864 314.498 134.522 314.182 134.111 314.182C133.701 314.182 133.359 314.498 133.359 314.877C133.359 315.256 133.701 315.572 134.111 315.572Z" fill="white"/>
<path d="M139.103 314.94H137.462C137.12 314.94 136.641 315.067 136.368 315.32L134.795 316.774V316.331C134.795 315.446 133.359 315.446 133.359 316.331V318.038L131.991 319.303C131.854 319.429 131.854 319.429 131.581 319.429H130.76C129.939 319.429 129.392 320.124 129.392 320.693C129.392 321.262 129.871 322.021 130.828 322.021C130.828 322.021 131.991 322.021 132.333 322.021C132.675 322.021 133.085 321.895 133.427 321.578L137.804 317.596C137.872 317.532 137.941 317.469 138.078 317.469C138.078 317.469 138.693 317.469 139.172 317.469C139.719 317.469 140.403 316.9 140.403 316.142C140.403 315.446 139.65 314.94 139.103 314.94ZM139.035 316.9H138.146C137.736 316.9 137.599 316.963 137.394 317.153L133.017 321.199C132.812 321.389 132.606 321.452 132.333 321.452H130.897C130.555 321.452 130.213 321.136 130.213 320.757C130.213 320.377 130.555 320.188 130.828 320.188H131.786C132.059 320.188 132.264 320.124 132.401 319.935L136.847 315.826C137.052 315.636 137.188 315.636 137.53 315.636H139.035C139.377 315.636 139.65 316.015 139.65 316.268C139.65 316.521 139.514 316.9 139.035 316.9Z" fill="white"/>
<path d="M189.592 184.408H226.933V171.259H189.592V184.408Z" fill="black"/>
<path d="M207.424 175.241C207.834 175.241 208.176 174.925 208.176 174.546C208.176 174.167 207.834 173.851 207.424 173.851C207.013 173.851 206.671 174.167 206.671 174.546C206.671 174.925 207.013 175.241 207.424 175.241Z" fill="white"/>
<path d="M212.485 174.609H210.775C210.433 174.609 209.954 174.736 209.681 174.989L208.108 176.443V176C208.108 175.115 206.672 175.115 206.672 176V177.707L205.304 178.971C205.167 179.098 205.167 179.098 204.894 179.098H204.073C203.252 179.098 202.705 179.793 202.705 180.362C202.705 180.931 203.184 181.69 204.141 181.69C204.141 181.69 205.304 181.69 205.646 181.69C205.988 181.69 206.398 181.563 206.74 181.247L211.117 177.265C211.185 177.201 211.254 177.138 211.39 177.138C211.39 177.138 212.006 177.138 212.485 177.138C213.032 177.138 213.716 176.569 213.716 175.811C213.716 175.115 213.032 174.609 212.485 174.609ZM212.348 176.569H211.459C211.049 176.569 210.912 176.632 210.707 176.822L206.33 180.868C206.125 181.058 205.919 181.121 205.646 181.121H204.21C203.868 181.121 203.526 180.805 203.526 180.426C203.526 180.046 203.868 179.857 204.141 179.857H205.099C205.372 179.857 205.577 179.793 205.714 179.604L210.159 175.494C210.365 175.305 210.501 175.305 210.843 175.305H212.348C212.69 175.305 212.963 175.684 212.963 175.937C212.963 176.19 212.827 176.569 212.348 176.569Z" fill="white"/>
<path d="M232.654 77.3271H269.994V64.1777H232.654V77.3271Z" fill="black"/>
<path d="M250.509 68.2121C250.919 68.2121 251.261 67.896 251.261 67.5167C251.261 67.1374 250.919 66.8213 250.509 66.8213C250.099 66.8213 249.757 67.1374 249.757 67.5167C249.757 67.896 250.099 68.2121 250.509 68.2121Z" fill="white"/>
<path d="M255.502 67.5801H253.792C253.45 67.5801 252.971 67.7065 252.698 67.9594L251.125 69.4134V68.9709C251.125 68.0858 249.689 68.0858 249.689 68.9709V70.6778L248.321 71.9421C248.184 72.0686 248.184 72.0686 247.911 72.0686H247.09C246.269 72.0686 245.722 72.764 245.722 73.3329C245.722 73.9019 246.201 74.6605 247.158 74.6605C247.158 74.6605 248.321 74.6605 248.663 74.6605C249.005 74.6605 249.415 74.5341 249.757 74.218L254.134 70.2352C254.202 70.172 254.271 70.1088 254.408 70.1088C254.408 70.1088 255.023 70.1088 255.502 70.1088C256.049 70.1088 256.733 69.5398 256.733 68.7812C256.801 68.0858 256.117 67.5801 255.502 67.5801ZM255.433 69.4766H254.544C254.134 69.4766 253.997 69.5398 253.792 69.7295L249.415 73.7755C249.21 73.9651 249.005 74.0283 248.731 74.0283H247.295C246.953 74.0283 246.611 73.7122 246.611 73.3329C246.611 72.9536 246.953 72.764 247.227 72.764H248.184C248.458 72.764 248.663 72.7007 248.8 72.5111L253.245 68.4019C253.45 68.2123 253.587 68.2123 253.929 68.2123H255.433C255.775 68.2123 256.049 68.5916 256.049 68.8444C256.049 69.0973 255.912 69.4766 255.433 69.4766Z" fill="white"/>
<path d="M101.739 173.007H149.542V155.622H101.739V173.007Z" fill="#C8A67C"/>
<path d="M102 220H150V204H102V220Z" fill="#C8A67C"/>
<path d="M120.163 200.94H149.57V190.257H120.163V200.94Z" fill="#C8A67C"/>
<path d="M101.832 218.736H149.567V220.823L130.008 239.093H101.832V218.736Z" fill="#C8A67C"/>
<path d="M101.832 147.741L129.187 129.281L149.567 137.5V153.115H101.832V147.741Z" fill="#C8A67C"/>
<path d="M117.287 200.971V187.696H149.567V175.558H101.832V200.971H117.287Z" fill="#C8A67C"/>
<path d="M171.411 10H176.326V8.73224H172.949V6.99574H176.06V5.72798H172.949V3.99503H176.312V2.72727H171.411V10ZM178.788 10L179.328 8.34162H181.952L182.492 10H184.14L181.633 2.72727H179.651L177.14 10H178.788ZM179.718 7.14134L180.613 4.3892H180.67L181.565 7.14134H179.718ZM188.794 4.81889H190.268C190.247 3.52273 189.181 2.62784 187.562 2.62784C185.968 2.62784 184.799 3.50852 184.806 4.82955C184.803 5.90199 185.559 6.51634 186.788 6.81108L187.58 7.00994C188.372 7.2017 188.812 7.42898 188.816 7.91903C188.812 8.4517 188.308 8.81392 187.527 8.81392C186.727 8.81392 186.152 8.4446 186.102 7.71662H184.615C184.654 9.28977 185.779 10.103 187.544 10.103C189.32 10.103 190.364 9.25426 190.367 7.92259C190.364 6.71165 189.451 6.06889 188.187 5.7848L187.534 5.62855C186.902 5.48295 186.372 5.24858 186.383 4.72656C186.383 4.25781 186.799 3.91335 187.551 3.91335C188.286 3.91335 188.737 4.24716 188.794 4.81889ZM191.125 3.99503H193.351V10H194.871V3.99503H197.098V2.72727H191.125V3.99503ZM160.851 15.995H163.078V22H164.598V15.995H166.824V14.7273H160.851V15.995ZM174.169 18.3636C174.169 15.9844 172.692 14.6278 170.763 14.6278C168.824 14.6278 167.358 15.9844 167.358 18.3636C167.358 20.7322 168.824 22.0994 170.763 22.0994C172.692 22.0994 174.169 20.7429 174.169 18.3636ZM172.61 18.3636C172.61 19.9048 171.878 20.7393 170.763 20.7393C169.645 20.7393 168.917 19.9048 168.917 18.3636C168.917 16.8224 169.645 15.9879 170.763 15.9879C171.878 15.9879 172.61 16.8224 172.61 18.3636ZM176.672 22H178.17L179.552 17.245H179.608L180.993 22H182.492L184.573 14.7273H182.893L181.689 19.7912H181.625L180.301 14.7273H178.863L177.534 19.7805H177.474L176.27 14.7273H174.591L176.672 22ZM185.396 22H190.311V20.7322H186.933V18.9957H190.044V17.728H186.933V15.995H190.296V14.7273H185.396V22ZM191.519 22H193.057V19.4219H194.179L195.557 22H197.254L195.709 19.1733C196.537 18.8182 196.995 18.0973 196.995 17.103C196.995 15.6577 196.039 14.7273 194.388 14.7273H191.519V22ZM193.057 18.1861V15.9844H194.093C194.981 15.9844 195.411 16.3786 195.411 17.103C195.411 17.8239 194.981 18.1861 194.101 18.1861H193.057Z" fill="black"/>
<path d="M195.36 314.945H196.858L198.239 310.19H198.296L199.681 314.945H201.18L203.261 307.673H201.581L200.377 312.737H200.313L198.989 307.673H197.551L196.222 312.726H196.162L194.958 307.673H193.279L195.36 314.945ZM204.084 314.945H208.999V313.678H205.621V311.941H208.732V310.673H205.621V308.94H208.984V307.673H204.084V314.945ZM214.152 309.764H215.626C215.605 308.468 214.539 307.573 212.92 307.573C211.325 307.573 210.157 308.454 210.164 309.775C210.161 310.847 210.917 311.462 212.146 311.756L212.938 311.955C213.73 312.147 214.17 312.374 214.173 312.864C214.17 313.397 213.666 313.759 212.884 313.759C212.085 313.759 211.51 313.39 211.46 312.662H209.972C210.011 314.235 211.137 315.048 212.902 315.048C214.678 315.048 215.722 314.2 215.725 312.868C215.722 311.657 214.809 311.014 213.545 310.73L212.891 310.574C212.259 310.428 211.73 310.194 211.741 309.672C211.741 309.203 212.156 308.859 212.909 308.859C213.644 308.859 214.095 309.192 214.152 309.764ZM216.483 308.94H218.709V314.945H220.229V308.94H222.456V307.673H216.483V308.94ZM193.445 320.94H195.672V326.945H197.192V320.94H199.418V319.673H193.445V320.94ZM206.763 323.309C206.763 320.93 205.286 319.573 203.358 319.573C201.419 319.573 199.952 320.93 199.952 323.309C199.952 325.678 201.419 327.045 203.358 327.045C205.286 327.045 206.763 325.688 206.763 323.309ZM205.204 323.309C205.204 324.85 204.473 325.685 203.358 325.685C202.239 325.685 201.511 324.85 201.511 323.309C201.511 321.768 202.239 320.933 203.358 320.933C204.473 320.933 205.204 321.768 205.204 323.309ZM209.266 326.945H210.764L212.146 322.19H212.203L213.587 326.945H215.086L217.167 319.673H215.487L214.284 324.737H214.22L212.895 319.673H211.457L210.129 324.726H210.068L208.864 319.673H207.185L209.266 326.945ZM217.99 326.945H222.905V325.678H219.528V323.941H222.638V322.673H219.528V320.94H222.891V319.673H217.99V326.945ZM224.113 326.945H225.651V324.367H226.773L228.151 326.945H229.848L228.303 324.119C229.131 323.763 229.589 323.043 229.589 322.048C229.589 320.603 228.634 319.673 226.982 319.673H224.113V326.945ZM225.651 323.131V320.93H226.688C227.575 320.93 228.005 321.324 228.005 322.048C228.005 322.769 227.575 323.131 226.695 323.131H225.651Z" fill="black"/>
<path d="M16.5156 11H10.1563L2.23438 16.0156V22.0156L9.5625 17.4219H9.75V43H16.5156V11ZM24.3086 43H31.0742V29.7812H44.0898V24.2031H31.0742V16.5781H45.4961V11H24.3086V43Z" fill="black"/>
<path d="M278.52 32.7035C279.633 32.7035 280.123 31.9055 280.123 30.9325V27.4255H279.087V30.8485C279.087 31.5625 278.849 31.8075 278.394 31.8075C278.1 31.8075 277.827 31.6465 277.624 31.2685L276.91 31.7935C277.26 32.3955 277.764 32.7035 278.52 32.7035ZM282.918 32.7035C284.115 32.7035 284.822 31.9825 284.822 31.1355C284.822 30.3865 284.409 29.9875 283.779 29.7285L283.1 29.4415C282.659 29.2665 282.288 29.1335 282.288 28.7625C282.288 28.4195 282.582 28.2165 283.037 28.2165C283.464 28.2165 283.807 28.3705 284.136 28.6435L284.661 27.9925C284.241 27.5655 283.639 27.3275 283.037 27.3275C281.987 27.3275 281.245 27.9785 281.245 28.8255C281.245 29.5815 281.77 30.0015 282.295 30.2185L282.988 30.5125C283.45 30.7085 283.765 30.8275 283.765 31.2125C283.765 31.5765 283.478 31.8075 282.939 31.8075C282.484 31.8075 281.994 31.5765 281.623 31.2335L281.028 31.9475C281.532 32.4305 282.225 32.7035 282.918 32.7035ZM285.697 27.4185V28.1675H287.804C287.636 29.5955 286.838 30.6175 285.34 31.3875L285.858 32.0945C288 31.0095 288.735 29.3505 288.735 27.4185H285.697ZM291.353 29.2175H290.45V26.7535H289.526V33.1935H290.45V29.9805H291.353V29.2175ZM297.037 28.6855H293.474V27.7265H296.988V26.9915H292.557V29.4205H297.037V28.6855ZM293.46 31.1635H292.536V33.0955H297.086V32.3605H293.46V31.1635ZM291.85 29.9455V30.6805H297.681V29.9455H291.85Z" fill="black"/>
<path d="M289.056 94.2377H286.782V93.6677H289.056V94.2377ZM289.836 92.4197H289.056V93.0497H286.782V92.4197H285.996V94.8677H289.836V92.4197ZM290.43 95.3897H285.426V96.0197H287.514V97.7417H288.306V96.0197H290.43V95.3897ZM294.57 93.4397H291.528V95.1137H295.506V94.4897H292.338V94.0337H295.374V92.3837H291.522V93.0077H294.57V93.4397ZM295.95 95.5157H290.946V96.1517H293.04V97.7477H293.832V96.1517H295.95V95.5157ZM297.017 96.5057H300.083V97.7537H300.875V95.8817H297.017V96.5057ZM299.357 94.8797V94.3997H300.917V93.7757H297.863V93.0557H300.869V92.4317H297.077V94.3997H298.565V94.8797H296.471V95.5097H301.463V94.8797H299.357Z" fill="black"/>
<path d="M228.715 31.0515C228.365 31.0515 228.113 30.7715 228.113 30.2885C228.113 29.8055 228.365 29.5185 228.715 29.5185C229.065 29.5185 229.317 29.8055 229.317 30.2885C229.317 30.7715 229.065 31.0515 228.715 31.0515ZM228.715 28.7485C227.889 28.7485 227.301 29.3855 227.301 30.2885C227.301 31.1845 227.889 31.8215 228.715 31.8215C229.541 31.8215 230.129 31.1845 230.129 30.2885C230.129 29.3855 229.541 28.7485 228.715 28.7485ZM229.17 26.9355H228.26V27.7335H227.161V28.4685H230.241V27.7335H229.17V26.9355ZM231.823 26.7535V29.3855H231.333V26.8795H230.472V32.9345H231.333V30.1275H231.823V33.2005H232.698V26.7535H231.823ZM236.513 27.7125C237.353 27.7125 237.892 27.9645 237.892 28.4265C237.892 28.8955 237.353 29.1475 236.513 29.1475C235.666 29.1475 235.127 28.8955 235.127 28.4265C235.127 27.9645 235.666 27.7125 236.513 27.7125ZM236.513 29.8825C237.885 29.8825 238.844 29.3155 238.844 28.4265C238.844 27.5515 237.885 26.9775 236.513 26.9775C235.134 26.9775 234.182 27.5515 234.182 28.4265C234.182 29.3155 235.134 29.8825 236.513 29.8825ZM239.446 30.3655H233.608V31.1075H236.044V33.2145H236.968V31.1075H239.446V30.3655ZM241.335 29.7985H243.428V27.3065H240.383V28.0415H242.483V29.0705H240.39V31.7235H240.971C242.14 31.7235 243.085 31.6815 244.135 31.4995L244.037 30.7505C243.127 30.9045 242.315 30.9535 241.335 30.9605V29.7985ZM244.485 26.7535V33.2215H245.409V26.7535H244.485Z" fill="black"/>
<path d="M120.602 145.049C119.354 144.833 118.67 143.975 118.67 143.165V142.769H117.824V143.165C117.824 143.957 117.134 144.833 115.892 145.049L116.228 145.709C117.188 145.523 117.89 144.983 118.244 144.281C118.598 144.983 119.306 145.517 120.266 145.709L120.602 145.049ZM115.772 146.657V147.299H120.776V146.657H115.772ZM125.881 142.445H125.083V145.319H125.881V142.445ZM124.633 144.449C123.931 144.545 123.319 144.563 122.377 144.563V144.209H124.087V143.621H122.377V143.279H124.249V142.667H121.591V145.181H122.065C123.217 145.181 123.907 145.175 124.699 145.067L124.633 144.449ZM122.989 147.335V146.993H125.881V145.535H122.197V146.129H125.095V146.441H122.203V147.929H126.019V147.335H122.989ZM130.387 144.101H128.233V143.669H130.387V144.101ZM131.173 142.589H130.387V143.075H128.233V142.589H127.447V144.719H131.173V142.589ZM131.809 145.703V145.073H126.811V145.703H128.905V146.171H127.363V146.795H130.411V147.977H131.203V146.171H129.697V145.703H131.809ZM137.16 145.049C135.912 144.833 135.228 143.975 135.228 143.165V142.769H134.382V143.165C134.382 143.957 133.692 144.833 132.45 145.049L132.786 145.709C133.746 145.523 134.448 144.983 134.802 144.281C135.156 144.983 135.864 145.517 136.824 145.709L137.16 145.049ZM132.33 146.657V147.299H137.334V146.657H132.33Z" fill="black"/>
<path d="M115.884 163.73C115.884 163.166 116.406 162.836 117.162 162.836C117.924 162.836 118.446 163.166 118.446 163.73C118.446 164.294 117.924 164.624 117.162 164.624C116.406 164.624 115.884 164.294 115.884 163.73ZM117.558 166.166V165.23C118.536 165.116 119.226 164.552 119.226 163.73C119.226 162.806 118.344 162.206 117.162 162.206C115.986 162.206 115.104 162.806 115.104 163.73C115.104 164.552 115.794 165.11 116.766 165.23V166.166H114.666V166.808H119.67V166.166H117.558ZM123.846 163.52H120.762V165.386H124.752V164.756H121.548V164.138H124.626V162.296H120.756V162.926H123.846V163.52ZM120.186 166.178V166.826H125.19V166.178H120.186ZM126.923 163.73C126.923 163.166 127.445 162.836 128.201 162.836C128.963 162.836 129.485 163.166 129.485 163.73C129.485 164.294 128.963 164.624 128.201 164.624C127.445 164.624 126.923 164.294 126.923 163.73ZM128.597 166.166V165.23C129.575 165.116 130.265 164.552 130.265 163.73C130.265 162.806 129.383 162.206 128.201 162.206C127.025 162.206 126.143 162.806 126.143 163.73C126.143 164.552 126.833 165.11 127.805 165.23V166.166H125.705V166.808H130.709V166.166H128.597ZM134.885 163.52H131.801V165.386H135.791V164.756H132.587V164.138H135.665V162.296H131.795V162.926H134.885V163.52ZM131.225 166.178V166.826H136.229V166.178H131.225Z" fill="black"/>
<path d="M122.231 180.181H121.319V179.491H120.539V180.181H119.627V180.817H122.231V180.181ZM120.917 183.037C120.635 183.037 120.425 182.797 120.425 182.377C120.425 181.963 120.635 181.723 120.917 181.723C121.205 181.723 121.409 181.963 121.409 182.377C121.409 182.797 121.205 183.037 120.917 183.037ZM120.917 181.063C120.233 181.063 119.741 181.609 119.741 182.377C119.741 183.151 120.233 183.691 120.917 183.691C121.601 183.691 122.093 183.151 122.093 182.377C122.093 181.609 121.601 181.063 120.917 181.063ZM122.555 181.387H122.099V182.041H122.555V184.633H123.287V179.449H122.555V181.387ZM123.623 179.353V184.879H124.373V179.353H123.623ZM126.635 182.965C126.221 182.965 125.945 182.527 125.945 181.705C125.945 180.889 126.221 180.451 126.635 180.451C127.043 180.451 127.325 180.889 127.325 181.705C127.325 182.527 127.043 182.965 126.635 182.965ZM126.635 179.737C125.795 179.737 125.183 180.493 125.183 181.705C125.183 182.923 125.795 183.685 126.635 183.685C127.469 183.685 128.087 182.923 128.087 181.705C128.087 180.493 127.469 179.737 126.635 179.737ZM130.283 181.435H129.479V179.353H128.687V184.879H129.479V182.089H130.283V181.435Z" fill="black"/>
<path d="M117.315 221.582H116.265V220.802H117.315V221.582ZM118.089 221.096H119.073V223.07H119.865V218.996H119.073V220.46H118.089V219.362H117.315V220.196H116.265V219.356H115.479V222.212H118.089V221.096ZM117.009 223.79V222.674H116.217V224.42H119.985V223.79H117.009ZM120.975 219.674V220.304H122.373C122.271 221.39 121.803 222.188 120.693 222.836L121.155 223.388C122.697 222.488 123.153 221.222 123.153 219.674H120.975ZM124.743 218.99V221.072H124.251V219.134H123.513V224.282H124.251V221.708H124.743V224.516H125.499V218.99H124.743ZM129.578 221.498C128.708 221.24 128.33 220.622 128.318 219.992H129.398V219.356H126.41V219.992H127.508C127.496 220.682 127.1 221.384 126.206 221.684L126.602 222.302C127.25 222.092 127.688 221.654 127.934 221.108C128.174 221.564 128.594 221.93 129.2 222.11L129.578 221.498ZM128.828 223.91C128.12 223.91 127.742 223.76 127.742 223.448C127.742 223.13 128.12 222.98 128.828 222.98C129.53 222.98 129.908 223.13 129.908 223.448C129.908 223.76 129.53 223.91 128.828 223.91ZM128.828 222.368C127.676 222.368 126.956 222.77 126.956 223.448C126.956 224.12 127.676 224.516 128.828 224.516C129.974 224.516 130.694 224.12 130.694 223.448C130.694 222.77 129.974 222.368 128.828 222.368ZM130.634 220.262V218.99H129.842V222.272H130.634V220.91H131.366V220.262H130.634ZM132.842 221.606H134.426V220.988H132.842V220.088H134.612V219.452H132.056V223.274H132.506C133.436 223.274 134.144 223.256 134.942 223.13L134.87 222.494C134.192 222.602 133.586 222.632 132.842 222.638V221.606ZM135.65 218.984V220.934H134.702V221.57H135.65V224.528H136.442V218.984H135.65Z" fill="black"/>
<path d="M163.668 256.806C163.254 256.806 162.978 256.368 162.978 255.546C162.978 254.73 163.254 254.292 163.668 254.292C164.076 254.292 164.358 254.73 164.358 255.546C164.358 256.368 164.076 256.806 163.668 256.806ZM163.668 253.578C162.828 253.578 162.216 254.334 162.216 255.546C162.216 256.764 162.828 257.526 163.668 257.526C164.502 257.526 165.12 256.764 165.12 255.546C165.12 254.334 164.502 253.578 163.668 253.578ZM167.316 255.276H166.512V253.194H165.72V258.72H166.512V255.93H167.316V255.276ZM169.733 255.522H168.647V254.838H169.733V255.522ZM170.513 253.548H169.733V254.232H168.647V253.548H167.867V256.14H170.513V253.548ZM170.243 258.114C169.541 258.114 169.163 257.964 169.163 257.652C169.163 257.34 169.541 257.19 170.243 257.19C170.951 257.19 171.329 257.34 171.329 257.652C171.329 257.964 170.951 258.114 170.243 258.114ZM170.243 256.572C169.097 256.572 168.377 256.974 168.377 257.652C168.377 258.324 169.097 258.732 170.243 258.732C171.395 258.732 172.115 258.324 172.115 257.652C172.115 256.974 171.395 256.572 170.243 256.572ZM172.055 254.484V253.2H171.263V256.452H172.055V255.132H172.787V254.484H172.055ZM158.286 263.782H157.566V262.588H158.286V263.782ZM159.534 262.216H159.018V260.698H158.286V261.964H157.566V260.692H156.822V264.412H159.018V262.852H159.534V265.48H160.272V260.29H159.534V262.216ZM160.656 260.188V265.714H161.406V260.188H160.656ZM165.972 260.188V265.732H166.764V260.188H165.972ZM163.794 260.578C162.96 260.578 162.342 261.334 162.342 262.546C162.342 263.764 162.96 264.526 163.794 264.526C164.628 264.526 165.246 263.764 165.246 262.546C165.246 261.334 164.628 260.578 163.794 260.578ZM163.794 261.292C164.202 261.292 164.484 261.73 164.484 262.546C164.484 263.368 164.202 263.806 163.794 263.806C163.386 263.806 163.104 263.368 163.104 262.546C163.104 261.73 163.386 261.292 163.794 261.292ZM167.981 260.722V261.352H169.727C169.703 261.616 169.661 261.856 169.607 262.09L167.687 262.198L167.789 262.864L169.367 262.72C169.049 263.326 168.515 263.836 167.657 264.286L168.089 264.886C170.069 263.848 170.513 262.42 170.513 260.722H167.981ZM171.533 260.194V262.312H170.501V262.954H171.533V265.72H172.325V260.194H171.533ZM174.329 262.798H176.123V260.662H173.513V261.292H175.313V262.174H173.519V264.448H174.017C175.019 264.448 175.829 264.412 176.729 264.256L176.645 263.614C175.865 263.746 175.169 263.788 174.329 263.794V262.798ZM177.029 260.188V265.732H177.821V260.188H177.029Z" fill="black"/>
<path d="M126.92 196.149C126.324 195.957 126.076 195.493 126.076 195.025V194.625H125.54V195.021C125.54 195.525 125.28 196.017 124.66 196.217L124.94 196.629C125.36 196.489 125.652 196.201 125.816 195.833C125.976 196.165 126.248 196.429 126.648 196.561L126.92 196.149ZM125.772 196.841H125.244V198.021H127.744V197.601H125.772V196.841ZM127.616 195.469V194.401H127.088V197.097H127.616V195.905H128.104V195.469H127.616ZM129.068 196.145H130.22V195.733H129.068V195.133H130.272V194.705H128.54V197.253H128.852C129.484 197.253 129.98 197.237 130.54 197.153L130.492 196.733C130.012 196.805 129.588 196.825 129.068 196.829V196.145ZM131.816 195.797H131.28V194.401H130.752V198.089H131.28V196.233H131.816V195.797ZM132.708 195.165H133.428V196.773H132.708V195.165ZM132.188 197.189H133.948V194.749H132.188V197.189ZM135.496 195.789H134.96V194.405H134.432V198.085H134.96V196.225H135.496V195.789ZM136.491 196.137H137.687V194.713H135.947V195.133H137.147V195.721H135.951V197.237H136.283C136.951 197.237 137.491 197.213 138.091 197.109L138.035 196.681C137.515 196.769 137.051 196.797 136.491 196.801V196.137ZM138.291 194.397V198.093H138.819V194.397H138.291ZM140.423 196.809C140.147 196.809 139.963 196.517 139.963 195.969C139.963 195.425 140.147 195.133 140.423 195.133C140.695 195.133 140.883 195.425 140.883 195.969C140.883 196.517 140.695 196.809 140.423 196.809ZM140.423 194.657C139.863 194.657 139.455 195.161 139.455 195.969C139.455 196.781 139.863 197.289 140.423 197.289C140.979 197.289 141.391 196.781 141.391 195.969C141.391 195.161 140.979 194.657 140.423 194.657ZM142.855 195.789H142.319V194.401H141.791V198.085H142.319V196.225H142.855V195.789ZM145.047 197.245V196.405H146.099V195.985H144.019V194.681H143.491V196.405H144.519V197.245H143.115V197.673H146.451V197.245H145.047ZM149.934 194.405H149.434V196.301H149.934V194.405ZM147.894 195.781H147.418V195.393H147.894V195.781ZM148.382 195.589H148.686V196.281H149.178V194.465H148.686V195.173H148.382V194.601H147.894V195.005H147.418V194.605H146.922V196.185H148.382V195.589ZM147.966 197.657V197.433H149.934V196.449H147.43V196.853H149.406V197.053H147.438V198.057H150.05V197.657H147.966ZM151.146 196.137H152.314V194.713H150.622V195.133H151.794V195.721H150.626V197.241H150.938C151.578 197.241 152.086 197.217 152.638 197.117L152.59 196.689C152.11 196.773 151.674 196.801 151.146 196.805V196.137ZM153.894 195.789H153.366V194.397H152.838V198.093H153.366V196.225H153.894V195.789Z" fill="black"/>
<path fill-rule="evenodd" clip-rule="evenodd" d="M222.789 74.1964C226.317 73.5871 229 70.5207 229 66.8295C229 62.7001 225.642 59.3525 221.5 59.3525C217.358 59.3525 214 62.7001 214 66.8295C214 70.5207 216.683 73.5871 220.211 74.1964L221.5 79.3525L222.789 74.1964Z" fill="black"/>
<path fill-rule="evenodd" clip-rule="evenodd" d="M222.789 72.1964C226.317 71.5871 229 68.5207 229 64.8295C229 60.7001 225.642 57.3525 221.5 57.3525C217.358 57.3525 214 60.7001 214 64.8295C214 68.5207 216.683 71.5871 220.211 72.1964L221.5 77.3525L222.789 72.1964Z" fill="#FF0000"/>
<ellipse cx="221.5" cy="64.8292" rx="2.5" ry="2.49231" fill="white"/>
<path d="M252.5 59.6924H274.5V128.333" stroke="#FF0000" stroke-width="3" stroke-linecap="round"/>
<mask id="path-87-inside-1" fill="white">
<path d="M285 704L280.014 697.385H159V672.413H187.554V649.43H210.537V503.839H180.381V448.486H210.537V374H314V648.484H292.39V678.397L312.833 704"/>
</mask>
<path d="M285 704L280.014 697.385H159V672.413H187.554V649.43H210.537V503.839H180.381V448.486H210.537V374H314V648.484H292.39V678.397L312.833 704" fill="white"/>
<path d="M280.014 697.385L282.41 695.579L281.51 694.385H280.014V697.385ZM159 697.385H156V700.385H159V697.385ZM159 672.413V669.413H156V672.413H159ZM187.554 672.413V675.413H190.554V672.413H187.554ZM187.554 649.43V646.43H184.554V649.43H187.554ZM210.537 649.43V652.43H213.537V649.43H210.537ZM210.537 503.839H213.537V500.839H210.537V503.839ZM180.381 503.839H177.381V506.839H180.381V503.839ZM180.381 448.486V445.486H177.381V448.486H180.381ZM210.537 448.486V451.486H213.537V448.486H210.537ZM210.537 374V371H207.537V374H210.537ZM314 374H317V371H314V374ZM314 648.484V651.484H317V648.484H314ZM292.39 648.484V645.484H289.39V648.484H292.39ZM292.39 678.397H289.39V679.447L290.046 680.269L292.39 678.397ZM287.396 702.194L282.41 695.579L277.618 699.19L282.604 705.806L287.396 702.194ZM280.014 694.385H159V700.385H280.014V694.385ZM162 697.385V672.413H156V697.385H162ZM159 675.413H187.554V669.413H159V675.413ZM190.554 672.413V649.43H184.554V672.413H190.554ZM187.554 652.43H210.537V646.43H187.554V652.43ZM213.537 649.43V503.839H207.537V649.43H213.537ZM210.537 500.839H180.381V506.839H210.537V500.839ZM183.381 503.839V448.486H177.381V503.839H183.381ZM180.381 451.486H210.537V445.486H180.381V451.486ZM213.537 448.486V374H207.537V448.486H213.537ZM210.537 377H314V371H210.537V377ZM311 374V648.484H317V374H311ZM314 645.484H292.39V651.484H314V645.484ZM289.39 648.484V678.397H295.39V648.484H289.39ZM290.046 680.269L310.489 705.872L315.177 702.128L294.735 676.525L290.046 680.269Z" fill="black" mask="url(#path-87-inside-1)"/>
<path d="M251.266 459.073H241.75V494.109H251.266V459.073Z" fill="#C4C4C4"/>
<path d="M276.806 459.073H267.29V494.109H276.806V459.073Z" fill="#C4C4C4"/>
<path d="M216.27 380.598V452.153H283.068V494.11H308.179V380.598H216.27Z" fill="#DAC452"/>
<path d="M276.745 501.339H253.107V514.192H276.745V501.339Z" fill="#FF0000"/>
<path d="M188.431 678.115H164.794V690.968H188.431V678.115Z" fill="black"/>
<path d="M265.448 459.073H253.107V494.109H265.448V459.073Z" fill="black"/>
<path d="M239.908 459.073H186.002V494.109H239.908V459.073Z" fill="#C4C4C4"/>
<path d="M235.118 501.339H216.085V520.494H235.118V501.339Z" fill="black"/>
<path d="M213.016 655.634H193.983V674.789H213.016V655.634Z" fill="black"/>
<path d="M235.118 524.388H216.085V546.324H235.118V524.388Z" fill="#DAC452"/>
<path d="M235.118 549.413H216.085V571.349H235.118V549.413Z" fill="#DAC452"/>
<path d="M235.118 600.453H216.085V622.389H235.118V600.453Z" fill="#DAC452"/>
<path d="M277.033 560.148H258V582.085H277.033V560.148Z" fill="#DAC452"/>
<path d="M277.033 524.148H258V546.085H277.033V524.148Z" fill="#DAC452"/>
<path d="M277 600.148H258V647.148H277V600.148Z" fill="#DAC452"/>
<path d="M235.118 574.439H216.085V591.803H235.118V574.439Z" fill="black"/>
<path d="M235.118 625.479H216.085V647.416H235.118V625.479Z" fill="#DAC452"/>
<path d="M258 675.148H235V691.148H258V675.148Z" fill="#DAC452"/>
<path d="M308.179 524.388H289.146V546.324H308.179V524.388Z" fill="#DAC452"/>
<path d="M308 497.148H289V521.148H308V497.148Z" fill="#DAC452"/>
<path d="M308.179 549.413H289.146V571.349H308.179V549.413Z" fill="#DAC452"/>
<path d="M308.179 574.439H289.146V596.376H308.179V574.439Z" fill="#DAC452"/>
<path d="M308.179 614.479H289.146V642.409H308.179V614.479Z" fill="#00AC8D"/>
<path d="M205.666 662.307C206.034 662.307 206.341 661.998 206.341 661.627C206.341 661.256 206.034 660.947 205.666 660.947C205.297 660.947 204.99 661.256 204.99 661.627C204.99 661.998 205.297 662.307 205.666 662.307Z" fill="white"/>
<path d="M205.543 666.694V669.104C205.543 669.536 204.929 669.536 204.929 669.104V666.694H204.07L204.991 663.481H204.868L204.315 665.273C204.193 665.644 203.64 665.52 203.763 665.087L204.377 663.11C204.438 662.863 204.745 662.492 205.236 662.492H205.666H206.157C206.648 662.492 206.955 662.925 207.017 663.11L207.631 665.087C207.754 665.52 207.201 665.705 207.078 665.273L206.526 663.481H206.341L207.262 666.694H206.403V669.104C206.403 669.536 205.789 669.536 205.789 669.104V666.694H205.543Z" fill="white"/>
<path d="M200.412 662.492C199.921 662.492 199.553 662.863 199.553 663.419V665.52C199.553 665.953 200.167 665.953 200.167 665.52V663.604H200.289V668.98C200.289 669.536 201.088 669.536 201.088 668.98V665.829H201.21V668.98C201.21 669.536 202.009 669.536 202.009 668.98V663.604H202.131V665.52C202.131 665.953 202.745 665.953 202.745 665.52V663.419C202.745 662.987 202.377 662.492 201.886 662.492H200.412Z" fill="white"/>
<path d="M201.087 662.307C201.46 662.307 201.763 662.002 201.763 661.627C201.763 661.252 201.46 660.947 201.087 660.947C200.714 660.947 200.412 661.252 200.412 661.627C200.412 662.002 200.714 662.307 201.087 662.307Z" fill="white"/>
<path d="M227.829 508.013C228.198 508.013 228.505 507.704 228.505 507.333C228.505 506.962 228.198 506.653 227.829 506.653C227.461 506.653 227.154 506.962 227.154 507.333C227.154 507.704 227.461 508.013 227.829 508.013Z" fill="white"/>
<path d="M227.707 512.4V514.81C227.707 515.243 227.093 515.243 227.093 514.81V512.4H226.233L227.154 509.187H227.031L226.479 510.979C226.356 511.35 225.804 511.226 225.926 510.794L226.54 508.816C226.602 508.569 226.909 508.198 227.4 508.198H227.83H228.321C228.812 508.198 229.119 508.631 229.18 508.816L229.794 510.794C229.917 511.226 229.365 511.411 229.242 510.979L228.689 509.187H228.505L229.426 512.4H228.566V514.81C228.566 515.243 227.952 515.243 227.952 514.81V512.4H227.707Z" fill="white"/>
<path d="M222.576 508.26C222.085 508.26 221.716 508.631 221.716 509.187V511.288C221.716 511.72 222.33 511.72 222.33 511.288V509.372H222.453V514.748C222.453 515.304 223.251 515.304 223.251 514.748V511.597H223.374V514.748C223.374 515.304 224.172 515.304 224.172 514.748V509.372H224.295V511.288C224.295 511.72 224.909 511.72 224.909 511.288V509.187C224.909 508.754 224.541 508.26 224.049 508.26H222.576Z" fill="white"/>
<path d="M223.251 508.013C223.624 508.013 223.926 507.708 223.926 507.333C223.926 506.958 223.624 506.653 223.251 506.653C222.878 506.653 222.576 506.958 222.576 507.333C222.576 507.708 222.878 508.013 223.251 508.013Z" fill="white"/>
<path d="M262.869 480.022V474.707C262.869 474.151 262.44 473.719 261.887 473.719H256.607C256.054 473.719 255.625 474.151 255.625 474.707V480.022C255.625 480.578 256.054 481.01 256.607 481.01H261.887C262.44 480.948 262.869 480.578 262.869 480.022ZM262.071 480.145H256.423V474.522H262.071V480.145Z" fill="white"/>
<path d="M260.168 470.258C260.168 469.825 260.782 469.825 260.782 470.258V471.988L261.089 471.617C261.334 471.37 261.702 471.741 261.457 471.988L260.659 472.915C260.536 473.039 260.352 473.039 260.229 472.915L259.431 471.988C259.185 471.679 259.615 471.37 259.799 471.617L260.106 472.05L260.168 470.258Z" fill="white"/>
<path d="M257.773 472.732C257.773 473.165 258.387 473.165 258.387 472.732V471.002L258.694 471.373C258.94 471.62 259.308 471.249 259.062 471.002L258.264 470.075C258.141 469.952 257.957 469.952 257.834 470.075L257.036 471.002C256.791 471.311 257.221 471.62 257.405 471.373L257.712 470.94L257.773 472.732Z" fill="white"/>
<path d="M260.905 476.189H259.861C259.738 476.189 259.615 476.313 259.615 476.437V477.734C259.615 477.858 259.677 477.92 259.799 477.92C259.799 477.92 259.861 477.92 259.922 477.92V479.588C259.922 479.897 260.352 479.897 260.352 479.588V477.92H260.413V479.588C260.413 479.897 260.843 479.897 260.843 479.588V477.92C260.905 477.92 260.966 477.92 260.966 477.92C261.089 477.92 261.15 477.858 261.15 477.734V476.437C261.15 476.313 261.027 476.189 260.905 476.189Z" fill="white"/>
<path d="M260.351 476.066C260.521 476.066 260.658 475.928 260.658 475.757C260.658 475.587 260.521 475.448 260.351 475.448C260.182 475.448 260.044 475.587 260.044 475.757C260.044 475.928 260.182 476.066 260.351 476.066Z" fill="white"/>
<path d="M258.695 476.189H257.651C257.528 476.189 257.405 476.313 257.405 476.437V477.734C257.405 477.858 257.467 477.92 257.589 477.92C257.589 477.92 257.651 477.92 257.712 477.92V479.588C257.712 479.897 258.142 479.897 258.142 479.588V477.92H258.203V479.588C258.203 479.897 258.633 479.897 258.633 479.588V477.92C258.695 477.92 258.756 477.92 258.756 477.92C258.879 477.92 258.94 477.858 258.94 477.734V476.437C258.94 476.313 258.817 476.189 258.695 476.189Z" fill="white"/>
<path d="M258.141 476.066C258.311 476.066 258.448 475.928 258.448 475.757C258.448 475.587 258.311 475.448 258.141 475.448C257.972 475.448 257.834 475.587 257.834 475.757C257.834 475.928 257.972 476.066 258.141 476.066Z" fill="white"/>
<path d="M229.224 587.662V582.348C229.224 581.792 228.794 581.359 228.242 581.359H222.962C222.409 581.359 221.979 581.792 221.979 582.348V587.662C221.979 588.218 222.409 588.651 222.962 588.651H228.242C228.794 588.651 229.224 588.218 229.224 587.662ZM228.426 587.848H222.778V582.224H228.426V587.848Z" fill="white"/>
<path d="M226.523 577.961C226.523 577.529 227.137 577.529 227.137 577.961V579.691L227.444 579.321C227.689 579.073 228.057 579.444 227.812 579.691L227.014 580.618C226.891 580.742 226.707 580.742 226.584 580.618L225.786 579.691C225.54 579.382 225.97 579.073 226.154 579.321L226.461 579.753L226.523 577.961Z" fill="white"/>
<path d="M224.128 580.371C224.128 580.803 224.742 580.803 224.742 580.371V578.641L225.049 579.011C225.295 579.259 225.663 578.888 225.417 578.641L224.619 577.714C224.496 577.59 224.312 577.59 224.189 577.714L223.391 578.641C223.146 578.95 223.575 579.259 223.76 579.011L224.067 578.579L224.128 580.371Z" fill="white"/>
<path d="M227.26 583.893H226.216C226.093 583.893 225.97 584.016 225.97 584.14V585.437C225.97 585.561 226.032 585.623 226.154 585.623C226.154 585.623 226.216 585.623 226.277 585.623V587.291C226.277 587.6 226.707 587.6 226.707 587.291V585.623H226.768V587.291C226.768 587.6 227.198 587.6 227.198 587.291V585.623C227.26 585.623 227.321 585.623 227.321 585.623C227.444 585.623 227.505 585.561 227.505 585.437V584.14C227.505 583.954 227.382 583.893 227.26 583.893Z" fill="white"/>
<path d="M226.769 583.769C226.938 583.769 227.076 583.631 227.076 583.46C227.076 583.29 226.938 583.151 226.769 583.151C226.599 583.151 226.462 583.29 226.462 583.46C226.462 583.631 226.599 583.769 226.769 583.769Z" fill="white"/>
<path d="M225.05 583.893H224.006C223.883 583.893 223.76 584.016 223.76 584.14V585.437C223.76 585.561 223.822 585.623 223.944 585.623C223.944 585.623 224.006 585.623 224.067 585.623V587.291C224.067 587.6 224.497 587.6 224.497 587.291V585.623H224.558V587.291C224.558 587.6 224.988 587.6 224.988 587.291V585.623C225.05 585.623 225.111 585.623 225.111 585.623C225.234 585.623 225.295 585.561 225.295 585.437V584.14C225.295 583.954 225.172 583.893 225.05 583.893Z" fill="white"/>
<path d="M224.496 583.769C224.666 583.769 224.803 583.631 224.803 583.46C224.803 583.29 224.666 583.151 224.496 583.151C224.327 583.151 224.189 583.29 224.189 583.46C224.189 583.631 224.327 583.769 224.496 583.769Z" fill="white"/>
<path d="M294.427 629.338H295.962V627.731H297.497V626.125H299.032V624.58H300.628V623.035H302.9V623.838H301.365V625.383H299.83V626.928H298.295V628.535H296.699V630.141H294.427V629.338Z" fill="white"/>
<path d="M175.845 682.008C176.214 682.008 176.521 681.699 176.521 681.328C176.521 680.957 176.214 680.648 175.845 680.648C175.477 680.648 175.17 680.957 175.17 681.328C175.17 681.699 175.477 682.008 175.845 682.008Z" fill="white"/>
<path d="M180.389 681.39H178.854C178.547 681.39 178.117 681.513 177.871 681.76L176.459 683.182V682.749C176.459 681.884 175.17 681.884 175.17 682.749V684.417L173.942 685.653C173.819 685.777 173.819 685.777 173.574 685.777H172.837C172.1 685.777 171.609 686.457 171.609 687.013C171.609 687.569 172.039 688.31 172.898 688.31C172.898 688.31 173.942 688.31 174.249 688.31C174.556 688.31 174.924 688.187 175.231 687.878L179.099 683.985C179.161 683.923 179.222 683.861 179.345 683.861C179.345 683.861 179.897 683.861 180.327 683.861C180.818 683.861 181.432 683.305 181.432 682.564C181.555 681.884 180.88 681.39 180.389 681.39ZM180.327 683.243H179.529C179.161 683.243 179.038 683.305 178.854 683.491L174.924 687.445C174.74 687.631 174.556 687.692 174.31 687.692H173.021C172.714 687.692 172.407 687.383 172.407 687.013C172.407 686.642 172.714 686.457 172.96 686.457H173.819C174.065 686.457 174.249 686.395 174.372 686.209L178.362 682.193C178.547 682.008 178.669 682.008 178.976 682.008H180.327C180.634 682.008 180.88 682.378 180.88 682.625C180.88 682.873 180.695 683.243 180.327 683.243Z" fill="white"/>
<path d="M264.158 505.231C264.527 505.231 264.834 504.923 264.834 504.552C264.834 504.181 264.527 503.872 264.158 503.872C263.79 503.872 263.483 504.181 263.483 504.552C263.544 504.923 263.79 505.231 264.158 505.231Z" fill="white"/>
<path d="M268.701 504.613H267.167C266.86 504.613 266.43 504.737 266.184 504.984L264.772 506.405V505.973C264.772 505.108 263.483 505.108 263.483 505.973V507.641L262.255 508.877C262.132 509.001 262.132 509.001 261.887 509.001H261.15C260.413 509.001 259.922 509.68 259.922 510.236C259.922 510.792 260.352 511.534 261.211 511.534C261.211 511.534 262.255 511.534 262.562 511.534C262.869 511.534 263.237 511.41 263.544 511.101L267.412 507.209C267.474 507.147 267.535 507.085 267.658 507.085C267.658 507.085 268.21 507.085 268.64 507.085C269.131 507.085 269.745 506.529 269.745 505.787C269.868 505.108 269.193 504.613 268.701 504.613ZM268.64 506.529H267.842C267.474 506.529 267.351 506.591 267.167 506.776L263.237 510.731C263.053 510.916 262.869 510.978 262.623 510.978H261.334C261.027 510.978 260.72 510.669 260.72 510.298C260.72 509.927 261.027 509.742 261.273 509.742H262.132C262.378 509.742 262.562 509.68 262.685 509.495L266.675 505.478C266.86 505.293 266.982 505.293 267.289 505.293H268.64C268.947 505.293 269.193 505.664 269.193 505.911C269.193 506.158 269.07 506.529 268.64 506.529Z" fill="white"/>
<path d="M178.026 384.148H182.941V382.881H179.564V381.144H182.675V379.876H179.564V378.143H182.927V376.876H178.026V384.148ZM185.403 384.148L185.943 382.49H188.567L189.107 384.148H190.754L188.247 376.876H186.266L183.755 384.148H185.403ZM186.333 381.29L187.228 378.538H187.285L188.18 381.29H186.333ZM195.409 378.967H196.883C196.861 377.671 195.796 376.776 194.177 376.776C192.582 376.776 191.414 377.657 191.421 378.978C191.417 380.05 192.174 380.665 193.403 380.96L194.194 381.158C194.986 381.35 195.427 381.577 195.43 382.067C195.427 382.6 194.922 382.962 194.141 382.962C193.342 382.962 192.767 382.593 192.717 381.865H191.229C191.268 383.438 192.394 384.251 194.159 384.251C195.935 384.251 196.979 383.403 196.982 382.071C196.979 380.86 196.066 380.217 194.802 379.933L194.148 379.777C193.516 379.631 192.987 379.397 192.998 378.875C192.998 378.406 193.413 378.062 194.166 378.062C194.901 378.062 195.352 378.396 195.409 378.967ZM197.739 378.143H199.966V384.148H201.486V378.143H203.712V376.876H197.739V378.143ZM167.466 390.143H169.693V396.148H171.212V390.143H173.439V388.876H167.466V390.143ZM180.784 392.512C180.784 390.133 179.306 388.776 177.378 388.776C175.439 388.776 173.973 390.133 173.973 392.512C173.973 394.881 175.439 396.248 177.378 396.248C179.306 396.248 180.784 394.891 180.784 392.512ZM179.225 392.512C179.225 394.053 178.493 394.888 177.378 394.888C176.259 394.888 175.531 394.053 175.531 392.512C175.531 390.971 176.259 390.136 177.378 390.136C178.493 390.136 179.225 390.971 179.225 392.512ZM183.286 396.148H184.785L186.166 391.393H186.223L187.608 396.148H189.107L191.188 388.876H189.508L188.304 393.94H188.24L186.916 388.876H185.477L184.149 393.929H184.089L182.885 388.876H181.205L183.286 396.148ZM192.011 396.148H196.925V394.881H193.548V393.144H196.659V391.876H193.548V390.143H196.911V388.876H192.011V396.148ZM198.134 396.148H199.671V393.57H200.793L202.171 396.148H203.869L202.324 393.322C203.151 392.967 203.609 392.246 203.609 391.251C203.609 389.806 202.654 388.876 201.003 388.876H198.134V396.148ZM199.671 392.335V390.133H200.708C201.596 390.133 202.026 390.527 202.026 391.251C202.026 391.972 201.596 392.335 200.715 392.335H199.671Z" fill="black"/>
<path d="M2.78125 417H16.4531C23.6406 417 27.4688 413.25 27.4688 408.156C27.4688 403.422 24.0781 400.562 20.4375 400.391V400.078C23.7656 399.328 26.2188 396.969 26.2188 393.203C26.2188 388.406 22.6563 385 15.5937 385H2.78125V417ZM9.54688 411.469V402.969H15.2188C18.4688 402.969 20.4844 404.844 20.4844 407.484C20.4844 409.891 18.8438 411.469 15.0625 411.469H9.54688ZM9.54688 398.391V390.469H14.6875C17.6875 390.469 19.3906 392.016 19.3906 394.328C19.3906 396.859 17.3281 398.391 14.5625 398.391H9.54688ZM31.6836 417H54.4961V411.469H41.0586V411.25L45.7305 406.672C52.3086 400.672 54.0742 397.672 54.0742 394.031C54.0742 388.484 49.543 384.562 42.6836 384.562C35.9648 384.562 31.3555 388.578 31.3711 394.859H37.793C37.7773 391.797 39.7148 389.922 42.6367 389.922C45.4492 389.922 47.543 391.672 47.543 394.484C47.543 397.031 45.9805 398.781 43.0742 401.578L31.6836 412.125V417Z" fill="black"/>
<path d="M237.497 421.288C238.527 421.288 239.397 420.888 239.897 420.398V417.058H237.267V418.268H238.577V419.728C238.367 419.908 238.007 420.008 237.647 420.008C236.197 420.008 235.457 419.038 235.457 417.428C235.457 415.838 236.317 414.878 237.547 414.878C238.217 414.878 238.637 415.148 238.997 415.498L239.787 414.558C239.307 414.068 238.567 413.608 237.497 413.608C235.527 413.608 233.947 415.038 233.947 417.478C233.947 419.948 235.477 421.288 237.497 421.288ZM241.485 421.148H243.595C245.775 421.148 247.175 419.908 247.175 417.418C247.175 414.918 245.775 413.748 243.515 413.748H241.485V421.148ZM242.965 419.958V414.928H243.425C244.805 414.928 245.665 415.608 245.665 417.418C245.665 419.218 244.805 419.958 243.425 419.958H242.965ZM250.104 414.918H251.064C252.014 414.918 252.534 415.188 252.534 415.988C252.534 416.778 252.014 417.178 251.064 417.178H250.104V414.918ZM254.304 421.148L252.574 418.118C253.424 417.788 253.984 417.098 253.984 415.988C253.984 414.288 252.754 413.748 251.204 413.748H248.624V421.148H250.104V418.348H251.134L252.654 421.148H254.304ZM259.696 418.818C259.006 418.818 258.546 418.088 258.546 416.718C258.546 415.358 259.006 414.628 259.696 414.628C260.376 414.628 260.846 415.358 260.846 416.718C260.846 418.088 260.376 418.818 259.696 418.818ZM259.696 413.438C258.296 413.438 257.276 414.698 257.276 416.718C257.276 418.748 258.296 420.018 259.696 420.018C261.086 420.018 262.116 418.748 262.116 416.718C262.116 414.698 261.086 413.438 259.696 413.438ZM265.776 416.268H264.436V412.798H263.116V422.008H264.436V417.358H265.776V416.268ZM266.955 413.678V414.728H269.875C269.845 415.168 269.775 415.568 269.685 415.948L266.465 416.138L266.635 417.258L269.305 416.998C268.785 418.008 267.895 418.868 266.385 419.618L267.085 420.638C270.515 418.888 271.185 416.518 271.185 413.678H266.955ZM274.925 416.308H273.635V412.788H272.315V421.988H273.635V417.398H274.925V416.308ZM277.194 414.888H279.404V413.838H275.894V419.958H276.524C277.874 419.958 278.784 419.918 279.814 419.718L279.704 418.638C278.894 418.798 278.154 418.858 277.194 418.878V414.888ZM280.374 416.158H278.774V417.228H280.374V421.598H281.604V412.968H280.374V416.158ZM282.284 412.788V421.998H283.534V412.788H282.284ZM285.274 413.628V419.818H289.704V413.628H285.274ZM288.404 414.668V418.778H286.574V414.668H288.404ZM291.134 412.798V422.028H292.454V412.798H291.134Z" fill="black"/>
<path d="M296.984 507.752H296.496C296.62 507.152 296.62 506.724 296.62 506.344V506.012H294.04V506.432H296.112C296.112 506.552 296.112 506.676 296.104 506.808L293.92 506.876L293.98 507.324L296.068 507.216C296.048 507.38 296.02 507.56 295.976 507.752H293.656V508.18H295.052V509.484H295.58V508.18H296.984V507.752ZM300.472 505.808H299.972V508.548H300.472V505.808ZM297.816 507.004C297.816 506.7 297.972 506.528 298.188 506.528C298.404 506.528 298.56 506.7 298.56 507.004C298.56 507.304 298.404 507.48 298.188 507.48C297.972 507.48 297.816 507.304 297.816 507.004ZM299.24 507.228V508.44H299.732V505.872H299.24V506.804H299.012C298.936 506.372 298.612 506.076 298.188 506.076C297.7 506.076 297.344 506.46 297.344 507.004C297.344 507.552 297.7 507.936 298.188 507.936C298.604 507.936 298.924 507.652 299.008 507.228H299.24ZM298.52 509.008V508.2H297.992V509.428H300.564V509.008H298.52ZM301.348 508.092C301.988 507.976 302.448 507.652 302.68 507.216C302.912 507.644 303.38 507.96 304.028 508.072L304.228 507.656C303.396 507.532 302.96 507.044 302.956 506.536H304.064V506.12H301.288V506.536H302.396C302.392 507.044 301.956 507.544 301.144 507.672L301.348 508.092ZM301.012 508.624V509.052H304.348V508.624H301.012ZM296.876 513.212H296.152V512.396H296.876V513.212ZM298.056 510.804V512.1H297.396V511.096H296.876V511.984H296.152V511.096H295.628V513.632H297.396V512.524H298.056V514.5H298.584V510.804H298.056ZM302.228 510.808H301.7V513.252H302.228V510.808ZM299.42 511.04V511.46H300.584C300.572 511.564 300.552 511.672 300.52 511.768L299.232 511.812L299.308 512.224L300.3 512.148C300.092 512.396 299.748 512.604 299.228 512.756L299.432 513.172C300.68 512.78 301.14 512.084 301.14 511.04H299.42ZM301.256 513.032H300.712V513.104C300.712 513.528 300.34 513.948 299.54 514.064L299.744 514.48C300.34 514.38 300.764 514.116 300.984 513.756C301.196 514.112 301.608 514.372 302.188 514.472L302.396 514.06C301.612 513.944 301.256 513.532 301.256 513.104V513.032Z" fill="black"/>
<path d="M296.992 531.696V532.124H297.544V533H298.072V530.808H297.544V531.696H296.992ZM297.212 532.488C296.652 532.304 296.396 531.872 296.38 531.452H297.096V531.028H295.116V531.452H295.84C295.824 531.912 295.556 532.38 294.972 532.584L295.24 533C295.668 532.856 295.96 532.556 296.12 532.184C296.28 532.508 296.556 532.768 296.956 532.9L297.212 532.488ZM296.828 534.096C296.344 534.096 296.092 533.996 296.092 533.788C296.092 533.58 296.344 533.48 296.828 533.48C297.308 533.48 297.56 533.58 297.56 533.788C297.56 533.996 297.308 534.096 296.828 534.096ZM296.828 533.08C296.044 533.08 295.564 533.34 295.564 533.788C295.564 534.236 296.044 534.496 296.828 534.496C297.608 534.496 298.088 534.236 298.088 533.788C298.088 533.34 297.608 533.08 296.828 533.08ZM300.336 530.864C299.52 530.864 299.004 531.128 299.004 531.564C299.004 532 299.52 532.26 300.336 532.26C301.152 532.26 301.672 532 301.672 531.564C301.672 531.128 301.152 530.864 300.336 530.864ZM300.336 531.264C300.844 531.264 301.128 531.36 301.128 531.564C301.128 531.764 300.844 531.86 300.336 531.86C299.832 531.86 299.548 531.764 299.548 531.564C299.548 531.36 299.832 531.264 300.336 531.264ZM299.06 533.056V534.448H301.604V533.056H301.076V533.344H299.584V533.056H299.06ZM299.584 533.74H301.076V534.036H299.584V533.74ZM298.672 532.452V532.872H302V532.452H298.672ZM294.453 535.808H293.953V538.28H294.453V535.808ZM291.789 536.952C291.789 536.664 291.941 536.492 292.161 536.492C292.381 536.492 292.533 536.664 292.533 536.952C292.533 537.24 292.381 537.408 292.161 537.408C291.941 537.408 291.789 537.24 291.789 536.952ZM293.237 536.744V537.172H292.977C292.989 537.1 292.997 537.032 292.997 536.956C292.997 536.88 292.989 536.812 292.977 536.744H293.237ZM293.237 537.592V537.928H293.729V535.88H293.237V536.324H292.777C292.629 536.156 292.413 536.056 292.161 536.056C291.677 536.056 291.325 536.424 291.325 536.952C291.325 537.484 291.677 537.852 292.161 537.852C292.409 537.852 292.621 537.756 292.769 537.592H293.237ZM293.445 538.092H292.917V538.188C292.917 538.568 292.541 538.968 291.745 539.072L291.937 539.48C292.529 539.396 292.957 539.148 293.181 538.812C293.405 539.148 293.833 539.396 294.425 539.48L294.621 539.072C293.825 538.968 293.445 538.568 293.445 538.188V538.092ZM297.064 536.952C296.572 537.048 296.104 537.08 295.668 537.088V535.968H295.14V537.528H295.452C295.968 537.528 296.524 537.492 297.124 537.372L297.064 536.952ZM295.992 538.796H297.892V537.776H295.46V538.192H297.364V538.408H295.464V539.448H297.996V539.036H295.992V538.796ZM297.892 536.496V535.804H297.364V537.628H297.892V536.924H298.38V536.496H297.892ZM298.904 536.02V536.436H300.044C299.968 536.924 299.508 537.328 298.692 537.532L298.892 537.944C299.988 537.664 300.608 537 300.608 536.02H298.904ZM299.816 538.432H301.212V539.036H299.816V538.432ZM299.296 539.448H301.732V538.016H299.296V539.448ZM301.2 535.812V537.86H301.732V535.812H301.2ZM303.704 537.284H302.98V536.836H303.704V537.284ZM304.224 535.988H303.704V536.432H302.98V535.988H302.46V537.7H304.224V535.988ZM304.728 539.032H303.368V538.716H304.728V539.032ZM304.728 538.308H303.368V537.988H302.848V539.452H305.252V537.988H304.728V538.308ZM305.74 536.584H305.252V535.808H304.724V537.832H305.252V537.016H305.74V536.584Z" fill="black"/>
<path d="M298.716 558.488C297.876 558.352 297.424 557.8 297.424 557.276V557.012H296.86V557.276C296.86 557.788 296.404 558.352 295.572 558.488L295.788 558.924C296.432 558.808 296.9 558.46 297.14 558.008C297.38 558.464 297.852 558.808 298.5 558.924L298.716 558.488ZM297.408 559.632V558.808H296.88V559.632H295.492V560.056H298.828V559.632H297.408ZM301.696 556.804V560.5H302.224V556.804H301.696ZM300.244 557.064C299.688 557.064 299.276 557.568 299.276 558.376C299.276 559.188 299.688 559.696 300.244 559.696C300.8 559.696 301.212 559.188 301.212 558.376C301.212 557.568 300.8 557.064 300.244 557.064ZM300.244 557.54C300.516 557.54 300.704 557.832 300.704 558.376C300.704 558.924 300.516 559.216 300.244 559.216C299.972 559.216 299.784 558.924 299.784 558.376C299.784 557.832 299.972 557.54 300.244 557.54ZM296.04 562.98C296.04 562.676 296.24 562.488 296.508 562.488C296.78 562.488 296.98 562.676 296.98 562.98C296.98 563.288 296.78 563.476 296.508 563.476C296.24 563.476 296.04 563.288 296.04 562.98ZM298.044 562.74V563.216H297.452C297.472 563.144 297.48 563.06 297.48 562.98C297.48 562.896 297.468 562.816 297.452 562.74H298.044ZM298.044 563.636V564.504H298.572V561.808H298.044V562.32H297.224C297.044 562.136 296.796 562.028 296.508 562.028C295.964 562.028 295.54 562.432 295.54 562.98C295.54 563.532 295.964 563.936 296.508 563.936C296.796 563.936 297.052 563.824 297.232 563.636H298.044ZM296.672 565.008V564.24H296.144V565.428H298.656V565.008H296.672ZM301.256 563.12C300.76 563.216 300.288 563.252 299.848 563.26V561.98H299.32V563.7H299.632C300.152 563.7 300.716 563.664 301.316 563.544L301.256 563.12ZM300.192 564.464H301.556V565.036H300.192V564.464ZM299.672 565.448H302.072V564.052H299.672V565.448ZM302.56 562.584H302.072V561.808H301.544V563.88H302.072V563.016H302.56V562.584Z" fill="black"/>
<path d="M296.824 584.828H297.556V584.408H296.828V583.896H296.3V584.408H295.552V584.828H296.3V584.956C296.3 585.508 296.024 586.132 295.428 586.408L295.712 586.812C296.124 586.628 296.408 586.256 296.568 585.816C296.72 586.224 296.988 586.568 297.38 586.748L297.66 586.348C297.084 586.072 296.824 585.476 296.824 584.956V584.828ZM298.912 585.24H298.376V583.812H297.848V587.492H298.376V585.676H298.912V585.24ZM299.708 584.748C299.708 584.492 299.904 584.336 300.18 584.336C300.456 584.336 300.652 584.492 300.652 584.748C300.652 585.008 300.456 585.164 300.18 585.164C299.904 585.164 299.708 585.008 299.708 584.748ZM301.16 584.748C301.16 584.264 300.744 583.912 300.18 583.912C299.62 583.912 299.2 584.264 299.2 584.748C299.2 585.24 299.62 585.588 300.18 585.588C300.744 585.588 301.16 585.24 301.16 584.748ZM300.168 586.8H302.072V585.792H299.64V586.2H301.552V586.42H299.644V587.448H302.176V587.04H300.168V586.8ZM302.072 584.516V583.808H301.544V585.648H302.072V584.948H302.556V584.516H302.072Z" fill="black"/>
<path d="M263.82 531.604H264.356V531.176H262.716V531.604H263.308V531.784C263.308 532.416 263.116 533.076 262.58 533.416L262.892 533.804C263.224 533.596 263.44 533.236 263.568 532.816C263.688 533.204 263.896 533.524 264.224 533.716L264.532 533.332C264 533.02 263.82 532.4 263.82 531.784V531.604ZM264.568 532.064H264.1V532.492H264.568V534.324H265.06V530.868H264.568V532.064ZM265.312 530.804V534.488H265.812V530.804H265.312ZM266.992 531.16H266.476V533.612H266.732C267.196 533.612 267.596 533.596 268.036 533.504L267.972 533.064C267.632 533.128 267.324 533.152 266.992 533.16V531.16ZM268.22 531.968H267.496V532.396H268.22V534.328H268.712V530.868H268.22V531.968ZM269 530.804V534.488H269.5V530.804H269ZM272.136 532.148C271.672 532.224 271.272 532.24 270.668 532.244V531.984H271.82V530.976H270.14V531.376H271.3V531.616H270.144V532.648H270.456C271.2 532.648 271.66 532.636 272.176 532.548L272.136 532.148ZM271.032 533.84H272.912V532.86H270.504V533.256H272.392V533.468H270.512V534.464H273.044V534.068H271.032V533.84ZM272.912 531.532V530.804H272.384V532.72H272.912V531.964H273.4V531.532H272.912ZM265.632 537.508H263.568V536.54H265.604V536.112H263.04V537.928H265.632V537.508ZM262.652 538.62V539.052H265.988V538.62H262.652ZM269.392 535.808H268.86V538.044H269.392V535.808ZM268.556 537.368C268.076 537.448 267.648 537.468 267.04 537.472V537.148H268.212V536.024H266.516V536.444H267.692V536.756H266.52V537.896H266.844C267.576 537.896 268.068 537.88 268.616 537.788L268.556 537.368ZM268.152 539.088C267.672 539.088 267.42 539 267.42 538.804C267.42 538.612 267.672 538.524 268.152 538.524C268.636 538.524 268.888 538.612 268.888 538.804C268.888 539 268.636 539.088 268.152 539.088ZM268.152 538.112C267.372 538.112 266.892 538.368 266.892 538.804C266.892 539.24 267.372 539.496 268.152 539.496C268.936 539.496 269.416 539.24 269.416 538.804C269.416 538.368 268.936 538.112 268.152 538.112ZM270.284 537.216L270.348 537.644L272.452 537.536C272.428 537.784 272.388 538.052 272.316 538.352L272.836 538.404C273.008 537.604 273.008 537.096 273.008 536.56V536.132H270.388V536.552H272.488V536.56C272.488 536.748 272.488 536.94 272.48 537.144L270.284 537.216ZM270.016 538.624V539.056H273.344V538.624H270.016Z" fill="black"/>
<path d="M218.279 532.792C218.759 532.792 219.067 532.936 219.067 533.2C219.067 533.468 218.759 533.612 218.279 533.612C217.795 533.612 217.487 533.468 217.487 533.2C217.487 532.936 217.795 532.792 218.279 532.792ZM218.279 534.032C219.063 534.032 219.611 533.708 219.611 533.2C219.611 532.7 219.063 532.372 218.279 532.372C217.491 532.372 216.947 532.7 216.947 533.2C216.947 533.708 217.491 534.032 218.279 534.032ZM219.955 534.308H216.619V534.732H218.011V535.936H218.539V534.732H219.955V534.308ZM221.127 534.688C220.927 534.688 220.807 534.412 220.807 533.844C220.807 533.28 220.927 533.004 221.127 533.004C221.331 533.004 221.447 533.28 221.447 533.844C221.447 534.412 221.331 534.688 221.127 534.688ZM222.211 533.604H221.919C221.859 532.916 221.563 532.508 221.127 532.508C220.639 532.508 220.331 533.012 220.331 533.844C220.331 534.68 220.639 535.184 221.127 535.184C221.575 535.184 221.875 534.752 221.923 534.032H222.211V535.768H222.703V532.308H222.211V533.604ZM222.959 532.244V535.928H223.459V532.244H222.959ZM225.911 535.092V534.252H226.963V533.832H224.883V532.528H224.355V534.252H225.383V535.092H223.979V535.52H227.315V535.092H225.911ZM228.142 534.372L228.602 533.636C228.686 533.476 228.766 533.312 228.838 533.156H228.854C228.846 533.328 228.83 533.596 228.83 533.768V534.372H228.142ZM229.73 534.372H229.378V532.628H228.674L227.57 534.42V534.82H228.83V535.588H229.378V534.82H229.73V534.372ZM230.014 535.588H231.998V535.092H231.354C231.218 535.092 231.022 535.108 230.874 535.124C231.414 534.596 231.858 534.02 231.858 533.484C231.858 532.932 231.486 532.572 230.926 532.572C230.522 532.572 230.258 532.732 229.986 533.02L230.306 533.34C230.454 533.176 230.634 533.036 230.85 533.036C231.13 533.036 231.294 533.216 231.294 533.516C231.294 533.972 230.818 534.528 230.014 535.248V535.588ZM232.525 535.588H234.305V535.112H233.749V532.628H233.313C233.125 532.744 232.921 532.82 232.625 532.876V533.24H233.161V535.112H232.525V535.588ZM219.689 539.66H218.949V538.844H219.689V539.66ZM219.689 538.432H218.949V537.54H218.425V540.08H220.213V537.54H219.689V538.432ZM221.733 538.62H221.197V537.252H220.669V540.932H221.197V539.06H221.733V538.62ZM224.516 537.244V540.94H225.044V537.244H224.516ZM223.064 537.504C222.508 537.504 222.096 538.008 222.096 538.816C222.096 539.628 222.508 540.136 223.064 540.136C223.62 540.136 224.032 539.628 224.032 538.816C224.032 538.008 223.62 537.504 223.064 537.504ZM223.064 537.98C223.336 537.98 223.524 538.272 223.524 538.816C223.524 539.364 223.336 539.656 223.064 539.656C222.792 539.656 222.604 539.364 222.604 538.816C222.604 538.272 222.792 537.98 223.064 537.98ZM228.54 539.68C228.688 538.896 228.688 538.376 228.688 537.916V537.564H226.012V537.984H228.16C228.16 538.412 228.152 538.924 228.012 539.62L228.54 539.68ZM227.38 540.064V538.796H226.852V540.064H225.676V540.488H229.008V540.064H227.38ZM230.42 539.6H229.948V538.04H230.42V539.6ZM231.264 538.584H230.908V537.624H229.456V540.012H230.908V539.012H231.264V540.764H231.756V537.304H231.264V538.584ZM232.012 537.244V540.928H232.512V537.244H232.012Z" fill="black"/>
<path d="M220.832 559.58V562.056H222.604V559.58H220.832ZM222.084 559.996V561.64H221.352V559.996H222.084ZM223.176 559.248V562.94H223.704V559.248H223.176ZM224.512 559.58V562.056H226.284V559.58H224.512ZM225.764 559.996V561.64H225.032V559.996H225.764ZM226.856 559.248V562.94H227.384V559.248H226.856ZM230.096 560.652C229.696 560.736 229.332 560.76 228.676 560.764V559.896H229.792V559.472H228.152V561.188H228.46C229.276 561.188 229.696 561.168 230.148 561.068L230.096 560.652ZM229.036 561.888H230.396V562.476H229.036V561.888ZM228.516 562.888H230.912V561.472H228.516V562.888ZM231.4 560.076H230.912V559.244H230.384V561.312H230.912V560.504H231.4V560.076Z" fill="black"/>
<path d="M221.824 611.196H221V610.804H220.468V611.196H219.652V611.608H221.82L221.824 611.196ZM220.336 612.448C220.336 612.248 220.5 612.14 220.736 612.14C220.968 612.14 221.136 612.248 221.136 612.448C221.136 612.652 220.968 612.76 220.736 612.76C220.5 612.76 220.336 612.652 220.336 612.448ZM221.64 612.448C221.64 612.032 221.264 611.74 220.736 611.74C220.208 611.74 219.832 612.032 219.832 612.448C219.832 612.872 220.208 613.16 220.736 613.16C221.264 613.16 221.64 612.872 221.64 612.448ZM220.704 613.36H220.176V614.428H222.684V614.008H220.704V613.36ZM222.552 611.932V610.808H222.024V613.564H222.552V612.368H223.04V611.932H222.552ZM226.668 612.656V612.236H226.204C226.276 611.844 226.276 611.536 226.276 611.26V610.964H223.744V611.388H225.756C225.756 611.632 225.744 611.9 225.676 612.236H223.332V612.656H224.732V613.176H223.668V613.592H225.752V614.492H226.284V613.176H225.26V612.656H226.668ZM229.308 612.356C228.748 612.192 228.476 611.812 228.448 611.424H229.172V611.008H227.168V611.424H227.904C227.876 611.84 227.608 612.24 227.024 612.412L227.288 612.828C227.72 612.696 228.016 612.42 228.184 612.076C228.352 612.392 228.636 612.644 229.052 612.764L229.308 612.356ZM229.548 614.028H228.148V613.704H229.548V614.028ZM229.548 613.3H228.148V612.964H227.624V614.448H230.072V612.964H229.548V613.3ZM229.54 610.812V612.808H230.072V610.812H229.54Z" fill="black"/>
<path d="M221.84 636.408C221.26 636.216 221.012 635.756 221.012 635.3V634.996H220.476V635.312C220.476 635.808 220.22 636.3 219.604 636.508L219.88 636.92C220.308 636.772 220.596 636.484 220.756 636.112C220.916 636.432 221.18 636.688 221.564 636.82L221.84 636.408ZM220.676 637.5H222.036V638.036H220.676V637.5ZM220.156 638.448H222.552V637.084H220.156V638.448ZM223.04 635.64H222.552V634.808H222.024V636.936H222.552V636.076H223.04V635.64ZM224.432 636.412H223.956V635.964H224.432V636.412ZM224.92 635.044H224.432V635.56H223.956V635.044H223.46V636.824H224.92V635.044ZM223.936 637.616H225.944V638.496H226.472V637.196H223.936V637.616ZM225.972 634.808V635.708H225.684V634.872H225.192V637.012H225.684V636.132H225.972V637.024H226.472V634.808H225.972ZM227.936 637.352H227.408V638.428H230.008V638.008H227.936V637.352ZM228.944 636.688V636.328H229.98V635.908H227.944V635.404H229.948V634.984H227.42V636.328H228.416V636.688H227.016V637.108H230.348V636.688H228.944Z" fill="black"/>
<path d="M261.189 621.572H261.569V623.196C261.441 623.2 261.313 623.204 261.189 623.208V621.572ZM262.077 621.572H262.393V621.148H260.361V621.572H260.677V623.22C260.533 623.22 260.393 623.22 260.265 623.22L260.321 623.652C260.949 623.652 261.785 623.636 262.533 623.504L262.501 623.12C262.365 623.14 262.221 623.148 262.077 623.16V621.572ZM263.733 622.2H263.197V620.812H262.669V624.496H263.197V622.636H263.733V622.2ZM266.516 620.804V624.5H267.044V620.804H266.516ZM265.064 621.064C264.508 621.064 264.096 621.568 264.096 622.376C264.096 623.188 264.508 623.696 265.064 623.696C265.62 623.696 266.032 623.188 266.032 622.376C266.032 621.568 265.62 621.064 265.064 621.064ZM265.064 621.54C265.336 621.54 265.524 621.832 265.524 622.376C265.524 622.924 265.336 623.216 265.064 623.216C264.792 623.216 264.604 622.924 264.604 622.376C264.604 621.832 264.792 621.54 265.064 621.54ZM268.68 623.216C268.412 623.216 268.232 622.924 268.232 622.376C268.232 621.832 268.412 621.54 268.68 621.54C268.952 621.54 269.132 621.832 269.132 622.376C269.132 622.924 268.952 623.216 268.68 623.216ZM270.236 620.804V622.132H269.62C269.548 621.468 269.176 621.064 268.68 621.064C268.132 621.064 267.728 621.568 267.728 622.376C267.728 623.188 268.132 623.696 268.68 623.696C269.192 623.696 269.568 623.264 269.624 622.56H270.236V624.5H270.764V620.804H270.236ZM274.492 620.812H273.992V622.708H274.492V620.812ZM272.452 622.188H271.976V621.8H272.452V622.188ZM272.94 621.996H273.244V622.688H273.736V620.872H273.244V621.58H272.94V621.008H272.452V621.412H271.976V621.012H271.48V622.592H272.94V621.996ZM272.524 624.064V623.84H274.492V622.856H271.988V623.26H273.964V623.46H271.996V624.464H274.608V624.064H272.524ZM261.061 626.564H262.313V626.136H260.533V628.624H260.857C261.641 628.624 262.109 628.608 262.609 628.512L262.561 628.076C262.117 628.16 261.705 628.18 261.061 628.184V626.564ZM262.837 625.808V629.504H263.365V625.808H262.837ZM265 628.216C264.732 628.216 264.552 627.924 264.552 627.376C264.552 626.832 264.732 626.54 265 626.54C265.272 626.54 265.452 626.832 265.452 627.376C265.452 627.924 265.272 628.216 265 628.216ZM266.556 625.804V627.132H265.94C265.868 626.468 265.496 626.064 265 626.064C264.452 626.064 264.048 626.568 264.048 627.376C264.048 628.188 264.452 628.696 265 628.696C265.512 628.696 265.888 628.264 265.944 627.56H266.556V629.5H267.084V625.804H266.556ZM270.54 628.24C270.688 627.456 270.688 626.936 270.688 626.476V626.124H268.012V626.544H270.16C270.16 626.972 270.152 627.484 270.012 628.18L270.54 628.24ZM269.38 628.624V627.356H268.852V628.624H267.676V629.048H271.008V628.624H269.38ZM272.42 628.16H271.948V626.6H272.42V628.16ZM273.264 627.144H272.908V626.184H271.456V628.572H272.908V627.572H273.264V629.324H273.756V625.864H273.264V627.144ZM274.012 625.804V629.488H274.512V625.804H274.012Z" fill="black"/>
<path d="M239.493 682.14V684.616H241.265V682.14H239.493ZM240.745 682.556V684.2H240.013V682.556H240.745ZM241.837 681.808V685.5H242.365V681.808H241.837ZM243.98 684.216C243.704 684.216 243.52 683.924 243.52 683.376C243.52 682.832 243.704 682.54 243.98 682.54C244.252 682.54 244.44 682.832 244.44 683.376C244.44 683.924 244.252 684.216 243.98 684.216ZM243.98 682.064C243.42 682.064 243.012 682.568 243.012 683.376C243.012 684.188 243.42 684.696 243.98 684.696C244.536 684.696 244.948 684.188 244.948 683.376C244.948 682.568 244.536 682.064 243.98 682.064ZM246.412 683.196H245.876V681.808H245.348V685.492H245.876V683.632H246.412V683.196ZM247.592 684.3H247.064V685.428H249.664V685.008H247.592V684.3ZM248.608 683.656V683.216H249.632V682.796H247.616V681.912H247.088V683.216H248.08V683.656H246.676V684.076H250.008V683.656H248.608ZM250.992 682.156H250.464V684.588H250.784C251.32 684.588 251.912 684.556 252.524 684.428L252.472 683.996C251.956 684.096 251.456 684.136 250.992 684.148V682.156ZM253.752 683.196H253.236V681.804H252.708V685.484H253.236V683.632H253.752V683.196Z" fill="black"/>
<path d="M293.937 635.48H294.465V632.808H293.937V633.62H293.509V634.04H293.937V635.48ZM293.781 634.592C293.353 634.328 293.249 633.844 293.249 633.38V633.056H292.877V633.06H292.757V633.384C292.757 633.712 292.713 634.08 292.513 634.368C292.313 634.08 292.269 633.704 292.269 633.384V633.06H292.149V633.056H291.773V633.38C291.773 633.828 291.669 634.32 291.241 634.592L291.525 634.964C291.769 634.812 291.925 634.576 292.021 634.3C292.109 634.588 292.261 634.84 292.513 635.008C292.765 634.844 292.917 634.596 293.005 634.308C293.097 634.584 293.253 634.816 293.497 634.964L293.781 634.592ZM292.433 636.008V635.232H291.905V636.428H294.545V636.008H292.433ZM295.908 635.256H295.38V636.428H297.992V636.008H295.908V635.256ZM297.844 634.568C297.936 634.06 297.936 633.684 297.936 633.32V632.972H295.404V633.392H297.416C297.416 633.5 297.416 633.608 297.412 633.724L295.3 633.768L295.36 634.192L297.384 634.108C297.368 634.252 297.348 634.4 297.312 634.568H294.992V634.988H298.324V634.568H297.844ZM298.84 633.184V633.612H300.044C299.948 634.428 299.492 635.012 298.636 635.452L298.932 635.856C300.156 635.236 300.576 634.288 300.576 633.184H298.84ZM302.072 634.212H301.556V632.804H301.028V636.484H301.556V634.648H302.072V634.212ZM305.32 633.908H303.284V633.36H305.292V632.94H302.76V634.328H305.32V633.908ZM303.276 635.324H302.748V636.428H305.348V636.008H303.276V635.324ZM302.356 634.628V635.048H305.688V634.628H302.356Z" fill="white"/>
<path d="M265.164 568.544H266.332V567.12H264.64V567.54H265.812V568.128H264.644V569.648H264.956C265.596 569.648 266.104 569.624 266.656 569.524L266.608 569.096C266.128 569.18 265.692 569.208 265.164 569.212V568.544ZM267.912 568.196H267.384V566.804H266.856V570.5H267.384V568.632H267.912V568.196ZM271.312 566.812H270.812V569.548H271.312V566.812ZM269.272 568.496H268.792V567.568H269.272V568.496ZM269.76 568.22H270.072V569.44H270.564V566.872H270.072V567.796H269.76V567.164H268.3V568.9H269.76V568.22ZM269.36 570.008V569.228H268.832V570.428H271.404V570.008H269.36ZM263.732 574.2H263.252V573.404H263.732V574.2ZM264.564 573.156H264.22V572.144H263.732V572.988H263.252V572.14H262.756V574.62H264.22V573.58H264.564V575.332H265.056V571.872H264.564V573.156ZM265.312 571.804V575.488H265.812V571.804H265.312ZM267.004 573.544H268.172V572.12H266.48V572.54H267.652V573.128H266.484V574.648H266.796C267.436 574.648 267.944 574.624 268.496 574.524L268.448 574.096C267.968 574.18 267.532 574.208 267.004 574.212V573.544ZM269.752 573.196H269.224V571.804H268.696V575.5H269.224V573.632H269.752V573.196ZM270.888 573.024H272.464V573.54H270.888V573.024ZM271.94 574.636V573.96H272.984V572.036H272.464V572.608H270.888V572.036H270.364V573.96H271.412V574.636H270.012V575.064H273.348V574.636H271.94Z" fill="black"/>
<path fill-rule="evenodd" clip-rule="evenodd" d="M284.789 517.432C288.317 516.822 291 513.756 291 510.065C291 505.935 287.642 502.588 283.5 502.588C279.358 502.588 276 505.935 276 510.065C276 513.756 278.683 516.822 282.211 517.432L283.5 522.588L284.789 517.432Z" fill="black"/>
<path fill-rule="evenodd" clip-rule="evenodd" d="M284.789 515.432C288.317 514.822 291 511.756 291 508.065C291 503.935 287.642 500.588 283.5 500.588C279.358 500.588 276 503.935 276 508.065C276 511.756 278.683 514.822 282.211 515.432L283.5 520.588L284.789 515.432Z" fill="#FF0000"/>
<ellipse cx="283.5" cy="508.065" rx="2.5" ry="2.49231" fill="white"/>
<path d="M0.90918 732.96C0.90918 731.93 1.0459 730.941 1.31934 729.993C1.59733 729.045 2.00977 728.184 2.55664 727.409C3.10352 726.634 3.6709 726.088 4.25879 725.769L4.51855 726.603C3.85319 727.113 3.30632 727.892 2.87793 728.94C2.4541 729.989 2.22168 731.162 2.18066 732.461L2.17383 733.042C2.17383 734.801 2.49512 736.328 3.1377 737.622C3.52507 738.397 3.98535 739.003 4.51855 739.44L4.25879 740.213C3.65267 739.876 3.07389 739.311 2.52246 738.518C1.44694 736.968 0.90918 735.116 0.90918 732.96ZM7.73916 729.594C7.73916 728.152 9.20916 727.214 11.2112 727.214C13.2132 727.214 14.6692 728.152 14.6692 729.594C14.6692 731.036 13.2132 731.974 11.2112 731.974C9.20916 731.974 7.73916 731.036 7.73916 729.594ZM11.7852 735.474V732.856C14.1232 732.688 15.7612 731.442 15.7612 729.594C15.7612 727.592 13.8572 726.304 11.2112 726.304C8.55116 726.304 6.63316 727.592 6.63316 729.594C6.63316 731.442 8.28516 732.688 10.6232 732.856V735.474H5.51316V736.426H16.9232V735.474H11.7852ZM21.2201 727.76H23.3201V733.864C22.6061 733.892 21.9061 733.92 21.2201 733.934V727.76ZM24.4401 727.76H25.8261V726.836H18.7141V727.76H20.1141V733.948C19.5121 733.962 18.9381 733.962 18.4061 733.962L18.5321 734.928C20.8141 734.914 23.8381 734.886 26.5401 734.452L26.4701 733.612C25.8121 733.696 25.1261 733.766 24.4401 733.794V727.76ZM27.5621 725.492V738.036H28.7101V725.492H27.5621ZM42.107 731.792C39.909 731.372 37.529 729.468 37.529 727.326V726.36H36.325V727.326C36.325 729.468 33.959 731.358 31.761 731.792L32.279 732.744C34.169 732.296 36.129 730.952 36.927 729.118C37.725 730.966 39.685 732.31 41.589 732.744L42.107 731.792ZM31.285 735.404V736.356H42.667V735.404H31.285ZM50.4219 735.544V733.178H54.4399V732.254H46.7119V730.224H54.1459V726.402H45.5499V727.34H53.0259V729.3H45.5779V733.178H49.2599V735.544H44.1499V736.482H55.5599V735.544H50.4219ZM66.1708 725.478V738.05H67.3188V725.478H66.1708ZM57.7568 726.542V735.012H63.6648V726.542H62.5308V729.86H58.8908V726.542H57.7568ZM58.8908 730.77H62.5308V734.074H58.8908V730.77ZM74.7523 729.146C74.7523 727.984 75.6483 727.158 76.8943 727.158C78.1543 727.158 79.0643 727.984 79.0643 729.146C79.0643 730.322 78.1543 731.134 76.8943 731.134C75.6483 731.134 74.7523 730.322 74.7523 729.146ZM80.1843 729.146C80.1843 727.41 78.8123 726.206 76.8943 726.206C75.0043 726.206 73.6323 727.41 73.6323 729.146C73.6323 730.896 75.0043 732.086 76.8943 732.086C78.8123 732.086 80.1843 730.896 80.1843 729.146ZM78.0003 734.186H80.6043V736.916H78.0003V734.186ZM81.7383 734.186H83.4743V733.276H75.1443V734.186H76.8663V736.916H75.0323V737.84H83.6283V736.916H81.7383V734.186ZM83.1383 728.544V725.492H81.9903V732.59H83.1383V729.496H85.0003V728.544H83.1383ZM89.4072 733.028C89.4072 734.045 89.2728 735.02 89.0039 735.954C88.7396 736.884 88.3317 737.743 87.7803 738.531C87.2334 739.32 86.6592 739.88 86.0576 740.213L85.791 739.44C86.4928 738.903 87.0557 738.069 87.4795 736.938C87.9079 735.804 88.1266 734.546 88.1357 733.165V732.946C88.1357 731.989 88.0355 731.101 87.835 730.28C87.6344 729.455 87.3542 728.717 86.9941 728.065C86.6387 727.414 86.2376 726.906 85.791 726.541L86.0576 725.769C86.6592 726.101 87.2311 726.657 87.7734 727.437C88.3203 728.216 88.7282 729.075 88.9971 730.014C89.2705 730.952 89.4072 731.957 89.4072 733.028ZM97.1797 732.399H92.8662V735.927H97.877V737H91.5537V727.047H97.8086V728.127H92.8662V731.326H97.1797V732.399ZM105.007 734.402H100.837L99.9004 737H98.5469L102.348 727.047H103.496L107.304 737H105.957L105.007 734.402ZM101.233 733.322H104.617L102.922 728.667L101.233 733.322ZM111.576 732.563C110.451 732.24 109.63 731.843 109.115 731.374C108.605 730.9 108.35 730.317 108.35 729.624C108.35 728.84 108.662 728.193 109.286 727.683C109.915 727.168 110.731 726.91 111.733 726.91C112.417 726.91 113.025 727.042 113.559 727.307C114.096 727.571 114.511 727.936 114.803 728.4C115.099 728.865 115.247 729.373 115.247 729.925H113.928C113.928 729.323 113.736 728.852 113.354 728.51C112.971 728.163 112.431 727.99 111.733 727.99C111.086 727.99 110.58 728.134 110.216 728.421C109.856 728.703 109.676 729.098 109.676 729.604C109.676 730.009 109.847 730.353 110.188 730.636C110.535 730.914 111.12 731.169 111.945 731.401C112.775 731.634 113.422 731.891 113.887 732.174C114.356 732.452 114.702 732.778 114.926 733.151C115.154 733.525 115.268 733.965 115.268 734.471C115.268 735.277 114.953 735.924 114.324 736.412C113.695 736.895 112.854 737.137 111.802 737.137C111.118 737.137 110.48 737.007 109.888 736.747C109.295 736.483 108.837 736.123 108.514 735.667C108.195 735.211 108.035 734.694 108.035 734.115H109.354C109.354 734.717 109.576 735.193 110.018 735.544C110.464 735.89 111.059 736.063 111.802 736.063C112.494 736.063 113.025 735.922 113.395 735.64C113.764 735.357 113.948 734.972 113.948 734.484C113.948 733.997 113.777 733.621 113.436 733.356C113.094 733.088 112.474 732.823 111.576 732.563ZM123.833 728.127H120.634V737H119.328V728.127H116.136V727.047H123.833V728.127ZM130.938 734.214C129.93 734.214 129.3 732.94 129.3 730.882C129.3 728.866 129.93 727.592 130.938 727.592C131.918 727.592 132.562 728.866 132.562 730.882C132.562 732.94 131.918 734.214 130.938 734.214ZM135.18 730.364H133.598C133.458 727.998 132.45 726.528 130.938 726.528C129.3 726.528 128.25 728.208 128.25 730.882C128.25 733.598 129.3 735.278 130.938 735.278C132.478 735.278 133.5 733.766 133.598 731.302H135.18V737.42H136.272V725.758H135.18V730.364ZM137.672 725.478V738.036H138.764V725.478H137.672ZM151.796 731.792C149.598 731.372 147.218 729.468 147.218 727.326V726.36H146.014V727.326C146.014 729.468 143.648 731.358 141.45 731.792L141.968 732.744C143.858 732.296 145.818 730.952 146.616 729.118C147.414 730.966 149.374 732.31 151.278 732.744L151.796 731.792ZM140.974 735.404V736.356H152.356V735.404H140.974ZM163.037 731.974H164.199V725.478H163.037V728.502H160.335V729.426H163.037V731.974ZM154.777 726.094V727.004H159.117C159.075 727.438 158.977 727.844 158.837 728.236L154.175 728.446L154.343 729.356L158.389 729.048C157.633 730.126 156.289 730.98 154.203 731.498L154.623 732.38C158.515 731.358 160.307 729.244 160.307 726.094H154.777ZM157.269 736.958V735.572H164.199V732.548H156.107V733.458H163.065V734.718H156.135V737.868H164.619V736.958H157.269ZM168.258 731.218H171.618V726.864H167.11V727.802H170.512V730.308H167.152V734.956H167.978C169.574 734.956 171.002 734.886 172.752 734.592L172.654 733.654C171.044 733.934 169.686 733.99 168.258 733.99V731.218ZM173.76 729.986H172.206V730.938H173.76V737.378H174.838V725.786H173.76V729.986ZM176.294 725.478V738.036H177.4V725.478H176.294ZM188.739 725.478V738.064H189.887V725.478H188.739ZM183.265 726.444C181.403 726.444 180.073 728.152 180.073 730.826C180.073 733.5 181.403 735.208 183.265 735.208C185.127 735.208 186.457 733.5 186.457 730.826C186.457 728.152 185.127 726.444 183.265 726.444ZM183.265 727.48C184.483 727.48 185.351 728.796 185.351 730.826C185.351 732.87 184.483 734.186 183.265 734.186C182.033 734.186 181.165 732.87 181.165 730.826C181.165 728.796 182.033 727.48 183.265 727.48ZM194.212 731.078H198.328V730.154H194.212V727.564H198.874V726.612H193.064V735.026H194.03C196.424 735.026 197.95 734.956 199.77 734.634L199.644 733.696C197.936 734.004 196.48 734.088 194.212 734.088V731.078ZM201.688 725.464V730.21H199.098V731.162H201.688V738.05H202.836V725.464H201.688ZM214.161 727.676H206.825V730.364H215.519V729.538H207.959V728.46H215.295V725.842H206.797V726.654H214.161V727.676ZM207.889 735.88H215.337V733.206H206.727V734.032H214.203V735.082H206.755V737.868H215.729V737.042H207.889V735.88ZM205.369 731.316V732.184H216.751V731.316H205.369ZM230.849 725.478V738.064H231.997V725.478H230.849ZM225.375 726.444C223.513 726.444 222.183 728.152 222.183 730.826C222.183 733.5 223.513 735.208 225.375 735.208C227.237 735.208 228.567 733.5 228.567 730.826C228.567 728.152 227.237 726.444 225.375 726.444ZM225.375 727.48C226.593 727.48 227.461 728.796 227.461 730.826C227.461 732.87 226.593 734.186 225.375 734.186C224.143 734.186 223.275 732.87 223.275 730.826C223.275 728.796 224.143 727.48 225.375 727.48ZM240.269 737.14C238.295 737.14 237.133 736.65 237.133 735.796C237.133 734.942 238.295 734.452 240.269 734.452C242.229 734.452 243.405 734.942 243.405 735.796C243.405 736.65 242.229 737.14 240.269 737.14ZM240.269 733.556C237.581 733.556 235.971 734.354 235.971 735.796C235.971 737.238 237.581 738.022 240.269 738.022C242.971 738.022 244.567 737.238 244.567 735.796C244.567 734.354 242.971 733.556 240.269 733.556ZM238.533 730.224C239.051 730.308 239.639 730.364 240.269 730.364C240.913 730.364 241.501 730.308 242.019 730.224V731.694H238.533V730.224ZM237.035 728.04C237.035 727.13 238.267 726.598 240.269 726.598C242.271 726.598 243.503 727.13 243.503 728.04C243.503 728.936 242.271 729.482 240.269 729.482C238.267 729.482 237.035 728.936 237.035 728.04ZM243.153 731.694V729.916C244.119 729.524 244.679 728.88 244.679 728.04C244.679 726.57 242.999 725.702 240.269 725.702C237.553 725.702 235.859 726.57 235.859 728.04C235.859 728.894 236.405 729.524 237.399 729.93V731.694H234.585V732.618H245.953V731.694H243.153ZM251.16 734.284C250.026 734.284 249.2 733.472 249.2 732.352C249.2 731.218 250.026 730.406 251.16 730.406C252.308 730.406 253.134 731.218 253.134 732.352C253.134 733.472 252.308 734.284 251.16 734.284ZM251.16 729.454C249.396 729.454 248.122 730.658 248.122 732.352C248.122 734.06 249.396 735.236 251.16 735.236C252.952 735.236 254.226 734.06 254.226 732.352C254.226 730.658 252.952 729.454 251.16 729.454ZM251.72 725.632H250.572V727.494H247.408V728.418H254.814V727.494H251.72V725.632ZM259.21 730.644H257.152V725.492H256.004V738.036H257.152V731.61H259.21V730.644ZM266.699 732.254C266.783 731.82 266.839 731.344 266.839 730.826C266.839 730.252 266.769 729.72 266.657 729.23H269.555V732.254H266.699ZM263.717 734.186C262.513 734.186 261.673 732.87 261.673 730.826C261.673 728.796 262.513 727.48 263.717 727.48C264.907 727.48 265.761 728.796 265.761 730.826C265.761 732.87 264.907 734.186 263.717 734.186ZM269.555 725.478V728.292H266.335C265.803 727.116 264.879 726.444 263.717 726.444C261.883 726.444 260.581 728.152 260.581 730.826C260.581 733.5 261.883 735.208 263.717 735.208C264.921 735.208 265.901 734.466 266.419 733.192H269.555V738.064H270.703V725.478H269.555ZM285.837 725.478V738.064H286.985V725.478H285.837ZM280.363 726.444C278.501 726.444 277.171 728.152 277.171 730.826C277.171 733.5 278.501 735.208 280.363 735.208C282.225 735.208 283.555 733.5 283.555 730.826C283.555 728.152 282.225 726.444 280.363 726.444ZM280.363 727.48C281.581 727.48 282.449 728.796 282.449 730.826C282.449 732.87 281.581 734.186 280.363 734.186C279.131 734.186 278.263 732.87 278.263 730.826C278.263 728.796 279.131 727.48 280.363 727.48ZM295.272 737.14C293.284 737.14 292.122 736.65 292.122 735.768C292.122 734.886 293.284 734.396 295.272 734.396C297.232 734.396 298.394 734.886 298.394 735.768C298.394 736.65 297.232 737.14 295.272 737.14ZM295.272 733.5C292.584 733.5 290.96 734.312 290.96 735.768C290.96 737.224 292.584 738.036 295.272 738.036C297.932 738.036 299.556 737.224 299.556 735.768C299.556 734.312 297.932 733.5 295.272 733.5ZM295.846 731.68V730.224H299.626V729.3H292.164V726.976H299.542V726.052H291.016V730.224H294.698V731.68H289.588V732.604H300.956V731.68H295.846ZM306.149 734.284C305.015 734.284 304.189 733.472 304.189 732.352C304.189 731.218 305.015 730.406 306.149 730.406C307.297 730.406 308.123 731.218 308.123 732.352C308.123 733.472 307.297 734.284 306.149 734.284ZM306.149 729.454C304.385 729.454 303.111 730.658 303.111 732.352C303.111 734.06 304.385 735.236 306.149 735.236C307.941 735.236 309.215 734.06 309.215 732.352C309.215 730.658 307.941 729.454 306.149 729.454ZM306.709 725.632H305.561V727.494H302.397V728.418H309.803V727.494H306.709V725.632ZM314.199 730.644H312.141V725.492H310.993V738.036H312.141V731.61H314.199V730.644ZM4.466 742.668H3.36V745.062C3.36 747.218 2.324 749.472 0.602 750.48L1.316 751.334C2.562 750.564 3.472 749.15 3.92 747.484C4.368 749.01 5.208 750.34 6.398 751.068L7.056 750.172C5.404 749.164 4.466 747.036 4.466 745.02V742.668ZM7.77 745.986H5.698V746.938H7.77V753.42H8.848V741.758H7.77V745.986ZM10.318 741.478V754.036H11.41V741.478H10.318ZM17.5549 748.52C18.0729 748.646 18.6749 748.716 19.2909 748.716C19.9209 748.716 20.5229 748.646 21.0549 748.52V751.474H17.5549V748.52ZM19.2909 743.172C21.3069 743.172 22.7629 744.096 22.7629 745.496C22.7629 746.896 21.3069 747.82 19.2909 747.82C17.2749 747.82 15.8329 746.896 15.8329 745.496C15.8329 744.096 17.2749 743.172 19.2909 743.172ZM22.2029 751.474V748.072C23.2389 747.526 23.8549 746.63 23.8549 745.496C23.8549 743.536 21.9649 742.276 19.2909 742.276C16.6309 742.276 14.7269 743.536 14.7269 745.496C14.7269 746.63 15.3569 747.54 16.4069 748.086V751.474H13.6069V752.426H25.0169V751.474H22.2029ZM26.7422 752.337C26.7422 752.118 26.806 751.936 26.9336 751.79C27.0658 751.644 27.2617 751.571 27.5215 751.571C27.7812 751.571 27.9772 751.644 28.1094 751.79C28.2461 751.936 28.3145 752.118 28.3145 752.337C28.3145 752.547 28.2461 752.722 28.1094 752.863C27.9772 753.005 27.7812 753.075 27.5215 753.075C27.2617 753.075 27.0658 753.005 26.9336 752.863C26.806 752.722 26.7422 752.547 26.7422 752.337Z" fill="black"/>
<rect x="11" y="312" width="5" height="53.1429" fill="url(#paint0_linear)"/>
<path d="M13.5 372L6.13879 359.25L20.8612 359.25L13.5 372Z" fill="#FF0000"/>
<defs>
<linearGradient id="paint0_linear" x1="13.5" y1="312" x2="13.5" y2="365.143" gradientUnits="userSpaceOnUse">
<stop stop-color="#FF0000" stop-opacity="0"/>
<stop offset="0.546875" stop-color="#FF0000"/>
</linearGradient>
</defs>
</svg>
