<svg width="315" height="756" viewBox="0 0 315 756" fill="none" xmlns="http://www.w3.org/2000/svg">
<path d="M186.734 216.352H185.234V217.852V328.119H1.5V151.582H95.2488H96.7488V150.082V100.677H161.319H162.819V99.1775V33.6165H206.616H208.116V32.1165V1.82812H313.5V166.32H186.734H185.234V167.82V188.313V189.813H186.734H214.102V216.352H186.734Z" fill="white" stroke="black" stroke-width="3" stroke-miterlimit="10"/>
<path d="M168.086 124.698L254.188 124.698V88.8535H168.086V124.698Z" fill="#C4C4C4"/>
<path d="M143.45 124.676H164.651V105.078H143.45V124.676Z" fill="black"/>
<path d="M156.496 111.959C156.906 111.959 157.248 111.643 157.248 111.264C157.248 110.884 156.906 110.568 156.496 110.568C156.086 110.568 155.744 110.884 155.744 111.264C155.744 111.643 156.086 111.959 156.496 111.959Z" fill="white"/>
<path d="M156.359 116.447V118.913C156.359 119.355 155.675 119.355 155.675 118.913V116.447H154.718L155.743 113.16H155.538L154.923 114.993C154.786 115.373 154.171 115.246 154.307 114.804L154.991 112.781C155.06 112.528 155.402 112.148 155.949 112.148H156.427H156.974C157.522 112.148 157.864 112.591 157.932 112.781L158.616 114.804C158.753 115.246 158.137 115.436 158 114.993L157.385 113.16H157.18L158.206 116.447H157.248V118.913C157.248 119.355 156.564 119.355 156.564 118.913V116.447H156.359Z" fill="white"/>
<path d="M150.583 112.212C150.036 112.212 149.626 112.591 149.626 113.16V115.31C149.626 115.752 150.31 115.752 150.31 115.31V113.35H150.447V118.85C150.447 119.419 151.336 119.419 151.336 118.85V115.626H151.473V118.85C151.473 119.419 152.362 119.419 152.362 118.85V113.35H152.498V115.31C152.498 115.752 153.182 115.752 153.182 115.31V113.16C153.182 112.718 152.772 112.212 152.225 112.212H150.583Z" fill="white"/>
<path d="M151.404 111.959C151.82 111.959 152.156 111.648 152.156 111.264C152.156 110.88 151.82 110.568 151.404 110.568C150.989 110.568 150.652 110.88 150.652 111.264C150.652 111.648 150.989 111.959 151.404 111.959Z" fill="white"/>
<path d="M7.5406 239.083H28.7412L28.7412 219.485H7.5406L7.5406 239.083Z" fill="black"/>
<path d="M20.6307 226.385C21.041 226.385 21.383 226.069 21.383 225.69C21.383 225.31 21.041 224.994 20.6307 224.994C20.2204 224.994 19.8784 225.31 19.8784 225.69C19.8784 226.069 20.2204 226.385 20.6307 226.385Z" fill="white"/>
<path d="M20.4932 230.811V233.276C20.4932 233.719 19.8093 233.719 19.8093 233.276V230.811H18.8519L19.8777 227.523H19.7409L19.1254 229.357C18.9887 229.736 18.3732 229.609 18.5099 229.167L19.1938 227.144C19.2622 226.891 19.6042 226.512 20.1513 226.512H20.63H21.1771C21.7242 226.512 22.0662 226.954 22.1346 227.144L22.8185 229.167C22.9552 229.609 22.3397 229.799 22.203 229.357L21.5874 227.523H21.3823L22.4081 230.811H21.4507V233.276C21.4507 233.719 20.7668 233.719 20.7668 233.276V230.811H20.4932Z" fill="white"/>
<path d="M14.7861 226.574C14.2389 226.574 13.8286 226.954 13.8286 227.522V229.672C13.8286 230.114 14.5125 230.114 14.5125 229.672V227.712H14.6493V233.212C14.6493 233.781 15.5383 233.781 15.5383 233.212V229.988H15.6751V233.212C15.6751 233.781 16.5642 233.781 16.5642 233.212V227.712H16.701V229.672C16.701 230.114 17.3848 230.114 17.3848 229.672V227.522C17.3848 227.08 16.9745 226.574 16.4274 226.574H14.7861Z" fill="white"/>
<path d="M15.5379 226.385C15.9534 226.385 16.2902 226.074 16.2902 225.69C16.2902 225.305 15.9534 224.994 15.5379 224.994C15.1225 224.994 14.7856 225.305 14.7856 225.69C14.7856 226.074 15.1225 226.385 15.5379 226.385Z" fill="white"/>
<path d="M7.73701 288.087H113.842V252.204H7.73701V288.087Z" fill="#C4C4C4"/>
<path d="M116.265 287.938H130.011V252.093H116.265V287.938Z" fill="#FF0000"/>
<path d="M180.673 220V287.96H169.662L152.702 270.891V246.552L180.673 220Z" fill="#C8A67C"/>
<path d="M127.136 275.885V270.448C127.136 269.879 126.657 269.437 126.042 269.437H120.16C119.545 269.437 119.066 269.879 119.066 270.448V275.885C119.066 276.454 119.545 276.896 120.16 276.896H126.042C126.657 276.833 127.136 276.454 127.136 275.885ZM126.247 276.011H119.955V270.258H126.247V276.011Z" fill="white"/>
<path d="M124.127 265.896C124.127 265.454 124.811 265.454 124.811 265.896V267.667L125.153 267.287C125.426 267.034 125.837 267.414 125.563 267.667L124.674 268.615C124.537 268.741 124.332 268.741 124.195 268.615L123.306 267.667C123.033 267.35 123.512 267.034 123.717 267.287L124.059 267.73L124.127 265.896Z" fill="white"/>
<path d="M121.46 268.427C121.46 268.869 122.144 268.869 122.144 268.427V266.656L122.486 267.036C122.76 267.289 123.17 266.909 122.896 266.656L122.007 265.708C121.87 265.582 121.665 265.582 121.529 265.708L120.639 266.656C120.366 266.972 120.845 267.289 121.05 267.036L121.392 266.593L121.46 268.427Z" fill="white"/>
<path d="M124.948 271.966H123.786C123.649 271.966 123.512 272.092 123.512 272.219V273.546C123.512 273.673 123.581 273.736 123.717 273.736C123.717 273.736 123.786 273.736 123.854 273.736V275.443C123.854 275.759 124.333 275.759 124.333 275.443V273.736H124.401V275.443C124.401 275.759 124.88 275.759 124.88 275.443V273.736C124.948 273.736 125.017 273.736 125.017 273.736C125.153 273.736 125.222 273.673 125.222 273.546V272.219C125.222 272.092 125.085 271.966 124.948 271.966Z" fill="white"/>
<path d="M124.402 271.839C124.59 271.839 124.744 271.698 124.744 271.523C124.744 271.349 124.59 271.207 124.402 271.207C124.213 271.207 124.06 271.349 124.06 271.523C124.06 271.698 124.213 271.839 124.402 271.839Z" fill="white"/>
<path d="M122.486 271.966H121.323C121.187 271.966 121.05 272.092 121.05 272.219V273.546C121.05 273.673 121.118 273.736 121.255 273.736C121.255 273.736 121.323 273.736 121.392 273.736V275.443C121.392 275.759 121.87 275.759 121.87 275.443V273.736H121.939V275.443C121.939 275.759 122.418 275.759 122.418 275.443V273.736C122.486 273.736 122.554 273.736 122.554 273.736C122.691 273.736 122.76 273.673 122.76 273.546V272.219C122.76 272.092 122.623 271.966 122.486 271.966Z" fill="white"/>
<path d="M121.939 271.839C122.128 271.839 122.281 271.698 122.281 271.523C122.281 271.349 122.128 271.207 121.939 271.207C121.75 271.207 121.597 271.349 121.597 271.523C121.597 271.698 121.75 271.839 121.939 271.839Z" fill="white"/>
<path d="M189.434 213.044H210.634V192.751H189.434V213.044Z" fill="black"/>
<path d="M204.073 207.545V202.108C204.073 201.539 203.594 201.097 202.979 201.097H197.097C196.482 201.097 196.003 201.539 196.003 202.108V207.545C196.003 208.114 196.482 208.556 197.097 208.556H202.979C203.594 208.556 204.073 208.114 204.073 207.545ZM203.184 207.735H196.892V201.982H203.184V207.735Z" fill="white"/>
<path d="M200.996 197.557C200.996 197.114 201.68 197.114 201.68 197.557V199.327L202.022 198.947C202.295 198.694 202.706 199.074 202.432 199.327L201.543 200.275C201.406 200.401 201.201 200.401 201.064 200.275L200.175 199.327C199.902 199.011 200.38 198.694 200.585 198.947L200.927 199.39L200.996 197.557Z" fill="white"/>
<path d="M198.397 200.088C198.397 200.53 199.081 200.53 199.081 200.088V198.318L199.423 198.697C199.696 198.95 200.106 198.57 199.833 198.318L198.944 197.369C198.807 197.243 198.602 197.243 198.465 197.369L197.576 198.318C197.302 198.634 197.781 198.95 197.986 198.697L198.328 198.254L198.397 200.088Z" fill="white"/>
<path d="M201.884 203.688H200.722C200.585 203.688 200.448 203.815 200.448 203.941V205.269C200.448 205.395 200.517 205.459 200.653 205.459C200.653 205.459 200.722 205.459 200.79 205.459V207.165C200.79 207.482 201.269 207.482 201.269 207.165V205.459H201.337V207.165C201.337 207.482 201.816 207.482 201.816 207.165V205.459C201.884 205.459 201.953 205.459 201.953 205.459C202.09 205.459 202.158 205.395 202.158 205.269V203.941C202.158 203.752 202.021 203.688 201.884 203.688Z" fill="white"/>
<path d="M201.269 203.498C201.458 203.498 201.611 203.357 201.611 203.182C201.611 203.008 201.458 202.866 201.269 202.866C201.08 202.866 200.927 203.008 200.927 203.182C200.927 203.357 201.08 203.498 201.269 203.498Z" fill="white"/>
<path d="M199.354 203.688H198.192C198.055 203.688 197.918 203.815 197.918 203.941V205.269C197.918 205.395 197.986 205.459 198.123 205.459C198.123 205.459 198.192 205.459 198.26 205.459V207.165C198.26 207.482 198.739 207.482 198.739 207.165V205.459H198.807V207.165C198.807 207.482 199.286 207.482 199.286 207.165V205.459C199.354 205.459 199.423 205.459 199.423 205.459C199.559 205.459 199.628 205.395 199.628 205.269V203.941C199.628 203.752 199.559 203.688 199.354 203.688Z" fill="white"/>
<path d="M198.807 203.498C198.996 203.498 199.149 203.357 199.149 203.182C199.149 203.008 198.996 202.866 198.807 202.866C198.618 202.866 198.465 203.008 198.465 203.182C198.465 203.357 198.618 203.498 198.807 203.498Z" fill="white"/>
<path d="M66.994 239.08H98.7266V218.724H66.994V239.08Z" fill="black"/>
<path d="M39.4602 216.207V239.092H64.6274V216.207H98.7535V155.644H7.62402V216.207H39.4602Z" fill="#C4C4C4"/>
<path d="M86.9224 233.592V228.155C86.9224 227.586 86.4437 227.144 85.8282 227.144H80.0151C79.3996 227.144 78.9209 227.586 78.9209 228.155V233.592C78.9209 234.161 79.3996 234.603 80.0151 234.603H85.8966C86.4437 234.54 86.9224 234.161 86.9224 233.592ZM86.0334 233.718H79.7416V227.965H86.0334V233.718Z" fill="white"/>
<path d="M83.9133 223.603C83.9133 223.161 84.5972 223.161 84.5972 223.603V225.373L84.9391 224.994C85.2127 224.741 85.623 225.121 85.3494 225.373L84.4604 226.322C84.3236 226.448 84.1184 226.448 83.9816 226.322L83.0926 225.373C82.819 225.057 83.2977 224.741 83.5029 224.994L83.8449 225.437L83.9133 223.603Z" fill="white"/>
<path d="M81.2463 226.134C81.2463 226.576 81.9302 226.576 81.9302 226.134V224.363L82.2721 224.743C82.5457 224.996 82.956 224.616 82.6824 224.363L81.7934 223.415C81.6566 223.289 81.4514 223.289 81.3146 223.415L80.4256 224.363C80.152 224.68 80.6308 224.996 80.8359 224.743L81.1779 224.3L81.2463 226.134Z" fill="white"/>
<path d="M84.7345 229.673H83.5719C83.4351 229.673 83.2983 229.799 83.2983 229.926V231.253C83.2983 231.38 83.3667 231.443 83.5035 231.443C83.5035 231.443 83.5719 231.443 83.6403 231.443V233.15C83.6403 233.466 84.119 233.466 84.119 233.15V231.443H84.1874V233.15C84.1874 233.466 84.6661 233.466 84.6661 233.15V231.443C84.7345 231.443 84.8029 231.443 84.8029 231.443C84.9397 231.443 85.0081 231.38 85.0081 231.253V229.926C85.0081 229.799 84.8713 229.673 84.7345 229.673Z" fill="white"/>
<path d="M84.1876 229.546C84.3765 229.546 84.5296 229.405 84.5296 229.23C84.5296 229.056 84.3765 228.914 84.1876 228.914C83.9988 228.914 83.8457 229.056 83.8457 229.23C83.8457 229.405 83.9988 229.546 84.1876 229.546Z" fill="white"/>
<path d="M82.2721 229.673H81.1095C80.9727 229.673 80.8359 229.799 80.8359 229.926V231.253C80.8359 231.38 80.9043 231.443 81.0411 231.443C81.0411 231.443 81.1095 231.443 81.1779 231.443V233.15C81.1779 233.466 81.6566 233.466 81.6566 233.15V231.443H81.725V233.15C81.725 233.466 82.2037 233.466 82.2037 233.15V231.443C82.2721 231.443 82.3405 231.443 82.3405 231.443C82.4773 231.443 82.5457 231.38 82.5457 231.253V229.926C82.5457 229.799 82.4089 229.673 82.2721 229.673Z" fill="white"/>
<path d="M81.7252 229.546C81.9141 229.546 82.0672 229.405 82.0672 229.23C82.0672 229.056 81.9141 228.914 81.7252 228.914C81.5364 228.914 81.3833 229.056 81.3833 229.23C81.3833 229.405 81.5364 229.546 81.7252 229.546Z" fill="white"/>
<path d="M168.071 77.4131H206.438V38.4706L168.071 38.4706V77.4131Z" fill="#C4C4C4"/>
<path d="M256.225 124.698H269.971V88.8535H256.225V124.698Z" fill="black"/>
<path d="M267.128 112.592V107.155C267.128 106.586 266.649 106.144 266.033 106.144H260.152C259.536 106.144 259.058 106.586 259.058 107.155V112.592C259.058 113.161 259.536 113.603 260.152 113.603H266.033C266.649 113.603 267.128 113.161 267.128 112.592ZM266.239 112.782H259.947V107.029H266.239V112.782Z" fill="white"/>
<path d="M264.119 102.603C264.119 102.161 264.803 102.161 264.803 102.603V104.374L265.145 103.994C265.418 103.741 265.829 104.121 265.555 104.374L264.666 105.322C264.529 105.448 264.324 105.448 264.187 105.322L263.298 104.374C263.025 104.057 263.503 103.741 263.708 103.994L264.05 104.437L264.119 102.603Z" fill="white"/>
<path d="M261.452 105.134C261.452 105.576 262.136 105.576 262.136 105.134V103.363L262.478 103.743C262.751 103.996 263.162 103.616 262.888 103.363L261.999 102.415C261.862 102.289 261.657 102.289 261.52 102.415L260.631 103.363C260.358 103.68 260.836 103.996 261.042 103.743L261.383 103.3L261.452 105.134Z" fill="white"/>
<path d="M264.94 108.735H263.777C263.641 108.735 263.504 108.862 263.504 108.988V110.316C263.504 110.442 263.572 110.505 263.709 110.505C263.709 110.505 263.777 110.505 263.846 110.505V112.212C263.846 112.528 264.325 112.528 264.325 112.212V110.505H264.393V112.212C264.393 112.528 264.872 112.528 264.872 112.212V110.505C264.94 110.505 265.009 110.505 265.009 110.505C265.145 110.505 265.214 110.442 265.214 110.316V108.988C265.214 108.799 265.077 108.735 264.94 108.735Z" fill="white"/>
<path d="M264.393 108.545C264.582 108.545 264.735 108.404 264.735 108.229C264.735 108.055 264.582 107.913 264.393 107.913C264.204 107.913 264.051 108.055 264.051 108.229C264.051 108.404 264.204 108.545 264.393 108.545Z" fill="white"/>
<path d="M262.478 108.735H261.315C261.178 108.735 261.042 108.862 261.042 108.988V110.316C261.042 110.442 261.11 110.505 261.247 110.505C261.247 110.505 261.315 110.505 261.383 110.505V112.212C261.383 112.528 261.862 112.528 261.862 112.212V110.505H261.931V112.212C261.931 112.528 262.409 112.528 262.409 112.212V110.505C262.478 110.505 262.546 110.505 262.546 110.505C262.683 110.505 262.751 110.442 262.751 110.316V108.988C262.751 108.799 262.614 108.735 262.478 108.735Z" fill="white"/>
<path d="M261.862 108.545C262.051 108.545 262.204 108.404 262.204 108.229C262.204 108.055 262.051 107.913 261.862 107.913C261.673 107.913 261.52 108.055 261.52 108.229C261.52 108.404 261.673 108.545 261.862 108.545Z" fill="white"/>
<path d="M232.654 145.19H269.994V132.041H232.654V145.19Z" fill="black"/>
<path d="M254.21 161.984H308.368V126.102H278.506V147.75H254.21V161.984Z" fill="#C4C4C4"/>
<path d="M278.527 125.076H308.369V64.5883H278.527V125.076Z" fill="#DAC452"/>
<path d="M265.263 54.3369L308.369 54.3369V6.15161L265.263 6.15161V54.3369Z" fill="#DAC452"/>
<path d="M213.316 54.3369L259.737 54.3369V6.15161L213.316 6.15161V54.3369Z" fill="#DAC452"/>
<path d="M250.509 136.046C250.919 136.046 251.261 135.73 251.261 135.351C251.261 134.971 250.919 134.655 250.509 134.655C250.099 134.655 249.757 134.971 249.757 135.351C249.757 135.73 250.099 136.046 250.509 136.046Z" fill="white"/>
<path d="M255.502 135.414H253.792C253.45 135.414 252.971 135.541 252.698 135.793L251.125 137.247V136.805C251.125 135.92 249.689 135.92 249.689 136.805V138.512L248.321 139.776C248.184 139.903 248.184 139.903 247.911 139.903H247.09C246.269 139.903 245.722 140.598 245.722 141.167C245.722 141.736 246.201 142.495 247.158 142.495C247.158 142.495 248.321 142.495 248.663 142.495C249.005 142.495 249.415 142.368 249.757 142.052L254.134 138.069C254.202 138.006 254.271 137.943 254.408 137.943C254.408 137.943 255.023 137.943 255.502 137.943C256.049 137.943 256.733 137.374 256.733 136.615C256.801 135.92 256.117 135.414 255.502 135.414ZM255.433 137.374H254.544C254.134 137.374 253.997 137.437 253.792 137.627L249.415 141.673C249.21 141.862 249.005 141.926 248.731 141.926H247.295C246.953 141.926 246.611 141.609 246.611 141.23C246.611 140.851 246.953 140.661 247.227 140.661H248.184C248.458 140.661 248.663 140.598 248.8 140.408L253.245 136.299C253.45 136.109 253.587 136.109 253.929 136.109H255.433C255.775 136.109 256.049 136.489 256.049 136.742C256.049 136.995 255.912 137.374 255.433 137.374Z" fill="white"/>
<path d="M116.242 324.729H153.582V311.58H116.242V324.729Z" fill="black"/>
<path d="M134.111 315.572C134.522 315.572 134.864 315.256 134.864 314.877C134.864 314.498 134.522 314.182 134.111 314.182C133.701 314.182 133.359 314.498 133.359 314.877C133.359 315.256 133.701 315.572 134.111 315.572Z" fill="white"/>
<path d="M139.103 314.94H137.462C137.12 314.94 136.641 315.067 136.368 315.32L134.795 316.774V316.331C134.795 315.446 133.359 315.446 133.359 316.331V318.038L131.991 319.303C131.854 319.429 131.854 319.429 131.581 319.429H130.76C129.939 319.429 129.392 320.124 129.392 320.693C129.392 321.262 129.871 322.021 130.828 322.021C130.828 322.021 131.991 322.021 132.333 322.021C132.675 322.021 133.085 321.895 133.427 321.578L137.804 317.596C137.872 317.532 137.941 317.469 138.078 317.469C138.078 317.469 138.693 317.469 139.172 317.469C139.719 317.469 140.403 316.9 140.403 316.142C140.403 315.446 139.65 314.94 139.103 314.94ZM139.035 316.9H138.146C137.736 316.9 137.599 316.963 137.394 317.153L133.017 321.199C132.812 321.389 132.606 321.452 132.333 321.452H130.897C130.555 321.452 130.213 321.136 130.213 320.757C130.213 320.377 130.555 320.188 130.828 320.188H131.786C132.059 320.188 132.264 320.124 132.401 319.935L136.847 315.826C137.052 315.636 137.188 315.636 137.53 315.636H139.035C139.377 315.636 139.65 316.015 139.65 316.268C139.65 316.521 139.514 316.9 139.035 316.9Z" fill="white"/>
<path d="M189.592 184.408H226.933V171.259H189.592V184.408Z" fill="black"/>
<path d="M207.424 175.241C207.834 175.241 208.176 174.925 208.176 174.546C208.176 174.167 207.834 173.851 207.424 173.851C207.013 173.851 206.671 174.167 206.671 174.546C206.671 174.925 207.013 175.241 207.424 175.241Z" fill="white"/>
<path d="M212.485 174.609H210.775C210.433 174.609 209.954 174.736 209.681 174.989L208.108 176.443V176C208.108 175.115 206.672 175.115 206.672 176V177.707L205.304 178.971C205.167 179.098 205.167 179.098 204.894 179.098H204.073C203.252 179.098 202.705 179.793 202.705 180.362C202.705 180.931 203.184 181.69 204.141 181.69C204.141 181.69 205.304 181.69 205.646 181.69C205.988 181.69 206.398 181.563 206.74 181.247L211.117 177.265C211.185 177.201 211.254 177.138 211.39 177.138C211.39 177.138 212.006 177.138 212.485 177.138C213.032 177.138 213.716 176.569 213.716 175.811C213.716 175.115 213.032 174.609 212.485 174.609ZM212.348 176.569H211.459C211.049 176.569 210.912 176.632 210.707 176.822L206.33 180.868C206.125 181.058 205.919 181.121 205.646 181.121H204.21C203.868 181.121 203.526 180.805 203.526 180.426C203.526 180.046 203.868 179.857 204.141 179.857H205.099C205.372 179.857 205.577 179.793 205.714 179.604L210.159 175.494C210.365 175.305 210.501 175.305 210.843 175.305H212.348C212.69 175.305 212.963 175.684 212.963 175.937C212.963 176.19 212.827 176.569 212.348 176.569Z" fill="white"/>
<path d="M232.654 77.3271H269.994V64.1777H232.654V77.3271Z" fill="black"/>
<path d="M250.509 68.2121C250.919 68.2121 251.261 67.896 251.261 67.5167C251.261 67.1374 250.919 66.8213 250.509 66.8213C250.099 66.8213 249.757 67.1374 249.757 67.5167C249.757 67.896 250.099 68.2121 250.509 68.2121Z" fill="white"/>
<path d="M255.502 67.5801H253.792C253.45 67.5801 252.971 67.7065 252.698 67.9594L251.125 69.4134V68.9709C251.125 68.0858 249.689 68.0858 249.689 68.9709V70.6778L248.321 71.9421C248.184 72.0686 248.184 72.0686 247.911 72.0686H247.09C246.269 72.0686 245.722 72.764 245.722 73.3329C245.722 73.9019 246.201 74.6605 247.158 74.6605C247.158 74.6605 248.321 74.6605 248.663 74.6605C249.005 74.6605 249.415 74.5341 249.757 74.218L254.134 70.2352C254.202 70.172 254.271 70.1088 254.408 70.1088C254.408 70.1088 255.023 70.1088 255.502 70.1088C256.049 70.1088 256.733 69.5398 256.733 68.7812C256.801 68.0858 256.117 67.5801 255.502 67.5801ZM255.433 69.4766H254.544C254.134 69.4766 253.997 69.5398 253.792 69.7295L249.415 73.7755C249.21 73.9651 249.005 74.0283 248.731 74.0283H247.295C246.953 74.0283 246.611 73.7122 246.611 73.3329C246.611 72.9536 246.953 72.764 247.227 72.764H248.184C248.458 72.764 248.663 72.7007 248.8 72.5111L253.245 68.4019C253.45 68.2123 253.587 68.2123 253.929 68.2123H255.433C255.775 68.2123 256.049 68.5916 256.049 68.8444C256.049 69.0973 255.912 69.4766 255.433 69.4766Z" fill="white"/>
<path d="M101.739 173.007H149.542V155.622H101.739V173.007Z" fill="#C8A67C"/>
<path d="M102 220H150V204H102V220Z" fill="#C8A67C"/>
<path d="M120.163 200.94H149.57V190.257H120.163V200.94Z" fill="#C8A67C"/>
<path d="M101.832 218.736H149.567V220.823L130.008 239.093H101.832V218.736Z" fill="#C8A67C"/>
<path d="M101.832 147.741L129.187 129.281L149.567 137.5V153.115H101.832V147.741Z" fill="#C8A67C"/>
<path d="M117.287 200.971V187.696H149.567V175.558H101.832V200.971H117.287Z" fill="#C8A67C"/>
<path d="M171.411 10H176.326V8.73224H172.949V6.99574H176.06V5.72798H172.949V3.99503H176.312V2.72727H171.411V10ZM178.788 10L179.328 8.34162H181.952L182.492 10H184.14L181.633 2.72727H179.651L177.14 10H178.788ZM179.718 7.14134L180.613 4.3892H180.67L181.565 7.14134H179.718ZM188.794 4.81889H190.268C190.247 3.52273 189.181 2.62784 187.562 2.62784C185.968 2.62784 184.799 3.50852 184.806 4.82955C184.803 5.90199 185.559 6.51634 186.788 6.81108L187.58 7.00994C188.372 7.2017 188.812 7.42898 188.816 7.91903C188.812 8.4517 188.308 8.81392 187.527 8.81392C186.727 8.81392 186.152 8.4446 186.102 7.71662H184.615C184.654 9.28977 185.779 10.103 187.544 10.103C189.32 10.103 190.364 9.25426 190.367 7.92259C190.364 6.71165 189.451 6.06889 188.187 5.7848L187.534 5.62855C186.902 5.48295 186.372 5.24858 186.383 4.72656C186.383 4.25781 186.799 3.91335 187.551 3.91335C188.286 3.91335 188.737 4.24716 188.794 4.81889ZM191.125 3.99503H193.351V10H194.871V3.99503H197.098V2.72727H191.125V3.99503ZM160.851 15.995H163.078V22H164.598V15.995H166.824V14.7273H160.851V15.995ZM174.169 18.3636C174.169 15.9844 172.692 14.6278 170.763 14.6278C168.824 14.6278 167.358 15.9844 167.358 18.3636C167.358 20.7322 168.824 22.0994 170.763 22.0994C172.692 22.0994 174.169 20.7429 174.169 18.3636ZM172.61 18.3636C172.61 19.9048 171.878 20.7393 170.763 20.7393C169.645 20.7393 168.917 19.9048 168.917 18.3636C168.917 16.8224 169.645 15.9879 170.763 15.9879C171.878 15.9879 172.61 16.8224 172.61 18.3636ZM176.672 22H178.17L179.552 17.245H179.608L180.993 22H182.492L184.573 14.7273H182.893L181.689 19.7912H181.625L180.301 14.7273H178.863L177.534 19.7805H177.474L176.27 14.7273H174.591L176.672 22ZM185.396 22H190.311V20.7322H186.933V18.9957H190.044V17.728H186.933V15.995H190.296V14.7273H185.396V22ZM191.519 22H193.057V19.4219H194.179L195.557 22H197.254L195.709 19.1733C196.537 18.8182 196.995 18.0973 196.995 17.103C196.995 15.6577 196.039 14.7273 194.388 14.7273H191.519V22ZM193.057 18.1861V15.9844H194.093C194.981 15.9844 195.411 16.3786 195.411 17.103C195.411 17.8239 194.981 18.1861 194.101 18.1861H193.057Z" fill="black"/>
<path d="M195.36 314.945H196.858L198.239 310.19H198.296L199.681 314.945H201.18L203.261 307.673H201.581L200.377 312.737H200.313L198.989 307.673H197.551L196.222 312.726H196.162L194.958 307.673H193.279L195.36 314.945ZM204.084 314.945H208.999V313.678H205.621V311.941H208.732V310.673H205.621V308.94H208.984V307.673H204.084V314.945ZM214.152 309.764H215.626C215.605 308.468 214.539 307.573 212.92 307.573C211.325 307.573 210.157 308.454 210.164 309.775C210.161 310.847 210.917 311.462 212.146 311.756L212.938 311.955C213.73 312.147 214.17 312.374 214.173 312.864C214.17 313.397 213.666 313.759 212.884 313.759C212.085 313.759 211.51 313.39 211.46 312.662H209.972C210.011 314.235 211.137 315.048 212.902 315.048C214.678 315.048 215.722 314.2 215.725 312.868C215.722 311.657 214.809 311.014 213.545 310.73L212.891 310.574C212.259 310.428 211.73 310.194 211.741 309.672C211.741 309.203 212.156 308.859 212.909 308.859C213.644 308.859 214.095 309.192 214.152 309.764ZM216.483 308.94H218.709V314.945H220.229V308.94H222.456V307.673H216.483V308.94ZM193.445 320.94H195.672V326.945H197.192V320.94H199.418V319.673H193.445V320.94ZM206.763 323.309C206.763 320.93 205.286 319.573 203.358 319.573C201.419 319.573 199.952 320.93 199.952 323.309C199.952 325.678 201.419 327.045 203.358 327.045C205.286 327.045 206.763 325.688 206.763 323.309ZM205.204 323.309C205.204 324.85 204.473 325.685 203.358 325.685C202.239 325.685 201.511 324.85 201.511 323.309C201.511 321.768 202.239 320.933 203.358 320.933C204.473 320.933 205.204 321.768 205.204 323.309ZM209.266 326.945H210.764L212.146 322.19H212.203L213.587 326.945H215.086L217.167 319.673H215.487L214.284 324.737H214.22L212.895 319.673H211.457L210.129 324.726H210.068L208.864 319.673H207.185L209.266 326.945ZM217.99 326.945H222.905V325.678H219.528V323.941H222.638V322.673H219.528V320.94H222.891V319.673H217.99V326.945ZM224.113 326.945H225.651V324.367H226.773L228.151 326.945H229.848L228.303 324.119C229.131 323.763 229.589 323.043 229.589 322.048C229.589 320.603 228.634 319.673 226.982 319.673H224.113V326.945ZM225.651 323.131V320.93H226.688C227.575 320.93 228.005 321.324 228.005 322.048C228.005 322.769 227.575 323.131 226.695 323.131H225.651Z" fill="black"/>
<path d="M16.5156 11H10.1563L2.23438 16.0156V22.0156L9.5625 17.4219H9.75V43H16.5156V11ZM24.3086 43H31.0742V29.7812H44.0898V24.2031H31.0742V16.5781H45.4961V11H24.3086V43Z" fill="black"/>
<path d="M278.52 32.7035C279.633 32.7035 280.123 31.9055 280.123 30.9325V27.4255H279.087V30.8485C279.087 31.5625 278.849 31.8075 278.394 31.8075C278.1 31.8075 277.827 31.6465 277.624 31.2685L276.91 31.7935C277.26 32.3955 277.764 32.7035 278.52 32.7035ZM282.918 32.7035C284.115 32.7035 284.822 31.9825 284.822 31.1355C284.822 30.3865 284.409 29.9875 283.779 29.7285L283.1 29.4415C282.659 29.2665 282.288 29.1335 282.288 28.7625C282.288 28.4195 282.582 28.2165 283.037 28.2165C283.464 28.2165 283.807 28.3705 284.136 28.6435L284.661 27.9925C284.241 27.5655 283.639 27.3275 283.037 27.3275C281.987 27.3275 281.245 27.9785 281.245 28.8255C281.245 29.5815 281.77 30.0015 282.295 30.2185L282.988 30.5125C283.45 30.7085 283.765 30.8275 283.765 31.2125C283.765 31.5765 283.478 31.8075 282.939 31.8075C282.484 31.8075 281.994 31.5765 281.623 31.2335L281.028 31.9475C281.532 32.4305 282.225 32.7035 282.918 32.7035ZM285.697 27.4185V28.1675H287.804C287.636 29.5955 286.838 30.6175 285.34 31.3875L285.858 32.0945C288 31.0095 288.735 29.3505 288.735 27.4185H285.697ZM291.353 29.2175H290.45V26.7535H289.526V33.1935H290.45V29.9805H291.353V29.2175ZM297.037 28.6855H293.474V27.7265H296.988V26.9915H292.557V29.4205H297.037V28.6855ZM293.46 31.1635H292.536V33.0955H297.086V32.3605H293.46V31.1635ZM291.85 29.9455V30.6805H297.681V29.9455H291.85Z" fill="black"/>
<path d="M289.056 94.2377H286.782V93.6677H289.056V94.2377ZM289.836 92.4197H289.056V93.0497H286.782V92.4197H285.996V94.8677H289.836V92.4197ZM290.43 95.3897H285.426V96.0197H287.514V97.7417H288.306V96.0197H290.43V95.3897ZM294.57 93.4397H291.528V95.1137H295.506V94.4897H292.338V94.0337H295.374V92.3837H291.522V93.0077H294.57V93.4397ZM295.95 95.5157H290.946V96.1517H293.04V97.7477H293.832V96.1517H295.95V95.5157ZM297.017 96.5057H300.083V97.7537H300.875V95.8817H297.017V96.5057ZM299.357 94.8797V94.3997H300.917V93.7757H297.863V93.0557H300.869V92.4317H297.077V94.3997H298.565V94.8797H296.471V95.5097H301.463V94.8797H299.357Z" fill="black"/>
<path d="M228.715 31.0515C228.365 31.0515 228.113 30.7715 228.113 30.2885C228.113 29.8055 228.365 29.5185 228.715 29.5185C229.065 29.5185 229.317 29.8055 229.317 30.2885C229.317 30.7715 229.065 31.0515 228.715 31.0515ZM228.715 28.7485C227.889 28.7485 227.301 29.3855 227.301 30.2885C227.301 31.1845 227.889 31.8215 228.715 31.8215C229.541 31.8215 230.129 31.1845 230.129 30.2885C230.129 29.3855 229.541 28.7485 228.715 28.7485ZM229.17 26.9355H228.26V27.7335H227.161V28.4685H230.241V27.7335H229.17V26.9355ZM231.823 26.7535V29.3855H231.333V26.8795H230.472V32.9345H231.333V30.1275H231.823V33.2005H232.698V26.7535H231.823ZM236.513 27.7125C237.353 27.7125 237.892 27.9645 237.892 28.4265C237.892 28.8955 237.353 29.1475 236.513 29.1475C235.666 29.1475 235.127 28.8955 235.127 28.4265C235.127 27.9645 235.666 27.7125 236.513 27.7125ZM236.513 29.8825C237.885 29.8825 238.844 29.3155 238.844 28.4265C238.844 27.5515 237.885 26.9775 236.513 26.9775C235.134 26.9775 234.182 27.5515 234.182 28.4265C234.182 29.3155 235.134 29.8825 236.513 29.8825ZM239.446 30.3655H233.608V31.1075H236.044V33.2145H236.968V31.1075H239.446V30.3655ZM241.335 29.7985H243.428V27.3065H240.383V28.0415H242.483V29.0705H240.39V31.7235H240.971C242.14 31.7235 243.085 31.6815 244.135 31.4995L244.037 30.7505C243.127 30.9045 242.315 30.9535 241.335 30.9605V29.7985ZM244.485 26.7535V33.2215H245.409V26.7535H244.485Z" fill="black"/>
<path d="M120.602 145.049C119.354 144.833 118.67 143.975 118.67 143.165V142.769H117.824V143.165C117.824 143.957 117.134 144.833 115.892 145.049L116.228 145.709C117.188 145.523 117.89 144.983 118.244 144.281C118.598 144.983 119.306 145.517 120.266 145.709L120.602 145.049ZM115.772 146.657V147.299H120.776V146.657H115.772ZM125.881 142.445H125.083V145.319H125.881V142.445ZM124.633 144.449C123.931 144.545 123.319 144.563 122.377 144.563V144.209H124.087V143.621H122.377V143.279H124.249V142.667H121.591V145.181H122.065C123.217 145.181 123.907 145.175 124.699 145.067L124.633 144.449ZM122.989 147.335V146.993H125.881V145.535H122.197V146.129H125.095V146.441H122.203V147.929H126.019V147.335H122.989ZM130.387 144.101H128.233V143.669H130.387V144.101ZM131.173 142.589H130.387V143.075H128.233V142.589H127.447V144.719H131.173V142.589ZM131.809 145.703V145.073H126.811V145.703H128.905V146.171H127.363V146.795H130.411V147.977H131.203V146.171H129.697V145.703H131.809ZM137.16 145.049C135.912 144.833 135.228 143.975 135.228 143.165V142.769H134.382V143.165C134.382 143.957 133.692 144.833 132.45 145.049L132.786 145.709C133.746 145.523 134.448 144.983 134.802 144.281C135.156 144.983 135.864 145.517 136.824 145.709L137.16 145.049ZM132.33 146.657V147.299H137.334V146.657H132.33Z" fill="black"/>
<path d="M115.884 163.73C115.884 163.166 116.406 162.836 117.162 162.836C117.924 162.836 118.446 163.166 118.446 163.73C118.446 164.294 117.924 164.624 117.162 164.624C116.406 164.624 115.884 164.294 115.884 163.73ZM117.558 166.166V165.23C118.536 165.116 119.226 164.552 119.226 163.73C119.226 162.806 118.344 162.206 117.162 162.206C115.986 162.206 115.104 162.806 115.104 163.73C115.104 164.552 115.794 165.11 116.766 165.23V166.166H114.666V166.808H119.67V166.166H117.558ZM123.846 163.52H120.762V165.386H124.752V164.756H121.548V164.138H124.626V162.296H120.756V162.926H123.846V163.52ZM120.186 166.178V166.826H125.19V166.178H120.186ZM126.923 163.73C126.923 163.166 127.445 162.836 128.201 162.836C128.963 162.836 129.485 163.166 129.485 163.73C129.485 164.294 128.963 164.624 128.201 164.624C127.445 164.624 126.923 164.294 126.923 163.73ZM128.597 166.166V165.23C129.575 165.116 130.265 164.552 130.265 163.73C130.265 162.806 129.383 162.206 128.201 162.206C127.025 162.206 126.143 162.806 126.143 163.73C126.143 164.552 126.833 165.11 127.805 165.23V166.166H125.705V166.808H130.709V166.166H128.597ZM134.885 163.52H131.801V165.386H135.791V164.756H132.587V164.138H135.665V162.296H131.795V162.926H134.885V163.52ZM131.225 166.178V166.826H136.229V166.178H131.225Z" fill="black"/>
<path d="M122.231 180.181H121.319V179.491H120.539V180.181H119.627V180.817H122.231V180.181ZM120.917 183.037C120.635 183.037 120.425 182.797 120.425 182.377C120.425 181.963 120.635 181.723 120.917 181.723C121.205 181.723 121.409 181.963 121.409 182.377C121.409 182.797 121.205 183.037 120.917 183.037ZM120.917 181.063C120.233 181.063 119.741 181.609 119.741 182.377C119.741 183.151 120.233 183.691 120.917 183.691C121.601 183.691 122.093 183.151 122.093 182.377C122.093 181.609 121.601 181.063 120.917 181.063ZM122.555 181.387H122.099V182.041H122.555V184.633H123.287V179.449H122.555V181.387ZM123.623 179.353V184.879H124.373V179.353H123.623ZM126.635 182.965C126.221 182.965 125.945 182.527 125.945 181.705C125.945 180.889 126.221 180.451 126.635 180.451C127.043 180.451 127.325 180.889 127.325 181.705C127.325 182.527 127.043 182.965 126.635 182.965ZM126.635 179.737C125.795 179.737 125.183 180.493 125.183 181.705C125.183 182.923 125.795 183.685 126.635 183.685C127.469 183.685 128.087 182.923 128.087 181.705C128.087 180.493 127.469 179.737 126.635 179.737ZM130.283 181.435H129.479V179.353H128.687V184.879H129.479V182.089H130.283V181.435Z" fill="black"/>
<path d="M117.315 221.582H116.265V220.802H117.315V221.582ZM118.089 221.096H119.073V223.07H119.865V218.996H119.073V220.46H118.089V219.362H117.315V220.196H116.265V219.356H115.479V222.212H118.089V221.096ZM117.009 223.79V222.674H116.217V224.42H119.985V223.79H117.009ZM120.975 219.674V220.304H122.373C122.271 221.39 121.803 222.188 120.693 222.836L121.155 223.388C122.697 222.488 123.153 221.222 123.153 219.674H120.975ZM124.743 218.99V221.072H124.251V219.134H123.513V224.282H124.251V221.708H124.743V224.516H125.499V218.99H124.743ZM129.578 221.498C128.708 221.24 128.33 220.622 128.318 219.992H129.398V219.356H126.41V219.992H127.508C127.496 220.682 127.1 221.384 126.206 221.684L126.602 222.302C127.25 222.092 127.688 221.654 127.934 221.108C128.174 221.564 128.594 221.93 129.2 222.11L129.578 221.498ZM128.828 223.91C128.12 223.91 127.742 223.76 127.742 223.448C127.742 223.13 128.12 222.98 128.828 222.98C129.53 222.98 129.908 223.13 129.908 223.448C129.908 223.76 129.53 223.91 128.828 223.91ZM128.828 222.368C127.676 222.368 126.956 222.77 126.956 223.448C126.956 224.12 127.676 224.516 128.828 224.516C129.974 224.516 130.694 224.12 130.694 223.448C130.694 222.77 129.974 222.368 128.828 222.368ZM130.634 220.262V218.99H129.842V222.272H130.634V220.91H131.366V220.262H130.634ZM132.842 221.606H134.426V220.988H132.842V220.088H134.612V219.452H132.056V223.274H132.506C133.436 223.274 134.144 223.256 134.942 223.13L134.87 222.494C134.192 222.602 133.586 222.632 132.842 222.638V221.606ZM135.65 218.984V220.934H134.702V221.57H135.65V224.528H136.442V218.984H135.65Z" fill="black"/>
<path d="M163.668 256.806C163.254 256.806 162.978 256.368 162.978 255.546C162.978 254.73 163.254 254.292 163.668 254.292C164.076 254.292 164.358 254.73 164.358 255.546C164.358 256.368 164.076 256.806 163.668 256.806ZM163.668 253.578C162.828 253.578 162.216 254.334 162.216 255.546C162.216 256.764 162.828 257.526 163.668 257.526C164.502 257.526 165.12 256.764 165.12 255.546C165.12 254.334 164.502 253.578 163.668 253.578ZM167.316 255.276H166.512V253.194H165.72V258.72H166.512V255.93H167.316V255.276ZM169.733 255.522H168.647V254.838H169.733V255.522ZM170.513 253.548H169.733V254.232H168.647V253.548H167.867V256.14H170.513V253.548ZM170.243 258.114C169.541 258.114 169.163 257.964 169.163 257.652C169.163 257.34 169.541 257.19 170.243 257.19C170.951 257.19 171.329 257.34 171.329 257.652C171.329 257.964 170.951 258.114 170.243 258.114ZM170.243 256.572C169.097 256.572 168.377 256.974 168.377 257.652C168.377 258.324 169.097 258.732 170.243 258.732C171.395 258.732 172.115 258.324 172.115 257.652C172.115 256.974 171.395 256.572 170.243 256.572ZM172.055 254.484V253.2H171.263V256.452H172.055V255.132H172.787V254.484H172.055ZM158.286 263.782H157.566V262.588H158.286V263.782ZM159.534 262.216H159.018V260.698H158.286V261.964H157.566V260.692H156.822V264.412H159.018V262.852H159.534V265.48H160.272V260.29H159.534V262.216ZM160.656 260.188V265.714H161.406V260.188H160.656ZM165.972 260.188V265.732H166.764V260.188H165.972ZM163.794 260.578C162.96 260.578 162.342 261.334 162.342 262.546C162.342 263.764 162.96 264.526 163.794 264.526C164.628 264.526 165.246 263.764 165.246 262.546C165.246 261.334 164.628 260.578 163.794 260.578ZM163.794 261.292C164.202 261.292 164.484 261.73 164.484 262.546C164.484 263.368 164.202 263.806 163.794 263.806C163.386 263.806 163.104 263.368 163.104 262.546C163.104 261.73 163.386 261.292 163.794 261.292ZM167.981 260.722V261.352H169.727C169.703 261.616 169.661 261.856 169.607 262.09L167.687 262.198L167.789 262.864L169.367 262.72C169.049 263.326 168.515 263.836 167.657 264.286L168.089 264.886C170.069 263.848 170.513 262.42 170.513 260.722H167.981ZM171.533 260.194V262.312H170.501V262.954H171.533V265.72H172.325V260.194H171.533ZM174.329 262.798H176.123V260.662H173.513V261.292H175.313V262.174H173.519V264.448H174.017C175.019 264.448 175.829 264.412 176.729 264.256L176.645 263.614C175.865 263.746 175.169 263.788 174.329 263.794V262.798ZM177.029 260.188V265.732H177.821V260.188H177.029Z" fill="black"/>
<path d="M126.92 196.149C126.324 195.957 126.076 195.493 126.076 195.025V194.625H125.54V195.021C125.54 195.525 125.28 196.017 124.66 196.217L124.94 196.629C125.36 196.489 125.652 196.201 125.816 195.833C125.976 196.165 126.248 196.429 126.648 196.561L126.92 196.149ZM125.772 196.841H125.244V198.021H127.744V197.601H125.772V196.841ZM127.616 195.469V194.401H127.088V197.097H127.616V195.905H128.104V195.469H127.616ZM129.068 196.145H130.22V195.733H129.068V195.133H130.272V194.705H128.54V197.253H128.852C129.484 197.253 129.98 197.237 130.54 197.153L130.492 196.733C130.012 196.805 129.588 196.825 129.068 196.829V196.145ZM131.816 195.797H131.28V194.401H130.752V198.089H131.28V196.233H131.816V195.797ZM132.708 195.165H133.428V196.773H132.708V195.165ZM132.188 197.189H133.948V194.749H132.188V197.189ZM135.496 195.789H134.96V194.405H134.432V198.085H134.96V196.225H135.496V195.789ZM136.491 196.137H137.687V194.713H135.947V195.133H137.147V195.721H135.951V197.237H136.283C136.951 197.237 137.491 197.213 138.091 197.109L138.035 196.681C137.515 196.769 137.051 196.797 136.491 196.801V196.137ZM138.291 194.397V198.093H138.819V194.397H138.291ZM140.423 196.809C140.147 196.809 139.963 196.517 139.963 195.969C139.963 195.425 140.147 195.133 140.423 195.133C140.695 195.133 140.883 195.425 140.883 195.969C140.883 196.517 140.695 196.809 140.423 196.809ZM140.423 194.657C139.863 194.657 139.455 195.161 139.455 195.969C139.455 196.781 139.863 197.289 140.423 197.289C140.979 197.289 141.391 196.781 141.391 195.969C141.391 195.161 140.979 194.657 140.423 194.657ZM142.855 195.789H142.319V194.401H141.791V198.085H142.319V196.225H142.855V195.789ZM145.047 197.245V196.405H146.099V195.985H144.019V194.681H143.491V196.405H144.519V197.245H143.115V197.673H146.451V197.245H145.047ZM149.934 194.405H149.434V196.301H149.934V194.405ZM147.894 195.781H147.418V195.393H147.894V195.781ZM148.382 195.589H148.686V196.281H149.178V194.465H148.686V195.173H148.382V194.601H147.894V195.005H147.418V194.605H146.922V196.185H148.382V195.589ZM147.966 197.657V197.433H149.934V196.449H147.43V196.853H149.406V197.053H147.438V198.057H150.05V197.657H147.966ZM151.146 196.137H152.314V194.713H150.622V195.133H151.794V195.721H150.626V197.241H150.938C151.578 197.241 152.086 197.217 152.638 197.117L152.59 196.689C152.11 196.773 151.674 196.801 151.146 196.805V196.137ZM153.894 195.789H153.366V194.397H152.838V198.093H153.366V196.225H153.894V195.789Z" fill="black"/>
<path fill-rule="evenodd" clip-rule="evenodd" d="M222.789 74.1964C226.317 73.5871 229 70.5207 229 66.8295C229 62.7001 225.642 59.3525 221.5 59.3525C217.358 59.3525 214 62.7001 214 66.8295C214 70.5207 216.683 73.5871 220.211 74.1964L221.5 79.3525L222.789 74.1964Z" fill="black"/>
<path fill-rule="evenodd" clip-rule="evenodd" d="M222.789 72.1964C226.317 71.5871 229 68.5207 229 64.8295C229 60.7001 225.642 57.3525 221.5 57.3525C217.358 57.3525 214 60.7001 214 64.8295C214 68.5207 216.683 71.5871 220.211 72.1964L221.5 77.3525L222.789 72.1964Z" fill="#FF0000"/>
<ellipse cx="221.5" cy="64.8292" rx="2.5" ry="2.49231" fill="white"/>
<path d="M252.5 59.6924H274.5V128.333" stroke="#FF0000" stroke-width="3" stroke-linecap="round"/>
<path d="M167 217.845L142 241.034V296.689" stroke="#FF0000" stroke-width="3" stroke-linecap="round"/>
<path d="M269 128.333H205.5L167 164.331V186.77" stroke="#FF0000" stroke-width="3" stroke-linecap="round"/>
<path d="M206.616 407.357H208.116V405.857V375.5H313.5V702.5H1.5V435.5H161.319H162.819V434V407.357H206.616Z" fill="#C4C4C4" stroke="black" stroke-width="3" stroke-miterlimit="10"/>
<path d="M251.266 459.337H241.75V494.373H251.266V459.337Z" fill="black"/>
<path d="M113.266 618.412H103.75V653.448H113.266V618.412Z" fill="black"/>
<path d="M276.806 459.337H267.29V494.373H276.806V459.337Z" fill="black"/>
<path d="M138.806 618.412H129.29V653.448H138.806V618.412Z" fill="black"/>
<path d="M265.448 459.337H253.107V494.373H265.448V459.337Z" fill="black"/>
<path d="M127.448 618.412H115.107V653.448H127.448V618.412Z" fill="#FF0000"/>
<path d="M240 459.412H167V494.412H240V459.412Z" fill="black"/>
<path d="M102 618.487H29V653.487H102V618.487Z" fill="black"/>
<path d="M262.869 480.285V474.971C262.869 474.415 262.44 473.982 261.887 473.982H256.607C256.054 473.982 255.625 474.415 255.625 474.971V480.285C255.625 480.841 256.054 481.274 256.607 481.274H261.887C262.44 481.212 262.869 480.841 262.869 480.285ZM262.071 480.409H256.423V474.786H262.071V480.409Z" fill="white"/>
<path d="M260.168 470.522C260.168 470.089 260.782 470.089 260.782 470.522V472.252L261.089 471.881C261.334 471.634 261.702 472.005 261.457 472.252L260.659 473.179C260.536 473.302 260.352 473.302 260.229 473.179L259.431 472.252C259.185 471.943 259.615 471.634 259.799 471.881L260.106 472.314L260.168 470.522Z" fill="white"/>
<path d="M257.773 472.996C257.773 473.428 258.387 473.428 258.387 472.996V471.266L258.694 471.636C258.94 471.884 259.308 471.513 259.062 471.266L258.264 470.339C258.141 470.215 257.957 470.215 257.834 470.339L257.036 471.266C256.791 471.575 257.221 471.884 257.405 471.636L257.712 471.204L257.773 472.996Z" fill="white"/>
<path d="M260.905 476.453H259.861C259.738 476.453 259.615 476.577 259.615 476.7V477.998C259.615 478.122 259.677 478.183 259.799 478.183C259.799 478.183 259.861 478.183 259.922 478.183V479.852C259.922 480.161 260.352 480.161 260.352 479.852V478.183H260.413V479.852C260.413 480.161 260.843 480.161 260.843 479.852V478.183C260.905 478.183 260.966 478.183 260.966 478.183C261.089 478.183 261.15 478.122 261.15 477.998V476.7C261.15 476.577 261.027 476.453 260.905 476.453Z" fill="white"/>
<path d="M260.351 476.33C260.521 476.33 260.658 476.192 260.658 476.021C260.658 475.85 260.521 475.712 260.351 475.712C260.182 475.712 260.044 475.85 260.044 476.021C260.044 476.192 260.182 476.33 260.351 476.33Z" fill="white"/>
<path d="M258.695 476.453H257.651C257.528 476.453 257.405 476.577 257.405 476.7V477.998C257.405 478.122 257.467 478.183 257.589 478.183C257.589 478.183 257.651 478.183 257.712 478.183V479.852C257.712 480.161 258.142 480.161 258.142 479.852V478.183H258.203V479.852C258.203 480.161 258.633 480.161 258.633 479.852V478.183C258.695 478.183 258.756 478.183 258.756 478.183C258.879 478.183 258.94 478.122 258.94 477.998V476.7C258.94 476.577 258.817 476.453 258.695 476.453Z" fill="white"/>
<path d="M258.141 476.33C258.311 476.33 258.448 476.192 258.448 476.021C258.448 475.85 258.311 475.712 258.141 475.712C257.972 475.712 257.834 475.85 257.834 476.021C257.834 476.192 257.972 476.33 258.141 476.33Z" fill="white"/>
<path d="M124.869 639.359V634.045C124.869 633.489 124.44 633.057 123.887 633.057H118.607C118.054 633.057 117.625 633.489 117.625 634.045V639.359C117.625 639.916 118.054 640.348 118.607 640.348H123.887C124.44 640.286 124.869 639.916 124.869 639.359ZM124.071 639.483H118.423V633.86H124.071V639.483Z" fill="white"/>
<path d="M122.168 629.596C122.168 629.163 122.782 629.163 122.782 629.596V631.326L123.089 630.955C123.334 630.708 123.702 631.079 123.457 631.326L122.659 632.253C122.536 632.377 122.352 632.377 122.229 632.253L121.431 631.326C121.185 631.017 121.615 630.708 121.799 630.955L122.106 631.388L122.168 629.596Z" fill="white"/>
<path d="M119.773 632.07C119.773 632.503 120.387 632.503 120.387 632.07V630.34L120.694 630.711C120.94 630.958 121.308 630.587 121.062 630.34L120.264 629.413C120.141 629.289 119.957 629.289 119.834 629.413L119.036 630.34C118.791 630.649 119.221 630.958 119.405 630.711L119.712 630.278L119.773 632.07Z" fill="white"/>
<path d="M122.905 635.527H121.861C121.738 635.527 121.615 635.651 121.615 635.775V637.072C121.615 637.196 121.677 637.258 121.799 637.258C121.799 637.258 121.861 637.258 121.922 637.258V638.926C121.922 639.235 122.352 639.235 122.352 638.926V637.258H122.413V638.926C122.413 639.235 122.843 639.235 122.843 638.926V637.258C122.905 637.258 122.966 637.258 122.966 637.258C123.089 637.258 123.15 637.196 123.15 637.072V635.775C123.15 635.651 123.027 635.527 122.905 635.527Z" fill="white"/>
<path d="M122.351 635.404C122.521 635.404 122.658 635.266 122.658 635.095C122.658 634.924 122.521 634.786 122.351 634.786C122.182 634.786 122.044 634.924 122.044 635.095C122.044 635.266 122.182 635.404 122.351 635.404Z" fill="white"/>
<path d="M120.695 635.527H119.651C119.528 635.527 119.405 635.651 119.405 635.775V637.072C119.405 637.196 119.467 637.258 119.589 637.258C119.589 637.258 119.651 637.258 119.712 637.258V638.926C119.712 639.235 120.142 639.235 120.142 638.926V637.258H120.203V638.926C120.203 639.235 120.633 639.235 120.633 638.926V637.258C120.695 637.258 120.756 637.258 120.756 637.258C120.879 637.258 120.94 637.196 120.94 637.072V635.775C120.94 635.651 120.817 635.527 120.695 635.527Z" fill="white"/>
<path d="M120.141 635.404C120.311 635.404 120.448 635.266 120.448 635.095C120.448 634.924 120.311 634.786 120.141 634.786C119.972 634.786 119.834 634.924 119.834 635.095C119.834 635.266 119.972 635.404 120.141 635.404Z" fill="white"/>
<path d="M175.632 474.412H177.17V472.054H178.462C180.135 472.054 181.108 471.056 181.108 469.604C181.108 468.159 180.153 467.139 178.501 467.139H175.632V474.412ZM177.17 470.822V468.396H178.207C179.094 468.396 179.524 468.879 179.524 469.604C179.524 470.325 179.094 470.822 178.214 470.822H177.17ZM183.487 474.515C184.293 474.515 184.815 474.164 185.082 473.656H185.124V474.412H186.559V470.733C186.559 469.433 185.458 468.887 184.244 468.887C182.937 468.887 182.077 469.512 181.868 470.506L183.267 470.619C183.37 470.257 183.693 469.991 184.237 469.991C184.751 469.991 185.046 470.25 185.046 470.698V470.719C185.046 471.07 184.673 471.117 183.725 471.209C182.646 471.308 181.676 471.671 181.676 472.889C181.676 473.968 182.447 474.515 183.487 474.515ZM183.92 473.471C183.455 473.471 183.121 473.254 183.121 472.839C183.121 472.413 183.473 472.203 184.006 472.129C184.336 472.083 184.876 472.004 185.057 471.884V472.463C185.057 473.034 184.585 473.471 183.92 473.471ZM187.733 474.412H189.245V471.326C189.245 470.655 189.735 470.193 190.403 470.193C190.613 470.193 190.9 470.229 191.042 470.275V468.933C190.907 468.901 190.719 468.879 190.566 468.879C189.956 468.879 189.455 469.235 189.256 469.909H189.199V468.958H187.733V474.412ZM191.824 474.412H193.337V472.679L193.746 472.214L195.233 474.412H197.006L194.878 471.319L196.903 468.958H195.166L193.419 471.028H193.337V467.139H191.824V474.412ZM197.645 474.412H199.157V468.958H197.645V474.412ZM198.405 468.254C198.856 468.254 199.225 467.91 199.225 467.487C199.225 467.068 198.856 466.724 198.405 466.724C197.957 466.724 197.588 467.068 197.588 467.487C197.588 467.91 197.957 468.254 198.405 468.254ZM201.882 471.259C201.886 470.556 202.305 470.144 202.915 470.144C203.523 470.144 203.888 470.541 203.885 471.209V474.412H205.398V470.939C205.398 469.668 204.652 468.887 203.516 468.887C202.706 468.887 202.12 469.284 201.875 469.92H201.811V468.958H200.369V474.412H201.882V471.259ZM209.047 476.571C210.606 476.571 211.714 475.861 211.714 474.465V468.958H210.212V469.874H210.155C209.953 469.43 209.509 468.887 208.596 468.887C207.4 468.887 206.388 469.817 206.388 471.674C206.388 473.489 207.371 474.334 208.6 474.334C209.47 474.334 209.956 473.897 210.155 473.446H210.219V474.444C210.219 475.193 209.74 475.485 209.083 475.485C208.415 475.485 208.078 475.193 207.954 474.863L206.555 475.051C206.736 475.911 207.577 476.571 209.047 476.571ZM209.079 473.198C208.337 473.198 207.932 472.608 207.932 471.667C207.932 470.74 208.33 470.09 209.079 470.09C209.814 470.09 210.226 470.712 210.226 471.667C210.226 472.629 209.807 473.198 209.079 473.198ZM175.632 486.412H180.547V485.144H177.17V483.408H180.281V482.14H177.17V480.407H180.533V479.139H175.632V486.412ZM183.009 486.412L183.548 484.754H186.173L186.713 486.412H188.36L185.853 479.139H183.872L181.361 486.412H183.009ZM183.939 483.553L184.834 480.801H184.891L185.786 483.553H183.939ZM193.015 481.231H194.489C194.467 479.935 193.402 479.04 191.783 479.04C190.188 479.04 189.02 479.921 189.027 481.242C189.023 482.314 189.78 482.928 191.009 483.223L191.8 483.422C192.592 483.614 193.033 483.841 193.036 484.331C193.033 484.864 192.528 485.226 191.747 485.226C190.948 485.226 190.373 484.857 190.323 484.129H188.835C188.874 485.702 190 486.515 191.765 486.515C193.54 486.515 194.585 485.666 194.588 484.335C194.585 483.124 193.672 482.481 192.408 482.197L191.754 482.041C191.122 481.895 190.593 481.661 190.604 481.139C190.604 480.67 191.019 480.325 191.772 480.325C192.507 480.325 192.958 480.659 193.015 481.231ZM195.345 480.407H197.572V486.412H199.092V480.407H201.318V479.139H195.345V480.407ZM204.616 486.412H206.154V483.408H209.276V486.412H210.81V479.139H209.276V482.14H206.154V479.139H204.616V486.412ZM213.331 486.412L213.871 484.754H216.495L217.035 486.412H218.683L216.175 479.139H214.194L211.683 486.412H213.331ZM214.261 483.553L215.156 480.801H215.213L216.108 483.553H214.261ZM219.558 486.412H224.213V485.144H221.096V479.139H219.558V486.412ZM225.232 486.412H229.887V485.144H226.769V479.139H225.232V486.412Z" fill="white"/>
<path d="M37.6321 633.487H39.1697V631.129H40.4624C42.1349 631.129 43.108 630.131 43.108 628.679C43.108 627.234 42.1527 626.215 40.5014 626.215H37.6321V633.487ZM39.1697 629.897V627.472H40.2067C41.0945 627.472 41.5241 627.955 41.5241 628.679C41.5241 629.4 41.0945 629.897 40.2138 629.897H39.1697ZM45.4872 633.59C46.2933 633.59 46.8153 633.239 47.0817 632.731H47.1243V633.487H48.5589V629.808C48.5589 628.509 47.4581 627.962 46.2436 627.962C44.9368 627.962 44.0774 628.587 43.8679 629.581L45.267 629.695C45.37 629.332 45.6932 629.066 46.2365 629.066C46.7514 629.066 47.0462 629.325 47.0462 629.773V629.794C47.0462 630.146 46.6733 630.192 45.7251 630.284C44.6456 630.384 43.6761 630.746 43.6761 631.964C43.6761 633.043 44.4467 633.59 45.4872 633.59ZM45.9205 632.546C45.4553 632.546 45.1214 632.33 45.1214 631.914C45.1214 631.488 45.473 631.278 46.0057 631.204C46.3359 631.158 46.8757 631.08 47.0568 630.959V631.538C47.0568 632.109 46.5845 632.546 45.9205 632.546ZM49.7326 633.487H51.2454V630.401C51.2454 629.73 51.7354 629.269 52.4031 629.269C52.6126 629.269 52.9002 629.304 53.0423 629.35V628.008C52.9073 627.976 52.7191 627.955 52.5664 627.955C51.9556 627.955 51.4549 628.31 51.256 628.984H51.1992V628.033H49.7326V633.487ZM53.8244 633.487H55.3372V631.754L55.7456 631.289L57.2335 633.487H59.0055L56.8784 630.394L58.9025 628.033H57.166L55.4189 630.103H55.3372V626.215H53.8244V633.487ZM59.6447 633.487H61.1575V628.033H59.6447V633.487ZM60.4047 627.33C60.8556 627.33 61.225 626.985 61.225 626.563C61.225 626.144 60.8556 625.799 60.4047 625.799C59.9572 625.799 59.5879 626.144 59.5879 626.563C59.5879 626.985 59.9572 627.33 60.4047 627.33ZM63.8821 630.334C63.8857 629.631 64.3047 629.219 64.9155 629.219C65.5227 629.219 65.8885 629.617 65.8849 630.284V633.487H67.3977V630.014C67.3977 628.743 66.652 627.962 65.5156 627.962C64.706 627.962 64.12 628.359 63.875 628.995H63.8111V628.033H62.3693V633.487H63.8821V630.334ZM71.0474 635.646C72.6064 635.646 73.7143 634.936 73.7143 633.541V628.033H72.2122V628.949H72.1554C71.9529 628.505 71.5091 627.962 70.5964 627.962C69.3997 627.962 68.3876 628.892 68.3876 630.749C68.3876 632.564 69.3713 633.409 70.6 633.409C71.47 633.409 71.9565 632.972 72.1554 632.521H72.2193V633.519C72.2193 634.269 71.7399 634.56 71.0829 634.56C70.4153 634.56 70.0779 634.269 69.9537 633.938L68.5545 634.127C68.7356 634.986 69.5772 635.646 71.0474 635.646ZM71.0794 632.273C70.3372 632.273 69.9324 631.683 69.9324 630.742C69.9324 629.815 70.3301 629.166 71.0794 629.166C71.8145 629.166 72.2264 629.787 72.2264 630.742C72.2264 631.705 71.8074 632.273 71.0794 632.273ZM39.2692 645.487H40.7678L42.1491 640.732H42.206L43.5909 645.487H45.0895L47.1705 638.215H45.4908L44.2869 643.278H44.223L42.8984 638.215H41.4602L40.1321 643.268H40.0717L38.8679 638.215H37.1882L39.2692 645.487ZM47.9934 645.487H52.9082V644.22H49.5311V642.483H52.6419V641.215H49.5311V639.482H52.894V638.215H47.9934V645.487ZM58.0618 640.306H59.5355C59.5142 639.01 58.4489 638.115 56.8295 638.115C55.2351 638.115 54.0668 638.996 54.0739 640.317C54.0703 641.389 54.8267 642.004 56.0554 642.298L56.8473 642.497C57.6392 642.689 58.0795 642.916 58.0831 643.406C58.0795 643.939 57.5753 644.301 56.794 644.301C55.995 644.301 55.4197 643.932 55.37 643.204H53.8821C53.9212 644.777 55.0469 645.59 56.8118 645.59C58.5874 645.59 59.6314 644.742 59.6349 643.41C59.6314 642.199 58.7188 641.556 57.4545 641.272L56.8011 641.116C56.169 640.97 55.6399 640.736 55.6506 640.214C55.6506 639.745 56.0661 639.401 56.8189 639.401C57.554 639.401 58.005 639.734 58.0618 640.306ZM60.3922 639.482H62.6188V645.487H64.1387V639.482H66.3652V638.215H60.3922V639.482ZM69.6634 645.487H71.201V642.483H74.3224V645.487H75.8565V638.215H74.3224V641.215H71.201V638.215H69.6634V645.487ZM78.3778 645.487L78.9176 643.829H81.5419L82.0817 645.487H83.7294L81.2223 638.215H79.2408L76.7301 645.487H78.3778ZM79.3082 642.629L80.2031 639.877H80.2599L81.1548 642.629H79.3082ZM84.6048 645.487H89.2603V644.22H86.1424V638.215H84.6048V645.487ZM90.2786 645.487H94.9341V644.22H91.8162V638.215H90.2786V645.487Z" fill="white"/>
<path d="M2.78125 417.412H9.54688V407.037H15.2344C22.5937 407.037 26.875 402.646 26.875 396.256C26.875 389.896 22.6719 385.412 15.4063 385.412H2.78125V417.412ZM9.54688 401.615V390.943H14.1094C18.0156 390.943 19.9063 393.068 19.9063 396.256C19.9063 399.428 18.0156 401.615 14.1406 401.615H9.54688Z" fill="black"/>
<path fill-rule="evenodd" clip-rule="evenodd" d="M91.789 628.844C95.317 628.235 98 625.168 98 621.477C98 617.348 94.6421 614 90.5 614C86.3579 614 83 617.348 83 621.477C83 625.168 85.683 628.235 89.211 628.844L90.5 634L91.789 628.844Z" fill="black"/>
<path fill-rule="evenodd" clip-rule="evenodd" d="M91.789 626.844C95.317 626.235 98 623.168 98 619.477C98 615.348 94.6421 612 90.5 612C86.3579 612 83 615.348 83 619.477C83 623.168 85.683 626.235 89.211 626.844L90.5 632L91.789 626.844Z" fill="#FF0000"/>
<ellipse cx="90.5" cy="619.477" rx="2.5" ry="2.49231" fill="white"/>
<path d="M0.90918 732.96C0.90918 731.93 1.0459 730.941 1.31934 729.993C1.59733 729.045 2.00977 728.184 2.55664 727.409C3.10352 726.634 3.6709 726.088 4.25879 725.769L4.51855 726.603C3.85319 727.113 3.30632 727.892 2.87793 728.94C2.4541 729.989 2.22168 731.162 2.18066 732.461L2.17383 733.042C2.17383 734.801 2.49512 736.328 3.1377 737.622C3.52507 738.397 3.98535 739.003 4.51855 739.44L4.25879 740.213C3.65267 739.876 3.07389 739.311 2.52246 738.518C1.44694 736.968 0.90918 735.116 0.90918 732.96ZM8.87316 734.186C7.65516 734.186 6.80116 732.87 6.80116 730.826C6.80116 728.796 7.65516 727.48 8.87316 727.48C10.0772 727.48 10.9312 728.796 10.9312 730.826C10.9312 732.87 10.0772 734.186 8.87316 734.186ZM8.87316 726.444C7.02516 726.444 5.70916 728.152 5.70916 730.826C5.70916 733.5 7.02516 735.208 8.87316 735.208C10.7212 735.208 12.0232 733.5 12.0232 730.826C12.0232 728.152 10.7212 726.444 8.87316 726.444ZM17.2592 730.49H15.1872V725.492H14.0392V738.036H15.1872V731.456H17.2592V730.49ZM23.6141 731.134H20.0581V729.062H23.6141V731.134ZM24.7341 726.276H23.6141V728.166H20.0581V726.276H18.9241V732.058H24.7341V726.276ZM24.1601 737.126C22.2841 737.126 21.1641 736.594 21.1641 735.698C21.1641 734.802 22.2841 734.284 24.1601 734.284C26.0081 734.284 27.1421 734.802 27.1421 735.698C27.1421 736.594 26.0081 737.126 24.1601 737.126ZM24.1601 733.36C21.5981 733.36 20.0161 734.214 20.0161 735.698C20.0161 737.182 21.5981 738.036 24.1601 738.036C26.7081 738.036 28.2901 737.182 28.2901 735.698C28.2901 734.214 26.7081 733.36 24.1601 733.36ZM28.1501 728.642V725.478H27.0021V733.038H28.1501V729.594H30.0121V728.642H28.1501ZM35.471 733.948H32.825V730.7H35.471V733.948ZM38.369 730.252H36.549V726.724H35.471V729.776H32.825V726.724H31.733V734.886H36.549V731.19H38.369V737.42H39.461V725.758H38.369V730.252ZM40.861 725.478V738.036H41.953V725.478H40.861ZM53.2919 725.478V738.064H54.4399V725.478H53.2919ZM47.8179 726.444C45.9559 726.444 44.6259 728.152 44.6259 730.826C44.6259 733.5 45.9559 735.208 47.8179 735.208C49.6799 735.208 51.0099 733.5 51.0099 730.826C51.0099 728.152 49.6799 726.444 47.8179 726.444ZM47.8179 727.48C49.0359 727.48 49.9039 728.796 49.9039 730.826C49.9039 732.87 49.0359 734.186 47.8179 734.186C46.5859 734.186 45.7179 732.87 45.7179 730.826C45.7179 728.796 46.5859 727.48 47.8179 727.48ZM57.7288 726.78V727.718H62.2368C62.1808 728.488 62.0688 729.23 61.8308 729.93L57.0848 730.238L57.2948 731.232L61.4808 730.84C60.7108 732.506 59.3248 733.948 57.0428 735.068L57.6868 735.978C62.0968 733.738 63.3708 730.42 63.3708 726.78H57.7288ZM66.2268 725.492V730.518H63.3288V731.456H66.2268V738.036H67.3748V725.492H66.2268ZM71.7977 731.12H76.4317V726.64H70.6077V727.578H75.2697V730.196H70.6497V735.012H71.6857C73.8417 735.012 75.7457 734.928 78.0137 734.55L77.9017 733.612C75.7037 733.962 73.8557 734.06 71.7977 734.06V731.12ZM79.0777 725.464V738.05H80.2257V725.464H79.0777ZM87.6313 729.146C87.6313 727.984 88.5273 727.158 89.7733 727.158C91.0333 727.158 91.9433 727.984 91.9433 729.146C91.9433 730.322 91.0333 731.134 89.7733 731.134C88.5273 731.134 87.6313 730.322 87.6313 729.146ZM93.0633 729.146C93.0633 727.41 91.6913 726.206 89.7733 726.206C87.8833 726.206 86.5113 727.41 86.5113 729.146C86.5113 730.896 87.8833 732.086 89.7733 732.086C91.6913 732.086 93.0633 730.896 93.0633 729.146ZM90.8793 734.186H93.4833V736.916H90.8793V734.186ZM94.6173 734.186H96.3533V733.276H88.0233V734.186H89.7453V736.916H87.9113V737.84H96.5073V736.916H94.6173V734.186ZM96.0173 728.544V725.492H94.8693V732.59H96.0173V729.496H97.8793V728.544H96.0173ZM102.286 733.028C102.286 734.045 102.152 735.02 101.883 735.954C101.618 736.884 101.211 737.743 100.659 738.531C100.112 739.32 99.5381 739.88 98.9365 740.213L98.6699 739.44C99.3717 738.903 99.9346 738.069 100.358 736.938C100.787 735.804 101.006 734.546 101.015 733.165V732.946C101.015 731.989 100.914 731.101 100.714 730.28C100.513 729.455 100.233 728.717 99.873 728.065C99.5176 727.414 99.1165 726.906 98.6699 726.541L98.9365 725.769C99.5381 726.101 100.11 726.657 100.652 727.437C101.199 728.216 101.607 729.075 101.876 730.014C102.149 730.952 102.286 731.957 102.286 733.028ZM110.059 732.399H105.745V735.927H110.756V737H104.433V727.047H110.688V728.127H105.745V731.326H110.059V732.399ZM117.886 734.402H113.716L112.779 737H111.426L115.227 727.047H116.375L120.183 737H118.836L117.886 734.402ZM114.112 733.322H117.496L115.801 728.667L114.112 733.322ZM124.455 732.563C123.329 732.24 122.509 731.843 121.994 731.374C121.484 730.9 121.229 730.317 121.229 729.624C121.229 728.84 121.541 728.193 122.165 727.683C122.794 727.168 123.61 726.91 124.612 726.91C125.296 726.91 125.904 727.042 126.438 727.307C126.975 727.571 127.39 727.936 127.682 728.4C127.978 728.865 128.126 729.373 128.126 729.925H126.807C126.807 729.323 126.615 728.852 126.232 728.51C125.85 728.163 125.31 727.99 124.612 727.99C123.965 727.99 123.459 728.134 123.095 728.421C122.735 728.703 122.555 729.098 122.555 729.604C122.555 730.009 122.726 730.353 123.067 730.636C123.414 730.914 123.999 731.169 124.824 731.401C125.654 731.634 126.301 731.891 126.766 732.174C127.235 732.452 127.581 732.778 127.805 733.151C128.033 733.525 128.146 733.965 128.146 734.471C128.146 735.277 127.832 735.924 127.203 736.412C126.574 736.895 125.733 737.137 124.681 737.137C123.997 737.137 123.359 737.007 122.767 736.747C122.174 736.483 121.716 736.123 121.393 735.667C121.074 735.211 120.914 734.694 120.914 734.115H122.233C122.233 734.717 122.454 735.193 122.896 735.544C123.343 735.89 123.938 736.063 124.681 736.063C125.373 736.063 125.904 735.922 126.273 735.64C126.643 735.357 126.827 734.972 126.827 734.484C126.827 733.997 126.656 733.621 126.314 733.356C125.973 733.088 125.353 732.823 124.455 732.563ZM136.712 728.127H133.513V737H132.207V728.127H129.015V727.047H136.712V728.127ZM151.572 725.492H150.466V732.016H151.572V725.492ZM142.122 728.81C142.122 727.746 142.892 726.976 143.956 726.976C145.006 726.976 145.776 727.746 145.776 728.81C145.776 729.916 145.006 730.686 143.956 730.686C142.892 730.686 142.122 729.916 142.122 728.81ZM148.1 729.272V731.932H149.178V725.744H148.1V728.348H146.77C146.574 726.976 145.454 726.066 143.956 726.066C142.29 726.066 141.1 727.186 141.1 728.81C141.1 730.462 142.29 731.596 143.956 731.596C145.454 731.596 146.588 730.672 146.784 729.272H148.1ZM144.446 736.944V735.6H151.572V732.604H143.284V733.514H150.424V734.732H143.312V737.868H152.048V736.944H144.446ZM155.729 731.12H160.363V726.64H154.539V727.578H159.201V730.196H154.581V735.012H155.617C157.773 735.012 159.677 734.928 161.945 734.55L161.833 733.612C159.635 733.962 157.787 734.06 155.729 734.06V731.12ZM163.009 725.464V738.05H164.157V725.464H163.009ZM170.918 733.948H168.272V730.7H170.918V733.948ZM173.816 730.252H171.996V726.724H170.918V729.776H168.272V726.724H167.18V734.886H171.996V731.19H173.816V737.42H174.908V725.758H173.816V730.252ZM176.308 725.478V738.036H177.4V725.478H176.308ZM188.739 725.478V738.064H189.887V725.478H188.739ZM183.265 726.444C181.403 726.444 180.073 728.152 180.073 730.826C180.073 733.5 181.403 735.208 183.265 735.208C185.127 735.208 186.457 733.5 186.457 730.826C186.457 728.152 185.127 726.444 183.265 726.444ZM183.265 727.48C184.483 727.48 185.351 728.796 185.351 730.826C185.351 732.87 184.483 734.186 183.265 734.186C182.033 734.186 181.165 732.87 181.165 730.826C181.165 728.796 182.033 727.48 183.265 727.48ZM194.212 731.078H198.328V730.154H194.212V727.564H198.874V726.612H193.064V735.026H194.03C196.424 735.026 197.95 734.956 199.77 734.634L199.644 733.696C197.936 734.004 196.48 734.088 194.212 734.088V731.078ZM201.688 725.464V730.21H199.098V731.162H201.688V738.05H202.836V725.464H201.688ZM214.161 727.676H206.825V730.364H215.519V729.538H207.959V728.46H215.295V725.842H206.797V726.654H214.161V727.676ZM207.889 735.88H215.337V733.206H206.727V734.032H214.203V735.082H206.755V737.868H215.729V737.042H207.889V735.88ZM205.369 731.316V732.184H216.751V731.316H205.369ZM230.849 725.478V738.064H231.997V725.478H230.849ZM225.375 726.444C223.513 726.444 222.183 728.152 222.183 730.826C222.183 733.5 223.513 735.208 225.375 735.208C227.237 735.208 228.567 733.5 228.567 730.826C228.567 728.152 227.237 726.444 225.375 726.444ZM225.375 727.48C226.593 727.48 227.461 728.796 227.461 730.826C227.461 732.87 226.593 734.186 225.375 734.186C224.143 734.186 223.275 732.87 223.275 730.826C223.275 728.796 224.143 727.48 225.375 727.48ZM240.269 737.14C238.295 737.14 237.133 736.65 237.133 735.796C237.133 734.942 238.295 734.452 240.269 734.452C242.229 734.452 243.405 734.942 243.405 735.796C243.405 736.65 242.229 737.14 240.269 737.14ZM240.269 733.556C237.581 733.556 235.971 734.354 235.971 735.796C235.971 737.238 237.581 738.022 240.269 738.022C242.971 738.022 244.567 737.238 244.567 735.796C244.567 734.354 242.971 733.556 240.269 733.556ZM238.533 730.224C239.051 730.308 239.639 730.364 240.269 730.364C240.913 730.364 241.501 730.308 242.019 730.224V731.694H238.533V730.224ZM237.035 728.04C237.035 727.13 238.267 726.598 240.269 726.598C242.271 726.598 243.503 727.13 243.503 728.04C243.503 728.936 242.271 729.482 240.269 729.482C238.267 729.482 237.035 728.936 237.035 728.04ZM243.153 731.694V729.916C244.119 729.524 244.679 728.88 244.679 728.04C244.679 726.57 242.999 725.702 240.269 725.702C237.553 725.702 235.859 726.57 235.859 728.04C235.859 728.894 236.405 729.524 237.399 729.93V731.694H234.585V732.618H245.953V731.694H243.153ZM251.16 734.284C250.026 734.284 249.2 733.472 249.2 732.352C249.2 731.218 250.026 730.406 251.16 730.406C252.308 730.406 253.134 731.218 253.134 732.352C253.134 733.472 252.308 734.284 251.16 734.284ZM251.16 729.454C249.396 729.454 248.122 730.658 248.122 732.352C248.122 734.06 249.396 735.236 251.16 735.236C252.952 735.236 254.226 734.06 254.226 732.352C254.226 730.658 252.952 729.454 251.16 729.454ZM251.72 725.632H250.572V727.494H247.408V728.418H254.814V727.494H251.72V725.632ZM259.21 730.644H257.152V725.492H256.004V738.036H257.152V731.61H259.21V730.644ZM266.699 732.254C266.783 731.82 266.839 731.344 266.839 730.826C266.839 730.252 266.769 729.72 266.657 729.23H269.555V732.254H266.699ZM263.717 734.186C262.513 734.186 261.673 732.87 261.673 730.826C261.673 728.796 262.513 727.48 263.717 727.48C264.907 727.48 265.761 728.796 265.761 730.826C265.761 732.87 264.907 734.186 263.717 734.186ZM269.555 725.478V728.292H266.335C265.803 727.116 264.879 726.444 263.717 726.444C261.883 726.444 260.581 728.152 260.581 730.826C260.581 733.5 261.883 735.208 263.717 735.208C264.921 735.208 265.901 734.466 266.419 733.192H269.555V738.064H270.703V725.478H269.555ZM285.837 725.478V738.064H286.985V725.478H285.837ZM280.363 726.444C278.501 726.444 277.171 728.152 277.171 730.826C277.171 733.5 278.501 735.208 280.363 735.208C282.225 735.208 283.555 733.5 283.555 730.826C283.555 728.152 282.225 726.444 280.363 726.444ZM280.363 727.48C281.581 727.48 282.449 728.796 282.449 730.826C282.449 732.87 281.581 734.186 280.363 734.186C279.131 734.186 278.263 732.87 278.263 730.826C278.263 728.796 279.131 727.48 280.363 727.48ZM295.272 737.14C293.284 737.14 292.122 736.65 292.122 735.768C292.122 734.886 293.284 734.396 295.272 734.396C297.232 734.396 298.394 734.886 298.394 735.768C298.394 736.65 297.232 737.14 295.272 737.14ZM295.272 733.5C292.584 733.5 290.96 734.312 290.96 735.768C290.96 737.224 292.584 738.036 295.272 738.036C297.932 738.036 299.556 737.224 299.556 735.768C299.556 734.312 297.932 733.5 295.272 733.5ZM295.846 731.68V730.224H299.626V729.3H292.164V726.976H299.542V726.052H291.016V730.224H294.698V731.68H289.588V732.604H300.956V731.68H295.846ZM306.149 734.284C305.015 734.284 304.189 733.472 304.189 732.352C304.189 731.218 305.015 730.406 306.149 730.406C307.297 730.406 308.123 731.218 308.123 732.352C308.123 733.472 307.297 734.284 306.149 734.284ZM306.149 729.454C304.385 729.454 303.111 730.658 303.111 732.352C303.111 734.06 304.385 735.236 306.149 735.236C307.941 735.236 309.215 734.06 309.215 732.352C309.215 730.658 307.941 729.454 306.149 729.454ZM306.709 725.632H305.561V727.494H302.397V728.418H309.803V727.494H306.709V725.632ZM314.199 730.644H312.141V725.492H310.993V738.036H312.141V731.61H314.199V730.644ZM4.466 742.668H3.36V745.062C3.36 747.218 2.324 749.472 0.602 750.48L1.316 751.334C2.562 750.564 3.472 749.15 3.92 747.484C4.368 749.01 5.208 750.34 6.398 751.068L7.056 750.172C5.404 749.164 4.466 747.036 4.466 745.02V742.668ZM7.77 745.986H5.698V746.938H7.77V753.42H8.848V741.758H7.77V745.986ZM10.318 741.478V754.036H11.41V741.478H10.318ZM17.5549 748.52C18.0729 748.646 18.6749 748.716 19.2909 748.716C19.9209 748.716 20.5229 748.646 21.0549 748.52V751.474H17.5549V748.52ZM19.2909 743.172C21.3069 743.172 22.7629 744.096 22.7629 745.496C22.7629 746.896 21.3069 747.82 19.2909 747.82C17.2749 747.82 15.8329 746.896 15.8329 745.496C15.8329 744.096 17.2749 743.172 19.2909 743.172ZM22.2029 751.474V748.072C23.2389 747.526 23.8549 746.63 23.8549 745.496C23.8549 743.536 21.9649 742.276 19.2909 742.276C16.6309 742.276 14.7269 743.536 14.7269 745.496C14.7269 746.63 15.3569 747.54 16.4069 748.086V751.474H13.6069V752.426H25.0169V751.474H22.2029ZM26.7422 752.337C26.7422 752.118 26.806 751.936 26.9336 751.79C27.0658 751.644 27.2617 751.571 27.5215 751.571C27.7812 751.571 27.9772 751.644 28.1094 751.79C28.2461 751.936 28.3145 752.118 28.3145 752.337C28.3145 752.547 28.2461 752.722 28.1094 752.863C27.9772 753.005 27.7812 753.075 27.5215 753.075C27.2617 753.075 27.0658 753.005 26.9336 752.863C26.806 752.722 26.7422 752.547 26.7422 752.337Z" fill="black"/>
<rect x="11" y="312" width="5" height="53.1429" fill="url(#paint0_linear)"/>
<path d="M13.5 372L6.13879 359.25L20.8612 359.25L13.5 372Z" fill="#FF0000"/>
<defs>
<linearGradient id="paint0_linear" x1="13.5" y1="312" x2="13.5" y2="365.143" gradientUnits="userSpaceOnUse">
<stop stop-color="#FF0000" stop-opacity="0"/>
<stop offset="0.546875" stop-color="#FF0000"/>
</linearGradient>
</defs>
</svg>
