<svg width="315" height="372" viewBox="0 0 315 372" fill="none" xmlns="http://www.w3.org/2000/svg">
<path d="M186.734 216.352H185.234V217.852V328.119H1.5V151.582H95.2488H96.7488V150.082V100.677H161.319H162.819V99.1775V33.6165H206.616H208.116V32.1165V1.82812H313.5V166.32H186.734H185.234V167.82V188.313V189.813H186.734H214.102V216.352H186.734Z" fill="white" stroke="black" stroke-width="3" stroke-miterlimit="10"/>
<path d="M168.086 124.698L254.188 124.698V88.8535H168.086V124.698Z" fill="#C4C4C4"/>
<path d="M143.45 124.676H164.65V105.078H143.45V124.676Z" fill="black"/>
<path d="M156.495 111.959C156.906 111.959 157.248 111.643 157.248 111.264C157.248 110.884 156.906 110.568 156.495 110.568C156.085 110.568 155.743 110.884 155.743 111.264C155.743 111.643 156.085 111.959 156.495 111.959Z" fill="white"/>
<path d="M156.358 116.447V118.913C156.358 119.355 155.675 119.355 155.675 118.913V116.447H154.717L155.743 113.16H155.538L154.922 114.993C154.786 115.373 154.17 115.246 154.307 114.804L154.991 112.781C155.059 112.528 155.401 112.148 155.948 112.148H156.427H156.974C157.521 112.148 157.863 112.591 157.931 112.781L158.615 114.804C158.752 115.246 158.137 115.436 158 114.993L157.384 113.16H157.179L158.205 116.447H157.248V118.913C157.248 119.355 156.564 119.355 156.564 118.913V116.447H156.358Z" fill="white"/>
<path d="M150.583 112.212C150.036 112.212 149.626 112.591 149.626 113.16V115.31C149.626 115.752 150.31 115.752 150.31 115.31V113.35H150.447V118.85C150.447 119.419 151.336 119.419 151.336 118.85V115.626H151.473V118.85C151.473 119.419 152.362 119.419 152.362 118.85V113.35H152.498V115.31C152.498 115.752 153.182 115.752 153.182 115.31V113.16C153.182 112.718 152.772 112.212 152.225 112.212H150.583Z" fill="white"/>
<path d="M151.404 111.959C151.819 111.959 152.156 111.648 152.156 111.264C152.156 110.88 151.819 110.568 151.404 110.568C150.988 110.568 150.651 110.88 150.651 111.264C150.651 111.648 150.988 111.959 151.404 111.959Z" fill="white"/>
<path d="M7.5406 239.083H28.7412L28.7412 219.485H7.5406L7.5406 239.083Z" fill="black"/>
<path d="M20.6292 226.385C21.0396 226.385 21.3815 226.069 21.3815 225.69C21.3815 225.31 21.0396 224.994 20.6292 224.994C20.2189 224.994 19.877 225.31 19.877 225.69C19.877 226.069 20.2189 226.385 20.6292 226.385Z" fill="white"/>
<path d="M20.4922 230.811V233.276C20.4922 233.719 19.8084 233.719 19.8084 233.276V230.811H18.8509L19.8767 227.523H19.74L19.1245 229.357C18.9877 229.736 18.3722 229.609 18.509 229.167L19.1928 227.144C19.2612 226.891 19.6032 226.512 20.1503 226.512H20.629H21.1761C21.7233 226.512 22.0652 226.954 22.1336 227.144L22.8175 229.167C22.9543 229.609 22.3388 229.799 22.202 229.357L21.5865 227.523H21.3813L22.4071 230.811H21.4497V233.276C21.4497 233.719 20.7658 233.719 20.7658 233.276V230.811H20.4922Z" fill="white"/>
<path d="M14.7856 226.574C14.2385 226.574 13.8281 226.954 13.8281 227.522V229.672C13.8281 230.114 14.512 230.114 14.512 229.672V227.712H14.6488V233.212C14.6488 233.781 15.5379 233.781 15.5379 233.212V229.988H15.6746V233.212C15.6746 233.781 16.5637 233.781 16.5637 233.212V227.712H16.7005V229.672C16.7005 230.114 17.3844 230.114 17.3844 229.672V227.522C17.3844 227.08 16.974 226.574 16.4269 226.574H14.7856Z" fill="white"/>
<path d="M15.5374 226.385C15.9529 226.385 16.2897 226.074 16.2897 225.69C16.2897 225.305 15.9529 224.994 15.5374 224.994C15.122 224.994 14.7852 225.305 14.7852 225.69C14.7852 226.074 15.122 226.385 15.5374 226.385Z" fill="white"/>
<path d="M7.73652 288.087H113.842V252.204H7.73652V288.087Z" fill="#C4C4C4"/>
<path d="M116.266 287.938H130.012V252.093H116.266V287.938Z" fill="black"/>
<path d="M180.672 220V287.96H169.662L152.701 270.891V246.552L180.672 220Z" fill="#C8A67C"/>
<path d="M127.136 275.885V270.448C127.136 269.879 126.658 269.437 126.042 269.437H120.161C119.545 269.437 119.066 269.879 119.066 270.448V275.885C119.066 276.454 119.545 276.896 120.161 276.896H126.042C126.658 276.833 127.136 276.454 127.136 275.885ZM126.247 276.011H119.955V270.258H126.247V276.011Z" fill="white"/>
<path d="M124.128 265.896C124.128 265.454 124.811 265.454 124.811 265.896V267.667L125.153 267.287C125.427 267.034 125.837 267.414 125.564 267.667L124.675 268.615C124.538 268.741 124.333 268.741 124.196 268.615L123.307 267.667C123.033 267.35 123.512 267.034 123.717 267.287L124.059 267.73L124.128 265.896Z" fill="white"/>
<path d="M121.461 268.427C121.461 268.869 122.145 268.869 122.145 268.427V266.656L122.486 267.036C122.76 267.289 123.17 266.909 122.897 266.656L122.008 265.708C121.871 265.582 121.666 265.582 121.529 265.708L120.64 266.656C120.366 266.972 120.845 267.289 121.05 267.036L121.392 266.593L121.461 268.427Z" fill="white"/>
<path d="M124.948 271.966H123.785C123.648 271.966 123.512 272.092 123.512 272.219V273.546C123.512 273.673 123.58 273.736 123.717 273.736C123.717 273.736 123.785 273.736 123.854 273.736V275.443C123.854 275.759 124.332 275.759 124.332 275.443V273.736H124.401V275.443C124.401 275.759 124.879 275.759 124.879 275.443V273.736C124.948 273.736 125.016 273.736 125.016 273.736C125.153 273.736 125.221 273.673 125.221 273.546V272.219C125.221 272.092 125.085 271.966 124.948 271.966Z" fill="white"/>
<path d="M124.401 271.839C124.589 271.839 124.743 271.698 124.743 271.523C124.743 271.349 124.589 271.207 124.401 271.207C124.212 271.207 124.059 271.349 124.059 271.523C124.059 271.698 124.212 271.839 124.401 271.839Z" fill="white"/>
<path d="M122.486 271.966H121.323C121.187 271.966 121.05 272.092 121.05 272.219V273.546C121.05 273.673 121.118 273.736 121.255 273.736C121.255 273.736 121.323 273.736 121.392 273.736V275.443C121.392 275.759 121.87 275.759 121.87 275.443V273.736H121.939V275.443C121.939 275.759 122.418 275.759 122.418 275.443V273.736C122.486 273.736 122.554 273.736 122.554 273.736C122.691 273.736 122.76 273.673 122.76 273.546V272.219C122.76 272.092 122.623 271.966 122.486 271.966Z" fill="white"/>
<path d="M121.939 271.839C122.128 271.839 122.281 271.698 122.281 271.523C122.281 271.349 122.128 271.207 121.939 271.207C121.75 271.207 121.597 271.349 121.597 271.523C121.597 271.698 121.75 271.839 121.939 271.839Z" fill="white"/>
<path d="M189.434 213.044H210.635V192.751H189.434V213.044Z" fill="black"/>
<path d="M204.073 207.545V202.108C204.073 201.539 203.594 201.097 202.979 201.097H197.097C196.482 201.097 196.003 201.539 196.003 202.108V207.545C196.003 208.114 196.482 208.556 197.097 208.556H202.979C203.594 208.556 204.073 208.114 204.073 207.545ZM203.184 207.735H196.892V201.982H203.184V207.735Z" fill="white"/>
<path d="M200.996 197.557C200.996 197.114 201.68 197.114 201.68 197.557V199.327L202.022 198.947C202.295 198.694 202.706 199.074 202.432 199.327L201.543 200.275C201.406 200.401 201.201 200.401 201.064 200.275L200.175 199.327C199.902 199.011 200.38 198.694 200.585 198.947L200.927 199.39L200.996 197.557Z" fill="white"/>
<path d="M198.397 200.088C198.397 200.53 199.081 200.53 199.081 200.088V198.318L199.423 198.697C199.697 198.95 200.107 198.57 199.833 198.318L198.944 197.369C198.807 197.243 198.602 197.243 198.466 197.369L197.576 198.318C197.303 198.634 197.782 198.95 197.987 198.697L198.329 198.254L198.397 200.088Z" fill="white"/>
<path d="M201.884 203.688H200.722C200.585 203.688 200.448 203.815 200.448 203.941V205.269C200.448 205.395 200.517 205.459 200.653 205.459C200.653 205.459 200.722 205.459 200.79 205.459V207.165C200.79 207.482 201.269 207.482 201.269 207.165V205.459H201.337V207.165C201.337 207.482 201.816 207.482 201.816 207.165V205.459C201.884 205.459 201.953 205.459 201.953 205.459C202.09 205.459 202.158 205.395 202.158 205.269V203.941C202.158 203.752 202.021 203.688 201.884 203.688Z" fill="white"/>
<path d="M201.269 203.498C201.458 203.498 201.611 203.357 201.611 203.182C201.611 203.008 201.458 202.866 201.269 202.866C201.08 202.866 200.927 203.008 200.927 203.182C200.927 203.357 201.08 203.498 201.269 203.498Z" fill="white"/>
<path d="M199.354 203.688H198.192C198.055 203.688 197.918 203.815 197.918 203.941V205.269C197.918 205.395 197.986 205.459 198.123 205.459C198.123 205.459 198.192 205.459 198.26 205.459V207.165C198.26 207.482 198.739 207.482 198.739 207.165V205.459H198.807V207.165C198.807 207.482 199.286 207.482 199.286 207.165V205.459C199.354 205.459 199.423 205.459 199.423 205.459C199.559 205.459 199.628 205.395 199.628 205.269V203.941C199.628 203.752 199.559 203.688 199.354 203.688Z" fill="white"/>
<path d="M198.807 203.498C198.996 203.498 199.149 203.357 199.149 203.182C199.149 203.008 198.996 202.866 198.807 202.866C198.618 202.866 198.465 203.008 198.465 203.182C198.465 203.357 198.618 203.498 198.807 203.498Z" fill="white"/>
<path d="M66.994 239.08H98.7266V218.724H66.994V239.08Z" fill="black"/>
<path d="M39.4602 216.207V239.092H64.6274V216.207H98.7535V155.644H7.62402V216.207H39.4602Z" fill="#C4C4C4"/>
<path d="M86.9224 233.592V228.155C86.9224 227.586 86.4437 227.144 85.8282 227.144H80.0151C79.3996 227.144 78.9209 227.586 78.9209 228.155V233.592C78.9209 234.161 79.3996 234.603 80.0151 234.603H85.8966C86.4437 234.54 86.9224 234.161 86.9224 233.592ZM86.0334 233.718H79.7416V227.965H86.0334V233.718Z" fill="white"/>
<path d="M83.9128 223.603C83.9128 223.161 84.5967 223.161 84.5967 223.603V225.373L84.9386 224.994C85.2122 224.741 85.6225 225.121 85.349 225.373L84.4599 226.322C84.3231 226.448 84.1179 226.448 83.9812 226.322L83.0921 225.373C82.8185 225.057 83.2973 224.741 83.5024 224.994L83.8444 225.437L83.9128 223.603Z" fill="white"/>
<path d="M81.2458 226.134C81.2458 226.576 81.9297 226.576 81.9297 226.134V224.363L82.2716 224.743C82.5452 224.996 82.9555 224.616 82.6819 224.363L81.7929 223.415C81.6561 223.289 81.4509 223.289 81.3142 223.415L80.4251 224.363C80.1515 224.68 80.6303 224.996 80.8354 224.743L81.1774 224.3L81.2458 226.134Z" fill="white"/>
<path d="M84.734 229.673H83.5714C83.4346 229.673 83.2979 229.799 83.2979 229.926V231.253C83.2979 231.38 83.3662 231.443 83.503 231.443C83.503 231.443 83.5714 231.443 83.6398 231.443V233.15C83.6398 233.466 84.1185 233.466 84.1185 233.15V231.443H84.1869V233.15C84.1869 233.466 84.6656 233.466 84.6656 233.15V231.443C84.734 231.443 84.8024 231.443 84.8024 231.443C84.9392 231.443 85.0076 231.38 85.0076 231.253V229.926C85.0076 229.799 84.8708 229.673 84.734 229.673Z" fill="white"/>
<path d="M84.1867 229.546C84.3755 229.546 84.5286 229.405 84.5286 229.23C84.5286 229.056 84.3755 228.914 84.1867 228.914C83.9978 228.914 83.8447 229.056 83.8447 229.23C83.8447 229.405 83.9978 229.546 84.1867 229.546Z" fill="white"/>
<path d="M82.2721 229.673H81.1095C80.9727 229.673 80.8359 229.799 80.8359 229.926V231.253C80.8359 231.38 80.9043 231.443 81.0411 231.443C81.0411 231.443 81.1095 231.443 81.1779 231.443V233.15C81.1779 233.466 81.6566 233.466 81.6566 233.15V231.443H81.725V233.15C81.725 233.466 82.2037 233.466 82.2037 233.15V231.443C82.2721 231.443 82.3405 231.443 82.3405 231.443C82.4773 231.443 82.5457 231.38 82.5457 231.253V229.926C82.5457 229.799 82.4089 229.673 82.2721 229.673Z" fill="white"/>
<path d="M81.7247 229.546C81.9136 229.546 82.0667 229.405 82.0667 229.23C82.0667 229.056 81.9136 228.914 81.7247 228.914C81.5359 228.914 81.3828 229.056 81.3828 229.23C81.3828 229.405 81.5359 229.546 81.7247 229.546Z" fill="white"/>
<path d="M168.071 77.4131H206.438V38.4706L168.071 38.4706V77.4131Z" fill="#C4C4C4"/>
<path d="M256.225 124.698H269.971V88.8535H256.225V124.698Z" fill="black"/>
<path d="M267.128 112.592V107.155C267.128 106.586 266.649 106.144 266.033 106.144H260.152C259.536 106.144 259.058 106.586 259.058 107.155V112.592C259.058 113.161 259.536 113.603 260.152 113.603H266.033C266.649 113.603 267.128 113.161 267.128 112.592ZM266.239 112.782H259.947V107.029H266.239V112.782Z" fill="white"/>
<path d="M264.119 102.603C264.119 102.161 264.803 102.161 264.803 102.603V104.374L265.145 103.994C265.418 103.741 265.829 104.121 265.555 104.374L264.666 105.322C264.529 105.448 264.324 105.448 264.187 105.322L263.298 104.374C263.025 104.057 263.503 103.741 263.708 103.994L264.05 104.437L264.119 102.603Z" fill="white"/>
<path d="M261.452 105.134C261.452 105.576 262.136 105.576 262.136 105.134V103.363L262.478 103.743C262.751 103.996 263.162 103.616 262.888 103.363L261.999 102.415C261.862 102.289 261.657 102.289 261.52 102.415L260.631 103.363C260.358 103.68 260.836 103.996 261.042 103.743L261.383 103.3L261.452 105.134Z" fill="white"/>
<path d="M264.939 108.735H263.777C263.64 108.735 263.503 108.862 263.503 108.988V110.316C263.503 110.442 263.571 110.505 263.708 110.505C263.708 110.505 263.776 110.505 263.845 110.505V112.212C263.845 112.528 264.324 112.528 264.324 112.212V110.505H264.392V112.212C264.392 112.528 264.871 112.528 264.871 112.212V110.505C264.939 110.505 265.008 110.505 265.008 110.505C265.144 110.505 265.213 110.442 265.213 110.316V108.988C265.213 108.799 265.076 108.735 264.939 108.735Z" fill="white"/>
<path d="M264.392 108.545C264.581 108.545 264.734 108.404 264.734 108.229C264.734 108.055 264.581 107.913 264.392 107.913C264.203 107.913 264.05 108.055 264.05 108.229C264.05 108.404 264.203 108.545 264.392 108.545Z" fill="white"/>
<path d="M262.477 108.735H261.315C261.178 108.735 261.041 108.862 261.041 108.988V110.316C261.041 110.442 261.109 110.505 261.246 110.505C261.246 110.505 261.315 110.505 261.383 110.505V112.212C261.383 112.528 261.862 112.528 261.862 112.212V110.505H261.93V112.212C261.93 112.528 262.409 112.528 262.409 112.212V110.505C262.477 110.505 262.546 110.505 262.546 110.505C262.682 110.505 262.751 110.442 262.751 110.316V108.988C262.751 108.799 262.614 108.735 262.477 108.735Z" fill="white"/>
<path d="M261.861 108.545C262.05 108.545 262.203 108.404 262.203 108.229C262.203 108.055 262.05 107.913 261.861 107.913C261.673 107.913 261.52 108.055 261.52 108.229C261.52 108.404 261.673 108.545 261.861 108.545Z" fill="white"/>
<path d="M232.654 145.19H269.994V132.041H232.654V145.19Z" fill="black"/>
<path d="M254.211 161.984H308.369V126.102H278.507V147.75H254.211V161.984Z" fill="#C4C4C4"/>
<path d="M278.527 125.076H308.369V64.5883H278.527V125.076Z" fill="#DAC452"/>
<path d="M265.264 54.3369L308.369 54.3369V6.15161L265.264 6.15161V54.3369Z" fill="#DAC452"/>
<path d="M213.315 54.3369L259.736 54.3369V6.15161L213.315 6.15161V54.3369Z" fill="#DAC452"/>
<path d="M250.51 136.046C250.92 136.046 251.262 135.73 251.262 135.351C251.262 134.971 250.92 134.655 250.51 134.655C250.1 134.655 249.758 134.971 249.758 135.351C249.758 135.73 250.1 136.046 250.51 136.046Z" fill="white"/>
<path d="M255.502 135.414H253.793C253.451 135.414 252.972 135.541 252.698 135.793L251.125 137.247V136.805C251.125 135.92 249.689 135.92 249.689 136.805V138.512L248.321 139.776C248.185 139.903 248.185 139.903 247.911 139.903H247.09C246.27 139.903 245.723 140.598 245.723 141.167C245.723 141.736 246.201 142.495 247.159 142.495C247.159 142.495 248.321 142.495 248.663 142.495C249.005 142.495 249.416 142.368 249.758 142.052L254.135 138.069C254.203 138.006 254.271 137.943 254.408 137.943C254.408 137.943 255.024 137.943 255.502 137.943C256.049 137.943 256.733 137.374 256.733 136.615C256.802 135.92 256.118 135.414 255.502 135.414ZM255.434 137.374H254.545C254.135 137.374 253.998 137.437 253.793 137.627L249.416 141.673C249.211 141.862 249.005 141.926 248.732 141.926H247.296C246.954 141.926 246.612 141.609 246.612 141.23C246.612 140.851 246.954 140.661 247.227 140.661H248.185C248.458 140.661 248.663 140.598 248.8 140.408L253.245 136.299C253.451 136.109 253.587 136.109 253.929 136.109H255.434C255.776 136.109 256.049 136.489 256.049 136.742C256.049 136.995 255.913 137.374 255.434 137.374Z" fill="white"/>
<path d="M116.242 324.729H153.582V311.58H116.242V324.729Z" fill="black"/>
<path d="M134.112 315.572C134.522 315.572 134.864 315.256 134.864 314.877C134.864 314.498 134.522 314.182 134.112 314.182C133.701 314.182 133.359 314.498 133.359 314.877C133.359 315.256 133.701 315.572 134.112 315.572Z" fill="white"/>
<path d="M139.104 314.94H137.463C137.121 314.94 136.642 315.067 136.368 315.32L134.795 316.774V316.331C134.795 315.446 133.359 315.446 133.359 316.331V318.038L131.991 319.303C131.855 319.429 131.855 319.429 131.581 319.429H130.76C129.94 319.429 129.393 320.124 129.393 320.693C129.393 321.262 129.871 322.021 130.829 322.021C130.829 322.021 131.991 322.021 132.333 322.021C132.675 322.021 133.086 321.895 133.428 321.578L137.804 317.596C137.873 317.532 137.941 317.469 138.078 317.469C138.078 317.469 138.694 317.469 139.172 317.469C139.719 317.469 140.403 316.9 140.403 316.142C140.403 315.446 139.651 314.94 139.104 314.94ZM139.035 316.9H138.146C137.736 316.9 137.599 316.963 137.394 317.153L133.017 321.199C132.812 321.389 132.607 321.452 132.333 321.452H130.897C130.555 321.452 130.213 321.136 130.213 320.757C130.213 320.377 130.555 320.188 130.829 320.188H131.786C132.06 320.188 132.265 320.124 132.402 319.935L136.847 315.826C137.052 315.636 137.189 315.636 137.531 315.636H139.035C139.377 315.636 139.651 316.015 139.651 316.268C139.651 316.521 139.514 316.9 139.035 316.9Z" fill="white"/>
<path d="M189.592 184.408H226.933V171.259H189.592V184.408Z" fill="black"/>
<path d="M207.423 175.241C207.834 175.241 208.176 174.925 208.176 174.546C208.176 174.167 207.834 173.851 207.423 173.851C207.013 173.851 206.671 174.167 206.671 174.546C206.671 174.925 207.013 175.241 207.423 175.241Z" fill="white"/>
<path d="M212.485 174.609H210.775C210.433 174.609 209.954 174.736 209.681 174.989L208.108 176.443V176C208.108 175.115 206.672 175.115 206.672 176V177.707L205.304 178.971C205.167 179.098 205.167 179.098 204.894 179.098H204.073C203.252 179.098 202.705 179.793 202.705 180.362C202.705 180.931 203.184 181.69 204.141 181.69C204.141 181.69 205.304 181.69 205.646 181.69C205.988 181.69 206.398 181.563 206.74 181.247L211.117 177.265C211.185 177.201 211.254 177.138 211.39 177.138C211.39 177.138 212.006 177.138 212.485 177.138C213.032 177.138 213.716 176.569 213.716 175.811C213.716 175.115 213.032 174.609 212.485 174.609ZM212.348 176.569H211.459C211.049 176.569 210.912 176.632 210.707 176.822L206.33 180.868C206.125 181.058 205.919 181.121 205.646 181.121H204.21C203.868 181.121 203.526 180.805 203.526 180.426C203.526 180.046 203.868 179.857 204.141 179.857H205.099C205.372 179.857 205.577 179.793 205.714 179.604L210.159 175.494C210.365 175.305 210.501 175.305 210.843 175.305H212.348C212.69 175.305 212.963 175.684 212.963 175.937C212.963 176.19 212.827 176.569 212.348 176.569Z" fill="white"/>
<path d="M232.654 77.3271H269.994V64.1777H232.654V77.3271Z" fill="black"/>
<path d="M250.51 68.2121C250.92 68.2121 251.262 67.896 251.262 67.5167C251.262 67.1374 250.92 66.8213 250.51 66.8213C250.1 66.8213 249.758 67.1374 249.758 67.5167C249.758 67.896 250.1 68.2121 250.51 68.2121Z" fill="white"/>
<path d="M255.502 67.5801H253.793C253.451 67.5801 252.972 67.7065 252.698 67.9594L251.125 69.4134V68.9709C251.125 68.0858 249.689 68.0858 249.689 68.9709V70.6778L248.321 71.9421C248.185 72.0686 248.185 72.0686 247.911 72.0686H247.09C246.27 72.0686 245.723 72.764 245.723 73.3329C245.723 73.9019 246.201 74.6605 247.159 74.6605C247.159 74.6605 248.321 74.6605 248.663 74.6605C249.005 74.6605 249.416 74.5341 249.758 74.218L254.135 70.2352C254.203 70.172 254.271 70.1088 254.408 70.1088C254.408 70.1088 255.024 70.1088 255.502 70.1088C256.049 70.1088 256.733 69.5398 256.733 68.7812C256.802 68.0858 256.118 67.5801 255.502 67.5801ZM255.434 69.4766H254.545C254.135 69.4766 253.998 69.5398 253.793 69.7295L249.416 73.7755C249.211 73.9651 249.005 74.0283 248.732 74.0283H247.296C246.954 74.0283 246.612 73.7122 246.612 73.3329C246.612 72.9536 246.954 72.764 247.227 72.764H248.185C248.458 72.764 248.663 72.7007 248.8 72.5111L253.245 68.4019C253.451 68.2123 253.587 68.2123 253.929 68.2123H255.434C255.776 68.2123 256.049 68.5916 256.049 68.8444C256.049 69.0973 255.913 69.4766 255.434 69.4766Z" fill="white"/>
<path d="M101.739 173.007H149.543V155.622H101.739V173.007Z" fill="#C8A67C"/>
<path d="M102 220H150V204H102V220Z" fill="#C8A67C"/>
<path d="M120.163 200.94H149.57V190.257H120.163V200.94Z" fill="#C8A67C"/>
<path d="M101.832 218.736H149.568V220.823L130.008 239.093H101.832V218.736Z" fill="#C8A67C"/>
<path d="M101.832 147.741L129.188 129.281L149.568 137.5V153.115H101.832V147.741Z" fill="#C8A67C"/>
<path d="M117.288 200.971V187.696H149.568V175.558H101.832V200.971H117.288Z" fill="#C8A67C"/>
<path d="M171.411 10H176.326V8.73224H172.949V6.99574H176.059V5.72798H172.949V3.99503H176.312V2.72727H171.411V10ZM178.788 10L179.327 8.34162H181.952L182.491 10H184.139L181.632 2.72727H179.65L177.14 10H178.788ZM179.718 7.14134L180.613 4.3892H180.67L181.565 7.14134H179.718ZM188.794 4.81889H190.267C190.246 3.52273 189.181 2.62784 187.562 2.62784C185.967 2.62784 184.799 3.50852 184.806 4.82955C184.802 5.90199 185.559 6.51634 186.787 6.81108L187.579 7.00994C188.371 7.2017 188.812 7.42898 188.815 7.91903C188.812 8.4517 188.307 8.81392 187.526 8.81392C186.727 8.81392 186.152 8.4446 186.102 7.71662H184.614C184.653 9.28977 185.779 10.103 187.544 10.103C189.319 10.103 190.363 9.25426 190.367 7.92259C190.363 6.71165 189.451 6.06889 188.187 5.7848L187.533 5.62855C186.901 5.48295 186.372 5.24858 186.383 4.72656C186.383 4.25781 186.798 3.91335 187.551 3.91335C188.286 3.91335 188.737 4.24716 188.794 4.81889ZM191.124 3.99503H193.351V10H194.871V3.99503H197.097V2.72727H191.124V3.99503ZM160.851 15.995H163.077V22H164.597V15.995H166.824V14.7273H160.851V15.995ZM174.168 18.3636C174.168 15.9844 172.691 14.6278 170.763 14.6278C168.824 14.6278 167.357 15.9844 167.357 18.3636C167.357 20.7322 168.824 22.0994 170.763 22.0994C172.691 22.0994 174.168 20.7429 174.168 18.3636ZM172.609 18.3636C172.609 19.9048 171.878 20.7393 170.763 20.7393C169.644 20.7393 168.916 19.9048 168.916 18.3636C168.916 16.8224 169.644 15.9879 170.763 15.9879C171.878 15.9879 172.609 16.8224 172.609 18.3636ZM176.671 22H178.17L179.551 17.245H179.608L180.993 22H182.491L184.572 14.7273H182.893L181.689 19.7912H181.625L180.3 14.7273H178.862L177.534 19.7805H177.474L176.27 14.7273H174.59L176.671 22ZM185.395 22H190.31V20.7322H186.933V18.9957H190.044V17.728H186.933V15.995H190.296V14.7273H185.395V22ZM191.518 22H193.056V19.4219H194.178L195.556 22H197.253L195.709 19.1733C196.536 18.8182 196.994 18.0973 196.994 17.103C196.994 15.6577 196.039 14.7273 194.388 14.7273H191.518V22ZM193.056 18.1861V15.9844H194.093C194.981 15.9844 195.41 16.3786 195.41 17.103C195.41 17.8239 194.981 18.1861 194.1 18.1861H193.056Z" fill="black"/>
<path d="M195.359 314.945H196.858L198.239 310.19H198.296L199.681 314.945H201.179L203.26 307.673H201.581L200.377 312.737H200.313L198.988 307.673H197.55L196.222 312.726H196.162L194.958 307.673H193.278L195.359 314.945ZM204.083 314.945H208.998V313.678H205.621V311.941H208.732V310.673H205.621V308.94H208.984V307.673H204.083V314.945ZM214.152 309.764H215.625C215.604 308.468 214.539 307.573 212.919 307.573C211.325 307.573 210.157 308.454 210.164 309.775C210.16 310.847 210.917 311.462 212.145 311.756L212.937 311.955C213.729 312.147 214.169 312.374 214.173 312.864C214.169 313.397 213.665 313.759 212.884 313.759C212.085 313.759 211.51 313.39 211.46 312.662H209.972C210.011 314.235 211.137 315.048 212.902 315.048C214.677 315.048 215.721 314.2 215.725 312.868C215.721 311.657 214.809 311.014 213.544 310.73L212.891 310.574C212.259 310.428 211.73 310.194 211.74 309.672C211.74 309.203 212.156 308.859 212.909 308.859C213.644 308.859 214.095 309.192 214.152 309.764ZM216.482 308.94H218.709V314.945H220.229V308.94H222.455V307.673H216.482V308.94ZM193.445 320.94H195.672V326.945H197.191V320.94H199.418V319.673H193.445V320.94ZM206.763 323.309C206.763 320.93 205.285 319.573 203.357 319.573C201.418 319.573 199.952 320.93 199.952 323.309C199.952 325.678 201.418 327.045 203.357 327.045C205.285 327.045 206.763 325.688 206.763 323.309ZM205.204 323.309C205.204 324.85 204.472 325.685 203.357 325.685C202.238 325.685 201.51 324.85 201.51 323.309C201.51 321.768 202.238 320.933 203.357 320.933C204.472 320.933 205.204 321.768 205.204 323.309ZM209.265 326.945H210.764L212.145 322.19H212.202L213.587 326.945H215.086L217.167 319.673H215.487L214.283 324.737H214.219L212.895 319.673H211.456L210.128 324.726H210.068L208.864 319.673H207.184L209.265 326.945ZM217.99 326.945H222.904V325.678H219.527V323.941H222.638V322.673H219.527V320.94H222.89V319.673H217.99V326.945ZM224.113 326.945H225.65V324.367H226.772L228.15 326.945H229.848L228.303 324.119C229.13 323.763 229.588 323.043 229.588 322.048C229.588 320.603 228.633 319.673 226.982 319.673H224.113V326.945ZM225.65 323.131V320.93H226.687C227.575 320.93 228.005 321.324 228.005 322.048C228.005 322.769 227.575 323.131 226.694 323.131H225.65Z" fill="black"/>
<path d="M16.5156 11H10.1563L2.23438 16.0156V22.0156L9.5625 17.4219H9.75V43H16.5156V11ZM24.3086 43H31.0742V29.7812H44.0898V24.2031H31.0742V16.5781H45.4961V11H24.3086V43Z" fill="black"/>
<path d="M278.52 32.7035C279.633 32.7035 280.123 31.9055 280.123 30.9325V27.4255H279.087V30.8485C279.087 31.5625 278.849 31.8075 278.394 31.8075C278.1 31.8075 277.827 31.6465 277.624 31.2685L276.91 31.7935C277.26 32.3955 277.764 32.7035 278.52 32.7035ZM282.919 32.7035C284.116 32.7035 284.823 31.9825 284.823 31.1355C284.823 30.3865 284.41 29.9875 283.78 29.7285L283.101 29.4415C282.66 29.2665 282.289 29.1335 282.289 28.7625C282.289 28.4195 282.583 28.2165 283.038 28.2165C283.465 28.2165 283.808 28.3705 284.137 28.6435L284.662 27.9925C284.242 27.5655 283.64 27.3275 283.038 27.3275C281.988 27.3275 281.246 27.9785 281.246 28.8255C281.246 29.5815 281.771 30.0015 282.296 30.2185L282.989 30.5125C283.451 30.7085 283.766 30.8275 283.766 31.2125C283.766 31.5765 283.479 31.8075 282.94 31.8075C282.485 31.8075 281.995 31.5765 281.624 31.2335L281.029 31.9475C281.533 32.4305 282.226 32.7035 282.919 32.7035ZM285.698 27.4185V28.1675H287.805C287.637 29.5955 286.839 30.6175 285.341 31.3875L285.859 32.0945C288.001 31.0095 288.736 29.3505 288.736 27.4185H285.698ZM291.354 29.2175H290.451V26.7535H289.527V33.1935H290.451V29.9805H291.354V29.2175ZM297.037 28.6855H293.474V27.7265H296.988V26.9915H292.557V29.4205H297.037V28.6855ZM293.46 31.1635H292.536V33.0955H297.086V32.3605H293.46V31.1635ZM291.85 29.9455V30.6805H297.681V29.9455H291.85Z" fill="black"/>
<path d="M289.056 94.2377H286.782V93.6677H289.056V94.2377ZM289.836 92.4197H289.056V93.0497H286.782V92.4197H285.996V94.8677H289.836V92.4197ZM290.43 95.3897H285.426V96.0197H287.514V97.7417H288.306V96.0197H290.43V95.3897ZM294.57 93.4397H291.528V95.1137H295.506V94.4897H292.338V94.0337H295.374V92.3837H291.522V93.0077H294.57V93.4397ZM295.95 95.5157H290.946V96.1517H293.04V97.7477H293.832V96.1517H295.95V95.5157ZM297.017 96.5057H300.083V97.7537H300.875V95.8817H297.017V96.5057ZM299.357 94.8797V94.3997H300.917V93.7757H297.863V93.0557H300.869V92.4317H297.077V94.3997H298.565V94.8797H296.471V95.5097H301.463V94.8797H299.357Z" fill="black"/>
<path d="M228.715 31.0515C228.365 31.0515 228.113 30.7715 228.113 30.2885C228.113 29.8055 228.365 29.5185 228.715 29.5185C229.065 29.5185 229.317 29.8055 229.317 30.2885C229.317 30.7715 229.065 31.0515 228.715 31.0515ZM228.715 28.7485C227.889 28.7485 227.301 29.3855 227.301 30.2885C227.301 31.1845 227.889 31.8215 228.715 31.8215C229.541 31.8215 230.129 31.1845 230.129 30.2885C230.129 29.3855 229.541 28.7485 228.715 28.7485ZM229.17 26.9355H228.26V27.7335H227.161V28.4685H230.241V27.7335H229.17V26.9355ZM231.823 26.7535V29.3855H231.333V26.8795H230.472V32.9345H231.333V30.1275H231.823V33.2005H232.698V26.7535H231.823ZM236.513 27.7125C237.353 27.7125 237.892 27.9645 237.892 28.4265C237.892 28.8955 237.353 29.1475 236.513 29.1475C235.666 29.1475 235.127 28.8955 235.127 28.4265C235.127 27.9645 235.666 27.7125 236.513 27.7125ZM236.513 29.8825C237.885 29.8825 238.844 29.3155 238.844 28.4265C238.844 27.5515 237.885 26.9775 236.513 26.9775C235.134 26.9775 234.182 27.5515 234.182 28.4265C234.182 29.3155 235.134 29.8825 236.513 29.8825ZM239.446 30.3655H233.608V31.1075H236.044V33.2145H236.968V31.1075H239.446V30.3655ZM241.335 29.7985H243.428V27.3065H240.383V28.0415H242.483V29.0705H240.39V31.7235H240.971C242.14 31.7235 243.085 31.6815 244.135 31.4995L244.037 30.7505C243.127 30.9045 242.315 30.9535 241.335 30.9605V29.7985ZM244.485 26.7535V33.2215H245.409V26.7535H244.485Z" fill="black"/>
<path d="M120.602 145.049C119.354 144.833 118.67 143.975 118.67 143.165V142.769H117.824V143.165C117.824 143.957 117.134 144.833 115.892 145.049L116.228 145.709C117.188 145.523 117.89 144.983 118.244 144.281C118.598 144.983 119.306 145.517 120.266 145.709L120.602 145.049ZM115.772 146.657V147.299H120.776V146.657H115.772ZM125.881 142.445H125.083V145.319H125.881V142.445ZM124.633 144.449C123.931 144.545 123.319 144.563 122.377 144.563V144.209H124.087V143.621H122.377V143.279H124.249V142.667H121.591V145.181H122.065C123.217 145.181 123.907 145.175 124.699 145.067L124.633 144.449ZM122.989 147.335V146.993H125.881V145.535H122.197V146.129H125.095V146.441H122.203V147.929H126.019V147.335H122.989ZM130.387 144.101H128.233V143.669H130.387V144.101ZM131.173 142.589H130.387V143.075H128.233V142.589H127.447V144.719H131.173V142.589ZM131.809 145.703V145.073H126.811V145.703H128.905V146.171H127.363V146.795H130.411V147.977H131.203V146.171H129.697V145.703H131.809ZM137.16 145.049C135.912 144.833 135.228 143.975 135.228 143.165V142.769H134.382V143.165C134.382 143.957 133.692 144.833 132.45 145.049L132.786 145.709C133.746 145.523 134.448 144.983 134.802 144.281C135.156 144.983 135.864 145.517 136.824 145.709L137.16 145.049ZM132.33 146.657V147.299H137.334V146.657H132.33Z" fill="black"/>
<path d="M115.884 163.73C115.884 163.166 116.406 162.836 117.162 162.836C117.924 162.836 118.446 163.166 118.446 163.73C118.446 164.294 117.924 164.624 117.162 164.624C116.406 164.624 115.884 164.294 115.884 163.73ZM117.558 166.166V165.23C118.536 165.116 119.226 164.552 119.226 163.73C119.226 162.806 118.344 162.206 117.162 162.206C115.986 162.206 115.104 162.806 115.104 163.73C115.104 164.552 115.794 165.11 116.766 165.23V166.166H114.666V166.808H119.67V166.166H117.558ZM123.845 163.52H120.761V165.386H124.751V164.756H121.547V164.138H124.625V162.296H120.755V162.926H123.845V163.52ZM120.185 166.178V166.826H125.189V166.178H120.185ZM126.923 163.73C126.923 163.166 127.445 162.836 128.201 162.836C128.963 162.836 129.485 163.166 129.485 163.73C129.485 164.294 128.963 164.624 128.201 164.624C127.445 164.624 126.923 164.294 126.923 163.73ZM128.597 166.166V165.23C129.575 165.116 130.265 164.552 130.265 163.73C130.265 162.806 129.383 162.206 128.201 162.206C127.025 162.206 126.143 162.806 126.143 163.73C126.143 164.552 126.833 165.11 127.805 165.23V166.166H125.705V166.808H130.709V166.166H128.597ZM134.884 163.52H131.8V165.386H135.79V164.756H132.586V164.138H135.664V162.296H131.794V162.926H134.884V163.52ZM131.224 166.178V166.826H136.228V166.178H131.224Z" fill="black"/>
<path d="M122.232 180.181H121.32V179.491H120.54V180.181H119.628V180.817H122.232V180.181ZM120.918 183.037C120.636 183.037 120.426 182.797 120.426 182.377C120.426 181.963 120.636 181.723 120.918 181.723C121.206 181.723 121.41 181.963 121.41 182.377C121.41 182.797 121.206 183.037 120.918 183.037ZM120.918 181.063C120.234 181.063 119.742 181.609 119.742 182.377C119.742 183.151 120.234 183.691 120.918 183.691C121.602 183.691 122.094 183.151 122.094 182.377C122.094 181.609 121.602 181.063 120.918 181.063ZM122.556 181.387H122.1V182.041H122.556V184.633H123.288V179.449H122.556V181.387ZM123.624 179.353V184.879H124.374V179.353H123.624ZM126.635 182.965C126.221 182.965 125.945 182.527 125.945 181.705C125.945 180.889 126.221 180.451 126.635 180.451C127.043 180.451 127.325 180.889 127.325 181.705C127.325 182.527 127.043 182.965 126.635 182.965ZM126.635 179.737C125.795 179.737 125.183 180.493 125.183 181.705C125.183 182.923 125.795 183.685 126.635 183.685C127.469 183.685 128.087 182.923 128.087 181.705C128.087 180.493 127.469 179.737 126.635 179.737ZM130.283 181.435H129.479V179.353H128.687V184.879H129.479V182.089H130.283V181.435Z" fill="black"/>
<path d="M117.315 221.582H116.265V220.802H117.315V221.582ZM118.089 221.096H119.073V223.07H119.865V218.996H119.073V220.46H118.089V219.362H117.315V220.196H116.265V219.356H115.479V222.212H118.089V221.096ZM117.009 223.79V222.674H116.217V224.42H119.985V223.79H117.009ZM120.975 219.674V220.304H122.373C122.271 221.39 121.803 222.188 120.693 222.836L121.155 223.388C122.697 222.488 123.153 221.222 123.153 219.674H120.975ZM124.743 218.99V221.072H124.251V219.134H123.513V224.282H124.251V221.708H124.743V224.516H125.499V218.99H124.743ZM129.578 221.498C128.708 221.24 128.33 220.622 128.318 219.992H129.398V219.356H126.41V219.992H127.508C127.496 220.682 127.1 221.384 126.206 221.684L126.602 222.302C127.25 222.092 127.688 221.654 127.934 221.108C128.174 221.564 128.594 221.93 129.2 222.11L129.578 221.498ZM128.828 223.91C128.12 223.91 127.742 223.76 127.742 223.448C127.742 223.13 128.12 222.98 128.828 222.98C129.53 222.98 129.908 223.13 129.908 223.448C129.908 223.76 129.53 223.91 128.828 223.91ZM128.828 222.368C127.676 222.368 126.956 222.77 126.956 223.448C126.956 224.12 127.676 224.516 128.828 224.516C129.974 224.516 130.694 224.12 130.694 223.448C130.694 222.77 129.974 222.368 128.828 222.368ZM130.634 220.262V218.99H129.842V222.272H130.634V220.91H131.366V220.262H130.634ZM132.842 221.606H134.426V220.988H132.842V220.088H134.612V219.452H132.056V223.274H132.506C133.436 223.274 134.144 223.256 134.942 223.13L134.87 222.494C134.192 222.602 133.586 222.632 132.842 222.638V221.606ZM135.65 218.984V220.934H134.702V221.57H135.65V224.528H136.442V218.984H135.65Z" fill="black"/>
<path d="M163.667 256.806C163.253 256.806 162.977 256.368 162.977 255.546C162.977 254.73 163.253 254.292 163.667 254.292C164.075 254.292 164.357 254.73 164.357 255.546C164.357 256.368 164.075 256.806 163.667 256.806ZM163.667 253.578C162.827 253.578 162.215 254.334 162.215 255.546C162.215 256.764 162.827 257.526 163.667 257.526C164.501 257.526 165.119 256.764 165.119 255.546C165.119 254.334 164.501 253.578 163.667 253.578ZM167.315 255.276H166.511V253.194H165.719V258.72H166.511V255.93H167.315V255.276ZM169.733 255.522H168.647V254.838H169.733V255.522ZM170.513 253.548H169.733V254.232H168.647V253.548H167.867V256.14H170.513V253.548ZM170.243 258.114C169.541 258.114 169.163 257.964 169.163 257.652C169.163 257.34 169.541 257.19 170.243 257.19C170.951 257.19 171.329 257.34 171.329 257.652C171.329 257.964 170.951 258.114 170.243 258.114ZM170.243 256.572C169.097 256.572 168.377 256.974 168.377 257.652C168.377 258.324 169.097 258.732 170.243 258.732C171.395 258.732 172.115 258.324 172.115 257.652C172.115 256.974 171.395 256.572 170.243 256.572ZM172.055 254.484V253.2H171.263V256.452H172.055V255.132H172.787V254.484H172.055ZM158.286 263.782H157.566V262.588H158.286V263.782ZM159.534 262.216H159.018V260.698H158.286V261.964H157.566V260.692H156.822V264.412H159.018V262.852H159.534V265.48H160.272V260.29H159.534V262.216ZM160.656 260.188V265.714H161.406V260.188H160.656ZM165.971 260.188V265.732H166.763V260.188H165.971ZM163.793 260.578C162.959 260.578 162.341 261.334 162.341 262.546C162.341 263.764 162.959 264.526 163.793 264.526C164.627 264.526 165.245 263.764 165.245 262.546C165.245 261.334 164.627 260.578 163.793 260.578ZM163.793 261.292C164.201 261.292 164.483 261.73 164.483 262.546C164.483 263.368 164.201 263.806 163.793 263.806C163.385 263.806 163.103 263.368 163.103 262.546C163.103 261.73 163.385 261.292 163.793 261.292ZM167.981 260.722V261.352H169.727C169.703 261.616 169.661 261.856 169.607 262.09L167.687 262.198L167.789 262.864L169.367 262.72C169.049 263.326 168.515 263.836 167.657 264.286L168.089 264.886C170.069 263.848 170.513 262.42 170.513 260.722H167.981ZM171.533 260.194V262.312H170.501V262.954H171.533V265.72H172.325V260.194H171.533ZM174.328 262.798H176.122V260.662H173.512V261.292H175.312V262.174H173.518V264.448H174.016C175.018 264.448 175.828 264.412 176.728 264.256L176.644 263.614C175.864 263.746 175.168 263.788 174.328 263.794V262.798ZM177.028 260.188V265.732H177.82V260.188H177.028Z" fill="black"/>
<path d="M126.92 196.149C126.324 195.957 126.076 195.493 126.076 195.025V194.625H125.54V195.021C125.54 195.525 125.28 196.017 124.66 196.217L124.94 196.629C125.36 196.489 125.652 196.201 125.816 195.833C125.976 196.165 126.248 196.429 126.648 196.561L126.92 196.149ZM125.772 196.841H125.244V198.021H127.744V197.601H125.772V196.841ZM127.616 195.469V194.401H127.088V197.097H127.616V195.905H128.104V195.469H127.616ZM129.067 196.145H130.219V195.733H129.067V195.133H130.271V194.705H128.539V197.253H128.851C129.483 197.253 129.979 197.237 130.539 197.153L130.491 196.733C130.011 196.805 129.587 196.825 129.067 196.829V196.145ZM131.815 195.797H131.279V194.401H130.751V198.089H131.279V196.233H131.815V195.797ZM132.707 195.165H133.427V196.773H132.707V195.165ZM132.187 197.189H133.947V194.749H132.187V197.189ZM135.495 195.789H134.959V194.405H134.431V198.085H134.959V196.225H135.495V195.789ZM136.491 196.137H137.687V194.713H135.947V195.133H137.147V195.721H135.951V197.237H136.283C136.951 197.237 137.491 197.213 138.091 197.109L138.035 196.681C137.515 196.769 137.051 196.797 136.491 196.801V196.137ZM138.291 194.397V198.093H138.819V194.397H138.291ZM140.423 196.809C140.147 196.809 139.963 196.517 139.963 195.969C139.963 195.425 140.147 195.133 140.423 195.133C140.695 195.133 140.883 195.425 140.883 195.969C140.883 196.517 140.695 196.809 140.423 196.809ZM140.423 194.657C139.863 194.657 139.455 195.161 139.455 195.969C139.455 196.781 139.863 197.289 140.423 197.289C140.979 197.289 141.391 196.781 141.391 195.969C141.391 195.161 140.979 194.657 140.423 194.657ZM142.855 195.789H142.319V194.401H141.791V198.085H142.319V196.225H142.855V195.789ZM145.046 197.245V196.405H146.098V195.985H144.018V194.681H143.49V196.405H144.518V197.245H143.114V197.673H146.45V197.245H145.046ZM149.934 194.405H149.434V196.301H149.934V194.405ZM147.894 195.781H147.418V195.393H147.894V195.781ZM148.382 195.589H148.686V196.281H149.178V194.465H148.686V195.173H148.382V194.601H147.894V195.005H147.418V194.605H146.922V196.185H148.382V195.589ZM147.966 197.657V197.433H149.934V196.449H147.43V196.853H149.406V197.053H147.438V198.057H150.05V197.657H147.966ZM151.146 196.137H152.314V194.713H150.622V195.133H151.794V195.721H150.626V197.241H150.938C151.578 197.241 152.086 197.217 152.638 197.117L152.59 196.689C152.11 196.773 151.674 196.801 151.146 196.805V196.137ZM153.894 195.789H153.366V194.397H152.838V198.093H153.366V196.225H153.894V195.789Z" fill="black"/>
<path fill-rule="evenodd" clip-rule="evenodd" d="M222.789 74.1964C226.317 73.5871 229 70.5207 229 66.8295C229 62.7001 225.642 59.3525 221.5 59.3525C217.358 59.3525 214 62.7001 214 66.8295C214 70.5207 216.683 73.5871 220.211 74.1964L221.5 79.3525L222.789 74.1964Z" fill="black"/>
<path fill-rule="evenodd" clip-rule="evenodd" d="M222.789 72.1964C226.317 71.5871 229 68.5207 229 64.8295C229 60.7001 225.642 57.3525 221.5 57.3525C217.358 57.3525 214 60.7001 214 64.8295C214 68.5207 216.683 71.5871 220.211 72.1964L221.5 77.3525L222.789 72.1964Z" fill="#FF0000"/>
<ellipse cx="221.5" cy="64.8292" rx="2.5" ry="2.49231" fill="white"/>
<path fill-rule="evenodd" clip-rule="evenodd" d="M168.789 208.196C172.317 207.587 175 204.521 175 200.829C175 196.7 171.642 193.353 167.5 193.353C163.358 193.353 160 196.7 160 200.829C160 204.521 162.683 207.587 166.211 208.196L167.5 213.353L168.789 208.196Z" fill="black"/>
<path fill-rule="evenodd" clip-rule="evenodd" d="M168.789 206.196C172.317 205.587 175 202.521 175 198.829C175 194.7 171.642 191.353 167.5 191.353C163.358 191.353 160 194.7 160 198.829C160 202.521 162.683 205.587 166.211 206.196L167.5 211.353L168.789 206.196Z" fill="#FF0000"/>
<ellipse cx="167.5" cy="198.829" rx="2.5" ry="2.49231" fill="white"/>
<path d="M252.5 59.6924H274.5V128.333" stroke="#FF0000" stroke-width="3" stroke-linecap="round"/>
<path d="M269 128.333H205.5L167 164.331V186.77" stroke="#FF0000" stroke-width="3" stroke-linecap="round"/>
<path d="M6.426 363.14C4.438 363.14 3.276 362.65 3.276 361.768C3.276 360.886 4.438 360.396 6.426 360.396C8.386 360.396 9.548 360.886 9.548 361.768C9.548 362.65 8.386 363.14 6.426 363.14ZM6.426 359.5C3.738 359.5 2.114 360.312 2.114 361.768C2.114 363.224 3.738 364.036 6.426 364.036C9.086 364.036 10.71 363.224 10.71 361.768C10.71 360.312 9.086 359.5 6.426 359.5ZM7 357.68V356.224H10.78V355.3H3.318V352.976H10.696V352.052H2.17V356.224H5.852V357.68H0.742V358.604H12.11V357.68H7ZM23.9249 351.478H22.7769V357.918H23.9249V351.478ZM15.0209 354.726C15.0209 353.634 15.9309 352.864 17.1489 352.864C18.3809 352.864 19.2769 353.634 19.2769 354.726C19.2769 355.804 18.3809 356.574 17.1489 356.574C15.9309 356.574 15.0209 355.804 15.0209 354.726ZM20.3969 354.726C20.3969 353.06 19.0249 351.926 17.1489 351.926C15.2729 351.926 13.9149 353.06 13.9149 354.726C13.9149 356.378 15.2729 357.498 17.1489 357.498C19.0249 357.498 20.3969 356.378 20.3969 354.726ZM16.9529 362.958V361.572H23.9249V358.534H15.7909V359.444H22.7909V360.718H15.8189V363.868H24.3449V362.958H16.9529ZM33.9478 353.018H30.8118V351.478H29.6638V353.018H26.5418V353.942H33.9478V353.018ZM28.3338 356.966C28.3338 356.098 29.1038 355.538 30.2378 355.538C31.3718 355.538 32.1558 356.098 32.1558 356.966C32.1558 357.848 31.3718 358.408 30.2378 358.408C29.1038 358.408 28.3338 357.848 28.3338 356.966ZM33.2478 356.966C33.2478 355.566 32.0158 354.642 30.2378 354.642C28.4598 354.642 27.2418 355.566 27.2418 356.966C27.2418 358.38 28.4598 359.304 30.2378 359.304C32.0158 359.304 33.2478 358.38 33.2478 356.966ZM29.5798 360.158H28.4318V363.756H36.8038V362.818H29.5798V360.158ZM36.2438 355.622V351.478H35.0958V360.9H36.2438V356.588H38.0918V355.622H36.2438ZM43.8734 357.036C45.9454 356.826 47.7654 356.084 48.5354 354.852C49.2914 356.084 51.1254 356.826 53.1974 357.036L53.5474 356.154C51.1814 355.93 49.2634 354.992 49.1514 353.62H53.0434V352.71H49.1094V351.436H47.9614V352.71H44.0274V353.62H47.9054C47.7934 354.992 45.8614 355.93 43.5234 356.154L43.8734 357.036ZM48.5214 363.154C46.5334 363.154 45.3854 362.72 45.3854 361.936C45.3854 361.152 46.5334 360.704 48.5214 360.704C50.5094 360.704 51.6574 361.152 51.6574 361.936C51.6574 362.72 50.5094 363.154 48.5214 363.154ZM48.5214 359.85C45.8194 359.85 44.2234 360.578 44.2234 361.936C44.2234 363.294 45.8194 364.022 48.5214 364.022C51.2234 364.022 52.8194 363.294 52.8194 361.936C52.8194 360.578 51.2234 359.85 48.5214 359.85ZM42.8514 357.862V358.786H54.2054V357.862H42.8514ZM64.8863 351.492V358.226H66.0343V351.492H64.8863ZM57.9423 358.842V363.868H66.0343V358.842H64.9003V360.382H59.0763V358.842H57.9423ZM59.0763 361.278H64.9003V362.944H59.0763V361.278ZM59.2863 352.08C57.3963 352.08 56.0243 353.256 56.0243 354.964C56.0243 356.7 57.3963 357.862 59.2863 357.862C61.1903 357.862 62.5763 356.7 62.5763 354.964C62.5763 353.256 61.1903 352.08 59.2863 352.08ZM59.2863 353.032C60.5603 353.032 61.4563 353.83 61.4563 354.964C61.4563 356.112 60.5603 356.91 59.2863 356.91C58.0403 356.91 57.1443 356.112 57.1443 354.964C57.1443 353.83 58.0403 353.032 59.2863 353.032ZM70.5412 352.696H69.3932V360.788H70.4292C72.4312 360.788 74.4052 360.648 76.5892 360.2L76.4632 359.22C74.3772 359.64 72.4312 359.808 70.5412 359.808V352.696ZM77.7512 351.478V364.022H78.8992V351.478H77.7512ZM83.1681 353.634H87.8581V352.682H82.0201V360.928H83.0141C85.3801 360.928 87.0321 360.844 88.9501 360.48L88.8241 359.528C87.0041 359.85 85.3941 359.948 83.1681 359.948V353.634ZM93.2201 356.434H91.1481V351.478H90.0001V364.064H91.1481V357.386H93.2201V356.434ZM94.6094 362.337C94.6094 362.118 94.6732 361.936 94.8008 361.79C94.9329 361.644 95.1289 361.571 95.3887 361.571C95.6484 361.571 95.8444 361.644 95.9766 361.79C96.1133 361.936 96.1816 362.118 96.1816 362.337C96.1816 362.547 96.1133 362.722 95.9766 362.863C95.8444 363.005 95.6484 363.075 95.3887 363.075C95.1289 363.075 94.9329 363.005 94.8008 362.863C94.6732 362.722 94.6094 362.547 94.6094 362.337ZM106.011 353.718H108.965V352.766H101.951V353.718H104.863V355.314C104.863 357.484 103.337 359.85 101.531 360.704L102.203 361.628C103.631 360.9 104.863 359.318 105.437 357.484C106.039 359.206 107.271 360.648 108.727 361.32L109.371 360.396C107.523 359.612 106.011 357.442 106.011 355.314V353.718ZM110.659 351.492V364.036H111.807V351.492H110.659ZM120.668 361.502V358.282H124.49V357.358H117V353.424H124.364V352.486H115.852V358.282H119.506V361.502H114.396V362.454H125.806V361.502H120.668ZM131.363 352.402C129.417 352.402 128.003 353.592 128.003 355.356C128.003 357.106 129.417 358.31 131.363 358.31C133.323 358.31 134.723 357.106 134.723 355.356C134.723 353.592 133.323 352.402 131.363 352.402ZM131.363 353.382C132.665 353.382 133.603 354.18 133.603 355.356C133.603 356.518 132.665 357.33 131.363 357.33C130.075 357.33 129.123 356.518 129.123 355.356C129.123 354.18 130.075 353.382 131.363 353.382ZM136.375 351.478V364.064H137.523V351.478H136.375ZM127.513 361.306C129.781 361.306 132.819 361.278 135.647 360.76L135.549 359.906C132.805 360.326 129.655 360.34 127.373 360.34L127.513 361.306ZM144.998 355.454C144.998 354.222 145.922 353.354 147.154 353.354C148.386 353.354 149.31 354.222 149.31 355.454C149.31 356.686 148.386 357.554 147.154 357.554C145.922 357.554 144.998 356.686 144.998 355.454ZM150.43 355.454C150.43 353.634 149.03 352.36 147.154 352.36C145.278 352.36 143.878 353.634 143.878 355.454C143.878 357.274 145.278 358.548 147.154 358.548C149.03 358.548 150.43 357.274 150.43 355.454ZM146.72 359.78H145.572V363.756H153.944V362.818H146.72V359.78ZM153.384 355.3V351.478H152.236V360.718H153.384V356.252H155.232V355.3H153.384ZM158.283 353.004H157.135V360.774H157.933C159.291 360.774 160.733 360.704 162.427 360.382L162.315 359.388C160.817 359.682 159.487 359.766 158.283 359.78V353.004ZM166.067 351.478V356.588H164.289V351.758H163.211V363.392H164.289V357.54H166.067V364.022H167.173V351.478H166.067ZM175.082 363.14C173.094 363.14 171.932 362.65 171.932 361.768C171.932 360.886 173.094 360.396 175.082 360.396C177.042 360.396 178.204 360.886 178.204 361.768C178.204 362.65 177.042 363.14 175.082 363.14ZM175.082 359.5C172.394 359.5 170.77 360.312 170.77 361.768C170.77 363.224 172.394 364.036 175.082 364.036C177.742 364.036 179.366 363.224 179.366 361.768C179.366 360.312 177.742 359.5 175.082 359.5ZM175.656 357.68V356.224H179.436V355.3H171.974V352.976H179.352V352.052H170.826V356.224H174.508V357.68H169.398V358.604H180.766V357.68H175.656ZM191.461 360.872H192.623V351.492H191.461V354.432H188.717V355.384H191.461V360.872ZM189.613 357.904C187.807 357.232 186.575 355.58 186.575 353.83V352.234H185.427V353.788C185.427 355.706 184.167 357.484 182.291 358.17L182.893 359.08C184.363 358.492 185.483 357.302 186.015 355.804C186.547 357.162 187.625 358.24 189.011 358.786L189.613 357.904ZM185.693 362.818V359.836H184.545V363.756H192.917V362.818H185.693ZM200.826 352.262C198.222 352.262 196.262 353.648 196.262 355.734C196.262 357.834 198.222 359.206 200.826 359.206C203.43 359.206 205.39 357.834 205.39 355.734C205.39 353.648 203.43 352.262 200.826 352.262ZM200.826 353.2C202.814 353.2 204.298 354.222 204.298 355.734C204.298 357.26 202.814 358.268 200.826 358.268C198.852 358.268 197.354 357.26 197.354 355.734C197.354 354.222 198.852 353.2 200.826 353.2ZM195.142 361.418V362.37H206.552V361.418H195.142ZM214.293 361.544V359.178H218.311V358.254H210.583V356.224H218.017V352.402H209.421V353.34H216.897V355.3H209.449V359.178H213.131V361.544H208.021V362.482H219.431V361.544H214.293ZM233.515 351.478V364.064H234.663V351.478H233.515ZM228.041 352.444C226.179 352.444 224.849 354.152 224.849 356.826C224.849 359.5 226.179 361.208 228.041 361.208C229.903 361.208 231.233 359.5 231.233 356.826C231.233 354.152 229.903 352.444 228.041 352.444ZM228.041 353.48C229.259 353.48 230.127 354.796 230.127 356.826C230.127 358.87 229.259 360.186 228.041 360.186C226.809 360.186 225.941 358.87 225.941 356.826C225.941 354.796 226.809 353.48 228.041 353.48ZM242.949 363.14C240.961 363.14 239.799 362.65 239.799 361.768C239.799 360.886 240.961 360.396 242.949 360.396C244.909 360.396 246.071 360.886 246.071 361.768C246.071 362.65 244.909 363.14 242.949 363.14ZM242.949 359.5C240.261 359.5 238.637 360.312 238.637 361.768C238.637 363.224 240.261 364.036 242.949 364.036C245.609 364.036 247.233 363.224 247.233 361.768C247.233 360.312 245.609 359.5 242.949 359.5ZM243.523 357.68V356.224H247.303V355.3H239.841V352.976H247.219V352.052H238.693V356.224H242.375V357.68H237.265V358.604H248.633V357.68H243.523ZM253.826 360.284C252.692 360.284 251.866 359.472 251.866 358.352C251.866 357.218 252.692 356.406 253.826 356.406C254.974 356.406 255.8 357.218 255.8 358.352C255.8 359.472 254.974 360.284 253.826 360.284ZM253.826 355.454C252.062 355.454 250.788 356.658 250.788 358.352C250.788 360.06 252.062 361.236 253.826 361.236C255.618 361.236 256.892 360.06 256.892 358.352C256.892 356.658 255.618 355.454 253.826 355.454ZM254.386 351.632H253.238V353.494H250.074V354.418H257.48V353.494H254.386V351.632ZM261.876 356.644H259.818V351.492H258.67V364.036H259.818V357.61H261.876V356.644ZM266.747 352.668H265.641V355.062C265.641 357.218 264.605 359.472 262.883 360.48L263.597 361.334C264.843 360.564 265.753 359.15 266.201 357.484C266.649 359.01 267.489 360.34 268.679 361.068L269.337 360.172C267.685 359.164 266.747 357.036 266.747 355.02V352.668ZM270.051 355.986H267.979V356.938H270.051V363.42H271.129V351.758H270.051V355.986ZM272.599 351.478V364.036H273.691V351.478H272.599ZM279.836 358.52C280.354 358.646 280.956 358.716 281.572 358.716C282.202 358.716 282.804 358.646 283.336 358.52V361.474H279.836V358.52ZM281.572 353.172C283.588 353.172 285.044 354.096 285.044 355.496C285.044 356.896 283.588 357.82 281.572 357.82C279.556 357.82 278.114 356.896 278.114 355.496C278.114 354.096 279.556 353.172 281.572 353.172ZM284.484 361.474V358.072C285.52 357.526 286.136 356.63 286.136 355.496C286.136 353.536 284.246 352.276 281.572 352.276C278.912 352.276 277.008 353.536 277.008 355.496C277.008 356.63 277.638 357.54 278.688 358.086V361.474H275.888V362.426H287.298V361.474H284.484ZM289.023 362.337C289.023 362.118 289.087 361.936 289.215 361.79C289.347 361.644 289.543 361.571 289.803 361.571C290.062 361.571 290.258 361.644 290.391 361.79C290.527 361.936 290.596 362.118 290.596 362.337C290.596 362.547 290.527 362.722 290.391 362.863C290.258 363.005 290.062 363.075 289.803 363.075C289.543 363.075 289.347 363.005 289.215 362.863C289.087 362.722 289.023 362.547 289.023 362.337Z" fill="black"/>
</svg>
