<svg width="355" height="475" viewBox="0 0 355 475" fill="none" xmlns="http://www.w3.org/2000/svg">
<path d="M253.749 336.65L254.519 337.086L255.274 336.623L281.344 320.611L352.063 362.754L165.374 473.257L2.89585 377.211L156.861 281.744L253.749 336.65Z" fill="#8B8B8B" stroke="black" stroke-width="3"/>
<path d="M254.395 395L199 362.518L246.597 333L303 366.341L254.395 395Z" fill="#5C5C5C"/>
<path d="M90.3951 409L35 376.518L82.5973 347L139 380.341L90.3951 409Z" fill="#5C5C5C"/>
<path d="M276.154 365L283.633 369.388L262.608 381.83L255.182 377.442L276.154 365Z" fill="black"/>
<path d="M269.564 375.894L272.755 374.035C273.069 373.829 273.069 373.519 272.755 373.364L269.564 371.454C269.251 371.247 268.728 371.247 268.414 371.454L265.224 373.312C264.91 373.519 264.91 373.829 265.224 373.983L268.414 375.894C268.728 376.1 269.251 376.1 269.564 375.894ZM268.989 375.635L265.59 373.622L268.937 371.609L272.336 373.622L268.989 375.635Z" fill="white"/>
<path d="M273.749 371.453C274.01 371.298 274.376 371.505 274.115 371.66L273.069 372.279L273.487 372.228C273.749 372.228 273.801 372.486 273.487 372.486L272.441 372.537C272.284 372.537 272.18 372.486 272.18 372.383L272.284 371.763C272.284 371.557 272.755 371.608 272.755 371.763L272.703 372.021L273.749 371.453Z" fill="white"/>
<path d="M270.872 371.505C270.611 371.66 270.977 371.867 271.238 371.712L272.284 371.092L272.232 371.351C272.232 371.505 272.65 371.557 272.703 371.351L272.807 370.731C272.807 370.628 272.703 370.576 272.546 370.576L271.5 370.628C271.186 370.628 271.238 370.886 271.5 370.886L271.918 370.834L270.872 371.505Z" fill="white"/>
<path d="M270.663 373.829L270.035 373.467C269.983 373.416 269.826 373.416 269.722 373.467L268.937 373.932C268.885 373.984 268.885 374.035 268.937 374.035C268.937 374.035 268.937 374.035 268.989 374.087L267.996 374.706C267.839 374.81 268.1 374.965 268.257 374.861L269.251 374.242H269.303L268.309 374.861C268.1 374.965 268.414 375.119 268.571 375.016L269.565 374.397C269.617 374.397 269.617 374.448 269.617 374.448C269.669 374.5 269.774 374.5 269.826 374.448L270.611 373.984C270.715 373.984 270.715 373.88 270.663 373.829Z" fill="white"/>
<path d="M270.61 373.674C270.755 373.674 270.872 373.605 270.872 373.519C270.872 373.434 270.755 373.364 270.61 373.364C270.466 373.364 270.349 373.434 270.349 373.519C270.349 373.605 270.466 373.674 270.61 373.674Z" fill="white"/>
<path d="M269.303 373.054L268.675 372.693C268.623 372.641 268.466 372.641 268.361 372.693L267.577 373.158C267.524 373.209 267.524 373.261 267.577 373.261C267.577 373.261 267.577 373.261 267.629 373.313L266.635 373.932C266.478 374.035 266.74 374.19 266.897 374.087L267.89 373.467H267.943L266.949 374.087C266.74 374.19 267.054 374.345 267.211 374.242L268.204 373.622C268.257 373.622 268.257 373.674 268.257 373.674C268.309 373.726 268.413 373.726 268.466 373.674L269.25 373.209C269.407 373.158 269.407 373.106 269.303 373.054Z" fill="white"/>
<path d="M269.25 372.848C269.394 372.848 269.511 372.779 269.511 372.693C269.511 372.607 269.394 372.538 269.25 372.538C269.105 372.538 268.988 372.607 268.988 372.693C268.988 372.779 269.105 372.848 269.25 372.848Z" fill="white"/>
<path d="M113.972 380.452L121.399 384.84L100.427 397.282L93 392.894L113.972 380.452Z" fill="black"/>
<path d="M106.075 392.119L109.266 390.261C109.579 390.054 109.579 389.744 109.266 389.589L106.075 387.679C105.761 387.473 105.238 387.473 104.925 387.679L101.734 389.538C101.421 389.744 101.421 390.054 101.734 390.209L104.925 392.119C105.238 392.274 105.709 392.326 106.075 392.119ZM105.5 391.861L102.1 389.848L105.448 387.834L108.847 389.848L105.5 391.861Z" fill="white"/>
<path d="M110.258 387.68C110.52 387.525 110.886 387.731 110.625 387.886L109.579 388.506L109.997 388.454C110.258 388.454 110.311 388.712 109.997 388.712L108.951 388.764C108.794 388.764 108.689 388.712 108.689 388.609L108.794 387.99C108.794 387.783 109.265 387.835 109.265 387.99L109.212 388.248L110.258 387.68Z" fill="white"/>
<path d="M107.33 387.679C107.069 387.834 107.435 388.041 107.696 387.886L108.742 387.266L108.69 387.524C108.69 387.679 109.108 387.731 109.161 387.524L109.265 386.905C109.265 386.802 109.161 386.75 109.004 386.75L107.958 386.802C107.644 386.802 107.696 387.06 107.958 387.06L108.376 387.008L107.33 387.679Z" fill="white"/>
<path d="M107.121 390.054L106.493 389.693C106.441 389.641 106.284 389.641 106.18 389.693L105.395 390.158C105.343 390.209 105.343 390.261 105.395 390.261C105.395 390.261 105.395 390.261 105.447 390.313L104.454 390.932C104.297 391.035 104.558 391.19 104.715 391.087L105.709 390.467H105.761L104.767 391.087C104.558 391.19 104.872 391.345 105.029 391.242L106.023 390.622C106.075 390.622 106.075 390.674 106.075 390.674C106.127 390.726 106.232 390.726 106.284 390.674L107.069 390.209C107.226 390.209 107.226 390.106 107.121 390.054Z" fill="white"/>
<path d="M107.121 389.848C107.265 389.848 107.382 389.778 107.382 389.693C107.382 389.607 107.265 389.538 107.121 389.538C106.976 389.538 106.859 389.607 106.859 389.693C106.859 389.778 106.976 389.848 107.121 389.848Z" fill="white"/>
<path d="M105.813 389.279L105.186 388.918C105.133 388.866 104.977 388.866 104.872 388.918L104.087 389.382C104.035 389.434 104.035 389.486 104.087 389.486C104.087 389.486 104.087 389.486 104.14 389.537L103.146 390.157C102.989 390.26 103.251 390.415 103.408 390.312L104.401 389.692H104.454L103.46 390.312C103.251 390.415 103.564 390.57 103.721 390.466L104.715 389.847C104.767 389.847 104.767 389.899 104.767 389.899C104.82 389.95 104.924 389.95 104.977 389.899L105.761 389.434C105.866 389.382 105.866 389.331 105.813 389.279Z" fill="white"/>
<path d="M105.761 389.073C105.905 389.073 106.022 389.004 106.022 388.919C106.022 388.833 105.905 388.764 105.761 388.764C105.616 388.764 105.499 388.833 105.499 388.919C105.499 389.004 105.616 389.073 105.761 389.073Z" fill="white"/>
<path d="M235.546 363H236.434V361.422H237.028C237.982 361.422 238.744 360.966 238.744 359.952C238.744 358.902 237.988 358.56 237.004 358.56H235.546V363ZM236.434 360.72V359.262H236.938C237.55 359.262 237.874 359.436 237.874 359.952C237.874 360.462 237.58 360.72 236.968 360.72H236.434ZM240.048 361.17L240.18 360.684C240.312 360.222 240.444 359.718 240.558 359.232H240.582C240.714 359.712 240.834 360.222 240.972 360.684L241.104 361.17H240.048ZM241.608 363H242.538L241.11 358.56H240.066L238.644 363H239.544L239.856 361.86H241.296L241.608 363ZM243.946 359.262H244.522C245.092 359.262 245.404 359.424 245.404 359.904C245.404 360.378 245.092 360.618 244.522 360.618H243.946V359.262ZM246.466 363L245.428 361.182C245.938 360.984 246.274 360.57 246.274 359.904C246.274 358.884 245.536 358.56 244.606 358.56H243.058V363H243.946V361.32H244.564L245.476 363H246.466ZM247.148 363H248.036V361.752L248.618 361.008L249.764 363H250.742L249.146 360.306L250.502 358.56H249.524L248.054 360.486H248.036V358.56H247.148V363ZM251.261 363H252.149V358.56H251.261V363ZM253.241 363H254.081V361.218C254.081 360.708 254.015 360.15 253.973 359.67H254.003L254.453 360.624L255.737 363H256.637V358.56H255.797V360.33C255.797 360.834 255.863 361.422 255.911 361.884H255.881L255.437 360.924L254.147 358.56H253.241V363ZM259.643 363.084C260.261 363.084 260.783 362.844 261.083 362.55V360.546H259.505V361.272H260.291V362.148C260.165 362.256 259.949 362.316 259.733 362.316C258.863 362.316 258.419 361.734 258.419 360.768C258.419 359.814 258.935 359.238 259.673 359.238C260.075 359.238 260.327 359.4 260.543 359.61L261.017 359.046C260.729 358.752 260.285 358.476 259.643 358.476C258.461 358.476 257.513 359.334 257.513 360.798C257.513 362.28 258.431 363.084 259.643 363.084ZM235.546 370H238.336V369.256H236.434V368.068H237.994V367.324H236.434V366.298H238.27V365.56H235.546V370ZM240.071 368.17L240.203 367.684C240.335 367.222 240.467 366.718 240.581 366.232H240.605C240.737 366.712 240.857 367.222 240.995 367.684L241.127 368.17H240.071ZM241.631 370H242.561L241.133 365.56H240.089L238.667 370H239.567L239.879 368.86H241.319L241.631 370ZM244.407 370.084C245.433 370.084 246.039 369.466 246.039 368.74C246.039 368.098 245.685 367.756 245.145 367.534L244.563 367.288C244.185 367.138 243.867 367.024 243.867 366.706C243.867 366.412 244.119 366.238 244.509 366.238C244.875 366.238 245.169 366.37 245.451 366.604L245.901 366.046C245.541 365.68 245.025 365.476 244.509 365.476C243.609 365.476 242.973 366.034 242.973 366.76C242.973 367.408 243.423 367.768 243.873 367.954L244.467 368.206C244.863 368.374 245.133 368.476 245.133 368.806C245.133 369.118 244.887 369.316 244.425 369.316C244.035 369.316 243.615 369.118 243.297 368.824L242.787 369.436C243.219 369.85 243.813 370.084 244.407 370.084ZM247.567 370H248.455V366.298H249.715V365.56H246.319V366.298H247.567V370ZM251.794 370H252.682V368.08H254.362V370H255.244V365.56H254.362V367.306H252.682V365.56H251.794V370ZM257.169 368.17L257.301 367.684C257.433 367.222 257.565 366.718 257.679 366.232H257.703C257.835 366.712 257.955 367.222 258.093 367.684L258.225 368.17H257.169ZM258.729 370H259.659L258.231 365.56H257.187L255.765 370H256.665L256.977 368.86H258.417L258.729 370ZM260.179 370H262.867V369.256H261.067V365.56H260.179V370ZM263.642 370H266.33V369.256H264.53V365.56H263.642V370Z" fill="#C4C4C4"/>
<path d="M67.546 376H68.434V374.422H69.028C69.982 374.422 70.744 373.966 70.744 372.952C70.744 371.902 69.988 371.56 69.004 371.56H67.546V376ZM68.434 373.72V372.262H68.938C69.55 372.262 69.874 372.436 69.874 372.952C69.874 373.462 69.58 373.72 68.968 373.72H68.434ZM72.048 374.17L72.18 373.684C72.312 373.222 72.444 372.718 72.558 372.232H72.582C72.714 372.712 72.834 373.222 72.972 373.684L73.104 374.17H72.048ZM73.608 376H74.538L73.11 371.56H72.066L70.644 376H71.544L71.856 374.86H73.296L73.608 376ZM75.9457 372.262H76.5217C77.0917 372.262 77.4037 372.424 77.4037 372.904C77.4037 373.378 77.0917 373.618 76.5217 373.618H75.9457V372.262ZM78.4657 376L77.4277 374.182C77.9377 373.984 78.2737 373.57 78.2737 372.904C78.2737 371.884 77.5357 371.56 76.6057 371.56H75.0577V376H75.9457V374.32H76.5637L77.4757 376H78.4657ZM79.1476 376H80.0356V374.752L80.6176 374.008L81.7636 376H82.7416L81.1456 373.306L82.5016 371.56H81.5236L80.0536 373.486H80.0356V371.56H79.1476V376ZM83.2608 376H84.1488V371.56H83.2608V376ZM85.2413 376H86.0813V374.218C86.0813 373.708 86.0153 373.15 85.9733 372.67H86.0033L86.4533 373.624L87.7373 376H88.6373V371.56H87.7973V373.33C87.7973 373.834 87.8633 374.422 87.9113 374.884H87.8813L87.4373 373.924L86.1473 371.56H85.2413V376ZM91.6435 376.084C92.2615 376.084 92.7835 375.844 93.0835 375.55V373.546H91.5055V374.272H92.2915V375.148C92.1655 375.256 91.9495 375.316 91.7335 375.316C90.8635 375.316 90.4195 374.734 90.4195 373.768C90.4195 372.814 90.9355 372.238 91.6735 372.238C92.0755 372.238 92.3275 372.4 92.5435 372.61L93.0175 372.046C92.7295 371.752 92.2855 371.476 91.6435 371.476C90.4615 371.476 89.5135 372.334 89.5135 373.798C89.5135 375.28 90.4315 376.084 91.6435 376.084ZM67.966 383H69.052L69.538 380.804C69.61 380.456 69.67 380.114 69.73 379.778H69.754C69.808 380.114 69.874 380.456 69.946 380.804L70.444 383H71.548L72.37 378.56H71.524L71.176 380.726C71.11 381.188 71.044 381.662 70.978 382.142H70.948C70.852 381.662 70.762 381.182 70.666 380.726L70.15 378.56H69.394L68.878 380.726C68.782 381.188 68.686 381.668 68.596 382.142H68.572C68.506 381.668 68.434 381.194 68.368 380.726L68.014 378.56H67.108L67.966 383ZM73.0362 383H75.8262V382.256H73.9242V381.068H75.4842V380.324H73.9242V379.298H75.7602V378.56H73.0362V383ZM78.0536 383.084C79.0796 383.084 79.6856 382.466 79.6856 381.74C79.6856 381.098 79.3316 380.756 78.7916 380.534L78.2096 380.288C77.8316 380.138 77.5136 380.024 77.5136 379.706C77.5136 379.412 77.7656 379.238 78.1556 379.238C78.5216 379.238 78.8156 379.37 79.0976 379.604L79.5476 379.046C79.1876 378.68 78.6716 378.476 78.1556 378.476C77.2556 378.476 76.6196 379.034 76.6196 379.76C76.6196 380.408 77.0696 380.768 77.5196 380.954L78.1136 381.206C78.5096 381.374 78.7796 381.476 78.7796 381.806C78.7796 382.118 78.5336 382.316 78.0716 382.316C77.6816 382.316 77.2616 382.118 76.9436 381.824L76.4336 382.436C76.8656 382.85 77.4596 383.084 78.0536 383.084ZM81.2132 383H82.1012V379.298H83.3612V378.56H79.9652V379.298H81.2132V383ZM85.4405 383H86.3285V381.08H88.0085V383H88.8905V378.56H88.0085V380.306H86.3285V378.56H85.4405V383ZM90.8155 381.17L90.9475 380.684C91.0795 380.222 91.2115 379.718 91.3255 379.232H91.3495C91.4815 379.712 91.6015 380.222 91.7395 380.684L91.8715 381.17H90.8155ZM92.3755 383H93.3055L91.8775 378.56H90.8335L89.4115 383H90.3115L90.6235 381.86H92.0635L92.3755 383ZM93.8253 383H96.5133V382.256H94.7133V378.56H93.8253V383ZM97.2882 383H99.9762V382.256H98.1762V378.56H97.2882V383Z" fill="#C4C4C4"/>
<path d="M152.331 391.39L152.733 382.028L82.9131 340.322L94.3318 333.463L111.938 344.027L125.721 335.766L139 343.727L225.42 292.108L206.909 281.044L235.229 264.121L253.741 275.186L297.101 249.302L354.497 283.597L199.263 376.32L186.235 368.51L167.874 379.474L166.767 400.001" fill="white"/>
<path d="M251.829 303.123L246.296 299.819L266.467 287.753L272.001 291.057L251.829 303.123Z" fill="black"/>
<path d="M266.568 311.935L261.085 308.63L281.256 296.614L286.79 299.869L266.568 311.935Z" fill="black"/>
<path d="M296.9 251.955L255.702 276.588L294.435 299.668L270.24 314.137L284.777 322.799L350.17 283.747L296.9 251.955Z" fill="#DAC452"/>
<path d="M255.049 318.844L241.366 310.633L248.761 306.228L262.443 314.388L255.049 318.844Z" fill="black"/>
<path d="M100.418 348.683L86.6855 340.472L94.08 336.066L107.813 344.277L100.418 348.683Z" fill="black"/>
<path d="M245.24 299.168L214.002 280.544L234.224 268.478L265.411 287.152L245.24 299.168Z" fill="black"/>
<path d="M227.332 306.578L216.315 300.019L227.332 293.41L238.348 300.019L227.332 306.578Z" fill="black"/>
<path d="M125.671 351.938L114.654 345.379L125.671 338.771L136.687 345.379L125.671 351.938Z" fill="black"/>
<path d="M212.442 315.439L201.426 308.88L214.052 301.32L225.068 307.929L212.442 315.439Z" fill="#DAC452"/>
<path d="M198.006 324.05L186.989 317.492L199.666 309.932L210.631 316.54L198.006 324.05Z" fill="#DAC452"/>
<path d="M168.629 341.624L157.612 335.015L170.289 327.505L181.255 334.064L168.629 341.624Z" fill="#DAC452"/>
<path d="M186.234 331.11L175.218 324.551L185.228 318.543L196.244 325.152L186.234 331.11Z" fill="black"/>
<path d="M154.242 350.236L143.226 343.627L155.852 336.117L166.868 342.676L154.242 350.236Z" fill="#DAC452"/>
<path d="M254.747 340.722L243.73 334.164L256.356 326.604L267.373 333.212L254.747 340.722Z" fill="#DAC452"/>
<path d="M232.84 329.119L221.823 322.56L234.449 315L245.465 321.609L232.84 329.119Z" fill="#DAC452"/>
<path d="M269.016 331.119L258 324.56L270.626 317L281.642 323.609L269.016 331.119Z" fill="#DAC452"/>
<path d="M240.36 349.335L229.344 342.776L241.97 335.216L252.986 341.775L240.36 349.335Z" fill="#DAC452"/>
<path d="M225.923 357.946L214.907 351.387L227.533 343.827L238.549 350.386L225.923 357.946Z" fill="#DAC452"/>
<path d="M211.016 341.119L200 334.56L212.626 327L223.642 333.559L211.016 341.119Z" fill="#DAC452"/>
<path d="M142.016 372.119L131 365.51L143.626 358L154.642 364.559L142.016 372.119Z" fill="#DAC452"/>
<path d="M176.016 363.119L165 356.51L191 341L202 347.5L176.016 363.119Z" fill="#DAC452"/>
<path d="M200.221 374L186 365.483L206.779 353L221 361.517L200.221 374Z" fill="#00AB8C"/>
<path d="M128.881 344.376C129.081 344.525 129.43 344.525 129.679 344.376C129.878 344.226 129.878 344.027 129.679 343.927C129.48 343.778 129.131 343.778 128.881 343.927C128.632 344.027 128.632 344.226 128.881 344.376Z" fill="white"/>
<path d="M126.338 345.82L124.992 346.616C124.743 346.766 124.394 346.567 124.643 346.417L125.989 345.621L125.491 345.322L127.834 344.525L127.734 344.475L126.388 344.924C126.089 345.023 125.89 344.774 126.189 344.675L127.635 344.227C127.784 344.177 128.183 344.127 128.482 344.276L128.731 344.426L129.03 344.575C129.33 344.724 129.23 344.973 129.18 345.073L128.382 345.969C128.233 346.168 127.784 346.019 127.984 345.87L128.731 345.073L128.632 345.023L127.335 346.417L126.837 346.119L125.441 346.965C125.192 347.114 124.843 346.915 125.092 346.766L126.488 345.919L126.338 345.82Z" fill="white"/>
<path d="M125.838 342.398C125.539 342.249 125.09 342.249 124.841 342.398L123.644 343.145C123.395 343.294 123.744 343.494 123.993 343.344L125.09 342.697L125.19 342.747L122.099 344.589C121.8 344.788 122.248 345.037 122.547 344.838L124.342 343.742L124.442 343.792L122.647 344.888C122.348 345.087 122.797 345.336 123.096 345.137L126.187 343.294L126.286 343.344L125.19 343.991C124.94 344.141 125.289 344.34 125.539 344.191L126.735 343.444C126.984 343.294 127.034 342.996 126.735 342.846L125.838 342.398Z" fill="white"/>
<path d="M126.735 342.697C127.038 342.697 127.283 342.541 127.283 342.349C127.283 342.156 127.038 342 126.735 342C126.432 342 126.187 342.156 126.187 342.349C126.187 342.541 126.432 342.697 126.735 342.697Z" fill="white"/>
<path d="M229.881 299.376C230.081 299.525 230.43 299.525 230.679 299.376C230.878 299.226 230.878 299.027 230.679 298.927C230.48 298.778 230.131 298.778 229.881 298.927C229.632 299.027 229.632 299.226 229.881 299.376Z" fill="white"/>
<path d="M227.338 300.82L225.992 301.616C225.743 301.766 225.394 301.567 225.643 301.417L226.989 300.621L226.491 300.322L228.834 299.525L228.734 299.475L227.388 299.924C227.089 300.023 226.89 299.774 227.189 299.675L228.635 299.227C228.784 299.177 229.183 299.127 229.482 299.276L229.731 299.426L230.03 299.575C230.33 299.724 230.23 299.973 230.18 300.073L229.382 300.969C229.233 301.168 228.784 301.019 228.984 300.87L229.731 300.073L229.632 300.023L228.335 301.417L227.837 301.119L226.441 301.965C226.192 302.114 225.843 301.915 226.092 301.766L227.488 300.919L227.338 300.82Z" fill="white"/>
<path d="M226.838 297.398C226.539 297.249 226.09 297.249 225.841 297.398L224.644 298.145C224.395 298.294 224.744 298.494 224.993 298.344L226.09 297.697L226.19 297.747L223.099 299.589C222.8 299.788 223.248 300.037 223.547 299.838L225.342 298.742L225.442 298.792L223.647 299.888C223.348 300.087 223.797 300.336 224.096 300.137L227.187 298.294L227.286 298.344L226.19 298.991C225.94 299.141 226.289 299.34 226.539 299.191L227.735 298.444C227.984 298.294 228.034 297.996 227.735 297.846L226.838 297.398Z" fill="white"/>
<path d="M227.735 297.697C228.038 297.697 228.283 297.541 228.283 297.349C228.283 297.156 228.038 297 227.735 297C227.432 297 227.187 297.156 227.187 297.349C227.187 297.541 227.432 297.697 227.735 297.697Z" fill="white"/>
<path d="M260.028 308.03L252.885 303.724L273.056 291.708L280.199 295.964L260.028 308.03Z" fill="black"/>
<path d="M266.668 302.272L269.737 300.47C270.038 300.27 270.038 299.969 269.737 299.819L266.668 297.967C266.366 297.766 265.863 297.766 265.561 297.967L262.493 299.769C262.191 299.969 262.191 300.27 262.493 300.42L265.561 302.272C265.863 302.422 266.366 302.473 266.668 302.272ZM266.115 302.022L262.845 300.069L266.064 298.117L269.334 300.069L266.115 302.022Z" fill="white"/>
<path d="M270.692 297.966C270.943 297.816 271.295 298.016 271.044 298.167L270.038 298.767L270.44 298.717C270.692 298.717 270.742 298.968 270.44 298.968L269.434 299.018C269.283 299.018 269.183 298.968 269.183 298.867L269.283 298.267C269.283 298.066 269.736 298.116 269.736 298.267L269.686 298.517L270.692 297.966Z" fill="white"/>
<path d="M267.925 298.016C267.674 298.167 268.026 298.367 268.278 298.217L269.284 297.616L269.233 297.866C269.233 298.016 269.636 298.066 269.686 297.866L269.787 297.265C269.787 297.165 269.686 297.115 269.535 297.115L268.529 297.165C268.227 297.165 268.278 297.416 268.529 297.416L268.931 297.366L267.925 298.016Z" fill="white"/>
<path d="M267.725 300.27L267.122 299.919C267.071 299.869 266.92 299.869 266.82 299.919L266.065 300.37C266.015 300.42 266.015 300.47 266.065 300.47C266.065 300.47 266.065 300.47 266.116 300.52L265.16 301.121C265.009 301.221 265.26 301.371 265.411 301.271L266.367 300.67H266.417L265.462 301.271C265.26 301.371 265.562 301.522 265.713 301.421L266.669 300.821C266.719 300.821 266.719 300.871 266.719 300.871C266.769 300.921 266.87 300.921 266.92 300.871L267.675 300.42C267.776 300.42 267.826 300.32 267.725 300.27Z" fill="white"/>
<path d="M267.675 300.119C267.814 300.119 267.927 300.052 267.927 299.969C267.927 299.886 267.814 299.818 267.675 299.818C267.536 299.818 267.424 299.886 267.424 299.969C267.424 300.052 267.536 300.119 267.675 300.119Z" fill="white"/>
<path d="M266.417 299.519L265.813 299.168C265.763 299.118 265.612 299.118 265.511 299.168L264.757 299.619C264.706 299.669 264.706 299.719 264.757 299.719C264.757 299.719 264.757 299.719 264.807 299.769L263.851 300.37C263.7 300.47 263.952 300.62 264.103 300.52L265.059 299.919H265.109L264.153 300.52C263.952 300.62 264.254 300.771 264.405 300.67L265.36 300.07C265.411 300.07 265.411 300.12 265.411 300.12C265.461 300.17 265.562 300.17 265.612 300.12L266.366 299.669C266.517 299.619 266.517 299.569 266.417 299.519Z" fill="white"/>
<path d="M266.367 299.318C266.506 299.318 266.618 299.251 266.618 299.168C266.618 299.085 266.506 299.018 266.367 299.018C266.228 299.018 266.115 299.085 266.115 299.168C266.115 299.251 266.228 299.318 266.367 299.318Z" fill="white"/>
<path d="M100.028 328.03L92.8848 323.724L113.056 311.708L120.199 315.964L100.028 328.03Z" fill="black"/>
<path d="M106.668 322.272L109.737 320.47C110.038 320.27 110.038 319.969 109.737 319.819L106.668 317.967C106.366 317.766 105.863 317.766 105.561 317.967L102.493 319.769C102.191 319.969 102.191 320.27 102.493 320.42L105.561 322.272C105.863 322.422 106.366 322.473 106.668 322.272ZM106.115 322.022L102.845 320.069L106.064 318.117L109.334 320.069L106.115 322.022Z" fill="white"/>
<path d="M110.692 317.966C110.943 317.816 111.295 318.016 111.044 318.167L110.038 318.767L110.44 318.717C110.692 318.717 110.742 318.968 110.44 318.968L109.434 319.018C109.283 319.018 109.183 318.968 109.183 318.867L109.283 318.267C109.283 318.066 109.736 318.116 109.736 318.267L109.686 318.517L110.692 317.966Z" fill="white"/>
<path d="M107.925 318.016C107.674 318.167 108.026 318.367 108.278 318.217L109.284 317.616L109.233 317.866C109.233 318.016 109.636 318.066 109.686 317.866L109.787 317.265C109.787 317.165 109.686 317.115 109.535 317.115L108.529 317.165C108.227 317.165 108.278 317.416 108.529 317.416L108.931 317.366L107.925 318.016Z" fill="white"/>
<path d="M107.725 320.27L107.122 319.919C107.071 319.869 106.92 319.869 106.82 319.919L106.065 320.37C106.015 320.42 106.015 320.47 106.065 320.47C106.065 320.47 106.065 320.47 106.116 320.52L105.16 321.121C105.009 321.221 105.26 321.371 105.411 321.271L106.367 320.67H106.417L105.462 321.271C105.26 321.371 105.562 321.522 105.713 321.421L106.669 320.821C106.719 320.821 106.719 320.871 106.719 320.871C106.769 320.921 106.87 320.921 106.92 320.871L107.675 320.42C107.776 320.42 107.826 320.32 107.725 320.27Z" fill="white"/>
<path d="M107.675 320.119C107.814 320.119 107.927 320.052 107.927 319.969C107.927 319.886 107.814 319.818 107.675 319.818C107.536 319.818 107.424 319.886 107.424 319.969C107.424 320.052 107.536 320.119 107.675 320.119Z" fill="white"/>
<path d="M106.417 319.519L105.813 319.168C105.763 319.118 105.612 319.118 105.511 319.168L104.757 319.619C104.706 319.669 104.706 319.719 104.757 319.719C104.757 319.719 104.757 319.719 104.807 319.769L103.851 320.37C103.7 320.47 103.952 320.62 104.103 320.52L105.059 319.919H105.109L104.153 320.52C103.952 320.62 104.254 320.771 104.405 320.67L105.36 320.07C105.411 320.07 105.411 320.12 105.411 320.12C105.461 320.17 105.562 320.17 105.612 320.12L106.366 319.669C106.517 319.619 106.517 319.569 106.417 319.519Z" fill="white"/>
<path d="M106.367 319.318C106.506 319.318 106.618 319.251 106.618 319.168C106.618 319.085 106.506 319.018 106.367 319.018C106.228 319.018 106.115 319.085 106.115 319.168C106.115 319.251 106.228 319.318 106.367 319.318Z" fill="white"/>
<path d="M185.229 327.655L188.297 325.853C188.599 325.652 188.599 325.352 188.297 325.202L185.229 323.349C184.927 323.149 184.424 323.149 184.122 323.349L181.054 325.152C180.752 325.352 180.752 325.652 181.054 325.803L184.122 327.655C184.424 327.805 184.877 327.855 185.229 327.655ZM184.675 327.405L181.406 325.452L184.625 323.5L187.895 325.452L184.675 327.405Z" fill="white"/>
<path d="M189.253 323.349C189.505 323.199 189.857 323.399 189.605 323.549L188.599 324.15L189.002 324.1C189.253 324.1 189.304 324.35 189.002 324.35L187.996 324.4C187.845 324.4 187.744 324.35 187.744 324.25L187.845 323.649C187.845 323.449 188.297 323.499 188.297 323.649L188.247 323.9L189.253 323.349Z" fill="white"/>
<path d="M186.436 323.349C186.185 323.5 186.537 323.7 186.788 323.55L187.794 322.949L187.744 323.199C187.744 323.349 188.146 323.4 188.197 323.199L188.297 322.598C188.297 322.498 188.197 322.448 188.046 322.448L187.04 322.498C186.738 322.498 186.788 322.749 187.04 322.749L187.442 322.699L186.436 323.349Z" fill="white"/>
<path d="M186.235 325.653L185.631 325.302C185.581 325.252 185.43 325.252 185.33 325.302L184.575 325.753C184.525 325.803 184.525 325.853 184.575 325.853C184.575 325.853 184.575 325.853 184.625 325.903L183.67 326.504C183.519 326.604 183.77 326.754 183.921 326.654L184.877 326.053H184.927L183.971 326.654C183.77 326.754 184.072 326.904 184.223 326.804L185.179 326.203C185.229 326.203 185.229 326.253 185.229 326.253C185.279 326.304 185.38 326.304 185.43 326.253L186.185 325.803C186.336 325.753 186.336 325.703 186.235 325.653Z" fill="white"/>
<path d="M186.185 325.452C186.324 325.452 186.437 325.384 186.437 325.302C186.437 325.219 186.324 325.151 186.185 325.151C186.046 325.151 185.934 325.219 185.934 325.302C185.934 325.384 186.046 325.452 186.185 325.452Z" fill="white"/>
<path d="M184.977 324.902L184.374 324.551C184.323 324.501 184.172 324.501 184.072 324.551L183.317 325.002C183.267 325.052 183.267 325.102 183.317 325.102C183.317 325.102 183.317 325.102 183.368 325.152L182.412 325.753C182.261 325.853 182.512 326.003 182.663 325.903L183.619 325.302H183.669L182.714 325.903C182.512 326.003 182.814 326.153 182.965 326.053L183.921 325.452C183.971 325.452 183.971 325.502 183.971 325.502C184.021 325.553 184.122 325.553 184.172 325.502L184.927 325.052C185.027 325.002 185.028 324.952 184.977 324.902Z" fill="white"/>
<path d="M184.927 324.701C185.066 324.701 185.179 324.634 185.179 324.551C185.179 324.468 185.066 324.4 184.927 324.4C184.788 324.4 184.676 324.468 184.676 324.551C184.676 324.634 184.788 324.701 184.927 324.701Z" fill="white"/>
<path d="M197.726 362.091L198.961 363L200.268 362.091L201.575 363L202.883 362L204.19 363L205.497 362L206.804 363L208.112 362L210 363.455L209.346 364L208.112 363L206.804 364L205.497 363L204.19 364L202.883 363L201.575 364L200.268 363L198.961 364L197 362.545L197.726 362.091Z" fill="white"/>
<path d="M98.2554 341.224C98.4566 341.324 98.8087 341.324 99.01 341.224C99.2112 341.124 99.2112 340.873 99.01 340.773C98.8087 340.673 98.4566 340.673 98.2554 340.773C98.0542 340.924 98.0542 341.124 98.2554 341.224Z" fill="white"/>
<path d="M101.223 342.626L100.318 342.075C100.116 341.975 99.8145 341.875 99.563 341.875H97.9533L98.2049 341.724C98.7079 341.424 97.9533 340.973 97.4503 341.274L96.4946 341.875H95.0861C94.9352 341.875 94.9352 341.875 94.8346 341.775L94.3819 341.524C93.9291 341.274 93.2752 341.324 92.9734 341.524C92.6716 341.724 92.4704 342.125 92.9734 342.425C92.9734 342.425 93.577 342.776 93.7279 342.876C93.9291 342.976 94.1806 343.076 94.5328 343.076H99.06C99.1606 343.076 99.2109 343.076 99.2612 343.126C99.2612 343.126 99.563 343.327 99.8145 343.477C100.066 343.627 100.77 343.677 101.223 343.427C101.625 343.176 101.525 342.776 101.223 342.626ZM100.116 343.226L99.6636 342.926C99.4624 342.826 99.3618 342.776 99.1103 342.776H94.5831C94.3819 342.776 94.231 342.726 94.08 342.626L93.3255 342.175C93.1243 342.075 93.1243 341.875 93.3255 341.724C93.5267 341.574 93.8285 341.624 93.9794 341.724L94.4825 342.025C94.6334 342.125 94.7843 342.125 94.9352 342.125H99.563C99.7642 342.125 99.8648 342.175 100.016 342.275L100.821 342.726C101.022 342.826 100.921 343.026 100.821 343.126C100.67 343.277 100.368 343.377 100.116 343.226Z" fill="white"/>
<path d="M252.936 311.384C253.137 311.484 253.489 311.484 253.69 311.384C253.891 311.284 253.891 311.034 253.69 310.933C253.489 310.833 253.137 310.833 252.936 310.933C252.684 311.084 252.684 311.284 252.936 311.384Z" fill="white"/>
<path d="M255.904 312.736L254.998 312.185C254.797 312.085 254.495 311.985 254.244 311.985H252.634L252.886 311.835C253.389 311.534 252.634 311.084 252.131 311.384L251.175 311.985H249.767C249.616 311.985 249.616 311.985 249.515 311.885L249.063 311.635C248.61 311.384 247.956 311.434 247.654 311.635C247.302 311.835 247.151 312.235 247.654 312.536C247.654 312.536 248.258 312.886 248.409 312.986C248.61 313.086 248.861 313.187 249.214 313.187H253.741C253.841 313.187 253.892 313.187 253.942 313.237C253.942 313.237 254.244 313.437 254.495 313.587C254.747 313.737 255.451 313.787 255.904 313.537C256.256 313.337 256.155 312.936 255.904 312.736ZM254.747 313.387L254.294 313.086C254.093 312.986 253.992 312.936 253.741 312.936H249.214C249.012 312.936 248.861 312.886 248.711 312.786L247.956 312.335C247.755 312.235 247.755 312.035 247.956 311.885C248.157 311.735 248.459 311.785 248.61 311.885L249.113 312.185C249.264 312.285 249.415 312.285 249.566 312.285H254.193C254.395 312.285 254.495 312.335 254.646 312.436L255.451 312.886C255.652 312.986 255.552 313.187 255.451 313.287C255.3 313.437 254.998 313.537 254.747 313.387Z" fill="white"/>
<mask id="path-81-inside-1" fill="white">
<path d="M152.331 391.39L152.733 382.028L82.9131 340.322L94.3318 333.463L111.938 344.027L125.721 335.766L139 343.727L225.42 292.108L206.909 281.044L235.229 264.121L253.741 275.186L297.101 249.302L354.497 283.597L199.263 376.32L186.235 368.51L167.874 379.474L166.767 400.001"/>
</mask>
<path d="M149.333 391.261C149.262 392.916 150.546 394.316 152.202 394.387C153.857 394.458 155.257 393.174 155.328 391.519L149.333 391.261ZM152.733 382.028L155.73 382.156L155.807 380.369L154.271 379.452L152.733 382.028ZM82.9131 340.322L81.3683 337.751L77.075 340.33L81.3747 342.898L82.9131 340.322ZM94.3318 333.463L95.8753 330.891L94.3309 329.964L92.787 330.892L94.3318 333.463ZM111.938 344.027L110.394 346.6L111.937 347.525L113.48 346.6L111.938 344.027ZM125.721 335.766L127.263 333.193L125.721 332.269L124.178 333.193L125.721 335.766ZM139 343.727L137.458 346.3L138.998 347.223L140.539 346.302L139 343.727ZM225.42 292.108L226.959 294.684L231.269 292.109L226.959 289.533L225.42 292.108ZM206.909 281.044L205.37 278.469L201.061 281.043L205.37 283.619L206.909 281.044ZM235.229 264.121L236.768 261.546L235.23 260.626L233.69 261.546L235.229 264.121ZM253.741 275.186L252.201 277.761L253.74 278.681L255.278 277.762L253.741 275.186ZM297.101 249.302L298.64 246.726L297.102 245.807L295.564 246.726L297.101 249.302ZM354.497 283.597L356.035 286.173L360.346 283.598L356.036 281.022L354.497 283.597ZM199.263 376.32L197.72 378.893L199.26 379.816L200.801 378.896L199.263 376.32ZM186.235 368.51L187.777 365.937L186.238 365.014L184.696 365.934L186.235 368.51ZM167.874 379.474L166.336 376.899L164.964 377.718L164.878 379.313L167.874 379.474ZM163.772 399.84C163.683 401.494 164.952 402.908 166.606 402.997C168.26 403.086 169.674 401.817 169.763 400.163L163.772 399.84ZM155.328 391.519L155.73 382.156L149.736 381.899L149.333 391.261L155.328 391.519ZM154.271 379.452L84.4515 337.747L81.3747 342.898L151.195 384.603L154.271 379.452ZM84.4579 342.894L95.8766 336.035L92.787 330.892L81.3683 337.751L84.4579 342.894ZM92.7882 336.036L110.394 346.6L113.481 341.455L95.8753 330.891L92.7882 336.036ZM113.48 346.6L127.263 338.339L124.178 333.193L110.395 341.454L113.48 346.6ZM124.178 338.339L137.458 346.3L140.543 341.154L127.263 333.193L124.178 338.339ZM140.539 346.302L226.959 294.684L223.882 289.533L137.462 341.151L140.539 346.302ZM226.959 289.533L208.448 278.469L205.37 283.619L223.881 294.684L226.959 289.533ZM208.448 283.619L236.768 266.697L233.69 261.546L205.37 278.469L208.448 283.619ZM233.69 266.696L252.201 277.761L255.28 272.611L236.768 261.546L233.69 266.696ZM255.278 277.762L298.639 251.878L295.564 246.726L252.203 272.61L255.278 277.762ZM295.563 251.877L352.958 286.172L356.036 281.022L298.64 246.726L295.563 251.877ZM352.958 281.022L197.725 373.744L200.801 378.896L356.035 286.173L352.958 281.022ZM200.805 373.747L187.777 365.937L184.692 371.083L197.72 378.893L200.805 373.747ZM184.696 365.934L166.336 376.899L169.412 382.05L187.773 371.085L184.696 365.934ZM164.878 379.313L163.772 399.84L169.763 400.163L170.87 379.636L164.878 379.313Z" fill="black" mask="url(#path-81-inside-1)"/>
<path opacity="0.9" d="M233.5 230.5L241 226L262.5 314.5L255 319L233.5 230.5Z" fill="url(#paint0_linear)"/>
<path opacity="0.9" d="M75.5 269.5L83 265L108.5 345L101 349.5L75.5 269.5Z" fill="url(#paint1_linear)"/>
<path opacity="0.8" d="M158.712 323.361L255.025 263.232L197.556 229.177L101.243 286.113L158.712 323.361Z" fill="#C4C4C4"/>
<path d="M160.508 222.16L188.54 238.784L198.268 233.002L252.555 265.165L354.017 205.02L295.755 170.533L275.515 182.511L251.457 168.262L160.508 222.16Z" fill="white"/>
<path d="M66.0023 187.054L170.288 248.851L104.286 287.932L0 226.187L66.0023 187.054Z" fill="white"/>
<path d="M88.23 224.174L95.6566 228.562L74.6844 241.004L67.2578 236.564L88.23 224.174Z" fill="black"/>
<path d="M188.018 209.667L202.087 217.979L194.922 222.212L180.905 213.9L188.018 209.667Z" fill="black"/>
<path d="M250.463 198.722L257.89 203.11L236.865 215.5L229.438 211.112L250.463 198.722Z" fill="black"/>
<path d="M84.6208 232.238C84.8331 232.397 85.2044 232.397 85.4697 232.238C85.6819 232.079 85.6819 231.867 85.4697 231.761C85.2575 231.602 84.8861 231.602 84.6208 231.761C84.3556 231.867 84.3556 232.079 84.6208 232.238Z" fill="white"/>
<path d="M81.9147 233.774L80.4822 234.622C80.2169 234.781 79.8455 234.569 80.1108 234.41L81.5433 233.562L81.0127 233.244L83.5063 232.396L83.4002 232.343L81.9677 232.82C81.6494 232.926 81.4372 232.661 81.7555 232.555L83.2941 232.078C83.4533 232.025 83.8777 231.972 84.1961 232.131L84.4613 232.29L84.7797 232.449C85.098 232.608 84.9919 232.873 84.9388 232.979L84.09 233.933C83.9308 234.145 83.4533 233.986 83.6655 233.827L84.4613 232.979L84.3552 232.926L82.9758 234.41L82.4452 234.092L80.9597 234.993C80.6944 235.152 80.323 234.94 80.5883 234.781L82.0738 233.88L81.9147 233.774Z" fill="white"/>
<path d="M81.382 230.133C81.0636 229.974 80.5861 229.974 80.3209 230.133L79.0475 230.928C78.7823 231.087 79.1537 231.299 79.4189 231.14L80.5861 230.451L80.6923 230.504L77.4028 232.464C77.0845 232.676 77.562 232.941 77.8803 232.729L79.7903 231.564L79.8964 231.617L77.9864 232.782C77.6681 232.994 78.1456 233.259 78.4639 233.047L81.7534 231.087L81.8595 231.14L80.6923 231.828C80.427 231.987 80.7984 232.199 81.0636 232.04L82.337 231.246C82.6023 231.087 82.6553 230.769 82.337 230.61L81.382 230.133Z" fill="white"/>
<path d="M82.3365 230.451C82.6589 230.451 82.9201 230.285 82.9201 230.08C82.9201 229.875 82.6589 229.709 82.3365 229.709C82.0142 229.709 81.7529 229.875 81.7529 230.08C81.7529 230.285 82.0142 230.451 82.3365 230.451Z" fill="white"/>
<path d="M245.078 206.156C245.287 206.311 245.653 206.311 245.915 206.156C246.124 206.001 246.124 205.795 245.915 205.691C245.706 205.536 245.339 205.536 245.078 205.691C244.816 205.795 244.816 206.053 245.078 206.156Z" fill="white"/>
<path d="M242.41 207.653L240.998 208.479C240.737 208.634 240.37 208.427 240.632 208.272L242.044 207.446L241.521 207.137L243.979 206.311L243.875 206.259L242.462 206.724C242.149 206.827 241.939 206.569 242.253 206.465L243.77 206.001C243.927 205.949 244.345 205.898 244.659 206.052L244.921 206.207L245.234 206.362C245.548 206.517 245.444 206.775 245.391 206.878L244.554 207.808C244.398 208.014 243.927 207.859 244.136 207.705L244.921 206.878L244.816 206.827L243.456 208.272L242.933 207.963L241.469 208.84C241.207 208.995 240.841 208.789 241.103 208.634L242.567 207.756L242.41 207.653Z" fill="white"/>
<path d="M192.725 214.777C192.411 214.622 191.941 214.622 191.679 214.777L190.424 215.552C190.163 215.707 190.529 215.913 190.79 215.758L191.941 215.087L192.045 215.139L188.803 217.049C188.489 217.255 188.96 217.514 189.273 217.307L191.156 216.171L191.261 216.223L189.378 217.359C189.064 217.565 189.535 217.823 189.849 217.617L193.091 215.707L193.196 215.758L192.045 216.429C191.784 216.584 192.15 216.791 192.411 216.636L193.667 215.861C193.928 215.707 193.98 215.397 193.667 215.242L192.725 214.777Z" fill="white"/>
<path d="M193.666 215.087C193.984 215.087 194.241 214.925 194.241 214.726C194.241 214.526 193.984 214.364 193.666 214.364C193.348 214.364 193.091 214.526 193.091 214.726C193.091 214.925 193.348 215.087 193.666 215.087Z" fill="white"/>
<path d="M179.389 214.777L186.031 218.701L173.532 226.084L166.89 222.16L179.389 214.777Z" fill="black"/>
<path d="M174.733 226.807L182.265 231.247L190.162 235.945L202.661 228.562L211.291 223.451L203.341 218.753L194.764 223.864L187.233 219.372L174.733 226.807Z" fill="#DAC452"/>
<path d="M259.354 203.987L273.841 212.557L252.869 224.999L238.382 216.378L259.354 203.987Z" fill="black"/>
<path d="M274.94 213.229L282.419 217.617L261.394 230.059L253.968 225.671L274.94 213.229Z" fill="black"/>
<path d="M268.351 224.122L271.541 222.264C271.855 222.057 271.855 221.747 271.541 221.592L268.351 219.682C268.037 219.476 267.514 219.476 267.2 219.682L264.01 221.541C263.696 221.747 263.696 222.057 264.01 222.212L267.2 224.122C267.514 224.329 268.037 224.329 268.351 224.122ZM267.775 223.864L264.376 221.851L267.723 219.837L271.122 221.851L267.775 223.864Z" fill="white"/>
<path d="M272.535 219.682C272.796 219.527 273.162 219.733 272.901 219.888L271.855 220.508L272.273 220.456C272.535 220.456 272.587 220.714 272.273 220.714L271.227 220.766C271.07 220.766 270.966 220.714 270.966 220.611L271.07 219.992C271.07 219.785 271.541 219.837 271.541 219.992L271.489 220.25L272.535 219.682Z" fill="white"/>
<path d="M269.658 219.734C269.397 219.889 269.763 220.095 270.024 219.94L271.07 219.321L271.018 219.579C271.018 219.734 271.436 219.786 271.489 219.579L271.593 218.96C271.593 218.856 271.489 218.805 271.332 218.805L270.286 218.856C269.972 218.856 270.024 219.114 270.286 219.114L270.704 219.063L269.658 219.734Z" fill="white"/>
<path d="M269.449 222.057L268.821 221.696C268.769 221.644 268.612 221.644 268.508 221.696L267.723 222.161C267.671 222.212 267.671 222.264 267.723 222.264C267.723 222.264 267.723 222.264 267.775 222.315L266.782 222.935C266.625 223.038 266.886 223.193 267.043 223.09L268.037 222.47H268.089L267.096 223.09C266.886 223.193 267.2 223.348 267.357 223.245L268.351 222.625C268.403 222.625 268.403 222.677 268.403 222.677C268.455 222.728 268.56 222.728 268.612 222.677L269.397 222.212C269.501 222.212 269.501 222.109 269.449 222.057Z" fill="white"/>
<path d="M269.396 221.903C269.541 221.903 269.658 221.833 269.658 221.748C269.658 221.662 269.541 221.593 269.396 221.593C269.252 221.593 269.135 221.662 269.135 221.748C269.135 221.833 269.252 221.903 269.396 221.903Z" fill="white"/>
<path d="M268.089 221.283L267.461 220.922C267.409 220.87 267.252 220.87 267.147 220.922L266.363 221.386C266.311 221.438 266.311 221.489 266.363 221.489C266.363 221.489 266.363 221.489 266.415 221.541L265.421 222.161C265.265 222.264 265.526 222.419 265.683 222.315L266.677 221.696H266.729L265.735 222.315C265.526 222.419 265.84 222.574 265.997 222.47L266.99 221.851C267.043 221.851 267.043 221.902 267.043 221.902C267.095 221.954 267.2 221.954 267.252 221.902L268.036 221.438C268.193 221.386 268.193 221.335 268.089 221.283Z" fill="white"/>
<path d="M268.036 221.076C268.18 221.076 268.297 221.007 268.297 220.921C268.297 220.836 268.18 220.767 268.036 220.767C267.891 220.767 267.774 220.836 267.774 220.921C267.774 221.007 267.891 221.076 268.036 221.076Z" fill="white"/>
<path d="M228.34 185.608L249.313 198.05L228.34 210.492L207.368 198.05L228.34 185.608Z" fill="black"/>
<path d="M288.852 221.438L305.274 231.195L284.302 243.637L277.241 239.404L280.954 226.136L288.852 221.438Z" fill="#DAC452"/>
<path d="M313.432 191.804L291.257 204.917L320.44 222.212L349.31 205.123L323.003 189.48L316.256 193.507L313.432 191.804Z" fill="#DAC452"/>
<path d="M286.132 201.871L308.307 188.758L305.43 187.106L312.177 183.079L295.859 173.425L266.938 190.513L286.132 201.871Z" fill="#DAC452"/>
<path d="M252.608 171.257L273.58 183.699L250.83 197.173L229.857 184.731L252.608 171.257Z" fill="black"/>
<path d="M97.1206 229.439L107.476 235.583L86.5038 247.973L76.1484 241.881L97.1206 229.439Z" fill="black"/>
<path d="M111.973 249.625L123.113 256.233L111.764 262.945L100.624 256.336L111.973 249.625Z" fill="#C8A67C"/>
<path d="M124.474 257.06L138.229 265.217L126.88 271.928L113.125 263.771L124.474 257.06Z" fill="#C8A67C"/>
<path d="M122.852 243.172L113.229 248.902L139.483 264.442L165.842 248.851L135.456 230.833L118.72 240.745L122.852 243.172Z" fill="black"/>
<path d="M112.758 238.681L120.185 243.069L99.2127 255.511L91.7861 251.123L112.758 238.681Z" fill="black"/>
<path d="M104.861 250.348L108.052 248.489C108.365 248.283 108.365 247.973 108.052 247.818L104.861 245.908C104.548 245.701 104.025 245.701 103.711 245.908L100.521 247.766C100.207 247.973 100.207 248.283 100.521 248.438L103.711 250.348C104.025 250.503 104.495 250.554 104.861 250.348ZM104.286 250.09L100.887 248.076L104.234 246.063L107.633 248.076L104.286 250.09Z" fill="white"/>
<path d="M109.045 245.908C109.306 245.753 109.672 245.96 109.411 246.115L108.365 246.734L108.783 246.683C109.045 246.683 109.097 246.941 108.783 246.941L107.737 246.993C107.58 246.993 107.476 246.941 107.476 246.838L107.58 246.218C107.58 246.012 108.051 246.063 108.051 246.218L107.999 246.476L109.045 245.908Z" fill="white"/>
<path d="M106.116 245.908C105.855 246.063 106.221 246.269 106.482 246.114L107.528 245.495L107.476 245.753C107.476 245.908 107.895 245.959 107.947 245.753L108.051 245.133C108.051 245.03 107.947 244.979 107.79 244.979L106.744 245.03C106.43 245.03 106.482 245.288 106.744 245.288L107.162 245.237L106.116 245.908Z" fill="white"/>
<path d="M105.907 248.283L105.279 247.922C105.227 247.87 105.07 247.87 104.966 247.922L104.181 248.386C104.129 248.438 104.129 248.489 104.181 248.489C104.181 248.489 104.181 248.489 104.233 248.541L103.24 249.161C103.083 249.264 103.344 249.419 103.501 249.315L104.495 248.696H104.547L103.554 249.315C103.344 249.419 103.658 249.574 103.815 249.47L104.809 248.851C104.861 248.851 104.861 248.902 104.861 248.902C104.913 248.954 105.018 248.954 105.07 248.902L105.855 248.438C106.012 248.438 106.012 248.335 105.907 248.283Z" fill="white"/>
<path d="M105.907 248.076C106.051 248.076 106.169 248.007 106.169 247.921C106.169 247.836 106.051 247.767 105.907 247.767C105.763 247.767 105.646 247.836 105.646 247.921C105.646 248.007 105.763 248.076 105.907 248.076Z" fill="white"/>
<path d="M104.599 247.508L103.972 247.146C103.92 247.095 103.763 247.095 103.658 247.146L102.874 247.611C102.821 247.662 102.821 247.714 102.874 247.714C102.874 247.714 102.874 247.714 102.926 247.766L101.932 248.385C101.775 248.488 102.037 248.643 102.194 248.54L103.187 247.921H103.24L102.246 248.54C102.037 248.643 102.351 248.798 102.507 248.695L103.501 248.075C103.553 248.075 103.553 248.127 103.553 248.127C103.606 248.179 103.71 248.179 103.763 248.127L104.547 247.662C104.652 247.611 104.652 247.559 104.599 247.508Z" fill="white"/>
<path d="M104.547 247.302C104.691 247.302 104.808 247.233 104.808 247.147C104.808 247.062 104.691 246.992 104.547 246.992C104.402 246.992 104.285 247.062 104.285 247.147C104.285 247.233 104.402 247.302 104.547 247.302Z" fill="white"/>
<path d="M66.1071 235.943L87.1316 223.501L70.2388 213.538L88.2822 202.851L77.2993 196.397L59.3081 207.033L38.3359 219.475L66.1071 235.943Z" fill="black"/>
<path d="M106.221 213.487L121.807 222.728L105.071 232.641L89.4854 223.4L106.221 213.487Z" fill="black"/>
<path d="M42.6245 231.35L55.863 239.077L41.1145 247.802L27.876 240.075L42.6245 231.35Z" fill="#C8A67C"/>
<path d="M57.6745 240.075L70.913 247.802L56.1645 256.526L42.926 248.799L57.6745 240.075Z" fill="#C8A67C"/>
<path d="M66.0024 189.687L75.9916 195.572L37.0283 218.649L27.0391 212.764L66.0024 189.687Z" fill="black"/>
<path d="M25.8882 213.487L48.1156 226.652L26.6727 239.352L4.44531 226.187L25.8882 213.487Z" fill="black"/>
<path d="M280.117 202.077L294.395 210.544L286.707 215.087L272.429 206.62L280.117 202.077Z" fill="black"/>
<path d="M284.458 207.395C284.667 207.498 285.033 207.498 285.242 207.395C285.451 207.291 285.451 207.033 285.242 206.93C285.033 206.827 284.667 206.827 284.458 206.93C284.248 207.085 284.248 207.291 284.458 207.395Z" fill="white"/>
<path d="M287.544 208.789L286.603 208.221C286.393 208.118 286.08 208.015 285.818 208.015H284.145L284.406 207.86C284.929 207.55 284.145 207.085 283.622 207.395L282.628 208.015H281.163C281.007 208.015 281.007 208.015 280.902 207.911L280.431 207.653C279.961 207.395 279.281 207.447 278.967 207.653C278.601 207.86 278.444 208.273 278.967 208.583C278.967 208.583 279.594 208.944 279.751 209.047C279.961 209.15 280.222 209.254 280.588 209.254H285.295C285.4 209.254 285.452 209.254 285.504 209.305C285.504 209.305 285.818 209.512 286.08 209.667C286.341 209.822 287.073 209.873 287.544 209.615C287.962 209.409 287.858 208.996 287.544 208.789ZM286.393 209.46L285.923 209.15C285.713 209.047 285.609 208.996 285.347 208.996H280.64C280.431 208.996 280.274 208.944 280.117 208.841L279.333 208.376C279.124 208.273 279.124 208.066 279.333 207.911C279.542 207.757 279.856 207.808 280.013 207.911L280.536 208.221C280.693 208.324 280.85 208.324 281.007 208.324H285.818C286.027 208.324 286.132 208.376 286.289 208.479L287.126 208.944C287.335 209.047 287.23 209.254 287.126 209.357C286.969 209.512 286.655 209.615 286.393 209.46Z" fill="white"/>
<path d="M234.355 222.16L254.543 234.138L246.802 238.681L226.667 226.755L234.355 222.16Z" fill="black"/>
<path d="M241.624 229.285C241.833 229.388 242.199 229.388 242.408 229.285C242.617 229.182 242.617 228.924 242.408 228.821C242.199 228.717 241.833 228.717 241.624 228.821C241.414 228.924 241.414 229.13 241.624 229.285Z" fill="white"/>
<path d="M244.71 230.68L243.769 230.112C243.559 230.009 243.246 229.905 242.984 229.905H241.31L241.572 229.75C242.095 229.441 241.31 228.976 240.787 229.286L239.794 229.905H238.329C238.173 229.905 238.173 229.905 238.068 229.802L237.597 229.544C237.127 229.286 236.447 229.337 236.133 229.544C235.767 229.75 235.61 230.163 236.133 230.473C236.133 230.473 236.76 230.835 236.917 230.938C237.127 231.041 237.388 231.144 237.754 231.144H242.461C242.566 231.144 242.618 231.144 242.67 231.196C242.67 231.196 242.984 231.402 243.246 231.557C243.507 231.712 244.239 231.764 244.71 231.506C245.128 231.248 245.024 230.835 244.71 230.68ZM243.559 231.299L243.089 230.989C242.879 230.886 242.775 230.835 242.513 230.835H237.806C237.597 230.835 237.44 230.783 237.283 230.68L236.499 230.215C236.29 230.112 236.29 229.905 236.499 229.75C236.708 229.596 237.022 229.647 237.179 229.75L237.702 230.06C237.859 230.163 238.016 230.163 238.173 230.163H242.984C243.193 230.163 243.298 230.215 243.455 230.318L244.292 230.783C244.501 230.886 244.396 231.093 244.292 231.196C244.187 231.299 243.821 231.454 243.559 231.299Z" fill="white"/>
<path d="M76.8277 259.95L97.0154 271.876L89.3274 276.471L69.1396 264.493L76.8277 259.95Z" fill="black"/>
<path d="M84.1501 267.024C84.3593 267.127 84.7254 267.127 84.9346 267.024C85.1438 266.92 85.1438 266.662 84.9346 266.559C84.7254 266.456 84.3593 266.456 84.1501 266.559C83.9409 266.714 83.9409 266.92 84.1501 267.024Z" fill="white"/>
<path d="M87.2364 268.418L86.295 267.85C86.0858 267.747 85.772 267.644 85.5105 267.644H83.8369L84.0984 267.489C84.6214 267.179 83.8369 266.714 83.3139 267.024L82.3202 267.644H80.8558C80.6989 267.644 80.6989 267.644 80.5943 267.54L80.1236 267.282C79.6529 267.024 78.973 267.076 78.6592 267.282C78.2931 267.489 78.1362 267.902 78.6592 268.211C78.6592 268.211 79.2868 268.573 79.4437 268.676C79.6529 268.779 79.9144 268.883 80.2805 268.883H84.9875C85.0921 268.883 85.1444 268.883 85.1967 268.934C85.1967 268.934 85.5105 269.141 85.772 269.296C86.0335 269.45 86.7657 269.502 87.2364 269.244C87.6025 269.037 87.5502 268.624 87.2364 268.418ZM86.0335 269.089L85.5628 268.779C85.3536 268.676 85.249 268.624 84.9875 268.624H80.2805C80.0713 268.624 79.9144 268.573 79.7575 268.47L78.973 268.005C78.7638 267.902 78.7638 267.695 78.973 267.54C79.1822 267.385 79.496 267.437 79.6529 267.54L80.1759 267.85C80.3328 267.953 80.4897 267.953 80.6466 267.953H85.4582C85.6674 267.953 85.772 268.005 85.9289 268.108L86.7657 268.573C86.9749 268.676 86.8703 268.883 86.7657 268.986C86.6611 269.141 86.295 269.244 86.0335 269.089Z" fill="white"/>
<path d="M183.677 240.9L195.079 247.715L184.723 253.91L173.27 247.096L183.677 240.9Z" fill="black"/>
<path d="M183.625 250.297L186.815 248.438C187.129 248.232 187.129 247.922 186.815 247.767L183.625 245.857C183.311 245.651 182.788 245.651 182.474 245.857L179.284 247.716C178.97 247.922 178.97 248.232 179.284 248.387L182.474 250.297C182.788 250.452 183.311 250.503 183.625 250.297ZM183.05 250.039L179.65 248.025L182.997 246.012L186.397 248.025L183.05 250.039Z" fill="white"/>
<path d="M187.809 245.857C188.071 245.702 188.437 245.908 188.175 246.063L187.129 246.683L187.548 246.631C187.809 246.631 187.862 246.889 187.548 246.889L186.502 246.941C186.345 246.941 186.24 246.889 186.24 246.786L186.345 246.166C186.345 245.96 186.816 246.011 186.816 246.166L186.763 246.425L187.809 245.857Z" fill="white"/>
<path d="M184.933 245.857C184.671 246.012 185.037 246.218 185.299 246.064L186.345 245.444L186.293 245.702C186.293 245.857 186.711 245.909 186.763 245.702L186.868 245.083C186.868 244.979 186.763 244.928 186.606 244.928L185.56 244.979C185.247 244.979 185.299 245.237 185.56 245.237L185.979 245.186L184.933 245.857Z" fill="white"/>
<path d="M184.723 248.232L184.095 247.871C184.043 247.819 183.886 247.819 183.781 247.871L182.997 248.335C182.944 248.387 182.944 248.439 182.997 248.439C182.997 248.439 182.997 248.439 183.049 248.49L182.055 249.11C181.898 249.213 182.16 249.368 182.317 249.265L183.31 248.645H183.363L182.369 249.265C182.16 249.368 182.474 249.523 182.631 249.42L183.624 248.8C183.677 248.8 183.677 248.852 183.677 248.852C183.729 248.903 183.833 248.903 183.886 248.852L184.67 248.387C184.827 248.335 184.827 248.284 184.723 248.232Z" fill="white"/>
<path d="M184.67 248.026C184.814 248.026 184.931 247.956 184.931 247.871C184.931 247.785 184.814 247.716 184.67 247.716C184.525 247.716 184.408 247.785 184.408 247.871C184.408 247.956 184.525 248.026 184.67 248.026Z" fill="white"/>
<path d="M183.363 247.458L182.736 247.096C182.683 247.045 182.526 247.045 182.422 247.096L181.637 247.561C181.585 247.613 181.585 247.664 181.637 247.664C181.637 247.664 181.637 247.664 181.69 247.716L180.696 248.335C180.539 248.439 180.8 248.593 180.957 248.49L181.951 247.871H182.003L181.01 248.49C180.8 248.593 181.114 248.748 181.271 248.645L182.265 248.026C182.317 248.026 182.317 248.077 182.317 248.077C182.369 248.129 182.474 248.129 182.526 248.077L183.311 247.613C183.468 247.561 183.468 247.509 183.363 247.458Z" fill="white"/>
<path d="M183.363 247.251C183.508 247.251 183.625 247.182 183.625 247.096C183.625 247.011 183.508 246.941 183.363 246.941C183.219 246.941 183.102 247.011 183.102 247.096C183.102 247.182 183.219 247.251 183.363 247.251Z" fill="white"/>
<path d="M198.424 235.479L218.56 247.457L210.872 252L190.736 240.074L198.424 235.479Z" fill="black"/>
<path d="M205.695 242.605C205.904 242.708 206.27 242.708 206.479 242.605C206.689 242.501 206.689 242.243 206.479 242.14C206.27 242.037 205.904 242.037 205.695 242.14C205.486 242.243 205.486 242.45 205.695 242.605Z" fill="white"/>
<path d="M208.781 243.999L207.84 243.431C207.631 243.328 207.317 243.225 207.055 243.225H205.382L205.643 243.07C206.166 242.76 205.382 242.295 204.859 242.605L203.865 243.225H202.401C202.244 243.225 202.244 243.225 202.139 243.121L201.669 242.863C201.198 242.605 200.518 242.657 200.204 242.863C199.838 243.07 199.681 243.483 200.204 243.792C200.204 243.792 200.832 244.154 200.989 244.257C201.198 244.36 201.459 244.464 201.825 244.464H206.532C206.637 244.464 206.689 244.464 206.742 244.515C206.742 244.515 207.055 244.722 207.317 244.877C207.578 245.032 208.311 245.083 208.781 244.825C209.2 244.567 209.095 244.154 208.781 243.999ZM207.631 244.619L207.16 244.309C206.951 244.206 206.846 244.154 206.585 244.154H201.878C201.669 244.154 201.512 244.102 201.355 243.999L200.57 243.534C200.361 243.431 200.361 243.225 200.57 243.07C200.779 242.915 201.093 242.966 201.25 243.07L201.773 243.379C201.93 243.483 202.087 243.483 202.244 243.483H207.055C207.265 243.483 207.369 243.534 207.526 243.638L208.363 244.102C208.572 244.206 208.468 244.412 208.363 244.515C208.206 244.67 207.892 244.773 207.631 244.619Z" fill="white"/>
<path d="M199.033 231.711L198.267 231.257L197.502 231.712L188.54 237.039L163.449 222.16L251.457 170.005L274.751 183.801L275.515 184.254L276.279 183.802L295.755 172.276L351.074 205.021L252.555 263.421L199.033 231.711Z" stroke="black" stroke-width="3" stroke-miterlimit="10"/>
<path d="M2.94269 226.186L66.0025 188.797L167.345 248.85L104.286 286.189L2.94269 226.186Z" stroke="black" stroke-width="3" stroke-miterlimit="10"/>
<path opacity="0.9" d="M66 172.5L73.5 168L97.5 272L90 276.5L66 172.5Z" fill="url(#paint2_linear)"/>
<path opacity="0.9" d="M227 147L234.5 142.5L254.5 234L247 238.5L227 147Z" fill="url(#paint3_linear)"/>
<path opacity="0.9" d="M268 124L275.5 119.5L294.5 210.5L287 215L268 124Z" fill="url(#paint4_linear)"/>
<path opacity="0.9" d="M184.5 147.5L192 143L218.5 247.5L211 252L184.5 147.5Z" fill="url(#paint5_linear)"/>
<path d="M98.5413 196L162.277 157.778L178.045 167.257L194.935 157.115L179.167 147.687L190.853 140.705L258.874 181.475L354.452 124.193L297.401 90.0473L278.112 101.616L255.456 88.0088L217.796 110.586L181.004 88.776L151.407 106.511L102.164 76.7969L0.922852 137.494L98.5413 196Z" fill="white"/>
<path d="M226.726 108.139L272.142 135.353L251.679 147.635L206.264 120.421L226.726 108.139Z" fill="black"/>
<path d="M203.865 105.591L215.04 112.267L203.865 118.943L192.689 112.267L203.865 105.591Z" fill="black"/>
<path d="M207.495 112.192C207.699 112.344 208.056 112.344 208.312 112.192C208.516 112.039 208.516 111.835 208.312 111.733C208.107 111.58 207.75 111.58 207.495 111.733C207.24 111.835 207.24 112.039 207.495 112.192Z" fill="white"/>
<path d="M204.893 113.669L203.515 114.485C203.26 114.637 202.903 114.434 203.158 114.281L204.536 113.465L204.026 113.159L206.424 112.344L206.322 112.293L204.944 112.752C204.638 112.854 204.434 112.599 204.74 112.497L206.22 112.038C206.373 111.987 206.781 111.936 207.087 112.089L207.342 112.242L207.649 112.395C207.955 112.548 207.853 112.803 207.802 112.905L206.985 113.822C206.832 114.026 206.373 113.873 206.577 113.72L207.342 112.905L207.24 112.854L205.914 114.281L205.403 113.975L203.975 114.841C203.719 114.994 203.362 114.79 203.617 114.637L205.046 113.771L204.893 113.669Z" fill="white"/>
<path d="M204.38 110.168C204.074 110.015 203.615 110.015 203.36 110.168L202.135 110.933C201.88 111.086 202.237 111.29 202.492 111.137L203.615 110.474L203.717 110.525L200.553 112.411C200.247 112.615 200.706 112.869 201.012 112.666L202.849 111.544L202.951 111.595L201.114 112.717C200.808 112.92 201.268 113.175 201.574 112.971L204.737 111.086L204.84 111.137L203.717 111.799C203.462 111.952 203.819 112.156 204.074 112.003L205.299 111.239C205.554 111.086 205.605 110.78 205.299 110.627L204.38 110.168Z" fill="white"/>
<path d="M205.299 110.473C205.609 110.473 205.86 110.314 205.86 110.117C205.86 109.919 205.609 109.76 205.299 109.76C204.989 109.76 204.737 109.919 204.737 110.117C204.737 110.314 204.989 110.473 205.299 110.473Z" fill="white"/>
<path d="M65.73 101.056L76.9054 107.732L65.73 114.408L54.5547 107.732L65.73 101.056Z" fill="black"/>
<path d="M68.2861 107.073C68.4902 107.226 68.8474 107.226 69.1025 107.073C69.3067 106.92 69.3067 106.717 69.1025 106.615C68.8984 106.462 68.5412 106.462 68.2861 106.615C68.0309 106.717 68.0309 106.92 68.2861 107.073Z" fill="white"/>
<path d="M65.6841 108.551L64.3063 109.366C64.0512 109.519 63.694 109.315 63.9491 109.162L65.3269 108.347L64.8166 108.041L67.215 107.226L67.1129 107.175L65.7351 107.634C65.4289 107.736 65.2248 107.481 65.531 107.379L67.0108 106.92C67.1639 106.869 67.5722 106.818 67.8783 106.971L68.1335 107.124L68.4397 107.277C68.7458 107.43 68.6438 107.685 68.5927 107.786L67.7763 108.704C67.6232 108.908 67.1639 108.755 67.368 108.602L68.1335 107.786L68.0314 107.736L66.7047 109.162L66.1944 108.857L64.7656 109.723C64.5104 109.876 64.1532 109.672 64.4084 109.519L65.8372 108.653L65.6841 108.551Z" fill="white"/>
<path d="M65.1723 105.05C64.8661 104.897 64.4068 104.897 64.1517 105.05L62.927 105.815C62.6719 105.968 63.0291 106.171 63.2842 106.019L64.4068 105.356L64.5089 105.407L61.3451 107.293C61.0389 107.496 61.4982 107.751 61.8044 107.547L63.6414 106.426L63.7435 106.477L61.9064 107.598C61.6003 107.802 62.0595 108.057 62.3657 107.853L65.5295 105.968L65.6315 106.019L64.5089 106.681C64.2538 106.834 64.611 107.038 64.8661 106.885L66.0908 106.12C66.3459 105.968 66.397 105.662 66.0908 105.509L65.1723 105.05Z" fill="white"/>
<path d="M66.0906 105.355C66.4006 105.355 66.6519 105.195 66.6519 104.998C66.6519 104.801 66.4006 104.642 66.0906 104.642C65.7806 104.642 65.5293 104.801 65.5293 104.998C65.5293 105.195 65.7806 105.355 66.0906 105.355Z" fill="white"/>
<path d="M47.1042 112.166L105.124 146.923L84.6616 159.205L26.6416 124.448L47.1042 112.166Z" fill="black"/>
<path d="M106.196 147.585L113.442 151.917L92.9795 164.199L85.7334 159.867L106.196 147.585Z" fill="black"/>
<path d="M159.061 157.318L120.279 180.558L114.462 177.092L115.278 165.88L129.158 157.573L159.061 157.318Z" fill="#C8A67C"/>
<path d="M98.3879 159.154L101.501 157.319C101.807 157.115 101.807 156.81 101.501 156.657L98.3879 154.771C98.0817 154.567 97.5714 154.567 97.2652 154.771L94.1525 156.606C93.8463 156.81 93.8463 157.115 94.1525 157.268L97.2652 159.154C97.5714 159.358 98.0307 159.358 98.3879 159.154ZM97.8266 158.95L94.5097 156.962L97.7755 154.975L101.092 156.962L97.8266 158.95Z" fill="white"/>
<path d="M102.47 154.822C102.725 154.669 103.083 154.873 102.828 155.026L101.807 155.637L102.215 155.586C102.47 155.586 102.521 155.841 102.215 155.841L101.195 155.892C101.042 155.892 100.939 155.841 100.939 155.739L101.042 155.128C101.042 154.924 101.501 154.975 101.501 155.128L101.45 155.382L102.47 154.822Z" fill="white"/>
<path d="M99.6639 154.822C99.4088 154.975 99.766 155.178 100.021 155.025L101.042 154.414L100.991 154.669C100.991 154.822 101.399 154.873 101.45 154.669L101.552 154.057C101.552 153.955 101.45 153.904 101.297 153.904L100.276 153.955C99.9701 153.955 100.021 154.21 100.276 154.21L100.685 154.159L99.6639 154.822Z" fill="white"/>
<path d="M99.4602 157.114L98.8479 156.757C98.7968 156.706 98.6437 156.706 98.5417 156.757L97.7763 157.216C97.7252 157.267 97.7252 157.318 97.7763 157.318C97.7763 157.318 97.7763 157.318 97.8273 157.369L96.8578 157.98C96.7047 158.082 96.9598 158.235 97.1129 158.133L98.0824 157.521H98.1335L97.1639 158.133C96.9598 158.235 97.266 158.388 97.4191 158.286L98.3886 157.674C98.4396 157.674 98.4396 157.725 98.4396 157.725C98.4907 157.776 98.5927 157.776 98.6438 157.725L99.4092 157.267C99.5112 157.267 99.5112 157.165 99.4602 157.114Z" fill="white"/>
<path d="M99.4094 156.962C99.5504 156.962 99.6646 156.894 99.6646 156.809C99.6646 156.725 99.5504 156.656 99.4094 156.656C99.2685 156.656 99.1543 156.725 99.1543 156.809C99.1543 156.894 99.2685 156.962 99.4094 156.962Z" fill="white"/>
<path d="M98.1331 156.351L97.5207 155.994C97.4697 155.943 97.3166 155.943 97.2146 155.994L96.4491 156.453C96.3981 156.504 96.3981 156.555 96.4491 156.555C96.4491 156.555 96.4491 156.555 96.5001 156.606L95.5306 157.217C95.3775 157.319 95.6327 157.472 95.7857 157.37L96.7553 156.759H96.8063L95.8368 157.37C95.6327 157.472 95.9388 157.625 96.0919 157.523L97.0615 156.912C97.1125 156.912 97.1125 156.963 97.1125 156.963C97.1635 157.014 97.2656 157.014 97.3166 156.963L98.082 156.504C98.2351 156.504 98.2351 156.402 98.1331 156.351Z" fill="white"/>
<path d="M98.0823 156.197C98.2232 156.197 98.3374 156.129 98.3374 156.044C98.3374 155.96 98.2232 155.892 98.0823 155.892C97.9414 155.892 97.8271 155.96 97.8271 156.044C97.8271 156.129 97.9414 156.197 98.0823 156.197Z" fill="white"/>
<path d="M178.708 150.439L189.883 157.116L178.249 164.098L167.073 157.37L178.708 150.439Z" fill="black"/>
<path d="M177.943 160.122L181.055 158.287C181.361 158.083 181.361 157.777 181.055 157.624L177.943 155.739C177.636 155.535 177.126 155.535 176.82 155.739L173.707 157.574C173.401 157.777 173.401 158.083 173.707 158.236L176.82 160.122C177.126 160.275 177.636 160.326 177.943 160.122ZM177.381 159.867L174.064 157.879L177.33 155.892L180.647 157.879L177.381 159.867Z" fill="white"/>
<path d="M182.025 155.739C182.28 155.586 182.637 155.79 182.382 155.943L181.362 156.554L181.77 156.503C182.025 156.503 182.076 156.758 181.77 156.758L180.749 156.809C180.596 156.809 180.494 156.758 180.494 156.656L180.596 156.045C180.596 155.841 181.055 155.892 181.055 156.045L181.004 156.299L182.025 155.739Z" fill="white"/>
<path d="M179.219 155.789C178.963 155.942 179.321 156.146 179.576 155.993L180.596 155.382L180.545 155.637C180.545 155.789 180.954 155.84 181.005 155.637L181.107 155.025C181.107 154.923 181.005 154.872 180.852 154.872L179.831 154.923C179.525 154.923 179.576 155.178 179.831 155.178L180.239 155.127L179.219 155.789Z" fill="white"/>
<path d="M179.015 158.083L178.403 157.727C178.352 157.676 178.198 157.676 178.096 157.727L177.331 158.185C177.28 158.236 177.28 158.287 177.331 158.287C177.331 158.287 177.331 158.287 177.382 158.338L176.412 158.95C176.259 159.052 176.514 159.205 176.668 159.103L177.637 158.491H177.688L176.719 159.103C176.515 159.205 176.821 159.358 176.974 159.256L177.943 158.644C177.994 158.644 177.994 158.695 177.994 158.695C178.045 158.746 178.147 158.746 178.198 158.695L178.964 158.236C179.066 158.236 179.066 158.134 179.015 158.083Z" fill="white"/>
<path d="M178.964 157.93C179.105 157.93 179.219 157.861 179.219 157.777C179.219 157.692 179.105 157.624 178.964 157.624C178.823 157.624 178.709 157.692 178.709 157.777C178.709 157.861 178.823 157.93 178.964 157.93Z" fill="white"/>
<path d="M177.688 157.318L177.075 156.961C177.024 156.91 176.871 156.91 176.769 156.961L176.004 157.42C175.953 157.471 175.953 157.522 176.004 157.522C176.004 157.522 176.004 157.522 176.055 157.573L175.085 158.184C174.932 158.286 175.187 158.439 175.34 158.337L176.31 157.726H176.361L175.391 158.337C175.187 158.439 175.494 158.592 175.647 158.49L176.616 157.878C176.667 157.878 176.667 157.929 176.667 157.929C176.718 157.98 176.82 157.98 176.871 157.929L177.637 157.471C177.79 157.42 177.79 157.369 177.688 157.318Z" fill="white"/>
<path d="M177.637 157.114C177.778 157.114 177.892 157.046 177.892 156.961C177.892 156.877 177.778 156.809 177.637 156.809C177.496 156.809 177.382 156.877 177.382 156.961C177.382 157.046 177.496 157.114 177.637 157.114Z" fill="white"/>
<path d="M99.2557 120.626L115.993 130.666L104.41 137.597L87.6211 127.557L99.2557 120.626Z" fill="black"/>
<path d="M86.1407 111.044L73.0773 118.842L86.3959 126.792L99.4593 118.995L117.421 129.799L152.019 109.057L102.164 79.1924L67.6172 99.9344L86.1407 111.044Z" fill="black"/>
<path d="M101.297 131.99L104.41 130.155C104.716 129.951 104.716 129.646 104.41 129.493L101.297 127.607C100.991 127.403 100.481 127.403 100.174 127.607L97.0617 129.442C96.7555 129.646 96.7555 129.951 97.0617 130.104L100.174 131.99C100.481 132.194 100.991 132.194 101.297 131.99ZM100.736 131.786L97.4189 129.798L100.685 127.811L104.002 129.798L100.736 131.786Z" fill="white"/>
<path d="M105.379 127.608C105.635 127.455 105.992 127.659 105.737 127.812L104.716 128.423L105.124 128.372C105.379 128.372 105.431 128.627 105.124 128.627L104.104 128.678C103.951 128.678 103.849 128.627 103.849 128.525L103.951 127.914C103.951 127.71 104.41 127.761 104.41 127.914L104.359 128.168L105.379 127.608Z" fill="white"/>
<path d="M102.573 127.659C102.318 127.811 102.675 128.015 102.93 127.862L103.951 127.251L103.9 127.506C103.9 127.659 104.308 127.71 104.359 127.506L104.461 126.894C104.461 126.792 104.359 126.741 104.206 126.741L103.185 126.792C102.879 126.792 102.93 127.047 103.185 127.047L103.594 126.996L102.573 127.659Z" fill="white"/>
<path d="M102.368 129.952L101.756 129.595C101.705 129.544 101.552 129.544 101.45 129.595L100.684 130.054C100.633 130.104 100.633 130.155 100.684 130.155C100.684 130.155 100.684 130.155 100.736 130.206L99.766 130.818C99.6129 130.92 99.868 131.073 100.021 130.971L100.991 130.359H101.042L100.072 130.971C99.868 131.073 100.174 131.226 100.327 131.124L101.297 130.512C101.348 130.512 101.348 130.563 101.348 130.563C101.399 130.614 101.501 130.614 101.552 130.563L102.317 130.104C102.47 130.104 102.47 130.003 102.368 129.952Z" fill="white"/>
<path d="M102.318 129.799C102.459 129.799 102.573 129.73 102.573 129.646C102.573 129.562 102.459 129.493 102.318 129.493C102.177 129.493 102.062 129.562 102.062 129.646C102.062 129.73 102.177 129.799 102.318 129.799Z" fill="white"/>
<path d="M101.042 129.186L100.43 128.829C100.379 128.778 100.226 128.778 100.124 128.829L99.3583 129.288C99.3073 129.339 99.3073 129.39 99.3583 129.39C99.3583 129.39 99.3583 129.39 99.4093 129.441L98.4398 130.052C98.2867 130.154 98.5418 130.307 98.6949 130.205L99.6645 129.594H99.7155L98.746 130.205C98.5418 130.307 98.848 130.46 99.0011 130.358L99.9707 129.747C100.022 129.747 100.022 129.798 100.022 129.798C100.073 129.849 100.175 129.849 100.226 129.798L100.991 129.339C101.144 129.288 101.144 129.237 101.042 129.186Z" fill="white"/>
<path d="M100.991 128.984C101.132 128.984 101.247 128.915 101.247 128.831C101.247 128.746 101.132 128.678 100.991 128.678C100.851 128.678 100.736 128.746 100.736 128.831C100.736 128.915 100.851 128.984 100.991 128.984Z" fill="white"/>
<path d="M255.455 90.9141L275.714 103.043L253.465 116.345L233.258 104.266L255.455 90.9141Z" fill="black"/>
<path d="M273.265 136.017L280.511 140.348L260.048 152.631L252.751 148.299L273.265 136.017Z" fill="black"/>
<path d="M265.406 147.586L268.519 145.751C268.825 145.547 268.825 145.241 268.519 145.088L265.406 143.203C265.1 142.999 264.59 142.999 264.284 143.203L261.171 145.037C260.865 145.241 260.865 145.547 261.171 145.7L264.284 147.586C264.59 147.789 265.1 147.789 265.406 147.586ZM264.845 147.331L261.528 145.343L264.794 143.356L268.111 145.343L264.845 147.331Z" fill="white"/>
<path d="M269.489 143.202C269.744 143.049 270.101 143.253 269.846 143.405L268.825 144.017L269.234 143.966C269.489 143.966 269.54 144.221 269.234 144.221L268.213 144.272C268.06 144.272 267.958 144.221 267.958 144.119L268.06 143.507C268.06 143.304 268.519 143.355 268.519 143.507L268.468 143.762L269.489 143.202Z" fill="white"/>
<path d="M266.683 143.253C266.427 143.406 266.785 143.61 267.04 143.457L268.06 142.846L268.009 143.1C268.009 143.253 268.417 143.304 268.468 143.1L268.571 142.489C268.571 142.387 268.468 142.336 268.315 142.336L267.295 142.387C266.989 142.387 267.04 142.642 267.295 142.642L267.703 142.591L266.683 143.253Z" fill="white"/>
<path d="M266.479 145.545L265.866 145.189C265.815 145.138 265.662 145.138 265.56 145.189L264.795 145.647C264.744 145.698 264.744 145.749 264.795 145.749C264.795 145.749 264.795 145.749 264.846 145.8L263.876 146.412C263.723 146.514 263.978 146.667 264.131 146.565L265.101 145.953H265.152L264.182 146.565C263.978 146.667 264.285 146.819 264.438 146.718L265.407 146.106C265.458 146.106 265.458 146.157 265.458 146.157C265.509 146.208 265.611 146.208 265.662 146.157L266.428 145.698C266.581 145.698 266.581 145.596 266.479 145.545Z" fill="white"/>
<path d="M266.428 145.394C266.569 145.394 266.683 145.325 266.683 145.241C266.683 145.156 266.569 145.088 266.428 145.088C266.287 145.088 266.173 145.156 266.173 145.241C266.173 145.325 266.287 145.394 266.428 145.394Z" fill="white"/>
<path d="M265.152 144.782L264.539 144.425C264.488 144.374 264.335 144.374 264.233 144.425L263.468 144.884C263.417 144.935 263.417 144.986 263.468 144.986C263.468 144.986 263.468 144.986 263.519 145.037L262.549 145.648C262.396 145.75 262.651 145.903 262.804 145.801L263.774 145.189H263.825L262.855 145.801C262.651 145.903 262.957 146.056 263.11 145.954L264.08 145.342C264.131 145.342 264.131 145.393 264.131 145.393C264.182 145.444 264.284 145.444 264.335 145.393L265.101 144.935C265.254 144.884 265.254 144.833 265.152 144.782Z" fill="white"/>
<path d="M265.152 144.578C265.293 144.578 265.407 144.51 265.407 144.425C265.407 144.341 265.293 144.272 265.152 144.272C265.011 144.272 264.896 144.341 264.896 144.425C264.896 144.51 265.011 144.578 265.152 144.578Z" fill="white"/>
<path d="M236.116 143.355L255.813 155.128L248.312 159.613L228.614 147.84L236.116 143.355Z" fill="black"/>
<path d="M229.431 160.937L259.283 178.825L280.46 166.136L264.028 156.3L251.934 163.536L238.514 155.535L229.431 160.937Z" fill="black"/>
<path d="M299.069 135.164L315.5 145L281.532 165.524L265.101 155.637L299.069 135.164Z" fill="#DAC452"/>
<path d="M327.547 109.76L351.939 124.437L323.159 141.663L298.716 127.036L327.547 109.76Z" fill="#DAC452"/>
<path d="M292.866 123.293L307.409 114.578L311.491 117.076L325.779 108.514L298.887 92.3584L270.056 109.635L292.866 123.293Z" fill="#DAC452"/>
<path d="M243.26 150.337C243.464 150.439 243.821 150.439 244.025 150.337C244.229 150.235 244.229 149.98 244.025 149.878C243.821 149.776 243.464 149.776 243.26 149.878C243.055 149.98 243.055 150.184 243.26 150.337Z" fill="white"/>
<path d="M246.27 151.713L245.351 151.153C245.147 151.051 244.841 150.949 244.586 150.949H242.953L243.208 150.796C243.718 150.49 242.953 150.031 242.443 150.337L241.473 150.949H240.044C239.891 150.949 239.891 150.949 239.789 150.847L239.33 150.592C238.871 150.337 238.207 150.388 237.901 150.592C237.544 150.796 237.391 151.204 237.901 151.509C237.901 151.509 238.513 151.866 238.666 151.968C238.871 152.07 239.126 152.172 239.483 152.172H244.076C244.178 152.172 244.229 152.172 244.28 152.223C244.28 152.223 244.586 152.427 244.841 152.58C245.096 152.732 245.811 152.783 246.27 152.529C246.678 152.325 246.576 151.917 246.27 151.713ZM245.147 152.376L244.688 152.07C244.484 151.968 244.382 151.917 244.127 151.917H239.534C239.33 151.917 239.177 151.866 239.024 151.764L238.258 151.305C238.054 151.204 238.054 151 238.258 150.847C238.462 150.694 238.769 150.745 238.922 150.847L239.432 151.153C239.585 151.255 239.738 151.255 239.891 151.255H244.586C244.79 151.255 244.892 151.305 245.045 151.407L245.862 151.866C246.066 151.968 245.964 152.172 245.862 152.274C245.759 152.376 245.351 152.478 245.147 152.376Z" fill="white"/>
<path d="M71.6487 168.276L91.3459 180.1L83.8447 184.585L64.1475 172.812L71.6487 168.276Z" fill="black"/>
<path d="M78.7927 175.309C78.9968 175.41 79.3541 175.41 79.5582 175.309C79.7623 175.207 79.7623 174.952 79.5582 174.85C79.3541 174.748 78.9968 174.748 78.7927 174.85C78.5886 174.952 78.5886 175.156 78.7927 175.309Z" fill="white"/>
<path d="M81.8036 176.685L80.8851 176.124C80.681 176.022 80.3748 175.92 80.1196 175.92H78.4867L78.7419 175.768C79.2522 175.462 78.4867 175.003 77.9764 175.309L77.0069 175.92H75.5781C75.425 175.92 75.425 175.92 75.3229 175.818L74.8637 175.564C74.4044 175.309 73.741 175.36 73.4348 175.564C73.1287 175.768 72.9246 176.175 73.4348 176.481C73.4348 176.481 74.0472 176.838 74.2003 176.94C74.4044 177.042 74.6595 177.144 75.0167 177.144H79.6094C79.7114 177.144 79.7624 177.144 79.8135 177.194C79.8135 177.194 80.1196 177.398 80.3748 177.551C80.6299 177.704 81.3443 177.755 81.8036 177.5C82.1608 177.245 82.1098 176.838 81.8036 176.685ZM80.681 177.296L80.2217 176.991C80.0176 176.889 79.9155 176.838 79.6604 176.838H75.0678C74.8637 176.838 74.7106 176.787 74.5575 176.685L73.792 176.226C73.5879 176.124 73.5879 175.92 73.792 175.768C73.9962 175.615 74.3023 175.666 74.4554 175.768L74.9657 176.073C75.1188 176.175 75.2719 176.175 75.425 176.175H80.1196C80.3238 176.175 80.4258 176.226 80.5789 176.328L81.3954 176.787C81.5995 176.889 81.4974 177.093 81.3954 177.194C81.2423 177.347 80.8851 177.449 80.681 177.296Z" fill="white"/>
<path d="M191.627 143.538L211.273 155.311L203.771 159.795L184.074 148.023L191.627 143.538Z" fill="black"/>
<path d="M198.719 150.519C198.924 150.621 199.281 150.621 199.485 150.519C199.689 150.418 199.689 150.163 199.485 150.061C199.281 149.959 198.924 149.959 198.719 150.061C198.515 150.163 198.515 150.367 198.719 150.519Z" fill="white"/>
<path d="M201.73 151.896L200.812 151.335C200.608 151.233 200.302 151.131 200.046 151.131H198.413L198.669 150.978C199.179 150.673 198.413 150.214 197.903 150.52L196.934 151.131H195.505C195.352 151.131 195.352 151.131 195.25 151.029L194.79 150.775C194.331 150.52 193.668 150.571 193.362 150.775C193.055 150.978 192.851 151.386 193.362 151.692C193.362 151.692 193.974 152.049 194.127 152.151C194.331 152.253 194.586 152.354 194.944 152.354H199.536C199.638 152.354 199.689 152.354 199.74 152.405C199.74 152.405 200.046 152.609 200.302 152.762C200.557 152.915 201.271 152.966 201.73 152.711C202.139 152.507 202.037 152.1 201.73 151.896ZM200.608 152.558L200.148 152.253C199.944 152.151 199.842 152.1 199.587 152.1H194.995C194.79 152.1 194.637 152.049 194.484 151.947L193.719 151.488C193.515 151.386 193.515 151.182 193.719 151.029C193.923 150.877 194.229 150.927 194.382 151.029L194.892 151.335C195.046 151.437 195.199 151.437 195.352 151.437H200.046C200.251 151.437 200.353 151.488 200.506 151.59L201.322 152.049C201.526 152.151 201.424 152.354 201.322 152.456C201.169 152.609 200.812 152.66 200.608 152.558Z" fill="white"/>
<path d="M274.846 120.116L294.543 131.94L287.042 136.424L267.345 124.652L274.846 120.116Z" fill="black"/>
<path d="M281.991 127.148C282.195 127.25 282.552 127.25 282.756 127.148C282.96 127.046 282.96 126.792 282.756 126.69C282.552 126.588 282.195 126.588 281.991 126.69C281.787 126.792 281.787 126.996 281.991 127.148Z" fill="white"/>
<path d="M285.001 128.525L284.083 127.964C283.879 127.862 283.572 127.76 283.317 127.76H281.684L281.939 127.607C282.45 127.302 281.684 126.843 281.174 127.149L280.205 127.76H278.776C278.623 127.76 278.623 127.76 278.521 127.658L278.061 127.404C277.602 127.149 276.939 127.2 276.632 127.404C276.275 127.607 276.122 128.015 276.632 128.321C276.632 128.321 277.245 128.678 277.398 128.78C277.602 128.881 277.857 128.983 278.214 128.983H282.807C282.909 128.983 282.96 128.983 283.011 129.034C283.011 129.034 283.317 129.238 283.572 129.391C283.828 129.544 284.542 129.595 285.001 129.34C285.409 129.085 285.307 128.678 285.001 128.525ZM283.879 129.136L283.419 128.83C283.215 128.729 283.113 128.678 282.858 128.678H278.265C278.061 128.678 277.908 128.627 277.755 128.525L276.99 128.066C276.786 127.964 276.786 127.76 276.99 127.607C277.194 127.454 277.5 127.505 277.653 127.607L278.163 127.913C278.316 128.015 278.47 128.015 278.623 128.015H283.317C283.521 128.015 283.623 128.066 283.777 128.168L284.593 128.627C284.797 128.729 284.695 128.932 284.593 129.034C284.491 129.136 284.083 129.289 283.879 129.136Z" fill="white"/>
<path d="M153.602 110.024L178.81 125.11L168.91 131.072L143.702 115.987L153.602 110.024Z" fill="#C8A67C"/>
<path d="M126.301 126.384L151.509 141.52L144.263 145.852L119.055 130.767L126.301 126.384Z" fill="#C8A67C"/>
<path d="M143.549 127.658L159.062 136.984L152.939 140.654L137.426 131.328L143.549 127.658Z" fill="#C8A67C"/>
<path d="M117.626 131.634L142.834 146.719L141.609 147.432L120.892 147.483L105.991 138.565L117.626 131.634Z" fill="#C8A67C"/>
<path d="M158.144 107.324L183.097 109.669L189.169 118.944L180.29 124.295L155.082 109.159L158.144 107.324Z" fill="#C8A67C"/>
<path d="M135.895 130.411L143.498 125.875L160.542 136.119L167.482 131.94L142.274 116.854L127.73 125.518L135.895 130.411Z" fill="#C8A67C"/>
<path d="M3.84036 137.494L102.165 78.5457L150.124 107.286L150.895 107.748L151.666 107.286L180.493 90.0126L217.026 111.873L217.797 112.334L218.567 111.872L255.455 89.7581L277.34 102.902L278.112 103.365L278.884 102.902L297.402 91.7959L351.533 124.194L258.875 179.727L191.624 139.418L190.854 138.957L190.083 139.417L178.398 146.399L176.243 147.686L178.397 148.974L192.017 157.118L178.045 165.507L163.049 156.492L162.277 156.028L161.505 156.491L98.5411 194.251L3.84036 137.494Z" stroke="black" stroke-width="3" stroke-miterlimit="10"/>
<path opacity="0.9" d="M177 54.5L184.5 50L211 155.5L203.5 160L177 54.5Z" fill="url(#paint6_linear)"/>
<path opacity="0.9" d="M268 45.5L275.5 41L294.5 132L287 136.5L268 45.5Z" fill="url(#paint7_linear)"/>
<path opacity="0.8" d="M119 18L101 29L112 35.5L123 28.5C123 28.5 144.5 35 173 32C201.5 29 216.5 16 216.5 16L223 20L232 14L215.5 4.5C215.5 4.5 201 19.5 171 23C141 26.5 119 18 119 18Z" fill="#C4C4C4"/>
<path d="M295.659 14.1291L285.471 20.2002L252.387 0.416992L198.191 32.8656L205.753 37.4189L187.636 48.2525L271.764 98.5478L354.318 49.1946L295.659 14.1291Z" fill="white"/>
<path d="M99.8836 111.213L0.578125 51.8109L71.3681 9.4707L170.674 68.8726L99.8836 111.213Z" fill="white"/>
<path d="M259.581 58.6671L252.124 54.1662L266.461 45.583L273.918 50.0316L259.581 58.6671Z" fill="black"/>
<path d="M232.746 42.6001L225.289 38.1515L239.678 29.5684L247.135 34.017L232.746 42.6001Z" fill="black"/>
<path d="M79.0352 67.3556L71.5781 62.8547L85.9147 54.2715L93.3718 58.7201L79.0352 67.3556Z" fill="black"/>
<path d="M45.1632 47.1017L37.7061 42.6531L52.0951 34.0176L59.5522 38.4662L45.1632 47.1017Z" fill="black"/>
<path d="M49.2593 39.6695C48.9442 39.5125 48.4716 39.5125 48.209 39.6695L46.9487 40.4022C46.6861 40.5592 47.0537 40.7686 47.3163 40.6116L48.4716 39.9312L48.5766 39.9835L45.3207 41.92C45.0056 42.1293 45.4782 42.391 45.7933 42.1817L47.6839 41.0303L47.7889 41.0826L45.8984 42.234C45.5833 42.4434 46.0559 42.705 46.371 42.4957L49.6269 40.5592L49.7319 40.6116L48.5766 41.2919C48.314 41.449 48.6816 41.6583 48.9442 41.5013L50.2046 40.7162C50.4671 40.5592 50.5197 40.2452 50.2046 40.0882L49.2593 39.6695Z" fill="white"/>
<path d="M50.2574 39.9837C50.5764 39.9837 50.835 39.8197 50.835 39.6173C50.835 39.415 50.5764 39.251 50.2574 39.251C49.9383 39.251 49.6797 39.415 49.6797 39.6173C49.6797 39.8197 49.9383 39.9837 50.2574 39.9837Z" fill="white"/>
<path d="M91.3233 82.6896L83.8662 78.241L104.925 65.6279L112.382 70.0765L91.3233 82.6896Z" fill="black"/>
<path d="M98.2552 76.6707L101.459 74.7865C101.774 74.5772 101.774 74.2632 101.459 74.1062L98.2552 72.1697C97.9401 71.9604 97.415 71.9604 97.0999 72.1697L93.8965 74.0538C93.5814 74.2632 93.5814 74.5772 93.8965 74.7342L97.0999 76.6707C97.415 76.88 97.9401 76.88 98.2552 76.6707ZM97.6775 76.4613L94.2641 74.4202L97.625 72.3791L101.038 74.4202L97.6775 76.4613Z" fill="white"/>
<path d="M102.456 72.1699C102.719 72.0129 103.086 72.2222 102.824 72.3792L101.774 73.0073L102.194 72.9549C102.456 72.9549 102.509 73.2166 102.194 73.2166L101.143 73.2689C100.986 73.2689 100.881 73.2166 100.881 73.1119L100.986 72.4839C100.986 72.2745 101.459 72.3269 101.459 72.4839L101.406 72.7456L102.456 72.1699Z" fill="white"/>
<path d="M99.5679 72.2223C99.3053 72.3793 99.6729 72.5887 99.9355 72.4317L100.986 71.8036L100.933 72.0653C100.933 72.2223 101.353 72.2747 101.406 72.0653L101.511 71.4373C101.511 71.3326 101.406 71.2803 101.248 71.2803L100.198 71.3326C99.883 71.3326 99.9355 71.5943 100.198 71.5943L100.618 71.542L99.5679 72.2223Z" fill="white"/>
<path d="M99.3587 74.5755L98.7285 74.2092C98.676 74.1568 98.5184 74.1568 98.4134 74.2092L97.6257 74.6802C97.5732 74.7325 97.5732 74.7849 97.6257 74.7849C97.6257 74.7849 97.6257 74.7849 97.6782 74.8372L96.6804 75.4653C96.5229 75.5699 96.7854 75.7269 96.943 75.6223L97.9408 74.9942H97.9933L96.9955 75.6223C96.7854 75.7269 97.1005 75.884 97.2581 75.7793L98.2559 75.1512C98.3084 75.1512 98.3084 75.2036 98.3084 75.2036C98.3609 75.2559 98.4659 75.2559 98.5184 75.2036L99.3062 74.7325C99.4637 74.7325 99.4637 74.6279 99.3587 74.5755Z" fill="white"/>
<path d="M99.3055 74.4195C99.4506 74.4195 99.5681 74.3492 99.5681 74.2625C99.5681 74.1758 99.4506 74.1055 99.3055 74.1055C99.1605 74.1055 99.043 74.1758 99.043 74.2625C99.043 74.3492 99.1605 74.4195 99.3055 74.4195Z" fill="white"/>
<path d="M98.0452 73.7923L97.415 73.426C97.3625 73.3736 97.2049 73.3736 97.0999 73.426L96.3122 73.897C96.2597 73.9493 96.2597 74.0017 96.3122 74.0017C96.3122 74.0017 96.3122 74.0017 96.3647 74.054L95.3669 74.6821C95.2094 74.7867 95.472 74.9437 95.6295 74.8391L96.6273 74.211H96.6798L95.682 74.8391C95.472 74.9437 95.787 75.1007 95.9446 74.9961L96.9424 74.368C96.9949 74.368 96.9949 74.4204 96.9949 74.4204C97.0474 74.4727 97.1524 74.4727 97.2049 74.4204L97.9927 73.9493C98.0977 73.9493 98.0977 73.8447 98.0452 73.7923Z" fill="white"/>
<path d="M97.9921 73.5826C98.1371 73.5826 98.2546 73.5123 98.2546 73.4256C98.2546 73.3389 98.1371 73.2686 97.9921 73.2686C97.8471 73.2686 97.7295 73.3389 97.7295 73.4256C97.7295 73.5123 97.8471 73.5826 97.9921 73.5826Z" fill="white"/>
<path d="M83.7611 60.1327C83.9711 60.2898 84.3387 60.2898 84.6013 60.1327C84.8114 59.9757 84.8114 59.7664 84.6013 59.6617C84.3913 59.5047 84.0236 59.5047 83.7611 59.6617C83.551 59.7664 83.551 60.0281 83.7611 60.1327Z" fill="white"/>
<path d="M81.0829 61.6509L79.665 62.4883C79.4024 62.6453 79.0348 62.436 79.2974 62.279L80.7153 61.4416L80.1901 61.1276L82.6583 60.2902L82.5533 60.2378L81.1354 60.7089C80.8203 60.8136 80.6102 60.5519 80.9253 60.4472L82.4482 59.9762C82.6058 59.9238 83.0259 59.8715 83.341 60.0285L83.6036 60.1855L83.9187 60.3425C84.2337 60.4995 84.1287 60.7612 84.0762 60.8659L83.236 61.8079C83.0784 62.0173 82.6058 61.8603 82.8158 61.7033L83.6036 60.8659L83.4985 60.8135L82.1332 62.279L81.608 61.965L80.1376 62.8547C79.875 63.0117 79.5074 62.8023 79.77 62.6453L81.2404 61.7556L81.0829 61.6509Z" fill="white"/>
<path d="M172.827 84.4695L161.326 77.5611L173.247 70.4434L184.748 77.2994L172.827 84.4695Z" fill="black"/>
<path d="M172.512 80.3865L175.715 78.5024C176.031 78.293 176.031 77.979 175.715 77.822L172.512 75.8855C172.197 75.6762 171.672 75.6762 171.357 75.8855L168.153 77.7696C167.838 77.979 167.838 78.293 168.153 78.45L171.357 80.3865C171.672 80.5435 172.144 80.5958 172.512 80.3865ZM171.934 80.1248L168.521 78.0837L171.882 76.0425L175.295 78.0837L171.934 80.1248Z" fill="white"/>
<path d="M176.714 75.8857C176.977 75.7287 177.344 75.938 177.082 76.095L176.031 76.7231L176.452 76.6708C176.714 76.6708 176.767 76.9324 176.452 76.9324L175.401 76.9848C175.244 76.9848 175.139 76.9324 175.139 76.8278L175.244 76.1997C175.244 75.9904 175.716 76.0427 175.716 76.1997L175.664 76.4614L176.714 75.8857Z" fill="white"/>
<path d="M173.773 75.9382C173.51 76.0952 173.878 76.3045 174.141 76.1475L175.191 75.5195L175.138 75.7812C175.138 75.9382 175.558 75.9905 175.611 75.7812L175.716 75.1531C175.716 75.0484 175.611 74.9961 175.453 74.9961L174.403 75.0484C174.088 75.0484 174.141 75.3101 174.403 75.3101L174.823 75.2578L173.773 75.9382Z" fill="white"/>
<path d="M173.563 78.2933L172.933 77.9269C172.88 77.8746 172.723 77.8746 172.618 77.9269L171.83 78.398C171.777 78.4503 171.777 78.5027 171.83 78.5027C171.83 78.5027 171.83 78.5026 171.882 78.555L170.885 79.183C170.727 79.2877 170.99 79.4447 171.147 79.34L172.145 78.712H172.197L171.2 79.34C170.99 79.4447 171.305 79.6017 171.462 79.497L172.46 78.869C172.513 78.869 172.513 78.9213 172.513 78.9213C172.565 78.9737 172.67 78.9737 172.723 78.9213L173.51 78.4503C173.668 78.4503 173.668 78.3456 173.563 78.2933Z" fill="white"/>
<path d="M173.511 78.1373C173.656 78.1373 173.773 78.067 173.773 77.9803C173.773 77.8935 173.656 77.8232 173.511 77.8232C173.366 77.8232 173.248 77.8935 173.248 77.9803C173.248 78.067 173.366 78.1373 173.511 78.1373Z" fill="white"/>
<path d="M172.249 77.5091L171.619 77.1428C171.567 77.0904 171.409 77.0904 171.304 77.1428L170.516 77.6138C170.464 77.6661 170.464 77.7185 170.516 77.7185C170.516 77.7185 170.516 77.7185 170.569 77.7708L169.571 78.3988C169.413 78.5035 169.676 78.6605 169.834 78.5558L170.831 77.9278H170.884L169.886 78.5558C169.676 78.6605 169.991 78.8175 170.149 78.7129L171.146 78.0848C171.199 78.0848 171.199 78.1372 171.199 78.1372C171.251 78.1895 171.357 78.1895 171.409 78.1372L172.197 77.6661C172.302 77.6138 172.302 77.5615 172.249 77.5091Z" fill="white"/>
<path d="M172.196 77.2994C172.341 77.2994 172.459 77.2291 172.459 77.1424C172.459 77.0556 172.341 76.9854 172.196 76.9854C172.051 76.9854 171.934 77.0556 171.934 77.1424C171.934 77.2291 172.051 77.2994 172.196 77.2994Z" fill="white"/>
<path d="M113.8 55.2655L96.5752 44.9552L108.496 37.7852L125.773 48.0954L113.8 55.2655Z" fill="black"/>
<path d="M111.384 36.1104L109.809 37.0524L128.556 48.2524L115.375 56.1552L125.51 62.2263L138.744 54.3234L140.32 53.3814L111.384 36.1104Z" fill="black"/>
<path d="M118.262 98.8056L94 84.3084L142.996 55L167.206 69.4972L118.262 98.8056Z" fill="#C8A67C"/>
<path d="M80.296 41.3967L51.3604 24.1257L71.3685 12.1406L100.304 29.464L80.296 41.3967Z" fill="#C8A67C"/>
<path d="M110.597 49.4568L113.8 47.5727C114.116 47.3633 114.116 47.0493 113.8 46.8923L110.597 44.9558C110.282 44.7465 109.757 44.7465 109.442 44.9558L106.238 46.84C105.923 47.0493 105.923 47.3633 106.238 47.5203L109.442 49.4568C109.757 49.6138 110.229 49.6138 110.597 49.4568ZM110.019 49.1951L106.606 47.154L109.967 45.1128L113.38 47.154L110.019 49.1951Z" fill="white"/>
<path d="M114.798 44.956C115.061 44.799 115.428 45.0083 115.166 45.1653L114.115 45.7934L114.536 45.741C114.798 45.741 114.851 46.0027 114.536 46.0027L113.485 46.0551C113.328 46.0551 113.223 46.0027 113.223 45.8981L113.328 45.27C113.328 45.0607 113.8 45.113 113.8 45.27L113.748 45.5317L114.798 44.956Z" fill="white"/>
<path d="M111.91 44.9557C111.647 45.1127 112.015 45.3221 112.277 45.1651L113.328 44.537L113.275 44.7987C113.275 44.9557 113.695 45.0081 113.748 44.7987L113.853 44.1707C113.853 44.066 113.748 44.0137 113.59 44.0137L112.54 44.066C112.225 44.066 112.277 44.3277 112.54 44.3277L112.96 44.2754L111.91 44.9557Z" fill="white"/>
<path d="M111.699 47.3636L111.069 46.9973C111.017 46.9449 110.859 46.9449 110.754 46.9973L109.966 47.4683C109.914 47.5206 109.914 47.573 109.966 47.573C109.966 47.573 109.966 47.573 110.019 47.6253L109.021 48.2533C108.864 48.358 109.126 48.515 109.284 48.4103L110.282 47.7823H110.334L109.336 48.4103C109.126 48.515 109.441 48.672 109.599 48.5674L110.597 47.9393C110.649 47.9393 110.649 47.9917 110.649 47.9917C110.702 48.044 110.807 48.044 110.859 47.9917L111.647 47.5206C111.752 47.4683 111.752 47.416 111.699 47.3636Z" fill="white"/>
<path d="M111.646 47.1539C111.791 47.1539 111.909 47.0836 111.909 46.9969C111.909 46.9101 111.791 46.8398 111.646 46.8398C111.501 46.8398 111.384 46.9101 111.384 46.9969C111.384 47.0836 111.501 47.1539 111.646 47.1539Z" fill="white"/>
<path d="M110.334 46.5247L109.704 46.1584C109.652 46.1061 109.494 46.1061 109.389 46.1584L108.601 46.6294C108.549 46.6818 108.549 46.7341 108.601 46.7341C108.601 46.7341 108.601 46.7341 108.654 46.7864L107.656 47.4145C107.498 47.5191 107.761 47.6761 107.919 47.5715L108.916 46.9434H108.969L107.971 47.5715C107.761 47.6761 108.076 47.8332 108.234 47.7285L109.231 47.1004C109.284 47.1004 109.284 47.1528 109.284 47.1528C109.336 47.2051 109.441 47.2051 109.494 47.1528L110.282 46.6818C110.439 46.6818 110.439 46.5771 110.334 46.5247Z" fill="white"/>
<path d="M110.281 46.3687C110.426 46.3687 110.544 46.2984 110.544 46.2117C110.544 46.125 110.426 46.0547 110.281 46.0547C110.136 46.0547 110.019 46.125 110.019 46.2117C110.019 46.2984 110.136 46.3687 110.281 46.3687Z" fill="white"/>
<path d="M184.59 50.084L204.861 62.1737L197.141 66.7793L176.87 54.6896L184.59 50.084Z" fill="black"/>
<path d="M191.943 57.2546C192.153 57.3593 192.52 57.3593 192.73 57.2546C192.94 57.1499 192.94 56.8883 192.73 56.7836C192.52 56.6789 192.153 56.6789 191.943 56.7836C191.733 56.8883 191.733 57.0976 191.943 57.2546Z" fill="white"/>
<path d="M195.041 58.668L194.095 58.0923C193.885 57.9876 193.57 57.883 193.308 57.883H191.627L191.89 57.726C192.415 57.4119 191.627 56.9409 191.102 57.2549L190.104 57.883H188.634C188.476 57.883 188.476 57.883 188.371 57.7783L187.899 57.5166C187.426 57.2549 186.743 57.3073 186.428 57.5166C186.113 57.726 185.903 58.1446 186.428 58.4587C186.428 58.4587 187.058 58.825 187.216 58.9297C187.426 59.0344 187.689 59.139 188.056 59.139H192.783C192.888 59.139 192.94 59.139 192.993 59.1914C192.993 59.1914 193.308 59.4007 193.57 59.5577C193.833 59.7147 194.568 59.7671 195.041 59.5054C195.408 59.2437 195.356 58.825 195.041 58.668ZM193.833 59.3484L193.36 59.0344C193.15 58.9297 193.045 58.8774 192.783 58.8774H188.056C187.846 58.8774 187.689 58.825 187.531 58.7204L186.743 58.2493C186.533 58.1446 186.533 57.9353 186.743 57.7783C186.953 57.6213 187.268 57.6736 187.426 57.7783L187.951 58.0923C188.109 58.197 188.266 58.197 188.424 58.197H193.255C193.465 58.197 193.57 58.2493 193.728 58.354L194.568 58.825C194.778 58.9297 194.673 59.139 194.568 59.2437C194.463 59.3484 194.095 59.4531 193.833 59.3484Z" fill="white"/>
<path d="M280.272 53.8525L287.729 58.3011L266.671 70.9142L259.214 66.4133L280.272 53.8525Z" fill="black"/>
<path d="M311.203 51.6543L328.428 61.9646L290.092 84.8879L272.867 74.5777L311.203 51.6543Z" fill="#DAC452"/>
<path d="M294.503 54.2711L274.232 42.129L281.952 37.5234L302.223 49.6655L294.503 54.2711Z" fill="black"/>
<path d="M289.304 44.6941C289.514 44.7987 289.882 44.7987 290.092 44.6941C290.302 44.5894 290.302 44.3277 290.092 44.223C289.882 44.1184 289.514 44.1184 289.304 44.223C289.042 44.38 289.042 44.5894 289.304 44.6941Z" fill="white"/>
<path d="M292.403 46.1592L291.458 45.5835C291.248 45.4788 290.933 45.3742 290.67 45.3742H288.99L289.252 45.2172C289.777 44.9031 288.99 44.4321 288.464 44.7461L287.467 45.3742H285.996C285.839 45.3742 285.839 45.3742 285.734 45.2695L285.261 45.0078C284.788 44.7461 284.106 44.7985 283.791 45.0078C283.475 45.2172 283.265 45.6359 283.791 45.9499C283.791 45.9499 284.421 46.3162 284.578 46.4209C284.788 46.5256 285.051 46.6302 285.419 46.6302H290.145C290.25 46.6302 290.302 46.6302 290.355 46.6826C290.355 46.6826 290.67 46.8919 290.933 47.0489C291.195 47.2059 291.93 47.2583 292.403 46.9966C292.771 46.7349 292.666 46.3162 292.403 46.1592ZM291.195 46.7873L290.723 46.4732C290.512 46.3686 290.407 46.3162 290.145 46.3162H285.419C285.208 46.3162 285.051 46.2639 284.893 46.1592L284.106 45.6882C283.896 45.5835 283.896 45.3742 284.106 45.2172C284.316 45.0602 284.631 45.1125 284.788 45.2172L285.313 45.5312C285.471 45.6359 285.629 45.6359 285.786 45.6359H290.618C290.828 45.6359 290.933 45.6882 291.09 45.7929L291.93 46.2639C292.14 46.3686 292.035 46.5779 291.93 46.6826C291.825 46.7873 291.458 46.9443 291.195 46.7873Z" fill="white"/>
<path d="M94.5274 59.4004L79.0881 68.664L69.3203 62.8546L84.8122 53.5911L60.7079 39.1462L45.216 48.4098L35.5008 42.6004L50.9401 33.3369L43.4305 28.8359L22.3721 41.449L82.7641 77.5612L103.823 64.9481L94.5274 59.4004Z" fill="black"/>
<path d="M236.895 35.1685C236.58 35.0115 236.107 35.0115 235.845 35.1685L234.584 35.9536C234.322 36.1106 234.689 36.3199 234.952 36.1629L236.107 35.4826L236.212 35.5349L232.956 37.4713C232.641 37.6807 233.114 37.9424 233.429 37.733L235.32 36.5816L235.425 36.634L233.534 37.7854C233.219 37.9947 233.692 38.2564 234.007 38.047L237.263 36.1106L237.368 36.1629L236.212 36.8433C235.95 37.0003 236.317 37.2097 236.58 37.0527L237.84 36.2676C238.103 36.1106 238.155 35.7966 237.84 35.6396L236.895 35.1685Z" fill="white"/>
<path d="M237.84 35.4827C238.159 35.4827 238.418 35.3187 238.418 35.1164C238.418 34.914 238.159 34.75 237.84 34.75C237.521 34.75 237.263 34.914 237.263 35.1164C237.263 35.3187 237.521 35.4827 237.84 35.4827Z" fill="white"/>
<path d="M211.243 37.46L202 31.9123L223.058 19.3516L232.301 24.8469L211.243 37.46Z" fill="#DAC452"/>
<path d="M245.588 22.0206L232.092 13.9607L243.698 7L257.194 15.0598L245.588 22.0206Z" fill="#DAC452"/>
<path d="M263.782 33.1795L247.607 23.4972L266.618 12.0879L282.845 21.7701L263.782 33.1795Z" fill="black"/>
<path d="M322.35 31.1494L297.113 16L277 28.0374L302.26 43.1626L322.35 31.1494Z" fill="#DAC452"/>
<path d="M331.26 61.1626L306 46.0374L326.113 34L351.373 49.1252L331.26 61.1626Z" fill="#DAC452"/>
<path d="M273.602 64.8952L276.805 63.0111C277.12 62.8018 277.12 62.4878 276.805 62.3308L273.602 60.3943C273.287 60.185 272.762 60.185 272.447 60.3943L269.243 62.2784C268.928 62.4878 268.928 62.8018 269.243 62.9588L272.447 64.8952C272.762 65.0522 273.287 65.1046 273.602 64.8952ZM273.024 64.6336L269.611 62.5924L272.972 60.5513L276.385 62.5924L273.024 64.6336Z" fill="white"/>
<path d="M277.803 60.3945C278.066 60.2375 278.433 60.4468 278.171 60.6038L277.12 61.2319L277.54 61.1795C277.803 61.1795 277.855 61.4412 277.54 61.4412L276.49 61.4935C276.333 61.4935 276.228 61.4412 276.228 61.3365L276.333 60.7085C276.333 60.4992 276.805 60.5515 276.805 60.7085L276.753 60.9702L277.803 60.3945Z" fill="white"/>
<path d="M274.915 60.447C274.652 60.604 275.02 60.8133 275.282 60.6563L276.333 60.0283L276.28 60.2899C276.28 60.447 276.7 60.4993 276.753 60.2899L276.858 59.6619C276.858 59.5572 276.753 59.5049 276.595 59.5049L275.545 59.5572C275.23 59.5572 275.282 59.8189 275.545 59.8189L275.965 59.7666L274.915 60.447Z" fill="white"/>
<path d="M274.705 62.8031L274.075 62.4367C274.023 62.3844 273.865 62.3844 273.76 62.4367L272.972 62.9077C272.92 62.9601 272.92 63.0124 272.972 63.0124C272.972 63.0124 272.972 63.0124 273.025 63.0647L272.027 63.6928C271.87 63.7975 272.132 63.9545 272.29 63.8498L273.287 63.2218H273.34L272.342 63.8498C272.132 63.9545 272.447 64.1115 272.605 64.0068L273.602 63.3788C273.655 63.3788 273.655 63.4311 273.655 63.4311C273.708 63.4834 273.813 63.4834 273.865 63.4311L274.653 62.9601C274.81 62.9601 274.81 62.8554 274.705 62.8031Z" fill="white"/>
<path d="M274.653 62.5933C274.798 62.5933 274.916 62.523 274.916 62.4363C274.916 62.3496 274.798 62.2793 274.653 62.2793C274.508 62.2793 274.391 62.3496 274.391 62.4363C274.391 62.523 274.508 62.5933 274.653 62.5933Z" fill="white"/>
<path d="M273.392 62.0179L272.762 61.6516C272.709 61.5992 272.552 61.5992 272.447 61.6516L271.659 62.1226C271.606 62.1749 271.606 62.2273 271.659 62.2273C271.659 62.2273 271.659 62.2273 271.711 62.2796L270.714 62.9076C270.556 63.0123 270.819 63.1693 270.976 63.0647L271.974 62.4366H272.026L271.029 63.0647C270.819 63.1693 271.134 63.3263 271.291 63.2217L272.289 62.5936C272.342 62.5936 272.342 62.646 272.342 62.646C272.394 62.6983 272.499 62.6983 272.552 62.646L273.339 62.1749C273.444 62.1226 273.444 62.0703 273.392 62.0179Z" fill="white"/>
<path d="M273.339 61.8081C273.484 61.8081 273.601 61.7378 273.601 61.6511C273.601 61.5644 273.484 61.4941 273.339 61.4941C273.194 61.4941 273.076 61.5644 273.076 61.6511C273.076 61.7378 273.194 61.8081 273.339 61.8081Z" fill="white"/>
<path d="M264.307 51.4452C264.517 51.6022 264.885 51.6022 265.147 51.4452C265.357 51.2882 265.357 51.0789 265.147 50.9742C264.937 50.8172 264.57 50.8172 264.307 50.9742C264.097 51.0789 264.097 51.3406 264.307 51.4452Z" fill="white"/>
<path d="M261.629 52.9634L260.211 53.8008C259.948 53.9578 259.581 53.7485 259.843 53.5915L261.261 52.7541L260.736 52.4401L263.204 51.6027L263.099 51.5503L261.681 52.0214C261.366 52.126 261.156 51.8644 261.471 51.7597L262.994 51.2887C263.152 51.2363 263.572 51.184 263.887 51.341L264.149 51.498L264.465 51.655C264.78 51.812 264.675 52.0737 264.622 52.1784L263.782 53.1204C263.624 53.3298 263.152 53.1728 263.362 53.0158L264.149 52.1784L264.044 52.126L262.679 53.5915L262.154 53.2774L260.683 54.1672C260.421 54.3242 260.053 54.1148 260.316 53.9578L261.786 53.0681L261.629 52.9634Z" fill="white"/>
<path d="M275.073 50.7124L259.633 59.976L249.866 54.1666L265.358 44.9031L248.29 34.6975L232.851 43.961L223.083 38.1517L238.575 28.8881L234.374 26.376L213.315 38.9891L258.11 65.7853L279.169 53.1722L275.073 50.7124Z" fill="black"/>
<path d="M351.394 49.1946L271.764 96.8002L190.559 48.2524L206.523 38.7063L208.669 37.4233L206.527 36.1338L201.105 32.8692L252.387 2.165L284.701 21.4876L285.469 21.9471L286.239 21.4887L295.657 15.876L351.394 49.1946Z" stroke="black" stroke-width="3" stroke-miterlimit="10"/>
<path d="M99.8836 109.465L3.50026 51.811L71.368 11.2186L167.751 68.8725L99.8836 109.465Z" stroke="black" stroke-width="3" stroke-miterlimit="10"/>
<path d="M277.5 47.5L216.5 10C216.5 10 200 25 172 27.5C144 30 120.5 23.5 120.5 23.5L85.5 45.5L102 55.5" stroke="#FF0000" stroke-width="2" stroke-linecap="round"/>
<path fill-rule="evenodd" clip-rule="evenodd" d="M278.789 45.8438C282.317 45.2346 285 42.1681 285 38.4769C285 34.3475 281.642 31 277.5 31C273.358 31 270 34.3475 270 38.4769C270 42.1681 272.683 45.2346 276.211 45.8438L277.5 51L278.789 45.8438Z" fill="black"/>
<path fill-rule="evenodd" clip-rule="evenodd" d="M278.789 43.8438C282.317 43.2346 285 40.1681 285 36.4769C285 32.3475 281.642 29 277.5 29C273.358 29 270 32.3475 270 36.4769C270 40.1681 272.683 43.2346 276.211 43.8438L277.5 49L278.789 43.8438Z" fill="#FF0000"/>
<ellipse cx="277.5" cy="36.4767" rx="2.5" ry="2.49231" fill="white"/>
<path fill-rule="evenodd" clip-rule="evenodd" d="M105.789 57.8438C109.317 57.2346 112 54.1681 112 50.4769C112 46.3475 108.642 43 104.5 43C100.358 43 97 46.3475 97 50.4769C97 54.1681 99.683 57.2346 103.211 57.8438L104.5 63L105.789 57.8438Z" fill="black"/>
<path fill-rule="evenodd" clip-rule="evenodd" d="M105.789 55.8438C109.317 55.2346 112 52.1681 112 48.4769C112 44.3475 108.642 41 104.5 41C100.358 41 97 44.3475 97 48.4769C97 52.1681 99.683 55.2346 103.211 55.8438L104.5 61L105.789 55.8438Z" fill="#FF0000"/>
<ellipse cx="104.5" cy="48.4767" rx="2.5" ry="2.49231" fill="white"/>
<defs>
<linearGradient id="paint0_linear" x1="217" y1="264" x2="255" y2="319" gradientUnits="userSpaceOnUse">
<stop offset="0.41491" stop-color="#003E33"/>
<stop offset="0.569304" stop-color="#00AD8E"/>
</linearGradient>
<linearGradient id="paint1_linear" x1="63" y1="292.5" x2="101" y2="349.5" gradientUnits="userSpaceOnUse">
<stop offset="0.41491" stop-color="#003E33"/>
<stop offset="0.569304" stop-color="#00AD8E"/>
</linearGradient>
<linearGradient id="paint2_linear" x1="55.5" y1="210.5" x2="87" y2="259.5" gradientUnits="userSpaceOnUse">
<stop offset="0.41491" stop-color="#003E33"/>
<stop offset="0.569304" stop-color="#00AD8E"/>
</linearGradient>
<linearGradient id="paint3_linear" x1="214.5" y1="174" x2="253" y2="234.5" gradientUnits="userSpaceOnUse">
<stop offset="0.41491" stop-color="#003E33"/>
<stop offset="0.569304" stop-color="#00AD8E"/>
</linearGradient>
<linearGradient id="paint4_linear" x1="259.5" y1="162" x2="291" y2="212.5" gradientUnits="userSpaceOnUse">
<stop offset="0.41491" stop-color="#003E33"/>
<stop offset="0.569304" stop-color="#00AD8E"/>
</linearGradient>
<linearGradient id="paint5_linear" x1="167" y1="170.5" x2="219" y2="247.5" gradientUnits="userSpaceOnUse">
<stop offset="0.41491" stop-color="#003E33"/>
<stop offset="0.569304" stop-color="#00AD8E"/>
</linearGradient>
<linearGradient id="paint6_linear" x1="149" y1="59" x2="207" y2="158.5" gradientUnits="userSpaceOnUse">
<stop offset="0.41491" stop-color="#003E33"/>
<stop offset="0.569304" stop-color="#00AD8E"/>
</linearGradient>
<linearGradient id="paint7_linear" x1="257.5" y1="85.5" x2="289" y2="135" gradientUnits="userSpaceOnUse">
<stop offset="0.552083" stop-color="#003E33"/>
<stop offset="0.703125" stop-color="#00AD8E"/>
</linearGradient>
</defs>
</svg>
