<svg width="315" height="757" viewBox="0 0 315 757" fill="none" xmlns="http://www.w3.org/2000/svg">
<g clip-path="url(#clip0)">
<mask id="mask0" mask-type="alpha" maskUnits="userSpaceOnUse" x="0" y="0" width="180" height="330">
<path d="M179.053 0H0V329.072H179.053V0Z" fill="#EDEAE6"/>
</mask>
<g mask="url(#mask0)">
<path d="M179.053 0H20C8.9543 0 0 8.95429 0 20V329.072H179.053V0Z" fill="#EDEAE6"/>
<path d="M56.1472 186.286H-48.5212H-65.7633H-118.042C-120.032 186.286 -121.579 187.864 -121.579 189.892V368.515C-121.579 370.544 -120.032 372.122 -118.042 372.122H-48.5212C-46.5317 372.122 -44.9844 370.544 -44.9844 368.515V281.965H56.1472C58.1367 281.965 59.6841 280.387 59.6841 278.359V189.892C59.7946 187.864 58.1367 186.286 56.1472 186.286Z" fill="#84A359"/>
<path d="M256.2 186.286H151.532H134.289H82.0105C80.021 186.286 78.4736 187.864 78.4736 189.892V368.515C78.4736 370.544 80.021 372.122 82.0105 372.122H151.532C153.521 372.122 155.068 370.544 155.068 368.515V281.965H256.2C258.189 281.965 259.737 280.387 259.737 278.359V189.892C259.847 187.864 258.189 186.286 256.2 186.286Z" fill="#84A359"/>
<path d="M130.421 99.0202V146.223C130.421 147.906 131.21 149.5 132.525 150.563L137.959 154.814C151.808 165.707 167.762 173.5 184.854 177.751L194.408 180.142C197.827 181.028 201.158 178.371 201.158 174.829V129.485C201.158 127.36 200.018 125.5 198.177 124.526L138.397 94.2379C134.628 92.2009 130.421 94.8578 130.421 99.0202Z" fill="#84A359"/>
<path d="M-10.8487 95.3338L7.55174 99.1184C9.79975 99.5585 11.6315 97.2701 10.8821 94.9817L9.30019 90.2289C5.88654 80.1952 5.47025 69.3694 8.0513 59.0716L8.46759 57.5754C8.71737 56.5192 8.46759 55.375 7.71826 54.5829L-8.18434 36.9799C-10.0161 35.0436 -13.2632 36.3638 -13.2632 39.1803V92.2532C-13.2632 93.7495 -12.2641 95.0697 -10.8487 95.3338Z" fill="#84A359"/>
<path d="M28.206 116.344L14.1559 106.339C13.4747 105.9 12.7935 105.549 12.0271 105.373L-6.45099 101.511C-9.94224 100.897 -13.2632 103.706 -13.2632 107.392V121.347C-13.2632 124.156 -11.0492 126.35 -8.4095 126.35H6.06642V146.537H-8.4095C-11.1344 146.537 -13.2632 148.819 -13.2632 151.54V173.219C-13.2632 176.466 -10.7086 179.187 -7.47282 179.187H18.0729C20.0314 179.187 21.9048 178.134 22.9266 176.466L34.337 158.122C37.9134 152.33 39.8719 145.571 39.7868 138.638C39.7016 129.773 35.3588 121.435 28.206 116.344Z" fill="#84A359"/>
<path d="M105.837 -2.11548C100.274 -0.708667 96.3626 4.30311 96.3626 10.1062V20.6573C96.3626 27.6035 90.7994 33.2307 83.9324 33.2307H47.9459C37.4281 33.2307 27.4318 38.0667 20.8256 46.4196C15.8709 52.6624 13.2632 60.3998 13.2632 68.3132V75.3472C13.2632 83.3485 15.9578 91.1739 20.9125 97.3287L29.8657 108.495C30.0395 108.671 30.2134 108.847 30.3003 109.023L42.6435 122.827C47.5112 128.279 48.989 135.752 47.0766 142.874C45.9466 147.007 46.9897 151.403 49.8582 154.568L53.509 158.701C57.4206 163.185 65.5045 166.79 71.4154 166.79C87.4094 165.295 102.1 157.294 112.183 144.545C119.137 135.752 123.483 125.113 124.7 113.947L125.047 110.43C126.091 101.285 124.961 92.1411 121.918 83.4364L115.834 66.2909C115.573 65.4995 115.312 64.7082 115.225 63.8289C114.008 56.0915 120.006 49.4091 127.481 49.4091H159.991C166.858 49.4091 172.421 43.7818 172.421 36.8357V-2.20341C172.421 -4.57741 171.726 -6.86348 170.596 -8.70992C168.401 -12.4965 114.136 -4.18245 105.837 -2.11548Z" fill="#84A359"/>
<path d="M157.5 28.1739C160.247 28.1739 162.474 25.9034 162.474 23.1026C162.474 20.3018 160.247 18.0312 157.5 18.0312C154.753 18.0312 152.526 20.3018 152.526 23.1026C152.526 25.9034 154.753 28.1739 157.5 28.1739Z" fill="#B5B758"/>
<path d="M64.6575 48.46C66.794 48.46 68.5259 46.4418 68.5259 43.9522C68.5259 41.4626 66.794 39.4443 64.6575 39.4443C62.521 39.4443 60.7891 41.4626 60.7891 43.9522C60.7891 46.4418 62.521 48.46 64.6575 48.46Z" fill="#B5B758"/>
<path d="M29.2891 57.4756C32.036 57.4756 34.2628 55.4574 34.2628 52.9678C34.2628 50.4782 32.036 48.46 29.2891 48.46C26.5422 48.46 24.3154 50.4782 24.3154 52.9678C24.3154 55.4574 26.5422 57.4756 29.2891 57.4756Z" fill="#B5B758"/>
<path d="M85.6578 160.028C88.4047 160.028 90.6315 158.01 90.6315 155.521C90.6315 153.031 88.4047 151.013 85.6578 151.013C82.9109 151.013 80.6841 153.031 80.6841 155.521C80.6841 158.01 82.9109 160.028 85.6578 160.028Z" fill="#B5B758"/>
<path d="M100.579 157.774C103.02 157.774 105 155.504 105 152.703C105 149.902 103.02 147.632 100.579 147.632C98.1371 147.632 96.1577 149.902 96.1577 152.703C96.1577 155.504 98.1371 157.774 100.579 157.774Z" fill="#B5B758"/>
<path d="M108.316 13.5235C110.757 13.5235 112.737 11.5053 112.737 9.01565C112.737 6.52604 110.757 4.50781 108.316 4.50781C105.874 4.50781 103.895 6.52604 103.895 9.01565C103.895 11.5053 105.874 13.5235 108.316 13.5235Z" fill="#B5B758"/>
<path d="M1.10513 56.3487C3.54681 56.3487 5.52619 54.0782 5.52619 51.2774C5.52619 48.4766 3.54681 46.2061 1.10513 46.2061C-1.33655 46.2061 -3.31592 48.4766 -3.31592 51.2774C-3.31592 54.0782 -1.33655 56.3487 1.10513 56.3487Z" fill="#B5B758"/>
<path d="M4.97368 78.8877C7.72057 78.8877 9.94737 76.8695 9.94737 74.3799C9.94737 71.8903 7.72057 69.8721 4.97368 69.8721C2.22679 69.8721 0 71.8903 0 74.3799C0 76.8695 2.22679 78.8877 4.97368 78.8877Z" fill="#B5B758"/>
<path d="M11.0524 116.077C13.4941 116.077 15.4735 113.807 15.4735 111.006C15.4735 108.205 13.4941 105.935 11.0524 105.935C8.61072 105.935 6.63135 108.205 6.63135 111.006C6.63135 113.807 8.61072 116.077 11.0524 116.077Z" fill="#B5B758"/>
<path d="M24.8682 143.124C27.6151 143.124 29.8419 141.106 29.8419 138.616C29.8419 136.127 27.6151 134.108 24.8682 134.108C22.1213 134.108 19.8945 136.127 19.8945 138.616C19.8945 141.106 22.1213 143.124 24.8682 143.124Z" fill="#B5B758"/>
<path d="M7.18413 163.409C9.93103 163.409 12.1578 161.139 12.1578 158.338C12.1578 155.537 9.93103 153.267 7.18413 153.267C4.43724 153.267 2.21045 155.537 2.21045 158.338C2.21045 161.139 4.43724 163.409 7.18413 163.409Z" fill="#B5B758"/>
<path d="M-0.552684 153.267C2.19421 153.267 4.421 151.248 4.421 148.759C4.421 146.269 2.19421 144.251 -0.552684 144.251C-3.29957 144.251 -5.52637 146.269 -5.52637 148.759C-5.52637 151.248 -3.29957 153.267 -0.552684 153.267Z" fill="#B5B758"/>
<path d="M64.6575 130.728C66.794 130.728 68.5259 128.457 68.5259 125.656C68.5259 122.855 66.794 120.585 64.6575 120.585C62.521 120.585 60.7891 122.855 60.7891 125.656C60.7891 128.457 62.521 130.728 64.6575 130.728Z" fill="#B5B758"/>
<path d="M38.6837 100.3C41.1254 100.3 43.1048 98.0294 43.1048 95.2285C43.1048 92.4277 41.1254 90.1572 38.6837 90.1572C36.2421 90.1572 34.2627 92.4277 34.2627 95.2285C34.2627 98.0294 36.2421 100.3 38.6837 100.3Z" fill="#B5B758"/>
<path d="M43.6578 116.077C46.4047 116.077 48.6315 113.807 48.6315 111.006C48.6315 108.205 46.4047 105.935 43.6578 105.935C40.9109 105.935 38.6841 108.205 38.6841 111.006C38.6841 113.807 40.9109 116.077 43.6578 116.077Z" fill="#B5B758"/>
<path d="M105.552 76.6339C108.299 76.6339 110.526 74.3633 110.526 71.5625C110.526 68.7617 108.299 66.4912 105.552 66.4912C102.805 66.4912 100.579 68.7617 100.579 71.5625C100.579 74.3633 102.805 76.6339 105.552 76.6339Z" fill="#B5B758"/>
<path d="M104.447 57.4756C107.194 57.4756 109.421 55.4574 109.421 52.9678C109.421 50.4782 107.194 48.46 104.447 48.46C101.7 48.46 99.4736 50.4782 99.4736 52.9678C99.4736 55.4574 101.7 57.4756 104.447 57.4756Z" fill="#B5B758"/>
<path d="M116.605 109.315C119.352 109.315 121.579 107.297 121.579 104.808C121.579 102.318 119.352 100.3 116.605 100.3C113.858 100.3 111.631 102.318 111.631 104.808C111.631 107.297 113.858 109.315 116.605 109.315Z" fill="#B5B758"/>
<path d="M109.974 105.935C112.721 105.935 114.947 103.664 114.947 100.863C114.947 98.0625 112.721 95.792 109.974 95.792C107.227 95.792 105 98.0625 105 100.863C105 103.664 107.227 105.935 109.974 105.935Z" fill="#507146"/>
<path d="M85.6578 83.3955C88.4047 83.3955 90.6315 81.6296 90.6315 79.4512C90.6315 77.2728 88.4047 75.5068 85.6578 75.5068C82.9109 75.5068 80.6841 77.2728 80.6841 79.4512C80.6841 81.6296 82.9109 83.3955 85.6578 83.3955Z" fill="#507146"/>
<path d="M35.3683 56.3487C37.81 56.3487 39.7894 54.0782 39.7894 51.2774C39.7894 48.4766 37.81 46.2061 35.3683 46.2061C32.9266 46.2061 30.9473 48.4766 30.9473 51.2774C30.9473 54.0782 32.9266 56.3487 35.3683 56.3487Z" fill="#507146"/>
<path d="M-0.552684 89.0303C2.19421 89.0303 4.421 87.0121 4.421 84.5225C4.421 82.0329 2.19421 80.0146 -0.552684 80.0146C-3.29957 80.0146 -5.52637 82.0329 -5.52637 84.5225C-5.52637 87.0121 -3.29957 89.0303 -0.552684 89.0303Z" fill="#507146"/>
<path d="M92.2891 157.774C95.036 157.774 97.2628 155.504 97.2628 152.703C97.2628 149.902 95.036 147.632 92.2891 147.632C89.5422 147.632 87.3154 149.902 87.3154 152.703C87.3154 155.504 89.5422 157.774 92.2891 157.774Z" fill="#507146"/>
<path d="M49.1841 126.22C51.931 126.22 54.1578 123.949 54.1578 121.148C54.1578 118.348 51.931 116.077 49.1841 116.077C46.4372 116.077 44.2104 118.348 44.2104 121.148C44.2104 123.949 46.4372 126.22 49.1841 126.22Z" fill="#507146"/>
<path d="M38.6837 109.315C41.1254 109.315 43.1048 107.297 43.1048 104.808C43.1048 102.318 41.1254 100.3 38.6837 100.3C36.2421 100.3 34.2627 102.318 34.2627 104.808C34.2627 107.297 36.2421 109.315 38.6837 109.315Z" fill="#507146"/>
<path d="M23.7627 153.267C26.5096 153.267 28.7364 150.996 28.7364 148.195C28.7364 145.395 26.5096 143.124 23.7627 143.124C21.0159 143.124 18.7891 145.395 18.7891 148.195C18.7891 150.996 21.0159 153.267 23.7627 153.267Z" fill="#507146"/>
<path d="M19.3419 169.044C22.0887 169.044 24.3155 166.773 24.3155 163.973C24.3155 161.172 22.0887 158.901 19.3419 158.901C16.595 158.901 14.3682 161.172 14.3682 163.973C14.3682 166.773 16.595 169.044 19.3419 169.044Z" fill="#507146"/>
<path d="M4.97368 116.077C7.72057 116.077 9.94737 114.059 9.94737 111.569C9.94737 109.08 7.72057 107.062 4.97368 107.062C2.22679 107.062 0 109.08 0 111.569C0 114.059 2.22679 116.077 4.97368 116.077Z" fill="#507146"/>
<path d="M132.632 146.505C135.073 146.505 137.053 144.739 137.053 142.561C137.053 140.382 135.073 138.616 132.632 138.616C130.19 138.616 128.21 140.382 128.21 142.561C128.21 144.739 130.19 146.505 132.632 146.505Z" fill="#B5B758"/>
<path d="M139.263 137.489C141.705 137.489 143.684 135.471 143.684 132.981C143.684 130.492 141.705 128.474 139.263 128.474C136.821 128.474 134.842 130.492 134.842 132.981C134.842 135.471 136.821 137.489 139.263 137.489Z" fill="#B5B758"/>
<path d="M139.263 155.521C141.705 155.521 143.684 153.25 143.684 150.449C143.684 147.648 141.705 145.378 139.263 145.378C136.821 145.378 134.842 147.648 134.842 150.449C134.842 153.25 136.821 155.521 139.263 155.521Z" fill="#507146"/>
<path d="M108.868 145.378C111.615 145.378 113.842 143.107 113.842 140.307C113.842 137.506 111.615 135.235 108.868 135.235C106.121 135.235 103.895 137.506 103.895 140.307C103.895 143.107 106.121 145.378 108.868 145.378Z" fill="#507146"/>
<path d="M121.026 120.585C123.773 120.585 126 118.567 126 116.077C126 113.588 123.773 111.569 121.026 111.569C118.28 111.569 116.053 113.588 116.053 116.077C116.053 118.567 118.28 120.585 121.026 120.585Z" fill="#507146"/>
<path d="M121.026 93.5381C123.773 93.5381 126 91.2676 126 88.4668C126 85.666 123.773 83.3955 121.026 83.3955C118.28 83.3955 116.053 85.666 116.053 88.4668C116.053 91.2676 118.28 93.5381 121.026 93.5381Z" fill="#507146"/>
<path d="M108.316 111.569C110.757 111.569 112.737 109.551 112.737 107.062C112.737 104.572 110.757 102.554 108.316 102.554C105.874 102.554 103.895 104.572 103.895 107.062C103.895 109.551 105.874 111.569 108.316 111.569Z" fill="#849258"/>
<path d="M4.97368 155.521C7.72057 155.521 9.94737 153.25 9.94737 150.449C9.94737 147.648 7.72057 145.378 4.97368 145.378C2.22679 145.378 0 147.648 0 150.449C0 153.25 2.22679 155.521 4.97368 155.521Z" fill="#849258"/>
<path d="M-3.8686 73.253C-1.12171 73.253 1.10508 70.9825 1.10508 68.1817C1.10508 65.3809 -1.12171 63.1104 -3.8686 63.1104C-6.61549 63.1104 -8.84229 65.3809 -8.84229 68.1817C-8.84229 70.9825 -6.61549 73.253 -3.8686 73.253Z" fill="#849258"/>
<path d="M113.289 83.3955C115.426 83.3955 117.158 81.6296 117.158 79.4512C117.158 77.2728 115.426 75.5068 113.289 75.5068C111.153 75.5068 109.421 77.2728 109.421 79.4512C109.421 81.6296 111.153 83.3955 113.289 83.3955Z" fill="#849258"/>
<path d="M119.921 101.427C122.668 101.427 124.895 99.1563 124.895 96.3555C124.895 93.5547 122.668 91.2842 119.921 91.2842C117.174 91.2842 114.947 93.5547 114.947 96.3555C114.947 99.1563 117.174 101.427 119.921 101.427Z" fill="#849258"/>
<path d="M114.947 137.489C117.389 137.489 119.368 135.471 119.368 132.981C119.368 130.492 117.389 128.474 114.947 128.474C112.506 128.474 110.526 130.492 110.526 132.981C110.526 135.471 112.506 137.489 114.947 137.489Z" fill="#849258"/>
<path d="M111.079 20.2852C113.826 20.2852 116.052 18.267 116.052 15.7774C116.052 13.2878 113.826 11.2695 111.079 11.2695C108.332 11.2695 106.105 13.2878 106.105 15.7774C106.105 18.267 108.332 20.2852 111.079 20.2852Z" fill="#849258"/>
<path d="M21.5523 178.06C24.2992 178.06 26.526 175.789 26.526 172.988C26.526 170.187 24.2992 167.917 21.5523 167.917C18.8054 167.917 16.5786 170.187 16.5786 172.988C16.5786 175.789 18.8054 178.06 21.5523 178.06Z" fill="#849258"/>
<path d="M52.4998 155.521C54.6362 155.521 56.3682 153.25 56.3682 150.449C56.3682 147.648 54.6362 145.378 52.4998 145.378C50.3633 145.378 48.6313 147.648 48.6313 150.449C48.6313 153.25 50.3633 155.521 52.4998 155.521Z" fill="#849258"/>
<path d="M80.6842 169.044C83.1259 169.044 85.1053 166.773 85.1053 163.973C85.1053 161.172 83.1259 158.901 80.6842 158.901C78.2426 158.901 76.2632 161.172 76.2632 163.973C76.2632 166.773 78.2426 169.044 80.6842 169.044Z" fill="#849258"/>
<path d="M72.3946 167.917C75.1415 167.917 77.3683 165.647 77.3683 162.846C77.3683 160.045 75.1415 157.774 72.3946 157.774C69.6477 157.774 67.4209 160.045 67.4209 162.846C67.4209 165.647 69.6477 167.917 72.3946 167.917Z" fill="#849258"/>
<path d="M44.7627 111.569C47.5096 111.569 49.7364 109.299 49.7364 106.498C49.7364 103.697 47.5096 101.427 44.7627 101.427C42.0159 101.427 39.7891 103.697 39.7891 106.498C39.7891 109.299 42.0159 111.569 44.7627 111.569Z" fill="#849258"/>
</g>
<path d="M1.5 328.86V201.348H177.5V328.86H1.5Z" fill="white" stroke="black" stroke-width="3" stroke-miterlimit="10"/>
<path d="M208.956 17.9684H210.456V16.4684V1.5H313.5V150.425H164.481V120.831V119.331H162.981H148.5V17.9684H208.956Z" fill="white" stroke="black" stroke-width="3" stroke-miterlimit="10"/>
<path d="M243.561 75.6074H230.141V102.016H243.561V75.6074Z" fill="black"/>
<path d="M195.423 75.6074H182.003V102.016H195.423V75.6074Z" fill="black"/>
<path d="M96.5497 257.124H83.1299V283.532H96.5497V257.124Z" fill="black"/>
<path d="M35.6601 257.124H22.2402V283.532H35.6601V257.124Z" fill="black"/>
<path d="M28.1828 268.383C27.6486 268.383 27.248 268.792 27.248 269.406V271.727C27.248 272.204 27.9157 272.204 27.9157 271.727V269.611H28.0492V275.548C28.0492 276.162 28.9172 276.162 28.9172 275.548V272.068H29.0507V275.548C29.0507 276.162 29.9187 276.162 29.9187 275.548V269.611H30.0522V271.727C30.0522 272.204 30.7199 272.204 30.7199 271.727V269.406C30.7199 268.929 30.3193 268.383 29.7851 268.383H28.1828Z" fill="white"/>
<path d="M28.9839 268.111C29.3895 268.111 29.7183 267.775 29.7183 267.36C29.7183 266.945 29.3895 266.609 28.9839 266.609C28.5783 266.609 28.2495 266.945 28.2495 267.36C28.2495 267.775 28.5783 268.111 28.9839 268.111Z" fill="white"/>
<path d="M130.668 257.124H117.248V295.815H130.668V257.124Z" fill="black"/>
<path d="M127.931 280.189V274.32C127.931 273.706 127.463 273.229 126.862 273.229H121.121C120.52 273.229 120.052 273.706 120.052 274.32V280.189C120.052 280.803 120.52 281.281 121.121 281.281H126.862C127.463 281.281 127.931 280.871 127.931 280.189ZM127.063 280.394H120.92V274.184H127.063V280.394Z" fill="white"/>
<path d="M124.926 269.474C124.926 268.997 125.594 268.997 125.594 269.474V271.385L125.927 270.976C126.195 270.703 126.595 271.112 126.328 271.385L125.46 272.409C125.327 272.545 125.126 272.545 124.993 272.409L124.125 271.385C123.858 271.044 124.325 270.703 124.525 270.976L124.859 271.453L124.926 269.474Z" fill="white"/>
<path d="M122.389 272.136C122.389 272.614 123.057 272.614 123.057 272.136V270.226L123.39 270.635C123.657 270.908 124.058 270.499 123.791 270.226L122.923 269.202C122.789 269.065 122.589 269.065 122.456 269.202L121.588 270.226C121.321 270.567 121.788 270.908 121.988 270.635L122.322 270.157L122.389 272.136Z" fill="white"/>
<path d="M125.728 276.026H124.593C124.46 276.026 124.326 276.163 124.326 276.299V277.732C124.326 277.869 124.393 277.937 124.526 277.937C124.526 277.937 124.593 277.937 124.66 277.937V279.779C124.66 280.121 125.127 280.121 125.127 279.779V277.937H125.194V279.779C125.194 280.121 125.661 280.121 125.661 279.779V277.937C125.728 277.937 125.795 277.937 125.795 277.937C125.929 277.937 125.995 277.869 125.995 277.732V276.299C125.995 276.163 125.929 276.026 125.728 276.026Z" fill="white"/>
<path d="M125.194 275.889C125.379 275.889 125.528 275.737 125.528 275.548C125.528 275.36 125.379 275.207 125.194 275.207C125.01 275.207 124.86 275.36 124.86 275.548C124.86 275.737 125.01 275.889 125.194 275.889Z" fill="white"/>
<path d="M123.324 276.026H122.189C122.056 276.026 121.922 276.163 121.922 276.299V277.732C121.922 277.869 121.989 277.937 122.123 277.937C122.123 277.937 122.189 277.937 122.256 277.937V279.779C122.256 280.121 122.724 280.121 122.724 279.779V277.937H122.79V279.779C122.79 280.121 123.258 280.121 123.258 279.779V277.937C123.324 277.937 123.391 277.937 123.391 277.937C123.525 277.937 123.591 277.869 123.591 277.732V276.299C123.591 276.163 123.458 276.026 123.324 276.026Z" fill="white"/>
<path d="M122.79 275.889C122.975 275.889 123.124 275.737 123.124 275.548C123.124 275.36 122.975 275.207 122.79 275.207C122.606 275.207 122.457 275.36 122.457 275.548C122.457 275.737 122.606 275.889 122.79 275.889Z" fill="white"/>
<path d="M90.0083 268.111C90.4089 268.111 90.7428 267.769 90.7428 267.36C90.7428 266.951 90.4089 266.609 90.0083 266.609C89.6078 266.609 89.2739 266.951 89.2739 267.36C89.2739 267.769 89.6078 268.111 90.0083 268.111Z" fill="white"/>
<path d="M89.8744 272.956V275.617C89.8744 276.095 89.2067 276.095 89.2067 275.617V272.956H88.272L89.2735 269.407H89.14L88.5391 271.386C88.4055 271.796 87.8046 271.659 87.9382 271.181L88.6058 268.998C88.6726 268.725 89.0064 268.315 89.5406 268.315H90.0079H90.5421C91.0762 268.315 91.41 268.793 91.4768 268.998L92.1445 271.181C92.278 271.659 91.6771 271.864 91.5436 271.386L90.9427 269.407H90.7424L91.7439 272.956H90.8091V275.617C90.8091 276.095 90.1415 276.095 90.1415 275.617V272.956H89.8744Z" fill="white"/>
<path d="M204.436 199.46H183.739V221.364H204.436V199.46Z" fill="black"/>
<path d="M197.96 215.427V209.559C197.96 208.944 197.492 208.467 196.892 208.467H191.15C190.549 208.467 190.082 208.944 190.082 209.559V215.427C190.082 216.041 190.549 216.519 191.15 216.519H196.892C197.492 216.519 197.96 216.11 197.96 215.427ZM197.092 215.632H190.949V209.422H197.092V215.632Z" fill="white"/>
<path d="M195.023 204.714C195.023 204.236 195.69 204.236 195.69 204.714V206.624L196.024 206.215C196.291 205.942 196.692 206.351 196.425 206.624L195.557 207.648C195.423 207.785 195.223 207.785 195.089 207.648L194.221 206.624C193.954 206.283 194.422 205.942 194.622 206.215L194.956 206.693L195.023 204.714Z" fill="white"/>
<path d="M192.418 207.375C192.418 207.853 193.086 207.853 193.086 207.375V205.465L193.42 205.874C193.687 206.147 194.087 205.738 193.82 205.465L192.952 204.441C192.819 204.305 192.619 204.305 192.485 204.441L191.617 205.465C191.35 205.806 191.817 206.147 192.018 205.874L192.351 205.397L192.418 207.375Z" fill="white"/>
<path d="M195.824 211.266H194.689C194.555 211.266 194.422 211.402 194.422 211.539V212.972C194.422 213.108 194.489 213.176 194.622 213.176C194.622 213.176 194.689 213.176 194.756 213.176V215.019C194.756 215.36 195.223 215.36 195.223 215.019V213.176H195.29V215.019C195.29 215.36 195.757 215.36 195.757 215.019V213.176C195.824 213.176 195.891 213.176 195.891 213.176C196.024 213.176 196.091 213.108 196.091 212.972V211.539C196.091 211.402 195.957 211.266 195.824 211.266Z" fill="white"/>
<path d="M195.29 211.129C195.474 211.129 195.624 210.976 195.624 210.788C195.624 210.599 195.474 210.446 195.29 210.446C195.106 210.446 194.956 210.599 194.956 210.788C194.956 210.976 195.106 211.129 195.29 211.129Z" fill="white"/>
<path d="M193.42 211.266H192.285C192.152 211.266 192.018 211.402 192.018 211.539V212.972C192.018 213.108 192.085 213.176 192.218 213.176C192.218 213.176 192.285 213.176 192.352 213.176V215.019C192.352 215.36 192.819 215.36 192.819 215.019V213.176H192.886V215.019C192.886 215.36 193.353 215.36 193.353 215.019V213.176C193.42 213.176 193.487 213.176 193.487 213.176C193.62 213.176 193.687 213.108 193.687 212.972V211.539C193.687 211.402 193.554 211.266 193.42 211.266Z" fill="white"/>
<path d="M192.82 211.129C193.004 211.129 193.153 210.976 193.153 210.788C193.153 210.599 193.004 210.446 192.82 210.446C192.635 210.446 192.486 210.599 192.486 210.788C192.486 210.976 192.635 211.129 192.82 211.129Z" fill="white"/>
<path d="M109.636 211.062H78.6572V233.035H109.636V211.062Z" fill="black"/>
<path d="M78.6572 205.809V208.675H112.374V233.036H130.668V208.675V205.809H78.6572Z" fill="#C4C4C4"/>
<path d="M172.421 206.234H133.737V295.264H172.421V206.234Z" fill="#C8A67C"/>
<path d="M58.6945 205.809H6.68408V242.521H58.6945V205.809Z" fill="#C8A67C"/>
<path d="M98.0189 227.032V221.163C98.0189 220.549 97.5516 220.071 96.9507 220.071H91.2089C90.608 220.071 90.1406 220.549 90.1406 221.163V227.032C90.1406 227.646 90.608 228.123 91.2089 228.123H96.9507C97.5516 228.123 98.0189 227.646 98.0189 227.032ZM97.151 227.236H91.0086V221.027H97.151V227.236Z" fill="white"/>
<path d="M95.0139 214.064C95.0139 213.587 95.6815 213.587 95.6815 214.064V215.975L96.0154 215.566C96.2824 215.293 96.683 215.702 96.4159 215.975L95.548 216.999C95.4145 217.135 95.2142 217.135 95.0806 216.999L94.2127 215.975C93.9456 215.634 94.413 215.293 94.6133 215.566L94.9471 216.043L95.0139 214.064Z" fill="white"/>
<path d="M92.4772 216.725C92.4772 217.203 93.1449 217.203 93.1449 216.725V214.814L93.4787 215.224C93.7458 215.497 94.1464 215.087 93.8793 214.814L93.0114 213.791C92.8778 213.654 92.6775 213.654 92.544 213.791L91.6761 214.814C91.409 215.156 91.8764 215.497 92.0767 215.224L92.4105 214.746L92.4772 216.725Z" fill="white"/>
<path d="M95.883 222.868H94.748C94.6145 222.868 94.481 223.005 94.481 223.141V224.574C94.481 224.711 94.5477 224.779 94.6813 224.779C94.6813 224.779 94.748 224.779 94.8148 224.779V226.621C94.8148 226.962 95.2821 226.962 95.2821 226.621V224.711H95.3489V226.553C95.3489 226.894 95.8163 226.894 95.8163 226.553V224.711C95.883 224.711 95.9498 224.711 95.9498 224.711C96.0833 224.711 96.1501 224.642 96.1501 224.506V223.073C96.1501 222.936 96.0166 222.868 95.883 222.868Z" fill="white"/>
<path d="M95.2826 222.732C95.467 222.732 95.6164 222.579 95.6164 222.391C95.6164 222.203 95.467 222.05 95.2826 222.05C95.0982 222.05 94.9487 222.203 94.9487 222.391C94.9487 222.579 95.0982 222.732 95.2826 222.732Z" fill="white"/>
<path d="M93.4792 222.868H92.3442C92.2107 222.868 92.0771 223.005 92.0771 223.141V224.574C92.0771 224.711 92.1439 224.779 92.2774 224.779C92.2774 224.779 92.3442 224.779 92.411 224.779V226.621C92.411 226.962 92.8783 226.962 92.8783 226.621V224.711H92.9451V226.553C92.9451 226.894 93.4125 226.894 93.4125 226.553V224.711C93.4792 224.711 93.546 224.711 93.546 224.711C93.6795 224.711 93.7463 224.642 93.7463 224.506V223.073C93.6795 222.936 93.6128 222.868 93.4792 222.868Z" fill="white"/>
<path d="M92.8788 222.732C93.0631 222.732 93.2126 222.579 93.2126 222.391C93.2126 222.203 93.0631 222.05 92.8788 222.05C92.6944 222.05 92.5449 222.203 92.5449 222.391C92.5449 222.579 92.6944 222.732 92.8788 222.732Z" fill="white"/>
<path d="M163.223 171.924H199.677V157.73H163.223V171.924Z" fill="black"/>
<path d="M180.668 162.066C181.069 162.066 181.403 161.724 181.403 161.315C181.403 160.906 181.069 160.564 180.668 160.564C180.267 160.564 179.934 160.906 179.934 161.315C179.934 161.724 180.267 162.066 180.668 162.066Z" fill="white"/>
<path d="M185.608 161.383H183.939C183.606 161.383 183.138 161.519 182.871 161.792L181.336 163.362V162.884C181.336 161.929 179.933 161.929 179.933 162.884V164.726L178.598 166.091C178.465 166.228 178.465 166.228 178.198 166.228H177.396C176.595 166.228 176.061 166.978 176.061 167.592C176.061 168.207 176.528 169.025 177.463 169.025C177.463 169.025 178.598 169.025 178.932 169.025C179.266 169.025 179.666 168.889 180 168.548L184.273 164.249C184.34 164.181 184.407 164.112 184.54 164.112C184.54 164.112 185.141 164.112 185.608 164.112C186.143 164.112 186.81 163.498 186.81 162.679C186.877 161.929 186.143 161.383 185.608 161.383ZM185.542 163.498H184.674C184.273 163.498 184.14 163.566 183.939 163.771L179.666 168.138C179.466 168.343 179.266 168.411 178.999 168.411H177.597C177.263 168.411 176.929 168.07 176.929 167.661C176.929 167.251 177.263 167.047 177.53 167.047H178.465C178.732 167.047 178.932 166.978 179.065 166.774L183.405 162.338C183.606 162.133 183.739 162.133 184.073 162.133H185.542C185.876 162.133 186.143 162.543 186.143 162.816C186.143 163.089 185.942 163.498 185.542 163.498Z" fill="white"/>
<path d="M254.954 114.357H268.374V75.6664H254.954V114.357Z" fill="#FF0000"/>
<path d="M278.527 113.823H308.369V43.9518H278.527V113.823Z" fill="#DAC452"/>
<path d="M268.397 49.0625H231.943V63.2561H268.397V49.0625Z" fill="black"/>
<path d="M249.37 53.3626C249.77 53.3626 250.104 53.0214 250.104 52.612C250.104 52.2025 249.77 51.8613 249.37 51.8613C248.969 51.8613 248.635 52.2025 248.635 52.612C248.635 53.0214 248.969 53.3626 249.37 53.3626Z" fill="white"/>
<path d="M254.244 52.6797H252.575C252.241 52.6797 251.773 52.8162 251.506 53.0891L249.971 54.6586V54.1809C249.971 53.2256 248.569 53.2256 248.569 54.1809V56.0234L247.233 57.3881C247.1 57.5246 247.1 57.5246 246.833 57.5246H246.032C245.23 57.5246 244.696 58.2752 244.696 58.8894C244.696 59.5035 245.164 60.3224 246.098 60.3224C246.098 60.3224 247.233 60.3224 247.567 60.3224C247.901 60.3224 248.302 60.1859 248.635 59.8447L252.908 55.5457C252.975 55.4775 253.042 55.4092 253.175 55.4092C253.175 55.4092 253.776 55.4092 254.244 55.4092C254.778 55.4092 255.445 54.7951 255.445 53.9762C255.512 53.2256 254.845 52.6797 254.244 52.6797ZM254.177 54.7951H253.309C252.908 54.7951 252.775 54.8633 252.575 55.068L248.302 59.4353C248.101 59.64 247.901 59.7082 247.634 59.7082H246.232C245.898 59.7082 245.564 59.367 245.564 58.9576C245.564 58.5482 245.898 58.3435 246.165 58.3435H247.1C247.367 58.3435 247.567 58.2752 247.701 58.0705L252.04 53.635C252.241 53.4303 252.374 53.4303 252.708 53.4303H254.177C254.511 53.4303 254.778 53.8397 254.778 54.1127C254.778 54.3856 254.644 54.7951 254.177 54.7951Z" fill="white"/>
<path d="M98.5535 257.124V285.511H81.0609V257.124H37.7301V285.511H20.2375V257.124H6.68408V295.815H115.245V257.124H98.5535Z" fill="#C4C4C4"/>
<path d="M187.879 86.8671C187.344 86.8671 186.944 87.2765 186.944 87.8906V90.2108C186.944 90.6884 187.612 90.6884 187.612 90.2108V88.0271H187.745V93.9639C187.745 94.578 188.613 94.578 188.613 93.9639V90.4837H188.747V93.9639C188.747 94.578 189.614 94.578 189.614 93.9639V88.0271H189.748V90.1425C189.748 90.6202 190.416 90.6202 190.416 90.1425V87.8224C190.416 87.3447 190.015 86.7988 189.481 86.7988L187.879 86.8671Z" fill="white"/>
<path d="M188.68 86.6624C189.085 86.6624 189.414 86.3263 189.414 85.9117C189.414 85.4972 189.085 85.1611 188.68 85.1611C188.274 85.1611 187.945 85.4972 187.945 85.9117C187.945 86.3263 188.274 86.6624 188.68 86.6624Z" fill="white"/>
<path d="M170.453 75.6074H153.828V114.298H170.453V75.6074Z" fill="#DAC452"/>
<path d="M178.064 37.7354H153.828V59.0939H178.064V37.7354Z" fill="#DAC452"/>
<path d="M209.043 24.0205H179.933V59.0267H209.043V24.0205Z" fill="#C4C4C4"/>
<path d="M308.369 7.88867H266.369V41.6974H308.369V7.88867Z" fill="#DAC452"/>
<path d="M260.842 7.88867H216.631V41.6974H260.842V7.88867Z" fill="#DAC452"/>
<path d="M265.594 98.7406V92.8721C265.594 92.2579 265.126 91.7803 264.525 91.7803H258.784C258.183 91.7803 257.715 92.2579 257.715 92.8721V98.7406C257.715 99.3547 258.183 99.8324 258.784 99.8324H264.525C265.126 99.7642 265.594 99.3547 265.594 98.7406ZM264.726 98.877H258.583V92.6674H264.726V98.877Z" fill="white"/>
<path d="M262.656 87.9588C262.656 87.4812 263.324 87.4812 263.324 87.9588V89.8695L263.657 89.4601C263.925 89.1871 264.325 89.5966 264.058 89.8695L263.19 90.8931C263.057 91.0296 262.856 91.0296 262.723 90.8931L261.855 89.8695C261.588 89.5283 262.055 89.1871 262.255 89.4601L262.589 89.9378L262.656 87.9588Z" fill="white"/>
<path d="M260.052 90.6879C260.052 91.1656 260.72 91.1656 260.72 90.6879V88.7773L261.053 89.1867C261.32 89.4597 261.721 89.0502 261.454 88.7773L260.586 87.7537C260.453 87.6172 260.252 87.6172 260.119 87.7537L259.251 88.7773C258.984 89.1185 259.451 89.4597 259.651 89.1867L259.985 88.7091L260.052 90.6879Z" fill="white"/>
<path d="M263.457 94.5088H262.322C262.189 94.5088 262.055 94.6453 262.055 94.7817V96.2147C262.055 96.3512 262.122 96.4195 262.255 96.4195C262.255 96.4195 262.322 96.4195 262.389 96.4195V98.2619C262.389 98.6031 262.856 98.6031 262.856 98.2619V96.4195H262.923V98.2619C262.923 98.6031 263.391 98.6031 263.391 98.2619V96.4195C263.457 96.4195 263.524 96.4195 263.524 96.4195C263.658 96.4195 263.724 96.3512 263.724 96.2147V94.7817C263.724 94.6453 263.591 94.5088 263.457 94.5088Z" fill="white"/>
<path d="M262.923 94.3728C263.108 94.3728 263.257 94.2201 263.257 94.0316C263.257 93.8432 263.108 93.6904 262.923 93.6904C262.739 93.6904 262.589 93.8432 262.589 94.0316C262.589 94.2201 262.739 94.3728 262.923 94.3728Z" fill="white"/>
<path d="M261.054 94.5088H259.919C259.785 94.5088 259.652 94.6453 259.652 94.7817V96.2147C259.652 96.3512 259.719 96.4195 259.852 96.4195C259.852 96.4195 259.919 96.4195 259.986 96.4195V98.2619C259.986 98.6031 260.453 98.6031 260.453 98.2619V96.4195H260.52V98.2619C260.52 98.6031 260.987 98.6031 260.987 98.2619V96.4195C261.054 96.4195 261.121 96.4195 261.121 96.4195C261.254 96.4195 261.321 96.3512 261.321 96.2147V94.7817C261.321 94.6453 261.187 94.5088 261.054 94.5088Z" fill="white"/>
<path d="M260.453 94.3728C260.638 94.3728 260.787 94.2201 260.787 94.0316C260.787 93.8432 260.638 93.6904 260.453 93.6904C260.269 93.6904 260.12 93.8432 260.12 94.0316C260.12 94.2201 260.269 94.3728 260.453 94.3728Z" fill="white"/>
<path d="M237.018 86.6624C237.419 86.6624 237.753 86.3212 237.753 85.9117C237.753 85.5023 237.419 85.1611 237.018 85.1611C236.618 85.1611 236.284 85.5023 236.284 85.9117C236.284 86.3212 236.618 86.6624 237.018 86.6624Z" fill="white"/>
<path d="M236.951 91.439V94.1003C236.951 94.578 236.283 94.578 236.283 94.1003V91.439H235.349L236.35 87.8906H236.217L235.616 89.8695C235.482 90.279 234.881 90.1425 235.015 89.6648L235.682 87.4812C235.749 87.2083 236.083 86.7988 236.617 86.7988H237.085H237.619C238.153 86.7988 238.487 87.2765 238.553 87.4812L239.221 89.6648C239.355 90.1425 238.754 90.3472 238.62 89.8695L238.019 87.8906H237.819L238.82 91.439H237.886V94.1003C237.886 94.578 237.218 94.578 237.218 94.1003V91.439H236.951Z" fill="white"/>
<path d="M245.631 75.6074V104.063H228.138V75.6074H197.426V104.063H179.933V75.6074H172.456V114.367H252.975V75.6074H245.631Z" fill="#C4C4C4"/>
<path d="M113.482 26.5586H118.397V25.2908H115.02V23.5543H118.131V22.2866H115.02V20.5536H118.383V19.2859H113.482V26.5586ZM120.859 26.5586L121.398 24.9002H124.023L124.563 26.5586H126.21L123.703 19.2859H121.722L119.211 26.5586H120.859ZM121.789 23.6999L122.684 20.9478H122.741L123.636 23.6999H121.789ZM130.865 21.3775H132.339C132.317 20.0813 131.252 19.1864 129.633 19.1864C128.038 19.1864 126.87 20.0671 126.877 21.3881C126.873 22.4606 127.63 23.0749 128.859 23.3697L129.65 23.5685C130.442 23.7603 130.883 23.9876 130.886 24.4776C130.883 25.0103 130.378 25.3725 129.597 25.3725C128.798 25.3725 128.223 25.0032 128.173 24.2752H126.685C126.724 25.8484 127.85 26.6616 129.615 26.6616C131.391 26.6616 132.435 25.8129 132.438 24.4812C132.435 23.2702 131.522 22.6275 130.258 22.3434L129.604 22.1871C128.972 22.0415 128.443 21.8072 128.454 21.2852C128.454 20.8164 128.869 20.4719 129.622 20.4719C130.357 20.4719 130.808 20.8058 130.865 21.3775ZM133.195 20.5536H135.422V26.5586H136.942V20.5536H139.168V19.2859H133.195V20.5536ZM102.922 32.5536H105.148V38.5586H106.668V32.5536H108.895V31.2859H102.922V32.5536ZM116.24 34.9222C116.24 32.543 114.762 31.1864 112.834 31.1864C110.895 31.1864 109.429 32.543 109.429 34.9222C109.429 37.2908 110.895 38.658 112.834 38.658C114.762 38.658 116.24 37.3015 116.24 34.9222ZM114.681 34.9222C114.681 36.4634 113.949 37.2979 112.834 37.2979C111.715 37.2979 110.987 36.4634 110.987 34.9222C110.987 33.381 111.715 32.5465 112.834 32.5465C113.949 32.5465 114.681 33.381 114.681 34.9222ZM118.742 38.5586H120.241L121.622 33.8036H121.679L123.064 38.5586H124.563L126.644 31.2859H124.964L123.76 36.3498H123.696L122.372 31.2859H120.933L119.605 36.3391H119.545L118.341 31.2859H116.661L118.742 38.5586ZM127.466 38.5586H132.381V37.2908H129.004V35.5543H132.115V34.2866H129.004V32.5536H132.367V31.2859H127.466V38.5586ZM133.59 38.5586H135.127V35.9805H136.249L137.627 38.5586H139.325L137.78 35.7319C138.607 35.3768 139.065 34.6559 139.065 33.6616C139.065 32.2163 138.11 31.2859 136.459 31.2859H133.59V38.5586ZM135.127 34.7447V32.543H136.164C137.052 32.543 137.482 32.9371 137.482 33.6616C137.482 34.3825 137.052 34.7447 136.171 34.7447H135.127Z" fill="black"/>
<path d="M187.874 311.862H189.372L190.754 307.107H190.81L192.195 311.862H193.694L195.775 304.59H194.095L192.891 309.653H192.828L191.503 304.59H190.065L188.737 309.643H188.676L187.472 304.59H185.793L187.874 311.862ZM196.598 311.862H201.513V310.595H198.136V308.858H201.246V307.59H198.136V305.857H201.498V304.59H196.598V311.862ZM206.666 306.681H208.14C208.119 305.385 207.053 304.49 205.434 304.49C203.84 304.49 202.671 305.371 202.678 306.692C202.675 307.764 203.431 308.379 204.66 308.673L205.452 308.872C206.244 309.064 206.684 309.291 206.688 309.781C206.684 310.314 206.18 310.676 205.399 310.676C204.6 310.676 204.024 310.307 203.975 309.579H202.487C202.526 311.152 203.651 311.965 205.416 311.965C207.192 311.965 208.236 311.117 208.239 309.785C208.236 308.574 207.323 307.931 206.059 307.647L205.406 307.491C204.774 307.345 204.244 307.111 204.255 306.589C204.255 306.12 204.671 305.776 205.423 305.776C206.158 305.776 206.609 306.109 206.666 306.681ZM208.997 305.857H211.223V311.862H212.743V305.857H214.97V304.59H208.997V305.857ZM185.96 317.857H188.186V323.862H189.706V317.857H191.933V316.59H185.96V317.857ZM199.277 320.226C199.277 317.847 197.8 316.49 195.872 316.49C193.933 316.49 192.466 317.847 192.466 320.226C192.466 322.595 193.933 323.962 195.872 323.962C197.8 323.962 199.277 322.605 199.277 320.226ZM197.718 320.226C197.718 321.767 196.987 322.602 195.872 322.602C194.753 322.602 194.025 321.767 194.025 320.226C194.025 318.685 194.753 317.85 195.872 317.85C196.987 317.85 197.718 318.685 197.718 320.226ZM201.78 323.862H203.278L204.66 319.107H204.717L206.102 323.862H207.6L209.681 316.59H208.002L206.798 321.653H206.734L205.409 316.59H203.971L202.643 321.643H202.582L201.379 316.59H199.699L201.78 323.862ZM210.504 323.862H215.419V322.595H212.042V320.858H215.153V319.59H212.042V317.857H215.405V316.59H210.504V323.862ZM216.627 323.862H218.165V321.284H219.287L220.665 323.862H222.362L220.818 321.036C221.645 320.68 222.103 319.96 222.103 318.965C222.103 317.52 221.148 316.59 219.497 316.59H216.627V323.862ZM218.165 320.048V317.847H219.202C220.09 317.847 220.519 318.241 220.519 318.965C220.519 319.686 220.09 320.048 219.209 320.048H218.165Z" fill="black"/>
<path d="M2.59375 43H25.4063V37.4687H11.9688V37.25L16.6406 32.6719C23.2188 26.6719 24.9844 23.6719 24.9844 20.0312C24.9844 14.4844 20.4531 10.5625 13.5938 10.5625C6.875 10.5625 2.26563 14.5781 2.28125 20.8594H8.70313C8.6875 17.7969 10.625 15.9219 13.5469 15.9219C16.3594 15.9219 18.4531 17.6719 18.4531 20.4844C18.4531 23.0312 16.8906 24.7812 13.9844 27.5781L2.59375 38.125V43ZM30.4961 43H37.2617V29.7812H50.2773V24.2031H37.2617V16.5781H51.6836V11H30.4961V43Z" fill="black"/>
<path d="M149.888 245.891C148.64 245.675 147.956 244.817 147.956 244.007V243.611H147.11V244.007C147.11 244.799 146.42 245.675 145.178 245.891L145.514 246.551C146.474 246.365 147.176 245.825 147.53 245.123C147.884 245.825 148.592 246.359 149.552 246.551L149.888 245.891ZM145.058 247.499V248.141H150.062V247.499H145.058ZM153.475 247.565V246.647H155.047V246.023H151.969V245.447H154.879V244.835H151.969V244.295H155.005V243.665H151.165V246.647H152.683V247.565H150.577V248.207H155.581V247.565H153.475ZM157.201 245.891H158.995V243.755H156.385V244.385H158.185V245.267H156.391V247.541H156.889C157.891 247.541 158.701 247.505 159.601 247.349L159.517 246.707C158.737 246.839 158.041 246.881 157.201 246.887V245.891ZM159.901 243.281V248.825H160.693V243.281H159.901ZM146.438 251.433H147.056V253.869C146.846 253.875 146.642 253.887 146.438 253.887V251.433ZM147.818 251.433H148.292V250.797H145.19V251.433H145.67V253.905C145.454 253.905 145.244 253.905 145.046 253.905L145.13 254.553C146.12 254.547 147.392 254.523 148.556 254.325L148.508 253.755C148.28 253.785 148.052 253.809 147.818 253.821V251.433ZM148.862 250.293V255.819H149.66V250.293H148.862ZM154.207 252.315H151.933V251.745H154.207V252.315ZM154.987 250.497H154.207V251.127H151.933V250.497H151.147V252.945H154.987V250.497ZM155.581 253.467H150.577V254.097H152.665V255.819H153.457V254.097H155.581V253.467ZM159.025 253.401C159.175 252.489 159.175 251.817 159.175 251.283V250.833H156.331V251.463H158.395C158.395 251.955 158.377 252.549 158.251 253.335L159.025 253.401ZM157.819 252.417H157.039V254.049C156.691 254.055 156.355 254.055 156.049 254.055L156.121 254.703C157.081 254.697 158.317 254.673 159.439 254.481L159.397 253.911C158.893 253.971 158.353 254.007 157.819 254.025V252.417ZM161.185 252.507H160.441V250.281H159.649V255.807H160.441V253.167H161.185V252.507Z" fill="black"/>
<path d="M20.6669 219.615H22.3769V218.985H19.8749V222.699H20.3249C21.3329 222.699 21.9929 222.675 22.7369 222.537L22.6589 221.895C22.0289 222.003 21.4589 222.045 20.6669 222.051V219.615ZM23.4629 218.493V220.401H22.1129V221.037H23.4629V224.037H24.2549V218.493H23.4629ZM29.6065 221.343H26.5285V220.725H29.4385V220.113H26.5285V219.531H29.5645V218.895H25.7245V221.967H29.6065V221.343ZM25.1365 222.741V223.383H30.1405V222.741H25.1365ZM31.76 221.097H33.554V218.961H30.944V219.591H32.744V220.473H30.95V222.747H31.448C32.45 222.747 33.26 222.711 34.16 222.555L34.076 221.913C33.296 222.045 32.6 222.087 31.76 222.093V221.097ZM34.46 218.487V224.031H35.252V218.487H34.46ZM37.2495 219.015H36.4635V222.657H36.9555C37.7955 222.657 38.7135 222.597 39.6555 222.399L39.5715 221.739C38.7615 221.901 37.9755 221.961 37.2495 221.979V219.015ZM39.9975 218.487V224.013H40.7895V218.487H39.9975ZM42.7811 221.109H44.5571V220.491H42.7811V219.591H44.7851V218.949H41.9891V222.771H42.4691C43.4591 222.771 44.2331 222.747 45.0971 222.615L45.0251 221.985C44.2691 222.099 43.6031 222.129 42.7811 222.135V221.109ZM45.4991 218.493V224.025H46.2971V218.493H45.4991ZM32.7262 228.097C31.4782 227.881 30.7942 227.023 30.7942 226.213V225.817H29.9482V226.213C29.9482 227.005 29.2582 227.881 28.0162 228.097L28.3522 228.757C29.3122 228.571 30.0142 228.031 30.3682 227.329C30.7222 228.031 31.4302 228.565 32.3902 228.757L32.7262 228.097ZM27.8962 229.705V230.347H32.9002V229.705H27.8962ZM34.7298 226.639H35.2998V229.075C35.1078 229.081 34.9158 229.087 34.7298 229.093V226.639ZM36.0618 226.639H36.5358V226.003H33.4878V226.639H33.9618V229.111C33.7458 229.111 33.5358 229.111 33.3438 229.111L33.4278 229.759C34.3698 229.759 35.6238 229.735 36.7458 229.537L36.6978 228.961C36.4938 228.991 36.2778 229.003 36.0618 229.021V226.639ZM38.5458 227.581H37.7418V225.499H36.9498V231.025H37.7418V228.235H38.5458V227.581Z" fill="black"/>
<path d="M287.489 20.4983C286.241 20.2823 285.557 19.4243 285.557 18.6143V18.2183H284.711V18.6143C284.711 19.4063 284.021 20.2823 282.779 20.4983L283.115 21.1583C284.075 20.9723 284.777 20.4323 285.131 19.7303C285.485 20.4323 286.193 20.9663 287.153 21.1583L287.489 20.4983ZM282.659 22.1063V22.7483H287.663V22.1063H282.659ZM290.321 18.3203H289.529V19.1243C289.529 20.1983 289.073 21.2663 288.107 21.6803L288.581 22.3343C289.241 22.0223 289.691 21.4283 289.937 20.6903C290.183 21.3683 290.609 21.9143 291.245 22.2023L291.695 21.5603C290.759 21.1583 290.321 20.1503 290.321 19.1243V18.3203ZM291.965 17.8883V23.4323H292.757V17.8883H291.965ZM278.622 28.5063C278.208 28.5063 277.932 28.0683 277.932 27.2463C277.932 26.4303 278.208 25.9923 278.622 25.9923C279.03 25.9923 279.312 26.4303 279.312 27.2463C279.312 28.0683 279.03 28.5063 278.622 28.5063ZM278.622 25.2783C277.782 25.2783 277.17 26.0343 277.17 27.2463C277.17 28.4643 277.782 29.2263 278.622 29.2263C279.456 29.2263 280.074 28.4643 280.074 27.2463C280.074 26.0343 279.456 25.2783 278.622 25.2783ZM282.27 26.9763H281.466V24.8943H280.674V30.4203H281.466V27.6303H282.27V26.9763ZM283.667 27.4983H285.419V25.3623H282.881V25.9923H284.639V26.8743H282.887V29.1543H283.355C284.315 29.1543 285.077 29.1183 285.905 28.9683L285.833 28.3263C285.113 28.4523 284.459 28.4943 283.667 28.5003V27.4983ZM287.789 26.9763H286.997V24.8883H286.205V30.4323H286.997V27.6303H287.789V26.9763ZM288.449 25.3923V29.1063H291.107V25.3923H288.449ZM290.327 26.0163V28.4823H289.229V26.0163H290.327ZM291.965 24.8943V30.4323H292.757V24.8943H291.965ZM294.202 28.3203C295.162 28.1463 295.852 27.6603 296.2 27.0063C296.548 27.6483 297.25 28.1223 298.222 28.2903L298.522 27.6663C297.274 27.4803 296.62 26.7483 296.614 25.9863H298.276V25.3623H294.112V25.9863H295.774C295.768 26.7483 295.114 27.4983 293.896 27.6903L294.202 28.3203ZM293.698 29.1183V29.7603H298.702V29.1183H293.698Z" fill="black"/>
<path d="M229.811 23.4341H232.193V24.8981H229.811V23.4341ZM231.401 26.6441V25.5221H232.967V22.8101H229.037V25.5221H230.609V26.6441H228.509V27.2861H233.513V26.6441H231.401ZM238.492 24.3101H235.432V24.0101H238.324V23.4341H235.432V23.1461H238.45V22.5461H234.646V24.9101H238.492V24.3101ZM237.634 27.0221C237.634 27.2501 237.274 27.3521 236.512 27.3521C235.75 27.3521 235.396 27.2501 235.396 27.0221C235.396 26.7941 235.75 26.6981 236.512 26.6981C237.274 26.6981 237.634 26.7941 237.634 27.0221ZM239.02 25.8161V25.1921H234.022V25.8161H236.122V26.1281C235.15 26.1941 234.598 26.4941 234.598 27.0221C234.598 27.6101 235.3 27.9341 236.512 27.9341C237.724 27.9341 238.432 27.6101 238.432 27.0221C238.432 26.5001 237.88 26.1941 236.914 26.1281V25.8161H239.02ZM243.334 22.3961V27.9401H244.126V22.3961H243.334ZM241.156 22.7861C240.322 22.7861 239.704 23.5421 239.704 24.7541C239.704 25.9721 240.322 26.7341 241.156 26.7341C241.99 26.7341 242.608 25.9721 242.608 24.7541C242.608 23.5421 241.99 22.7861 241.156 22.7861ZM241.156 23.5001C241.564 23.5001 241.846 23.9381 241.846 24.7541C241.846 25.5761 241.564 26.0141 241.156 26.0141C240.748 26.0141 240.466 25.5761 240.466 24.7541C240.466 23.9381 240.748 23.5001 241.156 23.5001ZM247.557 23.2181C248.277 23.2181 248.739 23.4341 248.739 23.8301C248.739 24.2321 248.277 24.4481 247.557 24.4481C246.831 24.4481 246.369 24.2321 246.369 23.8301C246.369 23.4341 246.831 23.2181 247.557 23.2181ZM247.557 25.0781C248.733 25.0781 249.555 24.5921 249.555 23.8301C249.555 23.0801 248.733 22.5881 247.557 22.5881C246.375 22.5881 245.559 23.0801 245.559 23.8301C245.559 24.5921 246.375 25.0781 247.557 25.0781ZM250.071 25.4921H245.067V26.1281H247.155V27.9341H247.947V26.1281H250.071V25.4921Z" fill="black"/>
<path d="M287.623 76.3309V78.9409H288.288V76.3309H287.623ZM285.223 79.1459V80.8809H288.288V79.1459H285.223ZM287.643 79.6609V80.3659H285.873V79.6609H287.643ZM285.783 76.5409C285.068 76.5409 284.528 77.0009 284.528 77.6509C284.528 78.2959 285.068 78.7559 285.783 78.7559C286.498 78.7559 287.033 78.2959 287.033 77.6509C287.033 77.0009 286.498 76.5409 285.783 76.5409ZM285.783 77.0909C286.128 77.0909 286.388 77.3009 286.388 77.6509C286.388 77.9959 286.128 78.2059 285.783 78.2059C285.433 78.2059 285.173 77.9959 285.173 77.6509C285.173 77.3009 285.433 77.0909 285.783 77.0909ZM291.608 78.6359H290.668V77.2559H291.608V78.6359ZM290.013 78.6359H289.413V79.1609H292.873V78.6359H292.263V77.2559H292.888V76.7309H289.388V77.2559H290.013V78.6359ZM289.063 79.8659V80.4009H293.233V79.8659H289.063ZM294.427 78.5459H295.412V76.7809H293.782V77.3059H294.772V78.0259H293.787V79.8609H294.112C294.687 79.8609 295.197 79.8459 295.792 79.7409L295.737 79.2109C295.272 79.2859 294.862 79.3109 294.427 79.3209V78.5459ZM296.052 77.8959H295.597V78.4359H296.052V80.7209H296.662V76.4109H296.052V77.8959ZM296.987 76.3259V80.9309H297.612V76.3259H296.987ZM301.452 79.7409H302.112V76.3309H301.452V76.9309H300.687V77.4559H301.452V77.8159H300.687V78.3459H301.452V79.7409ZM301.012 78.6609C300.282 78.3859 299.982 77.7559 299.982 77.1259V76.5909H299.312V77.1259C299.312 77.7959 298.997 78.4409 298.237 78.7109L298.582 79.2259C299.107 79.0309 299.457 78.6559 299.652 78.1859C299.842 78.6259 300.167 78.9809 300.647 79.1709L301.012 78.6609ZM299.732 80.3309V79.4309H299.072V80.8559H302.212V80.3309H299.732Z" fill="black"/>
<path d="M162.466 43.8362V44.2562H163.63C163.614 44.4322 163.586 44.5922 163.55 44.7482L162.27 44.8202L162.338 45.2642L163.39 45.1682C163.178 45.5722 162.822 45.9122 162.25 46.2122L162.538 46.6122C163.858 45.9202 164.154 44.9682 164.154 43.8362H162.466ZM164.834 43.4842V44.8962H164.146V45.3242H164.834V47.1682H165.362V43.4842H164.834ZM166.881 44.2482H167.293V45.8722C167.153 45.8762 167.017 45.8842 166.881 45.8842V44.2482ZM167.801 44.2482H168.117V43.8242H166.049V44.2482H166.369V45.8962C166.225 45.8962 166.085 45.8962 165.953 45.8962L166.009 46.3282C166.669 46.3242 167.517 46.3082 168.293 46.1762L168.261 45.7962C168.109 45.8162 167.957 45.8322 167.801 45.8402V44.2482ZM168.497 43.4882V47.1722H169.029V43.4882H168.497ZM163.662 50.2202C162.83 50.0762 162.374 49.5042 162.374 48.9642V48.7002H161.81V48.9642C161.81 49.4922 161.35 50.0762 160.522 50.2202L160.746 50.6602C161.386 50.5362 161.854 50.1762 162.09 49.7082C162.326 50.1762 162.798 50.5322 163.438 50.6602L163.662 50.2202ZM160.442 51.2922V51.7202H163.778V51.2922H160.442ZM164.837 48.8322H164.313V51.2602H164.641C165.201 51.2602 165.813 51.2202 166.441 51.0882L166.385 50.6482C165.845 50.7562 165.321 50.7962 164.837 50.8082V48.8322ZM166.669 48.4802V52.1642H167.197V48.4802H166.669ZM168.701 49.2282H169.065V50.8802C168.941 50.8882 168.821 50.8922 168.701 50.8962V49.2282ZM169.573 49.2282H169.917V48.8082H167.885V49.2282H168.189V50.9082C168.049 50.9082 167.913 50.9082 167.785 50.9082L167.841 51.3362C168.469 51.3362 169.305 51.3202 170.041 51.1922L170.009 50.8082C169.869 50.8242 169.721 50.8402 169.573 50.8482V49.2282ZM170.365 48.4842V49.8202H169.817V50.2482H170.365V52.1722H170.893V48.4842H170.365Z" fill="black"/>
<path d="M157.692 92.6822C157.692 92.4002 157.953 92.2352 158.331 92.2352C158.712 92.2352 158.973 92.4002 158.973 92.6822C158.973 92.9642 158.712 93.1292 158.331 93.1292C157.953 93.1292 157.692 92.9642 157.692 92.6822ZM158.529 93.9002V93.4322C159.018 93.3752 159.363 93.0932 159.363 92.6822C159.363 92.2202 158.922 91.9202 158.331 91.9202C157.743 91.9202 157.302 92.2202 157.302 92.6822C157.302 93.0932 157.647 93.3722 158.133 93.4322V93.9002H157.083V94.2212H159.585V93.9002H158.529ZM160.395 93.0812H161.292V92.0132H159.987V92.3282H160.887V92.7692H159.99V93.9062H160.239C160.74 93.9062 161.145 93.8882 161.595 93.8102L161.553 93.4892C161.163 93.5552 160.815 93.5762 160.395 93.5792V93.0812ZM161.745 91.7762V94.5482H162.141V91.7762H161.745ZM163.671 92.3702H164.241V92.0432H162.693V92.3702H163.269V92.5232C163.269 92.9942 163.044 93.5012 162.582 93.7082L162.807 94.0232C163.131 93.8762 163.353 93.5732 163.476 93.2132C163.599 93.5462 163.818 93.8162 164.139 93.9542L164.355 93.6422C163.893 93.4502 163.671 92.9732 163.671 92.5232V92.3702ZM164.496 91.7792V94.5422H164.892V91.7792H164.496ZM167.277 93.1742H167.673V91.7762H167.277V92.1632H166.608V92.4782H167.277V93.1742ZM166.953 92.6912C166.587 92.7542 166.242 92.7812 165.906 92.7872V91.8902H165.513V93.1142H165.747C166.146 93.1142 166.557 93.0932 167.004 93.0092L166.953 92.6912ZM166.251 94.2002V94.0322H167.673V93.2792H165.852V93.5882H167.277V93.7412H165.855V94.5092H167.742V94.2002H166.251ZM158.874 96.9012H159.063V97.8702H159.438V95.7822H159.063V96.5802H158.874V95.8302H158.505V97.7802H158.874V96.9012ZM157.632 96.3492H157.845V97.1082C157.776 97.1112 157.701 97.1142 157.632 97.1142V96.3492ZM158.397 97.0632C158.337 97.0722 158.268 97.0782 158.199 97.0872V96.3492H158.37V96.0342H157.107V96.3492H157.278V97.1232C157.2 97.1232 157.128 97.1232 157.059 97.1232L157.101 97.4442C157.443 97.4442 157.998 97.4352 158.421 97.3512L158.397 97.0632ZM157.962 98.1792V97.6212H157.563V98.4942H159.504V98.1792H157.962ZM161.268 96.8202H160.983C161.04 96.5952 161.061 96.3492 161.061 96.0882H159.984V96.4062H160.68C160.671 96.5172 160.656 96.6222 160.632 96.7212L159.846 96.7632L159.891 97.0932L160.527 97.0272C160.398 97.2912 160.179 97.5192 159.831 97.7232L160.05 97.9992C160.47 97.7562 160.728 97.4652 160.875 97.1352H161.268V98.4192H161.637V95.8392H161.268V96.8202ZM161.844 95.7762V98.5392H162.219V95.7762H161.844ZM164.496 95.7762V98.5482H164.892V95.7762H164.496ZM163.407 95.9712C162.99 95.9712 162.681 96.3492 162.681 96.9552C162.681 97.5642 162.99 97.9452 163.407 97.9452C163.824 97.9452 164.133 97.5642 164.133 96.9552C164.133 96.3492 163.824 95.9712 163.407 95.9712ZM163.407 96.3282C163.611 96.3282 163.752 96.5472 163.752 96.9552C163.752 97.3662 163.611 97.5852 163.407 97.5852C163.203 97.5852 163.062 97.3662 163.062 96.9552C163.062 96.5472 163.203 96.3282 163.407 96.3282ZM165.567 96.8352L165.615 97.1562L167.193 97.0752C167.175 97.2612 167.145 97.4622 167.091 97.6872L167.481 97.7262C167.61 97.1262 167.61 96.7452 167.61 96.3432V96.0222H165.645V96.3372H167.22V96.3432C167.22 96.4842 167.22 96.6282 167.214 96.7812L165.567 96.8352ZM165.366 97.8912V98.2152H167.862V97.8912H165.366Z" fill="black"/>
</g>
<path fill-rule="evenodd" clip-rule="evenodd" d="M87.789 246.844C91.317 246.235 94 243.168 94 239.477C94 235.348 90.6421 232 86.5 232C82.3579 232 79 235.348 79 239.477C79 243.168 81.683 246.235 85.211 246.844L86.5 252L87.789 246.844Z" fill="black"/>
<path fill-rule="evenodd" clip-rule="evenodd" d="M87.789 244.844C91.317 244.235 94 241.168 94 237.477C94 233.348 90.6421 230 86.5 230C82.3579 230 79 233.348 79 237.477C79 241.168 81.683 244.235 85.211 244.844L86.5 250L87.789 244.844Z" fill="#FF0000"/>
<ellipse cx="86.5" cy="237.477" rx="2.5" ry="2.49231" fill="white"/>
<path d="M69.5 241.998V175.498C129 154 132.5 121.5 129 65.498C129 65.5002 211.5 65.498 211.5 65.498" stroke="#FF0000" stroke-width="3" stroke-linecap="round"/>
<path d="M206.616 407.357H208.116V405.857V375.5H313.5V702.5H1.5V435.5H161.319H162.819V434V407.357H206.616Z" fill="#C4C4C4" stroke="black" stroke-width="3" stroke-miterlimit="10"/>
<path d="M251.266 459.337H241.75V494.373H251.266V459.337Z" fill="black"/>
<path d="M113.266 618.412H103.75V653.448H113.266V618.412Z" fill="black"/>
<path d="M276.806 459.337H267.29V494.373H276.806V459.337Z" fill="black"/>
<path d="M138.806 618.412H129.29V653.448H138.806V618.412Z" fill="black"/>
<path d="M265.448 459.337H253.107V494.373H265.448V459.337Z" fill="#FF0000"/>
<path d="M127.448 618.412H115.107V653.448H127.448V618.412Z" fill="black"/>
<path d="M240 459.412H167V494.412H240V459.412Z" fill="black"/>
<path d="M102 618.487H29V653.487H102V618.487Z" fill="black"/>
<path d="M262.869 480.285V474.971C262.869 474.415 262.44 473.982 261.887 473.982H256.607C256.054 473.982 255.625 474.415 255.625 474.971V480.285C255.625 480.841 256.054 481.274 256.607 481.274H261.887C262.44 481.212 262.869 480.841 262.869 480.285ZM262.071 480.409H256.423V474.786H262.071V480.409Z" fill="white"/>
<path d="M260.168 470.522C260.168 470.089 260.782 470.089 260.782 470.522V472.252L261.089 471.881C261.334 471.634 261.702 472.005 261.457 472.252L260.659 473.179C260.536 473.302 260.352 473.302 260.229 473.179L259.431 472.252C259.185 471.943 259.615 471.634 259.799 471.881L260.106 472.314L260.168 470.522Z" fill="white"/>
<path d="M257.773 472.996C257.773 473.428 258.387 473.428 258.387 472.996V471.266L258.694 471.636C258.94 471.884 259.308 471.513 259.062 471.266L258.264 470.339C258.141 470.215 257.957 470.215 257.834 470.339L257.036 471.266C256.791 471.575 257.221 471.884 257.405 471.636L257.712 471.204L257.773 472.996Z" fill="white"/>
<path d="M260.905 476.453H259.861C259.738 476.453 259.615 476.577 259.615 476.7V477.998C259.615 478.122 259.677 478.183 259.799 478.183C259.799 478.183 259.861 478.183 259.922 478.183V479.852C259.922 480.161 260.352 480.161 260.352 479.852V478.183H260.413V479.852C260.413 480.161 260.843 480.161 260.843 479.852V478.183C260.905 478.183 260.966 478.183 260.966 478.183C261.089 478.183 261.15 478.122 261.15 477.998V476.7C261.15 476.577 261.027 476.453 260.905 476.453Z" fill="white"/>
<path d="M260.351 476.33C260.521 476.33 260.658 476.192 260.658 476.021C260.658 475.85 260.521 475.712 260.351 475.712C260.182 475.712 260.044 475.85 260.044 476.021C260.044 476.192 260.182 476.33 260.351 476.33Z" fill="white"/>
<path d="M258.695 476.453H257.651C257.528 476.453 257.405 476.577 257.405 476.7V477.998C257.405 478.122 257.467 478.183 257.589 478.183C257.589 478.183 257.651 478.183 257.712 478.183V479.852C257.712 480.161 258.142 480.161 258.142 479.852V478.183H258.203V479.852C258.203 480.161 258.633 480.161 258.633 479.852V478.183C258.695 478.183 258.756 478.183 258.756 478.183C258.879 478.183 258.94 478.122 258.94 477.998V476.7C258.94 476.577 258.817 476.453 258.695 476.453Z" fill="white"/>
<path d="M258.141 476.33C258.311 476.33 258.448 476.192 258.448 476.021C258.448 475.85 258.311 475.712 258.141 475.712C257.972 475.712 257.834 475.85 257.834 476.021C257.834 476.192 257.972 476.33 258.141 476.33Z" fill="white"/>
<path d="M124.869 639.359V634.045C124.869 633.489 124.44 633.057 123.887 633.057H118.607C118.054 633.057 117.625 633.489 117.625 634.045V639.359C117.625 639.916 118.054 640.348 118.607 640.348H123.887C124.44 640.286 124.869 639.916 124.869 639.359ZM124.071 639.483H118.423V633.86H124.071V639.483Z" fill="white"/>
<path d="M122.168 629.596C122.168 629.163 122.782 629.163 122.782 629.596V631.326L123.089 630.955C123.334 630.708 123.702 631.079 123.457 631.326L122.659 632.253C122.536 632.377 122.352 632.377 122.229 632.253L121.431 631.326C121.185 631.017 121.615 630.708 121.799 630.955L122.106 631.388L122.168 629.596Z" fill="white"/>
<path d="M119.773 632.07C119.773 632.503 120.387 632.503 120.387 632.07V630.34L120.694 630.711C120.94 630.958 121.308 630.587 121.062 630.34L120.264 629.413C120.141 629.289 119.957 629.289 119.834 629.413L119.036 630.34C118.791 630.649 119.221 630.958 119.405 630.711L119.712 630.278L119.773 632.07Z" fill="white"/>
<path d="M122.905 635.527H121.861C121.738 635.527 121.615 635.651 121.615 635.775V637.072C121.615 637.196 121.677 637.258 121.799 637.258C121.799 637.258 121.861 637.258 121.922 637.258V638.926C121.922 639.235 122.352 639.235 122.352 638.926V637.258H122.413V638.926C122.413 639.235 122.843 639.235 122.843 638.926V637.258C122.905 637.258 122.966 637.258 122.966 637.258C123.089 637.258 123.15 637.196 123.15 637.072V635.775C123.15 635.651 123.027 635.527 122.905 635.527Z" fill="white"/>
<path d="M122.351 635.404C122.521 635.404 122.658 635.266 122.658 635.095C122.658 634.924 122.521 634.786 122.351 634.786C122.182 634.786 122.044 634.924 122.044 635.095C122.044 635.266 122.182 635.404 122.351 635.404Z" fill="white"/>
<path d="M120.695 635.527H119.651C119.528 635.527 119.405 635.651 119.405 635.775V637.072C119.405 637.196 119.467 637.258 119.589 637.258C119.589 637.258 119.651 637.258 119.712 637.258V638.926C119.712 639.235 120.142 639.235 120.142 638.926V637.258H120.203V638.926C120.203 639.235 120.633 639.235 120.633 638.926V637.258C120.695 637.258 120.756 637.258 120.756 637.258C120.879 637.258 120.94 637.196 120.94 637.072V635.775C120.94 635.651 120.817 635.527 120.695 635.527Z" fill="white"/>
<path d="M120.141 635.404C120.311 635.404 120.448 635.266 120.448 635.095C120.448 634.924 120.311 634.786 120.141 634.786C119.972 634.786 119.834 634.924 119.834 635.095C119.834 635.266 119.972 635.404 120.141 635.404Z" fill="white"/>
<path d="M175.632 474.412H177.17V472.054H178.462C180.135 472.054 181.108 471.056 181.108 469.604C181.108 468.159 180.153 467.139 178.501 467.139H175.632V474.412ZM177.17 470.822V468.396H178.207C179.094 468.396 179.524 468.879 179.524 469.604C179.524 470.325 179.094 470.822 178.214 470.822H177.17ZM183.487 474.515C184.293 474.515 184.815 474.164 185.082 473.656H185.124V474.412H186.559V470.733C186.559 469.433 185.458 468.887 184.244 468.887C182.937 468.887 182.077 469.512 181.868 470.506L183.267 470.619C183.37 470.257 183.693 469.991 184.237 469.991C184.751 469.991 185.046 470.25 185.046 470.698V470.719C185.046 471.07 184.673 471.117 183.725 471.209C182.646 471.308 181.676 471.671 181.676 472.889C181.676 473.968 182.447 474.515 183.487 474.515ZM183.92 473.471C183.455 473.471 183.121 473.254 183.121 472.839C183.121 472.413 183.473 472.203 184.006 472.129C184.336 472.083 184.876 472.004 185.057 471.884V472.463C185.057 473.034 184.585 473.471 183.92 473.471ZM187.733 474.412H189.245V471.326C189.245 470.655 189.735 470.193 190.403 470.193C190.613 470.193 190.9 470.229 191.042 470.275V468.933C190.907 468.901 190.719 468.879 190.566 468.879C189.956 468.879 189.455 469.235 189.256 469.909H189.199V468.958H187.733V474.412ZM191.824 474.412H193.337V472.679L193.746 472.214L195.233 474.412H197.006L194.878 471.319L196.903 468.958H195.166L193.419 471.028H193.337V467.139H191.824V474.412ZM197.645 474.412H199.157V468.958H197.645V474.412ZM198.405 468.254C198.856 468.254 199.225 467.91 199.225 467.487C199.225 467.068 198.856 466.724 198.405 466.724C197.957 466.724 197.588 467.068 197.588 467.487C197.588 467.91 197.957 468.254 198.405 468.254ZM201.882 471.259C201.886 470.556 202.305 470.144 202.915 470.144C203.523 470.144 203.888 470.541 203.885 471.209V474.412H205.398V470.939C205.398 469.668 204.652 468.887 203.516 468.887C202.706 468.887 202.12 469.284 201.875 469.92H201.811V468.958H200.369V474.412H201.882V471.259ZM209.047 476.571C210.606 476.571 211.714 475.861 211.714 474.465V468.958H210.212V469.874H210.155C209.953 469.43 209.509 468.887 208.596 468.887C207.4 468.887 206.388 469.817 206.388 471.674C206.388 473.489 207.371 474.334 208.6 474.334C209.47 474.334 209.956 473.897 210.155 473.446H210.219V474.444C210.219 475.193 209.74 475.485 209.083 475.485C208.415 475.485 208.078 475.193 207.954 474.863L206.555 475.051C206.736 475.911 207.577 476.571 209.047 476.571ZM209.079 473.198C208.337 473.198 207.932 472.608 207.932 471.667C207.932 470.74 208.33 470.09 209.079 470.09C209.814 470.09 210.226 470.712 210.226 471.667C210.226 472.629 209.807 473.198 209.079 473.198ZM175.632 486.412H180.547V485.144H177.17V483.408H180.281V482.14H177.17V480.407H180.533V479.139H175.632V486.412ZM183.009 486.412L183.548 484.754H186.173L186.713 486.412H188.36L185.853 479.139H183.872L181.361 486.412H183.009ZM183.939 483.553L184.834 480.801H184.891L185.786 483.553H183.939ZM193.015 481.231H194.489C194.467 479.935 193.402 479.04 191.783 479.04C190.188 479.04 189.02 479.921 189.027 481.242C189.023 482.314 189.78 482.928 191.009 483.223L191.8 483.422C192.592 483.614 193.033 483.841 193.036 484.331C193.033 484.864 192.528 485.226 191.747 485.226C190.948 485.226 190.373 484.857 190.323 484.129H188.835C188.874 485.702 190 486.515 191.765 486.515C193.54 486.515 194.585 485.666 194.588 484.335C194.585 483.124 193.672 482.481 192.408 482.197L191.754 482.041C191.122 481.895 190.593 481.661 190.604 481.139C190.604 480.67 191.019 480.325 191.772 480.325C192.507 480.325 192.958 480.659 193.015 481.231ZM195.345 480.407H197.572V486.412H199.092V480.407H201.318V479.139H195.345V480.407ZM204.616 486.412H206.154V483.408H209.276V486.412H210.81V479.139H209.276V482.14H206.154V479.139H204.616V486.412ZM213.331 486.412L213.871 484.754H216.495L217.035 486.412H218.683L216.175 479.139H214.194L211.683 486.412H213.331ZM214.261 483.553L215.156 480.801H215.213L216.108 483.553H214.261ZM219.558 486.412H224.213V485.144H221.096V479.139H219.558V486.412ZM225.232 486.412H229.887V485.144H226.769V479.139H225.232V486.412Z" fill="white"/>
<path d="M37.6321 633.487H39.1697V631.129H40.4624C42.1349 631.129 43.108 630.131 43.108 628.679C43.108 627.234 42.1527 626.215 40.5014 626.215H37.6321V633.487ZM39.1697 629.897V627.472H40.2067C41.0945 627.472 41.5241 627.955 41.5241 628.679C41.5241 629.4 41.0945 629.897 40.2138 629.897H39.1697ZM45.4872 633.59C46.2933 633.59 46.8153 633.239 47.0817 632.731H47.1243V633.487H48.5589V629.808C48.5589 628.509 47.4581 627.962 46.2436 627.962C44.9368 627.962 44.0774 628.587 43.8679 629.581L45.267 629.695C45.37 629.332 45.6932 629.066 46.2365 629.066C46.7514 629.066 47.0462 629.325 47.0462 629.773V629.794C47.0462 630.146 46.6733 630.192 45.7251 630.284C44.6456 630.384 43.6761 630.746 43.6761 631.964C43.6761 633.043 44.4467 633.59 45.4872 633.59ZM45.9205 632.546C45.4553 632.546 45.1214 632.33 45.1214 631.914C45.1214 631.488 45.473 631.278 46.0057 631.204C46.3359 631.158 46.8757 631.08 47.0568 630.959V631.538C47.0568 632.109 46.5845 632.546 45.9205 632.546ZM49.7326 633.487H51.2454V630.401C51.2454 629.73 51.7354 629.269 52.4031 629.269C52.6126 629.269 52.9002 629.304 53.0423 629.35V628.008C52.9073 627.976 52.7191 627.955 52.5664 627.955C51.9556 627.955 51.4549 628.31 51.256 628.984H51.1992V628.033H49.7326V633.487ZM53.8244 633.487H55.3372V631.754L55.7456 631.289L57.2335 633.487H59.0055L56.8784 630.394L58.9025 628.033H57.166L55.4189 630.103H55.3372V626.215H53.8244V633.487ZM59.6447 633.487H61.1575V628.033H59.6447V633.487ZM60.4047 627.33C60.8556 627.33 61.225 626.985 61.225 626.563C61.225 626.144 60.8556 625.799 60.4047 625.799C59.9572 625.799 59.5879 626.144 59.5879 626.563C59.5879 626.985 59.9572 627.33 60.4047 627.33ZM63.8821 630.334C63.8857 629.631 64.3047 629.219 64.9155 629.219C65.5227 629.219 65.8885 629.617 65.8849 630.284V633.487H67.3977V630.014C67.3977 628.743 66.652 627.962 65.5156 627.962C64.706 627.962 64.12 628.359 63.875 628.995H63.8111V628.033H62.3693V633.487H63.8821V630.334ZM71.0474 635.646C72.6064 635.646 73.7143 634.936 73.7143 633.541V628.033H72.2122V628.949H72.1554C71.9529 628.505 71.5091 627.962 70.5964 627.962C69.3997 627.962 68.3876 628.892 68.3876 630.749C68.3876 632.564 69.3713 633.409 70.6 633.409C71.47 633.409 71.9565 632.972 72.1554 632.521H72.2193V633.519C72.2193 634.269 71.7399 634.56 71.0829 634.56C70.4153 634.56 70.0779 634.269 69.9537 633.938L68.5545 634.127C68.7356 634.986 69.5772 635.646 71.0474 635.646ZM71.0794 632.273C70.3372 632.273 69.9324 631.683 69.9324 630.742C69.9324 629.815 70.3301 629.166 71.0794 629.166C71.8145 629.166 72.2264 629.787 72.2264 630.742C72.2264 631.705 71.8074 632.273 71.0794 632.273ZM39.2692 645.487H40.7678L42.1491 640.732H42.206L43.5909 645.487H45.0895L47.1705 638.215H45.4908L44.2869 643.278H44.223L42.8984 638.215H41.4602L40.1321 643.268H40.0717L38.8679 638.215H37.1882L39.2692 645.487ZM47.9934 645.487H52.9082V644.22H49.5311V642.483H52.6419V641.215H49.5311V639.482H52.894V638.215H47.9934V645.487ZM58.0618 640.306H59.5355C59.5142 639.01 58.4489 638.115 56.8295 638.115C55.2351 638.115 54.0668 638.996 54.0739 640.317C54.0703 641.389 54.8267 642.004 56.0554 642.298L56.8473 642.497C57.6392 642.689 58.0795 642.916 58.0831 643.406C58.0795 643.939 57.5753 644.301 56.794 644.301C55.995 644.301 55.4197 643.932 55.37 643.204H53.8821C53.9212 644.777 55.0469 645.59 56.8118 645.59C58.5874 645.59 59.6314 644.742 59.6349 643.41C59.6314 642.199 58.7188 641.556 57.4545 641.272L56.8011 641.116C56.169 640.97 55.6399 640.736 55.6506 640.214C55.6506 639.745 56.0661 639.401 56.8189 639.401C57.554 639.401 58.005 639.734 58.0618 640.306ZM60.3922 639.482H62.6188V645.487H64.1387V639.482H66.3652V638.215H60.3922V639.482ZM69.6634 645.487H71.201V642.483H74.3224V645.487H75.8565V638.215H74.3224V641.215H71.201V638.215H69.6634V645.487ZM78.3778 645.487L78.9176 643.829H81.5419L82.0817 645.487H83.7294L81.2223 638.215H79.2408L76.7301 645.487H78.3778ZM79.3082 642.629L80.2031 639.877H80.2599L81.1548 642.629H79.3082ZM84.6048 645.487H89.2603V644.22H86.1424V638.215H84.6048V645.487ZM90.2786 645.487H94.9341V644.22H91.8162V638.215H90.2786V645.487Z" fill="white"/>
<path d="M2.78125 417.412H9.54688V407.037H15.2344C22.5937 407.037 26.875 402.646 26.875 396.256C26.875 389.896 22.6719 385.412 15.4063 385.412H2.78125V417.412ZM9.54688 401.615V390.943H14.1094C18.0156 390.943 19.9063 393.068 19.9063 396.256C19.9063 399.428 18.0156 401.615 14.1406 401.615H9.54688Z" fill="black"/>
<path fill-rule="evenodd" clip-rule="evenodd" d="M229.789 469.844C233.317 469.235 236 466.168 236 462.477C236 458.348 232.642 455 228.5 455C224.358 455 221 458.348 221 462.477C221 466.168 223.683 469.235 227.211 469.844L228.5 475L229.789 469.844Z" fill="black"/>
<path fill-rule="evenodd" clip-rule="evenodd" d="M229.789 467.844C233.317 467.235 236 464.168 236 460.477C236 456.348 232.642 453 228.5 453C224.358 453 221 456.348 221 460.477C221 464.168 223.683 467.235 227.211 467.844L228.5 473L229.789 467.844Z" fill="#FF0000"/>
<ellipse cx="228.5" cy="460.477" rx="2.5" ry="2.49231" fill="white"/>
<path d="M2.576 729.23C2.576 728.068 3.528 727.27 4.802 727.27C6.118 727.27 7.056 728.068 7.056 729.23C7.056 730.406 6.118 731.218 4.802 731.218C3.528 731.218 2.576 730.406 2.576 729.23ZM5.376 732.156C7.042 731.96 8.176 730.812 8.176 729.23C8.176 727.48 6.776 726.29 4.802 726.29C2.87 726.29 1.456 727.48 1.456 729.23C1.456 730.812 2.604 731.946 4.228 732.156V734.326C2.996 734.368 1.834 734.368 0.826 734.368L0.966 735.334C3.234 735.334 6.272 735.306 9.1 734.788L9.002 733.934C7.84 734.116 6.594 734.214 5.376 734.284V732.156ZM9.828 725.464V738.064H10.976V725.464H9.828ZM22.4129 730.476H16.1829V728.628H22.4129V730.476ZM23.5609 725.982H22.4129V727.704H16.1829V725.982H15.0489V731.414H23.5609V725.982ZM25.0029 732.926H13.6069V733.85H18.7029V738.05H19.8509V733.85H25.0029V732.926ZM33.2058 728.74V729.678H35.6838V732.968H36.8458V725.492H35.6838V728.74H33.2058ZM33.9058 731.596C32.0858 730.952 30.8538 729.37 30.8538 727.76V727.326H33.6118V726.402H26.9058V727.326H29.7058V727.76C29.7058 729.566 28.4178 731.26 26.5418 731.946L27.1438 732.856C28.6138 732.296 29.7758 731.12 30.3078 729.664C30.8538 730.952 31.9318 731.988 33.3318 732.492L33.9058 731.596ZM32.7018 737.14C30.8118 737.14 29.6638 736.608 29.6638 735.698C29.6638 734.788 30.8118 734.242 32.7018 734.242C34.5918 734.242 35.7398 734.788 35.7398 735.698C35.7398 736.608 34.5918 737.14 32.7018 737.14ZM32.7018 733.36C30.1258 733.36 28.5158 734.214 28.5158 735.698C28.5158 737.182 30.1258 738.036 32.7018 738.036C35.2778 738.036 36.8878 737.182 36.8878 735.698C36.8878 734.214 35.2778 733.36 32.7018 733.36ZM45.9587 732.898V733.752H48.5067V735.04H49.6547V725.478H48.5067V732.898H45.9587ZM43.3967 726.836C44.5867 726.836 45.3987 727.368 45.3987 728.166C45.3987 728.978 44.5867 729.51 43.3967 729.51C42.2067 729.51 41.3947 728.978 41.3947 728.166C41.3947 727.368 42.2067 726.836 43.3967 726.836ZM43.3967 730.364C45.2307 730.364 46.4907 729.51 46.4907 728.166C46.4907 726.85 45.2307 725.982 43.3967 725.982C41.5627 725.982 40.3027 726.85 40.3027 728.166C40.3027 729.51 41.5627 730.364 43.3967 730.364ZM42.9487 734.592H44.0967V732.114C45.2307 732.044 46.3927 731.918 47.4987 731.75L47.4007 730.924C44.7407 731.26 41.6327 731.288 39.3087 731.288L39.4627 732.24C40.4987 732.24 41.7027 732.226 42.9487 732.17V734.592ZM42.2487 736.818V734.102H41.1007V737.756H49.9767V736.818H42.2487ZM57.9276 726.556C59.9856 726.556 61.1616 727.032 61.1616 727.872C61.1616 728.712 59.9856 729.188 57.9276 729.188C55.8696 729.188 54.6936 728.712 54.6936 727.872C54.6936 727.032 55.8696 726.556 57.9276 726.556ZM57.9276 730.042C60.6856 730.042 62.3376 729.286 62.3376 727.872C62.3376 726.458 60.6856 725.688 57.9276 725.688C55.1696 725.688 53.5176 726.458 53.5176 727.872C53.5176 729.286 55.1696 730.042 57.9276 730.042ZM54.7776 735.726H62.1556V732.898H53.6156V733.766H61.0216V734.886H53.6576V737.896H62.5336V737H54.7776V735.726ZM52.2436 730.896V731.82H63.6116V730.896H52.2436ZM74.2792 737.154C72.2632 737.154 71.1292 736.762 71.1292 736.006C71.1292 735.264 72.2632 734.858 74.2792 734.858C76.3092 734.858 77.4292 735.264 77.4292 736.006C77.4292 736.762 76.3092 737.154 74.2792 737.154ZM74.2792 734.004C71.5492 734.004 69.9812 734.704 69.9812 736.006C69.9812 737.322 71.5492 738.022 74.2792 738.022C77.0092 738.022 78.5772 737.322 78.5772 736.006C78.5772 734.704 77.0092 734.004 74.2792 734.004ZM74.8532 732.128V730.896H78.6332V730H71.2412V728.768H78.2272V727.9H71.2412V726.738H78.5632V725.842H70.0932V730.896H73.7052V732.128H68.5952V733.052H79.9632V732.128H74.8532ZM84.5961 734.172C83.6161 734.172 82.9301 733.374 82.9301 732.254C82.9301 731.162 83.6161 730.364 84.5961 730.364C85.5621 730.364 86.2621 731.162 86.2621 732.254C86.2621 733.374 85.5621 734.172 84.5961 734.172ZM84.5961 729.398C83.0421 729.398 81.9081 730.574 81.9081 732.254C81.9081 733.962 83.0421 735.124 84.5961 735.124C86.1501 735.124 87.2841 733.962 87.2841 732.254C87.2841 730.574 86.1501 729.398 84.5961 729.398ZM85.1561 725.842H84.0221V727.62H81.4741V728.558H87.7041V727.62H85.1561V725.842ZM91.0221 725.464V730.77H89.4121V725.758H88.3341V737.42H89.4121V731.708H91.0221V738.022H92.1281V725.464H91.0221ZM103.879 732.399H99.5654V735.927H104.576V737H98.2529V727.047H104.508V728.127H99.5654V731.326H103.879V732.399ZM111.706 734.402H107.536L106.6 737H105.246L109.047 727.047H110.195L114.003 737H112.656L111.706 734.402ZM107.933 733.322H111.316L109.621 728.667L107.933 733.322ZM118.275 732.563C117.15 732.24 116.329 731.843 115.814 731.374C115.304 730.9 115.049 730.317 115.049 729.624C115.049 728.84 115.361 728.193 115.985 727.683C116.614 727.168 117.43 726.91 118.433 726.91C119.116 726.91 119.725 727.042 120.258 727.307C120.796 727.571 121.21 727.936 121.502 728.4C121.798 728.865 121.946 729.373 121.946 729.925H120.627C120.627 729.323 120.436 728.852 120.053 728.51C119.67 728.163 119.13 727.99 118.433 727.99C117.785 727.99 117.28 728.134 116.915 728.421C116.555 728.703 116.375 729.098 116.375 729.604C116.375 730.009 116.546 730.353 116.888 730.636C117.234 730.914 117.82 731.169 118.645 731.401C119.474 731.634 120.121 731.891 120.586 732.174C121.055 732.452 121.402 732.778 121.625 733.151C121.853 733.525 121.967 733.965 121.967 734.471C121.967 735.277 121.652 735.924 121.023 736.412C120.395 736.895 119.554 737.137 118.501 737.137C117.817 737.137 117.179 737.007 116.587 736.747C115.994 736.483 115.536 736.123 115.213 735.667C114.894 735.211 114.734 734.694 114.734 734.115H116.054C116.054 734.717 116.275 735.193 116.717 735.544C117.163 735.89 117.758 736.063 118.501 736.063C119.194 736.063 119.725 735.922 120.094 735.64C120.463 735.357 120.647 734.972 120.647 734.484C120.647 733.997 120.477 733.621 120.135 733.356C119.793 733.088 119.173 732.823 118.275 732.563ZM130.532 728.127H127.333V737H126.027V728.127H122.835V727.047H130.532V728.127ZM141.812 728.127H138.612V737H137.307V728.127H134.114V727.047H141.812V728.127ZM150.753 732.345C150.753 733.32 150.589 734.172 150.261 734.901C149.933 735.626 149.468 736.18 148.866 736.562C148.265 736.945 147.563 737.137 146.761 737.137C145.977 737.137 145.282 736.945 144.676 736.562C144.07 736.175 143.598 735.626 143.261 734.915C142.928 734.2 142.757 733.372 142.748 732.434V731.716C142.748 730.759 142.914 729.913 143.247 729.18C143.58 728.446 144.049 727.885 144.655 727.498C145.266 727.106 145.963 726.91 146.747 726.91C147.545 726.91 148.246 727.104 148.853 727.491C149.463 727.874 149.933 728.432 150.261 729.166C150.589 729.895 150.753 730.745 150.753 731.716V732.345ZM149.447 731.702C149.447 730.522 149.21 729.617 148.736 728.988C148.262 728.355 147.599 728.038 146.747 728.038C145.918 728.038 145.264 728.355 144.785 728.988C144.311 729.617 144.067 730.492 144.054 731.613V732.345C144.054 733.489 144.293 734.389 144.771 735.045C145.255 735.697 145.918 736.022 146.761 736.022C147.608 736.022 148.265 735.715 148.729 735.1C149.194 734.48 149.434 733.593 149.447 732.44V731.702ZM154.868 733.862L155.06 735.175L155.34 733.992L157.309 727.047H158.416L160.337 733.992L160.61 735.195L160.822 733.855L162.367 727.047H163.687L161.273 737H160.077L158.026 729.747L157.869 728.988L157.712 729.747L155.586 737H154.39L151.983 727.047H153.296L154.868 733.862ZM170.775 732.399H166.462V735.927H171.473V737H165.149V727.047H171.404V728.127H166.462V731.326H170.775V732.399ZM176.757 732.974H174.419V737H173.1V727.047H176.395C177.516 727.047 178.377 727.302 178.979 727.812C179.585 728.323 179.888 729.066 179.888 730.041C179.888 730.661 179.719 731.201 179.382 731.661C179.049 732.121 178.584 732.465 177.987 732.693L180.325 736.918V737H178.917L176.757 732.974ZM174.419 731.9H176.436C177.087 731.9 177.604 731.732 177.987 731.395C178.375 731.057 178.568 730.606 178.568 730.041C178.568 729.426 178.384 728.954 178.015 728.626C177.65 728.298 177.121 728.132 176.429 728.127H174.419V731.9ZM187.578 735.544V733.178H191.596V732.254H183.868V730.224H191.302V726.402H182.706V727.34H190.182V729.3H182.734V733.178H186.416V735.544H181.306V736.482H192.716V735.544H187.578ZM206.8 725.478V738.064H207.948V725.478H206.8ZM201.326 726.444C199.464 726.444 198.134 728.152 198.134 730.826C198.134 733.5 199.464 735.208 201.326 735.208C203.188 735.208 204.518 733.5 204.518 730.826C204.518 728.152 203.188 726.444 201.326 726.444ZM201.326 727.48C202.544 727.48 203.412 728.796 203.412 730.826C203.412 732.87 202.544 734.186 201.326 734.186C200.094 734.186 199.226 732.87 199.226 730.826C199.226 728.796 200.094 727.48 201.326 727.48ZM216.235 737.14C214.247 737.14 213.085 736.65 213.085 735.768C213.085 734.886 214.247 734.396 216.235 734.396C218.195 734.396 219.357 734.886 219.357 735.768C219.357 736.65 218.195 737.14 216.235 737.14ZM216.235 733.5C213.547 733.5 211.923 734.312 211.923 735.768C211.923 737.224 213.547 738.036 216.235 738.036C218.895 738.036 220.519 737.224 220.519 735.768C220.519 734.312 218.895 733.5 216.235 733.5ZM216.809 731.68V730.224H220.589V729.3H213.127V726.976H220.505V726.052H211.979V730.224H215.661V731.68H210.551V732.604H221.919V731.68H216.809ZM237.584 726.92H233.16V725.408H231.998V726.92H227.49V727.844H237.584V726.92ZM235.456 730.658C235.456 731.428 234.42 731.876 232.586 731.876C230.752 731.876 229.688 731.428 229.688 730.658C229.688 729.888 230.752 729.44 232.586 729.44C234.42 729.44 235.456 729.888 235.456 730.658ZM228.498 730.658C228.498 732.002 230.024 732.744 232.586 732.744C235.12 732.744 236.646 732.002 236.646 730.658C236.646 729.314 235.12 728.558 232.586 728.558C230.024 728.558 228.498 729.314 228.498 730.658ZM238.284 733.626H226.902V734.564H231.998V738.05H233.16V734.564H238.284V733.626ZM239.955 738.982L239.237 738.49C239.666 737.893 239.889 737.278 239.907 736.645V735.503H241.145V736.494C241.145 736.954 241.031 737.415 240.803 737.875C240.579 738.335 240.297 738.704 239.955 738.982ZM246.169 732.96C246.169 731.93 246.306 730.941 246.579 729.993C246.857 729.045 247.27 728.184 247.816 727.409C248.363 726.634 248.931 726.088 249.519 725.769L249.778 726.603C249.113 727.113 248.566 727.892 248.138 728.94C247.714 729.989 247.481 731.162 247.44 732.461L247.434 733.042C247.434 734.801 247.755 736.328 248.397 737.622C248.785 738.397 249.245 739.003 249.778 739.44L249.519 740.213C248.912 739.876 248.334 739.311 247.782 738.518C246.707 736.968 246.169 735.116 246.169 732.96ZM259.943 725.492V732.674H261.091V725.492H259.943ZM252.971 733.346V737.868H261.091V733.346H252.971ZM259.971 734.256V736.944H254.091V734.256H259.971ZM254.343 726.15C252.453 726.15 251.081 727.34 251.081 729.076C251.081 730.812 252.453 732.002 254.343 732.002C256.247 732.002 257.633 730.812 257.633 729.076C257.633 727.34 256.247 726.15 254.343 726.15ZM254.343 727.102C255.603 727.102 256.513 727.928 256.513 729.076C256.513 730.238 255.603 731.05 254.343 731.05C253.097 731.05 252.201 730.238 252.201 729.076C252.201 727.928 253.097 727.102 254.343 727.102ZM270.89 732.03H267.768V727.662H270.89V732.03ZM266.62 732.03H264.702V732.968H273.956V732.03H272.038V727.662H273.984V726.738H264.674V727.662H266.62V732.03ZM263.666 735.474V736.426H275.048V735.474H263.666ZM278.071 731.218H281.431V726.864H276.923V727.802H280.325V730.308H276.965V734.956H277.791C279.387 734.956 280.815 734.886 282.565 734.592L282.467 733.654C280.857 733.934 279.499 733.99 278.071 733.99V731.218ZM283.573 729.986H282.019V730.938H283.573V737.378H284.651V725.786H283.573V729.986ZM286.107 725.478V738.036H287.213V725.478H286.107ZM298.608 734.858H299.77V725.478H298.608V727.34H296.074V728.264H298.608V729.916H296.074V730.854H298.608V734.858ZM296.746 732.072C294.94 731.358 293.722 729.636 293.722 727.788V726.178H292.574V727.788C292.574 729.762 291.314 731.554 289.438 732.282L290.054 733.192C291.524 732.59 292.63 731.386 293.148 729.874C293.694 731.274 294.758 732.408 296.116 732.982L296.746 732.072ZM292.84 736.818V733.906H291.692V737.756H300.064V736.818H292.84ZM2.1 745.146C2.1 743.984 2.996 743.158 4.242 743.158C5.502 743.158 6.412 743.984 6.412 745.146C6.412 746.322 5.502 747.134 4.242 747.134C2.996 747.134 2.1 746.322 2.1 745.146ZM7.532 745.146C7.532 743.41 6.16 742.206 4.242 742.206C2.352 742.206 0.98 743.41 0.98 745.146C0.98 746.896 2.352 748.086 4.242 748.086C6.16 748.086 7.532 746.896 7.532 745.146ZM5.348 750.186H7.952V752.916H5.348V750.186ZM9.086 750.186H10.822V749.276H2.492V750.186H4.214V752.916H2.38V753.84H10.976V752.916H9.086V750.186ZM10.486 744.544V741.492H9.338V748.59H10.486V745.496H12.348V744.544H10.486ZM16.7549 749.028C16.7549 750.045 16.6204 751.02 16.3516 751.954C16.0872 752.884 15.6794 753.743 15.1279 754.531C14.5811 755.32 14.0068 755.88 13.4053 756.213L13.1387 755.44C13.8405 754.903 14.4033 754.069 14.8271 752.938C15.2555 751.804 15.4743 750.546 15.4834 749.165V748.946C15.4834 747.989 15.3831 747.101 15.1826 746.28C14.9821 745.455 14.7018 744.717 14.3418 744.065C13.9863 743.414 13.5853 742.906 13.1387 742.541L13.4053 741.769C14.0068 742.101 14.5788 742.657 15.1211 743.437C15.668 744.216 16.0758 745.075 16.3447 746.014C16.6182 746.952 16.7549 747.957 16.7549 749.028ZM24.5273 748.399H20.2139V751.927H25.2246V753H18.9014V743.047H25.1562V744.127H20.2139V747.326H24.5273V748.399ZM32.3545 750.402H28.1846L27.248 753H25.8945L29.6953 743.047H30.8438L34.6514 753H33.3047L32.3545 750.402ZM28.5811 749.322H31.9648L30.2695 744.667L28.5811 749.322ZM38.9238 748.563C37.7982 748.24 36.9779 747.843 36.4629 747.374C35.9525 746.9 35.6973 746.317 35.6973 745.624C35.6973 744.84 36.0094 744.193 36.6338 743.683C37.2627 743.168 38.0785 742.91 39.0811 742.91C39.7646 742.91 40.373 743.042 40.9062 743.307C41.444 743.571 41.8587 743.936 42.1504 744.4C42.4466 744.865 42.5947 745.373 42.5947 745.925H41.2754C41.2754 745.323 41.084 744.852 40.7012 744.51C40.3184 744.163 39.7783 743.99 39.0811 743.99C38.4339 743.99 37.9281 744.134 37.5635 744.421C37.2035 744.703 37.0234 745.098 37.0234 745.604C37.0234 746.009 37.1943 746.353 37.5361 746.636C37.8825 746.914 38.4681 747.169 39.293 747.401C40.1224 747.634 40.7695 747.891 41.2344 748.174C41.7038 748.452 42.0501 748.778 42.2734 749.151C42.5013 749.525 42.6152 749.965 42.6152 750.471C42.6152 751.277 42.3008 751.924 41.6719 752.412C41.043 752.895 40.2021 753.137 39.1494 753.137C38.4658 753.137 37.8278 753.007 37.2354 752.747C36.6429 752.483 36.1849 752.123 35.8613 751.667C35.5423 751.211 35.3828 750.694 35.3828 750.115H36.7021C36.7021 750.717 36.9232 751.193 37.3652 751.544C37.8118 751.89 38.4066 752.063 39.1494 752.063C39.8421 752.063 40.373 751.922 40.7422 751.64C41.1113 751.357 41.2959 750.972 41.2959 750.484C41.2959 749.997 41.125 749.621 40.7832 749.356C40.4414 749.088 39.8216 748.823 38.9238 748.563ZM51.1807 744.127H47.9814V753H46.6758V744.127H43.4834V743.047H51.1807V744.127ZM66.0412 741.492H64.9352V748.016H66.0412V741.492ZM56.5912 744.81C56.5912 743.746 57.3612 742.976 58.4252 742.976C59.4752 742.976 60.2452 743.746 60.2452 744.81C60.2452 745.916 59.4752 746.686 58.4252 746.686C57.3612 746.686 56.5912 745.916 56.5912 744.81ZM62.5692 745.272V747.932H63.6472V741.744H62.5692V744.348H61.2392C61.0432 742.976 59.9232 742.066 58.4252 742.066C56.7592 742.066 55.5692 743.186 55.5692 744.81C55.5692 746.462 56.7592 747.596 58.4252 747.596C59.9232 747.596 61.0572 746.672 61.2532 745.272H62.5692ZM58.9152 752.944V751.6H66.0412V748.604H57.7532V749.514H64.8932V750.732H57.7812V753.868H66.5172V752.944H58.9152ZM70.1981 747.12H74.8321V742.64H69.0081V743.578H73.6701V746.196H69.0501V751.012H70.0861C72.2421 751.012 74.1461 750.928 76.4141 750.55L76.3021 749.612C74.1041 749.962 72.2561 750.06 70.1981 750.06V747.12ZM77.4781 741.464V754.05H78.6261V741.464H77.4781ZM85.387 749.948H82.741V746.7H85.387V749.948ZM88.285 746.252H86.465V742.724H85.387V745.776H82.741V742.724H81.649V750.886H86.465V747.19H88.285V753.42H89.377V741.758H88.285V746.252ZM90.777 741.478V754.036H91.869V741.478H90.777ZM103.208 741.478V754.064H104.356V741.478H103.208ZM97.7339 742.444C95.8719 742.444 94.5419 744.152 94.5419 746.826C94.5419 749.5 95.8719 751.208 97.7339 751.208C99.5959 751.208 100.926 749.5 100.926 746.826C100.926 744.152 99.5959 742.444 97.7339 742.444ZM97.7339 743.48C98.9519 743.48 99.8199 744.796 99.8199 746.826C99.8199 748.87 98.9519 750.186 97.7339 750.186C96.5019 750.186 95.6339 748.87 95.6339 746.826C95.6339 744.796 96.5019 743.48 97.7339 743.48ZM108.681 747.078H112.797V746.154H108.681V743.564H113.343V742.612H107.533V751.026H108.499C110.893 751.026 112.419 750.956 114.239 750.634L114.113 749.696C112.405 750.004 110.949 750.088 108.681 750.088V747.078ZM116.157 741.464V746.21H113.567V747.162H116.157V754.05H117.305V741.464H116.157ZM128.63 743.676H121.294V746.364H129.988V745.538H122.428V744.46H129.764V741.842H121.266V742.654H128.63V743.676ZM122.358 751.88H129.806V749.206H121.196V750.032H128.672V751.082H121.224V753.868H130.198V753.042H122.358V751.88ZM119.838 747.316V748.184H131.22V747.316H119.838ZM145.317 741.478V754.064H146.465V741.478H145.317ZM139.843 742.444C137.981 742.444 136.651 744.152 136.651 746.826C136.651 749.5 137.981 751.208 139.843 751.208C141.705 751.208 143.035 749.5 143.035 746.826C143.035 744.152 141.705 742.444 139.843 742.444ZM139.843 743.48C141.061 743.48 141.929 744.796 141.929 746.826C141.929 748.87 141.061 750.186 139.843 750.186C138.611 750.186 137.743 748.87 137.743 746.826C137.743 744.796 138.611 743.48 139.843 743.48ZM154.738 753.14C152.764 753.14 151.602 752.65 151.602 751.796C151.602 750.942 152.764 750.452 154.738 750.452C156.698 750.452 157.874 750.942 157.874 751.796C157.874 752.65 156.698 753.14 154.738 753.14ZM154.738 749.556C152.05 749.556 150.44 750.354 150.44 751.796C150.44 753.238 152.05 754.022 154.738 754.022C157.44 754.022 159.036 753.238 159.036 751.796C159.036 750.354 157.44 749.556 154.738 749.556ZM153.002 746.224C153.52 746.308 154.108 746.364 154.738 746.364C155.382 746.364 155.97 746.308 156.488 746.224V747.694H153.002V746.224ZM151.504 744.04C151.504 743.13 152.736 742.598 154.738 742.598C156.74 742.598 157.972 743.13 157.972 744.04C157.972 744.936 156.74 745.482 154.738 745.482C152.736 745.482 151.504 744.936 151.504 744.04ZM157.622 747.694V745.916C158.588 745.524 159.148 744.88 159.148 744.04C159.148 742.57 157.468 741.702 154.738 741.702C152.022 741.702 150.328 742.57 150.328 744.04C150.328 744.894 150.874 745.524 151.868 745.93V747.694H149.054V748.618H160.422V747.694H157.622ZM165.629 750.284C164.495 750.284 163.669 749.472 163.669 748.352C163.669 747.218 164.495 746.406 165.629 746.406C166.777 746.406 167.603 747.218 167.603 748.352C167.603 749.472 166.777 750.284 165.629 750.284ZM165.629 745.454C163.865 745.454 162.591 746.658 162.591 748.352C162.591 750.06 163.865 751.236 165.629 751.236C167.421 751.236 168.695 750.06 168.695 748.352C168.695 746.658 167.421 745.454 165.629 745.454ZM166.189 741.632H165.041V743.494H161.877V744.418H169.283V743.494H166.189V741.632ZM173.679 746.644H171.621V741.492H170.473V754.036H171.621V747.61H173.679V746.644ZM181.168 748.254C181.252 747.82 181.308 747.344 181.308 746.826C181.308 746.252 181.238 745.72 181.126 745.23H184.024V748.254H181.168ZM178.186 750.186C176.982 750.186 176.142 748.87 176.142 746.826C176.142 744.796 176.982 743.48 178.186 743.48C179.376 743.48 180.23 744.796 180.23 746.826C180.23 748.87 179.376 750.186 178.186 750.186ZM184.024 741.478V744.292H180.804C180.272 743.116 179.348 742.444 178.186 742.444C176.352 742.444 175.05 744.152 175.05 746.826C175.05 749.5 176.352 751.208 178.186 751.208C179.39 751.208 180.37 750.466 180.888 749.192H184.024V754.064H185.172V741.478H184.024ZM200.306 741.478V754.064H201.454V741.478H200.306ZM194.832 742.444C192.97 742.444 191.64 744.152 191.64 746.826C191.64 749.5 192.97 751.208 194.832 751.208C196.694 751.208 198.024 749.5 198.024 746.826C198.024 744.152 196.694 742.444 194.832 742.444ZM194.832 743.48C196.05 743.48 196.918 744.796 196.918 746.826C196.918 748.87 196.05 750.186 194.832 750.186C193.6 750.186 192.732 748.87 192.732 746.826C192.732 744.796 193.6 743.48 194.832 743.48ZM209.74 753.14C207.752 753.14 206.59 752.65 206.59 751.768C206.59 750.886 207.752 750.396 209.74 750.396C211.7 750.396 212.862 750.886 212.862 751.768C212.862 752.65 211.7 753.14 209.74 753.14ZM209.74 749.5C207.052 749.5 205.428 750.312 205.428 751.768C205.428 753.224 207.052 754.036 209.74 754.036C212.4 754.036 214.024 753.224 214.024 751.768C214.024 750.312 212.4 749.5 209.74 749.5ZM210.314 747.68V746.224H214.094V745.3H206.632V742.976H214.01V742.052H205.484V746.224H209.166V747.68H204.056V748.604H215.424V747.68H210.314ZM220.617 750.284C219.483 750.284 218.657 749.472 218.657 748.352C218.657 747.218 219.483 746.406 220.617 746.406C221.765 746.406 222.591 747.218 222.591 748.352C222.591 749.472 221.765 750.284 220.617 750.284ZM220.617 745.454C218.853 745.454 217.579 746.658 217.579 748.352C217.579 750.06 218.853 751.236 220.617 751.236C222.409 751.236 223.683 750.06 223.683 748.352C223.683 746.658 222.409 745.454 220.617 745.454ZM221.177 741.632H220.029V743.494H216.865V744.418H224.271V743.494H221.177V741.632ZM228.667 746.644H226.609V741.492H225.461V754.036H226.609V747.61H228.667V746.644ZM233.538 742.668H232.432V745.062C232.432 747.218 231.396 749.472 229.674 750.48L230.388 751.334C231.634 750.564 232.544 749.15 232.992 747.484C233.44 749.01 234.28 750.34 235.47 751.068L236.128 750.172C234.476 749.164 233.538 747.036 233.538 745.02V742.668ZM236.842 745.986H234.77V746.938H236.842V753.42H237.92V741.758H236.842V745.986ZM239.39 741.478V754.036H240.482V741.478H239.39ZM246.627 748.52C247.145 748.646 247.747 748.716 248.363 748.716C248.993 748.716 249.595 748.646 250.127 748.52V751.474H246.627V748.52ZM248.363 743.172C250.379 743.172 251.835 744.096 251.835 745.496C251.835 746.896 250.379 747.82 248.363 747.82C246.347 747.82 244.905 746.896 244.905 745.496C244.905 744.096 246.347 743.172 248.363 743.172ZM251.275 751.474V748.072C252.311 747.526 252.927 746.63 252.927 745.496C252.927 743.536 251.037 742.276 248.363 742.276C245.703 742.276 243.799 743.536 243.799 745.496C243.799 746.63 244.429 747.54 245.479 748.086V751.474H242.679V752.426H254.089V751.474H251.275ZM255.814 752.337C255.814 752.118 255.878 751.936 256.006 751.79C256.138 751.644 256.334 751.571 256.594 751.571C256.854 751.571 257.049 751.644 257.182 751.79C257.318 751.936 257.387 752.118 257.387 752.337C257.387 752.547 257.318 752.722 257.182 752.863C257.049 753.005 256.854 753.075 256.594 753.075C256.334 753.075 256.138 753.005 256.006 752.863C255.878 752.722 255.814 752.547 255.814 752.337Z" fill="black"/>
<rect x="11" y="312" width="5" height="53.1429" fill="url(#paint0_linear)"/>
<path d="M13.5 372L6.13879 359.25L20.8612 359.25L13.5 372Z" fill="#FF0000"/>
<defs>
<linearGradient id="paint0_linear" x1="13.5" y1="312" x2="13.5" y2="365.143" gradientUnits="userSpaceOnUse">
<stop stop-color="#FF0000" stop-opacity="0"/>
<stop offset="0.546875" stop-color="#FF0000"/>
</linearGradient>
<clipPath id="clip0">
<rect width="315" height="330" fill="white"/>
</clipPath>
</defs>
</svg>
