<svg width="315" height="756" viewBox="0 0 315 756" fill="none" xmlns="http://www.w3.org/2000/svg">
<g clip-path="url(#clip0)">
<path d="M175 329.412L295 329.412C306.046 329.412 315 320.457 315 309.412L315 159.412L175 159.412L175 329.412Z" fill="#EDEAE6"/>
<path d="M222.429 233.347L204.784 242.227C203.239 243.01 202.263 244.664 202.263 246.406V278.008C202.263 280.62 204.215 282.622 206.573 282.622H227.796C230.235 282.622 232.105 280.533 232.105 278.008V270.434C232.105 270.26 232.105 270.086 232.105 269.912L228.446 237.003C228.202 233.869 225.112 231.954 222.429 233.347Z" fill="#84A359"/>
<path d="M243.079 305.281L236.006 315.843C234.663 317.851 235.737 320.557 238.155 321.081L257.046 325.62C258.478 325.97 259.911 325.446 260.806 324.311L264.566 319.335C265.372 318.288 265.462 316.978 264.924 315.843L260.269 305.717C259.732 304.495 258.389 303.622 257.046 303.622H246.033C244.869 303.709 243.706 304.32 243.079 305.281Z" fill="#84A359"/>
<path d="M218.842 324.508C218.842 323.222 218.134 322.022 216.896 321.507L201.588 313.962C199.376 312.848 196.81 314.22 196.544 316.62L195.66 324.165C195.394 326.137 197.075 327.938 199.11 327.938H215.214C217.25 327.938 218.842 326.395 218.842 324.508Z" fill="#84A359"/>
<path d="M251.752 220.704L274.025 185.546C274.967 184.036 276.595 183.148 278.308 183.148H302.123C304.95 183.148 307.263 185.546 307.263 188.475V231.979C307.263 234.909 304.95 237.306 302.123 237.306H261.775C260.147 237.306 258.52 236.507 257.578 235.087L251.838 226.652C250.639 224.965 250.553 222.568 251.752 220.704Z" fill="#84A359"/>
<path d="M267.882 242.833H302.954C305.367 242.833 307.263 244.716 307.263 247.113V291.207C307.263 292.406 306.746 293.604 305.798 294.461L296.405 302.594C295.63 303.279 294.596 303.622 293.561 303.622H283.221C280.808 303.622 278.912 301.738 278.912 299.341V289.495C278.912 287.097 277.016 285.214 274.603 285.214H269.261C267.71 285.214 266.331 284.358 265.555 283.073L257.024 268.433C256.679 267.748 256.421 267.063 256.421 266.292V259.014C256.421 258.244 256.593 257.473 257.024 256.788L264.176 244.716C264.952 243.603 266.417 242.833 267.882 242.833Z" fill="#84A359"/>
<path d="M283.442 309.148H295.73C297.255 309.148 298.421 310.386 298.421 311.801V317.548C298.421 319.052 297.165 320.201 295.73 320.201H286.133C285.057 320.201 284.16 319.582 283.711 318.698L281.02 312.951C280.124 311.182 281.469 309.148 283.442 309.148Z" fill="#84A359"/>
<path d="M154.737 208.775V198.035C154.737 194.008 158.411 191.144 162.17 192.218L184.898 199.288C188.145 200.273 189.854 204.032 188.572 207.343L181.822 224.705C180.968 226.943 178.832 228.464 176.525 228.464H160.462C157.3 228.464 154.737 225.779 154.737 222.468V208.775Z" fill="#84A359"/>
<path d="M185.971 210.78H187.228C188.652 210.78 189.909 211.654 190.496 212.964L197.617 229.034C199.377 232.964 199.377 237.418 197.701 241.436L189.239 261.611C187.731 265.279 182.369 264.143 182.369 260.126V214.448C182.369 212.44 183.961 210.78 185.971 210.78Z" fill="#84A359"/>
<path d="M144.79 103.35V149.043C144.79 150.672 145.578 152.215 146.893 153.244L152.328 157.359C166.177 167.904 182.13 175.448 199.223 179.563L208.777 181.877C212.196 182.735 215.526 180.163 215.526 176.734V132.841C215.526 130.783 214.387 128.983 212.546 128.04L152.766 98.7208C148.997 96.7491 144.79 99.3209 144.79 103.35Z" fill="#84A359"/>
<path d="M209.448 329.043C211.584 329.043 213.316 327.064 213.316 324.622C213.316 322.181 211.584 320.201 209.448 320.201C207.311 320.201 205.579 322.181 205.579 324.622C205.579 327.064 207.311 329.043 209.448 329.043Z" fill="#507146"/>
<path d="M257.526 320.201C260.578 320.201 263.053 317.974 263.053 315.227C263.053 312.48 260.578 310.253 257.526 310.253C254.474 310.253 252 312.48 252 315.227C252 317.974 254.474 320.201 257.526 320.201Z" fill="#507146"/>
<path d="M145.895 151.096C148.336 151.096 150.316 149.117 150.316 146.675C150.316 144.233 148.336 142.254 145.895 142.254C143.453 142.254 141.474 144.233 141.474 146.675C141.474 149.117 143.453 151.096 145.895 151.096Z" fill="#B5B758"/>
<path d="M152.526 142.254C155.578 142.254 158.053 139.78 158.053 136.727C158.053 133.675 155.578 131.201 152.526 131.201C149.474 131.201 147 133.675 147 136.727C147 139.78 149.474 142.254 152.526 142.254Z" fill="#B5B758"/>
<path d="M204.474 183.148C206.915 183.148 208.895 181.169 208.895 178.727C208.895 176.286 206.915 174.306 204.474 174.306C202.032 174.306 200.053 176.286 200.053 178.727C200.053 181.169 202.032 183.148 204.474 183.148Z" fill="#B5B758"/>
<path d="M216.631 243.938C219.073 243.938 221.053 241.711 221.053 238.964C221.053 236.218 219.073 233.991 216.631 233.991C214.19 233.991 212.21 236.218 212.21 238.964C212.21 241.711 214.19 243.938 216.631 243.938Z" fill="#B5B758"/>
<path d="M219.947 259.412C222.389 259.412 224.368 257.432 224.368 254.99C224.368 252.549 222.389 250.569 219.947 250.569C217.506 250.569 215.526 252.549 215.526 254.99C215.526 257.432 217.506 259.412 219.947 259.412Z" fill="#B5B758"/>
<path d="M203.921 281.517C206.058 281.517 207.79 279.538 207.79 277.096C207.79 274.654 206.058 272.675 203.921 272.675C201.785 272.675 200.053 274.654 200.053 277.096C200.053 279.538 201.785 281.517 203.921 281.517Z" fill="#B5B758"/>
<path d="M270.237 240.622C272.374 240.622 274.105 238.148 274.105 235.096C274.105 232.044 272.374 229.569 270.237 229.569C268.101 229.569 266.369 232.044 266.369 235.096C266.369 238.148 268.101 240.622 270.237 240.622Z" fill="#B5B758"/>
<path d="M281.842 204.148C284.284 204.148 286.263 201.674 286.263 198.622C286.263 195.57 284.284 193.096 281.842 193.096C279.401 193.096 277.421 195.57 277.421 198.622C277.421 201.674 279.401 204.148 281.842 204.148Z" fill="#B5B758"/>
<path d="M265.263 206.359C267.705 206.359 269.684 204.38 269.684 201.938C269.684 199.496 267.705 197.517 265.263 197.517C262.822 197.517 260.842 199.496 260.842 201.938C260.842 204.38 262.822 206.359 265.263 206.359Z" fill="#B5B758"/>
<path d="M294.553 252.78C297.3 252.78 299.526 250.801 299.526 248.359C299.526 245.917 297.3 243.938 294.553 243.938C291.806 243.938 289.579 245.917 289.579 248.359C289.579 250.801 291.806 252.78 294.553 252.78Z" fill="#B5B758"/>
<path d="M281.842 258.306C284.284 258.306 286.263 256.327 286.263 253.885C286.263 251.444 284.284 249.464 281.842 249.464C279.401 249.464 277.421 251.444 277.421 253.885C277.421 256.327 279.401 258.306 281.842 258.306Z" fill="#B5B758"/>
<path d="M263.052 279.306C265.494 279.306 267.473 277.079 267.473 274.333C267.473 271.586 265.494 269.359 263.052 269.359C260.611 269.359 258.631 271.586 258.631 274.333C258.631 277.079 260.611 279.306 263.052 279.306Z" fill="#B5B758"/>
<path d="M282.395 300.307C284.531 300.307 286.263 297.832 286.263 294.78C286.263 291.728 284.531 289.254 282.395 289.254C280.258 289.254 278.526 291.728 278.526 294.78C278.526 297.832 280.258 300.307 282.395 300.307Z" fill="#B5B758"/>
<path d="M246.474 316.886C248.915 316.886 250.895 314.906 250.895 312.465C250.895 310.023 248.915 308.043 246.474 308.043C244.032 308.043 242.053 310.023 242.053 312.465C242.053 314.906 244.032 316.886 246.474 316.886Z" fill="#B5B758"/>
<path d="M213.868 313.57C216.615 313.57 218.842 311.59 218.842 309.149C218.842 306.707 216.615 304.728 213.868 304.728C211.121 304.728 208.895 306.707 208.895 309.149C208.895 311.59 211.121 313.57 213.868 313.57Z" fill="#B5B758"/>
<path d="M204.474 329.043C206.915 329.043 208.895 327.064 208.895 324.622C208.895 322.181 206.915 320.201 204.474 320.201C202.032 320.201 200.053 322.181 200.053 324.622C200.053 327.064 202.032 329.043 204.474 329.043Z" fill="#B5B758"/>
<path d="M285.158 292.569C287.6 292.569 289.579 290.343 289.579 287.596C289.579 284.849 287.6 282.622 285.158 282.622C282.716 282.622 280.737 284.849 280.737 287.596C280.737 290.343 282.716 292.569 285.158 292.569Z" fill="#507146"/>
<path d="M267.474 283.728C269.915 283.728 271.895 281.501 271.895 278.754C271.895 276.007 269.915 273.78 267.474 273.78C265.032 273.78 263.053 276.007 263.053 278.754C263.053 281.501 265.032 283.728 267.474 283.728Z" fill="#507146"/>
<path d="M212.21 254.99C215.262 254.99 217.737 253.258 217.737 251.122C217.737 248.985 215.262 247.253 212.21 247.253C209.158 247.253 206.684 248.985 206.684 251.122C206.684 253.258 209.158 254.99 212.21 254.99Z" fill="#507146"/>
<path d="M225.474 275.991C227.915 275.991 229.895 274.259 229.895 272.122C229.895 269.986 227.915 268.254 225.474 268.254C223.032 268.254 221.053 269.986 221.053 272.122C221.053 274.259 223.032 275.991 225.474 275.991Z" fill="#507146"/>
<path d="M277.974 205.254C280.721 205.254 282.947 203.274 282.947 200.833C282.947 198.391 280.721 196.412 277.974 196.412C275.227 196.412 273 198.391 273 200.833C273 203.274 275.227 205.254 277.974 205.254Z" fill="#507146"/>
<path d="M294.553 193.096C297.3 193.096 299.526 191.117 299.526 188.675C299.526 186.233 297.3 184.254 294.553 184.254C291.806 184.254 289.579 186.233 289.579 188.675C289.579 191.117 291.806 193.096 294.553 193.096Z" fill="#507146"/>
<path d="M152.526 158.833C155.578 158.833 158.053 156.606 158.053 153.859C158.053 151.112 155.578 148.885 152.526 148.885C149.474 148.885 147 151.112 147 153.859C147 156.606 149.474 158.833 152.526 158.833Z" fill="#507146"/>
<path d="M273 197.517C276.052 197.517 278.526 195.29 278.526 192.543C278.526 189.797 276.052 187.57 273 187.57C269.948 187.57 267.474 189.797 267.474 192.543C267.474 195.29 269.948 197.517 273 197.517Z" fill="#849258"/>
<path d="M265.263 231.78C267.705 231.78 269.684 230.048 269.684 227.911C269.684 225.775 267.705 224.043 265.263 224.043C262.822 224.043 260.842 225.775 260.842 227.911C260.842 230.048 262.822 231.78 265.263 231.78Z" fill="#849258"/>
<path d="M279.632 235.096C282.073 235.096 284.053 233.117 284.053 230.675C284.053 228.233 282.073 226.254 279.632 226.254C277.19 226.254 275.21 228.233 275.21 230.675C275.21 233.117 277.19 235.096 279.632 235.096Z" fill="#849258"/>
<path d="M291.237 258.306C293.373 258.306 295.105 256.327 295.105 253.885C295.105 251.444 293.373 249.464 291.237 249.464C289.1 249.464 287.368 251.444 287.368 253.885C287.368 256.327 289.1 258.306 291.237 258.306Z" fill="#849258"/>
<path d="M225.474 251.675C227.915 251.675 229.895 249.448 229.895 246.701C229.895 243.954 227.915 241.728 225.474 241.728C223.032 241.728 221.053 243.954 221.053 246.701C221.053 249.448 223.032 251.675 225.474 251.675Z" fill="#849258"/>
<path d="M265.263 272.674C267.705 272.674 269.684 270.695 269.684 268.253C269.684 265.812 267.705 263.833 265.263 263.833C262.822 263.833 260.842 265.812 260.842 268.253C260.842 270.695 262.822 272.674 265.263 272.674Z" fill="#849258"/>
<path d="M225.671 170.145H224.171V171.645V186.5H176.5V33.5024H214.024H215.524V32.0024V1.5H313.5V170.145H225.671Z" fill="white" stroke="black" stroke-width="3" stroke-miterlimit="10"/>
<path d="M221.5 216.5L221.5 328.5L46.5 328.5L46.5 216.5L221.5 216.5Z" fill="white" stroke="black" stroke-width="3" stroke-miterlimit="10"/>
<path d="M118.015 285.848L130.398 285.848L130.398 250.822L118.015 250.822L118.015 285.848Z" fill="black"/>
<path d="M180.734 158.912L204.145 158.912L204.145 146.989L180.734 146.989L180.734 158.912Z" fill="black"/>
<path d="M217.339 114.432L229.723 114.432L229.723 79.4062L217.339 79.4062L217.339 114.432Z" fill="black"/>
<path d="M126.4 265.682C126.77 265.682 127.078 265.373 127.078 265.002C127.078 264.632 126.77 264.323 126.4 264.323C126.031 264.323 125.723 264.632 125.723 265.002C125.723 265.373 126.031 265.682 126.4 265.682Z" fill="white"/>
<path d="M126.277 270.005V272.415C126.277 272.847 125.661 272.847 125.661 272.415V270.005H124.798L125.723 266.793H125.599L125.045 268.585C124.922 268.955 124.367 268.832 124.49 268.399L125.106 266.422C125.168 266.175 125.476 265.805 125.969 265.805H126.4H126.893C127.386 265.805 127.694 266.237 127.756 266.422L128.372 268.399C128.495 268.832 127.941 269.017 127.817 268.585L127.263 266.793H127.078L128.002 270.005H127.14V272.415C127.14 272.847 126.524 272.847 126.524 272.415V270.005H126.277Z" fill="white"/>
<path d="M121.132 265.867C120.639 265.867 120.269 266.237 120.269 266.793V268.894C120.269 269.326 120.885 269.326 120.885 268.894V266.979H121.008V272.353C121.008 272.909 121.809 272.909 121.809 272.353V269.203H121.932V272.353C121.932 272.909 122.733 272.909 122.733 272.353V266.979H122.857V268.894C122.857 269.326 123.473 269.326 123.473 268.894V266.793C123.473 266.361 123.103 265.867 122.61 265.867H121.132Z" fill="white"/>
<path d="M121.871 265.62C122.245 265.62 122.548 265.315 122.548 264.94C122.548 264.565 122.245 264.261 121.871 264.261C121.496 264.261 121.193 264.565 121.193 264.94C121.193 265.315 121.496 265.62 121.871 265.62Z" fill="white"/>
<path d="M223.359 94.4435C223.729 94.4435 224.037 94.1346 224.037 93.764C224.037 93.3933 223.729 93.0845 223.359 93.0845C222.989 93.0845 222.681 93.3933 222.681 93.764C222.681 94.1346 222.989 94.4435 223.359 94.4435Z" fill="white"/>
<path d="M223.236 98.7676V101.177C223.236 101.609 222.619 101.609 222.619 101.177V98.7676H221.757L222.681 95.5553H222.558L222.003 97.3467C221.88 97.7174 221.326 97.5938 221.449 97.1614L222.065 95.1846C222.127 94.9375 222.435 94.5669 222.928 94.5669H223.359H223.852C224.345 94.5669 224.653 94.9993 224.714 95.1846L225.33 97.1614C225.453 97.5938 224.899 97.7792 224.776 97.3467L224.221 95.5553H224.036L224.961 98.7676H224.098V101.177C224.098 101.609 223.482 101.609 223.482 101.177V98.7676H223.236Z" fill="white"/>
<path d="M191.877 150.287C191.384 150.287 191.014 150.658 191.014 151.214V153.314C191.014 153.746 191.63 153.746 191.63 153.314V151.399H191.753V156.773C191.753 157.329 192.554 157.329 192.554 156.773V153.623H192.678V156.773C192.678 157.329 193.479 157.329 193.479 156.773V151.399H193.602V153.314C193.602 153.746 194.218 153.746 194.218 153.314V151.214C194.218 150.781 193.848 150.287 193.355 150.287H191.877Z" fill="white"/>
<path d="M192.616 150.102C192.99 150.102 193.293 149.797 193.293 149.422C193.293 149.047 192.99 148.743 192.616 148.743C192.241 148.743 191.938 149.047 191.938 149.422C191.938 149.797 192.241 150.102 192.616 150.102Z" fill="white"/>
<path d="M180.745 182.246L191.773 182.246L191.773 161.366L180.745 161.366L180.745 182.246Z" fill="#C4C4C4"/>
<path d="M193.786 182.286H206.293H219.539V161.407V147.013H206.293V161.407H193.786V182.286Z" fill="#DAC452"/>
<path d="M232.198 114.432L256.349 114.432L256.349 79.4062L232.198 79.4062L232.198 114.432Z" fill="#C4C4C4"/>
<path d="M258.209 114.432L270.593 114.432L270.593 79.4062L258.209 79.4062L258.209 114.432Z" fill="#FF0000"/>
<path d="M268.025 100.312V94.9996C268.025 94.4437 267.594 94.0112 267.039 94.0112H261.741C261.187 94.0112 260.755 94.4437 260.755 94.9996V100.312C260.755 100.868 261.187 101.301 261.741 101.301H267.039C267.594 101.239 268.025 100.868 268.025 100.312ZM267.224 100.436H261.556V94.8143H267.224V100.436Z" fill="white"/>
<path d="M265.253 90.5519C265.253 90.1194 265.869 90.1194 265.869 90.5519V92.2815L266.177 91.9109C266.423 91.6638 266.793 92.0344 266.547 92.2815L265.746 93.2081C265.623 93.3317 265.438 93.3317 265.315 93.2081L264.514 92.2815C264.267 91.9727 264.698 91.6638 264.883 91.9109L265.191 92.3433L265.253 90.5519Z" fill="white"/>
<path d="M262.912 93.0209C262.912 93.4533 263.528 93.4533 263.528 93.0209V91.2912L263.836 91.6619C264.082 91.909 264.452 91.5383 264.205 91.2912L263.404 90.3646C263.281 90.2411 263.096 90.2411 262.973 90.3646L262.172 91.2912C261.926 91.6001 262.357 91.909 262.542 91.6619L262.85 91.2295L262.912 93.0209Z" fill="white"/>
<path d="M265.993 96.4819H264.946C264.822 96.4819 264.699 96.6055 264.699 96.729V98.0263C264.699 98.1498 264.761 98.2116 264.884 98.2116C264.884 98.2116 264.946 98.2116 265.007 98.2116V99.8795C265.007 100.188 265.439 100.188 265.439 99.8795V98.2116H265.5V99.8795C265.5 100.188 265.931 100.188 265.931 99.8795V98.2116C265.993 98.2116 266.055 98.2116 266.055 98.2116C266.178 98.2116 266.239 98.1498 266.239 98.0263V96.729C266.239 96.6055 266.178 96.4819 265.993 96.4819Z" fill="white"/>
<path d="M265.5 96.3585C265.671 96.3585 265.808 96.2202 265.808 96.0496C265.808 95.879 265.671 95.7407 265.5 95.7407C265.33 95.7407 265.192 95.879 265.192 96.0496C265.192 96.2202 265.33 96.3585 265.5 96.3585Z" fill="white"/>
<path d="M263.775 96.4819H262.727C262.604 96.4819 262.481 96.6055 262.481 96.729V98.0263C262.481 98.1498 262.543 98.2116 262.666 98.2116C262.666 98.2116 262.727 98.2116 262.789 98.2116V99.8795C262.789 100.188 263.22 100.188 263.22 99.8795V98.2116H263.282V99.8795C263.282 100.188 263.713 100.188 263.713 99.8795V98.2116C263.775 98.2116 263.836 98.2116 263.836 98.2116C263.96 98.2116 264.021 98.1498 264.021 98.0263V96.729C264.021 96.6055 263.898 96.4819 263.775 96.4819Z" fill="white"/>
<path d="M263.282 96.3585C263.452 96.3585 263.59 96.2202 263.59 96.0496C263.59 95.879 263.452 95.7407 263.282 95.7407C263.112 95.7407 262.974 95.879 262.974 96.0496C262.974 96.2202 263.112 96.3585 263.282 96.3585Z" fill="white"/>
<path d="M180.553 114.432L215.485 114.432L215.485 79.4062L180.553 79.4062L180.553 114.432Z" fill="#C4C4C4"/>
<path d="M281.333 79.4321H308.749V114.458H296.92L281.333 92.59V79.4321Z" fill="#DAC452"/>
<path d="M260.14 5.85938V54.105H308.749V5.85938L260.14 5.85938Z" fill="#DAC452"/>
<path d="M220 6.41162V54.4116H247V6.41162L220 6.41162Z" fill="#DAC452"/>
<path d="M180.553 76.9297L215.485 76.9297L215.485 38.8768L180.553 38.8768L180.553 76.9297Z" fill="#C4C4C4"/>
<path d="M132.871 285.848L150.122 285.848L150.122 250.822L132.871 250.822L132.871 285.848Z" fill="#C4C4C4"/>
<path d="M174 285.588L183 285.588L183 266.588L174 266.588L174 285.588Z" fill="#C8A67C"/>
<path d="M185 285.588L192 285.588L192 266.588L185 266.588L185 285.588Z" fill="#C8A67C"/>
<path d="M194.494 285.847L217.413 285.847L217.413 266.944L194.494 266.944L194.494 285.847Z" fill="#C8A67C"/>
<path d="M173.64 248.694V264.755H217.383V220.71H166.74V248.694H173.64Z" fill="#C4C4C4"/>
<path d="M158.884 285.848L171.268 285.848L171.268 250.822L158.884 250.822L158.884 285.848Z" fill="black"/>
<path d="M168.65 273.836V268.523C168.65 267.967 168.219 267.535 167.664 267.535H162.366C161.812 267.535 161.38 267.967 161.38 268.523V273.836C161.38 274.392 161.812 274.824 162.366 274.824H167.664C168.219 274.762 168.65 274.392 168.65 273.836ZM167.911 273.959H162.243V268.338H167.911V273.959Z" fill="white"/>
<path d="M165.939 264.075C165.939 263.643 166.556 263.643 166.556 264.075V265.805L166.864 265.434C167.11 265.187 167.48 265.558 167.233 265.805L166.432 266.732C166.309 266.855 166.124 266.855 166.001 266.732L165.2 265.805C164.954 265.496 165.385 265.187 165.57 265.434L165.878 265.867L165.939 264.075Z" fill="white"/>
<path d="M163.537 266.544C163.537 266.977 164.153 266.977 164.153 266.544V264.815L164.461 265.185C164.707 265.432 165.077 265.062 164.83 264.815L164.029 263.888C163.906 263.765 163.721 263.765 163.598 263.888L162.797 264.815C162.551 265.124 162.982 265.432 163.167 265.185L163.475 264.753L163.537 266.544Z" fill="white"/>
<path d="M166.68 270.005H165.632C165.509 270.005 165.386 270.128 165.386 270.252V271.549C165.386 271.673 165.447 271.735 165.571 271.735C165.571 271.735 165.632 271.735 165.694 271.735V273.402C165.694 273.711 166.125 273.711 166.125 273.402V271.735H166.187V273.402C166.187 273.711 166.618 273.711 166.618 273.402V271.735C166.68 271.735 166.741 271.735 166.741 271.735C166.864 271.735 166.926 271.673 166.926 271.549V270.252C166.926 270.128 166.864 270.005 166.68 270.005Z" fill="white"/>
<path d="M166.186 269.881C166.357 269.881 166.495 269.743 166.495 269.573C166.495 269.402 166.357 269.264 166.186 269.264C166.016 269.264 165.878 269.402 165.878 269.573C165.878 269.743 166.016 269.881 166.186 269.881Z" fill="white"/>
<path d="M164.461 270.005H163.414C163.291 270.005 163.167 270.128 163.167 270.252V271.549C163.167 271.673 163.229 271.735 163.352 271.735C163.352 271.735 163.414 271.735 163.476 271.735V273.402C163.476 273.711 163.907 273.711 163.907 273.402V271.735H163.968V273.402C163.968 273.711 164.4 273.711 164.4 273.402V271.735C164.461 271.735 164.523 271.735 164.523 271.735C164.646 271.735 164.708 271.673 164.708 271.549V270.252C164.708 270.128 164.584 270.005 164.461 270.005Z" fill="white"/>
<path d="M163.968 269.881C164.138 269.881 164.276 269.743 164.276 269.573C164.276 269.402 164.138 269.264 163.968 269.264C163.798 269.264 163.66 269.402 163.66 269.573C163.66 269.743 163.798 269.881 163.968 269.881Z" fill="white"/>
<path d="M116.158 285.82V250.794H88.0644V220.71H69.8281V250.794V285.82H116.158Z" fill="#C4C4C4"/>
<path d="M118.05 248.74L143.988 248.74L143.988 220.756L118.05 220.756L118.05 248.74Z" fill="#C4C4C4"/>
<path d="M90 323.412L116 323.412L116 299.412L90 299.412L90 323.412Z" fill="#C8A67C"/>
<path d="M119 323.412L145 323.412L145 299.412L119 299.412L119 323.412Z" fill="#C8A67C"/>
<path d="M51.0731 285.865L67.646 285.865L67.646 220.755L51.0731 220.755L51.0731 285.865Z" fill="#C4C4C4"/>
<path d="M51.0686 323.634L88.0957 323.634L88.0957 287.805L51.0686 287.805L51.0686 323.634Z" fill="#C4C4C4"/>
<path d="M246.832 72.231L270.552 72.231L270.552 59.3819L246.832 59.3819L246.832 72.231Z" fill="black"/>
<path d="M257.921 63.2477C258.291 63.2477 258.599 62.9388 258.599 62.5682C258.599 62.1975 258.291 61.8887 257.921 61.8887C257.552 61.8887 257.244 62.1975 257.244 62.5682C257.305 63.0006 257.552 63.2477 257.921 63.2477Z" fill="white"/>
<path d="M262.481 62.6919H260.94C260.632 62.6919 260.201 62.8154 259.955 63.0625L258.538 64.4833V64.0509C258.538 63.1861 257.244 63.1861 257.244 64.0509V65.7188L256.012 66.9543C255.888 67.0779 255.888 67.0779 255.642 67.0779H254.903C254.163 67.0779 253.67 67.7574 253.67 68.3133C253.67 68.8693 254.102 69.6106 254.964 69.6106C254.964 69.6106 256.012 69.6106 256.32 69.6106C256.628 69.6106 256.997 69.487 257.305 69.1782L261.248 65.2864C261.31 65.2246 261.372 65.1629 261.495 65.1629C261.495 65.1629 262.049 65.1629 262.481 65.1629C262.973 65.1629 263.589 64.6069 263.589 63.8656C263.651 63.1861 262.973 62.6919 262.481 62.6919ZM262.419 64.5451H261.618C261.248 64.5451 261.125 64.6069 260.94 64.7922L256.997 68.7458C256.812 68.9311 256.628 68.9929 256.381 68.9929H255.087C254.779 68.9929 254.471 68.684 254.471 68.3133C254.471 67.9427 254.779 67.7574 255.026 67.7574H255.888C256.135 67.7574 256.32 67.6956 256.443 67.5103L260.447 63.495C260.632 63.3096 260.755 63.3096 261.064 63.3096H262.419C262.727 63.3096 262.973 63.6803 262.973 63.9274C262.973 64.1745 262.789 64.5451 262.419 64.5451Z" fill="white"/>
<path d="M236.912 138.843L270.551 138.843L270.551 125.994L236.912 125.994L236.912 138.843Z" fill="black"/>
<path d="M252.993 129.84C253.362 129.84 253.67 129.531 253.67 129.16C253.67 128.79 253.362 128.481 252.993 128.481C252.623 128.481 252.315 128.79 252.315 129.16C252.377 129.593 252.623 129.84 252.993 129.84Z" fill="white"/>
<path d="M257.552 129.284H256.012C255.704 129.284 255.272 129.407 255.026 129.654L253.609 131.075V130.643C253.609 129.778 252.315 129.778 252.315 130.643V132.311L251.083 133.546C250.96 133.67 250.96 133.67 250.713 133.67H249.974C249.235 133.67 248.742 134.349 248.742 134.905C248.742 135.461 249.173 136.202 250.035 136.202C250.035 136.202 251.083 136.202 251.391 136.202C251.699 136.202 252.069 136.079 252.377 135.77L256.32 131.878C256.381 131.816 256.443 131.755 256.566 131.755C256.566 131.755 257.121 131.755 257.552 131.755C258.045 131.755 258.661 131.199 258.661 130.457C258.722 129.778 258.045 129.284 257.552 129.284ZM257.49 131.137H256.689C256.32 131.137 256.196 131.199 256.012 131.384L252.069 135.338C251.884 135.523 251.699 135.585 251.453 135.585H250.159C249.851 135.585 249.543 135.276 249.543 134.905C249.543 134.535 249.851 134.349 250.097 134.349H250.96C251.206 134.349 251.391 134.287 251.514 134.102L255.519 130.087C255.704 129.901 255.827 129.901 256.135 129.901H257.49C257.798 129.901 258.045 130.272 258.045 130.519C258.045 130.766 257.86 131.137 257.49 131.137Z" fill="white"/>
<path d="M158.864 323.632L192.502 323.632L192.502 310.783L158.864 310.783L158.864 323.632Z" fill="black"/>
<path d="M174.934 314.669C175.304 314.669 175.612 314.36 175.612 313.989C175.612 313.618 175.304 313.31 174.934 313.31C174.564 313.31 174.256 313.618 174.256 313.989C174.256 314.36 174.564 314.669 174.934 314.669Z" fill="white"/>
<path d="M179.493 314.051H177.953C177.645 314.051 177.214 314.174 176.967 314.421L175.55 315.842V315.41C175.55 314.545 174.256 314.545 174.256 315.41V317.078L173.024 318.313C172.901 318.437 172.901 318.437 172.655 318.437H171.915C171.176 318.437 170.683 319.116 170.683 319.672C170.683 320.228 171.114 320.969 171.977 320.969C171.977 320.969 173.024 320.969 173.332 320.969C173.64 320.969 174.01 320.846 174.318 320.537L178.199 316.645C178.261 316.584 178.323 316.522 178.446 316.522C178.446 316.522 179 316.522 179.432 316.522C179.924 316.522 180.541 315.966 180.541 315.224C180.602 314.607 179.986 314.051 179.493 314.051ZM179.37 315.966H178.569C178.199 315.966 178.076 316.028 177.891 316.213L173.948 320.166C173.764 320.352 173.579 320.414 173.332 320.414H171.977C171.669 320.414 171.361 320.105 171.361 319.734C171.361 319.363 171.669 319.178 171.915 319.178H172.778C173.024 319.178 173.209 319.116 173.332 318.931L177.337 314.916C177.522 314.73 177.645 314.73 177.953 314.73H179.308C179.616 314.73 179.863 315.101 179.863 315.348C179.863 315.595 179.801 315.966 179.37 315.966Z" fill="white"/>
<path d="M223.079 194.703H242.178L242.24 212.123H223.141L223.079 194.703Z" fill="black"/>
<path d="M236.264 207.923V202.61C236.264 202.054 235.832 201.622 235.278 201.622H229.979C229.425 201.622 228.994 202.054 228.994 202.61V207.923C228.994 208.479 229.425 208.911 229.979 208.911H235.278C235.832 208.911 236.264 208.479 236.264 207.923ZM235.463 208.108H229.795V202.486H235.463V208.108Z" fill="white"/>
<path d="M233.491 198.224C233.491 197.792 234.107 197.792 234.107 198.224V199.954L234.415 199.583C234.662 199.336 235.031 199.707 234.785 199.954L233.984 200.88C233.861 201.004 233.676 201.004 233.553 200.88L232.752 199.954C232.505 199.645 232.937 199.336 233.122 199.583L233.43 200.016L233.491 198.224Z" fill="white"/>
<path d="M231.15 200.633C231.15 201.066 231.766 201.066 231.766 200.633V198.904L232.074 199.274C232.32 199.521 232.69 199.151 232.444 198.904L231.643 197.977C231.52 197.853 231.335 197.853 231.212 197.977L230.411 198.904C230.164 199.212 230.595 199.521 230.78 199.274L231.088 198.842L231.15 200.633Z" fill="white"/>
<path d="M234.231 204.154H233.184C233.061 204.154 232.938 204.278 232.938 204.401V205.699C232.938 205.822 232.999 205.884 233.122 205.884C233.122 205.884 233.184 205.884 233.246 205.884V207.552C233.246 207.861 233.677 207.861 233.677 207.552V205.884H233.738V207.552C233.738 207.861 234.17 207.861 234.17 207.552V205.884C234.231 205.884 234.293 205.884 234.293 205.884C234.416 205.884 234.478 205.822 234.478 205.699V204.401C234.478 204.278 234.416 204.154 234.231 204.154Z" fill="white"/>
<path d="M233.739 204.031C233.909 204.031 234.047 203.893 234.047 203.722C234.047 203.551 233.909 203.413 233.739 203.413C233.569 203.413 233.431 203.551 233.431 203.722C233.431 203.893 233.569 204.031 233.739 204.031Z" fill="white"/>
<path d="M232.013 204.154H230.966C230.842 204.154 230.719 204.278 230.719 204.401V205.699C230.719 205.822 230.781 205.884 230.904 205.884C230.904 205.884 230.966 205.884 231.027 205.884V207.552C231.027 207.861 231.459 207.861 231.459 207.552V205.884H231.52V207.552C231.52 207.861 231.951 207.861 231.951 207.552V205.884C232.013 205.884 232.075 205.884 232.075 205.884C232.198 205.884 232.26 205.822 232.26 205.699V204.401C232.26 204.278 232.136 204.154 232.013 204.154Z" fill="white"/>
<path d="M231.521 204.031C231.691 204.031 231.829 203.893 231.829 203.722C231.829 203.551 231.691 203.413 231.521 203.413C231.351 203.413 231.213 203.551 231.213 203.722C231.213 203.893 231.351 204.031 231.521 204.031Z" fill="white"/>
<path d="M227.719 187.63L261.358 187.63L261.358 174.781L227.719 174.781L227.719 187.63Z" fill="black"/>
<path d="M243.78 178.642C244.15 178.642 244.458 178.333 244.458 177.962C244.458 177.592 244.15 177.283 243.78 177.283C243.411 177.283 243.103 177.592 243.103 177.962C243.164 178.395 243.411 178.642 243.78 178.642Z" fill="white"/>
<path d="M248.339 178.086H246.799C246.491 178.086 246.06 178.209 245.813 178.457L244.396 179.877V179.445C244.396 178.58 243.103 178.58 243.103 179.445V181.113L241.87 182.348C241.747 182.472 241.747 182.472 241.501 182.472H240.761C240.022 182.472 239.529 183.151 239.529 183.707C239.529 184.263 239.961 185.005 240.823 185.005C240.823 185.005 241.87 185.005 242.178 185.005C242.487 185.005 242.856 184.881 243.164 184.572L247.107 180.68C247.169 180.619 247.23 180.557 247.354 180.557C247.354 180.557 247.908 180.557 248.339 180.557C248.832 180.557 249.448 180.001 249.448 179.26C249.51 178.58 248.832 178.086 248.339 178.086ZM248.278 179.939H247.477C247.107 179.939 246.984 180.001 246.799 180.186L242.856 184.14C242.671 184.325 242.487 184.387 242.24 184.387H240.946C240.638 184.387 240.33 184.078 240.33 183.707C240.33 183.337 240.638 183.151 240.885 183.151H241.747C241.994 183.151 242.178 183.09 242.302 182.904L246.306 178.889C246.491 178.704 246.614 178.704 246.922 178.704H248.278C248.586 178.704 248.832 179.074 248.832 179.321C248.832 179.569 248.709 179.939 248.278 179.939Z" fill="white"/>
<path d="M231.222 315.393H232.72L234.102 310.638H234.159L235.544 315.393H237.042L239.123 308.12H237.443L236.24 313.184H236.176L234.851 308.12H233.413L232.085 313.174H232.024L230.821 308.12H229.141L231.222 315.393ZM239.946 315.393H244.861V314.125H241.484V312.389H244.595V311.121H241.484V309.388H244.847V308.12H239.946V315.393ZM250.014 310.212H251.488C251.467 308.916 250.402 308.021 248.782 308.021C247.188 308.021 246.019 308.902 246.027 310.223C246.023 311.295 246.779 311.909 248.008 312.204L248.8 312.403C249.592 312.595 250.032 312.822 250.036 313.312C250.032 313.845 249.528 314.207 248.747 314.207C247.948 314.207 247.372 313.838 247.323 313.11H245.835C245.874 314.683 247 315.496 248.764 315.496C250.54 315.496 251.584 314.647 251.588 313.316C251.584 312.105 250.671 311.462 249.407 311.178L248.754 311.022C248.122 310.876 247.593 310.642 247.603 310.12C247.603 309.651 248.019 309.306 248.772 309.306C249.507 309.306 249.958 309.64 250.014 310.212ZM252.345 309.388H254.571V315.393H256.091V309.388H258.318V308.12H252.345V309.388ZM229.308 321.388H231.534V327.393H233.054V321.388H235.281V320.12H229.308V321.388ZM242.625 323.757C242.625 321.377 241.148 320.021 239.22 320.021C237.281 320.021 235.814 321.377 235.814 323.757C235.814 326.125 237.281 327.492 239.22 327.492C241.148 327.492 242.625 326.136 242.625 323.757ZM241.066 323.757C241.066 325.298 240.335 326.132 239.22 326.132C238.101 326.132 237.373 325.298 237.373 323.757C237.373 322.216 238.101 321.381 239.22 321.381C240.335 321.381 241.066 322.216 241.066 323.757ZM245.128 327.393H246.627L248.008 322.638H248.065L249.45 327.393H250.948L253.029 320.12H251.35L250.146 325.184H250.082L248.757 320.12H247.319L245.991 325.174H245.931L244.727 320.12H243.047L245.128 327.393ZM253.852 327.393H258.767V326.125H255.39V324.389H258.501V323.121H255.39V321.388H258.753V320.12H253.852V327.393ZM259.975 327.393H261.513V324.815H262.635L264.013 327.393H265.71L264.166 324.566C264.993 324.211 265.451 323.49 265.451 322.496C265.451 321.051 264.496 320.12 262.845 320.12H259.975V327.393ZM261.513 323.579V321.377H262.55C263.438 321.377 263.867 321.772 263.867 322.496C263.867 323.217 263.438 323.579 262.557 323.579H261.513Z" fill="black"/>
<path d="M180.308 10.4116H185.223V9.14387H181.846V7.40736H184.957V6.1396H181.846V4.40665H185.209V3.13889H180.308V10.4116ZM187.685 10.4116L188.225 8.75324H190.849L191.389 10.4116H193.037L190.529 3.13889H188.548L186.037 10.4116H187.685ZM188.615 7.55296L189.51 4.80083H189.567L190.462 7.55296H188.615ZM197.691 5.23051H199.165C199.144 3.93435 198.078 3.03946 196.459 3.03946C194.864 3.03946 193.696 3.92014 193.703 5.24117C193.7 6.31361 194.456 6.92796 195.685 7.2227L196.477 7.42156C197.269 7.61333 197.709 7.8406 197.712 8.33066C197.709 8.86333 197.205 9.22554 196.423 9.22554C195.624 9.22554 195.049 8.85622 194.999 8.12824H193.511C193.551 9.70139 194.676 10.5146 196.441 10.5146C198.217 10.5146 199.261 9.66588 199.264 8.33421C199.261 7.12327 198.348 6.48051 197.084 6.19642L196.431 6.04017C195.798 5.89458 195.269 5.6602 195.28 5.13818C195.28 4.66943 195.695 4.32497 196.448 4.32497C197.183 4.32497 197.634 4.65878 197.691 5.23051ZM200.022 4.40665H202.248V10.4116H203.768V4.40665H205.995V3.13889H200.022V4.40665ZM169.748 16.4066H171.975V22.4116H173.495V16.4066H175.721V15.1389H169.748V16.4066ZM183.066 18.7753C183.066 16.396 181.589 15.0395 179.66 15.0395C177.721 15.0395 176.255 16.396 176.255 18.7753C176.255 21.1439 177.721 22.5111 179.66 22.5111C181.589 22.5111 183.066 21.1545 183.066 18.7753ZM181.507 18.7753C181.507 20.3165 180.775 21.151 179.66 21.151C178.542 21.151 177.814 20.3165 177.814 18.7753C177.814 17.2341 178.542 16.3995 179.66 16.3995C180.775 16.3995 181.507 17.2341 181.507 18.7753ZM185.568 22.4116H187.067L188.448 17.6566H188.505L189.89 22.4116H191.389L193.47 15.1389H191.79L190.586 20.2028H190.522L189.198 15.1389H187.76L186.431 20.1922H186.371L185.167 15.1389H183.488L185.568 22.4116ZM194.293 22.4116H199.208V21.1439H195.83V19.4074H198.941V18.1396H195.83V16.4066H199.193V15.1389H194.293V22.4116ZM200.416 22.4116H201.953V19.8335H203.076L204.453 22.4116H206.151L204.606 19.5849C205.434 19.2298 205.892 18.5089 205.892 17.5146C205.892 16.0693 204.936 15.1389 203.285 15.1389H200.416V22.4116ZM201.953 18.5977V16.396H202.99C203.878 16.396 204.308 16.7902 204.308 17.5146C204.308 18.2355 203.878 18.5977 202.997 18.5977H201.953Z" fill="black"/>
<path d="M2.78125 43H16.4531C23.6406 43 27.4688 39.25 27.4688 34.1562C27.4688 29.4219 24.0781 26.5625 20.4375 26.3906V26.0781C23.7656 25.3281 26.2188 22.9687 26.2188 19.2031C26.2188 14.4062 22.6563 11 15.5937 11H2.78125V43ZM9.54688 37.4687V28.9687H15.2188C18.4688 28.9687 20.4844 30.8438 20.4844 33.4844C20.4844 35.8906 18.8438 37.4687 15.0625 37.4687H9.54688ZM9.54688 24.3906V16.4687H14.6875C17.6875 16.4687 19.3906 18.0156 19.3906 20.3281C19.3906 22.8594 17.3281 24.3906 14.5625 24.3906H9.54688ZM45.6055 11H39.2461L31.3242 16.0156V22.0156L38.6523 17.4219H38.8398V43H45.6055V11Z" fill="black"/>
<path d="M99.8925 310.932H101.02V310.302H99.8925V309.534H99.1005V310.302H97.9485V310.932H99.1005V311.124C99.1005 311.964 98.6685 312.9 97.7625 313.308L98.1885 313.914C98.8185 313.632 99.2625 313.068 99.5085 312.402C99.7545 313.032 100.192 313.56 100.816 313.818L101.236 313.212C100.33 312.822 99.8925 311.922 99.8925 311.124V310.932ZM101.53 309.402V314.928H102.322V309.402H101.53ZM106.186 312.516C106.336 311.604 106.336 310.932 106.336 310.398V309.948H103.492V310.578H105.556C105.556 311.07 105.538 311.664 105.412 312.45L106.186 312.516ZM104.98 311.532H104.2V313.164C103.852 313.17 103.516 313.17 103.21 313.17L103.282 313.818C104.242 313.812 105.478 313.788 106.6 313.596L106.558 313.026C106.054 313.086 105.514 313.122 104.98 313.14V311.532ZM108.346 311.622H107.602V309.396H106.81V314.922H107.602V312.282H108.346V311.622Z" fill="black"/>
<path d="M176.277 275.911C176.277 275.695 176.43 275.569 176.64 275.569C176.847 275.569 177.003 275.695 177.003 275.911C177.003 276.124 176.847 276.253 176.64 276.253C176.43 276.253 176.277 276.124 176.277 275.911ZM177.387 275.911C177.387 275.518 177.063 275.233 176.64 275.233C176.214 275.233 175.89 275.518 175.89 275.911C175.89 276.304 176.214 276.586 176.64 276.586C177.063 276.586 177.387 276.304 177.387 275.911ZM176.202 277.141H177.648V277.849H178.044V276.823H176.202V277.141ZM178.398 275.764V275.443H178.044V275.083H177.648V276.712H178.044V276.364H178.398V276.04H178.044V275.764H178.398ZM181.131 276.469V276.154H180.783C180.837 275.86 180.837 275.629 180.837 275.422V275.2H178.938V275.518H180.447C180.447 275.701 180.438 275.902 180.387 276.154H178.629V276.469H179.679V276.859H178.881V277.171H180.444V277.846H180.843V276.859H180.075V276.469H181.131Z" fill="black"/>
<path d="M188.038 276.073C188.125 275.758 188.125 275.506 188.125 275.329V275.173H187.135V275.485H187.738C187.735 275.629 187.717 275.806 187.657 276.034L188.038 276.073ZM186.784 276.082C186.928 275.758 186.928 275.497 186.928 275.32V275.173H186.073V275.485H186.541C186.529 275.623 186.496 275.788 186.397 276.025L186.784 276.082ZM188.059 277.12V276.814H187.318V276.595H186.916V276.814H186.178V277.12H186.901C186.838 277.309 186.571 277.492 186.067 277.54L186.199 277.834C186.643 277.786 186.955 277.633 187.117 277.42C187.279 277.636 187.594 277.786 188.038 277.834L188.17 277.54C187.666 277.492 187.396 277.309 187.333 277.12H188.059ZM187.36 276.193V275.803H186.973V276.193H185.875V276.511H188.365V276.193H187.36ZM190.351 276.244C189.931 276.121 189.727 275.836 189.706 275.545H190.249V275.233H188.746V275.545H189.298C189.277 275.857 189.076 276.157 188.638 276.286L188.836 276.598C189.16 276.499 189.382 276.292 189.508 276.034C189.634 276.271 189.847 276.46 190.159 276.55L190.351 276.244ZM190.531 277.498H189.481V277.255H190.531V277.498ZM190.531 276.952H189.481V276.7H189.088V277.813H190.924V276.7H190.531V276.952ZM190.525 275.086V276.583H190.924V275.086H190.525Z" fill="black"/>
<path d="M200.821 275.068V278.764H201.349V275.068H200.821ZM199.369 275.328C198.813 275.328 198.401 275.832 198.401 276.64C198.401 277.452 198.813 277.96 199.369 277.96C199.925 277.96 200.337 277.452 200.337 276.64C200.337 275.832 199.925 275.328 199.369 275.328ZM199.369 275.804C199.641 275.804 199.829 276.096 199.829 276.64C199.829 277.188 199.641 277.48 199.369 277.48C199.097 277.48 198.909 277.188 198.909 276.64C198.909 276.096 199.097 275.804 199.369 275.804ZM202.609 275.836H203.329V277.444H202.609V275.836ZM202.089 277.86H203.849V275.42H202.089V277.86ZM205.397 276.46H204.861V275.076H204.333V278.756H204.861V276.896H205.397V276.46ZM208.636 276.972H206.584V276.56H208.524V276.152H206.584V275.764H208.608V275.34H206.048V277.388H208.636V276.972ZM205.656 277.904V278.332H208.992V277.904H205.656ZM209.336 278.412H211.32V277.916H210.676C210.54 277.916 210.344 277.932 210.196 277.948C210.736 277.42 211.18 276.844 211.18 276.308C211.18 275.756 210.808 275.396 210.248 275.396C209.844 275.396 209.58 275.556 209.308 275.844L209.628 276.164C209.776 276 209.956 275.86 210.172 275.86C210.452 275.86 210.616 276.04 210.616 276.34C210.616 276.796 210.14 277.352 209.336 278.072V278.412ZM212.176 277.196L212.636 276.46C212.72 276.3 212.8 276.136 212.872 275.98H212.888C212.88 276.152 212.864 276.42 212.864 276.592V277.196H212.176ZM213.764 277.196H213.412V275.452H212.708L211.604 277.244V277.644H212.864V278.412H213.412V277.644H213.764V277.196Z" fill="black"/>
<path d="M125.721 313.062C125.421 313.062 125.241 312.648 125.241 311.796C125.241 310.95 125.421 310.536 125.721 310.536C126.027 310.536 126.201 310.95 126.201 311.796C126.201 312.648 126.027 313.062 125.721 313.062ZM127.347 311.436H126.909C126.819 310.404 126.375 309.792 125.721 309.792C124.989 309.792 124.527 310.548 124.527 311.796C124.527 313.05 124.989 313.806 125.721 313.806C126.393 313.806 126.843 313.158 126.915 312.078H127.347V314.682H128.085V309.492H127.347V311.436ZM128.469 309.396V314.922H129.219V309.396H128.469ZM133.784 309.396V314.94H134.576V309.396H133.784ZM131.606 309.786C130.772 309.786 130.154 310.542 130.154 311.754C130.154 312.972 130.772 313.734 131.606 313.734C132.44 313.734 133.058 312.972 133.058 311.754C133.058 310.542 132.44 309.786 131.606 309.786ZM131.606 310.5C132.014 310.5 132.296 310.938 132.296 311.754C132.296 312.576 132.014 313.014 131.606 313.014C131.198 313.014 130.916 312.576 130.916 311.754C130.916 310.938 131.198 310.5 131.606 310.5ZM136.412 311.082C136.412 310.65 136.724 310.398 137.144 310.398C137.564 310.398 137.882 310.65 137.882 311.082C137.882 311.514 137.564 311.772 137.144 311.772C136.724 311.772 136.412 311.514 136.412 311.082ZM137.546 312.396C138.194 312.252 138.65 311.748 138.65 311.082C138.65 310.29 138.002 309.72 137.144 309.72C136.292 309.72 135.644 310.29 135.644 311.082C135.644 311.754 136.106 312.264 136.76 312.402V313.182C136.298 313.188 135.848 313.188 135.458 313.188L135.554 313.83C136.484 313.836 137.714 313.836 138.866 313.62L138.8 313.05C138.398 313.098 137.978 313.134 137.546 313.152V312.396ZM140.606 311.568H139.88V309.396H139.088V314.922H139.88V312.222H140.606V311.568Z" fill="black"/>
<path d="M278.057 25.6046C276.601 25.3526 275.803 24.3516 275.803 23.4066V22.9446H274.816V23.4066C274.816 24.3306 274.011 25.3526 272.562 25.6046L272.954 26.3746C274.074 26.1576 274.893 25.5276 275.306 24.7086C275.719 25.5276 276.545 26.1506 277.665 26.3746L278.057 25.6046ZM272.422 27.4806V28.2296H278.26V27.4806H272.422ZM280.038 25.6186H282.054V24.8976H280.038V23.8476H282.145V23.0986H279.114V27.5576H279.66C280.766 27.5576 281.634 27.5296 282.614 27.3826L282.53 26.6476C281.69 26.7736 280.948 26.8086 280.038 26.8156V25.6186ZM284.847 25.0096H283.909V22.5666H282.985V29.0206H283.909V25.7726H284.847V25.0096ZM286.302 27.4316H289.767V29.0206H290.691V26.7036H286.302V27.4316ZM287.716 25.3876H286.491V24.5546H287.716V25.3876ZM289.767 22.5736V24.1416H288.619V22.9376H287.716V23.8476H286.491V22.9446H285.574V26.1296H288.619V24.8836H289.767V26.4166H290.691V22.5666L289.767 22.5736ZM297.375 25.6046C295.919 25.3526 295.121 24.3516 295.121 23.4066V22.9446H294.134V23.4066C294.134 24.3306 293.329 25.3526 291.88 25.6046L292.272 26.3746C293.392 26.1576 294.211 25.5276 294.624 24.7086C295.037 25.5276 295.863 26.1506 296.983 26.3746L297.375 25.6046ZM291.74 27.4806V28.2296H297.578V27.4806H291.74ZM276.93 34.6046H279.023V32.1126H275.978V32.8476H278.078V33.8766H275.985V36.5296H276.566C277.735 36.5296 278.68 36.4876 279.73 36.3056L279.632 35.5566C278.722 35.7106 277.91 35.7596 276.93 35.7666V34.6046ZM280.08 31.5596V38.0276H281.004V31.5596H280.08ZM284.503 32.9316H285.826V32.1826H282.249V32.9316H283.572V33.1556C283.572 34.3526 283.061 35.5916 281.983 36.0956L282.529 36.8236C283.271 36.4526 283.775 35.7386 284.048 34.8706C284.328 35.6756 284.825 36.3406 285.553 36.6976L286.085 35.9696C285.014 35.4796 284.503 34.2896 284.503 33.1556V32.9316ZM286.568 31.5596V33.8136H285.434V34.5626H286.568V38.0276H287.492V31.5596H286.568ZM288.521 36.4946V37.2506H294.359V36.4946H288.521ZM289.137 31.9866V35.4236H293.722V31.9866H292.812V33.0296H290.054V31.9866H289.137ZM290.054 33.7506H292.812V34.6886H290.054V33.7506Z" fill="black"/>
<path d="M228.268 22.9376V23.6656H230.263C230.13 24.5196 229.325 25.2266 227.897 25.5836L228.247 26.3046C230.165 25.8146 231.25 24.6526 231.25 22.9376H228.268ZM229.864 27.1586H232.307V28.2156H229.864V27.1586ZM228.954 28.9366H233.217V26.4306H228.954V28.9366ZM232.286 22.5736V26.1576H233.217V22.5736H232.286ZM237.745 23.0776H236.87V24.1626C236.87 24.9186 236.807 25.7586 236.422 26.4096C236.03 25.7516 235.967 24.9046 235.967 24.1626V23.0776H235.099V24.1626C235.099 25.1916 234.98 26.3116 234.161 26.9486L234.756 27.5786C235.148 27.2636 235.393 26.8016 235.547 26.2556C235.708 26.8296 235.974 27.3406 236.422 27.6836C236.87 27.3406 237.143 26.8296 237.297 26.2346C237.451 26.8086 237.71 27.2846 238.13 27.6136L238.69 26.9486C237.864 26.3116 237.745 25.1986 237.745 24.1626V23.0776ZM238.872 22.5666V29.0136H239.796V22.5666H238.872ZM225.748 32.9036H227.008V35.7176H225.748V32.9036ZM224.838 36.4456H227.918V32.1756H224.838V36.4456ZM230.627 33.9956H229.689V31.5736H228.765V38.0136H229.689V34.7586H230.627V33.9956ZM236.912 34.6816H236.065C236.226 33.7786 236.226 33.1206 236.226 32.5186V31.9376H231.753V32.6796H235.323C235.323 33.2326 235.309 33.8626 235.148 34.6816H231.088V35.4236H233.496V38.0136H234.434V35.4236H236.912V34.6816ZM240.895 36.5506V35.5916H242.848V34.8496H239.11V34.1286H242.701V31.9796H238.186V32.7146H241.791V33.4076H238.193V35.5916H239.971V36.5506H237.521V37.3066H243.359V36.5506H240.895Z" fill="black"/>
<path d="M284.961 86.6366C284.961 86.2766 285.221 86.0666 285.571 86.0666C285.921 86.0666 286.186 86.2766 286.186 86.6366C286.186 86.9966 285.921 87.2116 285.571 87.2116C285.221 87.2116 284.961 86.9966 284.961 86.6366ZM285.906 87.7316C286.446 87.6116 286.826 87.1916 286.826 86.6366C286.826 85.9766 286.286 85.5016 285.571 85.5016C284.861 85.5016 284.321 85.9766 284.321 86.6366C284.321 87.1966 284.706 87.6216 285.251 87.7366V88.3866C284.866 88.3916 284.491 88.3916 284.166 88.3916L284.246 88.9266C285.021 88.9316 286.046 88.9316 287.006 88.7516L286.951 88.2766C286.616 88.3166 286.266 88.3466 285.906 88.3616V87.7316ZM288.456 87.0416H287.851V85.2316H287.191V89.8366H287.851V87.5866H288.456V87.0416ZM292.641 85.2416H291.976V88.5466H292.641V85.2416ZM289.526 86.7016C289.526 86.3216 289.796 86.1016 290.136 86.1016C290.481 86.1016 290.741 86.3216 290.741 86.7016C290.741 87.0716 290.481 87.2966 290.136 87.2966C289.796 87.2966 289.526 87.0716 289.526 86.7016ZM291.386 86.7016C291.386 86.0216 290.841 85.5316 290.136 85.5316C289.431 85.5316 288.881 86.0216 288.881 86.7016C288.881 87.3716 289.431 87.8666 290.136 87.8666C290.841 87.8666 291.386 87.3716 291.386 86.7016ZM290.236 89.2366V88.2216H289.576V89.7616H292.756V89.2366H290.236ZM296.365 87.0616H296.715V88.6666H297.34V85.2366H296.715V86.5316H296.365V85.3216H295.75V88.5166H296.365V87.0616ZM294.025 86.7366C294.025 86.3566 294.215 86.1416 294.485 86.1416C294.75 86.1416 294.945 86.3566 294.945 86.7366C294.945 87.1166 294.75 87.3316 294.485 87.3316C294.215 87.3316 294.025 87.1166 294.025 86.7366ZM295.535 86.7366C295.535 86.0516 295.095 85.5716 294.485 85.5716C293.875 85.5716 293.43 86.0516 293.43 86.7366C293.43 87.4216 293.875 87.9016 294.485 87.9016C295.095 87.9016 295.535 87.4216 295.535 86.7366ZM294.9 89.2366V88.2316H294.24V89.7616H297.455V89.2366H294.9ZM299.1 86.0966H301.085V87.3166H299.1V86.0966ZM300.425 88.7716V87.8366H301.73V85.5766H298.455V87.8366H299.765V88.7716H298.015V89.3066H302.185V88.7716H300.425ZM303.874 88.2466C303.539 88.2466 303.314 87.8816 303.314 87.1966C303.314 86.5166 303.539 86.1516 303.874 86.1516C304.214 86.1516 304.439 86.5166 304.439 87.1966C304.439 87.8816 304.214 88.2466 303.874 88.2466ZM305.819 85.2316V86.8916H305.049C304.959 86.0616 304.494 85.5566 303.874 85.5566C303.189 85.5566 302.684 86.1866 302.684 87.1966C302.684 88.2116 303.189 88.8466 303.874 88.8466C304.514 88.8466 304.984 88.3066 305.054 87.4266H305.819V89.8516H306.479V85.2316H305.819Z" fill="black"/>
<path d="M198.846 173.362C198.536 173.362 198.306 173.152 198.306 172.802C198.306 172.452 198.536 172.237 198.846 172.237C199.156 172.237 199.381 172.452 199.381 172.797C199.381 173.152 199.156 173.362 198.846 173.362ZM198.846 171.702C198.176 171.702 197.676 172.157 197.676 172.797C197.676 173.447 198.176 173.902 198.846 173.902C199.511 173.902 200.006 173.447 200.006 172.797C200.006 172.157 199.511 171.702 198.846 171.702ZM199.171 170.317H198.511V170.917H197.491V171.442H200.171V170.917H199.171V170.317ZM201.791 172.037H201.131V170.237H200.471V174.842H201.131V172.582H201.791V172.037ZM205.275 170.237V172.712H205.94V170.237H205.275ZM202.88 172.912V174.787H205.94V172.912H205.285V173.342H203.535V172.912H202.88ZM203.535 173.847H205.285V174.267H203.535V173.847ZM203.435 170.427C202.72 170.427 202.18 170.882 202.18 171.512C202.18 172.147 202.72 172.602 203.435 172.602C204.15 172.602 204.685 172.147 204.685 171.512C204.685 170.882 204.15 170.427 203.435 170.427ZM203.435 170.972C203.785 170.972 204.04 171.177 204.04 171.512C204.04 171.857 203.785 172.057 203.435 172.057C203.085 172.057 202.825 171.857 202.825 171.512C202.825 171.177 203.085 170.972 203.435 170.972ZM210.54 170.237H209.875V173.622H210.54V170.237ZM208.535 172.382H207.6V171.727H208.535V172.382ZM209.185 170.567H208.535V171.222H207.6V170.567H206.945V172.907H209.185V170.567ZM208.125 174.237V173.292H207.46V174.762H210.645V174.237H208.125ZM215.34 172.407C214.3 172.227 213.73 171.512 213.73 170.837V170.507H213.025V170.837C213.025 171.497 212.45 172.227 211.415 172.407L211.695 172.957C212.495 172.802 213.08 172.352 213.375 171.767C213.67 172.352 214.26 172.797 215.06 172.957L215.34 172.407ZM211.315 173.747V174.282H215.485V173.747H211.315Z" fill="black"/>
</g>
<path fill-rule="evenodd" clip-rule="evenodd" d="M281.789 120.432C285.317 119.822 288 116.756 288 113.065C288 108.935 284.642 105.588 280.5 105.588C276.358 105.588 273 108.935 273 113.065C273 116.756 275.683 119.822 279.211 120.432L280.5 125.588L281.789 120.432Z" fill="black"/>
<path fill-rule="evenodd" clip-rule="evenodd" d="M281.789 118.432C285.317 117.822 288 114.756 288 111.065C288 106.935 284.642 103.588 280.5 103.588C276.358 103.588 273 106.935 273 111.065C273 114.756 275.683 117.822 279.211 118.432L280.5 123.588L281.789 118.432Z" fill="#FF0000"/>
<ellipse cx="280.5" cy="111.065" rx="2.5" ry="2.49231" fill="white"/>
<path d="M206.616 407.357H208.116V405.857V375.5H313.5V702.5H1.5V435.5H161.319H162.819V434V407.357H206.616Z" fill="#C4C4C4" stroke="black" stroke-width="3" stroke-miterlimit="10"/>
<path d="M251.266 459.337H241.75V494.373H251.266V459.337Z" fill="black"/>
<path d="M113.266 618.412H103.75V653.448H113.266V618.412Z" fill="black"/>
<path d="M276.806 459.337H267.29V494.373H276.806V459.337Z" fill="black"/>
<path d="M138.806 618.412H129.29V653.448H138.806V618.412Z" fill="black"/>
<path d="M265.448 459.337H253.107V494.373H265.448V459.337Z" fill="#FF0000"/>
<path d="M127.448 618.412H115.107V653.448H127.448V618.412Z" fill="black"/>
<path d="M240 459.412H167V494.412H240V459.412Z" fill="black"/>
<path d="M102 618.487H29V653.487H102V618.487Z" fill="black"/>
<path d="M262.869 480.285V474.971C262.869 474.415 262.44 473.982 261.887 473.982H256.607C256.054 473.982 255.625 474.415 255.625 474.971V480.285C255.625 480.841 256.054 481.274 256.607 481.274H261.887C262.44 481.212 262.869 480.841 262.869 480.285ZM262.071 480.409H256.423V474.786H262.071V480.409Z" fill="white"/>
<path d="M260.168 470.522C260.168 470.089 260.782 470.089 260.782 470.522V472.252L261.089 471.881C261.334 471.634 261.702 472.005 261.457 472.252L260.659 473.179C260.536 473.302 260.352 473.302 260.229 473.179L259.431 472.252C259.185 471.943 259.615 471.634 259.799 471.881L260.106 472.314L260.168 470.522Z" fill="white"/>
<path d="M257.773 472.996C257.773 473.428 258.387 473.428 258.387 472.996V471.266L258.694 471.636C258.94 471.884 259.308 471.513 259.062 471.266L258.264 470.339C258.141 470.215 257.957 470.215 257.834 470.339L257.036 471.266C256.791 471.575 257.221 471.884 257.405 471.636L257.712 471.204L257.773 472.996Z" fill="white"/>
<path d="M260.905 476.453H259.861C259.738 476.453 259.615 476.577 259.615 476.7V477.998C259.615 478.122 259.677 478.183 259.799 478.183C259.799 478.183 259.861 478.183 259.922 478.183V479.852C259.922 480.161 260.352 480.161 260.352 479.852V478.183H260.413V479.852C260.413 480.161 260.843 480.161 260.843 479.852V478.183C260.905 478.183 260.966 478.183 260.966 478.183C261.089 478.183 261.15 478.122 261.15 477.998V476.7C261.15 476.577 261.027 476.453 260.905 476.453Z" fill="white"/>
<path d="M260.351 476.33C260.521 476.33 260.658 476.192 260.658 476.021C260.658 475.85 260.521 475.712 260.351 475.712C260.182 475.712 260.044 475.85 260.044 476.021C260.044 476.192 260.182 476.33 260.351 476.33Z" fill="white"/>
<path d="M258.695 476.453H257.651C257.528 476.453 257.405 476.577 257.405 476.7V477.998C257.405 478.122 257.467 478.183 257.589 478.183C257.589 478.183 257.651 478.183 257.712 478.183V479.852C257.712 480.161 258.142 480.161 258.142 479.852V478.183H258.203V479.852C258.203 480.161 258.633 480.161 258.633 479.852V478.183C258.695 478.183 258.756 478.183 258.756 478.183C258.879 478.183 258.94 478.122 258.94 477.998V476.7C258.94 476.577 258.817 476.453 258.695 476.453Z" fill="white"/>
<path d="M258.141 476.33C258.311 476.33 258.448 476.192 258.448 476.021C258.448 475.85 258.311 475.712 258.141 475.712C257.972 475.712 257.834 475.85 257.834 476.021C257.834 476.192 257.972 476.33 258.141 476.33Z" fill="white"/>
<path d="M124.869 639.359V634.045C124.869 633.489 124.44 633.057 123.887 633.057H118.607C118.054 633.057 117.625 633.489 117.625 634.045V639.359C117.625 639.916 118.054 640.348 118.607 640.348H123.887C124.44 640.286 124.869 639.916 124.869 639.359ZM124.071 639.483H118.423V633.86H124.071V639.483Z" fill="white"/>
<path d="M122.168 629.596C122.168 629.163 122.782 629.163 122.782 629.596V631.326L123.089 630.955C123.334 630.708 123.702 631.079 123.457 631.326L122.659 632.253C122.536 632.377 122.352 632.377 122.229 632.253L121.431 631.326C121.185 631.017 121.615 630.708 121.799 630.955L122.106 631.388L122.168 629.596Z" fill="white"/>
<path d="M119.773 632.07C119.773 632.503 120.387 632.503 120.387 632.07V630.34L120.694 630.711C120.94 630.958 121.308 630.587 121.062 630.34L120.264 629.413C120.141 629.289 119.957 629.289 119.834 629.413L119.036 630.34C118.791 630.649 119.221 630.958 119.405 630.711L119.712 630.278L119.773 632.07Z" fill="white"/>
<path d="M122.905 635.527H121.861C121.738 635.527 121.615 635.651 121.615 635.775V637.072C121.615 637.196 121.677 637.258 121.799 637.258C121.799 637.258 121.861 637.258 121.922 637.258V638.926C121.922 639.235 122.352 639.235 122.352 638.926V637.258H122.413V638.926C122.413 639.235 122.843 639.235 122.843 638.926V637.258C122.905 637.258 122.966 637.258 122.966 637.258C123.089 637.258 123.15 637.196 123.15 637.072V635.775C123.15 635.651 123.027 635.527 122.905 635.527Z" fill="white"/>
<path d="M122.351 635.404C122.521 635.404 122.658 635.266 122.658 635.095C122.658 634.924 122.521 634.786 122.351 634.786C122.182 634.786 122.044 634.924 122.044 635.095C122.044 635.266 122.182 635.404 122.351 635.404Z" fill="white"/>
<path d="M120.695 635.527H119.651C119.528 635.527 119.405 635.651 119.405 635.775V637.072C119.405 637.196 119.467 637.258 119.589 637.258C119.589 637.258 119.651 637.258 119.712 637.258V638.926C119.712 639.235 120.142 639.235 120.142 638.926V637.258H120.203V638.926C120.203 639.235 120.633 639.235 120.633 638.926V637.258C120.695 637.258 120.756 637.258 120.756 637.258C120.879 637.258 120.94 637.196 120.94 637.072V635.775C120.94 635.651 120.817 635.527 120.695 635.527Z" fill="white"/>
<path d="M120.141 635.404C120.311 635.404 120.448 635.266 120.448 635.095C120.448 634.924 120.311 634.786 120.141 634.786C119.972 634.786 119.834 634.924 119.834 635.095C119.834 635.266 119.972 635.404 120.141 635.404Z" fill="white"/>
<path d="M175.632 474.412H177.17V472.054H178.462C180.135 472.054 181.108 471.056 181.108 469.604C181.108 468.159 180.153 467.139 178.501 467.139H175.632V474.412ZM177.17 470.822V468.396H178.207C179.094 468.396 179.524 468.879 179.524 469.604C179.524 470.325 179.094 470.822 178.214 470.822H177.17ZM183.487 474.515C184.293 474.515 184.815 474.164 185.082 473.656H185.124V474.412H186.559V470.733C186.559 469.433 185.458 468.887 184.244 468.887C182.937 468.887 182.077 469.512 181.868 470.506L183.267 470.619C183.37 470.257 183.693 469.991 184.237 469.991C184.751 469.991 185.046 470.25 185.046 470.698V470.719C185.046 471.07 184.673 471.117 183.725 471.209C182.646 471.308 181.676 471.671 181.676 472.889C181.676 473.968 182.447 474.515 183.487 474.515ZM183.92 473.471C183.455 473.471 183.121 473.254 183.121 472.839C183.121 472.413 183.473 472.203 184.006 472.129C184.336 472.083 184.876 472.004 185.057 471.884V472.463C185.057 473.034 184.585 473.471 183.92 473.471ZM187.733 474.412H189.245V471.326C189.245 470.655 189.735 470.193 190.403 470.193C190.613 470.193 190.9 470.229 191.042 470.275V468.933C190.907 468.901 190.719 468.879 190.566 468.879C189.956 468.879 189.455 469.235 189.256 469.909H189.199V468.958H187.733V474.412ZM191.824 474.412H193.337V472.679L193.746 472.214L195.233 474.412H197.006L194.878 471.319L196.903 468.958H195.166L193.419 471.028H193.337V467.139H191.824V474.412ZM197.645 474.412H199.157V468.958H197.645V474.412ZM198.405 468.254C198.856 468.254 199.225 467.91 199.225 467.487C199.225 467.068 198.856 466.724 198.405 466.724C197.957 466.724 197.588 467.068 197.588 467.487C197.588 467.91 197.957 468.254 198.405 468.254ZM201.882 471.259C201.886 470.556 202.305 470.144 202.915 470.144C203.523 470.144 203.888 470.541 203.885 471.209V474.412H205.398V470.939C205.398 469.668 204.652 468.887 203.516 468.887C202.706 468.887 202.12 469.284 201.875 469.92H201.811V468.958H200.369V474.412H201.882V471.259ZM209.047 476.571C210.606 476.571 211.714 475.861 211.714 474.465V468.958H210.212V469.874H210.155C209.953 469.43 209.509 468.887 208.596 468.887C207.4 468.887 206.388 469.817 206.388 471.674C206.388 473.489 207.371 474.334 208.6 474.334C209.47 474.334 209.956 473.897 210.155 473.446H210.219V474.444C210.219 475.193 209.74 475.485 209.083 475.485C208.415 475.485 208.078 475.193 207.954 474.863L206.555 475.051C206.736 475.911 207.577 476.571 209.047 476.571ZM209.079 473.198C208.337 473.198 207.932 472.608 207.932 471.667C207.932 470.74 208.33 470.09 209.079 470.09C209.814 470.09 210.226 470.712 210.226 471.667C210.226 472.629 209.807 473.198 209.079 473.198ZM175.632 486.412H180.547V485.144H177.17V483.408H180.281V482.14H177.17V480.407H180.533V479.139H175.632V486.412ZM183.009 486.412L183.548 484.754H186.173L186.713 486.412H188.36L185.853 479.139H183.872L181.361 486.412H183.009ZM183.939 483.553L184.834 480.801H184.891L185.786 483.553H183.939ZM193.015 481.231H194.489C194.467 479.935 193.402 479.04 191.783 479.04C190.188 479.04 189.02 479.921 189.027 481.242C189.023 482.314 189.78 482.928 191.009 483.223L191.8 483.422C192.592 483.614 193.033 483.841 193.036 484.331C193.033 484.864 192.528 485.226 191.747 485.226C190.948 485.226 190.373 484.857 190.323 484.129H188.835C188.874 485.702 190 486.515 191.765 486.515C193.54 486.515 194.585 485.666 194.588 484.335C194.585 483.124 193.672 482.481 192.408 482.197L191.754 482.041C191.122 481.895 190.593 481.661 190.604 481.139C190.604 480.67 191.019 480.325 191.772 480.325C192.507 480.325 192.958 480.659 193.015 481.231ZM195.345 480.407H197.572V486.412H199.092V480.407H201.318V479.139H195.345V480.407ZM204.616 486.412H206.154V483.408H209.276V486.412H210.81V479.139H209.276V482.14H206.154V479.139H204.616V486.412ZM213.331 486.412L213.871 484.754H216.495L217.035 486.412H218.683L216.175 479.139H214.194L211.683 486.412H213.331ZM214.261 483.553L215.156 480.801H215.213L216.108 483.553H214.261ZM219.558 486.412H224.213V485.144H221.096V479.139H219.558V486.412ZM225.232 486.412H229.887V485.144H226.769V479.139H225.232V486.412Z" fill="white"/>
<path d="M37.6321 633.487H39.1697V631.129H40.4624C42.1349 631.129 43.108 630.131 43.108 628.679C43.108 627.234 42.1527 626.215 40.5014 626.215H37.6321V633.487ZM39.1697 629.897V627.472H40.2067C41.0945 627.472 41.5241 627.955 41.5241 628.679C41.5241 629.4 41.0945 629.897 40.2138 629.897H39.1697ZM45.4872 633.59C46.2933 633.59 46.8153 633.239 47.0817 632.731H47.1243V633.487H48.5589V629.808C48.5589 628.509 47.4581 627.962 46.2436 627.962C44.9368 627.962 44.0774 628.587 43.8679 629.581L45.267 629.695C45.37 629.332 45.6932 629.066 46.2365 629.066C46.7514 629.066 47.0462 629.325 47.0462 629.773V629.794C47.0462 630.146 46.6733 630.192 45.7251 630.284C44.6456 630.384 43.6761 630.746 43.6761 631.964C43.6761 633.043 44.4467 633.59 45.4872 633.59ZM45.9205 632.546C45.4553 632.546 45.1214 632.33 45.1214 631.914C45.1214 631.488 45.473 631.278 46.0057 631.204C46.3359 631.158 46.8757 631.08 47.0568 630.959V631.538C47.0568 632.109 46.5845 632.546 45.9205 632.546ZM49.7326 633.487H51.2454V630.401C51.2454 629.73 51.7354 629.269 52.4031 629.269C52.6126 629.269 52.9002 629.304 53.0423 629.35V628.008C52.9073 627.976 52.7191 627.955 52.5664 627.955C51.9556 627.955 51.4549 628.31 51.256 628.984H51.1992V628.033H49.7326V633.487ZM53.8244 633.487H55.3372V631.754L55.7456 631.289L57.2335 633.487H59.0055L56.8784 630.394L58.9025 628.033H57.166L55.4189 630.103H55.3372V626.215H53.8244V633.487ZM59.6447 633.487H61.1575V628.033H59.6447V633.487ZM60.4047 627.33C60.8556 627.33 61.225 626.985 61.225 626.563C61.225 626.144 60.8556 625.799 60.4047 625.799C59.9572 625.799 59.5879 626.144 59.5879 626.563C59.5879 626.985 59.9572 627.33 60.4047 627.33ZM63.8821 630.334C63.8857 629.631 64.3047 629.219 64.9155 629.219C65.5227 629.219 65.8885 629.617 65.8849 630.284V633.487H67.3977V630.014C67.3977 628.743 66.652 627.962 65.5156 627.962C64.706 627.962 64.12 628.359 63.875 628.995H63.8111V628.033H62.3693V633.487H63.8821V630.334ZM71.0474 635.646C72.6064 635.646 73.7143 634.936 73.7143 633.541V628.033H72.2122V628.949H72.1554C71.9529 628.505 71.5091 627.962 70.5964 627.962C69.3997 627.962 68.3876 628.892 68.3876 630.749C68.3876 632.564 69.3713 633.409 70.6 633.409C71.47 633.409 71.9565 632.972 72.1554 632.521H72.2193V633.519C72.2193 634.269 71.7399 634.56 71.0829 634.56C70.4153 634.56 70.0779 634.269 69.9537 633.938L68.5545 634.127C68.7356 634.986 69.5772 635.646 71.0474 635.646ZM71.0794 632.273C70.3372 632.273 69.9324 631.683 69.9324 630.742C69.9324 629.815 70.3301 629.166 71.0794 629.166C71.8145 629.166 72.2264 629.787 72.2264 630.742C72.2264 631.705 71.8074 632.273 71.0794 632.273ZM39.2692 645.487H40.7678L42.1491 640.732H42.206L43.5909 645.487H45.0895L47.1705 638.215H45.4908L44.2869 643.278H44.223L42.8984 638.215H41.4602L40.1321 643.268H40.0717L38.8679 638.215H37.1882L39.2692 645.487ZM47.9934 645.487H52.9082V644.22H49.5311V642.483H52.6419V641.215H49.5311V639.482H52.894V638.215H47.9934V645.487ZM58.0618 640.306H59.5355C59.5142 639.01 58.4489 638.115 56.8295 638.115C55.2351 638.115 54.0668 638.996 54.0739 640.317C54.0703 641.389 54.8267 642.004 56.0554 642.298L56.8473 642.497C57.6392 642.689 58.0795 642.916 58.0831 643.406C58.0795 643.939 57.5753 644.301 56.794 644.301C55.995 644.301 55.4197 643.932 55.37 643.204H53.8821C53.9212 644.777 55.0469 645.59 56.8118 645.59C58.5874 645.59 59.6314 644.742 59.6349 643.41C59.6314 642.199 58.7188 641.556 57.4545 641.272L56.8011 641.116C56.169 640.97 55.6399 640.736 55.6506 640.214C55.6506 639.745 56.0661 639.401 56.8189 639.401C57.554 639.401 58.005 639.734 58.0618 640.306ZM60.3922 639.482H62.6188V645.487H64.1387V639.482H66.3652V638.215H60.3922V639.482ZM69.6634 645.487H71.201V642.483H74.3224V645.487H75.8565V638.215H74.3224V641.215H71.201V638.215H69.6634V645.487ZM78.3778 645.487L78.9176 643.829H81.5419L82.0817 645.487H83.7294L81.2223 638.215H79.2408L76.7301 645.487H78.3778ZM79.3082 642.629L80.2031 639.877H80.2599L81.1548 642.629H79.3082ZM84.6048 645.487H89.2603V644.22H86.1424V638.215H84.6048V645.487ZM90.2786 645.487H94.9341V644.22H91.8162V638.215H90.2786V645.487Z" fill="white"/>
<path d="M2.78125 417.412H9.54688V407.037H15.2344C22.5937 407.037 26.875 402.646 26.875 396.256C26.875 389.896 22.6719 385.412 15.4063 385.412H2.78125V417.412ZM9.54688 401.615V390.943H14.1094C18.0156 390.943 19.9063 393.068 19.9063 396.256C19.9063 399.428 18.0156 401.615 14.1406 401.615H9.54688Z" fill="black"/>
<path fill-rule="evenodd" clip-rule="evenodd" d="M229.789 469.844C233.317 469.235 236 466.168 236 462.477C236 458.348 232.642 455 228.5 455C224.358 455 221 458.348 221 462.477C221 466.168 223.683 469.235 227.211 469.844L228.5 475L229.789 469.844Z" fill="black"/>
<path fill-rule="evenodd" clip-rule="evenodd" d="M229.789 467.844C233.317 467.235 236 464.168 236 460.477C236 456.348 232.642 453 228.5 453C224.358 453 221 456.348 221 460.477C221 464.168 223.683 467.235 227.211 467.844L228.5 473L229.789 467.844Z" fill="#FF0000"/>
<ellipse cx="228.5" cy="460.477" rx="2.5" ry="2.49231" fill="white"/>
<path d="M0.90918 732.96C0.90918 731.93 1.0459 730.941 1.31934 729.993C1.59733 729.045 2.00977 728.184 2.55664 727.409C3.10352 726.634 3.6709 726.088 4.25879 725.769L4.51855 726.603C3.85319 727.113 3.30632 727.892 2.87793 728.94C2.4541 729.989 2.22168 731.162 2.18066 732.461L2.17383 733.042C2.17383 734.801 2.49512 736.328 3.1377 737.622C3.52507 738.397 3.98535 739.003 4.51855 739.44L4.25879 740.213C3.65267 739.876 3.07389 739.311 2.52246 738.518C1.44694 736.968 0.90918 735.116 0.90918 732.96ZM7.06716 729.244C7.06716 728.068 7.99116 727.256 9.27916 727.256C10.5532 727.256 11.4772 728.068 11.4772 729.244C11.4772 730.434 10.5532 731.218 9.27916 731.218C7.99116 731.218 7.06716 730.434 7.06716 729.244ZM9.85316 732.156C11.4632 731.946 12.5972 730.812 12.5972 729.244C12.5972 727.48 11.1972 726.29 9.27916 726.29C7.33316 726.29 5.94716 727.48 5.94716 729.244C5.94716 730.812 7.06716 731.96 8.70516 732.156V734.326C7.52916 734.354 6.38116 734.368 5.38716 734.368L5.54116 735.334C7.75316 735.334 10.6792 735.292 13.3392 734.844L13.2412 734.004C12.1632 734.158 11.0012 734.228 9.85316 734.284V732.156ZM17.1752 730.658H15.1872V725.464H14.0392V738.036H15.1872V731.624H17.1752V730.658ZM28.7101 725.492H27.5621V734.662H28.7101V725.492ZM19.8201 729.44C19.8201 728.222 20.7441 727.354 21.9621 727.354C23.2081 727.354 24.1321 728.222 24.1321 729.44C24.1321 730.686 23.2081 731.554 21.9621 731.554C20.7441 731.554 19.8201 730.686 19.8201 729.44ZM25.2521 729.44C25.2521 727.634 23.8381 726.36 21.9621 726.36C20.1001 726.36 18.7001 727.634 18.7001 729.44C18.7001 731.26 20.1001 732.548 21.9621 732.548C23.8381 732.548 25.2521 731.26 25.2521 729.44ZM21.7801 736.818V733.724H20.6321V737.756H29.0881V736.818H21.7801ZM39.181 730.098H40.777V734.928H41.883V725.492H40.777V729.146H39.181V725.716H38.103V734.48H39.181V730.098ZM32.447 729.524C32.447 728.306 33.217 727.452 34.267 727.452C35.303 727.452 36.073 728.306 36.073 729.524C36.073 730.714 35.303 731.582 34.267 731.582C33.217 731.582 32.447 730.714 32.447 729.524ZM37.123 729.524C37.123 727.718 35.919 726.472 34.267 726.472C32.615 726.472 31.411 727.718 31.411 729.524C31.411 731.316 32.615 732.562 34.267 732.562C35.919 732.562 37.123 731.316 37.123 729.524ZM34.841 736.818V733.696H33.693V737.756H42.247V736.818H34.841ZM46.6139 727.438H53.0399V731.512H46.6139V727.438ZM50.4219 735.474V732.422H54.1599V726.528H45.5079V732.422H49.2599V735.474H44.1639V736.426H55.5459V735.474H50.4219ZM60.4028 734.186C59.1988 734.186 58.3588 732.87 58.3588 730.826C58.3588 728.796 59.1988 727.48 60.4028 727.48C61.5928 727.48 62.4328 728.796 62.4328 730.826C62.4328 732.87 61.5928 734.186 60.4028 734.186ZM66.2408 725.478V730.266H63.5108C63.3288 727.914 62.0968 726.444 60.4028 726.444C58.5688 726.444 57.2668 728.152 57.2668 730.826C57.2668 733.5 58.5688 735.208 60.4028 735.208C62.1528 735.208 63.3988 733.668 63.5108 731.204H66.2408V738.064H67.3888V725.478H66.2408ZM74.7523 729.146C74.7523 727.984 75.6483 727.158 76.8943 727.158C78.1543 727.158 79.0643 727.984 79.0643 729.146C79.0643 730.322 78.1543 731.134 76.8943 731.134C75.6483 731.134 74.7523 730.322 74.7523 729.146ZM80.1843 729.146C80.1843 727.41 78.8123 726.206 76.8943 726.206C75.0043 726.206 73.6323 727.41 73.6323 729.146C73.6323 730.896 75.0043 732.086 76.8943 732.086C78.8123 732.086 80.1843 730.896 80.1843 729.146ZM78.0003 734.186H80.6043V736.916H78.0003V734.186ZM81.7383 734.186H83.4743V733.276H75.1443V734.186H76.8663V736.916H75.0323V737.84H83.6283V736.916H81.7383V734.186ZM83.1383 728.544V725.492H81.9903V732.59H83.1383V729.496H85.0003V728.544H83.1383ZM89.4072 733.028C89.4072 734.045 89.2728 735.02 89.0039 735.954C88.7396 736.884 88.3317 737.743 87.7803 738.531C87.2334 739.32 86.6592 739.88 86.0576 740.213L85.791 739.44C86.4928 738.903 87.0557 738.069 87.4795 736.938C87.9079 735.804 88.1266 734.546 88.1357 733.165V732.946C88.1357 731.989 88.0355 731.101 87.835 730.28C87.6344 729.455 87.3542 728.717 86.9941 728.065C86.6387 727.414 86.2376 726.906 85.791 726.541L86.0576 725.769C86.6592 726.101 87.2311 726.657 87.7734 727.437C88.3203 728.216 88.7282 729.075 88.9971 730.014C89.2705 730.952 89.4072 731.957 89.4072 733.028ZM97.1797 732.399H92.8662V735.927H97.877V737H91.5537V727.047H97.8086V728.127H92.8662V731.326H97.1797V732.399ZM105.007 734.402H100.837L99.9004 737H98.5469L102.348 727.047H103.496L107.304 737H105.957L105.007 734.402ZM101.233 733.322H104.617L102.922 728.667L101.233 733.322ZM111.576 732.563C110.451 732.24 109.63 731.843 109.115 731.374C108.605 730.9 108.35 730.317 108.35 729.624C108.35 728.84 108.662 728.193 109.286 727.683C109.915 727.168 110.731 726.91 111.733 726.91C112.417 726.91 113.025 727.042 113.559 727.307C114.096 727.571 114.511 727.936 114.803 728.4C115.099 728.865 115.247 729.373 115.247 729.925H113.928C113.928 729.323 113.736 728.852 113.354 728.51C112.971 728.163 112.431 727.99 111.733 727.99C111.086 727.99 110.58 728.134 110.216 728.421C109.856 728.703 109.676 729.098 109.676 729.604C109.676 730.009 109.847 730.353 110.188 730.636C110.535 730.914 111.12 731.169 111.945 731.401C112.775 731.634 113.422 731.891 113.887 732.174C114.356 732.452 114.702 732.778 114.926 733.151C115.154 733.525 115.268 733.965 115.268 734.471C115.268 735.277 114.953 735.924 114.324 736.412C113.695 736.895 112.854 737.137 111.802 737.137C111.118 737.137 110.48 737.007 109.888 736.747C109.295 736.483 108.837 736.123 108.514 735.667C108.195 735.211 108.035 734.694 108.035 734.115H109.354C109.354 734.717 109.576 735.193 110.018 735.544C110.464 735.89 111.059 736.063 111.802 736.063C112.494 736.063 113.025 735.922 113.395 735.64C113.764 735.357 113.948 734.972 113.948 734.484C113.948 733.997 113.777 733.621 113.436 733.356C113.094 733.088 112.474 732.823 111.576 732.563ZM123.833 728.127H120.634V737H119.328V728.127H116.136V727.047H123.833V728.127ZM138.694 725.492H137.588V732.016H138.694V725.492ZM129.244 728.81C129.244 727.746 130.014 726.976 131.078 726.976C132.128 726.976 132.898 727.746 132.898 728.81C132.898 729.916 132.128 730.686 131.078 730.686C130.014 730.686 129.244 729.916 129.244 728.81ZM135.222 729.272V731.932H136.3V725.744H135.222V728.348H133.892C133.696 726.976 132.576 726.066 131.078 726.066C129.412 726.066 128.222 727.186 128.222 728.81C128.222 730.462 129.412 731.596 131.078 731.596C132.576 731.596 133.71 730.672 133.906 729.272H135.222ZM131.568 736.944V735.6H138.694V732.604H130.406V733.514H137.546V734.732H130.434V737.868H139.17V736.944H131.568ZM142.85 731.12H147.484V726.64H141.66V727.578H146.322V730.196H141.702V735.012H142.738C144.894 735.012 146.798 734.928 149.066 734.55L148.954 733.612C146.756 733.962 144.908 734.06 142.85 734.06V731.12ZM150.13 725.464V738.05H151.278V725.464H150.13ZM158.039 733.948H155.393V730.7H158.039V733.948ZM160.937 730.252H159.117V726.724H158.039V729.776H155.393V726.724H154.301V734.886H159.117V731.19H160.937V737.42H162.029V725.758H160.937V730.252ZM163.429 725.478V738.036H164.521V725.478H163.429ZM175.86 725.478V738.064H177.008V725.478H175.86ZM170.386 726.444C168.524 726.444 167.194 728.152 167.194 730.826C167.194 733.5 168.524 735.208 170.386 735.208C172.248 735.208 173.578 733.5 173.578 730.826C173.578 728.152 172.248 726.444 170.386 726.444ZM170.386 727.48C171.604 727.48 172.472 728.796 172.472 730.826C172.472 732.87 171.604 734.186 170.386 734.186C169.154 734.186 168.286 732.87 168.286 730.826C168.286 728.796 169.154 727.48 170.386 727.48ZM181.333 731.078H185.449V730.154H181.333V727.564H185.995V726.612H180.185V735.026H181.151C183.545 735.026 185.071 734.956 186.891 734.634L186.765 733.696C185.057 734.004 183.601 734.088 181.333 734.088V731.078ZM188.809 725.464V730.21H186.219V731.162H188.809V738.05H189.957V725.464H188.809ZM201.282 727.676H193.946V730.364H202.64V729.538H195.08V728.46H202.416V725.842H193.918V726.654H201.282V727.676ZM195.01 735.88H202.458V733.206H193.848V734.032H201.324V735.082H193.876V737.868H202.85V737.042H195.01V735.88ZM192.49 731.316V732.184H203.872V731.316H192.49ZM217.97 725.478V738.064H219.118V725.478H217.97ZM212.496 726.444C210.634 726.444 209.304 728.152 209.304 730.826C209.304 733.5 210.634 735.208 212.496 735.208C214.358 735.208 215.688 733.5 215.688 730.826C215.688 728.152 214.358 726.444 212.496 726.444ZM212.496 727.48C213.714 727.48 214.582 728.796 214.582 730.826C214.582 732.87 213.714 734.186 212.496 734.186C211.264 734.186 210.396 732.87 210.396 730.826C210.396 728.796 211.264 727.48 212.496 727.48ZM227.391 737.14C225.417 737.14 224.255 736.65 224.255 735.796C224.255 734.942 225.417 734.452 227.391 734.452C229.351 734.452 230.527 734.942 230.527 735.796C230.527 736.65 229.351 737.14 227.391 737.14ZM227.391 733.556C224.703 733.556 223.093 734.354 223.093 735.796C223.093 737.238 224.703 738.022 227.391 738.022C230.093 738.022 231.689 737.238 231.689 735.796C231.689 734.354 230.093 733.556 227.391 733.556ZM225.655 730.224C226.173 730.308 226.761 730.364 227.391 730.364C228.035 730.364 228.623 730.308 229.141 730.224V731.694H225.655V730.224ZM224.157 728.04C224.157 727.13 225.389 726.598 227.391 726.598C229.393 726.598 230.625 727.13 230.625 728.04C230.625 728.936 229.393 729.482 227.391 729.482C225.389 729.482 224.157 728.936 224.157 728.04ZM230.275 731.694V729.916C231.241 729.524 231.801 728.88 231.801 728.04C231.801 726.57 230.121 725.702 227.391 725.702C224.675 725.702 222.981 726.57 222.981 728.04C222.981 728.894 223.527 729.524 224.521 729.93V731.694H221.707V732.618H233.075V731.694H230.275ZM238.281 734.284C237.147 734.284 236.321 733.472 236.321 732.352C236.321 731.218 237.147 730.406 238.281 730.406C239.429 730.406 240.255 731.218 240.255 732.352C240.255 733.472 239.429 734.284 238.281 734.284ZM238.281 729.454C236.517 729.454 235.243 730.658 235.243 732.352C235.243 734.06 236.517 735.236 238.281 735.236C240.073 735.236 241.347 734.06 241.347 732.352C241.347 730.658 240.073 729.454 238.281 729.454ZM238.841 725.632H237.693V727.494H234.529V728.418H241.935V727.494H238.841V725.632ZM246.331 730.644H244.273V725.492H243.125V738.036H244.273V731.61H246.331V730.644ZM253.82 732.254C253.904 731.82 253.96 731.344 253.96 730.826C253.96 730.252 253.89 729.72 253.778 729.23H256.676V732.254H253.82ZM250.838 734.186C249.634 734.186 248.794 732.87 248.794 730.826C248.794 728.796 249.634 727.48 250.838 727.48C252.028 727.48 252.882 728.796 252.882 730.826C252.882 732.87 252.028 734.186 250.838 734.186ZM256.676 725.478V728.292H253.456C252.924 727.116 252 726.444 250.838 726.444C249.004 726.444 247.702 728.152 247.702 730.826C247.702 733.5 249.004 735.208 250.838 735.208C252.042 735.208 253.022 734.466 253.54 733.192H256.676V738.064H257.824V725.478H256.676ZM272.958 725.478V738.064H274.106V725.478H272.958ZM267.484 726.444C265.622 726.444 264.292 728.152 264.292 730.826C264.292 733.5 265.622 735.208 267.484 735.208C269.346 735.208 270.676 733.5 270.676 730.826C270.676 728.152 269.346 726.444 267.484 726.444ZM267.484 727.48C268.702 727.48 269.57 728.796 269.57 730.826C269.57 732.87 268.702 734.186 267.484 734.186C266.252 734.186 265.384 732.87 265.384 730.826C265.384 728.796 266.252 727.48 267.484 727.48ZM282.393 737.14C280.405 737.14 279.243 736.65 279.243 735.768C279.243 734.886 280.405 734.396 282.393 734.396C284.353 734.396 285.515 734.886 285.515 735.768C285.515 736.65 284.353 737.14 282.393 737.14ZM282.393 733.5C279.705 733.5 278.081 734.312 278.081 735.768C278.081 737.224 279.705 738.036 282.393 738.036C285.053 738.036 286.677 737.224 286.677 735.768C286.677 734.312 285.053 733.5 282.393 733.5ZM282.967 731.68V730.224H286.747V729.3H279.285V726.976H286.663V726.052H278.137V730.224H281.819V731.68H276.709V732.604H288.077V731.68H282.967ZM293.27 734.284C292.136 734.284 291.31 733.472 291.31 732.352C291.31 731.218 292.136 730.406 293.27 730.406C294.418 730.406 295.244 731.218 295.244 732.352C295.244 733.472 294.418 734.284 293.27 734.284ZM293.27 729.454C291.506 729.454 290.232 730.658 290.232 732.352C290.232 734.06 291.506 735.236 293.27 735.236C295.062 735.236 296.336 734.06 296.336 732.352C296.336 730.658 295.062 729.454 293.27 729.454ZM293.83 725.632H292.682V727.494H289.518V728.418H296.924V727.494H293.83V725.632ZM301.32 730.644H299.262V725.492H298.114V738.036H299.262V731.61H301.32V730.644ZM306.191 726.668H305.085V729.062C305.085 731.218 304.049 733.472 302.327 734.48L303.041 735.334C304.287 734.564 305.197 733.15 305.645 731.484C306.093 733.01 306.933 734.34 308.123 735.068L308.781 734.172C307.129 733.164 306.191 731.036 306.191 729.02V726.668ZM309.495 729.986H307.423V730.938H309.495V737.42H310.573V725.758H309.495V729.986ZM312.043 725.478V738.036H313.135V725.478H312.043ZM4.676 748.52C5.194 748.646 5.796 748.716 6.412 748.716C7.042 748.716 7.644 748.646 8.176 748.52V751.474H4.676V748.52ZM6.412 743.172C8.428 743.172 9.884 744.096 9.884 745.496C9.884 746.896 8.428 747.82 6.412 747.82C4.396 747.82 2.954 746.896 2.954 745.496C2.954 744.096 4.396 743.172 6.412 743.172ZM9.324 751.474V748.072C10.36 747.526 10.976 746.63 10.976 745.496C10.976 743.536 9.086 742.276 6.412 742.276C3.752 742.276 1.848 743.536 1.848 745.496C1.848 746.63 2.478 747.54 3.528 748.086V751.474H0.728V752.426H12.138V751.474H9.324ZM13.8633 752.337C13.8633 752.118 13.9271 751.936 14.0547 751.79C14.1868 751.644 14.3828 751.571 14.6426 751.571C14.9023 751.571 15.0983 751.644 15.2305 751.79C15.3672 751.936 15.4355 752.118 15.4355 752.337C15.4355 752.547 15.3672 752.722 15.2305 752.863C15.0983 753.005 14.9023 753.075 14.6426 753.075C14.3828 753.075 14.1868 753.005 14.0547 752.863C13.9271 752.722 13.8633 752.547 13.8633 752.337Z" fill="black"/>
<rect x="11" y="312" width="5" height="53.1429" fill="url(#paint0_linear)"/>
<path d="M13.5 372L6.13879 359.25L20.8612 359.25L13.5 372Z" fill="#FF0000"/>
<defs>
<linearGradient id="paint0_linear" x1="13.5" y1="312" x2="13.5" y2="365.143" gradientUnits="userSpaceOnUse">
<stop stop-color="#FF0000" stop-opacity="0"/>
<stop offset="0.546875" stop-color="#FF0000"/>
</linearGradient>
<clipPath id="clip0">
<rect width="315" height="330" fill="white"/>
</clipPath>
</defs>
</svg>
