<svg width="315" height="732" viewBox="0 0 315 732" fill="none" xmlns="http://www.w3.org/2000/svg">
<g clip-path="url(#clip0)">
<mask id="mask0" mask-type="alpha" maskUnits="userSpaceOnUse" x="0" y="0" width="180" height="330">
<path d="M179.053 0H0V329.072H179.053V0Z" fill="#EDEAE6"/>
</mask>
<g mask="url(#mask0)">
<path d="M179.053 0H20C8.9543 0 0 8.95429 0 20V329.072H179.053V0Z" fill="#EDEAE6"/>
<path d="M56.1472 186.286H-48.5212H-65.7633H-118.042C-120.032 186.286 -121.579 187.864 -121.579 189.892V368.515C-121.579 370.544 -120.032 372.122 -118.042 372.122H-48.5212C-46.5317 372.122 -44.9844 370.544 -44.9844 368.515V281.965H56.1472C58.1367 281.965 59.6841 280.387 59.6841 278.359V189.892C59.7946 187.864 58.1367 186.286 56.1472 186.286Z" fill="#84A359"/>
<path d="M256.2 186.286H151.532H134.289H82.0105C80.021 186.286 78.4736 187.864 78.4736 189.892V368.515C78.4736 370.544 80.021 372.122 82.0105 372.122H151.532C153.521 372.122 155.068 370.544 155.068 368.515V281.965H256.2C258.189 281.965 259.737 280.387 259.737 278.359V189.892C259.847 187.864 258.189 186.286 256.2 186.286Z" fill="#84A359"/>
<path d="M130.421 99.0202V146.223C130.421 147.906 131.21 149.5 132.525 150.563L137.959 154.814C151.808 165.707 167.762 173.5 184.854 177.751L194.408 180.142C197.827 181.028 201.158 178.371 201.158 174.829V129.485C201.158 127.36 200.018 125.5 198.177 124.526L138.397 94.2379C134.628 92.2009 130.421 94.8578 130.421 99.0202Z" fill="#84A359"/>
<path d="M-10.8491 95.3338L7.55125 99.1184C9.79926 99.5585 11.631 97.2701 10.8816 94.9817L9.2997 90.2289C5.88605 80.1952 5.46976 69.3694 8.05081 59.0716L8.46711 57.5754C8.71688 56.5192 8.46711 55.375 7.71777 54.5829L-8.18483 36.9799C-10.0165 35.0436 -13.2637 36.3638 -13.2637 39.1803V92.2532C-13.2637 93.7495 -12.2646 95.0697 -10.8491 95.3338Z" fill="#84A359"/>
<path d="M28.2056 116.344L14.1554 106.339C13.4742 105.9 12.793 105.549 12.0266 105.373L-6.45148 101.511C-9.94273 100.897 -13.2637 103.706 -13.2637 107.392V121.347C-13.2637 124.156 -11.0497 126.35 -8.40998 126.35H6.06593V146.537H-8.40998C-11.1349 146.537 -13.2637 148.819 -13.2637 151.54V173.219C-13.2637 176.466 -10.7091 179.187 -7.47331 179.187H18.0724C20.0309 179.187 21.9043 178.134 22.9261 176.466L34.3365 158.122C37.9129 152.33 39.8714 145.571 39.7863 138.638C39.7011 129.773 35.3584 121.435 28.2056 116.344Z" fill="#84A359"/>
<path d="M105.837 -2.11548C100.274 -0.708667 96.3621 4.30311 96.3621 10.1062V20.6573C96.3621 27.6035 90.7989 33.2307 83.9319 33.2307H47.9454C37.4276 33.2307 27.4313 38.0667 20.8251 46.4196C15.8704 52.6624 13.2627 60.3998 13.2627 68.3132V75.3472C13.2627 83.3485 15.9573 91.1739 20.912 97.3287L29.8652 108.495C30.039 108.671 30.2129 108.847 30.2998 109.023L42.643 122.827C47.5108 128.279 48.9885 135.752 47.0761 142.874C45.9461 147.007 46.9892 151.403 49.8577 154.568L53.5085 158.701C57.4201 163.185 65.504 166.79 71.4149 166.79C87.4089 165.295 102.099 157.294 112.182 144.545C119.136 135.752 123.482 125.113 124.699 113.947L125.047 110.43C126.09 101.285 124.96 92.1411 121.918 83.4364L115.833 66.2909C115.572 65.4995 115.312 64.7082 115.225 63.8289C114.008 56.0915 120.005 49.4091 127.481 49.4091H159.99C166.857 49.4091 172.421 43.7818 172.421 36.8357V-2.20341C172.421 -4.57741 171.725 -6.86348 170.595 -8.70992C168.401 -12.4965 114.136 -4.18245 105.837 -2.11548Z" fill="#84A359"/>
<path d="M157.5 28.1739C160.247 28.1739 162.474 25.9034 162.474 23.1026C162.474 20.3018 160.247 18.0312 157.5 18.0312C154.753 18.0312 152.526 20.3018 152.526 23.1026C152.526 25.9034 154.753 28.1739 157.5 28.1739Z" fill="#B5B758"/>
<path d="M64.6575 48.46C66.794 48.46 68.5259 46.4418 68.5259 43.9522C68.5259 41.4626 66.794 39.4443 64.6575 39.4443C62.521 39.4443 60.7891 41.4626 60.7891 43.9522C60.7891 46.4418 62.521 48.46 64.6575 48.46Z" fill="#B5B758"/>
<path d="M29.2891 57.4756C32.036 57.4756 34.2628 55.4574 34.2628 52.9678C34.2628 50.4782 32.036 48.46 29.2891 48.46C26.5422 48.46 24.3154 50.4782 24.3154 52.9678C24.3154 55.4574 26.5422 57.4756 29.2891 57.4756Z" fill="#B5B758"/>
<path d="M85.6573 160.028C88.4042 160.028 90.631 158.01 90.631 155.521C90.631 153.031 88.4042 151.013 85.6573 151.013C82.9104 151.013 80.6836 153.031 80.6836 155.521C80.6836 158.01 82.9104 160.028 85.6573 160.028Z" fill="#B5B758"/>
<path d="M100.579 157.774C103.021 157.774 105 155.504 105 152.703C105 149.902 103.021 147.632 100.579 147.632C98.1376 147.632 96.1582 149.902 96.1582 152.703C96.1582 155.504 98.1376 157.774 100.579 157.774Z" fill="#B5B758"/>
<path d="M108.316 13.5235C110.757 13.5235 112.737 11.5053 112.737 9.01565C112.737 6.52604 110.757 4.50781 108.316 4.50781C105.874 4.50781 103.895 6.52604 103.895 9.01565C103.895 11.5053 105.874 13.5235 108.316 13.5235Z" fill="#B5B758"/>
<path d="M1.10465 56.3487C3.54633 56.3487 5.5257 54.0782 5.5257 51.2774C5.5257 48.4766 3.54633 46.2061 1.10465 46.2061C-1.33703 46.2061 -3.31641 48.4766 -3.31641 51.2774C-3.31641 54.0782 -1.33703 56.3487 1.10465 56.3487Z" fill="#B5B758"/>
<path d="M4.97368 78.8877C7.72057 78.8877 9.94737 76.8695 9.94737 74.3799C9.94737 71.8903 7.72057 69.8721 4.97368 69.8721C2.22679 69.8721 0 71.8903 0 74.3799C0 76.8695 2.22679 78.8877 4.97368 78.8877Z" fill="#B5B758"/>
<path d="M11.0529 116.077C13.4946 116.077 15.4739 113.807 15.4739 111.006C15.4739 108.205 13.4946 105.935 11.0529 105.935C8.61121 105.935 6.63184 108.205 6.63184 111.006C6.63184 113.807 8.61121 116.077 11.0529 116.077Z" fill="#B5B758"/>
<path d="M24.8682 143.124C27.6151 143.124 29.8419 141.106 29.8419 138.616C29.8419 136.127 27.6151 134.108 24.8682 134.108C22.1213 134.108 19.8945 136.127 19.8945 138.616C19.8945 141.106 22.1213 143.124 24.8682 143.124Z" fill="#B5B758"/>
<path d="M7.18365 163.409C9.93054 163.409 12.1573 161.139 12.1573 158.338C12.1573 155.537 9.93054 153.267 7.18365 153.267C4.43676 153.267 2.20996 155.537 2.20996 158.338C2.20996 161.139 4.43676 163.409 7.18365 163.409Z" fill="#B5B758"/>
<path d="M-0.552684 153.267C2.19421 153.267 4.421 151.248 4.421 148.759C4.421 146.269 2.19421 144.251 -0.552684 144.251C-3.29957 144.251 -5.52637 146.269 -5.52637 148.759C-5.52637 151.248 -3.29957 153.267 -0.552684 153.267Z" fill="#B5B758"/>
<path d="M64.6575 130.728C66.794 130.728 68.5259 128.457 68.5259 125.656C68.5259 122.855 66.794 120.585 64.6575 120.585C62.521 120.585 60.7891 122.855 60.7891 125.656C60.7891 128.457 62.521 130.728 64.6575 130.728Z" fill="#B5B758"/>
<path d="M38.6837 100.3C41.1254 100.3 43.1048 98.0294 43.1048 95.2285C43.1048 92.4277 41.1254 90.1572 38.6837 90.1572C36.2421 90.1572 34.2627 92.4277 34.2627 95.2285C34.2627 98.0294 36.2421 100.3 38.6837 100.3Z" fill="#B5B758"/>
<path d="M43.6573 116.077C46.4042 116.077 48.631 113.807 48.631 111.006C48.631 108.205 46.4042 105.935 43.6573 105.935C40.9104 105.935 38.6836 108.205 38.6836 111.006C38.6836 113.807 40.9104 116.077 43.6573 116.077Z" fill="#B5B758"/>
<path d="M105.553 76.6339C108.3 76.6339 110.526 74.3633 110.526 71.5625C110.526 68.7617 108.3 66.4912 105.553 66.4912C102.806 66.4912 100.579 68.7617 100.579 71.5625C100.579 74.3633 102.806 76.6339 105.553 76.6339Z" fill="#B5B758"/>
<path d="M104.447 57.4756C107.194 57.4756 109.421 55.4574 109.421 52.9678C109.421 50.4782 107.194 48.46 104.447 48.46C101.7 48.46 99.4736 50.4782 99.4736 52.9678C99.4736 55.4574 101.7 57.4756 104.447 57.4756Z" fill="#B5B758"/>
<path d="M116.606 109.315C119.352 109.315 121.579 107.297 121.579 104.808C121.579 102.318 119.352 100.3 116.606 100.3C113.859 100.3 111.632 102.318 111.632 104.808C111.632 107.297 113.859 109.315 116.606 109.315Z" fill="#B5B758"/>
<path d="M109.974 105.935C112.721 105.935 114.947 103.664 114.947 100.863C114.947 98.0625 112.721 95.792 109.974 95.792C107.227 95.792 105 98.0625 105 100.863C105 103.664 107.227 105.935 109.974 105.935Z" fill="#507146"/>
<path d="M85.6573 83.3955C88.4042 83.3955 90.631 81.6296 90.631 79.4512C90.631 77.2728 88.4042 75.5068 85.6573 75.5068C82.9104 75.5068 80.6836 77.2728 80.6836 79.4512C80.6836 81.6296 82.9104 83.3955 85.6573 83.3955Z" fill="#507146"/>
<path d="M35.3683 56.3487C37.81 56.3487 39.7894 54.0782 39.7894 51.2774C39.7894 48.4766 37.81 46.2061 35.3683 46.2061C32.9266 46.2061 30.9473 48.4766 30.9473 51.2774C30.9473 54.0782 32.9266 56.3487 35.3683 56.3487Z" fill="#507146"/>
<path d="M-0.552684 89.0303C2.19421 89.0303 4.421 87.0121 4.421 84.5225C4.421 82.0329 2.19421 80.0146 -0.552684 80.0146C-3.29957 80.0146 -5.52637 82.0329 -5.52637 84.5225C-5.52637 87.0121 -3.29957 89.0303 -0.552684 89.0303Z" fill="#507146"/>
<path d="M92.2891 157.774C95.036 157.774 97.2628 155.504 97.2628 152.703C97.2628 149.902 95.036 147.632 92.2891 147.632C89.5422 147.632 87.3154 149.902 87.3154 152.703C87.3154 155.504 89.5422 157.774 92.2891 157.774Z" fill="#507146"/>
<path d="M49.1836 126.22C51.9305 126.22 54.1573 123.949 54.1573 121.148C54.1573 118.348 51.9305 116.077 49.1836 116.077C46.4368 116.077 44.21 118.348 44.21 121.148C44.21 123.949 46.4368 126.22 49.1836 126.22Z" fill="#507146"/>
<path d="M38.6837 109.315C41.1254 109.315 43.1048 107.297 43.1048 104.808C43.1048 102.318 41.1254 100.3 38.6837 100.3C36.2421 100.3 34.2627 102.318 34.2627 104.808C34.2627 107.297 36.2421 109.315 38.6837 109.315Z" fill="#507146"/>
<path d="M23.7627 153.267C26.5096 153.267 28.7364 150.996 28.7364 148.195C28.7364 145.395 26.5096 143.124 23.7627 143.124C21.0159 143.124 18.7891 145.395 18.7891 148.195C18.7891 150.996 21.0159 153.267 23.7627 153.267Z" fill="#507146"/>
<path d="M19.3419 169.044C22.0887 169.044 24.3155 166.773 24.3155 163.973C24.3155 161.172 22.0887 158.901 19.3419 158.901C16.595 158.901 14.3682 161.172 14.3682 163.973C14.3682 166.773 16.595 169.044 19.3419 169.044Z" fill="#507146"/>
<path d="M4.97368 116.077C7.72057 116.077 9.94737 114.059 9.94737 111.569C9.94737 109.08 7.72057 107.062 4.97368 107.062C2.22679 107.062 0 109.08 0 111.569C0 114.059 2.22679 116.077 4.97368 116.077Z" fill="#507146"/>
<path d="M132.631 146.505C135.073 146.505 137.052 144.739 137.052 142.561C137.052 140.382 135.073 138.616 132.631 138.616C130.189 138.616 128.21 140.382 128.21 142.561C128.21 144.739 130.189 146.505 132.631 146.505Z" fill="#B5B758"/>
<path d="M139.263 137.489C141.705 137.489 143.684 135.471 143.684 132.981C143.684 130.492 141.705 128.474 139.263 128.474C136.821 128.474 134.842 130.492 134.842 132.981C134.842 135.471 136.821 137.489 139.263 137.489Z" fill="#B5B758"/>
<path d="M139.263 155.521C141.705 155.521 143.684 153.25 143.684 150.449C143.684 147.648 141.705 145.378 139.263 145.378C136.821 145.378 134.842 147.648 134.842 150.449C134.842 153.25 136.821 155.521 139.263 155.521Z" fill="#507146"/>
<path d="M108.868 145.378C111.615 145.378 113.842 143.107 113.842 140.307C113.842 137.506 111.615 135.235 108.868 135.235C106.121 135.235 103.895 137.506 103.895 140.307C103.895 143.107 106.121 145.378 108.868 145.378Z" fill="#507146"/>
<path d="M121.026 120.585C123.773 120.585 126 118.567 126 116.077C126 113.588 123.773 111.569 121.026 111.569C118.28 111.569 116.053 113.588 116.053 116.077C116.053 118.567 118.28 120.585 121.026 120.585Z" fill="#507146"/>
<path d="M121.026 93.5381C123.773 93.5381 126 91.2676 126 88.4668C126 85.666 123.773 83.3955 121.026 83.3955C118.28 83.3955 116.053 85.666 116.053 88.4668C116.053 91.2676 118.28 93.5381 121.026 93.5381Z" fill="#507146"/>
<path d="M108.316 111.569C110.757 111.569 112.737 109.551 112.737 107.062C112.737 104.572 110.757 102.554 108.316 102.554C105.874 102.554 103.895 104.572 103.895 107.062C103.895 109.551 105.874 111.569 108.316 111.569Z" fill="#849258"/>
<path d="M4.97368 155.521C7.72057 155.521 9.94737 153.25 9.94737 150.449C9.94737 147.648 7.72057 145.378 4.97368 145.378C2.22679 145.378 0 147.648 0 150.449C0 153.25 2.22679 155.521 4.97368 155.521Z" fill="#849258"/>
<path d="M-3.86811 73.253C-1.12122 73.253 1.10557 70.9825 1.10557 68.1817C1.10557 65.3809 -1.12122 63.1104 -3.86811 63.1104C-6.615 63.1104 -8.8418 65.3809 -8.8418 68.1817C-8.8418 70.9825 -6.615 73.253 -3.86811 73.253Z" fill="#849258"/>
<path d="M113.289 83.3955C115.426 83.3955 117.158 81.6296 117.158 79.4512C117.158 77.2728 115.426 75.5068 113.289 75.5068C111.153 75.5068 109.421 77.2728 109.421 79.4512C109.421 81.6296 111.153 83.3955 113.289 83.3955Z" fill="#849258"/>
<path d="M119.921 101.427C122.668 101.427 124.895 99.1563 124.895 96.3555C124.895 93.5547 122.668 91.2842 119.921 91.2842C117.174 91.2842 114.947 93.5547 114.947 96.3555C114.947 99.1563 117.174 101.427 119.921 101.427Z" fill="#849258"/>
<path d="M114.947 137.489C117.389 137.489 119.368 135.471 119.368 132.981C119.368 130.492 117.389 128.474 114.947 128.474C112.506 128.474 110.526 130.492 110.526 132.981C110.526 135.471 112.506 137.489 114.947 137.489Z" fill="#849258"/>
<path d="M111.079 20.2852C113.826 20.2852 116.053 18.267 116.053 15.7774C116.053 13.2878 113.826 11.2695 111.079 11.2695C108.332 11.2695 106.105 13.2878 106.105 15.7774C106.105 18.267 108.332 20.2852 111.079 20.2852Z" fill="#849258"/>
<path d="M21.5528 178.06C24.2997 178.06 26.5265 175.789 26.5265 172.988C26.5265 170.187 24.2997 167.917 21.5528 167.917C18.8059 167.917 16.5791 170.187 16.5791 172.988C16.5791 175.789 18.8059 178.06 21.5528 178.06Z" fill="#849258"/>
<path d="M52.5003 155.521C54.6367 155.521 56.3687 153.25 56.3687 150.449C56.3687 147.648 54.6367 145.378 52.5003 145.378C50.3638 145.378 48.6318 147.648 48.6318 150.449C48.6318 153.25 50.3638 155.521 52.5003 155.521Z" fill="#849258"/>
<path d="M80.6838 169.044C83.1254 169.044 85.1048 166.773 85.1048 163.973C85.1048 161.172 83.1254 158.901 80.6838 158.901C78.2421 158.901 76.2627 161.172 76.2627 163.973C76.2627 166.773 78.2421 169.044 80.6838 169.044Z" fill="#849258"/>
<path d="M72.3946 167.917C75.1415 167.917 77.3683 165.647 77.3683 162.846C77.3683 160.045 75.1415 157.774 72.3946 157.774C69.6477 157.774 67.4209 160.045 67.4209 162.846C67.4209 165.647 69.6477 167.917 72.3946 167.917Z" fill="#849258"/>
<path d="M44.7627 111.569C47.5096 111.569 49.7364 109.299 49.7364 106.498C49.7364 103.697 47.5096 101.427 44.7627 101.427C42.0159 101.427 39.7891 103.697 39.7891 106.498C39.7891 109.299 42.0159 111.569 44.7627 111.569Z" fill="#849258"/>
</g>
<path d="M1.5 328.86V201.348H177.5V328.86H1.5Z" fill="white" stroke="black" stroke-width="3" stroke-miterlimit="10"/>
<path d="M208.956 17.9684H210.456V16.4684V1.5H313.5V150.425H164.481V120.831V119.331H162.981H148.5V17.9684H208.956Z" fill="white" stroke="black" stroke-width="3" stroke-miterlimit="10"/>
<path d="M243.561 75.6074H230.141V102.016H243.561V75.6074Z" fill="black"/>
<path d="M195.423 75.6074H182.003V102.016H195.423V75.6074Z" fill="black"/>
<path d="M96.5497 257.124H83.1299V283.532H96.5497V257.124Z" fill="black"/>
<path d="M35.6601 257.124H22.2402V283.532H35.6601V257.124Z" fill="black"/>
<path d="M28.1828 268.383C27.6486 268.383 27.248 268.792 27.248 269.406V271.727C27.248 272.204 27.9157 272.204 27.9157 271.727V269.611H28.0492V275.548C28.0492 276.162 28.9172 276.162 28.9172 275.548V272.068H29.0507V275.548C29.0507 276.162 29.9187 276.162 29.9187 275.548V269.611H30.0522V271.727C30.0522 272.204 30.7199 272.204 30.7199 271.727V269.406C30.7199 268.929 30.3193 268.383 29.7851 268.383H28.1828Z" fill="white"/>
<path d="M28.9834 268.111C29.389 268.111 29.7179 267.775 29.7179 267.36C29.7179 266.945 29.389 266.609 28.9834 266.609C28.5778 266.609 28.249 266.945 28.249 267.36C28.249 267.775 28.5778 268.111 28.9834 268.111Z" fill="white"/>
<path d="M130.668 257.124H117.248V295.815H130.668V257.124Z" fill="black"/>
<path d="M127.931 280.189V274.32C127.931 273.706 127.464 273.229 126.863 273.229H121.121C120.52 273.229 120.053 273.706 120.053 274.32V280.189C120.053 280.803 120.52 281.281 121.121 281.281H126.863C127.464 281.281 127.931 280.871 127.931 280.189ZM127.063 280.394H120.921V274.184H127.063V280.394Z" fill="white"/>
<path d="M124.926 269.474C124.926 268.997 125.594 268.997 125.594 269.474V271.385L125.928 270.976C126.195 270.703 126.596 271.112 126.329 271.385L125.461 272.409C125.327 272.545 125.127 272.545 124.993 272.409L124.125 271.385C123.858 271.044 124.326 270.703 124.526 270.976L124.86 271.453L124.926 269.474Z" fill="white"/>
<path d="M122.389 272.136C122.389 272.614 123.057 272.614 123.057 272.136V270.226L123.391 270.635C123.658 270.908 124.059 270.499 123.791 270.226L122.924 269.202C122.79 269.065 122.59 269.065 122.456 269.202L121.588 270.226C121.321 270.567 121.788 270.908 121.989 270.635L122.323 270.157L122.389 272.136Z" fill="white"/>
<path d="M125.728 276.026H124.593C124.46 276.026 124.326 276.163 124.326 276.299V277.732C124.326 277.869 124.393 277.937 124.526 277.937C124.526 277.937 124.593 277.937 124.66 277.937V279.779C124.66 280.121 125.127 280.121 125.127 279.779V277.937H125.194V279.779C125.194 280.121 125.661 280.121 125.661 279.779V277.937C125.728 277.937 125.795 277.937 125.795 277.937C125.929 277.937 125.995 277.869 125.995 277.732V276.299C125.995 276.163 125.929 276.026 125.728 276.026Z" fill="white"/>
<path d="M125.194 275.889C125.379 275.889 125.528 275.737 125.528 275.548C125.528 275.36 125.379 275.207 125.194 275.207C125.01 275.207 124.86 275.36 124.86 275.548C124.86 275.737 125.01 275.889 125.194 275.889Z" fill="white"/>
<path d="M123.325 276.026H122.19C122.056 276.026 121.923 276.163 121.923 276.299V277.732C121.923 277.869 121.99 277.937 122.123 277.937C122.123 277.937 122.19 277.937 122.257 277.937V279.779C122.257 280.121 122.724 280.121 122.724 279.779V277.937H122.791V279.779C122.791 280.121 123.258 280.121 123.258 279.779V277.937C123.325 277.937 123.392 277.937 123.392 277.937C123.525 277.937 123.592 277.869 123.592 277.732V276.299C123.592 276.163 123.458 276.026 123.325 276.026Z" fill="white"/>
<path d="M122.791 275.889C122.975 275.889 123.125 275.737 123.125 275.548C123.125 275.36 122.975 275.207 122.791 275.207C122.606 275.207 122.457 275.36 122.457 275.548C122.457 275.737 122.606 275.889 122.791 275.889Z" fill="white"/>
<path d="M90.0079 268.111C90.4084 268.111 90.7423 267.769 90.7423 267.36C90.7423 266.951 90.4084 266.609 90.0079 266.609C89.6073 266.609 89.2734 266.951 89.2734 267.36C89.2734 267.769 89.6073 268.111 90.0079 268.111Z" fill="white"/>
<path d="M89.8744 272.956V275.617C89.8744 276.095 89.2067 276.095 89.2067 275.617V272.956H88.272L89.2735 269.407H89.14L88.5391 271.386C88.4055 271.796 87.8046 271.659 87.9382 271.181L88.6058 268.998C88.6726 268.725 89.0064 268.315 89.5406 268.315H90.0079H90.5421C91.0762 268.315 91.41 268.793 91.4768 268.998L92.1445 271.181C92.278 271.659 91.6771 271.864 91.5436 271.386L90.9427 269.407H90.7424L91.7439 272.956H90.8091V275.617C90.8091 276.095 90.1415 276.095 90.1415 275.617V272.956H89.8744Z" fill="white"/>
<path d="M204.436 199.46H183.738V221.364H204.436V199.46Z" fill="black"/>
<path d="M197.96 215.427V209.559C197.96 208.944 197.493 208.467 196.892 208.467H191.15C190.549 208.467 190.082 208.944 190.082 209.559V215.427C190.082 216.041 190.549 216.519 191.15 216.519H196.892C197.493 216.519 197.96 216.11 197.96 215.427ZM197.092 215.632H190.95V209.422H197.092V215.632Z" fill="white"/>
<path d="M195.023 204.714C195.023 204.236 195.691 204.236 195.691 204.714V206.624L196.025 206.215C196.292 205.942 196.692 206.351 196.425 206.624L195.557 207.648C195.424 207.785 195.223 207.785 195.09 207.648L194.222 206.624C193.955 206.283 194.422 205.942 194.623 206.215L194.956 206.693L195.023 204.714Z" fill="white"/>
<path d="M192.419 207.375C192.419 207.853 193.086 207.853 193.086 207.375V205.465L193.42 205.874C193.687 206.147 194.088 205.738 193.821 205.465L192.953 204.441C192.819 204.305 192.619 204.305 192.485 204.441L191.617 205.465C191.35 205.806 191.818 206.147 192.018 205.874L192.352 205.397L192.419 207.375Z" fill="white"/>
<path d="M195.824 211.266H194.689C194.555 211.266 194.422 211.402 194.422 211.539V212.972C194.422 213.108 194.489 213.176 194.622 213.176C194.622 213.176 194.689 213.176 194.756 213.176V215.019C194.756 215.36 195.223 215.36 195.223 215.019V213.176H195.29V215.019C195.29 215.36 195.757 215.36 195.757 215.019V213.176C195.824 213.176 195.891 213.176 195.891 213.176C196.024 213.176 196.091 213.108 196.091 212.972V211.539C196.091 211.402 195.957 211.266 195.824 211.266Z" fill="white"/>
<path d="M195.29 211.129C195.474 211.129 195.624 210.976 195.624 210.788C195.624 210.599 195.474 210.446 195.29 210.446C195.106 210.446 194.956 210.599 194.956 210.788C194.956 210.976 195.106 211.129 195.29 211.129Z" fill="white"/>
<path d="M193.421 211.266H192.286C192.152 211.266 192.019 211.402 192.019 211.539V212.972C192.019 213.108 192.085 213.176 192.219 213.176C192.219 213.176 192.286 213.176 192.352 213.176V215.019C192.352 215.36 192.82 215.36 192.82 215.019V213.176H192.887V215.019C192.887 215.36 193.354 215.36 193.354 215.019V213.176C193.421 213.176 193.487 213.176 193.487 213.176C193.621 213.176 193.688 213.108 193.688 212.972V211.539C193.688 211.402 193.554 211.266 193.421 211.266Z" fill="white"/>
<path d="M192.82 211.129C193.004 211.129 193.154 210.976 193.154 210.788C193.154 210.599 193.004 210.446 192.82 210.446C192.636 210.446 192.486 210.599 192.486 210.788C192.486 210.976 192.636 211.129 192.82 211.129Z" fill="white"/>
<path d="M109.636 211.062H78.6572V233.035H109.636V211.062Z" fill="black"/>
<path d="M78.6572 205.809V208.675H112.374V233.036H130.668V208.675V205.809H78.6572Z" fill="black"/>
<path d="M172.421 206.234H133.736V295.264H172.421V206.234Z" fill="#C8A67C"/>
<path d="M58.694 205.809H6.68359V242.521H58.694V205.809Z" fill="#C8A67C"/>
<path d="M98.0189 227.032V221.163C98.0189 220.549 97.5516 220.071 96.9507 220.071H91.2089C90.608 220.071 90.1406 220.549 90.1406 221.163V227.032C90.1406 227.646 90.608 228.123 91.2089 228.123H96.9507C97.5516 228.123 98.0189 227.646 98.0189 227.032ZM97.151 227.236H91.0086V221.027H97.151V227.236Z" fill="white"/>
<path d="M95.0144 214.064C95.0144 213.587 95.682 213.587 95.682 214.064V215.975L96.0158 215.566C96.2829 215.293 96.6835 215.702 96.4164 215.975L95.5485 216.999C95.415 217.135 95.2147 217.135 95.0811 216.999L94.2132 215.975C93.9461 215.634 94.4135 215.293 94.6138 215.566L94.9476 216.043L95.0144 214.064Z" fill="white"/>
<path d="M92.4772 216.725C92.4772 217.203 93.1449 217.203 93.1449 216.725V214.814L93.4787 215.224C93.7458 215.497 94.1464 215.087 93.8793 214.814L93.0114 213.791C92.8778 213.654 92.6775 213.654 92.544 213.791L91.6761 214.814C91.409 215.156 91.8764 215.497 92.0767 215.224L92.4105 214.746L92.4772 216.725Z" fill="white"/>
<path d="M95.8825 222.868H94.7475C94.614 222.868 94.4805 223.005 94.4805 223.141V224.574C94.4805 224.711 94.5472 224.779 94.6808 224.779C94.6808 224.779 94.7475 224.779 94.8143 224.779V226.621C94.8143 226.962 95.2816 226.962 95.2816 226.621V224.711H95.3484V226.553C95.3484 226.894 95.8158 226.894 95.8158 226.553V224.711C95.8825 224.711 95.9493 224.711 95.9493 224.711C96.0828 224.711 96.1496 224.642 96.1496 224.506V223.073C96.1496 222.936 96.0161 222.868 95.8825 222.868Z" fill="white"/>
<path d="M95.2821 222.732C95.4665 222.732 95.6159 222.579 95.6159 222.391C95.6159 222.203 95.4665 222.05 95.2821 222.05C95.0977 222.05 94.9482 222.203 94.9482 222.391C94.9482 222.579 95.0977 222.732 95.2821 222.732Z" fill="white"/>
<path d="M93.4792 222.868H92.3442C92.2107 222.868 92.0771 223.005 92.0771 223.141V224.574C92.0771 224.711 92.1439 224.779 92.2774 224.779C92.2774 224.779 92.3442 224.779 92.411 224.779V226.621C92.411 226.962 92.8783 226.962 92.8783 226.621V224.711H92.9451V226.553C92.9451 226.894 93.4125 226.894 93.4125 226.553V224.711C93.4792 224.711 93.546 224.711 93.546 224.711C93.6795 224.711 93.7463 224.642 93.7463 224.506V223.073C93.6795 222.936 93.6128 222.868 93.4792 222.868Z" fill="white"/>
<path d="M92.8788 222.732C93.0631 222.732 93.2126 222.579 93.2126 222.391C93.2126 222.203 93.0631 222.05 92.8788 222.05C92.6944 222.05 92.5449 222.203 92.5449 222.391C92.5449 222.579 92.6944 222.732 92.8788 222.732Z" fill="white"/>
<path d="M163.224 171.924H199.678V157.73H163.224V171.924Z" fill="black"/>
<path d="M180.667 162.066C181.068 162.066 181.402 161.724 181.402 161.315C181.402 160.906 181.068 160.564 180.667 160.564C180.266 160.564 179.933 160.906 179.933 161.315C179.933 161.724 180.266 162.066 180.667 162.066Z" fill="white"/>
<path d="M185.608 161.383H183.939C183.605 161.383 183.138 161.519 182.871 161.792L181.335 163.362V162.884C181.335 161.929 179.933 161.929 179.933 162.884V164.726L178.598 166.091C178.464 166.228 178.464 166.228 178.197 166.228H177.396C176.595 166.228 176.061 166.978 176.061 167.592C176.061 168.207 176.528 169.025 177.463 169.025C177.463 169.025 178.598 169.025 178.931 169.025C179.265 169.025 179.666 168.889 180 168.548L184.273 164.249C184.339 164.181 184.406 164.112 184.54 164.112C184.54 164.112 185.141 164.112 185.608 164.112C186.142 164.112 186.81 163.498 186.81 162.679C186.877 161.929 186.142 161.383 185.608 161.383ZM185.541 163.498H184.673C184.273 163.498 184.139 163.566 183.939 163.771L179.666 168.138C179.466 168.343 179.265 168.411 178.998 168.411H177.596C177.262 168.411 176.928 168.07 176.928 167.661C176.928 167.251 177.262 167.047 177.529 167.047H178.464C178.731 167.047 178.931 166.978 179.065 166.774L183.405 162.338C183.605 162.133 183.739 162.133 184.072 162.133H185.541C185.875 162.133 186.142 162.543 186.142 162.816C186.142 163.089 185.942 163.498 185.541 163.498Z" fill="white"/>
<path d="M254.954 114.357H268.374V75.6664H254.954V114.357Z" fill="black"/>
<path d="M278.527 113.823H308.369V43.9518H278.527V113.823Z" fill="#DAC452"/>
<path d="M268.397 49.0625H231.943V63.2561H268.397V49.0625Z" fill="black"/>
<path d="M249.37 53.3626C249.771 53.3626 250.105 53.0214 250.105 52.612C250.105 52.2025 249.771 51.8613 249.37 51.8613C248.97 51.8613 248.636 52.2025 248.636 52.612C248.636 53.0214 248.97 53.3626 249.37 53.3626Z" fill="white"/>
<path d="M254.244 52.6797H252.575C252.241 52.6797 251.773 52.8162 251.506 53.0891L249.971 54.6586V54.1809C249.971 53.2256 248.569 53.2256 248.569 54.1809V56.0234L247.233 57.3881C247.1 57.5246 247.1 57.5246 246.833 57.5246H246.032C245.23 57.5246 244.696 58.2752 244.696 58.8894C244.696 59.5035 245.164 60.3224 246.098 60.3224C246.098 60.3224 247.233 60.3224 247.567 60.3224C247.901 60.3224 248.302 60.1859 248.635 59.8447L252.908 55.5457C252.975 55.4775 253.042 55.4092 253.175 55.4092C253.175 55.4092 253.776 55.4092 254.244 55.4092C254.778 55.4092 255.445 54.7951 255.445 53.9762C255.512 53.2256 254.845 52.6797 254.244 52.6797ZM254.177 54.7951H253.309C252.908 54.7951 252.775 54.8633 252.575 55.068L248.302 59.4353C248.101 59.64 247.901 59.7082 247.634 59.7082H246.232C245.898 59.7082 245.564 59.367 245.564 58.9576C245.564 58.5482 245.898 58.3435 246.165 58.3435H247.1C247.367 58.3435 247.567 58.2752 247.701 58.0705L252.04 53.635C252.241 53.4303 252.374 53.4303 252.708 53.4303H254.177C254.511 53.4303 254.778 53.8397 254.778 54.1127C254.778 54.3856 254.644 54.7951 254.177 54.7951Z" fill="white"/>
<path d="M98.553 257.124V285.511H81.0604V257.124H37.7296V285.511H20.237V257.124H6.68359V295.815H115.244V257.124H98.553Z" fill="black"/>
<path d="M187.878 86.8671C187.344 86.8671 186.943 87.2765 186.943 87.8906V90.2108C186.943 90.6884 187.611 90.6884 187.611 90.2108V88.0271H187.745V93.9639C187.745 94.578 188.613 94.578 188.613 93.9639V90.4837H188.746V93.9639C188.746 94.578 189.614 94.578 189.614 93.9639V88.0271H189.748V90.1425C189.748 90.6202 190.415 90.6202 190.415 90.1425V87.8224C190.415 87.3447 190.015 86.7988 189.48 86.7988L187.878 86.8671Z" fill="white"/>
<path d="M188.679 86.6624C189.084 86.6624 189.413 86.3263 189.413 85.9117C189.413 85.4972 189.084 85.1611 188.679 85.1611C188.273 85.1611 187.944 85.4972 187.944 85.9117C187.944 86.3263 188.273 86.6624 188.679 86.6624Z" fill="white"/>
<path d="M170.453 75.6074H153.828V114.298H170.453V75.6074Z" fill="#DAC452"/>
<path d="M178.064 37.7354H153.828V59.0939H178.064V37.7354Z" fill="#DAC452"/>
<path d="M209.043 24.0205H179.934V59.0267H209.043V24.0205Z" fill="black"/>
<path d="M308.369 7.88867H266.369V41.6974H308.369V7.88867Z" fill="#DAC452"/>
<path d="M260.841 7.88867H216.631V41.6974H260.841V7.88867Z" fill="#DAC452"/>
<path d="M265.593 98.7406V92.8721C265.593 92.2579 265.126 91.7803 264.525 91.7803H258.783C258.182 91.7803 257.715 92.2579 257.715 92.8721V98.7406C257.715 99.3547 258.182 99.8324 258.783 99.8324H264.525C265.126 99.7642 265.593 99.3547 265.593 98.7406ZM264.725 98.877H258.583V92.6674H264.725V98.877Z" fill="white"/>
<path d="M262.656 87.9588C262.656 87.4812 263.324 87.4812 263.324 87.9588V89.8695L263.657 89.4601C263.925 89.1871 264.325 89.5966 264.058 89.8695L263.19 90.8931C263.057 91.0296 262.856 91.0296 262.723 90.8931L261.855 89.8695C261.588 89.5283 262.055 89.1871 262.255 89.4601L262.589 89.9378L262.656 87.9588Z" fill="white"/>
<path d="M260.051 90.6879C260.051 91.1656 260.719 91.1656 260.719 90.6879V88.7773L261.053 89.1867C261.32 89.4597 261.721 89.0502 261.453 88.7773L260.586 87.7537C260.452 87.6172 260.252 87.6172 260.118 87.7537L259.25 88.7773C258.983 89.1185 259.451 89.4597 259.651 89.1867L259.985 88.7091L260.051 90.6879Z" fill="white"/>
<path d="M263.457 94.5088H262.322C262.188 94.5088 262.055 94.6453 262.055 94.7817V96.2147C262.055 96.3512 262.121 96.4195 262.255 96.4195C262.255 96.4195 262.322 96.4195 262.389 96.4195V98.2619C262.389 98.6031 262.856 98.6031 262.856 98.2619V96.4195H262.923V98.2619C262.923 98.6031 263.39 98.6031 263.39 98.2619V96.4195C263.457 96.4195 263.524 96.4195 263.524 96.4195C263.657 96.4195 263.724 96.3512 263.724 96.2147V94.7817C263.724 94.6453 263.59 94.5088 263.457 94.5088Z" fill="white"/>
<path d="M262.923 94.3728C263.107 94.3728 263.257 94.2201 263.257 94.0316C263.257 93.8432 263.107 93.6904 262.923 93.6904C262.738 93.6904 262.589 93.8432 262.589 94.0316C262.589 94.2201 262.738 94.3728 262.923 94.3728Z" fill="white"/>
<path d="M261.053 94.5088H259.918C259.785 94.5088 259.651 94.6453 259.651 94.7817V96.2147C259.651 96.3512 259.718 96.4195 259.852 96.4195C259.852 96.4195 259.918 96.4195 259.985 96.4195V98.2619C259.985 98.6031 260.453 98.6031 260.453 98.2619V96.4195H260.519V98.2619C260.519 98.6031 260.987 98.6031 260.987 98.2619V96.4195C261.053 96.4195 261.12 96.4195 261.12 96.4195C261.254 96.4195 261.32 96.3512 261.32 96.2147V94.7817C261.32 94.6453 261.187 94.5088 261.053 94.5088Z" fill="white"/>
<path d="M260.453 94.3728C260.637 94.3728 260.787 94.2201 260.787 94.0316C260.787 93.8432 260.637 93.6904 260.453 93.6904C260.269 93.6904 260.119 93.8432 260.119 94.0316C260.119 94.2201 260.269 94.3728 260.453 94.3728Z" fill="white"/>
<path d="M237.019 86.6624C237.419 86.6624 237.753 86.3212 237.753 85.9117C237.753 85.5023 237.419 85.1611 237.019 85.1611C236.618 85.1611 236.284 85.5023 236.284 85.9117C236.284 86.3212 236.618 86.6624 237.019 86.6624Z" fill="white"/>
<path d="M236.952 91.439V94.1003C236.952 94.578 236.284 94.578 236.284 94.1003V91.439H235.349L236.351 87.8906H236.217L235.616 89.8695C235.483 90.279 234.882 90.1425 235.015 89.6648L235.683 87.4812C235.75 87.2083 236.084 86.7988 236.618 86.7988H237.085H237.619C238.153 86.7988 238.487 87.2765 238.554 87.4812L239.222 89.6648C239.355 90.1425 238.754 90.3472 238.621 89.8695L238.02 87.8906H237.819L238.821 91.439H237.886V94.1003C237.886 94.578 237.219 94.578 237.219 94.1003V91.439H236.952Z" fill="white"/>
<path d="M245.63 75.6074V104.063H228.138V75.6074H197.425V104.063H179.933V75.6074H172.455V114.367H252.974V75.6074H245.63Z" fill="black"/>
<path d="M113.482 26.5586H118.397V25.2908H115.02V23.5543H118.131V22.2866H115.02V20.5536H118.383V19.2859H113.482V26.5586ZM120.859 26.5586L121.398 24.9002H124.023L124.563 26.5586H126.21L123.703 19.2859H121.722L119.211 26.5586H120.859ZM121.789 23.6999L122.684 20.9478H122.741L123.636 23.6999H121.789ZM130.865 21.3775H132.339C132.317 20.0813 131.252 19.1864 129.633 19.1864C128.038 19.1864 126.87 20.0671 126.877 21.3881C126.873 22.4606 127.63 23.0749 128.859 23.3697L129.65 23.5685C130.442 23.7603 130.883 23.9876 130.886 24.4776C130.883 25.0103 130.378 25.3725 129.597 25.3725C128.798 25.3725 128.223 25.0032 128.173 24.2752H126.685C126.724 25.8484 127.85 26.6616 129.615 26.6616C131.391 26.6616 132.435 25.8129 132.438 24.4812C132.435 23.2702 131.522 22.6275 130.258 22.3434L129.604 22.1871C128.972 22.0415 128.443 21.8072 128.454 21.2852C128.454 20.8164 128.869 20.4719 129.622 20.4719C130.357 20.4719 130.808 20.8058 130.865 21.3775ZM133.195 20.5536H135.422V26.5586H136.942V20.5536H139.168V19.2859H133.195V20.5536ZM102.922 32.5536H105.148V38.5586H106.668V32.5536H108.895V31.2859H102.922V32.5536ZM116.24 34.9222C116.24 32.543 114.762 31.1864 112.834 31.1864C110.895 31.1864 109.429 32.543 109.429 34.9222C109.429 37.2908 110.895 38.658 112.834 38.658C114.762 38.658 116.24 37.3015 116.24 34.9222ZM114.681 34.9222C114.681 36.4634 113.949 37.2979 112.834 37.2979C111.715 37.2979 110.987 36.4634 110.987 34.9222C110.987 33.381 111.715 32.5465 112.834 32.5465C113.949 32.5465 114.681 33.381 114.681 34.9222ZM118.742 38.5586H120.241L121.622 33.8036H121.679L123.064 38.5586H124.563L126.644 31.2859H124.964L123.76 36.3498H123.696L122.372 31.2859H120.933L119.605 36.3391H119.545L118.341 31.2859H116.661L118.742 38.5586ZM127.466 38.5586H132.381V37.2908H129.004V35.5543H132.115V34.2866H129.004V32.5536H132.367V31.2859H127.466V38.5586ZM133.59 38.5586H135.127V35.9805H136.249L137.627 38.5586H139.325L137.78 35.7319C138.607 35.3768 139.065 34.6559 139.065 33.6616C139.065 32.2163 138.11 31.2859 136.459 31.2859H133.59V38.5586ZM135.127 34.7447V32.543H136.164C137.052 32.543 137.482 32.9371 137.482 33.6616C137.482 34.3825 137.052 34.7447 136.171 34.7447H135.127Z" fill="black"/>
<path d="M187.874 311.862H189.372L190.754 307.107H190.81L192.195 311.862H193.694L195.775 304.59H194.095L192.891 309.653H192.828L191.503 304.59H190.065L188.737 309.643H188.676L187.472 304.59H185.793L187.874 311.862ZM196.598 311.862H201.513V310.595H198.136V308.858H201.246V307.59H198.136V305.857H201.498V304.59H196.598V311.862ZM206.666 306.681H208.14C208.119 305.385 207.053 304.49 205.434 304.49C203.84 304.49 202.671 305.371 202.678 306.692C202.675 307.764 203.431 308.379 204.66 308.673L205.452 308.872C206.244 309.064 206.684 309.291 206.688 309.781C206.684 310.314 206.18 310.676 205.399 310.676C204.6 310.676 204.024 310.307 203.975 309.579H202.487C202.526 311.152 203.651 311.965 205.416 311.965C207.192 311.965 208.236 311.117 208.239 309.785C208.236 308.574 207.323 307.931 206.059 307.647L205.406 307.491C204.774 307.345 204.244 307.111 204.255 306.589C204.255 306.12 204.671 305.776 205.423 305.776C206.158 305.776 206.609 306.109 206.666 306.681ZM208.997 305.857H211.223V311.862H212.743V305.857H214.97V304.59H208.997V305.857ZM185.96 317.857H188.186V323.862H189.706V317.857H191.933V316.59H185.96V317.857ZM199.277 320.226C199.277 317.847 197.8 316.49 195.872 316.49C193.933 316.49 192.466 317.847 192.466 320.226C192.466 322.595 193.933 323.962 195.872 323.962C197.8 323.962 199.277 322.605 199.277 320.226ZM197.718 320.226C197.718 321.767 196.987 322.602 195.872 322.602C194.753 322.602 194.025 321.767 194.025 320.226C194.025 318.685 194.753 317.85 195.872 317.85C196.987 317.85 197.718 318.685 197.718 320.226ZM201.78 323.862H203.278L204.66 319.107H204.717L206.102 323.862H207.6L209.681 316.59H208.002L206.798 321.653H206.734L205.409 316.59H203.971L202.643 321.643H202.582L201.379 316.59H199.699L201.78 323.862ZM210.504 323.862H215.419V322.595H212.042V320.858H215.153V319.59H212.042V317.857H215.405V316.59H210.504V323.862ZM216.627 323.862H218.165V321.284H219.287L220.665 323.862H222.362L220.818 321.036C221.645 320.68 222.103 319.96 222.103 318.965C222.103 317.52 221.148 316.59 219.497 316.59H216.627V323.862ZM218.165 320.048V317.847H219.202C220.09 317.847 220.519 318.241 220.519 318.965C220.519 319.686 220.09 320.048 219.209 320.048H218.165Z" fill="black"/>
<path d="M2.59375 43H25.4063V37.4687H11.9688V37.25L16.6406 32.6719C23.2188 26.6719 24.9844 23.6719 24.9844 20.0312C24.9844 14.4844 20.4531 10.5625 13.5938 10.5625C6.875 10.5625 2.26563 14.5781 2.28125 20.8594H8.70313C8.6875 17.7969 10.625 15.9219 13.5469 15.9219C16.3594 15.9219 18.4531 17.6719 18.4531 20.4844C18.4531 23.0312 16.8906 24.7812 13.9844 27.5781L2.59375 38.125V43ZM30.4961 43H37.2617V29.7812H50.2773V24.2031H37.2617V16.5781H51.6836V11H30.4961V43Z" fill="black"/>
<path d="M149.887 245.891C148.639 245.675 147.955 244.817 147.955 244.007V243.611H147.109V244.007C147.109 244.799 146.419 245.675 145.177 245.891L145.513 246.551C146.473 246.365 147.175 245.825 147.529 245.123C147.883 245.825 148.591 246.359 149.551 246.551L149.887 245.891ZM145.057 247.499V248.141H150.061V247.499H145.057ZM153.475 247.565V246.647H155.047V246.023H151.969V245.447H154.879V244.835H151.969V244.295H155.005V243.665H151.165V246.647H152.683V247.565H150.577V248.207H155.581V247.565H153.475ZM157.2 245.891H158.994V243.755H156.384V244.385H158.184V245.267H156.39V247.541H156.888C157.89 247.541 158.7 247.505 159.6 247.349L159.516 246.707C158.736 246.839 158.04 246.881 157.2 246.887V245.891ZM159.9 243.281V248.825H160.692V243.281H159.9ZM146.437 251.433H147.055V253.869C146.845 253.875 146.641 253.887 146.437 253.887V251.433ZM147.817 251.433H148.291V250.797H145.189V251.433H145.669V253.905C145.453 253.905 145.243 253.905 145.045 253.905L145.129 254.553C146.119 254.547 147.391 254.523 148.555 254.325L148.507 253.755C148.279 253.785 148.051 253.809 147.817 253.821V251.433ZM148.861 250.293V255.819H149.659V250.293H148.861ZM154.207 252.315H151.933V251.745H154.207V252.315ZM154.987 250.497H154.207V251.127H151.933V250.497H151.147V252.945H154.987V250.497ZM155.581 253.467H150.577V254.097H152.665V255.819H153.457V254.097H155.581V253.467ZM159.024 253.401C159.174 252.489 159.174 251.817 159.174 251.283V250.833H156.33V251.463H158.394C158.394 251.955 158.376 252.549 158.25 253.335L159.024 253.401ZM157.818 252.417H157.038V254.049C156.69 254.055 156.354 254.055 156.048 254.055L156.12 254.703C157.08 254.697 158.316 254.673 159.438 254.481L159.396 253.911C158.892 253.971 158.352 254.007 157.818 254.025V252.417ZM161.184 252.507H160.44V250.281H159.648V255.807H160.44V253.167H161.184V252.507Z" fill="black"/>
<path d="M20.6664 219.615H22.3764V218.985H19.8744V222.699H20.3244C21.3324 222.699 21.9924 222.675 22.7364 222.537L22.6584 221.895C22.0284 222.003 21.4584 222.045 20.6664 222.051V219.615ZM23.4624 218.493V220.401H22.1124V221.037H23.4624V224.037H24.2544V218.493H23.4624ZM29.606 221.343H26.528V220.725H29.438V220.113H26.528V219.531H29.564V218.895H25.724V221.967H29.606V221.343ZM25.136 222.741V223.383H30.14V222.741H25.136ZM31.7595 221.097H33.5535V218.961H30.9435V219.591H32.7435V220.473H30.9495V222.747H31.4475C32.4495 222.747 33.2595 222.711 34.1595 222.555L34.0755 221.913C33.2955 222.045 32.5995 222.087 31.7595 222.093V221.097ZM34.4595 218.487V224.031H35.2515V218.487H34.4595ZM37.249 219.015H36.463V222.657H36.955C37.795 222.657 38.713 222.597 39.655 222.399L39.571 221.739C38.761 221.901 37.975 221.961 37.249 221.979V219.015ZM39.997 218.487V224.013H40.789V218.487H39.997ZM42.7806 221.109H44.5566V220.491H42.7806V219.591H44.7846V218.949H41.9886V222.771H42.4686C43.4586 222.771 44.2326 222.747 45.0966 222.615L45.0246 221.985C44.2686 222.099 43.6026 222.129 42.7806 222.135V221.109ZM45.4986 218.493V224.025H46.2966V218.493H45.4986ZM32.7257 228.097C31.4777 227.881 30.7937 227.023 30.7937 226.213V225.817H29.9477V226.213C29.9477 227.005 29.2577 227.881 28.0157 228.097L28.3517 228.757C29.3117 228.571 30.0137 228.031 30.3677 227.329C30.7217 228.031 31.4297 228.565 32.3897 228.757L32.7257 228.097ZM27.8957 229.705V230.347H32.8997V229.705H27.8957ZM34.7293 226.639H35.2993V229.075C35.1073 229.081 34.9153 229.087 34.7293 229.093V226.639ZM36.0613 226.639H36.5353V226.003H33.4873V226.639H33.9613V229.111C33.7453 229.111 33.5353 229.111 33.3433 229.111L33.4273 229.759C34.3693 229.759 35.6233 229.735 36.7453 229.537L36.6973 228.961C36.4933 228.991 36.2773 229.003 36.0613 229.021V226.639ZM38.5453 227.581H37.7413V225.499H36.9493V231.025H37.7413V228.235H38.5453V227.581Z" fill="black"/>
<path d="M287.49 20.4983C286.242 20.2823 285.558 19.4243 285.558 18.6143V18.2183H284.712V18.6143C284.712 19.4063 284.022 20.2823 282.78 20.4983L283.116 21.1583C284.076 20.9723 284.778 20.4323 285.132 19.7303C285.486 20.4323 286.194 20.9663 287.154 21.1583L287.49 20.4983ZM282.66 22.1063V22.7483H287.664V22.1063H282.66ZM290.321 18.3203H289.529V19.1243C289.529 20.1983 289.073 21.2663 288.107 21.6803L288.581 22.3343C289.241 22.0223 289.691 21.4283 289.937 20.6903C290.183 21.3683 290.609 21.9143 291.245 22.2023L291.695 21.5603C290.759 21.1583 290.321 20.1503 290.321 19.1243V18.3203ZM291.965 17.8883V23.4323H292.757V17.8883H291.965ZM278.622 28.5063C278.208 28.5063 277.932 28.0683 277.932 27.2463C277.932 26.4303 278.208 25.9923 278.622 25.9923C279.03 25.9923 279.312 26.4303 279.312 27.2463C279.312 28.0683 279.03 28.5063 278.622 28.5063ZM278.622 25.2783C277.782 25.2783 277.17 26.0343 277.17 27.2463C277.17 28.4643 277.782 29.2263 278.622 29.2263C279.456 29.2263 280.074 28.4643 280.074 27.2463C280.074 26.0343 279.456 25.2783 278.622 25.2783ZM282.27 26.9763H281.466V24.8943H280.674V30.4203H281.466V27.6303H282.27V26.9763ZM283.668 27.4983H285.42V25.3623H282.882V25.9923H284.64V26.8743H282.888V29.1543H283.356C284.316 29.1543 285.078 29.1183 285.906 28.9683L285.834 28.3263C285.114 28.4523 284.46 28.4943 283.668 28.5003V27.4983ZM287.79 26.9763H286.998V24.8883H286.206V30.4323H286.998V27.6303H287.79V26.9763ZM288.449 25.3923V29.1063H291.107V25.3923H288.449ZM290.327 26.0163V28.4823H289.229V26.0163H290.327ZM291.965 24.8943V30.4323H292.757V24.8943H291.965ZM294.203 28.3203C295.163 28.1463 295.853 27.6603 296.201 27.0063C296.549 27.6483 297.251 28.1223 298.223 28.2903L298.523 27.6663C297.275 27.4803 296.621 26.7483 296.615 25.9863H298.277V25.3623H294.113V25.9863H295.775C295.769 26.7483 295.115 27.4983 293.897 27.6903L294.203 28.3203ZM293.699 29.1183V29.7603H298.703V29.1183H293.699Z" fill="black"/>
<path d="M229.811 23.4341H232.193V24.8981H229.811V23.4341ZM231.401 26.6441V25.5221H232.967V22.8101H229.037V25.5221H230.609V26.6441H228.509V27.2861H233.513V26.6441H231.401ZM238.492 24.3101H235.432V24.0101H238.324V23.4341H235.432V23.1461H238.45V22.5461H234.646V24.9101H238.492V24.3101ZM237.634 27.0221C237.634 27.2501 237.274 27.3521 236.512 27.3521C235.75 27.3521 235.396 27.2501 235.396 27.0221C235.396 26.7941 235.75 26.6981 236.512 26.6981C237.274 26.6981 237.634 26.7941 237.634 27.0221ZM239.02 25.8161V25.1921H234.022V25.8161H236.122V26.1281C235.15 26.1941 234.598 26.4941 234.598 27.0221C234.598 27.6101 235.3 27.9341 236.512 27.9341C237.724 27.9341 238.432 27.6101 238.432 27.0221C238.432 26.5001 237.88 26.1941 236.914 26.1281V25.8161H239.02ZM243.334 22.3961V27.9401H244.126V22.3961H243.334ZM241.156 22.7861C240.322 22.7861 239.704 23.5421 239.704 24.7541C239.704 25.9721 240.322 26.7341 241.156 26.7341C241.99 26.7341 242.608 25.9721 242.608 24.7541C242.608 23.5421 241.99 22.7861 241.156 22.7861ZM241.156 23.5001C241.564 23.5001 241.846 23.9381 241.846 24.7541C241.846 25.5761 241.564 26.0141 241.156 26.0141C240.748 26.0141 240.466 25.5761 240.466 24.7541C240.466 23.9381 240.748 23.5001 241.156 23.5001ZM247.557 23.2181C248.277 23.2181 248.739 23.4341 248.739 23.8301C248.739 24.2321 248.277 24.4481 247.557 24.4481C246.831 24.4481 246.369 24.2321 246.369 23.8301C246.369 23.4341 246.831 23.2181 247.557 23.2181ZM247.557 25.0781C248.733 25.0781 249.555 24.5921 249.555 23.8301C249.555 23.0801 248.733 22.5881 247.557 22.5881C246.375 22.5881 245.559 23.0801 245.559 23.8301C245.559 24.5921 246.375 25.0781 247.557 25.0781ZM250.071 25.4921H245.067V26.1281H247.155V27.9341H247.947V26.1281H250.071V25.4921Z" fill="black"/>
<path d="M287.623 76.3309V78.9409H288.288V76.3309H287.623ZM285.223 79.1459V80.8809H288.288V79.1459H285.223ZM287.643 79.6609V80.3659H285.873V79.6609H287.643ZM285.783 76.5409C285.068 76.5409 284.528 77.0009 284.528 77.6509C284.528 78.2959 285.068 78.7559 285.783 78.7559C286.498 78.7559 287.033 78.2959 287.033 77.6509C287.033 77.0009 286.498 76.5409 285.783 76.5409ZM285.783 77.0909C286.128 77.0909 286.388 77.3009 286.388 77.6509C286.388 77.9959 286.128 78.2059 285.783 78.2059C285.433 78.2059 285.173 77.9959 285.173 77.6509C285.173 77.3009 285.433 77.0909 285.783 77.0909ZM291.608 78.6359H290.668V77.2559H291.608V78.6359ZM290.013 78.6359H289.413V79.1609H292.873V78.6359H292.263V77.2559H292.888V76.7309H289.388V77.2559H290.013V78.6359ZM289.063 79.8659V80.4009H293.233V79.8659H289.063ZM294.427 78.5459H295.412V76.7809H293.782V77.3059H294.772V78.0259H293.787V79.8609H294.112C294.687 79.8609 295.197 79.8459 295.792 79.7409L295.737 79.2109C295.272 79.2859 294.862 79.3109 294.427 79.3209V78.5459ZM296.052 77.8959H295.597V78.4359H296.052V80.7209H296.662V76.4109H296.052V77.8959ZM296.987 76.3259V80.9309H297.612V76.3259H296.987ZM301.452 79.7409H302.112V76.3309H301.452V76.9309H300.687V77.4559H301.452V77.8159H300.687V78.3459H301.452V79.7409ZM301.012 78.6609C300.282 78.3859 299.982 77.7559 299.982 77.1259V76.5909H299.312V77.1259C299.312 77.7959 298.997 78.4409 298.237 78.7109L298.582 79.2259C299.107 79.0309 299.457 78.6559 299.652 78.1859C299.842 78.6259 300.167 78.9809 300.647 79.1709L301.012 78.6609ZM299.732 80.3309V79.4309H299.072V80.8559H302.212V80.3309H299.732Z" fill="black"/>
<path d="M162.466 43.8362V44.2562H163.63C163.614 44.4322 163.586 44.5922 163.55 44.7482L162.27 44.8202L162.338 45.2642L163.39 45.1682C163.178 45.5722 162.822 45.9122 162.25 46.2122L162.538 46.6122C163.858 45.9202 164.154 44.9682 164.154 43.8362H162.466ZM164.834 43.4842V44.8962H164.146V45.3242H164.834V47.1682H165.362V43.4842H164.834ZM166.882 44.2482H167.294V45.8722C167.154 45.8762 167.018 45.8842 166.882 45.8842V44.2482ZM167.802 44.2482H168.118V43.8242H166.05V44.2482H166.37V45.8962C166.226 45.8962 166.086 45.8962 165.954 45.8962L166.01 46.3282C166.67 46.3242 167.518 46.3082 168.294 46.1762L168.262 45.7962C168.11 45.8162 167.958 45.8322 167.802 45.8402V44.2482ZM168.498 43.4882V47.1722H169.03V43.4882H168.498ZM163.662 50.2202C162.83 50.0762 162.374 49.5042 162.374 48.9642V48.7002H161.81V48.9642C161.81 49.4922 161.35 50.0762 160.522 50.2202L160.746 50.6602C161.386 50.5362 161.854 50.1762 162.09 49.7082C162.326 50.1762 162.798 50.5322 163.438 50.6602L163.662 50.2202ZM160.442 51.2922V51.7202H163.778V51.2922H160.442ZM164.838 48.8322H164.314V51.2602H164.642C165.202 51.2602 165.814 51.2202 166.442 51.0882L166.386 50.6482C165.846 50.7562 165.322 50.7962 164.838 50.8082V48.8322ZM166.67 48.4802V52.1642H167.198V48.4802H166.67ZM168.702 49.2282H169.066V50.8802C168.942 50.8882 168.822 50.8922 168.702 50.8962V49.2282ZM169.574 49.2282H169.918V48.8082H167.886V49.2282H168.19V50.9082C168.05 50.9082 167.914 50.9082 167.786 50.9082L167.842 51.3362C168.47 51.3362 169.306 51.3202 170.042 51.1922L170.01 50.8082C169.87 50.8242 169.722 50.8402 169.574 50.8482V49.2282ZM170.366 48.4842V49.8202H169.818V50.2482H170.366V52.1722H170.894V48.4842H170.366Z" fill="black"/>
<path d="M157.692 92.6822C157.692 92.4002 157.953 92.2352 158.331 92.2352C158.712 92.2352 158.973 92.4002 158.973 92.6822C158.973 92.9642 158.712 93.1292 158.331 93.1292C157.953 93.1292 157.692 92.9642 157.692 92.6822ZM158.529 93.9002V93.4322C159.018 93.3752 159.363 93.0932 159.363 92.6822C159.363 92.2202 158.922 91.9202 158.331 91.9202C157.743 91.9202 157.302 92.2202 157.302 92.6822C157.302 93.0932 157.647 93.3722 158.133 93.4322V93.9002H157.083V94.2212H159.585V93.9002H158.529ZM160.395 93.0812H161.292V92.0132H159.987V92.3282H160.887V92.7692H159.99V93.9062H160.239C160.74 93.9062 161.145 93.8882 161.595 93.8102L161.553 93.4892C161.163 93.5552 160.815 93.5762 160.395 93.5792V93.0812ZM161.745 91.7762V94.5482H162.141V91.7762H161.745ZM163.67 92.3702H164.24V92.0432H162.692V92.3702H163.268V92.5232C163.268 92.9942 163.043 93.5012 162.581 93.7082L162.806 94.0232C163.13 93.8762 163.352 93.5732 163.475 93.2132C163.598 93.5462 163.817 93.8162 164.138 93.9542L164.354 93.6422C163.892 93.4502 163.67 92.9732 163.67 92.5232V92.3702ZM164.495 91.7792V94.5422H164.891V91.7792H164.495ZM167.276 93.1742H167.672V91.7762H167.276V92.1632H166.607V92.4782H167.276V93.1742ZM166.952 92.6912C166.586 92.7542 166.241 92.7812 165.905 92.7872V91.8902H165.512V93.1142H165.746C166.145 93.1142 166.556 93.0932 167.003 93.0092L166.952 92.6912ZM166.25 94.2002V94.0322H167.672V93.2792H165.851V93.5882H167.276V93.7412H165.854V94.5092H167.741V94.2002H166.25ZM158.874 96.9012H159.063V97.8702H159.438V95.7822H159.063V96.5802H158.874V95.8302H158.505V97.7802H158.874V96.9012ZM157.632 96.3492H157.845V97.1082C157.776 97.1112 157.701 97.1142 157.632 97.1142V96.3492ZM158.397 97.0632C158.337 97.0722 158.268 97.0782 158.199 97.0872V96.3492H158.37V96.0342H157.107V96.3492H157.278V97.1232C157.2 97.1232 157.128 97.1232 157.059 97.1232L157.101 97.4442C157.443 97.4442 157.998 97.4352 158.421 97.3512L158.397 97.0632ZM157.962 98.1792V97.6212H157.563V98.4942H159.504V98.1792H157.962ZM161.268 96.8202H160.983C161.04 96.5952 161.061 96.3492 161.061 96.0882H159.984V96.4062H160.68C160.671 96.5172 160.656 96.6222 160.632 96.7212L159.846 96.7632L159.891 97.0932L160.527 97.0272C160.398 97.2912 160.179 97.5192 159.831 97.7232L160.05 97.9992C160.47 97.7562 160.728 97.4652 160.875 97.1352H161.268V98.4192H161.637V95.8392H161.268V96.8202ZM161.844 95.7762V98.5392H162.219V95.7762H161.844ZM164.495 95.7762V98.5482H164.891V95.7762H164.495ZM163.406 95.9712C162.989 95.9712 162.68 96.3492 162.68 96.9552C162.68 97.5642 162.989 97.9452 163.406 97.9452C163.823 97.9452 164.132 97.5642 164.132 96.9552C164.132 96.3492 163.823 95.9712 163.406 95.9712ZM163.406 96.3282C163.61 96.3282 163.751 96.5472 163.751 96.9552C163.751 97.3662 163.61 97.5852 163.406 97.5852C163.202 97.5852 163.061 97.3662 163.061 96.9552C163.061 96.5472 163.202 96.3282 163.406 96.3282ZM165.566 96.8352L165.614 97.1562L167.192 97.0752C167.174 97.2612 167.144 97.4622 167.09 97.6872L167.48 97.7262C167.609 97.1262 167.609 96.7452 167.609 96.3432V96.0222H165.644V96.3372H167.219V96.3432C167.219 96.4842 167.219 96.6282 167.213 96.7812L165.566 96.8352ZM165.365 97.8912V98.2152H167.861V97.8912H165.365Z" fill="black"/>
</g>
<path d="M10.4981 355.356V356.294H13.2141V360.76H14.3761V351.492H13.2141V355.356H10.4981ZM4.85609 352.458V353.396H9.32209C9.07009 355.65 7.09609 357.442 4.22609 358.394L4.71609 359.318C8.27209 358.142 10.5541 355.692 10.5541 352.458H4.85609ZM7.58609 362.818V359.822H6.43809V363.756H14.6981V362.818H7.58609ZM25.659 354.81H19.499V352.808H25.659V354.81ZM26.793 351.898H18.379V355.72H26.793V351.898ZM28.263 357.694V356.77H16.895V357.694H22.005V358.926H18.267V359.794H25.673V360.914H18.309V363.896H27.185V363H19.429V361.754H26.807V358.926H23.153V357.694H28.263ZM35.0946 355.23C35.0946 354.068 36.0466 353.27 37.3206 353.27C38.6366 353.27 39.5746 354.068 39.5746 355.23C39.5746 356.406 38.6366 357.218 37.3206 357.218C36.0466 357.218 35.0946 356.406 35.0946 355.23ZM37.8946 358.156C39.5606 357.96 40.6946 356.812 40.6946 355.23C40.6946 353.48 39.2946 352.29 37.3206 352.29C35.3886 352.29 33.9746 353.48 33.9746 355.23C33.9746 356.812 35.1226 357.946 36.7466 358.156V360.326C35.5146 360.368 34.3526 360.368 33.3446 360.368L33.4846 361.334C35.7526 361.334 38.7906 361.306 41.6186 360.788L41.5206 359.934C40.3586 360.116 39.1126 360.214 37.8946 360.284V358.156ZM42.3466 351.464V364.064H43.4946V351.464H42.3466ZM54.9315 356.476H48.7015V354.628H54.9315V356.476ZM56.0795 351.982H54.9315V353.704H48.7015V351.982H47.5675V357.414H56.0795V351.982ZM57.5215 358.926H46.1255V359.85H51.2215V364.05H52.3695V359.85H57.5215V358.926ZM60.5584 355.244C60.5584 354.068 61.4824 353.256 62.7704 353.256C64.0444 353.256 64.9684 354.068 64.9684 355.244C64.9684 356.434 64.0444 357.218 62.7704 357.218C61.4824 357.218 60.5584 356.434 60.5584 355.244ZM63.3444 358.156C64.9544 357.946 66.0884 356.812 66.0884 355.244C66.0884 353.48 64.6884 352.29 62.7704 352.29C60.8244 352.29 59.4384 353.48 59.4384 355.244C59.4384 356.812 60.5584 357.96 62.1964 358.156V360.326C61.0204 360.354 59.8724 360.368 58.8784 360.368L59.0324 361.334C61.2444 361.334 64.1704 361.292 66.8304 360.844L66.7324 360.004C65.6544 360.158 64.4924 360.228 63.3444 360.284V358.156ZM70.6664 356.658H68.6784V351.464H67.5304V364.036H68.6784V357.624H70.6664V356.658ZM81.4092 358.399H77.0957V361.927H82.1064V363H75.7832V353.047H82.0381V354.127H77.0957V357.326H81.4092V358.399ZM89.2363 360.402H85.0664L84.1299 363H82.7764L86.5771 353.047H87.7256L91.5332 363H90.1865L89.2363 360.402ZM85.4629 359.322H88.8467L87.1514 354.667L85.4629 359.322ZM95.8057 358.563C94.68 358.24 93.8597 357.843 93.3447 357.374C92.8343 356.9 92.5791 356.317 92.5791 355.624C92.5791 354.84 92.8913 354.193 93.5156 353.683C94.1445 353.168 94.9603 352.91 95.9629 352.91C96.6465 352.91 97.2549 353.042 97.7881 353.307C98.3258 353.571 98.7406 353.936 99.0322 354.4C99.3285 354.865 99.4766 355.373 99.4766 355.925H98.1572C98.1572 355.323 97.9658 354.852 97.583 354.51C97.2002 354.163 96.6602 353.99 95.9629 353.99C95.3158 353.99 94.8099 354.134 94.4453 354.421C94.0853 354.703 93.9053 355.098 93.9053 355.604C93.9053 356.009 94.0762 356.353 94.418 356.636C94.7643 356.914 95.3499 357.169 96.1748 357.401C97.0042 357.634 97.6514 357.891 98.1162 358.174C98.5856 358.452 98.932 358.778 99.1553 359.151C99.3831 359.525 99.4971 359.965 99.4971 360.471C99.4971 361.277 99.1826 361.924 98.5537 362.412C97.9248 362.895 97.084 363.137 96.0312 363.137C95.3477 363.137 94.7096 363.007 94.1172 362.747C93.5247 362.483 93.0667 362.123 92.7432 361.667C92.4242 361.211 92.2646 360.694 92.2646 360.115H93.584C93.584 360.717 93.805 361.193 94.2471 361.544C94.6937 361.89 95.2884 362.063 96.0312 362.063C96.724 362.063 97.2549 361.922 97.624 361.64C97.9932 361.357 98.1777 360.972 98.1777 360.484C98.1777 359.997 98.0068 359.621 97.665 359.356C97.3232 359.088 96.7035 358.823 95.8057 358.563ZM108.062 354.127H104.863V363H103.558V354.127H100.365V353.047H108.062V354.127ZM115.167 360.214C114.159 360.214 113.529 358.94 113.529 356.882C113.529 354.866 114.159 353.592 115.167 353.592C116.147 353.592 116.791 354.866 116.791 356.882C116.791 358.94 116.147 360.214 115.167 360.214ZM119.409 356.364H117.827C117.687 353.998 116.679 352.528 115.167 352.528C113.529 352.528 112.479 354.208 112.479 356.882C112.479 359.598 113.529 361.278 115.167 361.278C116.707 361.278 117.729 359.766 117.827 357.302H119.409V363.42H120.501V351.758H119.409V356.364ZM121.901 351.478V364.036H122.993V351.478H121.901ZM136.026 357.792C133.828 357.372 131.448 355.468 131.448 353.326V352.36H130.244V353.326C130.244 355.468 127.878 357.358 125.68 357.792L126.198 358.744C128.088 358.296 130.048 356.952 130.846 355.118C131.644 356.966 133.604 358.31 135.508 358.744L136.026 357.792ZM125.204 361.404V362.356H136.586V361.404H125.204ZM147.267 357.974H148.429V351.478H147.267V354.502H144.565V355.426H147.267V357.974ZM139.007 352.094V353.004H143.347C143.305 353.438 143.207 353.844 143.067 354.236L138.405 354.446L138.573 355.356L142.619 355.048C141.863 356.126 140.519 356.98 138.433 357.498L138.853 358.38C142.745 357.358 144.537 355.244 144.537 352.094H139.007ZM141.499 362.958V361.572H148.429V358.548H140.337V359.458H147.295V360.718H140.365V363.868H148.849V362.958H141.499ZM152.488 357.218H155.848V352.864H151.34V353.802H154.742V356.308H151.382V360.956H152.208C153.804 360.956 155.232 360.886 156.982 360.592L156.884 359.654C155.274 359.934 153.916 359.99 152.488 359.99V357.218ZM157.99 355.986H156.436V356.938H157.99V363.378H159.068V351.786H157.99V355.986ZM160.524 351.478V364.036H161.63V351.478H160.524ZM172.969 351.478V364.064H174.117V351.478H172.969ZM167.495 352.444C165.633 352.444 164.303 354.152 164.303 356.826C164.303 359.5 165.633 361.208 167.495 361.208C169.357 361.208 170.687 359.5 170.687 356.826C170.687 354.152 169.357 352.444 167.495 352.444ZM167.495 353.48C168.713 353.48 169.581 354.796 169.581 356.826C169.581 358.87 168.713 360.186 167.495 360.186C166.263 360.186 165.395 358.87 165.395 356.826C165.395 354.796 166.263 353.48 167.495 353.48ZM178.442 357.078H182.558V356.154H178.442V353.564H183.104V352.612H177.294V361.026H178.26C180.654 361.026 182.18 360.956 184 360.634L183.874 359.696C182.166 360.004 180.71 360.088 178.442 360.088V357.078ZM185.918 351.464V356.21H183.328V357.162H185.918V364.05H187.066V351.464H185.918ZM198.39 353.676H191.054V356.364H199.748V355.538H192.188V354.46H199.524V351.842H191.026V352.654H198.39V353.676ZM192.118 361.88H199.566V359.206H190.956V360.032H198.432V361.082H190.984V363.868H199.958V363.042H192.118V361.88ZM189.598 357.316V358.184H200.98V357.316H189.598ZM215.078 351.478V364.064H216.226V351.478H215.078ZM209.604 352.444C207.742 352.444 206.412 354.152 206.412 356.826C206.412 359.5 207.742 361.208 209.604 361.208C211.466 361.208 212.796 359.5 212.796 356.826C212.796 354.152 211.466 352.444 209.604 352.444ZM209.604 353.48C210.822 353.48 211.69 354.796 211.69 356.826C211.69 358.87 210.822 360.186 209.604 360.186C208.372 360.186 207.504 358.87 207.504 356.826C207.504 354.796 208.372 353.48 209.604 353.48ZM224.499 363.14C222.525 363.14 221.363 362.65 221.363 361.796C221.363 360.942 222.525 360.452 224.499 360.452C226.459 360.452 227.635 360.942 227.635 361.796C227.635 362.65 226.459 363.14 224.499 363.14ZM224.499 359.556C221.811 359.556 220.201 360.354 220.201 361.796C220.201 363.238 221.811 364.022 224.499 364.022C227.201 364.022 228.797 363.238 228.797 361.796C228.797 360.354 227.201 359.556 224.499 359.556ZM222.763 356.224C223.281 356.308 223.869 356.364 224.499 356.364C225.143 356.364 225.731 356.308 226.249 356.224V357.694H222.763V356.224ZM221.265 354.04C221.265 353.13 222.497 352.598 224.499 352.598C226.501 352.598 227.733 353.13 227.733 354.04C227.733 354.936 226.501 355.482 224.499 355.482C222.497 355.482 221.265 354.936 221.265 354.04ZM227.383 357.694V355.916C228.349 355.524 228.909 354.88 228.909 354.04C228.909 352.57 227.229 351.702 224.499 351.702C221.783 351.702 220.089 352.57 220.089 354.04C220.089 354.894 220.635 355.524 221.629 355.93V357.694H218.815V358.618H230.183V357.694H227.383ZM235.39 360.284C234.256 360.284 233.43 359.472 233.43 358.352C233.43 357.218 234.256 356.406 235.39 356.406C236.538 356.406 237.364 357.218 237.364 358.352C237.364 359.472 236.538 360.284 235.39 360.284ZM235.39 355.454C233.626 355.454 232.352 356.658 232.352 358.352C232.352 360.06 233.626 361.236 235.39 361.236C237.182 361.236 238.456 360.06 238.456 358.352C238.456 356.658 237.182 355.454 235.39 355.454ZM235.95 351.632H234.802V353.494H231.638V354.418H239.044V353.494H235.95V351.632ZM243.44 356.644H241.382V351.492H240.234V364.036H241.382V357.61H243.44V356.644ZM250.929 358.254C251.013 357.82 251.069 357.344 251.069 356.826C251.069 356.252 250.999 355.72 250.887 355.23H253.785V358.254H250.929ZM247.947 360.186C246.743 360.186 245.903 358.87 245.903 356.826C245.903 354.796 246.743 353.48 247.947 353.48C249.137 353.48 249.991 354.796 249.991 356.826C249.991 358.87 249.137 360.186 247.947 360.186ZM253.785 351.478V354.292H250.565C250.033 353.116 249.109 352.444 247.947 352.444C246.113 352.444 244.811 354.152 244.811 356.826C244.811 359.5 246.113 361.208 247.947 361.208C249.151 361.208 250.131 360.466 250.649 359.192H253.785V364.064H254.933V351.478H253.785ZM270.066 351.478V364.064H271.214V351.478H270.066ZM264.592 352.444C262.73 352.444 261.4 354.152 261.4 356.826C261.4 359.5 262.73 361.208 264.592 361.208C266.454 361.208 267.784 359.5 267.784 356.826C267.784 354.152 266.454 352.444 264.592 352.444ZM264.592 353.48C265.81 353.48 266.678 354.796 266.678 356.826C266.678 358.87 265.81 360.186 264.592 360.186C263.36 360.186 262.492 358.87 262.492 356.826C262.492 354.796 263.36 353.48 264.592 353.48ZM279.501 363.14C277.513 363.14 276.351 362.65 276.351 361.768C276.351 360.886 277.513 360.396 279.501 360.396C281.461 360.396 282.623 360.886 282.623 361.768C282.623 362.65 281.461 363.14 279.501 363.14ZM279.501 359.5C276.813 359.5 275.189 360.312 275.189 361.768C275.189 363.224 276.813 364.036 279.501 364.036C282.161 364.036 283.785 363.224 283.785 361.768C283.785 360.312 282.161 359.5 279.501 359.5ZM280.075 357.68V356.224H283.855V355.3H276.393V352.976H283.771V352.052H275.245V356.224H278.927V357.68H273.817V358.604H285.185V357.68H280.075ZM290.378 360.284C289.244 360.284 288.418 359.472 288.418 358.352C288.418 357.218 289.244 356.406 290.378 356.406C291.526 356.406 292.352 357.218 292.352 358.352C292.352 359.472 291.526 360.284 290.378 360.284ZM290.378 355.454C288.614 355.454 287.34 356.658 287.34 358.352C287.34 360.06 288.614 361.236 290.378 361.236C292.17 361.236 293.444 360.06 293.444 358.352C293.444 356.658 292.17 355.454 290.378 355.454ZM290.938 351.632H289.79V353.494H286.626V354.418H294.032V353.494H290.938V351.632ZM298.428 356.644H296.37V351.492H295.222V364.036H296.37V357.61H298.428V356.644ZM303.299 352.668H302.193V355.062C302.193 357.218 301.157 359.472 299.435 360.48L300.149 361.334C301.395 360.564 302.305 359.15 302.753 357.484C303.201 359.01 304.041 360.34 305.231 361.068L305.889 360.172C304.237 359.164 303.299 357.036 303.299 355.02V352.668ZM306.603 355.986H304.531V356.938H306.603V363.42H307.681V351.758H306.603V355.986ZM309.151 351.478V364.036H310.243V351.478H309.151ZM153.891 374.52C154.409 374.646 155.011 374.716 155.627 374.716C156.257 374.716 156.859 374.646 157.391 374.52V377.474H153.891V374.52ZM155.627 369.172C157.643 369.172 159.099 370.096 159.099 371.496C159.099 372.896 157.643 373.82 155.627 373.82C153.611 373.82 152.169 372.896 152.169 371.496C152.169 370.096 153.611 369.172 155.627 369.172ZM158.539 377.474V374.072C159.575 373.526 160.191 372.63 160.191 371.496C160.191 369.536 158.301 368.276 155.627 368.276C152.967 368.276 151.063 369.536 151.063 371.496C151.063 372.63 151.693 373.54 152.743 374.086V377.474H149.943V378.426H161.353V377.474H158.539ZM163.078 378.337C163.078 378.118 163.142 377.936 163.27 377.79C163.402 377.644 163.598 377.571 163.857 377.571C164.117 377.571 164.313 377.644 164.445 377.79C164.582 377.936 164.65 378.118 164.65 378.337C164.65 378.547 164.582 378.722 164.445 378.863C164.313 379.005 164.117 379.075 163.857 379.075C163.598 379.075 163.402 379.005 163.27 378.863C163.142 378.722 163.078 378.547 163.078 378.337Z" fill="black"/>
<path d="M206.616 435.357H208.116V433.857V403.5H313.5V730.5H1.5V463.5H161.319H162.819V462V435.357H206.616Z" fill="#C4C4C4" stroke="black" stroke-width="3" stroke-miterlimit="10"/>
<path d="M251.266 487.337H241.75V522.373H251.266V487.337Z" fill="black"/>
<path d="M113.266 646.412H103.75V681.448H113.266V646.412Z" fill="black"/>
<path d="M276.806 487.337H267.29V522.373H276.806V487.337Z" fill="black"/>
<path d="M138.806 646.412H129.29V681.448H138.806V646.412Z" fill="black"/>
<path d="M265.448 487.337H253.107V522.373H265.448V487.337Z" fill="black"/>
<path d="M127.448 646.412H115.107V681.448H127.448V646.412Z" fill="black"/>
<path d="M240 487.412H167V522.412H240V487.412Z" fill="black"/>
<path d="M102 646.487H29V681.487H102V646.487Z" fill="black"/>
<path d="M262.87 508.285V502.971C262.87 502.415 262.44 501.982 261.887 501.982H256.607C256.055 501.982 255.625 502.415 255.625 502.971V508.285C255.625 508.841 256.055 509.274 256.607 509.274H261.887C262.44 509.212 262.87 508.841 262.87 508.285ZM262.072 508.409H256.423V502.786H262.072V508.409Z" fill="white"/>
<path d="M260.168 498.522C260.168 498.089 260.782 498.089 260.782 498.522V500.252L261.089 499.881C261.335 499.634 261.703 500.005 261.457 500.252L260.659 501.179C260.536 501.302 260.352 501.302 260.229 501.179L259.431 500.252C259.186 499.943 259.616 499.634 259.8 499.881L260.107 500.314L260.168 498.522Z" fill="white"/>
<path d="M257.774 500.996C257.774 501.428 258.388 501.428 258.388 500.996V499.266L258.695 499.636C258.94 499.884 259.309 499.513 259.063 499.266L258.265 498.339C258.142 498.215 257.958 498.215 257.835 498.339L257.037 499.266C256.791 499.575 257.221 499.884 257.405 499.636L257.712 499.204L257.774 500.996Z" fill="white"/>
<path d="M260.905 504.453H259.861C259.738 504.453 259.615 504.577 259.615 504.7V505.998C259.615 506.122 259.677 506.183 259.799 506.183C259.799 506.183 259.861 506.183 259.922 506.183V507.852C259.922 508.161 260.352 508.161 260.352 507.852V506.183H260.413V507.852C260.413 508.161 260.843 508.161 260.843 507.852V506.183C260.905 506.183 260.966 506.183 260.966 506.183C261.089 506.183 261.15 506.122 261.15 505.998V504.7C261.15 504.577 261.027 504.453 260.905 504.453Z" fill="white"/>
<path d="M260.352 504.33C260.521 504.33 260.659 504.192 260.659 504.021C260.659 503.85 260.521 503.712 260.352 503.712C260.182 503.712 260.045 503.85 260.045 504.021C260.045 504.192 260.182 504.33 260.352 504.33Z" fill="white"/>
<path d="M258.695 504.453H257.651C257.528 504.453 257.405 504.577 257.405 504.7V505.998C257.405 506.122 257.467 506.183 257.589 506.183C257.589 506.183 257.651 506.183 257.712 506.183V507.852C257.712 508.161 258.142 508.161 258.142 507.852V506.183H258.203V507.852C258.203 508.161 258.633 508.161 258.633 507.852V506.183C258.695 506.183 258.756 506.183 258.756 506.183C258.879 506.183 258.94 506.122 258.94 505.998V504.7C258.94 504.577 258.817 504.453 258.695 504.453Z" fill="white"/>
<path d="M258.141 504.33C258.311 504.33 258.448 504.192 258.448 504.021C258.448 503.85 258.311 503.712 258.141 503.712C257.971 503.712 257.834 503.85 257.834 504.021C257.834 504.192 257.971 504.33 258.141 504.33Z" fill="white"/>
<path d="M124.87 667.359V662.045C124.87 661.489 124.44 661.057 123.887 661.057H118.607C118.055 661.057 117.625 661.489 117.625 662.045V667.359C117.625 667.916 118.055 668.348 118.607 668.348H123.887C124.44 668.286 124.87 667.916 124.87 667.359ZM124.072 667.483H118.423V661.86H124.072V667.483Z" fill="white"/>
<path d="M122.168 657.596C122.168 657.163 122.782 657.163 122.782 657.596V659.326L123.089 658.955C123.335 658.708 123.703 659.079 123.457 659.326L122.659 660.253C122.536 660.377 122.352 660.377 122.229 660.253L121.431 659.326C121.186 659.017 121.616 658.708 121.8 658.955L122.107 659.388L122.168 657.596Z" fill="white"/>
<path d="M119.774 660.07C119.774 660.503 120.388 660.503 120.388 660.07V658.34L120.695 658.711C120.94 658.958 121.309 658.587 121.063 658.34L120.265 657.413C120.142 657.289 119.958 657.289 119.835 657.413L119.037 658.34C118.791 658.649 119.221 658.958 119.405 658.711L119.712 658.278L119.774 660.07Z" fill="white"/>
<path d="M122.905 663.527H121.861C121.738 663.527 121.615 663.651 121.615 663.775V665.072C121.615 665.196 121.677 665.258 121.799 665.258C121.799 665.258 121.861 665.258 121.922 665.258V666.926C121.922 667.235 122.352 667.235 122.352 666.926V665.258H122.413V666.926C122.413 667.235 122.843 667.235 122.843 666.926V665.258C122.905 665.258 122.966 665.258 122.966 665.258C123.089 665.258 123.15 665.196 123.15 665.072V663.775C123.15 663.651 123.027 663.527 122.905 663.527Z" fill="white"/>
<path d="M122.352 663.404C122.521 663.404 122.659 663.266 122.659 663.095C122.659 662.924 122.521 662.786 122.352 662.786C122.182 662.786 122.045 662.924 122.045 663.095C122.045 663.266 122.182 663.404 122.352 663.404Z" fill="white"/>
<path d="M120.695 663.527H119.651C119.528 663.527 119.405 663.651 119.405 663.775V665.072C119.405 665.196 119.467 665.258 119.589 665.258C119.589 665.258 119.651 665.258 119.712 665.258V666.926C119.712 667.235 120.142 667.235 120.142 666.926V665.258H120.203V666.926C120.203 667.235 120.633 667.235 120.633 666.926V665.258C120.695 665.258 120.756 665.258 120.756 665.258C120.879 665.258 120.94 665.196 120.94 665.072V663.775C120.94 663.651 120.817 663.527 120.695 663.527Z" fill="white"/>
<path d="M120.141 663.404C120.311 663.404 120.448 663.266 120.448 663.095C120.448 662.924 120.311 662.786 120.141 662.786C119.971 662.786 119.834 662.924 119.834 663.095C119.834 663.266 119.971 663.404 120.141 663.404Z" fill="white"/>
<path d="M175.845 710.272C176.214 710.272 176.521 709.963 176.521 709.592C176.521 709.221 176.214 708.912 175.845 708.912C175.477 708.912 175.17 709.221 175.17 709.592C175.17 709.963 175.477 710.272 175.845 710.272Z" fill="white"/>
<path d="M264.158 533.495C264.526 533.495 264.833 533.186 264.833 532.815C264.833 532.445 264.526 532.136 264.158 532.136C263.789 532.136 263.482 532.445 263.482 532.815C263.544 533.186 263.789 533.495 264.158 533.495Z" fill="white"/>
<path d="M126.158 692.57C126.526 692.57 126.833 692.261 126.833 691.891C126.833 691.52 126.526 691.211 126.158 691.211C125.789 691.211 125.482 691.52 125.482 691.891C125.544 692.261 125.789 692.57 126.158 692.57Z" fill="white"/>
<path d="M175.632 502.412H177.17V500.054H178.462C180.135 500.054 181.108 499.056 181.108 497.604C181.108 496.159 180.153 495.139 178.501 495.139H175.632V502.412ZM177.17 498.822V496.396H178.207C179.094 496.396 179.524 496.879 179.524 497.604C179.524 498.325 179.094 498.822 178.214 498.822H177.17ZM183.487 502.515C184.293 502.515 184.815 502.164 185.082 501.656H185.124V502.412H186.559V498.733C186.559 497.433 185.458 496.887 184.244 496.887C182.937 496.887 182.077 497.512 181.868 498.506L183.267 498.619C183.37 498.257 183.693 497.991 184.237 497.991C184.751 497.991 185.046 498.25 185.046 498.698V498.719C185.046 499.07 184.673 499.117 183.725 499.209C182.646 499.308 181.676 499.671 181.676 500.889C181.676 501.968 182.447 502.515 183.487 502.515ZM183.92 501.471C183.455 501.471 183.121 501.254 183.121 500.839C183.121 500.413 183.473 500.203 184.006 500.129C184.336 500.083 184.876 500.004 185.057 499.884V500.463C185.057 501.034 184.585 501.471 183.92 501.471ZM187.733 502.412H189.245V499.326C189.245 498.655 189.735 498.193 190.403 498.193C190.613 498.193 190.9 498.229 191.042 498.275V496.933C190.907 496.901 190.719 496.879 190.566 496.879C189.956 496.879 189.455 497.235 189.256 497.909H189.199V496.958H187.733V502.412ZM191.824 502.412H193.337V500.679L193.746 500.214L195.233 502.412H197.006L194.878 499.319L196.903 496.958H195.166L193.419 499.028H193.337V495.139H191.824V502.412ZM197.645 502.412H199.157V496.958H197.645V502.412ZM198.405 496.254C198.856 496.254 199.225 495.91 199.225 495.487C199.225 495.068 198.856 494.724 198.405 494.724C197.957 494.724 197.588 495.068 197.588 495.487C197.588 495.91 197.957 496.254 198.405 496.254ZM201.882 499.259C201.886 498.556 202.305 498.144 202.915 498.144C203.523 498.144 203.888 498.541 203.885 499.209V502.412H205.398V498.939C205.398 497.668 204.652 496.887 203.516 496.887C202.706 496.887 202.12 497.284 201.875 497.92H201.811V496.958H200.369V502.412H201.882V499.259ZM209.047 504.571C210.606 504.571 211.714 503.861 211.714 502.465V496.958H210.212V497.874H210.155C209.953 497.43 209.509 496.887 208.596 496.887C207.4 496.887 206.388 497.817 206.388 499.674C206.388 501.489 207.371 502.334 208.6 502.334C209.47 502.334 209.956 501.897 210.155 501.446H210.219V502.444C210.219 503.193 209.74 503.485 209.083 503.485C208.415 503.485 208.078 503.193 207.954 502.863L206.555 503.051C206.736 503.911 207.577 504.571 209.047 504.571ZM209.079 501.198C208.337 501.198 207.932 500.608 207.932 499.667C207.932 498.74 208.33 498.09 209.079 498.09C209.814 498.09 210.226 498.712 210.226 499.667C210.226 500.629 209.807 501.198 209.079 501.198ZM175.632 514.412H180.547V513.144H177.17V511.408H180.281V510.14H177.17V508.407H180.533V507.139H175.632V514.412ZM183.009 514.412L183.548 512.754H186.173L186.713 514.412H188.36L185.853 507.139H183.872L181.361 514.412H183.009ZM183.939 511.553L184.834 508.801H184.891L185.786 511.553H183.939ZM193.015 509.231H194.489C194.467 507.935 193.402 507.04 191.783 507.04C190.188 507.04 189.02 507.921 189.027 509.242C189.023 510.314 189.78 510.928 191.009 511.223L191.8 511.422C192.592 511.614 193.033 511.841 193.036 512.331C193.033 512.864 192.528 513.226 191.747 513.226C190.948 513.226 190.373 512.857 190.323 512.129H188.835C188.874 513.702 190 514.515 191.765 514.515C193.54 514.515 194.585 513.666 194.588 512.335C194.585 511.124 193.672 510.481 192.408 510.197L191.754 510.041C191.122 509.895 190.593 509.661 190.604 509.139C190.604 508.67 191.019 508.325 191.772 508.325C192.507 508.325 192.958 508.659 193.015 509.231ZM195.345 508.407H197.572V514.412H199.092V508.407H201.318V507.139H195.345V508.407ZM204.616 514.412H206.154V511.408H209.276V514.412H210.81V507.139H209.276V510.14H206.154V507.139H204.616V514.412ZM213.331 514.412L213.871 512.754H216.495L217.035 514.412H218.683L216.175 507.139H214.194L211.683 514.412H213.331ZM214.261 511.553L215.156 508.801H215.213L216.108 511.553H214.261ZM219.558 514.412H224.213V513.144H221.096V507.139H219.558V514.412ZM225.232 514.412H229.887V513.144H226.769V507.139H225.232V514.412Z" fill="white"/>
<path d="M37.6321 661.487H39.1697V659.129H40.4624C42.1349 659.129 43.108 658.131 43.108 656.679C43.108 655.234 42.1527 654.215 40.5014 654.215H37.6321V661.487ZM39.1697 657.897V655.472H40.2067C41.0945 655.472 41.5241 655.955 41.5241 656.679C41.5241 657.4 41.0945 657.897 40.2138 657.897H39.1697ZM45.4872 661.59C46.2933 661.59 46.8153 661.239 47.0817 660.731H47.1243V661.487H48.5589V657.808C48.5589 656.509 47.4581 655.962 46.2436 655.962C44.9368 655.962 44.0774 656.587 43.8679 657.581L45.267 657.695C45.37 657.332 45.6932 657.066 46.2365 657.066C46.7514 657.066 47.0462 657.325 47.0462 657.773V657.794C47.0462 658.146 46.6733 658.192 45.7251 658.284C44.6456 658.384 43.6761 658.746 43.6761 659.964C43.6761 661.043 44.4467 661.59 45.4872 661.59ZM45.9205 660.546C45.4553 660.546 45.1214 660.33 45.1214 659.914C45.1214 659.488 45.473 659.278 46.0057 659.204C46.3359 659.158 46.8757 659.08 47.0568 658.959V659.538C47.0568 660.109 46.5845 660.546 45.9205 660.546ZM49.7326 661.487H51.2454V658.401C51.2454 657.73 51.7354 657.269 52.4031 657.269C52.6126 657.269 52.9002 657.304 53.0423 657.35V656.008C52.9073 655.976 52.7191 655.955 52.5664 655.955C51.9556 655.955 51.4549 656.31 51.256 656.984H51.1992V656.033H49.7326V661.487ZM53.8244 661.487H55.3372V659.754L55.7456 659.289L57.2335 661.487H59.0055L56.8784 658.394L58.9025 656.033H57.166L55.4189 658.103H55.3372V654.215H53.8244V661.487ZM59.6447 661.487H61.1575V656.033H59.6447V661.487ZM60.4047 655.33C60.8556 655.33 61.225 654.985 61.225 654.563C61.225 654.144 60.8556 653.799 60.4047 653.799C59.9572 653.799 59.5879 654.144 59.5879 654.563C59.5879 654.985 59.9572 655.33 60.4047 655.33ZM63.8821 658.334C63.8857 657.631 64.3047 657.219 64.9155 657.219C65.5227 657.219 65.8885 657.617 65.8849 658.284V661.487H67.3977V658.014C67.3977 656.743 66.652 655.962 65.5156 655.962C64.706 655.962 64.12 656.359 63.875 656.995H63.8111V656.033H62.3693V661.487H63.8821V658.334ZM71.0474 663.646C72.6064 663.646 73.7143 662.936 73.7143 661.541V656.033H72.2122V656.949H72.1554C71.9529 656.505 71.5091 655.962 70.5964 655.962C69.3997 655.962 68.3876 656.892 68.3876 658.749C68.3876 660.564 69.3713 661.409 70.6 661.409C71.47 661.409 71.9565 660.972 72.1554 660.521H72.2193V661.519C72.2193 662.269 71.7399 662.56 71.0829 662.56C70.4153 662.56 70.0779 662.269 69.9537 661.938L68.5545 662.127C68.7356 662.986 69.5772 663.646 71.0474 663.646ZM71.0794 660.273C70.3372 660.273 69.9324 659.683 69.9324 658.742C69.9324 657.815 70.3301 657.166 71.0794 657.166C71.8145 657.166 72.2264 657.787 72.2264 658.742C72.2264 659.705 71.8074 660.273 71.0794 660.273ZM39.2692 673.487H40.7678L42.1491 668.732H42.206L43.5909 673.487H45.0895L47.1705 666.215H45.4908L44.2869 671.278H44.223L42.8984 666.215H41.4602L40.1321 671.268H40.0717L38.8679 666.215H37.1882L39.2692 673.487ZM47.9934 673.487H52.9082V672.22H49.5311V670.483H52.6419V669.215H49.5311V667.482H52.894V666.215H47.9934V673.487ZM58.0618 668.306H59.5355C59.5142 667.01 58.4489 666.115 56.8295 666.115C55.2351 666.115 54.0668 666.996 54.0739 668.317C54.0703 669.389 54.8267 670.004 56.0554 670.298L56.8473 670.497C57.6392 670.689 58.0795 670.916 58.0831 671.406C58.0795 671.939 57.5753 672.301 56.794 672.301C55.995 672.301 55.4197 671.932 55.37 671.204H53.8821C53.9212 672.777 55.0469 673.59 56.8118 673.59C58.5874 673.59 59.6314 672.742 59.6349 671.41C59.6314 670.199 58.7188 669.556 57.4545 669.272L56.8011 669.116C56.169 668.97 55.6399 668.736 55.6506 668.214C55.6506 667.745 56.0661 667.401 56.8189 667.401C57.554 667.401 58.005 667.734 58.0618 668.306ZM60.3922 667.482H62.6188V673.487H64.1387V667.482H66.3652V666.215H60.3922V667.482ZM69.6634 673.487H71.201V670.483H74.3224V673.487H75.8565V666.215H74.3224V669.215H71.201V666.215H69.6634V673.487ZM78.3778 673.487L78.9176 671.829H81.5419L82.0817 673.487H83.7294L81.2223 666.215H79.2408L76.7301 673.487H78.3778ZM79.3082 670.629L80.2031 667.877H80.2599L81.1548 670.629H79.3082ZM84.6048 673.487H89.2603V672.22H86.1424V666.215H84.6048V673.487ZM90.2786 673.487H94.9341V672.22H91.8162V666.215H90.2786V673.487Z" fill="white"/>
<path d="M2.78125 445.412H9.54688V435.037H15.2344C22.5937 435.037 26.875 430.646 26.875 424.256C26.875 417.896 22.6719 413.412 15.4063 413.412H2.78125V445.412ZM9.54688 429.615V418.943H14.1094C18.0156 418.943 19.9063 421.068 19.9063 424.256C19.9063 427.428 18.0156 429.615 14.1406 429.615H9.54688Z" fill="black"/>
<defs>
<clipPath id="clip0">
<rect width="315" height="330" fill="white"/>
</clipPath>
</defs>
</svg>
