<svg width="315" height="741" viewBox="0 0 315 741" fill="none" xmlns="http://www.w3.org/2000/svg">
<g clip-path="url(#clip0)">
<path d="M175 329.411L295 329.411C306.046 329.411 315 320.457 315 309.411L315 159.411L175 159.411L175 329.411Z" fill="#EDEAE6"/>
<path d="M222.429 233.346L204.784 242.226C203.239 243.01 202.263 244.664 202.263 246.405V278.007C202.263 280.619 204.215 282.622 206.573 282.622H227.796C230.235 282.622 232.105 280.532 232.105 278.007V270.433C232.105 270.259 232.105 270.085 232.105 269.911L228.446 237.003C228.202 233.869 225.112 231.953 222.429 233.346Z" fill="#84A359"/>
<path d="M243.079 305.28L236.006 315.842C234.663 317.85 235.737 320.556 238.155 321.08L257.046 325.619C258.478 325.969 259.911 325.445 260.806 324.31L264.566 319.334C265.372 318.287 265.462 316.977 264.924 315.842L260.269 305.716C259.732 304.494 258.389 303.621 257.046 303.621H246.033C244.869 303.708 243.706 304.319 243.079 305.28Z" fill="#84A359"/>
<path d="M218.842 324.507C218.842 323.221 218.134 322.021 216.896 321.506L201.588 313.961C199.376 312.847 196.81 314.219 196.544 316.619L195.66 324.164C195.394 326.136 197.075 327.937 199.11 327.937H215.214C217.25 327.937 218.842 326.394 218.842 324.507Z" fill="#84A359"/>
<path d="M251.752 220.704L274.025 185.546C274.967 184.036 276.595 183.148 278.308 183.148H302.123C304.95 183.148 307.263 185.546 307.263 188.475V231.979C307.263 234.909 304.95 237.306 302.123 237.306H261.775C260.147 237.306 258.52 236.507 257.578 235.087L251.838 226.652C250.639 224.965 250.553 222.568 251.752 220.704Z" fill="#84A359"/>
<path d="M267.882 242.832H302.954C305.367 242.832 307.263 244.716 307.263 247.113V291.207C307.263 292.405 306.746 293.604 305.798 294.46L296.405 302.594C295.63 303.279 294.596 303.621 293.561 303.621H283.221C280.808 303.621 278.912 301.738 278.912 299.34V289.494C278.912 287.097 277.016 285.213 274.603 285.213H269.261C267.71 285.213 266.331 284.357 265.555 283.073L257.024 268.432C256.679 267.747 256.421 267.062 256.421 266.292V259.014C256.421 258.243 256.593 257.473 257.024 256.788L264.176 244.716C264.952 243.603 266.417 242.832 267.882 242.832Z" fill="#84A359"/>
<path d="M283.442 309.148H295.73C297.255 309.148 298.421 310.386 298.421 311.801V317.548C298.421 319.052 297.165 320.201 295.73 320.201H286.133C285.057 320.201 284.16 319.582 283.711 318.698L281.02 312.951C280.124 311.182 281.469 309.148 283.442 309.148Z" fill="#84A359"/>
<path d="M154.737 208.774V198.035C154.737 194.007 158.411 191.144 162.17 192.218L184.898 199.288C188.145 200.272 189.854 204.031 188.572 207.343L181.822 224.705C180.968 226.942 178.832 228.464 176.525 228.464H160.462C157.3 228.464 154.737 225.779 154.737 222.468V208.774Z" fill="#84A359"/>
<path d="M185.971 210.779H187.228C188.652 210.779 189.909 211.653 190.496 212.963L197.617 229.033C199.377 232.963 199.377 237.417 197.701 241.435L189.239 261.61C187.731 265.278 182.369 264.142 182.369 260.125V214.447C182.369 212.439 183.961 210.779 185.971 210.779Z" fill="#84A359"/>
<path d="M144.79 103.35V149.043C144.79 150.672 145.578 152.215 146.893 153.244L152.328 157.358C166.177 167.903 182.13 175.447 199.223 179.562L208.777 181.877C212.196 182.734 215.526 180.162 215.526 176.733V132.84C215.526 130.783 214.387 128.982 212.546 128.039L152.766 98.7204C148.997 96.7486 144.79 99.3204 144.79 103.35Z" fill="#84A359"/>
<path d="M209.448 329.043C211.584 329.043 213.316 327.064 213.316 324.622C213.316 322.181 211.584 320.201 209.448 320.201C207.311 320.201 205.579 322.181 205.579 324.622C205.579 327.064 207.311 329.043 209.448 329.043Z" fill="#507146"/>
<path d="M257.526 320.2C260.578 320.2 263.053 317.974 263.053 315.227C263.053 312.48 260.578 310.253 257.526 310.253C254.474 310.253 252 312.48 252 315.227C252 317.974 254.474 320.2 257.526 320.2Z" fill="#507146"/>
<path d="M145.895 151.096C148.336 151.096 150.316 149.117 150.316 146.675C150.316 144.233 148.336 142.254 145.895 142.254C143.453 142.254 141.474 144.233 141.474 146.675C141.474 149.117 143.453 151.096 145.895 151.096Z" fill="#B5B758"/>
<path d="M152.526 142.254C155.578 142.254 158.053 139.78 158.053 136.727C158.053 133.675 155.578 131.201 152.526 131.201C149.474 131.201 147 133.675 147 136.727C147 139.78 149.474 142.254 152.526 142.254Z" fill="#B5B758"/>
<path d="M204.474 183.148C206.915 183.148 208.895 181.168 208.895 178.727C208.895 176.285 206.915 174.306 204.474 174.306C202.032 174.306 200.053 176.285 200.053 178.727C200.053 181.168 202.032 183.148 204.474 183.148Z" fill="#B5B758"/>
<path d="M216.631 243.938C219.073 243.938 221.053 241.711 221.053 238.964C221.053 236.217 219.073 233.99 216.631 233.99C214.19 233.99 212.21 236.217 212.21 238.964C212.21 241.711 214.19 243.938 216.631 243.938Z" fill="#B5B758"/>
<path d="M219.947 259.411C222.389 259.411 224.368 257.431 224.368 254.989C224.368 252.548 222.389 250.568 219.947 250.568C217.506 250.568 215.526 252.548 215.526 254.989C215.526 257.431 217.506 259.411 219.947 259.411Z" fill="#B5B758"/>
<path d="M203.921 281.516C206.058 281.516 207.79 279.537 207.79 277.095C207.79 274.653 206.058 272.674 203.921 272.674C201.785 272.674 200.053 274.653 200.053 277.095C200.053 279.537 201.785 281.516 203.921 281.516Z" fill="#B5B758"/>
<path d="M270.237 240.621C272.374 240.621 274.105 238.147 274.105 235.095C274.105 232.043 272.374 229.568 270.237 229.568C268.101 229.568 266.369 232.043 266.369 235.095C266.369 238.147 268.101 240.621 270.237 240.621Z" fill="#B5B758"/>
<path d="M281.842 204.148C284.284 204.148 286.263 201.674 286.263 198.622C286.263 195.57 284.284 193.096 281.842 193.096C279.401 193.096 277.421 195.57 277.421 198.622C277.421 201.674 279.401 204.148 281.842 204.148Z" fill="#B5B758"/>
<path d="M265.263 206.359C267.705 206.359 269.684 204.379 269.684 201.938C269.684 199.496 267.705 197.517 265.263 197.517C262.822 197.517 260.842 199.496 260.842 201.938C260.842 204.379 262.822 206.359 265.263 206.359Z" fill="#B5B758"/>
<path d="M294.553 252.78C297.3 252.78 299.526 250.8 299.526 248.359C299.526 245.917 297.3 243.938 294.553 243.938C291.806 243.938 289.579 245.917 289.579 248.359C289.579 250.8 291.806 252.78 294.553 252.78Z" fill="#B5B758"/>
<path d="M281.842 258.306C284.284 258.306 286.263 256.327 286.263 253.885C286.263 251.443 284.284 249.464 281.842 249.464C279.401 249.464 277.421 251.443 277.421 253.885C277.421 256.327 279.401 258.306 281.842 258.306Z" fill="#B5B758"/>
<path d="M263.052 279.306C265.494 279.306 267.473 277.079 267.473 274.332C267.473 271.585 265.494 269.358 263.052 269.358C260.611 269.358 258.631 271.585 258.631 274.332C258.631 277.079 260.611 279.306 263.052 279.306Z" fill="#B5B758"/>
<path d="M282.395 300.307C284.531 300.307 286.263 297.832 286.263 294.78C286.263 291.728 284.531 289.254 282.395 289.254C280.258 289.254 278.526 291.728 278.526 294.78C278.526 297.832 280.258 300.307 282.395 300.307Z" fill="#B5B758"/>
<path d="M246.474 316.885C248.915 316.885 250.895 314.906 250.895 312.464C250.895 310.022 248.915 308.043 246.474 308.043C244.032 308.043 242.053 310.022 242.053 312.464C242.053 314.906 244.032 316.885 246.474 316.885Z" fill="#B5B758"/>
<path d="M213.868 313.569C216.615 313.569 218.842 311.589 218.842 309.148C218.842 306.706 216.615 304.727 213.868 304.727C211.121 304.727 208.895 306.706 208.895 309.148C208.895 311.589 211.121 313.569 213.868 313.569Z" fill="#B5B758"/>
<path d="M204.474 329.043C206.915 329.043 208.895 327.064 208.895 324.622C208.895 322.181 206.915 320.201 204.474 320.201C202.032 320.201 200.053 322.181 200.053 324.622C200.053 327.064 202.032 329.043 204.474 329.043Z" fill="#B5B758"/>
<path d="M285.158 292.568C287.6 292.568 289.579 290.342 289.579 287.595C289.579 284.848 287.6 282.621 285.158 282.621C282.716 282.621 280.737 284.848 280.737 287.595C280.737 290.342 282.716 292.568 285.158 292.568Z" fill="#507146"/>
<path d="M267.474 283.727C269.915 283.727 271.895 281.5 271.895 278.753C271.895 276.006 269.915 273.779 267.474 273.779C265.032 273.779 263.053 276.006 263.053 278.753C263.053 281.5 265.032 283.727 267.474 283.727Z" fill="#507146"/>
<path d="M212.21 254.99C215.262 254.99 217.737 253.258 217.737 251.121C217.737 248.985 215.262 247.253 212.21 247.253C209.158 247.253 206.684 248.985 206.684 251.121C206.684 253.258 209.158 254.99 212.21 254.99Z" fill="#507146"/>
<path d="M225.474 275.991C227.915 275.991 229.895 274.259 229.895 272.122C229.895 269.986 227.915 268.254 225.474 268.254C223.032 268.254 221.053 269.986 221.053 272.122C221.053 274.259 223.032 275.991 225.474 275.991Z" fill="#507146"/>
<path d="M277.974 205.253C280.721 205.253 282.947 203.274 282.947 200.832C282.947 198.391 280.721 196.411 277.974 196.411C275.227 196.411 273 198.391 273 200.832C273 203.274 275.227 205.253 277.974 205.253Z" fill="#507146"/>
<path d="M294.553 193.096C297.3 193.096 299.526 191.117 299.526 188.675C299.526 186.233 297.3 184.254 294.553 184.254C291.806 184.254 289.579 186.233 289.579 188.675C289.579 191.117 291.806 193.096 294.553 193.096Z" fill="#507146"/>
<path d="M152.526 158.832C155.578 158.832 158.053 156.605 158.053 153.858C158.053 151.112 155.578 148.885 152.526 148.885C149.474 148.885 147 151.112 147 153.858C147 156.605 149.474 158.832 152.526 158.832Z" fill="#507146"/>
<path d="M273 197.517C276.052 197.517 278.526 195.29 278.526 192.543C278.526 189.796 276.052 187.569 273 187.569C269.948 187.569 267.474 189.796 267.474 192.543C267.474 195.29 269.948 197.517 273 197.517Z" fill="#849258"/>
<path d="M265.263 231.78C267.705 231.78 269.684 230.048 269.684 227.911C269.684 225.775 267.705 224.043 265.263 224.043C262.822 224.043 260.842 225.775 260.842 227.911C260.842 230.048 262.822 231.78 265.263 231.78Z" fill="#849258"/>
<path d="M279.632 235.096C282.073 235.096 284.053 233.117 284.053 230.675C284.053 228.233 282.073 226.254 279.632 226.254C277.19 226.254 275.21 228.233 275.21 230.675C275.21 233.117 277.19 235.096 279.632 235.096Z" fill="#849258"/>
<path d="M291.237 258.306C293.373 258.306 295.105 256.327 295.105 253.885C295.105 251.443 293.373 249.464 291.237 249.464C289.1 249.464 287.368 251.443 287.368 253.885C287.368 256.327 289.1 258.306 291.237 258.306Z" fill="#849258"/>
<path d="M225.474 251.674C227.915 251.674 229.895 249.447 229.895 246.7C229.895 243.953 227.915 241.727 225.474 241.727C223.032 241.727 221.053 243.953 221.053 246.7C221.053 249.447 223.032 251.674 225.474 251.674Z" fill="#849258"/>
<path d="M265.263 272.674C267.705 272.674 269.684 270.695 269.684 268.253C269.684 265.811 267.705 263.832 265.263 263.832C262.822 263.832 260.842 265.811 260.842 268.253C260.842 270.695 262.822 272.674 265.263 272.674Z" fill="#849258"/>
<path d="M225.671 170.145H224.171V171.645V186.5H176.5V33.5024H214.024H215.524V32.0024V1.5H313.5V170.145H225.671Z" fill="white" stroke="black" stroke-width="3" stroke-miterlimit="10"/>
<path d="M221.5 216.5L221.5 328.5L46.5 328.5L46.5 216.5L221.5 216.5Z" fill="white" stroke="black" stroke-width="3" stroke-miterlimit="10"/>
<path d="M118.015 285.848L130.398 285.848L130.398 250.822L118.015 250.822L118.015 285.848Z" fill="black"/>
<path d="M180.734 158.912L204.145 158.912L204.145 146.99L180.734 146.99L180.734 158.912Z" fill="black"/>
<path d="M217.339 114.432L229.723 114.432L229.723 79.4057L217.339 79.4057L217.339 114.432Z" fill="black"/>
<path d="M126.4 265.681C126.77 265.681 127.078 265.372 127.078 265.002C127.078 264.631 126.77 264.322 126.4 264.322C126.031 264.322 125.723 264.631 125.723 265.002C125.723 265.372 126.031 265.681 126.4 265.681Z" fill="white"/>
<path d="M126.277 270.005V272.415C126.277 272.847 125.661 272.847 125.661 272.415V270.005H124.798L125.723 266.793H125.599L125.045 268.585C124.922 268.955 124.367 268.832 124.49 268.399L125.106 266.422C125.168 266.175 125.476 265.805 125.969 265.805H126.4H126.893C127.386 265.805 127.694 266.237 127.756 266.422L128.372 268.399C128.495 268.832 127.941 269.017 127.817 268.585L127.263 266.793H127.078L128.002 270.005H127.14V272.415C127.14 272.847 126.524 272.847 126.524 272.415V270.005H126.277Z" fill="white"/>
<path d="M121.132 265.866C120.639 265.866 120.269 266.237 120.269 266.793V268.893C120.269 269.326 120.885 269.326 120.885 268.893V266.978H121.008V272.353C121.008 272.909 121.809 272.909 121.809 272.353V269.202H121.932V272.353C121.932 272.909 122.733 272.909 122.733 272.353V266.978H122.857V268.893C122.857 269.326 123.473 269.326 123.473 268.893V266.793C123.473 266.36 123.103 265.866 122.61 265.866H121.132Z" fill="white"/>
<path d="M121.871 265.62C122.245 265.62 122.548 265.315 122.548 264.94C122.548 264.565 122.245 264.261 121.871 264.261C121.496 264.261 121.193 264.565 121.193 264.94C121.193 265.315 121.496 265.62 121.871 265.62Z" fill="white"/>
<path d="M223.359 94.443C223.729 94.443 224.037 94.1341 224.037 93.7635C224.037 93.3929 223.729 93.084 223.359 93.084C222.989 93.084 222.681 93.3929 222.681 93.7635C222.681 94.1341 222.989 94.443 223.359 94.443Z" fill="white"/>
<path d="M223.236 98.7671V101.176C223.236 101.609 222.619 101.609 222.619 101.176V98.7671H221.757L222.681 95.5548H222.558L222.003 97.3463C221.88 97.7169 221.326 97.5933 221.449 97.1609L222.065 95.1841C222.127 94.9371 222.435 94.5664 222.928 94.5664H223.359H223.852C224.345 94.5664 224.653 94.9988 224.714 95.1841L225.33 97.1609C225.453 97.5933 224.899 97.7787 224.776 97.3463L224.221 95.5548H224.036L224.961 98.7671H224.098V101.176C224.098 101.609 223.482 101.609 223.482 101.176V98.7671H223.236Z" fill="white"/>
<path d="M191.877 150.286C191.384 150.286 191.014 150.657 191.014 151.213V153.313C191.014 153.745 191.63 153.745 191.63 153.313V151.398H191.753V156.772C191.753 157.328 192.554 157.328 192.554 156.772V153.622H192.678V156.772C192.678 157.328 193.479 157.328 193.479 156.772V151.398H193.602V153.313C193.602 153.745 194.218 153.745 194.218 153.313V151.213C194.218 150.78 193.848 150.286 193.355 150.286H191.877Z" fill="white"/>
<path d="M192.616 150.101C192.99 150.101 193.293 149.797 193.293 149.422C193.293 149.046 192.99 148.742 192.616 148.742C192.241 148.742 191.938 149.046 191.938 149.422C191.938 149.797 192.241 150.101 192.616 150.101Z" fill="white"/>
<path d="M180.745 182.246L191.773 182.246L191.773 161.366L180.745 161.366L180.745 182.246Z" fill="#C4C4C4"/>
<path d="M193.786 182.287H206.293H219.539V161.407V147.014H206.293V161.407H193.786V182.287Z" fill="#DAC452"/>
<path d="M232.198 114.432L256.349 114.432L256.349 79.4057L232.198 79.4057L232.198 114.432Z" fill="#C4C4C4"/>
<path d="M258.209 114.432L270.593 114.432L270.593 79.4057L258.209 79.4057L258.209 114.432Z" fill="black"/>
<path d="M268.025 100.313V95.0001C268.025 94.4441 267.594 94.0117 267.039 94.0117H261.741C261.187 94.0117 260.755 94.4441 260.755 95.0001V100.313C260.755 100.869 261.187 101.301 261.741 101.301H267.039C267.594 101.239 268.025 100.869 268.025 100.313ZM267.224 100.436H261.556V94.8148H267.224V100.436Z" fill="white"/>
<path d="M265.253 90.5519C265.253 90.1194 265.869 90.1194 265.869 90.5519V92.2815L266.177 91.9109C266.423 91.6638 266.793 92.0344 266.547 92.2815L265.746 93.2081C265.623 93.3317 265.438 93.3317 265.315 93.2081L264.514 92.2815C264.267 91.9727 264.698 91.6638 264.883 91.9109L265.191 92.3433L265.253 90.5519Z" fill="white"/>
<path d="M262.912 93.0214C262.912 93.4538 263.528 93.4538 263.528 93.0214V91.2917L263.836 91.6624C264.082 91.9095 264.452 91.5388 264.205 91.2917L263.404 90.3651C263.281 90.2416 263.096 90.2416 262.973 90.3651L262.172 91.2917C261.926 91.6006 262.357 91.9095 262.542 91.6624L262.85 91.23L262.912 93.0214Z" fill="white"/>
<path d="M265.993 96.4814H264.946C264.822 96.4814 264.699 96.605 264.699 96.7285V98.0258C264.699 98.1493 264.761 98.2111 264.884 98.2111C264.884 98.2111 264.946 98.2111 265.007 98.2111V99.879C265.007 100.188 265.439 100.188 265.439 99.879V98.2111H265.5V99.879C265.5 100.188 265.931 100.188 265.931 99.879V98.2111C265.993 98.2111 266.055 98.2111 266.055 98.2111C266.178 98.2111 266.239 98.1493 266.239 98.0258V96.7285C266.239 96.605 266.178 96.4814 265.993 96.4814Z" fill="white"/>
<path d="M265.5 96.358C265.671 96.358 265.808 96.2197 265.808 96.0491C265.808 95.8785 265.671 95.7402 265.5 95.7402C265.33 95.7402 265.192 95.8785 265.192 96.0491C265.192 96.2197 265.33 96.358 265.5 96.358Z" fill="white"/>
<path d="M263.775 96.4814H262.727C262.604 96.4814 262.481 96.605 262.481 96.7285V98.0258C262.481 98.1493 262.543 98.2111 262.666 98.2111C262.666 98.2111 262.727 98.2111 262.789 98.2111V99.879C262.789 100.188 263.22 100.188 263.22 99.879V98.2111H263.282V99.879C263.282 100.188 263.713 100.188 263.713 99.879V98.2111C263.775 98.2111 263.836 98.2111 263.836 98.2111C263.96 98.2111 264.021 98.1493 264.021 98.0258V96.7285C264.021 96.605 263.898 96.4814 263.775 96.4814Z" fill="white"/>
<path d="M263.282 96.358C263.452 96.358 263.59 96.2197 263.59 96.0491C263.59 95.8785 263.452 95.7402 263.282 95.7402C263.112 95.7402 262.974 95.8785 262.974 96.0491C262.974 96.2197 263.112 96.358 263.282 96.358Z" fill="white"/>
<path d="M180.553 114.432L215.485 114.432L215.485 79.4057L180.553 79.4057L180.553 114.432Z" fill="#C4C4C4"/>
<path d="M281.333 79.4316H308.749V114.458H296.92L281.333 92.5895V79.4316Z" fill="#DAC452"/>
<path d="M260.14 5.85938V54.105H308.749V5.85938L260.14 5.85938Z" fill="#DAC452"/>
<path d="M220 6.41211V54.4121H247V6.41211L220 6.41211Z" fill="#DAC452"/>
<path d="M180.553 76.9297L215.485 76.9297L215.485 38.8768L180.553 38.8768L180.553 76.9297Z" fill="#C4C4C4"/>
<path d="M132.871 285.848L150.122 285.848L150.122 250.822L132.871 250.822L132.871 285.848Z" fill="#C4C4C4"/>
<path d="M174 285.588L183 285.588L183 266.588L174 266.588L174 285.588Z" fill="#C8A67C"/>
<path d="M185 285.588L192 285.588L192 266.588L185 266.588L185 285.588Z" fill="#C8A67C"/>
<path d="M194.494 285.848L217.413 285.848L217.413 266.945L194.494 266.945L194.494 285.848Z" fill="#C8A67C"/>
<path d="M173.64 248.695V264.756H217.383V220.711H166.74V248.695H173.64Z" fill="#C4C4C4"/>
<path d="M158.884 285.848L171.268 285.848L171.268 250.822L158.884 250.822L158.884 285.848Z" fill="#FF0000"/>
<path d="M168.65 273.835V268.523C168.65 267.967 168.219 267.534 167.664 267.534H162.366C161.812 267.534 161.38 267.967 161.38 268.523V273.835C161.38 274.391 161.812 274.824 162.366 274.824H167.664C168.219 274.762 168.65 274.391 168.65 273.835ZM167.911 273.959H162.243V268.337H167.911V273.959Z" fill="white"/>
<path d="M165.939 264.075C165.939 263.643 166.556 263.643 166.556 264.075V265.805L166.864 265.434C167.11 265.187 167.48 265.558 167.233 265.805L166.432 266.732C166.309 266.855 166.124 266.855 166.001 266.732L165.2 265.805C164.954 265.496 165.385 265.187 165.57 265.434L165.878 265.867L165.939 264.075Z" fill="white"/>
<path d="M163.537 266.545C163.537 266.977 164.153 266.977 164.153 266.545V264.815L164.461 265.186C164.707 265.433 165.077 265.062 164.83 264.815L164.029 263.889C163.906 263.765 163.721 263.765 163.598 263.889L162.797 264.815C162.551 265.124 162.982 265.433 163.167 265.186L163.475 264.753L163.537 266.545Z" fill="white"/>
<path d="M166.68 270.005H165.632C165.509 270.005 165.386 270.128 165.386 270.252V271.549C165.386 271.673 165.447 271.735 165.571 271.735C165.571 271.735 165.632 271.735 165.694 271.735V273.402C165.694 273.711 166.125 273.711 166.125 273.402V271.735H166.187V273.402C166.187 273.711 166.618 273.711 166.618 273.402V271.735C166.68 271.735 166.741 271.735 166.741 271.735C166.864 271.735 166.926 271.673 166.926 271.549V270.252C166.926 270.128 166.864 270.005 166.68 270.005Z" fill="white"/>
<path d="M166.186 269.881C166.357 269.881 166.495 269.743 166.495 269.573C166.495 269.402 166.357 269.264 166.186 269.264C166.016 269.264 165.878 269.402 165.878 269.573C165.878 269.743 166.016 269.881 166.186 269.881Z" fill="white"/>
<path d="M164.461 270.005H163.414C163.291 270.005 163.167 270.128 163.167 270.252V271.549C163.167 271.673 163.229 271.735 163.352 271.735C163.352 271.735 163.414 271.735 163.476 271.735V273.402C163.476 273.711 163.907 273.711 163.907 273.402V271.735H163.968V273.402C163.968 273.711 164.4 273.711 164.4 273.402V271.735C164.461 271.735 164.523 271.735 164.523 271.735C164.646 271.735 164.708 271.673 164.708 271.549V270.252C164.708 270.128 164.584 270.005 164.461 270.005Z" fill="white"/>
<path d="M163.968 269.881C164.138 269.881 164.276 269.743 164.276 269.573C164.276 269.402 164.138 269.264 163.968 269.264C163.798 269.264 163.66 269.402 163.66 269.573C163.66 269.743 163.798 269.881 163.968 269.881Z" fill="white"/>
<path d="M116.158 285.821V250.795H88.0644V220.711H69.8281V250.795V285.821H116.158Z" fill="#C4C4C4"/>
<path d="M118.05 248.74L143.988 248.74L143.988 220.757L118.05 220.757L118.05 248.74Z" fill="#C4C4C4"/>
<path d="M90 323.412L116 323.412L116 299.412L90 299.412L90 323.412Z" fill="#C8A67C"/>
<path d="M119 323.412L145 323.412L145 299.412L119 299.412L119 323.412Z" fill="#C8A67C"/>
<path d="M51.0731 285.865L67.646 285.865L67.646 220.755L51.0731 220.755L51.0731 285.865Z" fill="#C4C4C4"/>
<path d="M51.0686 323.634L88.0957 323.634L88.0957 287.805L51.0686 287.805L51.0686 323.634Z" fill="#C4C4C4"/>
<path d="M246.832 72.2305L270.552 72.2305L270.552 59.3815L246.832 59.3815L246.832 72.2305Z" fill="black"/>
<path d="M257.921 63.2477C258.291 63.2477 258.599 62.9388 258.599 62.5682C258.599 62.1975 258.291 61.8887 257.921 61.8887C257.552 61.8887 257.244 62.1975 257.244 62.5682C257.305 63.0006 257.552 63.2477 257.921 63.2477Z" fill="white"/>
<path d="M262.481 62.6914H260.94C260.632 62.6914 260.201 62.815 259.955 63.0621L258.538 64.4829V64.0504C258.538 63.1856 257.244 63.1856 257.244 64.0504V65.7183L256.012 66.9538C255.888 67.0774 255.888 67.0774 255.642 67.0774H254.903C254.163 67.0774 253.67 67.7569 253.67 68.3129C253.67 68.8688 254.102 69.6101 254.964 69.6101C254.964 69.6101 256.012 69.6101 256.32 69.6101C256.628 69.6101 256.997 69.4866 257.305 69.1777L261.248 65.2859C261.31 65.2241 261.372 65.1624 261.495 65.1624C261.495 65.1624 262.049 65.1624 262.481 65.1624C262.973 65.1624 263.589 64.6064 263.589 63.8651C263.651 63.1856 262.973 62.6914 262.481 62.6914ZM262.419 64.5446H261.618C261.248 64.5446 261.125 64.6064 260.94 64.7917L256.997 68.7453C256.812 68.9306 256.628 68.9924 256.381 68.9924H255.087C254.779 68.9924 254.471 68.6835 254.471 68.3129C254.471 67.9422 254.779 67.7569 255.026 67.7569H255.888C256.135 67.7569 256.32 67.6951 256.443 67.5098L260.447 63.4945C260.632 63.3091 260.755 63.3091 261.064 63.3091H262.419C262.727 63.3091 262.973 63.6798 262.973 63.9269C262.973 64.174 262.789 64.5446 262.419 64.5446Z" fill="white"/>
<path d="M236.912 138.844L270.551 138.844L270.551 125.995L236.912 125.995L236.912 138.844Z" fill="black"/>
<path d="M252.993 129.84C253.362 129.84 253.67 129.531 253.67 129.16C253.67 128.789 253.362 128.48 252.993 128.48C252.623 128.48 252.315 128.789 252.315 129.16C252.377 129.592 252.623 129.84 252.993 129.84Z" fill="white"/>
<path d="M257.552 129.283H256.012C255.704 129.283 255.272 129.407 255.026 129.654L253.609 131.075V130.642C253.609 129.777 252.315 129.777 252.315 130.642V132.31L251.083 133.546C250.96 133.669 250.96 133.669 250.713 133.669H249.974C249.235 133.669 248.742 134.349 248.742 134.905C248.742 135.461 249.173 136.202 250.035 136.202C250.035 136.202 251.083 136.202 251.391 136.202C251.699 136.202 252.069 136.078 252.377 135.769L256.32 131.878C256.381 131.816 256.443 131.754 256.566 131.754C256.566 131.754 257.121 131.754 257.552 131.754C258.045 131.754 258.661 131.198 258.661 130.457C258.722 129.777 258.045 129.283 257.552 129.283ZM257.49 131.136H256.689C256.32 131.136 256.196 131.198 256.012 131.384L252.069 135.337C251.884 135.522 251.699 135.584 251.453 135.584H250.159C249.851 135.584 249.543 135.275 249.543 134.905C249.543 134.534 249.851 134.349 250.097 134.349H250.96C251.206 134.349 251.391 134.287 251.514 134.102L255.519 130.086C255.704 129.901 255.827 129.901 256.135 129.901H257.49C257.798 129.901 258.045 130.272 258.045 130.519C258.045 130.766 257.86 131.136 257.49 131.136Z" fill="white"/>
<path d="M158.864 323.632L192.502 323.632L192.502 310.783L158.864 310.783L158.864 323.632Z" fill="black"/>
<path d="M174.934 314.669C175.304 314.669 175.612 314.36 175.612 313.989C175.612 313.618 175.304 313.31 174.934 313.31C174.564 313.31 174.256 313.618 174.256 313.989C174.256 314.36 174.564 314.669 174.934 314.669Z" fill="white"/>
<path d="M179.493 314.051H177.953C177.645 314.051 177.214 314.174 176.967 314.421L175.55 315.842V315.41C175.55 314.545 174.256 314.545 174.256 315.41V317.078L173.024 318.313C172.901 318.437 172.901 318.437 172.655 318.437H171.915C171.176 318.437 170.683 319.116 170.683 319.672C170.683 320.228 171.114 320.969 171.977 320.969C171.977 320.969 173.024 320.969 173.332 320.969C173.64 320.969 174.01 320.846 174.318 320.537L178.199 316.645C178.261 316.584 178.323 316.522 178.446 316.522C178.446 316.522 179 316.522 179.432 316.522C179.924 316.522 180.541 315.966 180.541 315.224C180.602 314.607 179.986 314.051 179.493 314.051ZM179.37 315.966H178.569C178.199 315.966 178.076 316.028 177.891 316.213L173.948 320.166C173.764 320.352 173.579 320.414 173.332 320.414H171.977C171.669 320.414 171.361 320.105 171.361 319.734C171.361 319.363 171.669 319.178 171.915 319.178H172.778C173.024 319.178 173.209 319.116 173.332 318.931L177.337 314.916C177.522 314.73 177.645 314.73 177.953 314.73H179.308C179.616 314.73 179.863 315.101 179.863 315.348C179.863 315.595 179.801 315.966 179.37 315.966Z" fill="white"/>
<path d="M223.079 194.703H242.178L242.24 212.123H223.141L223.079 194.703Z" fill="black"/>
<path d="M236.264 207.923V202.61C236.264 202.054 235.832 201.622 235.278 201.622H229.979C229.425 201.622 228.994 202.054 228.994 202.61V207.923C228.994 208.479 229.425 208.911 229.979 208.911H235.278C235.832 208.911 236.264 208.479 236.264 207.923ZM235.463 208.108H229.795V202.487H235.463V208.108Z" fill="white"/>
<path d="M233.491 198.225C233.491 197.792 234.107 197.792 234.107 198.225V199.954L234.415 199.584C234.662 199.337 235.031 199.707 234.785 199.954L233.984 200.881C233.861 201.004 233.676 201.004 233.553 200.881L232.752 199.954C232.505 199.645 232.937 199.337 233.122 199.584L233.43 200.016L233.491 198.225Z" fill="white"/>
<path d="M231.15 200.634C231.15 201.066 231.766 201.066 231.766 200.634V198.904L232.074 199.275C232.32 199.522 232.69 199.151 232.444 198.904L231.643 197.977C231.52 197.854 231.335 197.854 231.212 197.977L230.411 198.904C230.164 199.213 230.595 199.522 230.78 199.275L231.088 198.842L231.15 200.634Z" fill="white"/>
<path d="M234.231 204.155H233.184C233.061 204.155 232.938 204.279 232.938 204.402V205.7C232.938 205.823 232.999 205.885 233.122 205.885C233.122 205.885 233.184 205.885 233.246 205.885V207.553C233.246 207.862 233.677 207.862 233.677 207.553V205.885H233.738V207.553C233.738 207.862 234.17 207.862 234.17 207.553V205.885C234.231 205.885 234.293 205.885 234.293 205.885C234.416 205.885 234.478 205.823 234.478 205.7V204.402C234.478 204.279 234.416 204.155 234.231 204.155Z" fill="white"/>
<path d="M233.739 204.032C233.909 204.032 234.047 203.894 234.047 203.723C234.047 203.552 233.909 203.414 233.739 203.414C233.569 203.414 233.431 203.552 233.431 203.723C233.431 203.894 233.569 204.032 233.739 204.032Z" fill="white"/>
<path d="M232.013 204.155H230.966C230.842 204.155 230.719 204.279 230.719 204.402V205.7C230.719 205.823 230.781 205.885 230.904 205.885C230.904 205.885 230.966 205.885 231.027 205.885V207.553C231.027 207.862 231.459 207.862 231.459 207.553V205.885H231.52V207.553C231.52 207.862 231.951 207.862 231.951 207.553V205.885C232.013 205.885 232.075 205.885 232.075 205.885C232.198 205.885 232.26 205.823 232.26 205.7V204.402C232.26 204.279 232.136 204.155 232.013 204.155Z" fill="white"/>
<path d="M231.521 204.032C231.691 204.032 231.829 203.894 231.829 203.723C231.829 203.552 231.691 203.414 231.521 203.414C231.351 203.414 231.213 203.552 231.213 203.723C231.213 203.894 231.351 204.032 231.521 204.032Z" fill="white"/>
<path d="M227.719 187.631L261.358 187.631L261.358 174.782L227.719 174.782L227.719 187.631Z" fill="black"/>
<path d="M243.78 178.642C244.15 178.642 244.458 178.333 244.458 177.963C244.458 177.592 244.15 177.283 243.78 177.283C243.411 177.283 243.103 177.592 243.103 177.963C243.164 178.395 243.411 178.642 243.78 178.642Z" fill="white"/>
<path d="M248.339 178.086H246.799C246.491 178.086 246.06 178.209 245.813 178.457L244.396 179.877V179.445C244.396 178.58 243.103 178.58 243.103 179.445V181.113L241.87 182.348C241.747 182.472 241.747 182.472 241.501 182.472H240.761C240.022 182.472 239.529 183.151 239.529 183.707C239.529 184.263 239.961 185.005 240.823 185.005C240.823 185.005 241.87 185.005 242.178 185.005C242.487 185.005 242.856 184.881 243.164 184.572L247.107 180.68C247.169 180.619 247.23 180.557 247.354 180.557C247.354 180.557 247.908 180.557 248.339 180.557C248.832 180.557 249.448 180.001 249.448 179.26C249.51 178.58 248.832 178.086 248.339 178.086ZM248.278 179.939H247.477C247.107 179.939 246.984 180.001 246.799 180.186L242.856 184.14C242.671 184.325 242.487 184.387 242.24 184.387H240.946C240.638 184.387 240.33 184.078 240.33 183.707C240.33 183.337 240.638 183.151 240.885 183.151H241.747C241.994 183.151 242.178 183.09 242.302 182.904L246.306 178.889C246.491 178.704 246.614 178.704 246.922 178.704H248.278C248.586 178.704 248.832 179.074 248.832 179.321C248.832 179.569 248.709 179.939 248.278 179.939Z" fill="white"/>
<path d="M231.222 315.393H232.72L234.102 310.638H234.159L235.544 315.393H237.042L239.123 308.12H237.443L236.24 313.184H236.176L234.851 308.12H233.413L232.085 313.173H232.024L230.821 308.12H229.141L231.222 315.393ZM239.946 315.393H244.861V314.125H241.484V312.388H244.595V311.121H241.484V309.388H244.847V308.12H239.946V315.393ZM250.014 310.211H251.488C251.467 308.915 250.402 308.02 248.782 308.02C247.188 308.02 246.019 308.901 246.027 310.222C246.023 311.295 246.779 311.909 248.008 312.204L248.8 312.403C249.592 312.594 250.032 312.822 250.036 313.312C250.032 313.844 249.528 314.206 248.747 314.206C247.948 314.206 247.372 313.837 247.323 313.109H245.835C245.874 314.682 247 315.496 248.764 315.496C250.54 315.496 251.584 314.647 251.588 313.315C251.584 312.104 250.671 311.461 249.407 311.177L248.754 311.021C248.122 310.876 247.593 310.641 247.603 310.119C247.603 309.65 248.019 309.306 248.772 309.306C249.507 309.306 249.958 309.64 250.014 310.211ZM252.345 309.388H254.571V315.393H256.091V309.388H258.318V308.12H252.345V309.388ZM229.308 321.388H231.534V327.393H233.054V321.388H235.281V320.12H229.308V321.388ZM242.625 323.756C242.625 321.377 241.148 320.02 239.22 320.02C237.281 320.02 235.814 321.377 235.814 323.756C235.814 326.125 237.281 327.492 239.22 327.492C241.148 327.492 242.625 326.135 242.625 323.756ZM241.066 323.756C241.066 325.297 240.335 326.132 239.22 326.132C238.101 326.132 237.373 325.297 237.373 323.756C237.373 322.215 238.101 321.381 239.22 321.381C240.335 321.381 241.066 322.215 241.066 323.756ZM245.128 327.393H246.627L248.008 322.638H248.065L249.45 327.393H250.948L253.029 320.12H251.35L250.146 325.184H250.082L248.757 320.12H247.319L245.991 325.173H245.931L244.727 320.12H243.047L245.128 327.393ZM253.852 327.393H258.767V326.125H255.39V324.388H258.501V323.121H255.39V321.388H258.753V320.12H253.852V327.393ZM259.975 327.393H261.513V324.814H262.635L264.013 327.393H265.71L264.166 324.566C264.993 324.211 265.451 323.49 265.451 322.496C265.451 321.05 264.496 320.12 262.845 320.12H259.975V327.393ZM261.513 323.579V321.377H262.55C263.438 321.377 263.867 321.771 263.867 322.496C263.867 323.216 263.438 323.579 262.557 323.579H261.513Z" fill="black"/>
<path d="M180.308 10.4121H185.223V9.14435H181.846V7.40785H184.957V6.14009H181.846V4.40714H185.209V3.13938H180.308V10.4121ZM187.685 10.4121L188.225 8.75373H190.849L191.389 10.4121H193.037L190.529 3.13938H188.548L186.037 10.4121H187.685ZM188.615 7.55344L189.51 4.80131H189.567L190.462 7.55344H188.615ZM197.691 5.231H199.165C199.144 3.93484 198.078 3.03995 196.459 3.03995C194.864 3.03995 193.696 3.92063 193.703 5.24165C193.7 6.3141 194.456 6.92844 195.685 7.22319L196.477 7.42205C197.269 7.61381 197.709 7.84109 197.712 8.33114C197.709 8.86381 197.205 9.22603 196.423 9.22603C195.624 9.22603 195.049 8.85671 194.999 8.12873H193.511C193.551 9.70188 194.676 10.5151 196.441 10.5151C198.217 10.5151 199.261 9.66637 199.264 8.33469C199.261 7.12376 198.348 6.481 197.084 6.19691L196.431 6.04066C195.798 5.89506 195.269 5.66069 195.28 5.13867C195.28 4.66992 195.695 4.32546 196.448 4.32546C197.183 4.32546 197.634 4.65927 197.691 5.231ZM200.022 4.40714H202.248V10.4121H203.768V4.40714H205.995V3.13938H200.022V4.40714ZM169.748 16.4071H171.975V22.4121H173.495V16.4071H175.721V15.1394H169.748V16.4071ZM183.066 18.7757C183.066 16.3965 181.589 15.04 179.66 15.04C177.721 15.04 176.255 16.3965 176.255 18.7757C176.255 21.1444 177.721 22.5115 179.66 22.5115C181.589 22.5115 183.066 21.155 183.066 18.7757ZM181.507 18.7757C181.507 20.3169 180.775 21.1515 179.66 21.1515C178.542 21.1515 177.814 20.3169 177.814 18.7757C177.814 17.2346 178.542 16.4 179.66 16.4C180.775 16.4 181.507 17.2346 181.507 18.7757ZM185.568 22.4121H187.067L188.448 17.6571H188.505L189.89 22.4121H191.389L193.47 15.1394H191.79L190.586 20.2033H190.522L189.198 15.1394H187.76L186.431 20.1926H186.371L185.167 15.1394H183.488L185.568 22.4121ZM194.293 22.4121H199.208V21.1444H195.83V19.4078H198.941V18.1401H195.83V16.4071H199.193V15.1394H194.293V22.4121ZM200.416 22.4121H201.953V19.834H203.076L204.453 22.4121H206.151L204.606 19.5854C205.434 19.2303 205.892 18.5094 205.892 17.5151C205.892 16.0698 204.936 15.1394 203.285 15.1394H200.416V22.4121ZM201.953 18.5982V16.3965H202.99C203.878 16.3965 204.308 16.7907 204.308 17.5151C204.308 18.236 203.878 18.5982 202.997 18.5982H201.953Z" fill="black"/>
<path d="M2.78125 43H16.4531C23.6406 43 27.4688 39.25 27.4688 34.1562C27.4688 29.4219 24.0781 26.5625 20.4375 26.3906V26.0781C23.7656 25.3281 26.2188 22.9687 26.2188 19.2031C26.2188 14.4062 22.6563 11 15.5937 11H2.78125V43ZM9.54688 37.4687V28.9687H15.2188C18.4688 28.9687 20.4844 30.8438 20.4844 33.4844C20.4844 35.8906 18.8438 37.4687 15.0625 37.4687H9.54688ZM9.54688 24.3906V16.4687H14.6875C17.6875 16.4687 19.3906 18.0156 19.3906 20.3281C19.3906 22.8594 17.3281 24.3906 14.5625 24.3906H9.54688ZM45.6055 11H39.2461L31.3242 16.0156V22.0156L38.6523 17.4219H38.8398V43H45.6055V11Z" fill="black"/>
<path d="M99.8925 310.932H101.02V310.302H99.8925V309.534H99.1005V310.302H97.9485V310.932H99.1005V311.124C99.1005 311.964 98.6685 312.9 97.7625 313.308L98.1885 313.914C98.8185 313.632 99.2625 313.068 99.5085 312.402C99.7545 313.032 100.192 313.56 100.816 313.818L101.236 313.212C100.33 312.822 99.8925 311.922 99.8925 311.124V310.932ZM101.53 309.402V314.928H102.322V309.402H101.53ZM106.186 312.516C106.336 311.604 106.336 310.932 106.336 310.398V309.948H103.492V310.578H105.556C105.556 311.07 105.538 311.664 105.412 312.45L106.186 312.516ZM104.98 311.532H104.2V313.164C103.852 313.17 103.516 313.17 103.21 313.17L103.282 313.818C104.242 313.812 105.478 313.788 106.6 313.596L106.558 313.026C106.054 313.086 105.514 313.122 104.98 313.14V311.532ZM108.346 311.622H107.602V309.396H106.81V314.922H107.602V312.282H108.346V311.622Z" fill="black"/>
<path d="M176.277 275.911C176.277 275.695 176.43 275.569 176.64 275.569C176.847 275.569 177.003 275.695 177.003 275.911C177.003 276.124 176.847 276.253 176.64 276.253C176.43 276.253 176.277 276.124 176.277 275.911ZM177.387 275.911C177.387 275.518 177.063 275.233 176.64 275.233C176.214 275.233 175.89 275.518 175.89 275.911C175.89 276.304 176.214 276.586 176.64 276.586C177.063 276.586 177.387 276.304 177.387 275.911ZM176.202 277.141H177.648V277.849H178.044V276.823H176.202V277.141ZM178.398 275.764V275.443H178.044V275.083H177.648V276.712H178.044V276.364H178.398V276.04H178.044V275.764H178.398ZM181.131 276.469V276.154H180.783C180.837 275.86 180.837 275.629 180.837 275.422V275.2H178.938V275.518H180.447C180.447 275.701 180.438 275.902 180.387 276.154H178.629V276.469H179.679V276.859H178.881V277.171H180.444V277.846H180.843V276.859H180.075V276.469H181.131Z" fill="black"/>
<path d="M188.038 276.073C188.125 275.758 188.125 275.506 188.125 275.329V275.173H187.135V275.485H187.738C187.735 275.629 187.717 275.806 187.657 276.034L188.038 276.073ZM186.784 276.082C186.928 275.758 186.928 275.497 186.928 275.32V275.173H186.073V275.485H186.541C186.529 275.623 186.496 275.788 186.397 276.025L186.784 276.082ZM188.059 277.12V276.814H187.318V276.595H186.916V276.814H186.178V277.12H186.901C186.838 277.309 186.571 277.492 186.067 277.54L186.199 277.834C186.643 277.786 186.955 277.633 187.117 277.42C187.279 277.636 187.594 277.786 188.038 277.834L188.17 277.54C187.666 277.492 187.396 277.309 187.333 277.12H188.059ZM187.36 276.193V275.803H186.973V276.193H185.875V276.511H188.365V276.193H187.36ZM190.351 276.244C189.931 276.121 189.727 275.836 189.706 275.545H190.249V275.233H188.746V275.545H189.298C189.277 275.857 189.076 276.157 188.638 276.286L188.836 276.598C189.16 276.499 189.382 276.292 189.508 276.034C189.634 276.271 189.847 276.46 190.159 276.55L190.351 276.244ZM190.531 277.498H189.481V277.255H190.531V277.498ZM190.531 276.952H189.481V276.7H189.088V277.813H190.924V276.7H190.531V276.952ZM190.525 275.086V276.583H190.924V275.086H190.525Z" fill="black"/>
<path d="M200.821 275.068V278.764H201.349V275.068H200.821ZM199.369 275.328C198.813 275.328 198.401 275.832 198.401 276.64C198.401 277.452 198.813 277.96 199.369 277.96C199.925 277.96 200.337 277.452 200.337 276.64C200.337 275.832 199.925 275.328 199.369 275.328ZM199.369 275.804C199.641 275.804 199.829 276.096 199.829 276.64C199.829 277.188 199.641 277.48 199.369 277.48C199.097 277.48 198.909 277.188 198.909 276.64C198.909 276.096 199.097 275.804 199.369 275.804ZM202.609 275.836H203.329V277.444H202.609V275.836ZM202.089 277.86H203.849V275.42H202.089V277.86ZM205.397 276.46H204.861V275.076H204.333V278.756H204.861V276.896H205.397V276.46ZM208.636 276.972H206.584V276.56H208.524V276.152H206.584V275.764H208.608V275.34H206.048V277.388H208.636V276.972ZM205.656 277.904V278.332H208.992V277.904H205.656ZM209.336 278.412H211.32V277.916H210.676C210.54 277.916 210.344 277.932 210.196 277.948C210.736 277.42 211.18 276.844 211.18 276.308C211.18 275.756 210.808 275.396 210.248 275.396C209.844 275.396 209.58 275.556 209.308 275.844L209.628 276.164C209.776 276 209.956 275.86 210.172 275.86C210.452 275.86 210.616 276.04 210.616 276.34C210.616 276.796 210.14 277.352 209.336 278.072V278.412ZM212.176 277.196L212.636 276.46C212.72 276.3 212.8 276.136 212.872 275.98H212.888C212.88 276.152 212.864 276.42 212.864 276.592V277.196H212.176ZM213.764 277.196H213.412V275.452H212.708L211.604 277.244V277.644H212.864V278.412H213.412V277.644H213.764V277.196Z" fill="black"/>
<path d="M125.721 313.062C125.421 313.062 125.241 312.648 125.241 311.796C125.241 310.95 125.421 310.536 125.721 310.536C126.027 310.536 126.201 310.95 126.201 311.796C126.201 312.648 126.027 313.062 125.721 313.062ZM127.347 311.436H126.909C126.819 310.404 126.375 309.792 125.721 309.792C124.989 309.792 124.527 310.548 124.527 311.796C124.527 313.05 124.989 313.806 125.721 313.806C126.393 313.806 126.843 313.158 126.915 312.078H127.347V314.682H128.085V309.492H127.347V311.436ZM128.469 309.396V314.922H129.219V309.396H128.469ZM133.784 309.396V314.94H134.576V309.396H133.784ZM131.606 309.786C130.772 309.786 130.154 310.542 130.154 311.754C130.154 312.972 130.772 313.734 131.606 313.734C132.44 313.734 133.058 312.972 133.058 311.754C133.058 310.542 132.44 309.786 131.606 309.786ZM131.606 310.5C132.014 310.5 132.296 310.938 132.296 311.754C132.296 312.576 132.014 313.014 131.606 313.014C131.198 313.014 130.916 312.576 130.916 311.754C130.916 310.938 131.198 310.5 131.606 310.5ZM136.412 311.082C136.412 310.65 136.724 310.398 137.144 310.398C137.564 310.398 137.882 310.65 137.882 311.082C137.882 311.514 137.564 311.772 137.144 311.772C136.724 311.772 136.412 311.514 136.412 311.082ZM137.546 312.396C138.194 312.252 138.65 311.748 138.65 311.082C138.65 310.29 138.002 309.72 137.144 309.72C136.292 309.72 135.644 310.29 135.644 311.082C135.644 311.754 136.106 312.264 136.76 312.402V313.182C136.298 313.188 135.848 313.188 135.458 313.188L135.554 313.83C136.484 313.836 137.714 313.836 138.866 313.62L138.8 313.05C138.398 313.098 137.978 313.134 137.546 313.152V312.396ZM140.606 311.568H139.88V309.396H139.088V314.922H139.88V312.222H140.606V311.568Z" fill="black"/>
<path d="M278.057 25.6051C276.601 25.3531 275.803 24.3521 275.803 23.4071V22.9451H274.816V23.4071C274.816 24.3311 274.011 25.3531 272.562 25.6051L272.954 26.3751C274.074 26.1581 274.893 25.5281 275.306 24.7091C275.719 25.5281 276.545 26.1511 277.665 26.3751L278.057 25.6051ZM272.422 27.4811V28.2301H278.26V27.4811H272.422ZM280.038 25.6191H282.054V24.8981H280.038V23.8481H282.145V23.0991H279.114V27.5581H279.66C280.766 27.5581 281.634 27.5301 282.614 27.3831L282.53 26.6481C281.69 26.7741 280.948 26.8091 280.038 26.8161V25.6191ZM284.847 25.0101H283.909V22.5671H282.985V29.0211H283.909V25.7731H284.847V25.0101ZM286.302 27.4321H289.767V29.0211H290.691V26.7041H286.302V27.4321ZM287.716 25.3881H286.491V24.5551H287.716V25.3881ZM289.767 22.5741V24.1421H288.619V22.9381H287.716V23.8481H286.491V22.9451H285.574V26.1301H288.619V24.8841H289.767V26.4171H290.691V22.5671L289.767 22.5741ZM297.375 25.6051C295.919 25.3531 295.121 24.3521 295.121 23.4071V22.9451H294.134V23.4071C294.134 24.3311 293.329 25.3531 291.88 25.6051L292.272 26.3751C293.392 26.1581 294.211 25.5281 294.624 24.7091C295.037 25.5281 295.863 26.1511 296.983 26.3751L297.375 25.6051ZM291.74 27.4811V28.2301H297.578V27.4811H291.74ZM276.93 34.6051H279.023V32.1131H275.978V32.8481H278.078V33.8771H275.985V36.5301H276.566C277.735 36.5301 278.68 36.4881 279.73 36.3061L279.632 35.5571C278.722 35.7111 277.91 35.7601 276.93 35.7671V34.6051ZM280.08 31.5601V38.0281H281.004V31.5601H280.08ZM284.503 32.9321H285.826V32.1831H282.249V32.9321H283.572V33.1561C283.572 34.3531 283.061 35.5921 281.983 36.0961L282.529 36.8241C283.271 36.4531 283.775 35.7391 284.048 34.8711C284.328 35.6761 284.825 36.3411 285.553 36.6981L286.085 35.9701C285.014 35.4801 284.503 34.2901 284.503 33.1561V32.9321ZM286.568 31.5601V33.8141H285.434V34.5631H286.568V38.0281H287.492V31.5601H286.568ZM288.521 36.4951V37.2511H294.359V36.4951H288.521ZM289.137 31.9871V35.4241H293.722V31.9871H292.812V33.0301H290.054V31.9871H289.137ZM290.054 33.7511H292.812V34.6891H290.054V33.7511Z" fill="black"/>
<path d="M228.268 22.9381V23.6661H230.263C230.13 24.5201 229.325 25.2271 227.897 25.5841L228.247 26.3051C230.165 25.8151 231.25 24.6531 231.25 22.9381H228.268ZM229.864 27.1591H232.307V28.2161H229.864V27.1591ZM228.954 28.9371H233.217V26.4311H228.954V28.9371ZM232.286 22.5741V26.1581H233.217V22.5741H232.286ZM237.745 23.0781H236.87V24.1631C236.87 24.9191 236.807 25.7591 236.422 26.4101C236.03 25.7521 235.967 24.9051 235.967 24.1631V23.0781H235.099V24.1631C235.099 25.1921 234.98 26.3121 234.161 26.9491L234.756 27.5791C235.148 27.2641 235.393 26.8021 235.547 26.2561C235.708 26.8301 235.974 27.3411 236.422 27.6841C236.87 27.3411 237.143 26.8301 237.297 26.2351C237.451 26.8091 237.71 27.2851 238.13 27.6141L238.69 26.9491C237.864 26.3121 237.745 25.1991 237.745 24.1631V23.0781ZM238.872 22.5671V29.0141H239.796V22.5671H238.872ZM225.748 32.9041H227.008V35.7181H225.748V32.9041ZM224.838 36.4461H227.918V32.1761H224.838V36.4461ZM230.627 33.9961H229.689V31.5741H228.765V38.0141H229.689V34.7591H230.627V33.9961ZM236.912 34.6821H236.065C236.226 33.7791 236.226 33.1211 236.226 32.5191V31.9381H231.753V32.6801H235.323C235.323 33.2331 235.309 33.8631 235.148 34.6821H231.088V35.4241H233.496V38.0141H234.434V35.4241H236.912V34.6821ZM240.895 36.5511V35.5921H242.848V34.8501H239.11V34.1291H242.701V31.9801H238.186V32.7151H241.791V33.4081H238.193V35.5921H239.971V36.5511H237.521V37.3071H243.359V36.5511H240.895Z" fill="black"/>
<path d="M284.961 86.6371C284.961 86.2771 285.221 86.0671 285.571 86.0671C285.921 86.0671 286.186 86.2771 286.186 86.6371C286.186 86.9971 285.921 87.2121 285.571 87.2121C285.221 87.2121 284.961 86.9971 284.961 86.6371ZM285.906 87.7321C286.446 87.6121 286.826 87.1921 286.826 86.6371C286.826 85.9771 286.286 85.5021 285.571 85.5021C284.861 85.5021 284.321 85.9771 284.321 86.6371C284.321 87.1971 284.706 87.6221 285.251 87.7371V88.3871C284.866 88.3921 284.491 88.3921 284.166 88.3921L284.246 88.9271C285.021 88.9321 286.046 88.9321 287.006 88.7521L286.951 88.2771C286.616 88.3171 286.266 88.3471 285.906 88.3621V87.7321ZM288.456 87.0421H287.851V85.2321H287.191V89.8371H287.851V87.5871H288.456V87.0421ZM292.641 85.2421H291.976V88.5471H292.641V85.2421ZM289.526 86.7021C289.526 86.3221 289.796 86.1021 290.136 86.1021C290.481 86.1021 290.741 86.3221 290.741 86.7021C290.741 87.0721 290.481 87.2971 290.136 87.2971C289.796 87.2971 289.526 87.0721 289.526 86.7021ZM291.386 86.7021C291.386 86.0221 290.841 85.5321 290.136 85.5321C289.431 85.5321 288.881 86.0221 288.881 86.7021C288.881 87.3721 289.431 87.8671 290.136 87.8671C290.841 87.8671 291.386 87.3721 291.386 86.7021ZM290.236 89.2371V88.2221H289.576V89.7621H292.756V89.2371H290.236ZM296.365 87.0621H296.715V88.6671H297.34V85.2371H296.715V86.5321H296.365V85.3221H295.75V88.5171H296.365V87.0621ZM294.025 86.7371C294.025 86.3571 294.215 86.1421 294.485 86.1421C294.75 86.1421 294.945 86.3571 294.945 86.7371C294.945 87.1171 294.75 87.3321 294.485 87.3321C294.215 87.3321 294.025 87.1171 294.025 86.7371ZM295.535 86.7371C295.535 86.0521 295.095 85.5721 294.485 85.5721C293.875 85.5721 293.43 86.0521 293.43 86.7371C293.43 87.4221 293.875 87.9021 294.485 87.9021C295.095 87.9021 295.535 87.4221 295.535 86.7371ZM294.9 89.2371V88.2321H294.24V89.7621H297.455V89.2371H294.9ZM299.1 86.0971H301.085V87.3171H299.1V86.0971ZM300.425 88.7721V87.8371H301.73V85.5771H298.455V87.8371H299.765V88.7721H298.015V89.3071H302.185V88.7721H300.425ZM303.874 88.2471C303.539 88.2471 303.314 87.8821 303.314 87.1971C303.314 86.5171 303.539 86.1521 303.874 86.1521C304.214 86.1521 304.439 86.5171 304.439 87.1971C304.439 87.8821 304.214 88.2471 303.874 88.2471ZM305.819 85.2321V86.8921H305.049C304.959 86.0621 304.494 85.5571 303.874 85.5571C303.189 85.5571 302.684 86.1871 302.684 87.1971C302.684 88.2121 303.189 88.8471 303.874 88.8471C304.514 88.8471 304.984 88.3071 305.054 87.4271H305.819V89.8521H306.479V85.2321H305.819Z" fill="black"/>
<path d="M198.846 173.362C198.536 173.362 198.306 173.152 198.306 172.802C198.306 172.452 198.536 172.237 198.846 172.237C199.156 172.237 199.381 172.452 199.381 172.797C199.381 173.152 199.156 173.362 198.846 173.362ZM198.846 171.702C198.176 171.702 197.676 172.157 197.676 172.797C197.676 173.447 198.176 173.902 198.846 173.902C199.511 173.902 200.006 173.447 200.006 172.797C200.006 172.157 199.511 171.702 198.846 171.702ZM199.171 170.317H198.511V170.917H197.491V171.442H200.171V170.917H199.171V170.317ZM201.791 172.037H201.131V170.237H200.471V174.842H201.131V172.582H201.791V172.037ZM205.275 170.237V172.712H205.94V170.237H205.275ZM202.88 172.912V174.787H205.94V172.912H205.285V173.342H203.535V172.912H202.88ZM203.535 173.847H205.285V174.267H203.535V173.847ZM203.435 170.427C202.72 170.427 202.18 170.882 202.18 171.512C202.18 172.147 202.72 172.602 203.435 172.602C204.15 172.602 204.685 172.147 204.685 171.512C204.685 170.882 204.15 170.427 203.435 170.427ZM203.435 170.972C203.785 170.972 204.04 171.177 204.04 171.512C204.04 171.857 203.785 172.057 203.435 172.057C203.085 172.057 202.825 171.857 202.825 171.512C202.825 171.177 203.085 170.972 203.435 170.972ZM210.54 170.237H209.875V173.622H210.54V170.237ZM208.535 172.382H207.6V171.727H208.535V172.382ZM209.185 170.567H208.535V171.222H207.6V170.567H206.945V172.907H209.185V170.567ZM208.125 174.237V173.292H207.46V174.762H210.645V174.237H208.125ZM215.34 172.407C214.3 172.227 213.73 171.512 213.73 170.837V170.507H213.025V170.837C213.025 171.497 212.45 172.227 211.415 172.407L211.695 172.957C212.495 172.802 213.08 172.352 213.375 171.767C213.67 172.352 214.26 172.797 215.06 172.957L215.34 172.407ZM211.315 173.747V174.282H215.485V173.747H211.315Z" fill="black"/>
</g>
<path fill-rule="evenodd" clip-rule="evenodd" d="M166.789 303.432C170.317 302.822 173 299.756 173 296.065C173 291.935 169.642 288.588 165.5 288.588C161.358 288.588 158 291.935 158 296.065C158 299.756 160.683 302.822 164.211 303.432L165.5 308.588L166.789 303.432Z" fill="black"/>
<path fill-rule="evenodd" clip-rule="evenodd" d="M166.789 301.432C170.317 300.822 173 297.756 173 294.065C173 289.935 169.642 286.588 165.5 286.588C161.358 286.588 158 289.935 158 294.065C158 297.756 160.683 300.822 164.211 301.432L165.5 306.588L166.789 301.432Z" fill="#FF0000"/>
<ellipse cx="165.5" cy="294.065" rx="2.5" ry="2.49231" fill="white"/>
<path d="M206.616 407.357H208.116V405.857V375.5H313.5V702.5H1.5V435.5H161.319H162.819V434V407.357H206.616Z" fill="#C4C4C4" stroke="black" stroke-width="3" stroke-miterlimit="10"/>
<path d="M251.266 459.337H241.75V494.373H251.266V459.337Z" fill="black"/>
<path d="M113.266 618.412H103.75V653.448H113.266V618.412Z" fill="black"/>
<path d="M276.806 459.337H267.29V494.373H276.806V459.337Z" fill="black"/>
<path d="M138.806 618.412H129.29V653.448H138.806V618.412Z" fill="black"/>
<path d="M265.448 459.337H253.107V494.373H265.448V459.337Z" fill="black"/>
<path d="M127.448 618.412H115.107V653.448H127.448V618.412Z" fill="#FF0000"/>
<path d="M240 459.412H167V494.412H240V459.412Z" fill="black"/>
<path d="M102 618.487H29V653.487H102V618.487Z" fill="black"/>
<path d="M262.869 480.285V474.971C262.869 474.415 262.44 473.982 261.887 473.982H256.607C256.054 473.982 255.625 474.415 255.625 474.971V480.285C255.625 480.841 256.054 481.274 256.607 481.274H261.887C262.44 481.212 262.869 480.841 262.869 480.285ZM262.071 480.409H256.423V474.786H262.071V480.409Z" fill="white"/>
<path d="M260.168 470.522C260.168 470.089 260.782 470.089 260.782 470.522V472.252L261.089 471.881C261.334 471.634 261.702 472.005 261.457 472.252L260.659 473.179C260.536 473.302 260.352 473.302 260.229 473.179L259.431 472.252C259.185 471.943 259.615 471.634 259.799 471.881L260.106 472.314L260.168 470.522Z" fill="white"/>
<path d="M257.773 472.996C257.773 473.428 258.387 473.428 258.387 472.996V471.266L258.694 471.636C258.94 471.884 259.308 471.513 259.062 471.266L258.264 470.339C258.141 470.215 257.957 470.215 257.834 470.339L257.036 471.266C256.791 471.575 257.221 471.884 257.405 471.636L257.712 471.204L257.773 472.996Z" fill="white"/>
<path d="M260.905 476.453H259.861C259.738 476.453 259.615 476.577 259.615 476.7V477.998C259.615 478.122 259.677 478.183 259.799 478.183C259.799 478.183 259.861 478.183 259.922 478.183V479.852C259.922 480.161 260.352 480.161 260.352 479.852V478.183H260.413V479.852C260.413 480.161 260.843 480.161 260.843 479.852V478.183C260.905 478.183 260.966 478.183 260.966 478.183C261.089 478.183 261.15 478.122 261.15 477.998V476.7C261.15 476.577 261.027 476.453 260.905 476.453Z" fill="white"/>
<path d="M260.351 476.33C260.521 476.33 260.658 476.192 260.658 476.021C260.658 475.85 260.521 475.712 260.351 475.712C260.182 475.712 260.044 475.85 260.044 476.021C260.044 476.192 260.182 476.33 260.351 476.33Z" fill="white"/>
<path d="M258.695 476.453H257.651C257.528 476.453 257.405 476.577 257.405 476.7V477.998C257.405 478.122 257.467 478.183 257.589 478.183C257.589 478.183 257.651 478.183 257.712 478.183V479.852C257.712 480.161 258.142 480.161 258.142 479.852V478.183H258.203V479.852C258.203 480.161 258.633 480.161 258.633 479.852V478.183C258.695 478.183 258.756 478.183 258.756 478.183C258.879 478.183 258.94 478.122 258.94 477.998V476.7C258.94 476.577 258.817 476.453 258.695 476.453Z" fill="white"/>
<path d="M258.141 476.33C258.311 476.33 258.448 476.192 258.448 476.021C258.448 475.85 258.311 475.712 258.141 475.712C257.972 475.712 257.834 475.85 257.834 476.021C257.834 476.192 257.972 476.33 258.141 476.33Z" fill="white"/>
<path d="M124.869 639.359V634.045C124.869 633.489 124.44 633.057 123.887 633.057H118.607C118.054 633.057 117.625 633.489 117.625 634.045V639.359C117.625 639.916 118.054 640.348 118.607 640.348H123.887C124.44 640.286 124.869 639.916 124.869 639.359ZM124.071 639.483H118.423V633.86H124.071V639.483Z" fill="white"/>
<path d="M122.168 629.596C122.168 629.163 122.782 629.163 122.782 629.596V631.326L123.089 630.955C123.334 630.708 123.702 631.079 123.457 631.326L122.659 632.253C122.536 632.377 122.352 632.377 122.229 632.253L121.431 631.326C121.185 631.017 121.615 630.708 121.799 630.955L122.106 631.388L122.168 629.596Z" fill="white"/>
<path d="M119.773 632.07C119.773 632.503 120.387 632.503 120.387 632.07V630.34L120.694 630.711C120.94 630.958 121.308 630.587 121.062 630.34L120.264 629.413C120.141 629.289 119.957 629.289 119.834 629.413L119.036 630.34C118.791 630.649 119.221 630.958 119.405 630.711L119.712 630.278L119.773 632.07Z" fill="white"/>
<path d="M122.905 635.527H121.861C121.738 635.527 121.615 635.651 121.615 635.775V637.072C121.615 637.196 121.677 637.258 121.799 637.258C121.799 637.258 121.861 637.258 121.922 637.258V638.926C121.922 639.235 122.352 639.235 122.352 638.926V637.258H122.413V638.926C122.413 639.235 122.843 639.235 122.843 638.926V637.258C122.905 637.258 122.966 637.258 122.966 637.258C123.089 637.258 123.15 637.196 123.15 637.072V635.775C123.15 635.651 123.027 635.527 122.905 635.527Z" fill="white"/>
<path d="M122.351 635.404C122.521 635.404 122.658 635.266 122.658 635.095C122.658 634.924 122.521 634.786 122.351 634.786C122.182 634.786 122.044 634.924 122.044 635.095C122.044 635.266 122.182 635.404 122.351 635.404Z" fill="white"/>
<path d="M120.695 635.527H119.651C119.528 635.527 119.405 635.651 119.405 635.775V637.072C119.405 637.196 119.467 637.258 119.589 637.258C119.589 637.258 119.651 637.258 119.712 637.258V638.926C119.712 639.235 120.142 639.235 120.142 638.926V637.258H120.203V638.926C120.203 639.235 120.633 639.235 120.633 638.926V637.258C120.695 637.258 120.756 637.258 120.756 637.258C120.879 637.258 120.94 637.196 120.94 637.072V635.775C120.94 635.651 120.817 635.527 120.695 635.527Z" fill="white"/>
<path d="M120.141 635.404C120.311 635.404 120.448 635.266 120.448 635.095C120.448 634.924 120.311 634.786 120.141 634.786C119.972 634.786 119.834 634.924 119.834 635.095C119.834 635.266 119.972 635.404 120.141 635.404Z" fill="white"/>
<path d="M175.632 474.412H177.17V472.054H178.462C180.135 472.054 181.108 471.056 181.108 469.604C181.108 468.159 180.153 467.139 178.501 467.139H175.632V474.412ZM177.17 470.822V468.396H178.207C179.094 468.396 179.524 468.879 179.524 469.604C179.524 470.325 179.094 470.822 178.214 470.822H177.17ZM183.487 474.515C184.293 474.515 184.815 474.164 185.082 473.656H185.124V474.412H186.559V470.733C186.559 469.433 185.458 468.887 184.244 468.887C182.937 468.887 182.077 469.512 181.868 470.506L183.267 470.619C183.37 470.257 183.693 469.991 184.237 469.991C184.751 469.991 185.046 470.25 185.046 470.698V470.719C185.046 471.07 184.673 471.117 183.725 471.209C182.646 471.308 181.676 471.671 181.676 472.889C181.676 473.968 182.447 474.515 183.487 474.515ZM183.92 473.471C183.455 473.471 183.121 473.254 183.121 472.839C183.121 472.413 183.473 472.203 184.006 472.129C184.336 472.083 184.876 472.004 185.057 471.884V472.463C185.057 473.034 184.585 473.471 183.92 473.471ZM187.733 474.412H189.245V471.326C189.245 470.655 189.735 470.193 190.403 470.193C190.613 470.193 190.9 470.229 191.042 470.275V468.933C190.907 468.901 190.719 468.879 190.566 468.879C189.956 468.879 189.455 469.235 189.256 469.909H189.199V468.958H187.733V474.412ZM191.824 474.412H193.337V472.679L193.746 472.214L195.233 474.412H197.006L194.878 471.319L196.903 468.958H195.166L193.419 471.028H193.337V467.139H191.824V474.412ZM197.645 474.412H199.157V468.958H197.645V474.412ZM198.405 468.254C198.856 468.254 199.225 467.91 199.225 467.487C199.225 467.068 198.856 466.724 198.405 466.724C197.957 466.724 197.588 467.068 197.588 467.487C197.588 467.91 197.957 468.254 198.405 468.254ZM201.882 471.259C201.886 470.556 202.305 470.144 202.915 470.144C203.523 470.144 203.888 470.541 203.885 471.209V474.412H205.398V470.939C205.398 469.668 204.652 468.887 203.516 468.887C202.706 468.887 202.12 469.284 201.875 469.92H201.811V468.958H200.369V474.412H201.882V471.259ZM209.047 476.571C210.606 476.571 211.714 475.861 211.714 474.465V468.958H210.212V469.874H210.155C209.953 469.43 209.509 468.887 208.596 468.887C207.4 468.887 206.388 469.817 206.388 471.674C206.388 473.489 207.371 474.334 208.6 474.334C209.47 474.334 209.956 473.897 210.155 473.446H210.219V474.444C210.219 475.193 209.74 475.485 209.083 475.485C208.415 475.485 208.078 475.193 207.954 474.863L206.555 475.051C206.736 475.911 207.577 476.571 209.047 476.571ZM209.079 473.198C208.337 473.198 207.932 472.608 207.932 471.667C207.932 470.74 208.33 470.09 209.079 470.09C209.814 470.09 210.226 470.712 210.226 471.667C210.226 472.629 209.807 473.198 209.079 473.198ZM175.632 486.412H180.547V485.144H177.17V483.408H180.281V482.14H177.17V480.407H180.533V479.139H175.632V486.412ZM183.009 486.412L183.548 484.754H186.173L186.713 486.412H188.36L185.853 479.139H183.872L181.361 486.412H183.009ZM183.939 483.553L184.834 480.801H184.891L185.786 483.553H183.939ZM193.015 481.231H194.489C194.467 479.935 193.402 479.04 191.783 479.04C190.188 479.04 189.02 479.921 189.027 481.242C189.023 482.314 189.78 482.928 191.009 483.223L191.8 483.422C192.592 483.614 193.033 483.841 193.036 484.331C193.033 484.864 192.528 485.226 191.747 485.226C190.948 485.226 190.373 484.857 190.323 484.129H188.835C188.874 485.702 190 486.515 191.765 486.515C193.54 486.515 194.585 485.666 194.588 484.335C194.585 483.124 193.672 482.481 192.408 482.197L191.754 482.041C191.122 481.895 190.593 481.661 190.604 481.139C190.604 480.67 191.019 480.325 191.772 480.325C192.507 480.325 192.958 480.659 193.015 481.231ZM195.345 480.407H197.572V486.412H199.092V480.407H201.318V479.139H195.345V480.407ZM204.616 486.412H206.154V483.408H209.276V486.412H210.81V479.139H209.276V482.14H206.154V479.139H204.616V486.412ZM213.331 486.412L213.871 484.754H216.495L217.035 486.412H218.683L216.175 479.139H214.194L211.683 486.412H213.331ZM214.261 483.553L215.156 480.801H215.213L216.108 483.553H214.261ZM219.558 486.412H224.213V485.144H221.096V479.139H219.558V486.412ZM225.232 486.412H229.887V485.144H226.769V479.139H225.232V486.412Z" fill="white"/>
<path d="M37.6321 633.487H39.1697V631.129H40.4624C42.1349 631.129 43.108 630.131 43.108 628.679C43.108 627.234 42.1527 626.215 40.5014 626.215H37.6321V633.487ZM39.1697 629.897V627.472H40.2067C41.0945 627.472 41.5241 627.955 41.5241 628.679C41.5241 629.4 41.0945 629.897 40.2138 629.897H39.1697ZM45.4872 633.59C46.2933 633.59 46.8153 633.239 47.0817 632.731H47.1243V633.487H48.5589V629.808C48.5589 628.509 47.4581 627.962 46.2436 627.962C44.9368 627.962 44.0774 628.587 43.8679 629.581L45.267 629.695C45.37 629.332 45.6932 629.066 46.2365 629.066C46.7514 629.066 47.0462 629.325 47.0462 629.773V629.794C47.0462 630.146 46.6733 630.192 45.7251 630.284C44.6456 630.384 43.6761 630.746 43.6761 631.964C43.6761 633.043 44.4467 633.59 45.4872 633.59ZM45.9205 632.546C45.4553 632.546 45.1214 632.33 45.1214 631.914C45.1214 631.488 45.473 631.278 46.0057 631.204C46.3359 631.158 46.8757 631.08 47.0568 630.959V631.538C47.0568 632.109 46.5845 632.546 45.9205 632.546ZM49.7326 633.487H51.2454V630.401C51.2454 629.73 51.7354 629.269 52.4031 629.269C52.6126 629.269 52.9002 629.304 53.0423 629.35V628.008C52.9073 627.976 52.7191 627.955 52.5664 627.955C51.9556 627.955 51.4549 628.31 51.256 628.984H51.1992V628.033H49.7326V633.487ZM53.8244 633.487H55.3372V631.754L55.7456 631.289L57.2335 633.487H59.0055L56.8784 630.394L58.9025 628.033H57.166L55.4189 630.103H55.3372V626.215H53.8244V633.487ZM59.6447 633.487H61.1575V628.033H59.6447V633.487ZM60.4047 627.33C60.8556 627.33 61.225 626.985 61.225 626.563C61.225 626.144 60.8556 625.799 60.4047 625.799C59.9572 625.799 59.5879 626.144 59.5879 626.563C59.5879 626.985 59.9572 627.33 60.4047 627.33ZM63.8821 630.334C63.8857 629.631 64.3047 629.219 64.9155 629.219C65.5227 629.219 65.8885 629.617 65.8849 630.284V633.487H67.3977V630.014C67.3977 628.743 66.652 627.962 65.5156 627.962C64.706 627.962 64.12 628.359 63.875 628.995H63.8111V628.033H62.3693V633.487H63.8821V630.334ZM71.0474 635.646C72.6064 635.646 73.7143 634.936 73.7143 633.541V628.033H72.2122V628.949H72.1554C71.9529 628.505 71.5091 627.962 70.5964 627.962C69.3997 627.962 68.3876 628.892 68.3876 630.749C68.3876 632.564 69.3713 633.409 70.6 633.409C71.47 633.409 71.9565 632.972 72.1554 632.521H72.2193V633.519C72.2193 634.269 71.7399 634.56 71.0829 634.56C70.4153 634.56 70.0779 634.269 69.9537 633.938L68.5545 634.127C68.7356 634.986 69.5772 635.646 71.0474 635.646ZM71.0794 632.273C70.3372 632.273 69.9324 631.683 69.9324 630.742C69.9324 629.815 70.3301 629.166 71.0794 629.166C71.8145 629.166 72.2264 629.787 72.2264 630.742C72.2264 631.705 71.8074 632.273 71.0794 632.273ZM39.2692 645.487H40.7678L42.1491 640.732H42.206L43.5909 645.487H45.0895L47.1705 638.215H45.4908L44.2869 643.278H44.223L42.8984 638.215H41.4602L40.1321 643.268H40.0717L38.8679 638.215H37.1882L39.2692 645.487ZM47.9934 645.487H52.9082V644.22H49.5311V642.483H52.6419V641.215H49.5311V639.482H52.894V638.215H47.9934V645.487ZM58.0618 640.306H59.5355C59.5142 639.01 58.4489 638.115 56.8295 638.115C55.2351 638.115 54.0668 638.996 54.0739 640.317C54.0703 641.389 54.8267 642.004 56.0554 642.298L56.8473 642.497C57.6392 642.689 58.0795 642.916 58.0831 643.406C58.0795 643.939 57.5753 644.301 56.794 644.301C55.995 644.301 55.4197 643.932 55.37 643.204H53.8821C53.9212 644.777 55.0469 645.59 56.8118 645.59C58.5874 645.59 59.6314 644.742 59.6349 643.41C59.6314 642.199 58.7188 641.556 57.4545 641.272L56.8011 641.116C56.169 640.97 55.6399 640.736 55.6506 640.214C55.6506 639.745 56.0661 639.401 56.8189 639.401C57.554 639.401 58.005 639.734 58.0618 640.306ZM60.3922 639.482H62.6188V645.487H64.1387V639.482H66.3652V638.215H60.3922V639.482ZM69.6634 645.487H71.201V642.483H74.3224V645.487H75.8565V638.215H74.3224V641.215H71.201V638.215H69.6634V645.487ZM78.3778 645.487L78.9176 643.829H81.5419L82.0817 645.487H83.7294L81.2223 638.215H79.2408L76.7301 645.487H78.3778ZM79.3082 642.629L80.2031 639.877H80.2599L81.1548 642.629H79.3082ZM84.6048 645.487H89.2603V644.22H86.1424V638.215H84.6048V645.487ZM90.2786 645.487H94.9341V644.22H91.8162V638.215H90.2786V645.487Z" fill="white"/>
<path d="M2.78125 417.412H9.54688V407.037H15.2344C22.5937 407.037 26.875 402.646 26.875 396.256C26.875 389.896 22.6719 385.412 15.4063 385.412H2.78125V417.412ZM9.54688 401.615V390.943H14.1094C18.0156 390.943 19.9063 393.068 19.9063 396.256C19.9063 399.428 18.0156 401.615 14.1406 401.615H9.54688Z" fill="black"/>
<path fill-rule="evenodd" clip-rule="evenodd" d="M91.789 628.844C95.317 628.235 98 625.168 98 621.477C98 617.348 94.6421 614 90.5 614C86.3579 614 83 617.348 83 621.477C83 625.168 85.683 628.235 89.211 628.844L90.5 634L91.789 628.844Z" fill="black"/>
<path fill-rule="evenodd" clip-rule="evenodd" d="M91.789 626.844C95.317 626.235 98 623.168 98 619.477C98 615.348 94.6421 612 90.5 612C86.3579 612 83 615.348 83 619.477C83 623.168 85.683 626.235 89.211 626.844L90.5 632L91.789 626.844Z" fill="#FF0000"/>
<ellipse cx="90.5" cy="619.477" rx="2.5" ry="2.49231" fill="white"/>
<path d="M0.90918 732.96C0.90918 731.93 1.0459 730.941 1.31934 729.993C1.59733 729.045 2.00977 728.184 2.55664 727.409C3.10352 726.634 3.6709 726.088 4.25879 725.769L4.51855 726.603C3.85319 727.113 3.30632 727.892 2.87793 728.94C2.4541 729.989 2.22168 731.162 2.18066 732.461L2.17383 733.042C2.17383 734.801 2.49512 736.328 3.1377 737.622C3.52507 738.397 3.98535 739.003 4.51855 739.44L4.25879 740.213C3.65267 739.876 3.07389 739.311 2.52246 738.518C1.44694 736.968 0.90918 735.116 0.90918 732.96ZM6.88516 729.202C6.88516 728.012 7.78116 727.2 9.04116 727.2C10.2872 727.2 11.1972 728.012 11.1972 729.202C11.1972 730.378 10.2872 731.204 9.04116 731.204C7.78116 731.204 6.88516 730.378 6.88516 729.202ZM12.3172 729.202C12.3172 727.438 10.9312 726.234 9.04116 726.234C7.13716 726.234 5.76516 727.438 5.76516 729.202C5.76516 730.952 7.13716 732.17 9.04116 732.17C10.9312 732.17 12.3172 730.952 12.3172 729.202ZM7.10916 734.466H14.1232V738.036H15.2712V733.528H7.10916V734.466ZM17.0912 728.348V727.396H15.2712V725.492H14.1232V732.94H15.2712V731.022H17.0912V730.084H15.2712V728.348H17.0912ZM29.8021 731.498V730.56H28.0241C28.3321 729.076 28.3321 727.928 28.3321 726.99V726.08H19.8621V727.004H27.1981C27.1981 727.942 27.1981 729.048 26.8621 730.56H18.4061V731.498H23.5161V733.794H19.6101V734.718H27.2541V738.022H28.4021V733.794H24.6641V731.498H29.8021ZM36.0456 729.118C36.0456 727.97 36.9416 727.158 38.1736 727.158C39.4196 727.158 40.3156 727.97 40.3156 729.118C40.3156 730.266 39.4196 731.078 38.1736 731.078C36.9416 731.078 36.0456 730.266 36.0456 729.118ZM43.9416 728.138V730.084H41.2396C41.3516 729.79 41.4076 729.468 41.4076 729.118C41.4076 728.768 41.3516 728.432 41.2396 728.138H43.9416ZM43.9416 731.008V732.548H45.1036V725.492H43.9416V727.214H40.6936C40.1336 726.584 39.2376 726.206 38.1736 726.206C36.3116 726.206 34.9536 727.382 34.9536 729.118C34.9536 730.84 36.3116 732.03 38.1736 732.03C39.2376 732.03 40.1336 731.652 40.7076 731.008H43.9416ZM39.6716 734.06H42.2616V736.916H39.6716V734.06ZM43.3956 736.916V734.06H45.2016V733.136H36.7596V734.06H38.5376V736.916H36.6336V737.84H45.3556V736.916H43.3956ZM50.7705 733.028C50.7705 734.045 50.6361 735.02 50.3672 735.954C50.1029 736.884 49.695 737.743 49.1436 738.531C48.5967 739.32 48.0225 739.88 47.4209 740.213L47.1543 739.44C47.8561 738.903 48.4189 738.069 48.8428 736.938C49.2712 735.804 49.4899 734.546 49.499 733.165V732.946C49.499 731.989 49.3988 731.101 49.1982 730.28C48.9977 729.455 48.7174 728.717 48.3574 728.065C48.002 727.414 47.6009 726.906 47.1543 726.541L47.4209 725.769C48.0225 726.101 48.5944 726.657 49.1367 727.437C49.6836 728.216 50.0915 729.075 50.3604 730.014C50.6338 730.952 50.7705 731.957 50.7705 733.028ZM55.0635 733.862L55.2549 735.175L55.5352 733.992L57.5039 727.047H58.6113L60.5322 733.992L60.8057 735.195L61.0176 733.855L62.5625 727.047H63.8818L61.4688 737H60.2725L58.2217 729.747L58.0645 728.988L57.9072 729.747L55.7812 737H54.585L52.1787 727.047H53.4912L55.0635 733.862ZM70.9707 732.399H66.6572V735.927H71.668V737H65.3447V727.047H71.5996V728.127H66.6572V731.326H70.9707V732.399ZM76.2344 732.563C75.1087 732.24 74.2884 731.843 73.7734 731.374C73.263 730.9 73.0078 730.317 73.0078 729.624C73.0078 728.84 73.32 728.193 73.9443 727.683C74.5732 727.168 75.389 726.91 76.3916 726.91C77.0752 726.91 77.6836 727.042 78.2168 727.307C78.7546 727.571 79.1693 727.936 79.4609 728.4C79.7572 728.865 79.9053 729.373 79.9053 729.925H78.5859C78.5859 729.323 78.3945 728.852 78.0117 728.51C77.6289 728.163 77.0889 727.99 76.3916 727.99C75.7445 727.99 75.2386 728.134 74.874 728.421C74.514 728.703 74.334 729.098 74.334 729.604C74.334 730.009 74.5049 730.353 74.8467 730.636C75.193 730.914 75.7786 731.169 76.6035 731.401C77.4329 731.634 78.0801 731.891 78.5449 732.174C79.0143 732.452 79.3607 732.778 79.584 733.151C79.8118 733.525 79.9258 733.965 79.9258 734.471C79.9258 735.277 79.6113 735.924 78.9824 736.412C78.3535 736.895 77.5127 737.137 76.46 737.137C75.7764 737.137 75.1383 737.007 74.5459 736.747C73.9535 736.483 73.4954 736.123 73.1719 735.667C72.8529 735.211 72.6934 734.694 72.6934 734.115H74.0127C74.0127 734.717 74.2337 735.193 74.6758 735.544C75.1224 735.89 75.7171 736.063 76.46 736.063C77.1527 736.063 77.6836 735.922 78.0527 735.64C78.4219 735.357 78.6064 734.972 78.6064 734.484C78.6064 733.997 78.4355 733.621 78.0938 733.356C77.752 733.088 77.1322 732.823 76.2344 732.563ZM88.4912 728.127H85.292V737H83.9863V728.127H80.7939V727.047H88.4912V728.127ZM103.352 725.492H102.246V732.016H103.352V725.492ZM93.9017 728.81C93.9017 727.746 94.6717 726.976 95.7357 726.976C96.7857 726.976 97.5557 727.746 97.5557 728.81C97.5557 729.916 96.7857 730.686 95.7357 730.686C94.6717 730.686 93.9017 729.916 93.9017 728.81ZM99.8797 729.272V731.932H100.958V725.744H99.8797V728.348H98.5497C98.3537 726.976 97.2337 726.066 95.7357 726.066C94.0697 726.066 92.8797 727.186 92.8797 728.81C92.8797 730.462 94.0697 731.596 95.7357 731.596C97.2337 731.596 98.3677 730.672 98.5637 729.272H99.8797ZM96.2257 736.944V735.6H103.352V732.604H95.0637V733.514H102.204V734.732H95.0917V737.868H103.828V736.944H96.2257ZM107.509 731.12H112.143V726.64H106.319V727.578H110.981V730.196H106.361V735.012H107.397C109.553 735.012 111.457 734.928 113.725 734.55L113.613 733.612C111.415 733.962 109.567 734.06 107.509 734.06V731.12ZM114.789 725.464V738.05H115.937V725.464H114.789ZM122.698 733.948H120.052V730.7H122.698V733.948ZM125.596 730.252H123.776V726.724H122.698V729.776H120.052V726.724H118.96V734.886H123.776V731.19H125.596V737.42H126.688V725.758H125.596V730.252ZM128.088 725.478V738.036H129.18V725.478H128.088ZM140.518 725.478V738.064H141.666V725.478H140.518ZM135.044 726.444C133.182 726.444 131.852 728.152 131.852 730.826C131.852 733.5 133.182 735.208 135.044 735.208C136.906 735.208 138.236 733.5 138.236 730.826C138.236 728.152 136.906 726.444 135.044 726.444ZM135.044 727.48C136.262 727.48 137.13 728.796 137.13 730.826C137.13 732.87 136.262 734.186 135.044 734.186C133.812 734.186 132.944 732.87 132.944 730.826C132.944 728.796 133.812 727.48 135.044 727.48ZM145.991 731.078H150.107V730.154H145.991V727.564H150.653V726.612H144.843V735.026H145.809C148.203 735.026 149.729 734.956 151.549 734.634L151.423 733.696C149.715 734.004 148.259 734.088 145.991 734.088V731.078ZM153.467 725.464V730.21H150.877V731.162H153.467V738.05H154.615V725.464H153.467ZM165.94 727.676H158.604V730.364H167.298V729.538H159.738V728.46H167.074V725.842H158.576V726.654H165.94V727.676ZM159.668 735.88H167.116V733.206H158.506V734.032H165.982V735.082H158.534V737.868H167.508V737.042H159.668V735.88ZM157.148 731.316V732.184H168.53V731.316H157.148ZM182.628 725.478V738.064H183.776V725.478H182.628ZM177.154 726.444C175.292 726.444 173.962 728.152 173.962 730.826C173.962 733.5 175.292 735.208 177.154 735.208C179.016 735.208 180.346 733.5 180.346 730.826C180.346 728.152 179.016 726.444 177.154 726.444ZM177.154 727.48C178.372 727.48 179.24 728.796 179.24 730.826C179.24 732.87 178.372 734.186 177.154 734.186C175.922 734.186 175.054 732.87 175.054 730.826C175.054 728.796 175.922 727.48 177.154 727.48ZM192.049 737.14C190.075 737.14 188.913 736.65 188.913 735.796C188.913 734.942 190.075 734.452 192.049 734.452C194.009 734.452 195.185 734.942 195.185 735.796C195.185 736.65 194.009 737.14 192.049 737.14ZM192.049 733.556C189.361 733.556 187.751 734.354 187.751 735.796C187.751 737.238 189.361 738.022 192.049 738.022C194.751 738.022 196.347 737.238 196.347 735.796C196.347 734.354 194.751 733.556 192.049 733.556ZM190.313 730.224C190.831 730.308 191.419 730.364 192.049 730.364C192.693 730.364 193.281 730.308 193.799 730.224V731.694H190.313V730.224ZM188.815 728.04C188.815 727.13 190.047 726.598 192.049 726.598C194.051 726.598 195.283 727.13 195.283 728.04C195.283 728.936 194.051 729.482 192.049 729.482C190.047 729.482 188.815 728.936 188.815 728.04ZM194.933 731.694V729.916C195.899 729.524 196.459 728.88 196.459 728.04C196.459 726.57 194.779 725.702 192.049 725.702C189.333 725.702 187.639 726.57 187.639 728.04C187.639 728.894 188.185 729.524 189.179 729.93V731.694H186.365V732.618H197.733V731.694H194.933ZM202.94 734.284C201.806 734.284 200.98 733.472 200.98 732.352C200.98 731.218 201.806 730.406 202.94 730.406C204.088 730.406 204.914 731.218 204.914 732.352C204.914 733.472 204.088 734.284 202.94 734.284ZM202.94 729.454C201.176 729.454 199.902 730.658 199.902 732.352C199.902 734.06 201.176 735.236 202.94 735.236C204.732 735.236 206.006 734.06 206.006 732.352C206.006 730.658 204.732 729.454 202.94 729.454ZM203.5 725.632H202.352V727.494H199.188V728.418H206.594V727.494H203.5V725.632ZM210.99 730.644H208.932V725.492H207.784V738.036H208.932V731.61H210.99V730.644ZM218.479 732.254C218.563 731.82 218.619 731.344 218.619 730.826C218.619 730.252 218.549 729.72 218.437 729.23H221.335V732.254H218.479ZM215.497 734.186C214.293 734.186 213.453 732.87 213.453 730.826C213.453 728.796 214.293 727.48 215.497 727.48C216.687 727.48 217.541 728.796 217.541 730.826C217.541 732.87 216.687 734.186 215.497 734.186ZM221.335 725.478V728.292H218.115C217.583 727.116 216.659 726.444 215.497 726.444C213.663 726.444 212.361 728.152 212.361 730.826C212.361 733.5 213.663 735.208 215.497 735.208C216.701 735.208 217.681 734.466 218.199 733.192H221.335V738.064H222.483V725.478H221.335ZM237.616 725.478V738.064H238.764V725.478H237.616ZM232.142 726.444C230.28 726.444 228.95 728.152 228.95 730.826C228.95 733.5 230.28 735.208 232.142 735.208C234.004 735.208 235.334 733.5 235.334 730.826C235.334 728.152 234.004 726.444 232.142 726.444ZM232.142 727.48C233.36 727.48 234.228 728.796 234.228 730.826C234.228 732.87 233.36 734.186 232.142 734.186C230.91 734.186 230.042 732.87 230.042 730.826C230.042 728.796 230.91 727.48 232.142 727.48ZM247.051 737.14C245.063 737.14 243.901 736.65 243.901 735.768C243.901 734.886 245.063 734.396 247.051 734.396C249.011 734.396 250.173 734.886 250.173 735.768C250.173 736.65 249.011 737.14 247.051 737.14ZM247.051 733.5C244.363 733.5 242.739 734.312 242.739 735.768C242.739 737.224 244.363 738.036 247.051 738.036C249.711 738.036 251.335 737.224 251.335 735.768C251.335 734.312 249.711 733.5 247.051 733.5ZM247.625 731.68V730.224H251.405V729.3H243.943V726.976H251.321V726.052H242.795V730.224H246.477V731.68H241.367V732.604H252.735V731.68H247.625ZM257.928 734.284C256.794 734.284 255.968 733.472 255.968 732.352C255.968 731.218 256.794 730.406 257.928 730.406C259.076 730.406 259.902 731.218 259.902 732.352C259.902 733.472 259.076 734.284 257.928 734.284ZM257.928 729.454C256.164 729.454 254.89 730.658 254.89 732.352C254.89 734.06 256.164 735.236 257.928 735.236C259.72 735.236 260.994 734.06 260.994 732.352C260.994 730.658 259.72 729.454 257.928 729.454ZM258.488 725.632H257.34V727.494H254.176V728.418H261.582V727.494H258.488V725.632ZM265.978 730.644H263.92V725.492H262.772V738.036H263.92V731.61H265.978V730.644ZM270.849 726.668H269.743V729.062C269.743 731.218 268.707 733.472 266.985 734.48L267.699 735.334C268.945 734.564 269.855 733.15 270.303 731.484C270.751 733.01 271.591 734.34 272.781 735.068L273.439 734.172C271.787 733.164 270.849 731.036 270.849 729.02V726.668ZM274.153 729.986H272.081V730.938H274.153V737.42H275.231V725.758H274.153V729.986ZM276.701 725.478V738.036H277.793V725.478H276.701ZM283.938 732.52C284.456 732.646 285.058 732.716 285.674 732.716C286.304 732.716 286.906 732.646 287.438 732.52V735.474H283.938V732.52ZM285.674 727.172C287.69 727.172 289.146 728.096 289.146 729.496C289.146 730.896 287.69 731.82 285.674 731.82C283.658 731.82 282.216 730.896 282.216 729.496C282.216 728.096 283.658 727.172 285.674 727.172ZM288.586 735.474V732.072C289.622 731.526 290.238 730.63 290.238 729.496C290.238 727.536 288.348 726.276 285.674 726.276C283.014 726.276 281.11 727.536 281.11 729.496C281.11 730.63 281.74 731.54 282.79 732.086V735.474H279.99V736.426H291.4V735.474H288.586ZM293.125 736.337C293.125 736.118 293.189 735.936 293.316 735.79C293.449 735.644 293.645 735.571 293.904 735.571C294.164 735.571 294.36 735.644 294.492 735.79C294.629 735.936 294.697 736.118 294.697 736.337C294.697 736.547 294.629 736.722 294.492 736.863C294.36 737.005 294.164 737.075 293.904 737.075C293.645 737.075 293.449 737.005 293.316 736.863C293.189 736.722 293.125 736.547 293.125 736.337Z" fill="black"/>
<rect x="11" y="312" width="5" height="53.1429" fill="url(#paint0_linear)"/>
<path d="M13.5 372L6.13879 359.25L20.8612 359.25L13.5 372Z" fill="#FF0000"/>
<defs>
<linearGradient id="paint0_linear" x1="13.5" y1="312" x2="13.5" y2="365.143" gradientUnits="userSpaceOnUse">
<stop stop-color="#FF0000" stop-opacity="0"/>
<stop offset="0.546875" stop-color="#FF0000"/>
</linearGradient>
<clipPath id="clip0">
<rect width="315" height="330" fill="white"/>
</clipPath>
</defs>
</svg>
