<svg width="355" height="475" viewBox="0 0 355 475" fill="none" xmlns="http://www.w3.org/2000/svg">
<path d="M253.749 336.65L254.519 337.086L255.274 336.623L281.344 320.611L352.063 362.754L165.374 473.257L2.89585 377.211L156.861 281.744L253.749 336.65Z" fill="#8B8B8B" stroke="black" stroke-width="3"/>
<path d="M254.395 395L199 362.518L246.597 333L303 366.341L254.395 395Z" fill="#5C5C5C"/>
<path d="M90.3951 409L35 376.518L82.5973 347L139 380.341L90.3951 409Z" fill="#5C5C5C"/>
<path d="M276.154 365L283.633 369.388L262.608 381.83L255.182 377.442L276.154 365Z" fill="black"/>
<path d="M269.564 375.894L272.755 374.036C273.069 373.829 273.069 373.519 272.755 373.364L269.564 371.454C269.251 371.248 268.728 371.248 268.414 371.454L265.224 373.313C264.91 373.519 264.91 373.829 265.224 373.984L268.414 375.894C268.728 376.101 269.251 376.101 269.564 375.894ZM268.989 375.636L265.59 373.623L268.937 371.609L272.336 373.623L268.989 375.636Z" fill="white"/>
<path d="M273.749 371.454C274.01 371.299 274.376 371.505 274.115 371.66L273.069 372.28L273.487 372.228C273.749 372.228 273.801 372.486 273.487 372.486L272.441 372.538C272.284 372.538 272.18 372.486 272.18 372.383L272.284 371.764C272.284 371.557 272.755 371.609 272.755 371.764L272.703 372.022L273.749 371.454Z" fill="white"/>
<path d="M270.872 371.506C270.611 371.661 270.977 371.867 271.238 371.712L272.284 371.093L272.232 371.351C272.232 371.506 272.65 371.558 272.703 371.351L272.807 370.732C272.807 370.628 272.703 370.577 272.546 370.577L271.5 370.628C271.186 370.628 271.238 370.886 271.5 370.886L271.918 370.835L270.872 371.506Z" fill="white"/>
<path d="M270.663 373.829L270.035 373.468C269.983 373.416 269.826 373.416 269.722 373.468L268.937 373.933C268.885 373.984 268.885 374.036 268.937 374.036C268.937 374.036 268.937 374.036 268.989 374.087L267.996 374.707C267.839 374.81 268.1 374.965 268.257 374.862L269.251 374.242H269.303L268.309 374.862C268.1 374.965 268.414 375.12 268.571 375.017L269.565 374.397C269.617 374.397 269.617 374.449 269.617 374.449C269.669 374.5 269.774 374.5 269.826 374.449L270.611 373.984C270.715 373.984 270.715 373.881 270.663 373.829Z" fill="white"/>
<path d="M270.61 373.675C270.755 373.675 270.872 373.605 270.872 373.52C270.872 373.434 270.755 373.365 270.61 373.365C270.466 373.365 270.349 373.434 270.349 373.52C270.349 373.605 270.466 373.675 270.61 373.675Z" fill="white"/>
<path d="M269.303 373.054L268.675 372.693C268.623 372.641 268.466 372.641 268.361 372.693L267.577 373.158C267.524 373.209 267.524 373.261 267.577 373.261C267.577 373.261 267.577 373.261 267.629 373.313L266.635 373.932C266.478 374.035 266.74 374.19 266.897 374.087L267.89 373.467H267.943L266.949 374.087C266.74 374.19 267.054 374.345 267.211 374.242L268.204 373.622C268.257 373.622 268.257 373.674 268.257 373.674C268.309 373.726 268.413 373.726 268.466 373.674L269.25 373.209C269.407 373.158 269.407 373.106 269.303 373.054Z" fill="white"/>
<path d="M269.25 372.848C269.394 372.848 269.511 372.779 269.511 372.693C269.511 372.608 269.394 372.539 269.25 372.539C269.105 372.539 268.988 372.608 268.988 372.693C268.988 372.779 269.105 372.848 269.25 372.848Z" fill="white"/>
<path d="M113.972 380.452L121.399 384.84L100.427 397.282L93 392.894L113.972 380.452Z" fill="black"/>
<path d="M106.075 392.12L109.266 390.261C109.579 390.055 109.579 389.745 109.266 389.59L106.075 387.68C105.761 387.473 105.238 387.473 104.925 387.68L101.734 389.538C101.421 389.745 101.421 390.055 101.734 390.209L104.925 392.12C105.238 392.275 105.709 392.326 106.075 392.12ZM105.5 391.862L102.1 389.848L105.448 387.835L108.847 389.848L105.5 391.862Z" fill="white"/>
<path d="M110.258 387.68C110.52 387.525 110.886 387.731 110.625 387.886L109.579 388.506L109.997 388.454C110.258 388.454 110.311 388.712 109.997 388.712L108.951 388.764C108.794 388.764 108.689 388.712 108.689 388.609L108.794 387.99C108.794 387.783 109.265 387.835 109.265 387.99L109.212 388.248L110.258 387.68Z" fill="white"/>
<path d="M107.33 387.68C107.069 387.835 107.435 388.041 107.696 387.886L108.742 387.267L108.69 387.525C108.69 387.68 109.108 387.731 109.161 387.525L109.265 386.905C109.265 386.802 109.161 386.75 109.004 386.75L107.958 386.802C107.644 386.802 107.696 387.06 107.958 387.06L108.376 387.009L107.33 387.68Z" fill="white"/>
<path d="M107.121 390.054L106.493 389.693C106.441 389.641 106.284 389.641 106.18 389.693L105.395 390.158C105.343 390.209 105.343 390.261 105.395 390.261C105.395 390.261 105.395 390.261 105.447 390.313L104.454 390.932C104.297 391.035 104.558 391.19 104.715 391.087L105.709 390.467H105.761L104.767 391.087C104.558 391.19 104.872 391.345 105.029 391.242L106.023 390.622C106.075 390.622 106.075 390.674 106.075 390.674C106.127 390.726 106.232 390.726 106.284 390.674L107.069 390.209C107.226 390.209 107.226 390.106 107.121 390.054Z" fill="white"/>
<path d="M107.121 389.848C107.265 389.848 107.382 389.778 107.382 389.693C107.382 389.607 107.265 389.538 107.121 389.538C106.976 389.538 106.859 389.607 106.859 389.693C106.859 389.778 106.976 389.848 107.121 389.848Z" fill="white"/>
<path d="M105.813 389.279L105.186 388.918C105.133 388.866 104.977 388.866 104.872 388.918L104.087 389.382C104.035 389.434 104.035 389.486 104.087 389.486C104.087 389.486 104.087 389.486 104.14 389.537L103.146 390.157C102.989 390.26 103.251 390.415 103.408 390.312L104.401 389.692H104.454L103.46 390.312C103.251 390.415 103.564 390.57 103.721 390.466L104.715 389.847C104.767 389.847 104.767 389.899 104.767 389.899C104.82 389.95 104.924 389.95 104.977 389.899L105.761 389.434C105.866 389.382 105.866 389.331 105.813 389.279Z" fill="white"/>
<path d="M105.761 389.074C105.905 389.074 106.022 389.005 106.022 388.919C106.022 388.833 105.905 388.764 105.761 388.764C105.616 388.764 105.499 388.833 105.499 388.919C105.499 389.005 105.616 389.074 105.761 389.074Z" fill="white"/>
<path d="M235.546 363H236.434V361.422H237.028C237.982 361.422 238.744 360.966 238.744 359.952C238.744 358.902 237.988 358.56 237.004 358.56H235.546V363ZM236.434 360.72V359.262H236.938C237.55 359.262 237.874 359.436 237.874 359.952C237.874 360.462 237.58 360.72 236.968 360.72H236.434ZM240.048 361.17L240.18 360.684C240.312 360.222 240.444 359.718 240.558 359.232H240.582C240.714 359.712 240.834 360.222 240.972 360.684L241.104 361.17H240.048ZM241.608 363H242.538L241.11 358.56H240.066L238.644 363H239.544L239.856 361.86H241.296L241.608 363ZM243.946 359.262H244.522C245.092 359.262 245.404 359.424 245.404 359.904C245.404 360.378 245.092 360.618 244.522 360.618H243.946V359.262ZM246.466 363L245.428 361.182C245.938 360.984 246.274 360.57 246.274 359.904C246.274 358.884 245.536 358.56 244.606 358.56H243.058V363H243.946V361.32H244.564L245.476 363H246.466ZM247.148 363H248.036V361.752L248.618 361.008L249.764 363H250.742L249.146 360.306L250.502 358.56H249.524L248.054 360.486H248.036V358.56H247.148V363ZM251.261 363H252.149V358.56H251.261V363ZM253.241 363H254.081V361.218C254.081 360.708 254.015 360.15 253.973 359.67H254.003L254.453 360.624L255.737 363H256.637V358.56H255.797V360.33C255.797 360.834 255.863 361.422 255.911 361.884H255.881L255.437 360.924L254.147 358.56H253.241V363ZM259.643 363.084C260.261 363.084 260.783 362.844 261.083 362.55V360.546H259.505V361.272H260.291V362.148C260.165 362.256 259.949 362.316 259.733 362.316C258.863 362.316 258.419 361.734 258.419 360.768C258.419 359.814 258.935 359.238 259.673 359.238C260.075 359.238 260.327 359.4 260.543 359.61L261.017 359.046C260.729 358.752 260.285 358.476 259.643 358.476C258.461 358.476 257.513 359.334 257.513 360.798C257.513 362.28 258.431 363.084 259.643 363.084ZM235.546 370H238.336V369.256H236.434V368.068H237.994V367.324H236.434V366.298H238.27V365.56H235.546V370ZM240.071 368.17L240.203 367.684C240.335 367.222 240.467 366.718 240.581 366.232H240.605C240.737 366.712 240.857 367.222 240.995 367.684L241.127 368.17H240.071ZM241.631 370H242.561L241.133 365.56H240.089L238.667 370H239.567L239.879 368.86H241.319L241.631 370ZM244.407 370.084C245.433 370.084 246.039 369.466 246.039 368.74C246.039 368.098 245.685 367.756 245.145 367.534L244.563 367.288C244.185 367.138 243.867 367.024 243.867 366.706C243.867 366.412 244.119 366.238 244.509 366.238C244.875 366.238 245.169 366.37 245.451 366.604L245.901 366.046C245.541 365.68 245.025 365.476 244.509 365.476C243.609 365.476 242.973 366.034 242.973 366.76C242.973 367.408 243.423 367.768 243.873 367.954L244.467 368.206C244.863 368.374 245.133 368.476 245.133 368.806C245.133 369.118 244.887 369.316 244.425 369.316C244.035 369.316 243.615 369.118 243.297 368.824L242.787 369.436C243.219 369.85 243.813 370.084 244.407 370.084ZM247.567 370H248.455V366.298H249.715V365.56H246.319V366.298H247.567V370ZM251.794 370H252.682V368.08H254.362V370H255.244V365.56H254.362V367.306H252.682V365.56H251.794V370ZM257.169 368.17L257.301 367.684C257.433 367.222 257.565 366.718 257.679 366.232H257.703C257.835 366.712 257.955 367.222 258.093 367.684L258.225 368.17H257.169ZM258.729 370H259.659L258.231 365.56H257.187L255.765 370H256.665L256.977 368.86H258.417L258.729 370ZM260.179 370H262.867V369.256H261.067V365.56H260.179V370ZM263.642 370H266.33V369.256H264.53V365.56H263.642V370Z" fill="#C4C4C4"/>
<path d="M67.546 376H68.434V374.422H69.028C69.982 374.422 70.744 373.966 70.744 372.952C70.744 371.902 69.988 371.56 69.004 371.56H67.546V376ZM68.434 373.72V372.262H68.938C69.55 372.262 69.874 372.436 69.874 372.952C69.874 373.462 69.58 373.72 68.968 373.72H68.434ZM72.048 374.17L72.18 373.684C72.312 373.222 72.444 372.718 72.558 372.232H72.582C72.714 372.712 72.834 373.222 72.972 373.684L73.104 374.17H72.048ZM73.608 376H74.538L73.11 371.56H72.066L70.644 376H71.544L71.856 374.86H73.296L73.608 376ZM75.9457 372.262H76.5217C77.0917 372.262 77.4037 372.424 77.4037 372.904C77.4037 373.378 77.0917 373.618 76.5217 373.618H75.9457V372.262ZM78.4657 376L77.4277 374.182C77.9377 373.984 78.2737 373.57 78.2737 372.904C78.2737 371.884 77.5357 371.56 76.6057 371.56H75.0577V376H75.9457V374.32H76.5637L77.4757 376H78.4657ZM79.1476 376H80.0356V374.752L80.6176 374.008L81.7636 376H82.7416L81.1456 373.306L82.5016 371.56H81.5236L80.0536 373.486H80.0356V371.56H79.1476V376ZM83.2608 376H84.1488V371.56H83.2608V376ZM85.2413 376H86.0813V374.218C86.0813 373.708 86.0153 373.15 85.9733 372.67H86.0033L86.4533 373.624L87.7373 376H88.6373V371.56H87.7973V373.33C87.7973 373.834 87.8633 374.422 87.9113 374.884H87.8813L87.4373 373.924L86.1473 371.56H85.2413V376ZM91.6435 376.084C92.2615 376.084 92.7835 375.844 93.0835 375.55V373.546H91.5055V374.272H92.2915V375.148C92.1655 375.256 91.9495 375.316 91.7335 375.316C90.8635 375.316 90.4195 374.734 90.4195 373.768C90.4195 372.814 90.9355 372.238 91.6735 372.238C92.0755 372.238 92.3275 372.4 92.5435 372.61L93.0175 372.046C92.7295 371.752 92.2855 371.476 91.6435 371.476C90.4615 371.476 89.5135 372.334 89.5135 373.798C89.5135 375.28 90.4315 376.084 91.6435 376.084ZM67.966 383H69.052L69.538 380.804C69.61 380.456 69.67 380.114 69.73 379.778H69.754C69.808 380.114 69.874 380.456 69.946 380.804L70.444 383H71.548L72.37 378.56H71.524L71.176 380.726C71.11 381.188 71.044 381.662 70.978 382.142H70.948C70.852 381.662 70.762 381.182 70.666 380.726L70.15 378.56H69.394L68.878 380.726C68.782 381.188 68.686 381.668 68.596 382.142H68.572C68.506 381.668 68.434 381.194 68.368 380.726L68.014 378.56H67.108L67.966 383ZM73.0362 383H75.8262V382.256H73.9242V381.068H75.4842V380.324H73.9242V379.298H75.7602V378.56H73.0362V383ZM78.0536 383.084C79.0796 383.084 79.6856 382.466 79.6856 381.74C79.6856 381.098 79.3316 380.756 78.7916 380.534L78.2096 380.288C77.8316 380.138 77.5136 380.024 77.5136 379.706C77.5136 379.412 77.7656 379.238 78.1556 379.238C78.5216 379.238 78.8156 379.37 79.0976 379.604L79.5476 379.046C79.1876 378.68 78.6716 378.476 78.1556 378.476C77.2556 378.476 76.6196 379.034 76.6196 379.76C76.6196 380.408 77.0696 380.768 77.5196 380.954L78.1136 381.206C78.5096 381.374 78.7796 381.476 78.7796 381.806C78.7796 382.118 78.5336 382.316 78.0716 382.316C77.6816 382.316 77.2616 382.118 76.9436 381.824L76.4336 382.436C76.8656 382.85 77.4596 383.084 78.0536 383.084ZM81.2132 383H82.1012V379.298H83.3612V378.56H79.9652V379.298H81.2132V383ZM85.4405 383H86.3285V381.08H88.0085V383H88.8905V378.56H88.0085V380.306H86.3285V378.56H85.4405V383ZM90.8155 381.17L90.9475 380.684C91.0795 380.222 91.2115 379.718 91.3255 379.232H91.3495C91.4815 379.712 91.6015 380.222 91.7395 380.684L91.8715 381.17H90.8155ZM92.3755 383H93.3055L91.8775 378.56H90.8335L89.4115 383H90.3115L90.6235 381.86H92.0635L92.3755 383ZM93.8253 383H96.5133V382.256H94.7133V378.56H93.8253V383ZM97.2882 383H99.9762V382.256H98.1762V378.56H97.2882V383Z" fill="#C4C4C4"/>
<path d="M152.331 391.39L152.733 382.028L82.9131 340.322L94.3318 333.463L111.938 344.027L125.721 335.766L139 343.727L225.42 292.108L206.909 281.044L235.229 264.121L253.741 275.186L297.101 249.302L354.497 283.597L199.263 376.32L186.235 368.51L167.874 379.474L166.767 400.001" fill="white"/>
<path d="M251.829 303.123L246.296 299.819L266.467 287.753L272.001 291.057L251.829 303.123Z" fill="black"/>
<path d="M266.568 311.935L261.085 308.63L281.256 296.614L286.79 299.869L266.568 311.935Z" fill="black"/>
<path d="M296.9 251.955L255.702 276.588L294.435 299.668L270.24 314.137L284.777 322.799L350.17 283.747L296.9 251.955Z" fill="#DAC452"/>
<path d="M255.049 318.844L241.366 310.633L248.761 306.227L262.443 314.388L255.049 318.844Z" fill="black"/>
<path d="M100.418 348.683L86.6855 340.472L94.08 336.066L107.813 344.277L100.418 348.683Z" fill="black"/>
<path d="M245.24 299.168L214.002 280.543L234.224 268.477L265.411 287.152L245.24 299.168Z" fill="black"/>
<path d="M227.332 306.578L216.315 300.019L227.332 293.41L238.348 300.019L227.332 306.578Z" fill="black"/>
<path d="M125.671 351.937L114.654 345.379L125.671 338.77L136.687 345.379L125.671 351.937Z" fill="black"/>
<path d="M212.442 315.439L201.426 308.881L214.052 301.321L225.068 307.93L212.442 315.439Z" fill="#DAC452"/>
<path d="M198.006 324.051L186.989 317.492L199.666 309.932L210.631 316.541L198.006 324.051Z" fill="#DAC452"/>
<path d="M168.629 341.624L157.612 335.015L170.289 327.505L181.255 334.064L168.629 341.624Z" fill="#DAC452"/>
<path d="M186.234 331.11L175.218 324.551L185.228 318.543L196.244 325.152L186.234 331.11Z" fill="black"/>
<path d="M154.242 350.235L143.226 343.627L155.852 336.117L166.868 342.675L154.242 350.235Z" fill="#DAC452"/>
<path d="M254.747 340.723L243.73 334.164L256.356 326.604L267.373 333.213L254.747 340.723Z" fill="#DAC452"/>
<path d="M232.84 329.119L221.823 322.56L234.449 315L245.465 321.609L232.84 329.119Z" fill="#DAC452"/>
<path d="M269.016 331.119L258 324.56L270.626 317L281.642 323.609L269.016 331.119Z" fill="#DAC452"/>
<path d="M240.36 349.335L229.344 342.776L241.97 335.216L252.986 341.775L240.36 349.335Z" fill="#DAC452"/>
<path d="M225.923 357.946L214.907 351.387L227.533 343.827L238.549 350.386L225.923 357.946Z" fill="#DAC452"/>
<path d="M211.016 341.119L200 334.56L212.626 327L223.642 333.559L211.016 341.119Z" fill="#DAC452"/>
<path d="M142.016 372.119L131 365.51L143.626 358L154.642 364.559L142.016 372.119Z" fill="#DAC452"/>
<path d="M176.016 363.119L165 356.51L191 341L202 347.5L176.016 363.119Z" fill="#DAC452"/>
<path d="M200.221 374L186 365.483L206.779 353L221 361.517L200.221 374Z" fill="#00AB8C"/>
<path d="M128.881 344.376C129.081 344.525 129.43 344.525 129.679 344.376C129.878 344.226 129.878 344.027 129.679 343.927C129.48 343.778 129.131 343.778 128.881 343.927C128.632 344.027 128.632 344.226 128.881 344.376Z" fill="white"/>
<path d="M126.338 345.819L124.992 346.616C124.743 346.765 124.394 346.566 124.643 346.417L125.989 345.62L125.491 345.321L127.834 344.525L127.734 344.475L126.388 344.923C126.089 345.023 125.89 344.774 126.189 344.674L127.635 344.226C127.784 344.176 128.183 344.126 128.482 344.276L128.731 344.425L129.03 344.575C129.33 344.724 129.23 344.973 129.18 345.072L128.382 345.969C128.233 346.168 127.784 346.018 127.984 345.869L128.731 345.072L128.632 345.023L127.335 346.417L126.837 346.118L125.441 346.964C125.192 347.114 124.843 346.915 125.092 346.765L126.488 345.919L126.338 345.819Z" fill="white"/>
<path d="M125.838 342.399C125.539 342.249 125.09 342.249 124.841 342.399L123.644 343.145C123.395 343.295 123.744 343.494 123.993 343.345L125.09 342.697L125.19 342.747L122.099 344.589C121.8 344.789 122.248 345.037 122.547 344.838L124.342 343.743L124.442 343.793L122.647 344.888C122.348 345.087 122.797 345.336 123.096 345.137L126.187 343.295L126.286 343.345L125.19 343.992C124.94 344.141 125.289 344.34 125.539 344.191L126.735 343.444C126.984 343.295 127.034 342.996 126.735 342.847L125.838 342.399Z" fill="white"/>
<path d="M126.735 342.697C127.038 342.697 127.283 342.541 127.283 342.349C127.283 342.156 127.038 342 126.735 342C126.432 342 126.187 342.156 126.187 342.349C126.187 342.541 126.432 342.697 126.735 342.697Z" fill="white"/>
<path d="M229.881 299.376C230.081 299.525 230.43 299.525 230.679 299.376C230.878 299.226 230.878 299.027 230.679 298.927C230.48 298.778 230.131 298.778 229.881 298.927C229.632 299.027 229.632 299.226 229.881 299.376Z" fill="white"/>
<path d="M227.338 300.819L225.992 301.616C225.743 301.765 225.394 301.566 225.643 301.417L226.989 300.62L226.491 300.321L228.834 299.525L228.734 299.475L227.388 299.923C227.089 300.023 226.89 299.774 227.189 299.674L228.635 299.226C228.784 299.176 229.183 299.126 229.482 299.276L229.731 299.425L230.03 299.575C230.33 299.724 230.23 299.973 230.18 300.072L229.382 300.969C229.233 301.168 228.784 301.018 228.984 300.869L229.731 300.072L229.632 300.023L228.335 301.417L227.837 301.118L226.441 301.964C226.192 302.114 225.843 301.915 226.092 301.765L227.488 300.919L227.338 300.819Z" fill="white"/>
<path d="M226.838 297.399C226.539 297.249 226.09 297.249 225.841 297.399L224.644 298.145C224.395 298.295 224.744 298.494 224.993 298.345L226.09 297.697L226.19 297.747L223.099 299.589C222.8 299.789 223.248 300.037 223.547 299.838L225.342 298.743L225.442 298.793L223.647 299.888C223.348 300.087 223.797 300.336 224.096 300.137L227.187 298.295L227.286 298.345L226.19 298.992C225.94 299.141 226.289 299.34 226.539 299.191L227.735 298.444C227.984 298.295 228.034 297.996 227.735 297.847L226.838 297.399Z" fill="white"/>
<path d="M227.735 297.697C228.038 297.697 228.283 297.541 228.283 297.349C228.283 297.156 228.038 297 227.735 297C227.432 297 227.187 297.156 227.187 297.349C227.187 297.541 227.432 297.697 227.735 297.697Z" fill="white"/>
<path d="M260.028 308.03L252.885 303.724L273.056 291.708L280.199 295.964L260.028 308.03Z" fill="black"/>
<path d="M266.668 302.272L269.737 300.47C270.038 300.27 270.038 299.969 269.737 299.819L266.668 297.967C266.366 297.766 265.863 297.766 265.561 297.967L262.493 299.769C262.191 299.969 262.191 300.27 262.493 300.42L265.561 302.272C265.863 302.422 266.366 302.473 266.668 302.272ZM266.115 302.022L262.845 300.069L266.064 298.117L269.334 300.069L266.115 302.022Z" fill="white"/>
<path d="M270.692 297.966C270.943 297.816 271.295 298.016 271.044 298.167L270.038 298.767L270.44 298.717C270.692 298.717 270.742 298.968 270.44 298.968L269.434 299.018C269.283 299.018 269.183 298.968 269.183 298.867L269.283 298.267C269.283 298.066 269.736 298.116 269.736 298.267L269.686 298.517L270.692 297.966Z" fill="white"/>
<path d="M267.925 298.016C267.674 298.167 268.026 298.367 268.278 298.217L269.284 297.616L269.233 297.866C269.233 298.016 269.636 298.066 269.686 297.866L269.787 297.265C269.787 297.165 269.686 297.115 269.535 297.115L268.529 297.165C268.227 297.165 268.278 297.416 268.529 297.416L268.931 297.366L267.925 298.016Z" fill="white"/>
<path d="M267.725 300.271L267.122 299.92C267.071 299.87 266.92 299.87 266.82 299.92L266.065 300.371C266.015 300.421 266.015 300.471 266.065 300.471C266.065 300.471 266.065 300.471 266.116 300.521L265.16 301.122C265.009 301.222 265.26 301.372 265.411 301.272L266.367 300.671H266.417L265.462 301.272C265.26 301.372 265.562 301.522 265.713 301.422L266.669 300.822C266.719 300.822 266.719 300.872 266.719 300.872C266.769 300.922 266.87 300.922 266.92 300.872L267.675 300.421C267.776 300.421 267.826 300.321 267.725 300.271Z" fill="white"/>
<path d="M267.675 300.119C267.814 300.119 267.927 300.052 267.927 299.969C267.927 299.886 267.814 299.819 267.675 299.819C267.536 299.819 267.424 299.886 267.424 299.969C267.424 300.052 267.536 300.119 267.675 300.119Z" fill="white"/>
<path d="M266.417 299.519L265.813 299.168C265.763 299.118 265.612 299.118 265.511 299.168L264.757 299.619C264.706 299.669 264.706 299.719 264.757 299.719C264.757 299.719 264.757 299.719 264.807 299.769L263.851 300.37C263.7 300.47 263.952 300.62 264.103 300.52L265.059 299.919H265.109L264.153 300.52C263.952 300.62 264.254 300.771 264.405 300.67L265.36 300.07C265.411 300.07 265.411 300.12 265.411 300.12C265.461 300.17 265.562 300.17 265.612 300.12L266.366 299.669C266.517 299.619 266.517 299.569 266.417 299.519Z" fill="white"/>
<path d="M266.367 299.318C266.506 299.318 266.618 299.251 266.618 299.168C266.618 299.085 266.506 299.018 266.367 299.018C266.228 299.018 266.115 299.085 266.115 299.168C266.115 299.251 266.228 299.318 266.367 299.318Z" fill="white"/>
<path d="M100.028 328.03L92.8848 323.724L113.056 311.708L120.199 315.964L100.028 328.03Z" fill="black"/>
<path d="M106.668 322.272L109.737 320.47C110.038 320.27 110.038 319.969 109.737 319.819L106.668 317.967C106.366 317.766 105.863 317.766 105.561 317.967L102.493 319.769C102.191 319.969 102.191 320.27 102.493 320.42L105.561 322.272C105.863 322.422 106.366 322.473 106.668 322.272ZM106.115 322.022L102.845 320.069L106.064 318.117L109.334 320.069L106.115 322.022Z" fill="white"/>
<path d="M110.692 317.966C110.943 317.816 111.295 318.016 111.044 318.167L110.038 318.767L110.44 318.717C110.692 318.717 110.742 318.968 110.44 318.968L109.434 319.018C109.283 319.018 109.183 318.968 109.183 318.867L109.283 318.267C109.283 318.066 109.736 318.116 109.736 318.267L109.686 318.517L110.692 317.966Z" fill="white"/>
<path d="M107.925 318.016C107.674 318.167 108.026 318.367 108.278 318.217L109.284 317.616L109.233 317.866C109.233 318.016 109.636 318.066 109.686 317.866L109.787 317.265C109.787 317.165 109.686 317.115 109.535 317.115L108.529 317.165C108.227 317.165 108.278 317.416 108.529 317.416L108.931 317.366L107.925 318.016Z" fill="white"/>
<path d="M107.725 320.271L107.122 319.92C107.071 319.87 106.92 319.87 106.82 319.92L106.065 320.371C106.015 320.421 106.015 320.471 106.065 320.471C106.065 320.471 106.065 320.471 106.116 320.521L105.16 321.122C105.009 321.222 105.26 321.372 105.411 321.272L106.367 320.671H106.417L105.462 321.272C105.26 321.372 105.562 321.522 105.713 321.422L106.669 320.822C106.719 320.822 106.719 320.872 106.719 320.872C106.769 320.922 106.87 320.922 106.92 320.872L107.675 320.421C107.776 320.421 107.826 320.321 107.725 320.271Z" fill="white"/>
<path d="M107.675 320.119C107.814 320.119 107.927 320.052 107.927 319.969C107.927 319.886 107.814 319.819 107.675 319.819C107.536 319.819 107.424 319.886 107.424 319.969C107.424 320.052 107.536 320.119 107.675 320.119Z" fill="white"/>
<path d="M106.417 319.519L105.813 319.168C105.763 319.118 105.612 319.118 105.511 319.168L104.757 319.619C104.706 319.669 104.706 319.719 104.757 319.719C104.757 319.719 104.757 319.719 104.807 319.769L103.851 320.37C103.7 320.47 103.952 320.62 104.103 320.52L105.059 319.919H105.109L104.153 320.52C103.952 320.62 104.254 320.771 104.405 320.67L105.36 320.07C105.411 320.07 105.411 320.12 105.411 320.12C105.461 320.17 105.562 320.17 105.612 320.12L106.366 319.669C106.517 319.619 106.517 319.569 106.417 319.519Z" fill="white"/>
<path d="M106.367 319.318C106.506 319.318 106.618 319.251 106.618 319.168C106.618 319.085 106.506 319.018 106.367 319.018C106.228 319.018 106.115 319.085 106.115 319.168C106.115 319.251 106.228 319.318 106.367 319.318Z" fill="white"/>
<path d="M185.229 327.656L188.297 325.853C188.599 325.653 188.599 325.353 188.297 325.202L185.229 323.35C184.927 323.15 184.424 323.15 184.122 323.35L181.054 325.152C180.752 325.353 180.752 325.653 181.054 325.803L184.122 327.656C184.424 327.806 184.877 327.856 185.229 327.656ZM184.675 327.405L181.406 325.453L184.625 323.5L187.895 325.453L184.675 327.405Z" fill="white"/>
<path d="M189.253 323.35C189.505 323.2 189.857 323.4 189.605 323.55L188.599 324.151L189.002 324.101C189.253 324.101 189.304 324.351 189.002 324.351L187.996 324.401C187.845 324.401 187.744 324.351 187.744 324.251L187.845 323.65C187.845 323.45 188.297 323.5 188.297 323.65L188.247 323.901L189.253 323.35Z" fill="white"/>
<path d="M186.436 323.35C186.185 323.5 186.537 323.7 186.788 323.55L187.794 322.949L187.744 323.2C187.744 323.35 188.146 323.4 188.197 323.2L188.297 322.599C188.297 322.499 188.197 322.449 188.046 322.449L187.04 322.499C186.738 322.499 186.788 322.749 187.04 322.749L187.442 322.699L186.436 323.35Z" fill="white"/>
<path d="M186.235 325.654L185.631 325.303C185.581 325.253 185.43 325.253 185.33 325.303L184.575 325.754C184.525 325.804 184.525 325.854 184.575 325.854C184.575 325.854 184.575 325.854 184.625 325.904L183.67 326.505C183.519 326.605 183.77 326.755 183.921 326.655L184.877 326.054H184.927L183.971 326.655C183.77 326.755 184.072 326.905 184.223 326.805L185.179 326.204C185.229 326.204 185.229 326.254 185.229 326.254C185.279 326.305 185.38 326.305 185.43 326.254L186.185 325.804C186.336 325.754 186.336 325.704 186.235 325.654Z" fill="white"/>
<path d="M186.185 325.453C186.324 325.453 186.437 325.385 186.437 325.303C186.437 325.22 186.324 325.152 186.185 325.152C186.046 325.152 185.934 325.22 185.934 325.303C185.934 325.385 186.046 325.453 186.185 325.453Z" fill="white"/>
<path d="M184.977 324.903L184.374 324.552C184.323 324.502 184.172 324.502 184.072 324.552L183.317 325.003C183.267 325.053 183.267 325.103 183.317 325.103C183.317 325.103 183.317 325.103 183.368 325.153L182.412 325.754C182.261 325.854 182.512 326.004 182.663 325.904L183.619 325.303H183.669L182.714 325.904C182.512 326.004 182.814 326.154 182.965 326.054L183.921 325.453C183.971 325.453 183.971 325.503 183.971 325.503C184.021 325.554 184.122 325.554 184.172 325.503L184.927 325.053C185.027 325.003 185.028 324.953 184.977 324.903Z" fill="white"/>
<path d="M184.927 324.702C185.066 324.702 185.179 324.635 185.179 324.552C185.179 324.469 185.066 324.401 184.927 324.401C184.788 324.401 184.676 324.469 184.676 324.552C184.676 324.635 184.788 324.702 184.927 324.702Z" fill="white"/>
<path d="M197.726 362.091L198.961 363L200.268 362.091L201.575 363L202.883 362L204.19 363L205.497 362L206.804 363L208.112 362L210 363.455L209.346 364L208.112 363L206.804 364L205.497 363L204.19 364L202.883 363L201.575 364L200.268 363L198.961 364L197 362.545L197.726 362.091Z" fill="white"/>
<path d="M98.2554 341.223C98.4566 341.324 98.8087 341.324 99.01 341.223C99.2112 341.123 99.2112 340.873 99.01 340.773C98.8087 340.673 98.4566 340.673 98.2554 340.773C98.0542 340.923 98.0542 341.123 98.2554 341.223Z" fill="white"/>
<path d="M101.223 342.625L100.318 342.074C100.116 341.974 99.8145 341.874 99.563 341.874H97.9533L98.2049 341.724C98.7079 341.424 97.9533 340.973 97.4503 341.273L96.4946 341.874H95.0861C94.9352 341.874 94.9352 341.874 94.8346 341.774L94.3819 341.524C93.9291 341.273 93.2752 341.323 92.9734 341.524C92.6716 341.724 92.4704 342.125 92.9734 342.425C92.9734 342.425 93.577 342.775 93.7279 342.875C93.9291 342.976 94.1806 343.076 94.5328 343.076H99.06C99.1606 343.076 99.2109 343.076 99.2612 343.126C99.2612 343.126 99.563 343.326 99.8145 343.476C100.066 343.626 100.77 343.677 101.223 343.426C101.625 343.176 101.525 342.775 101.223 342.625ZM100.116 343.226L99.6636 342.926C99.4624 342.825 99.3618 342.775 99.1103 342.775H94.5831C94.3819 342.775 94.231 342.725 94.08 342.625L93.3255 342.175C93.1243 342.074 93.1243 341.874 93.3255 341.724C93.5267 341.574 93.8285 341.624 93.9794 341.724L94.4825 342.024C94.6334 342.125 94.7843 342.125 94.9352 342.125H99.563C99.7642 342.125 99.8648 342.175 100.016 342.275L100.821 342.725C101.022 342.825 100.921 343.026 100.821 343.126C100.67 343.276 100.368 343.376 100.116 343.226Z" fill="white"/>
<path d="M252.936 311.384C253.137 311.484 253.489 311.484 253.69 311.384C253.891 311.284 253.891 311.034 253.69 310.933C253.489 310.833 253.137 310.833 252.936 310.933C252.684 311.084 252.684 311.284 252.936 311.384Z" fill="white"/>
<path d="M255.904 312.736L254.998 312.185C254.797 312.085 254.495 311.985 254.244 311.985H252.634L252.886 311.835C253.389 311.534 252.634 311.084 252.131 311.384L251.175 311.985H249.767C249.616 311.985 249.616 311.985 249.515 311.885L249.063 311.635C248.61 311.384 247.956 311.434 247.654 311.635C247.302 311.835 247.151 312.235 247.654 312.536C247.654 312.536 248.258 312.886 248.409 312.986C248.61 313.086 248.861 313.187 249.214 313.187H253.741C253.841 313.187 253.892 313.187 253.942 313.237C253.942 313.237 254.244 313.437 254.495 313.587C254.747 313.737 255.451 313.787 255.904 313.537C256.256 313.337 256.155 312.936 255.904 312.736ZM254.747 313.387L254.294 313.086C254.093 312.986 253.992 312.936 253.741 312.936H249.214C249.012 312.936 248.861 312.886 248.711 312.786L247.956 312.335C247.755 312.235 247.755 312.035 247.956 311.885C248.157 311.735 248.459 311.785 248.61 311.885L249.113 312.185C249.264 312.285 249.415 312.285 249.566 312.285H254.193C254.395 312.285 254.495 312.335 254.646 312.436L255.451 312.886C255.652 312.986 255.552 313.187 255.451 313.287C255.3 313.437 254.998 313.537 254.747 313.387Z" fill="white"/>
<mask id="path-81-inside-1" fill="white">
<path d="M152.331 391.39L152.733 382.028L82.9131 340.322L94.3318 333.463L111.938 344.027L125.721 335.766L139 343.727L225.42 292.108L206.909 281.044L235.229 264.121L253.741 275.186L297.101 249.302L354.497 283.597L199.263 376.32L186.235 368.51L167.874 379.474L166.767 400.001"/>
</mask>
<path d="M149.333 391.261C149.262 392.916 150.546 394.316 152.202 394.387C153.857 394.458 155.257 393.174 155.328 391.519L149.333 391.261ZM152.733 382.028L155.73 382.156L155.807 380.369L154.271 379.452L152.733 382.028ZM82.9131 340.322L81.3683 337.751L77.075 340.33L81.3747 342.898L82.9131 340.322ZM94.3318 333.463L95.8753 330.891L94.3309 329.964L92.787 330.892L94.3318 333.463ZM111.938 344.027L110.394 346.6L111.937 347.525L113.48 346.6L111.938 344.027ZM125.721 335.766L127.263 333.193L125.721 332.269L124.178 333.193L125.721 335.766ZM139 343.727L137.458 346.3L138.998 347.223L140.539 346.302L139 343.727ZM225.42 292.108L226.959 294.684L231.269 292.109L226.959 289.533L225.42 292.108ZM206.909 281.044L205.37 278.469L201.061 281.043L205.37 283.619L206.909 281.044ZM235.229 264.121L236.768 261.546L235.23 260.626L233.69 261.546L235.229 264.121ZM253.741 275.186L252.201 277.761L253.74 278.681L255.278 277.762L253.741 275.186ZM297.101 249.302L298.64 246.726L297.102 245.807L295.564 246.726L297.101 249.302ZM354.497 283.597L356.035 286.173L360.346 283.598L356.036 281.022L354.497 283.597ZM199.263 376.32L197.72 378.893L199.26 379.816L200.801 378.896L199.263 376.32ZM186.235 368.51L187.777 365.937L186.238 365.014L184.696 365.934L186.235 368.51ZM167.874 379.474L166.336 376.899L164.964 377.718L164.878 379.313L167.874 379.474ZM163.772 399.84C163.683 401.494 164.952 402.908 166.606 402.997C168.26 403.086 169.674 401.817 169.763 400.163L163.772 399.84ZM155.328 391.519L155.73 382.156L149.736 381.899L149.333 391.261L155.328 391.519ZM154.271 379.452L84.4515 337.747L81.3747 342.898L151.195 384.603L154.271 379.452ZM84.4579 342.894L95.8766 336.035L92.787 330.892L81.3683 337.751L84.4579 342.894ZM92.7882 336.036L110.394 346.6L113.481 341.455L95.8753 330.891L92.7882 336.036ZM113.48 346.6L127.263 338.339L124.178 333.193L110.395 341.454L113.48 346.6ZM124.178 338.339L137.458 346.3L140.543 341.154L127.263 333.193L124.178 338.339ZM140.539 346.302L226.959 294.684L223.882 289.533L137.462 341.151L140.539 346.302ZM226.959 289.533L208.448 278.469L205.37 283.619L223.881 294.684L226.959 289.533ZM208.448 283.619L236.768 266.697L233.69 261.546L205.37 278.469L208.448 283.619ZM233.69 266.696L252.201 277.761L255.28 272.611L236.768 261.546L233.69 266.696ZM255.278 277.762L298.639 251.878L295.564 246.726L252.203 272.61L255.278 277.762ZM295.563 251.877L352.958 286.172L356.036 281.022L298.64 246.726L295.563 251.877ZM352.958 281.022L197.725 373.744L200.801 378.896L356.035 286.173L352.958 281.022ZM200.805 373.747L187.777 365.937L184.692 371.083L197.72 378.893L200.805 373.747ZM184.696 365.934L166.336 376.899L169.412 382.05L187.773 371.085L184.696 365.934ZM164.878 379.313L163.772 399.84L169.763 400.163L170.87 379.636L164.878 379.313Z" fill="black" mask="url(#path-81-inside-1)"/>
<path opacity="0.9" d="M233.5 230.5L241 226L262.5 314.5L255 319L233.5 230.5Z" fill="url(#paint0_linear)"/>
<path opacity="0.9" d="M75.5 269.5L83 265L108.5 345L101 349.5L75.5 269.5Z" fill="url(#paint1_linear)"/>
<path opacity="0.8" d="M158.712 323.361L255.025 263.232L197.556 229.177L101.243 286.113L158.712 323.361Z" fill="#C4C4C4"/>
<path d="M160.508 222.159L188.54 238.783L198.268 233.001L252.555 265.164L354.017 205.019L295.755 170.533L275.515 182.51L251.457 168.261L160.508 222.159Z" fill="white"/>
<path d="M66.0023 187.053L170.288 248.85L104.286 287.932L0 226.186L66.0023 187.053Z" fill="white"/>
<path d="M88.23 224.173L95.6566 228.561L74.6844 241.003L67.2578 236.563L88.23 224.173Z" fill="black"/>
<path d="M188.018 209.666L202.087 217.978L194.922 222.211L180.905 213.899L188.018 209.666Z" fill="black"/>
<path d="M250.463 198.721L257.89 203.109L236.865 215.5L229.438 211.112L250.463 198.721Z" fill="black"/>
<path d="M84.6208 232.237C84.8331 232.396 85.2044 232.396 85.4697 232.237C85.6819 232.078 85.6819 231.866 85.4697 231.76C85.2575 231.601 84.8861 231.601 84.6208 231.76C84.3556 231.866 84.3556 232.078 84.6208 232.237Z" fill="white"/>
<path d="M81.9147 233.773L80.4822 234.621C80.2169 234.78 79.8455 234.568 80.1108 234.409L81.5433 233.562L81.0127 233.244L83.5063 232.396L83.4002 232.343L81.9677 232.82C81.6494 232.926 81.4372 232.661 81.7555 232.555L83.2941 232.078C83.4533 232.025 83.8777 231.972 84.1961 232.131L84.4613 232.29L84.7797 232.449C85.098 232.608 84.9919 232.873 84.9388 232.979L84.09 233.932C83.9308 234.144 83.4533 233.985 83.6655 233.826L84.4613 232.979L84.3552 232.926L82.9758 234.409L82.4452 234.091L80.9597 234.992C80.6944 235.151 80.323 234.939 80.5883 234.78L82.0738 233.879L81.9147 233.773Z" fill="white"/>
<path d="M81.382 230.133C81.0636 229.974 80.5861 229.974 80.3209 230.133L79.0475 230.928C78.7823 231.087 79.1537 231.299 79.4189 231.14L80.5861 230.451L80.6923 230.504L77.4028 232.465C77.0845 232.677 77.562 232.942 77.8803 232.73L79.7903 231.564L79.8964 231.617L77.9864 232.783C77.6681 232.995 78.1456 233.26 78.4639 233.048L81.7534 231.087L81.8595 231.14L80.6923 231.829C80.427 231.988 80.7984 232.2 81.0636 232.041L82.337 231.246C82.6023 231.087 82.6553 230.769 82.337 230.61L81.382 230.133Z" fill="white"/>
<path d="M82.3365 230.451C82.6589 230.451 82.9201 230.285 82.9201 230.08C82.9201 229.875 82.6589 229.709 82.3365 229.709C82.0142 229.709 81.7529 229.875 81.7529 230.08C81.7529 230.285 82.0142 230.451 82.3365 230.451Z" fill="white"/>
<path d="M245.078 206.155C245.287 206.31 245.653 206.31 245.915 206.155C246.124 206 246.124 205.794 245.915 205.69C245.706 205.535 245.339 205.535 245.078 205.69C244.816 205.794 244.816 206.052 245.078 206.155Z" fill="white"/>
<path d="M242.41 207.652L240.998 208.478C240.737 208.633 240.37 208.426 240.632 208.271L242.044 207.445L241.521 207.136L243.979 206.31L243.875 206.258L242.462 206.723C242.149 206.826 241.939 206.568 242.253 206.465L243.77 206C243.927 205.948 244.345 205.897 244.659 206.051L244.921 206.206L245.234 206.361C245.548 206.516 245.444 206.774 245.391 206.878L244.554 207.807C244.398 208.013 243.927 207.858 244.136 207.704L244.921 206.878L244.816 206.826L243.456 208.271L242.933 207.962L241.469 208.839C241.207 208.994 240.841 208.788 241.103 208.633L242.567 207.755L242.41 207.652Z" fill="white"/>
<path d="M192.725 214.777C192.411 214.622 191.941 214.622 191.679 214.777L190.424 215.552C190.163 215.707 190.529 215.913 190.79 215.758L191.941 215.087L192.045 215.139L188.803 217.049C188.489 217.255 188.96 217.514 189.273 217.307L191.156 216.171L191.261 216.223L189.378 217.359C189.064 217.565 189.535 217.823 189.849 217.617L193.091 215.707L193.196 215.758L192.045 216.429C191.784 216.584 192.15 216.791 192.411 216.636L193.667 215.861C193.928 215.707 193.98 215.397 193.667 215.242L192.725 214.777Z" fill="white"/>
<path d="M193.666 215.087C193.984 215.087 194.241 214.925 194.241 214.726C194.241 214.526 193.984 214.364 193.666 214.364C193.348 214.364 193.091 214.526 193.091 214.726C193.091 214.925 193.348 215.087 193.666 215.087Z" fill="white"/>
<path d="M179.389 214.777L186.031 218.7L173.532 226.083L166.89 222.159L179.389 214.777Z" fill="black"/>
<path d="M174.733 226.806L182.265 231.246L190.162 235.944L202.661 228.561L211.291 223.45L203.341 218.752L194.764 223.863L187.233 219.372L174.733 226.806Z" fill="#DAC452"/>
<path d="M259.354 203.987L273.841 212.557L252.869 224.999L238.382 216.377L259.354 203.987Z" fill="black"/>
<path d="M274.94 213.228L282.419 217.616L261.394 230.058L253.968 225.67L274.94 213.228Z" fill="black"/>
<path d="M268.351 224.122L271.541 222.263C271.855 222.057 271.855 221.747 271.541 221.592L268.351 219.682C268.037 219.475 267.514 219.475 267.2 219.682L264.01 221.54C263.696 221.747 263.696 222.057 264.01 222.211L267.2 224.122C267.514 224.328 268.037 224.328 268.351 224.122ZM267.775 223.863L264.376 221.85L267.723 219.837L271.122 221.85L267.775 223.863Z" fill="white"/>
<path d="M272.535 219.681C272.796 219.526 273.162 219.733 272.901 219.888L271.855 220.507L272.273 220.456C272.535 220.456 272.587 220.714 272.273 220.714L271.227 220.765C271.07 220.765 270.966 220.714 270.966 220.611L271.07 219.991C271.07 219.785 271.541 219.836 271.541 219.991L271.489 220.249L272.535 219.681Z" fill="white"/>
<path d="M269.658 219.733C269.397 219.888 269.763 220.095 270.024 219.94L271.07 219.32L271.018 219.579C271.018 219.733 271.436 219.785 271.489 219.579L271.593 218.959C271.593 218.856 271.489 218.804 271.332 218.804L270.286 218.856C269.972 218.856 270.024 219.114 270.286 219.114L270.704 219.062L269.658 219.733Z" fill="white"/>
<path d="M269.449 222.057L268.821 221.695C268.769 221.644 268.612 221.644 268.508 221.695L267.723 222.16C267.671 222.212 267.671 222.263 267.723 222.263C267.723 222.263 267.723 222.263 267.775 222.315L266.782 222.935C266.625 223.038 266.886 223.193 267.043 223.089L268.037 222.47H268.089L267.096 223.089C266.886 223.193 267.2 223.348 267.357 223.244L268.351 222.625C268.403 222.625 268.403 222.676 268.403 222.676C268.455 222.728 268.56 222.728 268.612 222.676L269.397 222.212C269.501 222.212 269.501 222.108 269.449 222.057Z" fill="white"/>
<path d="M269.396 221.902C269.541 221.902 269.658 221.833 269.658 221.747C269.658 221.662 269.541 221.592 269.396 221.592C269.252 221.592 269.135 221.662 269.135 221.747C269.135 221.833 269.252 221.902 269.396 221.902Z" fill="white"/>
<path d="M268.089 221.282L267.461 220.921C267.409 220.869 267.252 220.869 267.147 220.921L266.363 221.385C266.311 221.437 266.311 221.488 266.363 221.488C266.363 221.488 266.363 221.488 266.415 221.54L265.421 222.16C265.265 222.263 265.526 222.418 265.683 222.314L266.677 221.695H266.729L265.735 222.314C265.526 222.418 265.84 222.573 265.997 222.469L266.99 221.85C267.043 221.85 267.043 221.901 267.043 221.901C267.095 221.953 267.2 221.953 267.252 221.901L268.036 221.437C268.193 221.385 268.193 221.334 268.089 221.282Z" fill="white"/>
<path d="M268.036 221.076C268.18 221.076 268.297 221.007 268.297 220.921C268.297 220.835 268.18 220.766 268.036 220.766C267.891 220.766 267.774 220.835 267.774 220.921C267.774 221.007 267.891 221.076 268.036 221.076Z" fill="white"/>
<path d="M228.34 185.607L249.313 198.049L228.34 210.491L207.368 198.049L228.34 185.607Z" fill="black"/>
<path d="M288.852 221.437L305.274 231.194L284.302 243.636L277.241 239.403L280.954 226.135L288.852 221.437Z" fill="#DAC452"/>
<path d="M313.432 191.803L291.257 204.916L320.44 222.211L349.31 205.123L323.003 189.48L316.256 193.507L313.432 191.803Z" fill="#DAC452"/>
<path d="M286.132 201.87L308.307 188.757L305.43 187.105L312.177 183.078L295.859 173.424L266.938 190.512L286.132 201.87Z" fill="#DAC452"/>
<path d="M252.608 171.256L273.58 183.698L250.83 197.172L229.857 184.73L252.608 171.256Z" fill="black"/>
<path d="M97.1206 229.438L107.476 235.582L86.5038 247.972L76.1484 241.881L97.1206 229.438Z" fill="black"/>
<path d="M111.973 249.625L123.113 256.233L111.764 262.944L100.624 256.336L111.973 249.625Z" fill="#C8A67C"/>
<path d="M124.474 257.059L138.229 265.216L126.88 271.927L113.125 263.77L124.474 257.059Z" fill="#C8A67C"/>
<path d="M122.852 243.171L113.229 248.902L139.483 264.441L165.842 248.85L135.456 230.833L118.72 240.745L122.852 243.171Z" fill="black"/>
<path d="M112.758 238.68L120.185 243.068L99.2127 255.51L91.7861 251.122L112.758 238.68Z" fill="black"/>
<path d="M104.861 250.347L108.052 248.489C108.365 248.282 108.365 247.972 108.052 247.818L104.861 245.907C104.548 245.701 104.025 245.701 103.711 245.907L100.521 247.766C100.207 247.972 100.207 248.282 100.521 248.437L103.711 250.347C104.025 250.502 104.495 250.554 104.861 250.347ZM104.286 250.089L100.887 248.076L104.234 246.062L107.633 248.076L104.286 250.089Z" fill="white"/>
<path d="M109.045 245.907C109.306 245.753 109.672 245.959 109.411 246.114L108.365 246.733L108.783 246.682C109.045 246.682 109.097 246.94 108.783 246.94L107.737 246.992C107.58 246.992 107.476 246.94 107.476 246.837L107.58 246.217C107.58 246.011 108.051 246.062 108.051 246.217L107.999 246.475L109.045 245.907Z" fill="white"/>
<path d="M106.116 245.907C105.855 246.062 106.221 246.269 106.482 246.114L107.528 245.494L107.476 245.752C107.476 245.907 107.895 245.959 107.947 245.752L108.051 245.133C108.051 245.03 107.947 244.978 107.79 244.978L106.744 245.03C106.43 245.03 106.482 245.288 106.744 245.288L107.162 245.236L106.116 245.907Z" fill="white"/>
<path d="M105.907 248.282L105.279 247.921C105.227 247.869 105.07 247.869 104.966 247.921L104.181 248.385C104.129 248.437 104.129 248.488 104.181 248.488C104.181 248.488 104.181 248.488 104.233 248.54L103.24 249.16C103.083 249.263 103.344 249.418 103.501 249.314L104.495 248.695H104.547L103.554 249.314C103.344 249.418 103.658 249.573 103.815 249.469L104.809 248.85C104.861 248.85 104.861 248.901 104.861 248.901C104.913 248.953 105.018 248.953 105.07 248.901L105.855 248.437C106.012 248.437 106.012 248.334 105.907 248.282Z" fill="white"/>
<path d="M105.907 248.075C106.051 248.075 106.169 248.006 106.169 247.92C106.169 247.835 106.051 247.766 105.907 247.766C105.763 247.766 105.646 247.835 105.646 247.92C105.646 248.006 105.763 248.075 105.907 248.075Z" fill="white"/>
<path d="M104.599 247.507L103.972 247.145C103.92 247.094 103.763 247.094 103.658 247.145L102.874 247.61C102.821 247.661 102.821 247.713 102.874 247.713C102.874 247.713 102.874 247.713 102.926 247.765L101.932 248.384C101.775 248.487 102.037 248.642 102.194 248.539L103.187 247.92H103.24L102.246 248.539C102.037 248.642 102.351 248.797 102.507 248.694L103.501 248.074C103.553 248.074 103.553 248.126 103.553 248.126C103.606 248.178 103.71 248.178 103.763 248.126L104.547 247.661C104.652 247.61 104.652 247.558 104.599 247.507Z" fill="white"/>
<path d="M104.547 247.301C104.691 247.301 104.808 247.232 104.808 247.147C104.808 247.061 104.691 246.992 104.547 246.992C104.402 246.992 104.285 247.061 104.285 247.147C104.285 247.232 104.402 247.301 104.547 247.301Z" fill="white"/>
<path d="M66.1071 235.943L87.1316 223.501L70.2388 213.538L88.2822 202.851L77.2993 196.397L59.3081 207.033L38.3359 219.475L66.1071 235.943Z" fill="black"/>
<path d="M106.221 213.486L121.807 222.727L105.071 232.64L89.4854 223.399L106.221 213.486Z" fill="black"/>
<path d="M42.6245 231.349L55.863 239.076L41.1145 247.801L27.876 240.074L42.6245 231.349Z" fill="#C8A67C"/>
<path d="M57.6745 240.074L70.913 247.801L56.1645 256.526L42.926 248.798L57.6745 240.074Z" fill="#C8A67C"/>
<path d="M66.0024 189.686L75.9916 195.571L37.0283 218.649L27.0391 212.763L66.0024 189.686Z" fill="black"/>
<path d="M25.8882 213.486L48.1156 226.651L26.6727 239.351L4.44531 226.186L25.8882 213.486Z" fill="black"/>
<path d="M280.117 202.077L294.395 210.543L286.707 215.087L272.429 206.62L280.117 202.077Z" fill="#FF0000"/>
<path d="M284.458 207.394C284.667 207.497 285.033 207.497 285.242 207.394C285.451 207.291 285.451 207.033 285.242 206.929C285.033 206.826 284.667 206.826 284.458 206.929C284.248 207.084 284.248 207.291 284.458 207.394Z" fill="white"/>
<path d="M287.544 208.788L286.603 208.22C286.393 208.117 286.08 208.014 285.818 208.014H284.145L284.406 207.859C284.929 207.549 284.145 207.084 283.622 207.394L282.628 208.014H281.163C281.007 208.014 281.007 208.014 280.902 207.91L280.431 207.652C279.961 207.394 279.281 207.446 278.967 207.652C278.601 207.859 278.444 208.272 278.967 208.582C278.967 208.582 279.594 208.943 279.751 209.046C279.961 209.149 280.222 209.253 280.588 209.253H285.295C285.4 209.253 285.452 209.253 285.504 209.304C285.504 209.304 285.818 209.511 286.08 209.666C286.341 209.821 287.073 209.872 287.544 209.614C287.962 209.408 287.858 208.995 287.544 208.788ZM286.393 209.459L285.923 209.149C285.713 209.046 285.609 208.995 285.347 208.995H280.64C280.431 208.995 280.274 208.943 280.117 208.84L279.333 208.375C279.124 208.272 279.124 208.065 279.333 207.91C279.542 207.756 279.856 207.807 280.013 207.91L280.536 208.22C280.693 208.323 280.85 208.323 281.007 208.323H285.818C286.027 208.323 286.132 208.375 286.289 208.478L287.126 208.943C287.335 209.046 287.23 209.253 287.126 209.356C286.969 209.511 286.655 209.614 286.393 209.459Z" fill="white"/>
<path d="M234.355 222.159L254.543 234.137L246.802 238.68L226.667 226.754L234.355 222.159Z" fill="black"/>
<path d="M241.624 229.284C241.833 229.388 242.199 229.388 242.408 229.284C242.617 229.181 242.617 228.923 242.408 228.82C242.199 228.716 241.833 228.716 241.624 228.82C241.414 228.923 241.414 229.129 241.624 229.284Z" fill="white"/>
<path d="M244.71 230.678L243.769 230.11C243.559 230.007 243.246 229.904 242.984 229.904H241.31L241.572 229.749C242.095 229.439 241.31 228.975 240.787 229.284L239.794 229.904H238.329C238.173 229.904 238.173 229.904 238.068 229.801L237.597 229.542C237.127 229.284 236.447 229.336 236.133 229.542C235.767 229.749 235.61 230.162 236.133 230.472C236.133 230.472 236.76 230.833 236.917 230.936C237.127 231.04 237.388 231.143 237.754 231.143H242.461C242.566 231.143 242.618 231.143 242.67 231.194C242.67 231.194 242.984 231.401 243.246 231.556C243.507 231.711 244.239 231.762 244.71 231.504C245.128 231.246 245.024 230.833 244.71 230.678ZM243.559 231.298L243.089 230.988C242.879 230.885 242.775 230.833 242.513 230.833H237.806C237.597 230.833 237.44 230.781 237.283 230.678L236.499 230.214C236.29 230.11 236.29 229.904 236.499 229.749C236.708 229.594 237.022 229.646 237.179 229.749L237.702 230.059C237.859 230.162 238.016 230.162 238.173 230.162H242.984C243.193 230.162 243.298 230.214 243.455 230.317L244.292 230.781C244.501 230.885 244.396 231.091 244.292 231.194C244.187 231.298 243.821 231.453 243.559 231.298Z" fill="white"/>
<path d="M76.8277 259.95L97.0154 271.876L89.3274 276.471L69.1396 264.493L76.8277 259.95Z" fill="black"/>
<path d="M84.1501 267.023C84.3593 267.126 84.7254 267.126 84.9346 267.023C85.1438 266.92 85.1438 266.662 84.9346 266.558C84.7254 266.455 84.3593 266.455 84.1501 266.558C83.9409 266.713 83.9409 266.92 84.1501 267.023Z" fill="white"/>
<path d="M87.2364 268.417L86.295 267.849C86.0858 267.746 85.772 267.643 85.5105 267.643H83.8369L84.0984 267.488C84.6214 267.178 83.8369 266.713 83.3139 267.023L82.3202 267.643H80.8558C80.6989 267.643 80.6989 267.643 80.5943 267.539L80.1236 267.281C79.6529 267.023 78.973 267.075 78.6592 267.281C78.2931 267.488 78.1362 267.901 78.6592 268.21C78.6592 268.21 79.2868 268.572 79.4437 268.675C79.6529 268.778 79.9144 268.882 80.2805 268.882H84.9875C85.0921 268.882 85.1444 268.882 85.1967 268.933C85.1967 268.933 85.5105 269.14 85.772 269.295C86.0335 269.45 86.7657 269.501 87.2364 269.243C87.6025 269.037 87.5502 268.623 87.2364 268.417ZM86.0335 269.088L85.5628 268.778C85.3536 268.675 85.249 268.623 84.9875 268.623H80.2805C80.0713 268.623 79.9144 268.572 79.7575 268.469L78.973 268.004C78.7638 267.901 78.7638 267.694 78.973 267.539C79.1822 267.384 79.496 267.436 79.6529 267.539L80.1759 267.849C80.3328 267.952 80.4897 267.952 80.6466 267.952H85.4582C85.6674 267.952 85.772 268.004 85.9289 268.107L86.7657 268.572C86.9749 268.675 86.8703 268.882 86.7657 268.985C86.6611 269.14 86.295 269.243 86.0335 269.088Z" fill="white"/>
<path d="M183.677 240.9L195.079 247.715L184.723 253.91L173.27 247.095L183.677 240.9Z" fill="black"/>
<path d="M183.625 250.296L186.815 248.438C187.129 248.231 187.129 247.922 186.815 247.767L183.625 245.857C183.311 245.65 182.788 245.65 182.474 245.857L179.284 247.715C178.97 247.922 178.97 248.231 179.284 248.386L182.474 250.296C182.788 250.451 183.311 250.503 183.625 250.296ZM183.05 250.038L179.65 248.025L182.997 246.011L186.397 248.025L183.05 250.038Z" fill="white"/>
<path d="M187.809 245.857C188.071 245.702 188.437 245.908 188.175 246.063L187.129 246.683L187.548 246.631C187.809 246.631 187.862 246.889 187.548 246.889L186.502 246.941C186.345 246.941 186.24 246.889 186.24 246.786L186.345 246.166C186.345 245.96 186.816 246.011 186.816 246.166L186.763 246.425L187.809 245.857Z" fill="white"/>
<path d="M184.933 245.857C184.671 246.011 185.037 246.218 185.299 246.063L186.345 245.444L186.293 245.702C186.293 245.857 186.711 245.908 186.763 245.702L186.868 245.082C186.868 244.979 186.763 244.927 186.606 244.927L185.56 244.979C185.247 244.979 185.299 245.237 185.56 245.237L185.979 245.185L184.933 245.857Z" fill="white"/>
<path d="M184.723 248.231L184.095 247.869C184.043 247.818 183.886 247.818 183.781 247.869L182.997 248.334C182.944 248.386 182.944 248.437 182.997 248.437C182.997 248.437 182.997 248.437 183.049 248.489L182.055 249.108C181.898 249.212 182.16 249.366 182.317 249.263L183.31 248.644H183.363L182.369 249.263C182.16 249.366 182.474 249.521 182.631 249.418L183.624 248.799C183.677 248.799 183.677 248.85 183.677 248.85C183.729 248.902 183.833 248.902 183.886 248.85L184.67 248.386C184.827 248.334 184.827 248.282 184.723 248.231Z" fill="white"/>
<path d="M184.67 248.025C184.814 248.025 184.931 247.955 184.931 247.87C184.931 247.784 184.814 247.715 184.67 247.715C184.525 247.715 184.408 247.784 184.408 247.87C184.408 247.955 184.525 248.025 184.67 248.025Z" fill="white"/>
<path d="M183.363 247.457L182.736 247.095C182.683 247.044 182.526 247.044 182.422 247.095L181.637 247.56C181.585 247.612 181.585 247.663 181.637 247.663C181.637 247.663 181.637 247.663 181.69 247.715L180.696 248.334C180.539 248.438 180.8 248.593 180.957 248.489L181.951 247.87H182.003L181.01 248.489C180.8 248.593 181.114 248.747 181.271 248.644L182.265 248.025C182.317 248.025 182.317 248.076 182.317 248.076C182.369 248.128 182.474 248.128 182.526 248.076L183.311 247.612C183.468 247.56 183.468 247.508 183.363 247.457Z" fill="white"/>
<path d="M183.363 247.25C183.508 247.25 183.625 247.181 183.625 247.095C183.625 247.01 183.508 246.94 183.363 246.94C183.219 246.94 183.102 247.01 183.102 247.095C183.102 247.181 183.219 247.25 183.363 247.25Z" fill="white"/>
<path d="M198.424 235.479L218.56 247.456L210.872 252L190.736 240.074L198.424 235.479Z" fill="black"/>
<path d="M205.695 242.604C205.904 242.707 206.27 242.707 206.479 242.604C206.689 242.5 206.689 242.242 206.479 242.139C206.27 242.036 205.904 242.036 205.695 242.139C205.486 242.242 205.486 242.449 205.695 242.604Z" fill="white"/>
<path d="M208.781 243.998L207.84 243.43C207.631 243.326 207.317 243.223 207.055 243.223H205.382L205.643 243.068C206.166 242.758 205.382 242.294 204.859 242.604L203.865 243.223H202.401C202.244 243.223 202.244 243.223 202.139 243.12L201.669 242.862C201.198 242.604 200.518 242.655 200.204 242.862C199.838 243.068 199.681 243.481 200.204 243.791C200.204 243.791 200.832 244.152 200.989 244.256C201.198 244.359 201.459 244.462 201.825 244.462H206.532C206.637 244.462 206.689 244.462 206.742 244.514C206.742 244.514 207.055 244.72 207.317 244.875C207.578 245.03 208.311 245.082 208.781 244.824C209.2 244.565 209.095 244.152 208.781 243.998ZM207.631 244.617L207.16 244.307C206.951 244.204 206.846 244.152 206.585 244.152H201.878C201.669 244.152 201.512 244.101 201.355 243.998L200.57 243.533C200.361 243.43 200.361 243.223 200.57 243.068C200.779 242.913 201.093 242.965 201.25 243.068L201.773 243.378C201.93 243.481 202.087 243.481 202.244 243.481H207.055C207.265 243.481 207.369 243.533 207.526 243.636L208.363 244.101C208.572 244.204 208.468 244.411 208.363 244.514C208.206 244.669 207.892 244.772 207.631 244.617Z" fill="white"/>
<path d="M199.033 231.711L198.267 231.257L197.502 231.712L188.54 237.039L163.449 222.16L251.457 170.005L274.751 183.801L275.515 184.253L276.279 183.801L295.755 172.276L351.074 205.02L252.555 263.421L199.033 231.711Z" stroke="black" stroke-width="3" stroke-miterlimit="10"/>
<path d="M2.94269 226.185L66.0025 188.797L167.345 248.85L104.286 286.188L2.94269 226.185Z" stroke="black" stroke-width="3" stroke-miterlimit="10"/>
<path opacity="0.9" d="M66 172.5L73.5 168L97.5 272L90 276.5L66 172.5Z" fill="url(#paint2_linear)"/>
<path opacity="0.9" d="M227 147L234.5 142.5L254.5 234L247 238.5L227 147Z" fill="url(#paint3_linear)"/>
<path opacity="0.9" d="M268 124L275.5 119.5L294.5 210.5L287 215L268 124Z" fill="url(#paint4_linear)"/>
<path opacity="0.9" d="M184.5 147.5L192 143L218.5 247.5L211 252L184.5 147.5Z" fill="url(#paint5_linear)"/>
<path d="M98.5413 196L162.277 157.778L178.045 167.257L194.935 157.115L179.167 147.687L190.853 140.705L258.874 181.475L354.452 124.193L297.401 90.0473L278.112 101.616L255.456 88.0088L217.796 110.586L181.004 88.776L151.407 106.511L102.164 76.7969L0.922852 137.494L98.5413 196Z" fill="white"/>
<path d="M226.726 108.139L272.142 135.354L251.679 147.636L206.264 120.421L226.726 108.139Z" fill="black"/>
<path d="M203.865 105.591L215.04 112.267L203.865 118.943L192.689 112.267L203.865 105.591Z" fill="black"/>
<path d="M207.495 112.191C207.699 112.344 208.056 112.344 208.312 112.191C208.516 112.038 208.516 111.834 208.312 111.732C208.107 111.579 207.75 111.579 207.495 111.732C207.24 111.834 207.24 112.038 207.495 112.191Z" fill="white"/>
<path d="M204.893 113.669L203.515 114.485C203.26 114.637 202.903 114.434 203.158 114.281L204.536 113.465L204.026 113.159L206.424 112.344L206.322 112.293L204.944 112.752C204.638 112.854 204.434 112.599 204.74 112.497L206.22 112.038C206.373 111.987 206.781 111.936 207.087 112.089L207.342 112.242L207.649 112.395C207.955 112.548 207.853 112.803 207.802 112.905L206.985 113.822C206.832 114.026 206.373 113.873 206.577 113.72L207.342 112.905L207.24 112.854L205.914 114.281L205.403 113.975L203.975 114.841C203.719 114.994 203.362 114.79 203.617 114.637L205.046 113.771L204.893 113.669Z" fill="white"/>
<path d="M204.38 110.168C204.074 110.015 203.615 110.015 203.36 110.168L202.135 110.932C201.88 111.085 202.237 111.289 202.492 111.136L203.615 110.474L203.717 110.525L200.553 112.41C200.247 112.614 200.706 112.869 201.012 112.665L202.849 111.544L202.951 111.595L201.114 112.716C200.808 112.92 201.268 113.175 201.574 112.971L204.737 111.085L204.84 111.136L203.717 111.799C203.462 111.952 203.819 112.155 204.074 112.003L205.299 111.238C205.554 111.085 205.605 110.779 205.299 110.627L204.38 110.168Z" fill="white"/>
<path d="M205.299 110.473C205.609 110.473 205.86 110.314 205.86 110.117C205.86 109.919 205.609 109.76 205.299 109.76C204.989 109.76 204.737 109.919 204.737 110.117C204.737 110.314 204.989 110.473 205.299 110.473Z" fill="white"/>
<path d="M65.73 101.056L76.9054 107.732L65.73 114.408L54.5547 107.732L65.73 101.056Z" fill="black"/>
<path d="M68.2861 107.073C68.4902 107.226 68.8474 107.226 69.1025 107.073C69.3067 106.92 69.3067 106.716 69.1025 106.614C68.8984 106.461 68.5412 106.461 68.2861 106.614C68.0309 106.716 68.0309 106.92 68.2861 107.073Z" fill="white"/>
<path d="M65.6841 108.551L64.3063 109.366C64.0512 109.519 63.694 109.315 63.9491 109.162L65.3269 108.347L64.8166 108.041L67.215 107.226L67.1129 107.175L65.7351 107.634C65.4289 107.736 65.2248 107.481 65.531 107.379L67.0108 106.92C67.1639 106.869 67.5722 106.818 67.8783 106.971L68.1335 107.124L68.4397 107.277C68.7458 107.43 68.6438 107.685 68.5927 107.786L67.7763 108.704C67.6232 108.908 67.1639 108.755 67.368 108.602L68.1335 107.786L68.0314 107.736L66.7047 109.162L66.1944 108.857L64.7656 109.723C64.5104 109.876 64.1532 109.672 64.4084 109.519L65.8372 108.653L65.6841 108.551Z" fill="white"/>
<path d="M65.1723 105.05C64.8661 104.897 64.4068 104.897 64.1517 105.05L62.927 105.814C62.6719 105.967 63.0291 106.171 63.2842 106.018L64.4068 105.356L64.5089 105.406L61.3451 107.292C61.0389 107.496 61.4982 107.751 61.8044 107.547L63.6414 106.426L63.7435 106.477L61.9064 107.598C61.6003 107.802 62.0595 108.057 62.3657 107.853L65.5295 105.967L65.6315 106.018L64.5089 106.681C64.2538 106.833 64.611 107.037 64.8661 106.884L66.0908 106.12C66.3459 105.967 66.397 105.661 66.0908 105.508L65.1723 105.05Z" fill="white"/>
<path d="M66.0906 105.355C66.4006 105.355 66.6519 105.195 66.6519 104.998C66.6519 104.801 66.4006 104.642 66.0906 104.642C65.7806 104.642 65.5293 104.801 65.5293 104.998C65.5293 105.195 65.7806 105.355 66.0906 105.355Z" fill="white"/>
<path d="M47.1042 112.166L105.124 146.922L84.6616 159.205L26.6416 124.448L47.1042 112.166Z" fill="black"/>
<path d="M106.196 147.584L113.442 151.916L92.9795 164.198L85.7334 159.867L106.196 147.584Z" fill="black"/>
<path d="M159.061 157.319L120.279 180.558L114.462 177.093L115.278 165.881L129.158 157.574L159.061 157.319Z" fill="#C8A67C"/>
<path d="M98.3879 159.154L101.501 157.319C101.807 157.115 101.807 156.81 101.501 156.657L98.3879 154.771C98.0817 154.567 97.5714 154.567 97.2652 154.771L94.1525 156.606C93.8463 156.81 93.8463 157.115 94.1525 157.268L97.2652 159.154C97.5714 159.358 98.0307 159.358 98.3879 159.154ZM97.8266 158.95L94.5097 156.962L97.7755 154.975L101.092 156.962L97.8266 158.95Z" fill="white"/>
<path d="M102.47 154.821C102.725 154.668 103.083 154.872 102.828 155.025L101.807 155.637L102.215 155.586C102.47 155.586 102.521 155.841 102.215 155.841L101.195 155.891C101.042 155.891 100.939 155.841 100.939 155.739L101.042 155.127C101.042 154.923 101.501 154.974 101.501 155.127L101.45 155.382L102.47 154.821Z" fill="white"/>
<path d="M99.6639 154.822C99.4088 154.975 99.766 155.178 100.021 155.025L101.042 154.414L100.991 154.669C100.991 154.822 101.399 154.873 101.45 154.669L101.552 154.057C101.552 153.955 101.45 153.904 101.297 153.904L100.276 153.955C99.9701 153.955 100.021 154.21 100.276 154.21L100.685 154.159L99.6639 154.822Z" fill="white"/>
<path d="M99.4602 157.113L98.8479 156.756C98.7968 156.706 98.6437 156.706 98.5417 156.756L97.7763 157.215C97.7252 157.266 97.7252 157.317 97.7763 157.317C97.7763 157.317 97.7763 157.317 97.8273 157.368L96.8578 157.98C96.7047 158.082 96.9598 158.234 97.1129 158.132L98.0824 157.521H98.1335L97.1639 158.132C96.9598 158.234 97.266 158.387 97.4191 158.285L98.3886 157.674C98.4396 157.674 98.4396 157.725 98.4396 157.725C98.4907 157.776 98.5927 157.776 98.6438 157.725L99.4092 157.266C99.5112 157.266 99.5112 157.164 99.4602 157.113Z" fill="white"/>
<path d="M99.4094 156.962C99.5504 156.962 99.6646 156.893 99.6646 156.809C99.6646 156.724 99.5504 156.656 99.4094 156.656C99.2685 156.656 99.1543 156.724 99.1543 156.809C99.1543 156.893 99.2685 156.962 99.4094 156.962Z" fill="white"/>
<path d="M98.1331 156.351L97.5207 155.994C97.4697 155.943 97.3166 155.943 97.2146 155.994L96.4491 156.452C96.3981 156.503 96.3981 156.554 96.4491 156.554C96.4491 156.554 96.4491 156.554 96.5001 156.605L95.5306 157.217C95.3775 157.319 95.6327 157.472 95.7857 157.37L96.7553 156.758H96.8063L95.8368 157.37C95.6327 157.472 95.9388 157.625 96.0919 157.523L97.0615 156.911C97.1125 156.911 97.1125 156.962 97.1125 156.962C97.1635 157.013 97.2656 157.013 97.3166 156.962L98.082 156.503C98.2351 156.503 98.2351 156.401 98.1331 156.351Z" fill="white"/>
<path d="M98.0823 156.197C98.2232 156.197 98.3374 156.129 98.3374 156.044C98.3374 155.96 98.2232 155.892 98.0823 155.892C97.9414 155.892 97.8271 155.96 97.8271 156.044C97.8271 156.129 97.9414 156.197 98.0823 156.197Z" fill="white"/>
<path d="M178.708 150.439L189.883 157.115L178.249 164.097L167.073 157.37L178.708 150.439Z" fill="black"/>
<path d="M177.943 160.122L181.055 158.287C181.361 158.084 181.361 157.778 181.055 157.625L177.943 155.739C177.636 155.535 177.126 155.535 176.82 155.739L173.707 157.574C173.401 157.778 173.401 158.084 173.707 158.237L176.82 160.122C177.126 160.275 177.636 160.326 177.943 160.122ZM177.381 159.867L174.064 157.88L177.33 155.892L180.647 157.88L177.381 159.867Z" fill="white"/>
<path d="M182.025 155.739C182.28 155.586 182.637 155.79 182.382 155.943L181.362 156.555L181.77 156.504C182.025 156.504 182.076 156.758 181.77 156.758L180.749 156.809C180.596 156.809 180.494 156.758 180.494 156.657L180.596 156.045C180.596 155.841 181.055 155.892 181.055 156.045L181.004 156.3L182.025 155.739Z" fill="white"/>
<path d="M179.219 155.79C178.963 155.943 179.321 156.147 179.576 155.994L180.596 155.382L180.545 155.637C180.545 155.79 180.954 155.841 181.005 155.637L181.107 155.025C181.107 154.924 181.005 154.873 180.852 154.873L179.831 154.924C179.525 154.924 179.576 155.178 179.831 155.178L180.239 155.127L179.219 155.79Z" fill="white"/>
<path d="M179.015 158.084L178.403 157.727C178.352 157.676 178.198 157.676 178.096 157.727L177.331 158.186C177.28 158.237 177.28 158.288 177.331 158.288C177.331 158.288 177.331 158.288 177.382 158.339L176.412 158.95C176.259 159.052 176.514 159.205 176.668 159.103L177.637 158.492H177.688L176.719 159.103C176.515 159.205 176.821 159.358 176.974 159.256L177.943 158.645C177.994 158.645 177.994 158.695 177.994 158.695C178.045 158.746 178.147 158.746 178.198 158.695L178.964 158.237C179.066 158.237 179.066 158.135 179.015 158.084Z" fill="white"/>
<path d="M178.964 157.931C179.105 157.931 179.219 157.862 179.219 157.778C179.219 157.693 179.105 157.625 178.964 157.625C178.823 157.625 178.709 157.693 178.709 157.778C178.709 157.862 178.823 157.931 178.964 157.931Z" fill="white"/>
<path d="M177.688 157.319L177.075 156.963C177.024 156.912 176.871 156.912 176.769 156.963L176.004 157.421C175.953 157.472 175.953 157.523 176.004 157.523C176.004 157.523 176.004 157.523 176.055 157.574L175.085 158.186C174.932 158.288 175.187 158.44 175.34 158.339L176.31 157.727H176.361L175.391 158.339C175.187 158.44 175.494 158.593 175.647 158.491L176.616 157.88C176.667 157.88 176.667 157.931 176.667 157.931C176.718 157.982 176.82 157.982 176.871 157.931L177.637 157.472C177.79 157.421 177.79 157.37 177.688 157.319Z" fill="white"/>
<path d="M177.637 157.115C177.778 157.115 177.892 157.047 177.892 156.962C177.892 156.878 177.778 156.81 177.637 156.81C177.496 156.81 177.382 156.878 177.382 156.962C177.382 157.047 177.496 157.115 177.637 157.115Z" fill="white"/>
<path d="M99.2557 120.625L115.993 130.665L104.41 137.596L87.6211 127.556L99.2557 120.625Z" fill="black"/>
<path d="M86.1407 111.044L73.0773 118.842L86.3959 126.792L99.4593 118.995L117.421 129.799L152.019 109.057L102.164 79.1924L67.6172 99.9344L86.1407 111.044Z" fill="black"/>
<path d="M101.297 131.99L104.41 130.155C104.716 129.951 104.716 129.646 104.41 129.493L101.297 127.607C100.991 127.403 100.481 127.403 100.174 127.607L97.0617 129.442C96.7555 129.646 96.7555 129.951 97.0617 130.104L100.174 131.99C100.481 132.194 100.991 132.194 101.297 131.99ZM100.736 131.786L97.4189 129.798L100.685 127.811L104.002 129.798L100.736 131.786Z" fill="white"/>
<path d="M105.379 127.607C105.635 127.454 105.992 127.658 105.737 127.811L104.716 128.422L105.124 128.371C105.379 128.371 105.431 128.626 105.124 128.626L104.104 128.677C103.951 128.677 103.849 128.626 103.849 128.524L103.951 127.913C103.951 127.709 104.41 127.76 104.41 127.913L104.359 128.167L105.379 127.607Z" fill="white"/>
<path d="M102.573 127.658C102.318 127.811 102.675 128.015 102.93 127.862L103.951 127.25L103.9 127.505C103.9 127.658 104.308 127.709 104.359 127.505L104.461 126.894C104.461 126.792 104.359 126.741 104.206 126.741L103.185 126.792C102.879 126.792 102.93 127.047 103.185 127.047L103.594 126.996L102.573 127.658Z" fill="white"/>
<path d="M102.368 129.952L101.756 129.595C101.705 129.544 101.552 129.544 101.45 129.595L100.684 130.054C100.633 130.104 100.633 130.155 100.684 130.155C100.684 130.155 100.684 130.155 100.736 130.206L99.766 130.818C99.6129 130.92 99.868 131.073 100.021 130.971L100.991 130.359H101.042L100.072 130.971C99.868 131.073 100.174 131.226 100.327 131.124L101.297 130.512C101.348 130.512 101.348 130.563 101.348 130.563C101.399 130.614 101.501 130.614 101.552 130.563L102.317 130.104C102.47 130.104 102.47 130.003 102.368 129.952Z" fill="white"/>
<path d="M102.318 129.798C102.459 129.798 102.573 129.73 102.573 129.646C102.573 129.561 102.459 129.493 102.318 129.493C102.177 129.493 102.062 129.561 102.062 129.646C102.062 129.73 102.177 129.798 102.318 129.798Z" fill="white"/>
<path d="M101.042 129.186L100.43 128.829C100.379 128.778 100.226 128.778 100.124 128.829L99.3583 129.288C99.3073 129.339 99.3073 129.39 99.3583 129.39C99.3583 129.39 99.3583 129.39 99.4093 129.441L98.4398 130.052C98.2867 130.154 98.5418 130.307 98.6949 130.205L99.6645 129.594H99.7155L98.746 130.205C98.5418 130.307 98.848 130.46 99.0011 130.358L99.9707 129.747C100.022 129.747 100.022 129.798 100.022 129.798C100.073 129.849 100.175 129.849 100.226 129.798L100.991 129.339C101.144 129.288 101.144 129.237 101.042 129.186Z" fill="white"/>
<path d="M100.991 128.983C101.132 128.983 101.247 128.915 101.247 128.83C101.247 128.746 101.132 128.677 100.991 128.677C100.851 128.677 100.736 128.746 100.736 128.83C100.736 128.915 100.851 128.983 100.991 128.983Z" fill="white"/>
<path d="M255.455 90.9136L275.714 103.043L253.465 116.344L233.258 104.266L255.455 90.9136Z" fill="black"/>
<path d="M273.265 136.017L280.511 140.348L260.048 152.631L252.751 148.299L273.265 136.017Z" fill="black"/>
<path d="M265.406 147.586L268.519 145.751C268.825 145.547 268.825 145.241 268.519 145.088L265.406 143.203C265.1 142.999 264.59 142.999 264.284 143.203L261.171 145.037C260.865 145.241 260.865 145.547 261.171 145.7L264.284 147.586C264.59 147.789 265.1 147.789 265.406 147.586ZM264.845 147.331L261.528 145.343L264.794 143.356L268.111 145.343L264.845 147.331Z" fill="white"/>
<path d="M269.489 143.202C269.744 143.049 270.101 143.253 269.846 143.406L268.825 144.018L269.234 143.967C269.489 143.967 269.54 144.221 269.234 144.221L268.213 144.272C268.06 144.272 267.958 144.221 267.958 144.119L268.06 143.508C268.06 143.304 268.519 143.355 268.519 143.508L268.468 143.763L269.489 143.202Z" fill="white"/>
<path d="M266.683 143.253C266.427 143.406 266.785 143.61 267.04 143.457L268.06 142.846L268.009 143.1C268.009 143.253 268.417 143.304 268.468 143.1L268.571 142.489C268.571 142.387 268.468 142.336 268.315 142.336L267.295 142.387C266.989 142.387 267.04 142.642 267.295 142.642L267.703 142.591L266.683 143.253Z" fill="white"/>
<path d="M266.479 145.546L265.866 145.189C265.815 145.138 265.662 145.138 265.56 145.189L264.795 145.648C264.744 145.699 264.744 145.75 264.795 145.75C264.795 145.75 264.795 145.75 264.846 145.801L263.876 146.412C263.723 146.514 263.978 146.667 264.131 146.565L265.101 145.954H265.152L264.182 146.565C263.978 146.667 264.285 146.82 264.438 146.718L265.407 146.106C265.458 146.106 265.458 146.157 265.458 146.157C265.509 146.208 265.611 146.208 265.662 146.157L266.428 145.699C266.581 145.699 266.581 145.597 266.479 145.546Z" fill="white"/>
<path d="M266.428 145.394C266.569 145.394 266.683 145.325 266.683 145.241C266.683 145.156 266.569 145.088 266.428 145.088C266.287 145.088 266.173 145.156 266.173 145.241C266.173 145.325 266.287 145.394 266.428 145.394Z" fill="white"/>
<path d="M265.152 144.782L264.539 144.425C264.488 144.374 264.335 144.374 264.233 144.425L263.468 144.884C263.417 144.935 263.417 144.986 263.468 144.986C263.468 144.986 263.468 144.986 263.519 145.037L262.549 145.649C262.396 145.75 262.651 145.903 262.804 145.801L263.774 145.19H263.825L262.855 145.801C262.651 145.903 262.957 146.056 263.11 145.954L264.08 145.343C264.131 145.343 264.131 145.394 264.131 145.394C264.182 145.445 264.284 145.445 264.335 145.394L265.101 144.935C265.254 144.884 265.254 144.833 265.152 144.782Z" fill="white"/>
<path d="M265.152 144.578C265.293 144.578 265.407 144.51 265.407 144.425C265.407 144.341 265.293 144.272 265.152 144.272C265.011 144.272 264.896 144.341 264.896 144.425C264.896 144.51 265.011 144.578 265.152 144.578Z" fill="white"/>
<path d="M236.116 143.355L255.813 155.128L248.312 159.612L228.614 147.84L236.116 143.355Z" fill="black"/>
<path d="M229.431 160.938L259.283 178.826L280.46 166.136L264.028 156.3L251.934 163.537L238.514 155.536L229.431 160.938Z" fill="black"/>
<path d="M299.069 135.164L315.5 145L281.532 165.524L265.101 155.637L299.069 135.164Z" fill="#DAC452"/>
<path d="M327.547 109.76L351.939 124.437L323.159 141.663L298.716 127.036L327.547 109.76Z" fill="#DAC452"/>
<path d="M292.866 123.294L307.409 114.579L311.491 117.076L325.779 108.514L298.887 92.3589L270.056 109.635L292.866 123.294Z" fill="#DAC452"/>
<path d="M243.26 150.337C243.464 150.439 243.821 150.439 244.025 150.337C244.229 150.235 244.229 149.98 244.025 149.878C243.821 149.776 243.464 149.776 243.26 149.878C243.055 149.98 243.055 150.184 243.26 150.337Z" fill="white"/>
<path d="M246.27 151.713L245.351 151.153C245.147 151.051 244.841 150.949 244.586 150.949H242.953L243.208 150.796C243.718 150.49 242.953 150.031 242.443 150.337L241.473 150.949H240.044C239.891 150.949 239.891 150.949 239.789 150.847L239.33 150.592C238.871 150.337 238.207 150.388 237.901 150.592C237.544 150.796 237.391 151.204 237.901 151.509C237.901 151.509 238.513 151.866 238.666 151.968C238.871 152.07 239.126 152.172 239.483 152.172H244.076C244.178 152.172 244.229 152.172 244.28 152.223C244.28 152.223 244.586 152.427 244.841 152.58C245.096 152.732 245.811 152.783 246.27 152.529C246.678 152.325 246.576 151.917 246.27 151.713ZM245.147 152.376L244.688 152.07C244.484 151.968 244.382 151.917 244.127 151.917H239.534C239.33 151.917 239.177 151.866 239.024 151.764L238.258 151.305C238.054 151.204 238.054 151 238.258 150.847C238.462 150.694 238.769 150.745 238.922 150.847L239.432 151.153C239.585 151.255 239.738 151.255 239.891 151.255H244.586C244.79 151.255 244.892 151.305 245.045 151.407L245.862 151.866C246.066 151.968 245.964 152.172 245.862 152.274C245.759 152.376 245.351 152.478 245.147 152.376Z" fill="white"/>
<path d="M71.6487 168.276L91.3459 180.099L83.8447 184.584L64.1475 172.812L71.6487 168.276Z" fill="black"/>
<path d="M78.7927 175.309C78.9968 175.411 79.3541 175.411 79.5582 175.309C79.7623 175.207 79.7623 174.952 79.5582 174.85C79.3541 174.748 78.9968 174.748 78.7927 174.85C78.5886 174.952 78.5886 175.156 78.7927 175.309Z" fill="white"/>
<path d="M81.8036 176.685L80.8851 176.125C80.681 176.023 80.3748 175.921 80.1196 175.921H78.4867L78.7419 175.768C79.2522 175.462 78.4867 175.004 77.9764 175.309L77.0069 175.921H75.5781C75.425 175.921 75.425 175.921 75.3229 175.819L74.8637 175.564C74.4044 175.309 73.741 175.36 73.4348 175.564C73.1287 175.768 72.9246 176.176 73.4348 176.481C73.4348 176.481 74.0472 176.838 74.2003 176.94C74.4044 177.042 74.6595 177.144 75.0167 177.144H79.6094C79.7114 177.144 79.7624 177.144 79.8135 177.195C79.8135 177.195 80.1196 177.399 80.3748 177.552C80.6299 177.705 81.3443 177.756 81.8036 177.501C82.1608 177.246 82.1098 176.838 81.8036 176.685ZM80.681 177.297L80.2217 176.991C80.0176 176.889 79.9155 176.838 79.6604 176.838H75.0678C74.8637 176.838 74.7106 176.787 74.5575 176.685L73.792 176.227C73.5879 176.125 73.5879 175.921 73.792 175.768C73.9962 175.615 74.3023 175.666 74.4554 175.768L74.9657 176.074C75.1188 176.176 75.2719 176.176 75.425 176.176H80.1196C80.3238 176.176 80.4258 176.227 80.5789 176.329L81.3954 176.787C81.5995 176.889 81.4974 177.093 81.3954 177.195C81.2423 177.348 80.8851 177.45 80.681 177.297Z" fill="white"/>
<path d="M191.627 143.538L211.273 155.31L203.771 159.795L184.074 148.022L191.627 143.538Z" fill="black"/>
<path d="M198.719 150.52C198.924 150.622 199.281 150.622 199.485 150.52C199.689 150.418 199.689 150.163 199.485 150.061C199.281 149.959 198.924 149.959 198.719 150.061C198.515 150.163 198.515 150.367 198.719 150.52Z" fill="white"/>
<path d="M201.73 151.896L200.812 151.336C200.608 151.234 200.302 151.132 200.046 151.132H198.413L198.669 150.979C199.179 150.673 198.413 150.214 197.903 150.52L196.934 151.132H195.505C195.352 151.132 195.352 151.132 195.25 151.03L194.79 150.775C194.331 150.52 193.668 150.571 193.362 150.775C193.055 150.979 192.851 151.387 193.362 151.692C193.362 151.692 193.974 152.049 194.127 152.151C194.331 152.253 194.586 152.355 194.944 152.355H199.536C199.638 152.355 199.689 152.355 199.74 152.406C199.74 152.406 200.046 152.61 200.302 152.763C200.557 152.916 201.271 152.967 201.73 152.712C202.139 152.508 202.037 152.1 201.73 151.896ZM200.608 152.559L200.148 152.253C199.944 152.151 199.842 152.1 199.587 152.1H194.995C194.79 152.1 194.637 152.049 194.484 151.947L193.719 151.489C193.515 151.387 193.515 151.183 193.719 151.03C193.923 150.877 194.229 150.928 194.382 151.03L194.892 151.336C195.046 151.438 195.199 151.438 195.352 151.438H200.046C200.251 151.438 200.353 151.489 200.506 151.591L201.322 152.049C201.526 152.151 201.424 152.355 201.322 152.457C201.169 152.61 200.812 152.661 200.608 152.559Z" fill="white"/>
<path d="M274.846 120.116L294.543 131.94L287.042 136.424L267.345 124.652L274.846 120.116Z" fill="#FF0000"/>
<path d="M281.991 127.149C282.195 127.251 282.552 127.251 282.756 127.149C282.96 127.047 282.96 126.792 282.756 126.69C282.552 126.588 282.195 126.588 281.991 126.69C281.787 126.792 281.787 126.996 281.991 127.149Z" fill="white"/>
<path d="M285.001 128.525L284.083 127.965C283.879 127.863 283.572 127.761 283.317 127.761H281.684L281.939 127.608C282.45 127.302 281.684 126.843 281.174 127.149L280.205 127.761H278.776C278.623 127.761 278.623 127.761 278.521 127.659L278.061 127.404C277.602 127.149 276.939 127.2 276.632 127.404C276.275 127.608 276.122 128.016 276.632 128.321C276.632 128.321 277.245 128.678 277.398 128.78C277.602 128.882 277.857 128.984 278.214 128.984H282.807C282.909 128.984 282.96 128.984 283.011 129.035C283.011 129.035 283.317 129.239 283.572 129.392C283.828 129.544 284.542 129.595 285.001 129.341C285.409 129.086 285.307 128.678 285.001 128.525ZM283.879 129.137L283.419 128.831C283.215 128.729 283.113 128.678 282.858 128.678H278.265C278.061 128.678 277.908 128.627 277.755 128.525L276.99 128.067C276.786 127.965 276.786 127.761 276.99 127.608C277.194 127.455 277.5 127.506 277.653 127.608L278.163 127.914C278.316 128.016 278.47 128.016 278.623 128.016H283.317C283.521 128.016 283.623 128.067 283.777 128.168L284.593 128.627C284.797 128.729 284.695 128.933 284.593 129.035C284.491 129.137 284.083 129.29 283.879 129.137Z" fill="white"/>
<path d="M153.602 110.025L178.81 125.11L168.91 131.073L143.702 115.988L153.602 110.025Z" fill="#C8A67C"/>
<path d="M126.301 126.384L151.509 141.52L144.263 145.852L119.055 130.767L126.301 126.384Z" fill="#C8A67C"/>
<path d="M143.549 127.658L159.062 136.984L152.939 140.654L137.426 131.328L143.549 127.658Z" fill="#C8A67C"/>
<path d="M117.626 131.633L142.834 146.718L141.609 147.432L120.892 147.483L105.991 138.564L117.626 131.633Z" fill="#C8A67C"/>
<path d="M158.144 107.324L183.097 109.669L189.169 118.944L180.29 124.295L155.082 109.159L158.144 107.324Z" fill="#C8A67C"/>
<path d="M135.895 130.41L143.498 125.875L160.542 136.118L167.482 131.939L142.274 116.854L127.73 125.518L135.895 130.41Z" fill="#C8A67C"/>
<path d="M3.84036 137.494L102.165 78.5457L150.124 107.286L150.895 107.748L151.666 107.286L180.493 90.0126L217.026 111.873L217.797 112.334L218.567 111.872L255.455 89.7581L277.34 102.902L278.112 103.365L278.884 102.902L297.402 91.7959L351.533 124.194L258.875 179.727L191.624 139.418L190.854 138.957L190.083 139.417L178.398 146.399L176.243 147.686L178.397 148.974L192.017 157.118L178.045 165.507L163.049 156.492L162.277 156.028L161.505 156.491L98.5411 194.251L3.84036 137.494Z" stroke="black" stroke-width="3" stroke-miterlimit="10"/>
<path opacity="0.9" d="M177 54.5L184.5 50L211 155.5L203.5 160L177 54.5Z" fill="url(#paint6_linear)"/>
<path opacity="0.9" d="M268 45.5L275.5 41L294.5 132L287 136.5L268 45.5Z" fill="url(#paint7_linear)"/>
<path opacity="0.8" d="M119 18L101 29L112 35.5L123 28.5C123 28.5 144.5 35 173 32C201.5 29 216.5 16 216.5 16L223 20L232 14L215.5 4.5C215.5 4.5 201 19.5 171 23C141 26.5 119 18 119 18Z" fill="#C4C4C4"/>
<path d="M295.659 14.1291L285.471 20.2002L252.387 0.416992L198.191 32.8656L205.753 37.4189L187.636 48.2525L271.764 98.5478L354.318 49.1946L295.659 14.1291Z" fill="white"/>
<path d="M99.8836 111.213L0.578125 51.8114L71.3681 9.47119L170.674 68.8731L99.8836 111.213Z" fill="white"/>
<path d="M259.581 58.6671L252.124 54.1662L266.461 45.583L273.918 50.0316L259.581 58.6671Z" fill="black"/>
<path d="M232.746 42.6001L225.289 38.1515L239.678 29.5684L247.135 34.017L232.746 42.6001Z" fill="black"/>
<path d="M79.0352 67.3556L71.5781 62.8547L85.9147 54.2715L93.3718 58.7201L79.0352 67.3556Z" fill="black"/>
<path d="M45.1632 47.1012L37.7061 42.6526L52.0951 34.0171L59.5522 38.4657L45.1632 47.1012Z" fill="black"/>
<path d="M49.2593 39.6695C48.9442 39.5125 48.4716 39.5125 48.209 39.6695L46.9487 40.4022C46.6861 40.5592 47.0537 40.7686 47.3163 40.6116L48.4716 39.9312L48.5766 39.9835L45.3207 41.92C45.0056 42.1293 45.4782 42.391 45.7933 42.1817L47.6839 41.0303L47.7889 41.0826L45.8984 42.234C45.5833 42.4434 46.0559 42.705 46.371 42.4957L49.6269 40.5592L49.7319 40.6116L48.5766 41.2919C48.314 41.449 48.6816 41.6583 48.9442 41.5013L50.2046 40.7162C50.4671 40.5592 50.5197 40.2452 50.2046 40.0882L49.2593 39.6695Z" fill="white"/>
<path d="M50.2574 39.9837C50.5764 39.9837 50.835 39.8197 50.835 39.6173C50.835 39.415 50.5764 39.251 50.2574 39.251C49.9383 39.251 49.6797 39.415 49.6797 39.6173C49.6797 39.8197 49.9383 39.9837 50.2574 39.9837Z" fill="white"/>
<path d="M91.3233 82.6896L83.8662 78.241L104.925 65.6279L112.382 70.0765L91.3233 82.6896Z" fill="black"/>
<path d="M98.2552 76.6711L101.459 74.787C101.774 74.5777 101.774 74.2637 101.459 74.1066L98.2552 72.1702C97.9401 71.9608 97.415 71.9608 97.0999 72.1702L93.8965 74.0543C93.5814 74.2637 93.5814 74.5777 93.8965 74.7347L97.0999 76.6711C97.415 76.8805 97.9401 76.8805 98.2552 76.6711ZM97.6775 76.4618L94.2641 74.4207L97.625 72.3795L101.038 74.4207L97.6775 76.4618Z" fill="white"/>
<path d="M102.456 72.1699C102.719 72.0129 103.086 72.2222 102.824 72.3792L101.774 73.0073L102.194 72.9549C102.456 72.9549 102.509 73.2166 102.194 73.2166L101.143 73.2689C100.986 73.2689 100.881 73.2166 100.881 73.1119L100.986 72.4839C100.986 72.2745 101.459 72.3269 101.459 72.4839L101.406 72.7456L102.456 72.1699Z" fill="white"/>
<path d="M99.5679 72.2223C99.3053 72.3793 99.6729 72.5887 99.9355 72.4317L100.986 71.8036L100.933 72.0653C100.933 72.2223 101.353 72.2747 101.406 72.0653L101.511 71.4373C101.511 71.3326 101.406 71.2803 101.248 71.2803L100.198 71.3326C99.883 71.3326 99.9355 71.5943 100.198 71.5943L100.618 71.542L99.5679 72.2223Z" fill="white"/>
<path d="M99.3587 74.5765L98.7285 74.2102C98.676 74.1578 98.5184 74.1578 98.4134 74.2102L97.6257 74.6812C97.5732 74.7335 97.5732 74.7859 97.6257 74.7859C97.6257 74.7859 97.6257 74.7859 97.6782 74.8382L96.6804 75.4662C96.5229 75.5709 96.7854 75.7279 96.943 75.6232L97.9408 74.9952H97.9933L96.9955 75.6232C96.7854 75.7279 97.1005 75.8849 97.2581 75.7803L98.2559 75.1522C98.3084 75.1522 98.3084 75.2045 98.3084 75.2045C98.3609 75.2569 98.4659 75.2569 98.5184 75.2045L99.3062 74.7335C99.4637 74.7335 99.4637 74.6288 99.3587 74.5765Z" fill="white"/>
<path d="M99.3055 74.4205C99.4506 74.4205 99.5681 74.3502 99.5681 74.2635C99.5681 74.1767 99.4506 74.1064 99.3055 74.1064C99.1605 74.1064 99.043 74.1767 99.043 74.2635C99.043 74.3502 99.1605 74.4205 99.3055 74.4205Z" fill="white"/>
<path d="M98.0452 73.7923L97.415 73.426C97.3625 73.3736 97.2049 73.3736 97.0999 73.426L96.3122 73.897C96.2597 73.9493 96.2597 74.0017 96.3122 74.0017C96.3122 74.0017 96.3122 74.0017 96.3647 74.054L95.3669 74.6821C95.2094 74.7867 95.472 74.9437 95.6295 74.8391L96.6273 74.211H96.6798L95.682 74.8391C95.472 74.9437 95.787 75.1007 95.9446 74.9961L96.9424 74.368C96.9949 74.368 96.9949 74.4204 96.9949 74.4204C97.0474 74.4727 97.1524 74.4727 97.2049 74.4204L97.9927 73.9493C98.0977 73.9493 98.0977 73.8447 98.0452 73.7923Z" fill="white"/>
<path d="M97.9921 73.5831C98.1371 73.5831 98.2546 73.5128 98.2546 73.4261C98.2546 73.3393 98.1371 73.269 97.9921 73.269C97.8471 73.269 97.7295 73.3393 97.7295 73.4261C97.7295 73.5128 97.8471 73.5831 97.9921 73.5831Z" fill="white"/>
<path d="M83.7611 60.1327C83.9711 60.2898 84.3387 60.2898 84.6013 60.1327C84.8114 59.9757 84.8114 59.7664 84.6013 59.6617C84.3913 59.5047 84.0236 59.5047 83.7611 59.6617C83.551 59.7664 83.551 60.0281 83.7611 60.1327Z" fill="white"/>
<path d="M81.0829 61.6504L79.665 62.4878C79.4024 62.6448 79.0348 62.4355 79.2974 62.2785L80.7153 61.4411L80.1901 61.1271L82.6583 60.2897L82.5533 60.2374L81.1354 60.7084C80.8203 60.8131 80.6102 60.5514 80.9253 60.4467L82.4482 59.9757C82.6058 59.9233 83.0259 59.871 83.341 60.028L83.6036 60.185L83.9187 60.342C84.2337 60.499 84.1287 60.7607 84.0762 60.8654L83.236 61.8075C83.0784 62.0168 82.6058 61.8598 82.8158 61.7028L83.6036 60.8654L83.4985 60.8131L82.1332 62.2785L81.608 61.9645L80.1376 62.8542C79.875 63.0112 79.5074 62.8019 79.77 62.6448L81.2404 61.7551L81.0829 61.6504Z" fill="white"/>
<path d="M172.827 84.4695L161.326 77.5611L173.247 70.4434L184.748 77.2994L172.827 84.4695Z" fill="black"/>
<path d="M172.512 80.387L175.715 78.5028C176.031 78.2935 176.031 77.9795 175.715 77.8225L172.512 75.886C172.197 75.6767 171.672 75.6767 171.357 75.886L168.153 77.7701C167.838 77.9795 167.838 78.2935 168.153 78.4505L171.357 80.387C171.672 80.544 172.144 80.5963 172.512 80.387ZM171.934 80.1253L168.521 78.0841L171.882 76.043L175.295 78.0841L171.934 80.1253Z" fill="white"/>
<path d="M176.714 75.8857C176.977 75.7287 177.344 75.938 177.082 76.095L176.031 76.7231L176.452 76.6708C176.714 76.6708 176.767 76.9324 176.452 76.9324L175.401 76.9848C175.244 76.9848 175.139 76.9324 175.139 76.8278L175.244 76.1997C175.244 75.9904 175.716 76.0427 175.716 76.1997L175.664 76.4614L176.714 75.8857Z" fill="white"/>
<path d="M173.773 75.9382C173.51 76.0952 173.878 76.3045 174.141 76.1475L175.191 75.5195L175.138 75.7812C175.138 75.9382 175.558 75.9905 175.611 75.7812L175.716 75.1531C175.716 75.0484 175.611 74.9961 175.453 74.9961L174.403 75.0484C174.088 75.0484 174.141 75.3101 174.403 75.3101L174.823 75.2578L173.773 75.9382Z" fill="white"/>
<path d="M173.563 78.2923L172.933 77.926C172.88 77.8736 172.723 77.8736 172.618 77.926L171.83 78.397C171.777 78.4493 171.777 78.5017 171.83 78.5017C171.83 78.5017 171.83 78.5017 171.882 78.554L170.885 79.1821C170.727 79.2867 170.99 79.4437 171.147 79.3391L172.145 78.711H172.197L171.2 79.3391C170.99 79.4437 171.305 79.6007 171.462 79.4961L172.46 78.868C172.513 78.868 172.513 78.9204 172.513 78.9204C172.565 78.9727 172.67 78.9727 172.723 78.9204L173.51 78.4493C173.668 78.4493 173.668 78.3447 173.563 78.2923Z" fill="white"/>
<path d="M173.511 78.1363C173.656 78.1363 173.773 78.066 173.773 77.9793C173.773 77.8926 173.656 77.8223 173.511 77.8223C173.366 77.8223 173.248 77.8926 173.248 77.9793C173.248 78.066 173.366 78.1363 173.511 78.1363Z" fill="white"/>
<path d="M172.249 77.5081L171.619 77.1418C171.567 77.0895 171.409 77.0895 171.304 77.1418L170.516 77.6128C170.464 77.6652 170.464 77.7175 170.516 77.7175C170.516 77.7175 170.516 77.7175 170.569 77.7698L169.571 78.3979C169.413 78.5025 169.676 78.6595 169.834 78.5549L170.831 77.9268H170.884L169.886 78.5549C169.676 78.6595 169.991 78.8166 170.149 78.7119L171.146 78.0838C171.199 78.0838 171.199 78.1362 171.199 78.1362C171.251 78.1885 171.357 78.1885 171.409 78.1362L172.197 77.6652C172.302 77.6128 172.302 77.5605 172.249 77.5081Z" fill="white"/>
<path d="M172.196 77.2989C172.341 77.2989 172.459 77.2286 172.459 77.1419C172.459 77.0552 172.341 76.9849 172.196 76.9849C172.051 76.9849 171.934 77.0552 171.934 77.1419C171.934 77.2286 172.051 77.2989 172.196 77.2989Z" fill="white"/>
<path d="M113.8 55.2655L96.5752 44.9552L108.496 37.7852L125.773 48.0954L113.8 55.2655Z" fill="black"/>
<path d="M111.384 36.1104L109.809 37.0524L128.556 48.2524L115.375 56.1552L125.51 62.2263L138.744 54.3234L140.32 53.3814L111.384 36.1104Z" fill="black"/>
<path d="M118.262 98.8056L94 84.3084L142.996 55L167.206 69.4972L118.262 98.8056Z" fill="#C8A67C"/>
<path d="M80.296 41.3967L51.3604 24.1257L71.3685 12.1406L100.304 29.464L80.296 41.3967Z" fill="#C8A67C"/>
<path d="M110.597 49.4563L113.8 47.5722C114.116 47.3628 114.116 47.0488 113.8 46.8918L110.597 44.9553C110.282 44.746 109.757 44.746 109.442 44.9553L106.238 46.8395C105.923 47.0488 105.923 47.3628 106.238 47.5198L109.442 49.4563C109.757 49.6133 110.229 49.6133 110.597 49.4563ZM110.019 49.1946L106.606 47.1535L109.967 45.1124L113.38 47.1535L110.019 49.1946Z" fill="white"/>
<path d="M114.798 44.955C115.061 44.798 115.428 45.0074 115.166 45.1644L114.115 45.7924L114.536 45.7401C114.798 45.7401 114.851 46.0017 114.536 46.0017L113.485 46.0541C113.328 46.0541 113.223 46.0018 113.223 45.8971L113.328 45.269C113.328 45.0597 113.8 45.112 113.8 45.269L113.748 45.5307L114.798 44.955Z" fill="white"/>
<path d="M111.91 44.9552C111.647 45.1122 112.015 45.3216 112.277 45.1646L113.328 44.5365L113.275 44.7982C113.275 44.9552 113.695 45.0076 113.748 44.7982L113.853 44.1702C113.853 44.0655 113.748 44.0132 113.59 44.0132L112.54 44.0655C112.225 44.0655 112.277 44.3272 112.54 44.3272L112.96 44.2749L111.91 44.9552Z" fill="white"/>
<path d="M111.699 47.3626L111.069 46.9963C111.017 46.9439 110.859 46.9439 110.754 46.9963L109.966 47.4673C109.914 47.5196 109.914 47.572 109.966 47.572C109.966 47.572 109.966 47.572 110.019 47.6243L109.021 48.2524C108.864 48.357 109.126 48.514 109.284 48.4094L110.282 47.7813H110.334L109.336 48.4094C109.126 48.514 109.441 48.671 109.599 48.5664L110.597 47.9383C110.649 47.9383 110.649 47.9907 110.649 47.9907C110.702 48.043 110.807 48.043 110.859 47.9907L111.647 47.5196C111.752 47.4673 111.752 47.415 111.699 47.3626Z" fill="white"/>
<path d="M111.646 47.1534C111.791 47.1534 111.909 47.0831 111.909 46.9964C111.909 46.9096 111.791 46.8394 111.646 46.8394C111.501 46.8394 111.384 46.9096 111.384 46.9964C111.384 47.0831 111.501 47.1534 111.646 47.1534Z" fill="white"/>
<path d="M110.334 46.5243L109.704 46.1579C109.652 46.1056 109.494 46.1056 109.389 46.1579L108.601 46.6289C108.549 46.6813 108.549 46.7336 108.601 46.7336C108.601 46.7336 108.601 46.7336 108.654 46.7859L107.656 47.414C107.498 47.5186 107.761 47.6757 107.919 47.571L108.916 46.9429H108.969L107.971 47.571C107.761 47.6757 108.076 47.8327 108.234 47.728L109.231 47.1C109.284 47.1 109.284 47.1523 109.284 47.1523C109.336 47.2046 109.441 47.2046 109.494 47.1523L110.282 46.6813C110.439 46.6813 110.439 46.5766 110.334 46.5243Z" fill="white"/>
<path d="M110.281 46.3682C110.426 46.3682 110.544 46.2979 110.544 46.2112C110.544 46.1245 110.426 46.0542 110.281 46.0542C110.136 46.0542 110.019 46.1245 110.019 46.2112C110.019 46.2979 110.136 46.3682 110.281 46.3682Z" fill="white"/>
<path d="M184.59 50.084L204.861 62.1737L197.141 66.7793L176.87 54.6896L184.59 50.084Z" fill="black"/>
<path d="M191.943 57.2546C192.153 57.3593 192.52 57.3593 192.73 57.2546C192.94 57.1499 192.94 56.8883 192.73 56.7836C192.52 56.6789 192.153 56.6789 191.943 56.7836C191.733 56.8883 191.733 57.0976 191.943 57.2546Z" fill="white"/>
<path d="M195.041 58.668L194.095 58.0923C193.885 57.9876 193.57 57.883 193.308 57.883H191.627L191.89 57.726C192.415 57.4119 191.627 56.9409 191.102 57.2549L190.104 57.883H188.634C188.476 57.883 188.476 57.883 188.371 57.7783L187.899 57.5166C187.426 57.2549 186.743 57.3073 186.428 57.5166C186.113 57.726 185.903 58.1446 186.428 58.4587C186.428 58.4587 187.058 58.825 187.216 58.9297C187.426 59.0344 187.689 59.139 188.056 59.139H192.783C192.888 59.139 192.94 59.139 192.993 59.1914C192.993 59.1914 193.308 59.4007 193.57 59.5577C193.833 59.7147 194.568 59.7671 195.041 59.5054C195.408 59.2437 195.356 58.825 195.041 58.668ZM193.833 59.3484L193.36 59.0344C193.15 58.9297 193.045 58.8774 192.783 58.8774H188.056C187.846 58.8774 187.689 58.825 187.531 58.7204L186.743 58.2493C186.533 58.1446 186.533 57.9353 186.743 57.7783C186.953 57.6213 187.268 57.6736 187.426 57.7783L187.951 58.0923C188.109 58.197 188.266 58.197 188.424 58.197H193.255C193.465 58.197 193.57 58.2493 193.728 58.354L194.568 58.825C194.778 58.9297 194.673 59.139 194.568 59.2437C194.463 59.3484 194.095 59.4531 193.833 59.3484Z" fill="white"/>
<path d="M280.272 53.8525L287.729 58.3011L266.671 70.9142L259.214 66.4133L280.272 53.8525Z" fill="black"/>
<path d="M311.203 51.6543L328.428 61.9646L290.092 84.8879L272.867 74.5777L311.203 51.6543Z" fill="#DAC452"/>
<path d="M294.503 54.2711L274.232 42.129L281.952 37.5234L302.223 49.6655L294.503 54.2711Z" fill="#FF0000"/>
<path d="M289.304 44.6936C289.514 44.7982 289.882 44.7982 290.092 44.6936C290.302 44.5889 290.302 44.3272 290.092 44.2225C289.882 44.1179 289.514 44.1179 289.304 44.2225C289.042 44.3796 289.042 44.5889 289.304 44.6936Z" fill="white"/>
<path d="M292.403 46.1592L291.458 45.5835C291.248 45.4788 290.933 45.3742 290.67 45.3742H288.99L289.252 45.2172C289.777 44.9031 288.99 44.4321 288.464 44.7461L287.467 45.3742H285.996C285.839 45.3742 285.839 45.3742 285.734 45.2695L285.261 45.0078C284.788 44.7461 284.106 44.7985 283.791 45.0078C283.475 45.2172 283.265 45.6359 283.791 45.9499C283.791 45.9499 284.421 46.3162 284.578 46.4209C284.788 46.5256 285.051 46.6302 285.419 46.6302H290.145C290.25 46.6302 290.302 46.6302 290.355 46.6826C290.355 46.6826 290.67 46.8919 290.933 47.0489C291.195 47.2059 291.93 47.2583 292.403 46.9966C292.771 46.7349 292.666 46.3162 292.403 46.1592ZM291.195 46.7873L290.723 46.4732C290.512 46.3686 290.407 46.3162 290.145 46.3162H285.419C285.208 46.3162 285.051 46.2639 284.893 46.1592L284.106 45.6882C283.896 45.5835 283.896 45.3742 284.106 45.2172C284.316 45.0602 284.631 45.1125 284.788 45.2172L285.313 45.5312C285.471 45.6359 285.629 45.6359 285.786 45.6359H290.618C290.828 45.6359 290.933 45.6882 291.09 45.7929L291.93 46.2639C292.14 46.3686 292.035 46.5779 291.93 46.6826C291.825 46.7873 291.458 46.9443 291.195 46.7873Z" fill="white"/>
<path d="M94.5274 59.4004L79.0881 68.664L69.3203 62.8546L84.8122 53.5911L60.7079 39.1462L45.216 48.4098L35.5008 42.6004L50.9401 33.3369L43.4305 28.8359L22.3721 41.449L82.7641 77.5612L103.823 64.9481L94.5274 59.4004Z" fill="black"/>
<path d="M236.895 35.1685C236.58 35.0115 236.107 35.0115 235.845 35.1685L234.584 35.9536C234.322 36.1106 234.689 36.3199 234.952 36.1629L236.107 35.4826L236.212 35.5349L232.956 37.4713C232.641 37.6807 233.114 37.9424 233.429 37.733L235.32 36.5816L235.425 36.634L233.534 37.7854C233.219 37.9947 233.692 38.2564 234.007 38.047L237.263 36.1106L237.368 36.1629L236.212 36.8433C235.95 37.0003 236.317 37.2097 236.58 37.0527L237.84 36.2676C238.103 36.1106 238.155 35.7966 237.84 35.6396L236.895 35.1685Z" fill="white"/>
<path d="M237.84 35.4827C238.159 35.4827 238.418 35.3187 238.418 35.1164C238.418 34.914 238.159 34.75 237.84 34.75C237.521 34.75 237.263 34.914 237.263 35.1164C237.263 35.3187 237.521 35.4827 237.84 35.4827Z" fill="white"/>
<path d="M211.243 37.46L202 31.9123L223.058 19.3516L232.301 24.8469L211.243 37.46Z" fill="#DAC452"/>
<path d="M245.588 22.0206L232.092 13.9607L243.698 7L257.194 15.0598L245.588 22.0206Z" fill="#DAC452"/>
<path d="M263.782 33.1795L247.607 23.4972L266.618 12.0879L282.845 21.7701L263.782 33.1795Z" fill="black"/>
<path d="M322.35 31.1494L297.113 16L277 28.0374L302.26 43.1626L322.35 31.1494Z" fill="#DAC452"/>
<path d="M331.26 61.1626L306 46.0374L326.113 34L351.373 49.1252L331.26 61.1626Z" fill="#DAC452"/>
<path d="M273.602 64.8957L276.805 63.0116C277.12 62.8023 277.12 62.4883 276.805 62.3312L273.602 60.3948C273.287 60.1855 272.762 60.1855 272.447 60.3948L269.243 62.2789C268.928 62.4883 268.928 62.8023 269.243 62.9593L272.447 64.8957C272.762 65.0527 273.287 65.1051 273.602 64.8957ZM273.024 64.634L269.611 62.5929L272.972 60.5518L276.385 62.5929L273.024 64.634Z" fill="white"/>
<path d="M277.803 60.3945C278.066 60.2375 278.433 60.4468 278.171 60.6038L277.12 61.2319L277.54 61.1795C277.803 61.1795 277.855 61.4412 277.54 61.4412L276.49 61.4935C276.333 61.4935 276.228 61.4412 276.228 61.3365L276.333 60.7085C276.333 60.4992 276.805 60.5515 276.805 60.7085L276.753 60.9702L277.803 60.3945Z" fill="white"/>
<path d="M274.915 60.447C274.652 60.604 275.02 60.8133 275.282 60.6563L276.333 60.0283L276.28 60.2899C276.28 60.447 276.7 60.4993 276.753 60.2899L276.858 59.6619C276.858 59.5572 276.753 59.5049 276.595 59.5049L275.545 59.5572C275.23 59.5572 275.282 59.8189 275.545 59.8189L275.965 59.7666L274.915 60.447Z" fill="white"/>
<path d="M274.705 62.8021L274.075 62.4357C274.023 62.3834 273.865 62.3834 273.76 62.4357L272.972 62.9068C272.92 62.9591 272.92 63.0114 272.972 63.0114C272.972 63.0114 272.972 63.0114 273.025 63.0638L272.027 63.6918C271.87 63.7965 272.132 63.9535 272.29 63.8488L273.287 63.2208H273.34L272.342 63.8488C272.132 63.9535 272.447 64.1105 272.605 64.0058L273.602 63.3778C273.655 63.3778 273.655 63.4301 273.655 63.4301C273.708 63.4825 273.813 63.4825 273.865 63.4301L274.653 62.9591C274.81 62.9591 274.81 62.8544 274.705 62.8021Z" fill="white"/>
<path d="M274.653 62.5928C274.798 62.5928 274.916 62.5225 274.916 62.4358C274.916 62.3491 274.798 62.2788 274.653 62.2788C274.508 62.2788 274.391 62.3491 274.391 62.4358C274.391 62.5225 274.508 62.5928 274.653 62.5928Z" fill="white"/>
<path d="M273.392 62.0169L272.762 61.6506C272.709 61.5982 272.552 61.5982 272.447 61.6506L271.659 62.1216C271.606 62.1739 271.606 62.2263 271.659 62.2263C271.659 62.2263 271.659 62.2263 271.711 62.2786L270.714 62.9067C270.556 63.0113 270.819 63.1683 270.976 63.0637L271.974 62.4356H272.026L271.029 63.0637C270.819 63.1683 271.134 63.3254 271.291 63.2207L272.289 62.5926C272.342 62.5926 272.342 62.645 272.342 62.645C272.394 62.6973 272.499 62.6973 272.552 62.645L273.339 62.1739C273.444 62.1216 273.444 62.0693 273.392 62.0169Z" fill="white"/>
<path d="M273.339 61.8077C273.484 61.8077 273.601 61.7374 273.601 61.6507C273.601 61.5639 273.484 61.4937 273.339 61.4937C273.194 61.4937 273.076 61.5639 273.076 61.6507C273.076 61.7374 273.194 61.8077 273.339 61.8077Z" fill="white"/>
<path d="M264.307 51.4452C264.517 51.6022 264.885 51.6022 265.147 51.4452C265.357 51.2882 265.357 51.0789 265.147 50.9742C264.937 50.8172 264.57 50.8172 264.307 50.9742C264.097 51.0789 264.097 51.3406 264.307 51.4452Z" fill="white"/>
<path d="M261.629 52.9629L260.211 53.8003C259.948 53.9573 259.581 53.748 259.843 53.591L261.261 52.7536L260.736 52.4396L263.204 51.6022L263.099 51.5499L261.681 52.0209C261.366 52.1256 261.156 51.8639 261.471 51.7592L262.994 51.2882C263.152 51.2358 263.572 51.1835 263.887 51.3405L264.149 51.4975L264.465 51.6545C264.78 51.8115 264.675 52.0732 264.622 52.1779L263.782 53.12C263.624 53.3293 263.152 53.1723 263.362 53.0153L264.149 52.1779L264.044 52.1256L262.679 53.591L262.154 53.277L260.683 54.1667C260.421 54.3237 260.053 54.1143 260.316 53.9573L261.786 53.0676L261.629 52.9629Z" fill="white"/>
<path d="M275.073 50.7124L259.633 59.976L249.866 54.1666L265.358 44.9031L248.29 34.6975L232.851 43.961L223.083 38.1517L238.575 28.8881L234.374 26.376L213.315 38.9891L258.11 65.7853L279.169 53.1722L275.073 50.7124Z" fill="black"/>
<path d="M351.394 49.1946L271.764 96.8002L190.559 48.2524L206.523 38.7063L208.669 37.4233L206.527 36.1338L201.105 32.8692L252.387 2.165L284.701 21.4876L285.469 21.9471L286.239 21.4887L295.657 15.876L351.394 49.1946Z" stroke="black" stroke-width="3" stroke-miterlimit="10"/>
<path d="M99.8836 109.465L3.50026 51.8114L71.368 11.219L167.751 68.873L99.8836 109.465Z" stroke="black" stroke-width="3" stroke-miterlimit="10"/>
<path d="M283 222L156 300L83 254" stroke="#FF0000" stroke-width="2" stroke-linecap="round"/>
<path fill-rule="evenodd" clip-rule="evenodd" d="M278.789 45.8438C282.317 45.2346 285 42.1681 285 38.4769C285 34.3475 281.642 31 277.5 31C273.358 31 270 34.3475 270 38.4769C270 42.1681 272.683 45.2346 276.211 45.8438L277.5 51L278.789 45.8438Z" fill="black"/>
<path fill-rule="evenodd" clip-rule="evenodd" d="M278.789 43.8438C282.317 43.2346 285 40.1681 285 36.4769C285 32.3475 281.642 29 277.5 29C273.358 29 270 32.3475 270 36.4769C270 40.1681 272.683 43.2346 276.211 43.8438L277.5 49L278.789 43.8438Z" fill="#FF0000"/>
<ellipse cx="277.5" cy="36.4767" rx="2.5" ry="2.49231" fill="white"/>
<path fill-rule="evenodd" clip-rule="evenodd" d="M83.789 249.844C87.317 249.235 90 246.168 90 242.477C90 238.348 86.6421 235 82.5 235C78.3579 235 75 238.348 75 242.477C75 246.168 77.683 249.235 81.211 249.844L82.5 255L83.789 249.844Z" fill="black"/>
<path fill-rule="evenodd" clip-rule="evenodd" d="M83.789 247.844C87.317 247.235 90 244.168 90 240.477C90 236.348 86.6421 233 82.5 233C78.3579 233 75 236.348 75 240.477C75 244.168 77.683 247.235 81.211 247.844L82.5 253L83.789 247.844Z" fill="#FF0000"/>
<ellipse cx="82.5" cy="240.477" rx="2.5" ry="2.49231" fill="white"/>
<defs>
<linearGradient id="paint0_linear" x1="217" y1="264" x2="255" y2="319" gradientUnits="userSpaceOnUse">
<stop offset="0.41491" stop-color="#003E33"/>
<stop offset="0.569304" stop-color="#00AD8E"/>
</linearGradient>
<linearGradient id="paint1_linear" x1="63" y1="292.5" x2="101" y2="349.5" gradientUnits="userSpaceOnUse">
<stop offset="0.41491" stop-color="#003E33"/>
<stop offset="0.569304" stop-color="#00AD8E"/>
</linearGradient>
<linearGradient id="paint2_linear" x1="55.5" y1="210.5" x2="87" y2="259.5" gradientUnits="userSpaceOnUse">
<stop offset="0.41491" stop-color="#003E33"/>
<stop offset="0.569304" stop-color="#00AD8E"/>
</linearGradient>
<linearGradient id="paint3_linear" x1="214.5" y1="174" x2="253" y2="234.5" gradientUnits="userSpaceOnUse">
<stop offset="0.41491" stop-color="#003E33"/>
<stop offset="0.569304" stop-color="#00AD8E"/>
</linearGradient>
<linearGradient id="paint4_linear" x1="259.5" y1="162" x2="291" y2="212.5" gradientUnits="userSpaceOnUse">
<stop offset="0.41491" stop-color="#003E33"/>
<stop offset="0.569304" stop-color="#00AD8E"/>
</linearGradient>
<linearGradient id="paint5_linear" x1="167" y1="170.5" x2="219" y2="247.5" gradientUnits="userSpaceOnUse">
<stop offset="0.41491" stop-color="#003E33"/>
<stop offset="0.569304" stop-color="#00AD8E"/>
</linearGradient>
<linearGradient id="paint6_linear" x1="149" y1="59" x2="207" y2="158.5" gradientUnits="userSpaceOnUse">
<stop offset="0.41491" stop-color="#003E33"/>
<stop offset="0.569304" stop-color="#00AD8E"/>
</linearGradient>
<linearGradient id="paint7_linear" x1="257.5" y1="85.5" x2="289" y2="135" gradientUnits="userSpaceOnUse">
<stop offset="0.552083" stop-color="#003E33"/>
<stop offset="0.703125" stop-color="#00AD8E"/>
</linearGradient>
</defs>
</svg>
