<svg width="315" height="732" viewBox="0 0 315 732" fill="none" xmlns="http://www.w3.org/2000/svg">
<g clip-path="url(#clip0)">
<mask id="mask0" mask-type="alpha" maskUnits="userSpaceOnUse" x="0" y="0" width="180" height="330">
<path d="M179.053 0H0V329.072H179.053V0Z" fill="#EDEAE6"/>
</mask>
<g mask="url(#mask0)">
<path d="M179.053 0H20C8.9543 0 0 8.95429 0 20V329.072H179.053V0Z" fill="#EDEAE6"/>
<path d="M56.1472 186.286H-48.5212H-65.7633H-118.042C-120.032 186.286 -121.579 187.864 -121.579 189.892V368.515C-121.579 370.544 -120.032 372.122 -118.042 372.122H-48.5212C-46.5317 372.122 -44.9844 370.544 -44.9844 368.515V281.965H56.1472C58.1367 281.965 59.6841 280.387 59.6841 278.359V189.892C59.7946 187.864 58.1367 186.286 56.1472 186.286Z" fill="#84A359"/>
<path d="M256.2 186.286H151.532H134.289H82.0105C80.021 186.286 78.4736 187.864 78.4736 189.892V368.515C78.4736 370.544 80.021 372.122 82.0105 372.122H151.532C153.521 372.122 155.068 370.544 155.068 368.515V281.965H256.2C258.189 281.965 259.737 280.387 259.737 278.359V189.892C259.847 187.864 258.189 186.286 256.2 186.286Z" fill="#84A359"/>
<path d="M130.421 99.0197V146.223C130.421 147.905 131.21 149.5 132.525 150.562L137.959 154.813C151.808 165.706 167.762 173.5 184.854 177.751L194.408 180.142C197.827 181.027 201.158 178.371 201.158 174.828V129.485C201.158 127.359 200.018 125.499 198.177 124.525L138.397 94.2374C134.628 92.2005 130.421 94.8573 130.421 99.0197Z" fill="#84A359"/>
<path d="M-10.8491 95.3328L7.55125 99.1174C9.79926 99.5575 11.631 97.2691 10.8816 94.9807L9.2997 90.2279C5.88605 80.1942 5.46976 69.3684 8.05081 59.0707L8.46711 57.5744C8.71688 56.5182 8.46711 55.374 7.71777 54.5819L-8.18483 36.9789C-10.0165 35.0426 -13.2637 36.3628 -13.2637 39.1793V92.2523C-13.2637 93.7485 -12.2646 95.0687 -10.8491 95.3328Z" fill="#84A359"/>
<path d="M28.2056 116.344L14.1554 106.338C13.4742 105.899 12.793 105.548 12.0266 105.373L-6.45148 101.511C-9.94273 100.897 -13.2637 103.705 -13.2637 107.391V121.347C-13.2637 124.155 -11.0497 126.35 -8.40998 126.35H6.06593V146.536H-8.40998C-11.1349 146.536 -13.2637 148.818 -13.2637 151.539V173.218C-13.2637 176.466 -10.7091 179.186 -7.47331 179.186H18.0724C20.0309 179.186 21.9043 178.133 22.9261 176.466L34.3365 158.122C37.9129 152.329 39.8714 145.571 39.7863 138.637C39.7011 129.773 35.3584 121.434 28.2056 116.344Z" fill="#84A359"/>
<path d="M105.837 -2.11597C100.274 -0.709155 96.3621 4.30262 96.3621 10.1057V20.6568C96.3621 27.603 90.7989 33.2302 83.9319 33.2302H47.9454C37.4276 33.2302 27.4313 38.0662 20.8251 46.4191C15.8704 52.6619 13.2627 60.3993 13.2627 68.3127V75.3467C13.2627 83.348 15.9573 91.1734 20.912 97.3282L29.8652 108.495C30.039 108.671 30.2129 108.847 30.2998 109.022L42.643 122.827C47.5108 128.278 48.9885 135.752 47.0761 142.874C45.9461 147.006 46.9892 151.403 49.8577 154.568L53.5085 158.701C57.4201 163.185 65.504 166.79 71.4149 166.79C87.4089 165.295 102.099 157.294 112.182 144.544C119.136 135.752 123.482 125.113 124.699 113.946L125.047 110.429C126.09 101.285 124.96 92.1406 121.918 83.4359L115.833 66.2904C115.572 65.499 115.312 64.7077 115.225 63.8285C114.008 56.091 120.005 49.4086 127.481 49.4086H159.99C166.857 49.4086 172.421 43.7814 172.421 36.8352V-2.2039C172.421 -4.57789 171.725 -6.86397 170.595 -8.71041C168.401 -12.497 114.136 -4.18294 105.837 -2.11597Z" fill="#84A359"/>
<path d="M157.5 28.1739C160.247 28.1739 162.474 25.9034 162.474 23.1026C162.474 20.3018 160.247 18.0312 157.5 18.0312C154.753 18.0312 152.526 20.3018 152.526 23.1026C152.526 25.9034 154.753 28.1739 157.5 28.1739Z" fill="#B5B758"/>
<path d="M64.6575 48.459C66.794 48.459 68.5259 46.4408 68.5259 43.9512C68.5259 41.4616 66.794 39.4434 64.6575 39.4434C62.521 39.4434 60.7891 41.4616 60.7891 43.9512C60.7891 46.4408 62.521 48.459 64.6575 48.459Z" fill="#B5B758"/>
<path d="M29.2891 57.4746C32.036 57.4746 34.2628 55.4564 34.2628 52.9668C34.2628 50.4772 32.036 48.459 29.2891 48.459C26.5422 48.459 24.3154 50.4772 24.3154 52.9668C24.3154 55.4564 26.5422 57.4746 29.2891 57.4746Z" fill="#B5B758"/>
<path d="M85.6573 160.028C88.4042 160.028 90.631 158.01 90.631 155.52C90.631 153.03 88.4042 151.012 85.6573 151.012C82.9104 151.012 80.6836 153.03 80.6836 155.52C80.6836 158.01 82.9104 160.028 85.6573 160.028Z" fill="#B5B758"/>
<path d="M100.579 157.774C103.021 157.774 105 155.503 105 152.703C105 149.902 103.021 147.631 100.579 147.631C98.1376 147.631 96.1582 149.902 96.1582 152.703C96.1582 155.503 98.1376 157.774 100.579 157.774Z" fill="#B5B758"/>
<path d="M108.316 13.5235C110.757 13.5235 112.737 11.5053 112.737 9.01565C112.737 6.52604 110.757 4.50781 108.316 4.50781C105.874 4.50781 103.895 6.52604 103.895 9.01565C103.895 11.5053 105.874 13.5235 108.316 13.5235Z" fill="#B5B758"/>
<path d="M1.10465 56.3477C3.54633 56.3477 5.5257 54.0772 5.5257 51.2764C5.5257 48.4756 3.54633 46.2051 1.10465 46.2051C-1.33703 46.2051 -3.31641 48.4756 -3.31641 51.2764C-3.31641 54.0772 -1.33703 56.3477 1.10465 56.3477Z" fill="#B5B758"/>
<path d="M4.97368 78.8867C7.72057 78.8867 9.94737 76.8685 9.94737 74.3789C9.94737 71.8893 7.72057 69.8711 4.97368 69.8711C2.22679 69.8711 0 71.8893 0 74.3789C0 76.8685 2.22679 78.8867 4.97368 78.8867Z" fill="#B5B758"/>
<path d="M11.0529 116.077C13.4946 116.077 15.4739 113.806 15.4739 111.005C15.4739 108.205 13.4946 105.934 11.0529 105.934C8.61121 105.934 6.63184 108.205 6.63184 111.005C6.63184 113.806 8.61121 116.077 11.0529 116.077Z" fill="#B5B758"/>
<path d="M24.8682 143.124C27.6151 143.124 29.8419 141.105 29.8419 138.616C29.8419 136.126 27.6151 134.108 24.8682 134.108C22.1213 134.108 19.8945 136.126 19.8945 138.616C19.8945 141.105 22.1213 143.124 24.8682 143.124Z" fill="#B5B758"/>
<path d="M7.18365 163.409C9.93054 163.409 12.1573 161.138 12.1573 158.337C12.1573 155.537 9.93054 153.266 7.18365 153.266C4.43676 153.266 2.20996 155.537 2.20996 158.337C2.20996 161.138 4.43676 163.409 7.18365 163.409Z" fill="#B5B758"/>
<path d="M-0.552684 153.266C2.19421 153.266 4.421 151.248 4.421 148.758C4.421 146.269 2.19421 144.25 -0.552684 144.25C-3.29957 144.25 -5.52637 146.269 -5.52637 148.758C-5.52637 151.248 -3.29957 153.266 -0.552684 153.266Z" fill="#B5B758"/>
<path d="M64.6575 130.727C66.794 130.727 68.5259 128.457 68.5259 125.656C68.5259 122.855 66.794 120.584 64.6575 120.584C62.521 120.584 60.7891 122.855 60.7891 125.656C60.7891 128.457 62.521 130.727 64.6575 130.727Z" fill="#B5B758"/>
<path d="M38.6837 100.299C41.1254 100.299 43.1048 98.0289 43.1048 95.2281C43.1048 92.4272 41.1254 90.1567 38.6837 90.1567C36.2421 90.1567 34.2627 92.4272 34.2627 95.2281C34.2627 98.0289 36.2421 100.299 38.6837 100.299Z" fill="#B5B758"/>
<path d="M43.6573 116.077C46.4042 116.077 48.631 113.806 48.631 111.005C48.631 108.205 46.4042 105.934 43.6573 105.934C40.9104 105.934 38.6836 108.205 38.6836 111.005C38.6836 113.806 40.9104 116.077 43.6573 116.077Z" fill="#B5B758"/>
<path d="M105.553 76.6329C108.3 76.6329 110.526 74.3624 110.526 71.5616C110.526 68.7607 108.3 66.4902 105.553 66.4902C102.806 66.4902 100.579 68.7607 100.579 71.5616C100.579 74.3624 102.806 76.6329 105.553 76.6329Z" fill="#B5B758"/>
<path d="M104.447 57.4746C107.194 57.4746 109.421 55.4564 109.421 52.9668C109.421 50.4772 107.194 48.459 104.447 48.459C101.7 48.459 99.4736 50.4772 99.4736 52.9668C99.4736 55.4564 101.7 57.4746 104.447 57.4746Z" fill="#B5B758"/>
<path d="M116.606 109.315C119.352 109.315 121.579 107.297 121.579 104.807C121.579 102.318 119.352 100.299 116.606 100.299C113.859 100.299 111.632 102.318 111.632 104.807C111.632 107.297 113.859 109.315 116.606 109.315Z" fill="#B5B758"/>
<path d="M109.974 105.934C112.721 105.934 114.947 103.664 114.947 100.863C114.947 98.062 112.721 95.7915 109.974 95.7915C107.227 95.7915 105 98.062 105 100.863C105 103.664 107.227 105.934 109.974 105.934Z" fill="#507146"/>
<path d="M85.6573 83.3946C88.4042 83.3946 90.631 81.6286 90.631 79.4502C90.631 77.2718 88.4042 75.5059 85.6573 75.5059C82.9104 75.5059 80.6836 77.2718 80.6836 79.4502C80.6836 81.6286 82.9104 83.3946 85.6573 83.3946Z" fill="#507146"/>
<path d="M35.3683 56.3477C37.81 56.3477 39.7894 54.0772 39.7894 51.2764C39.7894 48.4756 37.81 46.2051 35.3683 46.2051C32.9266 46.2051 30.9473 48.4756 30.9473 51.2764C30.9473 54.0772 32.9266 56.3477 35.3683 56.3477Z" fill="#507146"/>
<path d="M-0.552684 89.0298C2.19421 89.0298 4.421 87.0116 4.421 84.522C4.421 82.0324 2.19421 80.0142 -0.552684 80.0142C-3.29957 80.0142 -5.52637 82.0324 -5.52637 84.522C-5.52637 87.0116 -3.29957 89.0298 -0.552684 89.0298Z" fill="#507146"/>
<path d="M92.2891 157.774C95.036 157.774 97.2628 155.503 97.2628 152.703C97.2628 149.902 95.036 147.631 92.2891 147.631C89.5422 147.631 87.3154 149.902 87.3154 152.703C87.3154 155.503 89.5422 157.774 92.2891 157.774Z" fill="#507146"/>
<path d="M49.1836 126.219C51.9305 126.219 54.1573 123.949 54.1573 121.148C54.1573 118.347 51.9305 116.077 49.1836 116.077C46.4368 116.077 44.21 118.347 44.21 121.148C44.21 123.949 46.4368 126.219 49.1836 126.219Z" fill="#507146"/>
<path d="M38.6837 109.315C41.1254 109.315 43.1048 107.297 43.1048 104.807C43.1048 102.318 41.1254 100.299 38.6837 100.299C36.2421 100.299 34.2627 102.318 34.2627 104.807C34.2627 107.297 36.2421 109.315 38.6837 109.315Z" fill="#507146"/>
<path d="M23.7627 153.266C26.5096 153.266 28.7364 150.996 28.7364 148.195C28.7364 145.394 26.5096 143.124 23.7627 143.124C21.0159 143.124 18.7891 145.394 18.7891 148.195C18.7891 150.996 21.0159 153.266 23.7627 153.266Z" fill="#507146"/>
<path d="M19.3419 169.044C22.0887 169.044 24.3155 166.773 24.3155 163.972C24.3155 161.171 22.0887 158.901 19.3419 158.901C16.595 158.901 14.3682 161.171 14.3682 163.972C14.3682 166.773 16.595 169.044 19.3419 169.044Z" fill="#507146"/>
<path d="M4.97368 116.077C7.72057 116.077 9.94737 114.058 9.94737 111.569C9.94737 109.079 7.72057 107.061 4.97368 107.061C2.22679 107.061 0 109.079 0 111.569C0 114.058 2.22679 116.077 4.97368 116.077Z" fill="#507146"/>
<path d="M132.631 146.504C135.073 146.504 137.052 144.738 137.052 142.56C137.052 140.382 135.073 138.616 132.631 138.616C130.189 138.616 128.21 140.382 128.21 142.56C128.21 144.738 130.189 146.504 132.631 146.504Z" fill="#B5B758"/>
<path d="M139.263 137.489C141.705 137.489 143.684 135.471 143.684 132.981C143.684 130.491 141.705 128.473 139.263 128.473C136.821 128.473 134.842 130.491 134.842 132.981C134.842 135.471 136.821 137.489 139.263 137.489Z" fill="#B5B758"/>
<path d="M139.263 155.52C141.705 155.52 143.684 153.25 143.684 150.449C143.684 147.648 141.705 145.377 139.263 145.377C136.821 145.377 134.842 147.648 134.842 150.449C134.842 153.25 136.821 155.52 139.263 155.52Z" fill="#507146"/>
<path d="M108.868 145.377C111.615 145.377 113.842 143.107 113.842 140.306C113.842 137.505 111.615 135.235 108.868 135.235C106.121 135.235 103.895 137.505 103.895 140.306C103.895 143.107 106.121 145.377 108.868 145.377Z" fill="#507146"/>
<path d="M121.026 120.584C123.773 120.584 126 118.566 126 116.077C126 113.587 123.773 111.569 121.026 111.569C118.28 111.569 116.053 113.587 116.053 116.077C116.053 118.566 118.28 120.584 121.026 120.584Z" fill="#507146"/>
<path d="M121.026 93.5376C123.773 93.5376 126 91.2671 126 88.4663C126 85.6655 123.773 83.395 121.026 83.395C118.28 83.395 116.053 85.6655 116.053 88.4663C116.053 91.2671 118.28 93.5376 121.026 93.5376Z" fill="#507146"/>
<path d="M108.316 111.569C110.757 111.569 112.737 109.551 112.737 107.061C112.737 104.571 110.757 102.553 108.316 102.553C105.874 102.553 103.895 104.571 103.895 107.061C103.895 109.551 105.874 111.569 108.316 111.569Z" fill="#849258"/>
<path d="M4.97368 155.52C7.72057 155.52 9.94737 153.25 9.94737 150.449C9.94737 147.648 7.72057 145.377 4.97368 145.377C2.22679 145.377 0 147.648 0 150.449C0 153.25 2.22679 155.52 4.97368 155.52Z" fill="#849258"/>
<path d="M-3.86811 73.252C-1.12122 73.252 1.10557 70.9815 1.10557 68.1807C1.10557 65.3799 -1.12122 63.1094 -3.86811 63.1094C-6.615 63.1094 -8.8418 65.3799 -8.8418 68.1807C-8.8418 70.9815 -6.615 73.252 -3.86811 73.252Z" fill="#849258"/>
<path d="M113.289 83.3946C115.426 83.3946 117.158 81.6286 117.158 79.4502C117.158 77.2718 115.426 75.5059 113.289 75.5059C111.153 75.5059 109.421 77.2718 109.421 79.4502C109.421 81.6286 111.153 83.3946 113.289 83.3946Z" fill="#849258"/>
<path d="M119.921 101.426C122.668 101.426 124.895 99.1558 124.895 96.355C124.895 93.5542 122.668 91.2837 119.921 91.2837C117.174 91.2837 114.947 93.5542 114.947 96.355C114.947 99.1558 117.174 101.426 119.921 101.426Z" fill="#849258"/>
<path d="M114.947 137.489C117.389 137.489 119.368 135.471 119.368 132.981C119.368 130.491 117.389 128.473 114.947 128.473C112.506 128.473 110.526 130.491 110.526 132.981C110.526 135.471 112.506 137.489 114.947 137.489Z" fill="#849258"/>
<path d="M111.079 20.2852C113.826 20.2852 116.053 18.267 116.053 15.7774C116.053 13.2878 113.826 11.2695 111.079 11.2695C108.332 11.2695 106.105 13.2878 106.105 15.7774C106.105 18.267 108.332 20.2852 111.079 20.2852Z" fill="#849258"/>
<path d="M21.5528 178.059C24.2997 178.059 26.5265 175.789 26.5265 172.988C26.5265 170.187 24.2997 167.917 21.5528 167.917C18.8059 167.917 16.5791 170.187 16.5791 172.988C16.5791 175.789 18.8059 178.059 21.5528 178.059Z" fill="#849258"/>
<path d="M52.5003 155.52C54.6367 155.52 56.3687 153.25 56.3687 150.449C56.3687 147.648 54.6367 145.377 52.5003 145.377C50.3638 145.377 48.6318 147.648 48.6318 150.449C48.6318 153.25 50.3638 155.52 52.5003 155.52Z" fill="#849258"/>
<path d="M80.6838 169.044C83.1254 169.044 85.1048 166.773 85.1048 163.972C85.1048 161.171 83.1254 158.901 80.6838 158.901C78.2421 158.901 76.2627 161.171 76.2627 163.972C76.2627 166.773 78.2421 169.044 80.6838 169.044Z" fill="#849258"/>
<path d="M72.3946 167.917C75.1415 167.917 77.3683 165.646 77.3683 162.845C77.3683 160.044 75.1415 157.774 72.3946 157.774C69.6477 157.774 67.4209 160.044 67.4209 162.845C67.4209 165.646 69.6477 167.917 72.3946 167.917Z" fill="#849258"/>
<path d="M44.7627 111.569C47.5096 111.569 49.7364 109.298 49.7364 106.498C49.7364 103.697 47.5096 101.426 44.7627 101.426C42.0159 101.426 39.7891 103.697 39.7891 106.498C39.7891 109.298 42.0159 111.569 44.7627 111.569Z" fill="#849258"/>
</g>
<path d="M1.5 328.86V201.347H177.5V328.86H1.5Z" fill="white" stroke="black" stroke-width="3" stroke-miterlimit="10"/>
<path d="M208.956 17.9684H210.456V16.4684V1.5H313.5V150.425H164.481V120.831V119.331H162.981H148.5V17.9684H208.956Z" fill="white" stroke="black" stroke-width="3" stroke-miterlimit="10"/>
<path d="M243.561 75.6079H230.141V102.016H243.561V75.6079Z" fill="black"/>
<path d="M195.423 75.6079H182.003V102.016H195.423V75.6079Z" fill="black"/>
<path d="M96.5497 257.124H83.1299V283.532H96.5497V257.124Z" fill="black"/>
<path d="M35.6601 257.124H22.2402V283.532H35.6601V257.124Z" fill="black"/>
<path d="M28.1828 268.383C27.6486 268.383 27.248 268.793 27.248 269.407V271.727C27.248 272.205 27.9157 272.205 27.9157 271.727V269.612H28.0492V275.548C28.0492 276.163 28.9172 276.163 28.9172 275.548V272.068H29.0507V275.548C29.0507 276.163 29.9187 276.163 29.9187 275.548V269.612H30.0522V271.727C30.0522 272.205 30.7199 272.205 30.7199 271.727V269.407C30.7199 268.929 30.3193 268.383 29.7851 268.383H28.1828Z" fill="white"/>
<path d="M28.9834 268.111C29.389 268.111 29.7179 267.775 29.7179 267.36C29.7179 266.945 29.389 266.609 28.9834 266.609C28.5778 266.609 28.249 266.945 28.249 267.36C28.249 267.775 28.5778 268.111 28.9834 268.111Z" fill="white"/>
<path d="M130.668 257.124H117.248V295.815H130.668V257.124Z" fill="black"/>
<path d="M127.931 280.188V274.32C127.931 273.706 127.464 273.228 126.863 273.228H121.121C120.52 273.228 120.053 273.706 120.053 274.32V280.188C120.053 280.803 120.52 281.28 121.121 281.28H126.863C127.464 281.28 127.931 280.871 127.931 280.188ZM127.063 280.393H120.921V274.183H127.063V280.393Z" fill="white"/>
<path d="M124.926 269.475C124.926 268.997 125.594 268.997 125.594 269.475V271.386L125.928 270.976C126.195 270.703 126.596 271.113 126.329 271.386L125.461 272.409C125.327 272.546 125.127 272.546 124.993 272.409L124.125 271.386C123.858 271.044 124.326 270.703 124.526 270.976L124.86 271.454L124.926 269.475Z" fill="white"/>
<path d="M122.389 272.136C122.389 272.614 123.057 272.614 123.057 272.136V270.226L123.391 270.635C123.658 270.908 124.059 270.499 123.791 270.226L122.924 269.202C122.79 269.065 122.59 269.065 122.456 269.202L121.588 270.226C121.321 270.567 121.788 270.908 121.989 270.635L122.323 270.157L122.389 272.136Z" fill="white"/>
<path d="M125.728 276.026H124.593C124.46 276.026 124.326 276.163 124.326 276.299V277.732C124.326 277.869 124.393 277.937 124.526 277.937C124.526 277.937 124.593 277.937 124.66 277.937V279.779C124.66 280.121 125.127 280.121 125.127 279.779V277.937H125.194V279.779C125.194 280.121 125.661 280.121 125.661 279.779V277.937C125.728 277.937 125.795 277.937 125.795 277.937C125.929 277.937 125.995 277.869 125.995 277.732V276.299C125.995 276.163 125.929 276.026 125.728 276.026Z" fill="white"/>
<path d="M125.194 275.889C125.379 275.889 125.528 275.737 125.528 275.548C125.528 275.36 125.379 275.207 125.194 275.207C125.01 275.207 124.86 275.36 124.86 275.548C124.86 275.737 125.01 275.889 125.194 275.889Z" fill="white"/>
<path d="M123.325 276.026H122.19C122.056 276.026 121.923 276.163 121.923 276.299V277.732C121.923 277.869 121.99 277.937 122.123 277.937C122.123 277.937 122.19 277.937 122.257 277.937V279.779C122.257 280.121 122.724 280.121 122.724 279.779V277.937H122.791V279.779C122.791 280.121 123.258 280.121 123.258 279.779V277.937C123.325 277.937 123.392 277.937 123.392 277.937C123.525 277.937 123.592 277.869 123.592 277.732V276.299C123.592 276.163 123.458 276.026 123.325 276.026Z" fill="white"/>
<path d="M122.791 275.889C122.975 275.889 123.125 275.737 123.125 275.548C123.125 275.36 122.975 275.207 122.791 275.207C122.606 275.207 122.457 275.36 122.457 275.548C122.457 275.737 122.606 275.889 122.791 275.889Z" fill="white"/>
<path d="M90.0079 268.111C90.4084 268.111 90.7423 267.769 90.7423 267.36C90.7423 266.951 90.4084 266.609 90.0079 266.609C89.6073 266.609 89.2734 266.951 89.2734 267.36C89.2734 267.769 89.6073 268.111 90.0079 268.111Z" fill="white"/>
<path d="M89.8744 272.955V275.617C89.8744 276.094 89.2067 276.094 89.2067 275.617V272.955H88.272L89.2735 269.407H89.14L88.5391 271.386C88.4055 271.795 87.8046 271.659 87.9382 271.181L88.6058 268.997C88.6726 268.724 89.0064 268.315 89.5406 268.315H90.0079H90.5421C91.0762 268.315 91.41 268.793 91.4768 268.997L92.1445 271.181C92.278 271.659 91.6771 271.863 91.5436 271.386L90.9427 269.407H90.7424L91.7439 272.955H90.8091V275.617C90.8091 276.094 90.1415 276.094 90.1415 275.617V272.955H89.8744Z" fill="white"/>
<path d="M204.436 199.46H183.738V221.364H204.436V199.46Z" fill="black"/>
<path d="M197.96 215.428V209.559C197.96 208.945 197.493 208.467 196.892 208.467H191.15C190.549 208.467 190.082 208.945 190.082 209.559V215.428C190.082 216.042 190.549 216.519 191.15 216.519H196.892C197.493 216.519 197.96 216.11 197.96 215.428ZM197.092 215.632H190.95V209.423H197.092V215.632Z" fill="white"/>
<path d="M195.023 204.714C195.023 204.236 195.691 204.236 195.691 204.714V206.624L196.025 206.215C196.292 205.942 196.692 206.351 196.425 206.624L195.557 207.648C195.424 207.785 195.223 207.785 195.09 207.648L194.222 206.624C193.955 206.283 194.422 205.942 194.623 206.215L194.956 206.693L195.023 204.714Z" fill="white"/>
<path d="M192.419 207.375C192.419 207.853 193.086 207.853 193.086 207.375V205.465L193.42 205.874C193.687 206.147 194.088 205.738 193.821 205.465L192.953 204.441C192.819 204.305 192.619 204.305 192.485 204.441L191.617 205.465C191.35 205.806 191.818 206.147 192.018 205.874L192.352 205.397L192.419 207.375Z" fill="white"/>
<path d="M195.824 211.266H194.689C194.555 211.266 194.422 211.402 194.422 211.539V212.972C194.422 213.108 194.489 213.176 194.622 213.176C194.622 213.176 194.689 213.176 194.756 213.176V215.019C194.756 215.36 195.223 215.36 195.223 215.019V213.176H195.29V215.019C195.29 215.36 195.757 215.36 195.757 215.019V213.176C195.824 213.176 195.891 213.176 195.891 213.176C196.024 213.176 196.091 213.108 196.091 212.972V211.539C196.091 211.402 195.957 211.266 195.824 211.266Z" fill="white"/>
<path d="M195.29 211.129C195.474 211.129 195.624 210.976 195.624 210.788C195.624 210.599 195.474 210.446 195.29 210.446C195.106 210.446 194.956 210.599 194.956 210.788C194.956 210.976 195.106 211.129 195.29 211.129Z" fill="white"/>
<path d="M193.421 211.266H192.286C192.152 211.266 192.019 211.402 192.019 211.539V212.972C192.019 213.108 192.085 213.176 192.219 213.176C192.219 213.176 192.286 213.176 192.352 213.176V215.019C192.352 215.36 192.82 215.36 192.82 215.019V213.176H192.887V215.019C192.887 215.36 193.354 215.36 193.354 215.019V213.176C193.421 213.176 193.487 213.176 193.487 213.176C193.621 213.176 193.688 213.108 193.688 212.972V211.539C193.688 211.402 193.554 211.266 193.421 211.266Z" fill="white"/>
<path d="M192.82 211.129C193.004 211.129 193.154 210.976 193.154 210.788C193.154 210.599 193.004 210.446 192.82 210.446C192.636 210.446 192.486 210.599 192.486 210.788C192.486 210.976 192.636 211.129 192.82 211.129Z" fill="white"/>
<path d="M109.636 211.062H78.6572V233.035H109.636V211.062Z" fill="black"/>
<path d="M78.6572 205.809V208.675H112.374V233.036H130.668V208.675V205.809H78.6572Z" fill="black"/>
<path d="M172.421 206.234H133.736V295.264H172.421V206.234Z" fill="#C8A67C"/>
<path d="M58.694 205.809H6.68359V242.521H58.694V205.809Z" fill="#C8A67C"/>
<path d="M98.0189 227.031V221.163C98.0189 220.548 97.5516 220.071 96.9507 220.071H91.2089C90.608 220.071 90.1406 220.548 90.1406 221.163V227.031C90.1406 227.645 90.608 228.123 91.2089 228.123H96.9507C97.5516 228.123 98.0189 227.645 98.0189 227.031ZM97.151 227.236H91.0086V221.026H97.151V227.236Z" fill="white"/>
<path d="M95.0144 214.063C95.0144 213.586 95.682 213.586 95.682 214.063V215.974L96.0158 215.565C96.2829 215.292 96.6835 215.701 96.4164 215.974L95.5485 216.998C95.415 217.134 95.2147 217.134 95.0811 216.998L94.2132 215.974C93.9461 215.633 94.4135 215.292 94.6138 215.565L94.9476 216.042L95.0144 214.063Z" fill="white"/>
<path d="M92.4772 216.725C92.4772 217.202 93.1449 217.202 93.1449 216.725V214.814L93.4787 215.223C93.7458 215.496 94.1464 215.087 93.8793 214.814L93.0114 213.79C92.8778 213.654 92.6775 213.654 92.544 213.79L91.6761 214.814C91.409 215.155 91.8764 215.496 92.0767 215.223L92.4105 214.746L92.4772 216.725Z" fill="white"/>
<path d="M95.8825 222.868H94.7475C94.614 222.868 94.4805 223.005 94.4805 223.141V224.574C94.4805 224.711 94.5472 224.779 94.6808 224.779C94.6808 224.779 94.7475 224.779 94.8143 224.779V226.621C94.8143 226.962 95.2816 226.962 95.2816 226.621V224.711H95.3484V226.553C95.3484 226.894 95.8158 226.894 95.8158 226.553V224.711C95.8825 224.711 95.9493 224.711 95.9493 224.711C96.0828 224.711 96.1496 224.642 96.1496 224.506V223.073C96.1496 222.936 96.0161 222.868 95.8825 222.868Z" fill="white"/>
<path d="M95.2821 222.732C95.4665 222.732 95.6159 222.579 95.6159 222.39C95.6159 222.202 95.4665 222.049 95.2821 222.049C95.0977 222.049 94.9482 222.202 94.9482 222.39C94.9482 222.579 95.0977 222.732 95.2821 222.732Z" fill="white"/>
<path d="M93.4792 222.868H92.3442C92.2107 222.868 92.0771 223.005 92.0771 223.141V224.574C92.0771 224.711 92.1439 224.779 92.2774 224.779C92.2774 224.779 92.3442 224.779 92.411 224.779V226.621C92.411 226.962 92.8783 226.962 92.8783 226.621V224.711H92.9451V226.553C92.9451 226.894 93.4125 226.894 93.4125 226.553V224.711C93.4792 224.711 93.546 224.711 93.546 224.711C93.6795 224.711 93.7463 224.642 93.7463 224.506V223.073C93.6795 222.936 93.6128 222.868 93.4792 222.868Z" fill="white"/>
<path d="M92.8788 222.732C93.0631 222.732 93.2126 222.579 93.2126 222.39C93.2126 222.202 93.0631 222.049 92.8788 222.049C92.6944 222.049 92.5449 222.202 92.5449 222.39C92.5449 222.579 92.6944 222.732 92.8788 222.732Z" fill="white"/>
<path d="M163.224 171.924H199.678V157.73H163.224V171.924Z" fill="black"/>
<path d="M180.667 162.066C181.068 162.066 181.402 161.725 181.402 161.316C181.402 160.906 181.068 160.565 180.667 160.565C180.266 160.565 179.933 160.906 179.933 161.316C179.933 161.725 180.266 162.066 180.667 162.066Z" fill="white"/>
<path d="M185.608 161.384H183.939C183.605 161.384 183.138 161.52 182.871 161.793L181.335 163.363V162.885C181.335 161.93 179.933 161.93 179.933 162.885V164.727L178.598 166.092C178.464 166.229 178.464 166.229 178.197 166.229H177.396C176.595 166.229 176.061 166.979 176.061 167.593C176.061 168.208 176.528 169.026 177.463 169.026C177.463 169.026 178.598 169.026 178.931 169.026C179.265 169.026 179.666 168.89 180 168.549L184.273 164.25C184.339 164.182 184.406 164.113 184.54 164.113C184.54 164.113 185.141 164.113 185.608 164.113C186.142 164.113 186.81 163.499 186.81 162.68C186.877 161.93 186.142 161.384 185.608 161.384ZM185.541 163.499H184.673C184.273 163.499 184.139 163.567 183.939 163.772L179.666 168.139C179.466 168.344 179.265 168.412 178.998 168.412H177.596C177.262 168.412 176.928 168.071 176.928 167.662C176.928 167.252 177.262 167.048 177.529 167.048H178.464C178.731 167.048 178.931 166.979 179.065 166.775L183.405 162.339C183.605 162.134 183.739 162.134 184.072 162.134H185.541C185.875 162.134 186.142 162.544 186.142 162.817C186.142 163.09 185.942 163.499 185.541 163.499Z" fill="white"/>
<path d="M254.954 114.358H268.374V75.6668H254.954V114.358Z" fill="black"/>
<path d="M278.527 113.823H308.369V43.9518H278.527V113.823Z" fill="#DAC452"/>
<path d="M268.397 49.0625H231.943V63.2561H268.397V49.0625Z" fill="black"/>
<path d="M249.37 53.3631C249.771 53.3631 250.105 53.0219 250.105 52.6124C250.105 52.203 249.771 51.8618 249.37 51.8618C248.97 51.8618 248.636 52.203 248.636 52.6124C248.636 53.0219 248.97 53.3631 249.37 53.3631Z" fill="white"/>
<path d="M254.244 52.6807H252.575C252.241 52.6807 251.773 52.8171 251.506 53.0901L249.971 54.6596V54.1819C249.971 53.2266 248.569 53.2266 248.569 54.1819V56.0243L247.233 57.3891C247.1 57.5256 247.1 57.5256 246.833 57.5256H246.032C245.23 57.5256 244.696 58.2762 244.696 58.8903C244.696 59.5045 245.164 60.3233 246.098 60.3233C246.098 60.3233 247.233 60.3233 247.567 60.3233C247.901 60.3233 248.302 60.1869 248.635 59.8457L252.908 55.5467C252.975 55.4784 253.042 55.4102 253.175 55.4102C253.175 55.4102 253.776 55.4102 254.244 55.4102C254.778 55.4102 255.445 54.7961 255.445 53.9772C255.512 53.2266 254.845 52.6807 254.244 52.6807ZM254.177 54.7961H253.309C252.908 54.7961 252.775 54.8643 252.575 55.069L248.302 59.4362C248.101 59.641 247.901 59.7092 247.634 59.7092H246.232C245.898 59.7092 245.564 59.368 245.564 58.9586C245.564 58.5492 245.898 58.3444 246.165 58.3444H247.1C247.367 58.3444 247.567 58.2762 247.701 58.0715L252.04 53.636C252.241 53.4313 252.374 53.4313 252.708 53.4313H254.177C254.511 53.4313 254.778 53.8407 254.778 54.1137C254.778 54.3866 254.644 54.7961 254.177 54.7961Z" fill="white"/>
<path d="M98.553 257.124V285.511H81.0604V257.124H37.7296V285.511H20.237V257.124H6.68359V295.815H115.244V257.124H98.553Z" fill="black"/>
<path d="M187.878 86.8671C187.344 86.8671 186.943 87.2765 186.943 87.8906V90.2108C186.943 90.6884 187.611 90.6884 187.611 90.2108V88.0271H187.745V93.9639C187.745 94.578 188.613 94.578 188.613 93.9639V90.4837H188.746V93.9639C188.746 94.578 189.614 94.578 189.614 93.9639V88.0271H189.748V90.1425C189.748 90.6202 190.415 90.6202 190.415 90.1425V87.8224C190.415 87.3447 190.015 86.7988 189.48 86.7988L187.878 86.8671Z" fill="white"/>
<path d="M188.679 86.6624C189.084 86.6624 189.413 86.3263 189.413 85.9117C189.413 85.4972 189.084 85.1611 188.679 85.1611C188.273 85.1611 187.944 85.4972 187.944 85.9117C187.944 86.3263 188.273 86.6624 188.679 86.6624Z" fill="white"/>
<path d="M170.453 75.6079H153.828V114.299H170.453V75.6079Z" fill="#DAC452"/>
<path d="M178.064 37.7354H153.828V59.0939H178.064V37.7354Z" fill="#DAC452"/>
<path d="M209.043 24.02H179.934V59.0262H209.043V24.02Z" fill="black"/>
<path d="M308.369 7.88818H266.369V41.697H308.369V7.88818Z" fill="#DAC452"/>
<path d="M260.841 7.88818H216.631V41.697H260.841V7.88818Z" fill="#DAC452"/>
<path d="M265.593 98.7406V92.8721C265.593 92.2579 265.126 91.7803 264.525 91.7803H258.783C258.182 91.7803 257.715 92.2579 257.715 92.8721V98.7406C257.715 99.3547 258.182 99.8324 258.783 99.8324H264.525C265.126 99.7642 265.593 99.3547 265.593 98.7406ZM264.725 98.877H258.583V92.6674H264.725V98.877Z" fill="white"/>
<path d="M262.656 87.9588C262.656 87.4812 263.324 87.4812 263.324 87.9588V89.8695L263.657 89.4601C263.925 89.1871 264.325 89.5966 264.058 89.8695L263.19 90.8931C263.057 91.0296 262.856 91.0296 262.723 90.8931L261.855 89.8695C261.588 89.5283 262.055 89.1871 262.255 89.4601L262.589 89.9378L262.656 87.9588Z" fill="white"/>
<path d="M260.051 90.6875C260.051 91.1651 260.719 91.1651 260.719 90.6875V88.7768L261.053 89.1862C261.32 89.4592 261.721 89.0498 261.453 88.7768L260.586 87.7532C260.452 87.6168 260.252 87.6168 260.118 87.7532L259.25 88.7768C258.983 89.118 259.451 89.4592 259.651 89.1862L259.985 88.7086L260.051 90.6875Z" fill="white"/>
<path d="M263.457 94.5093H262.322C262.188 94.5093 262.055 94.6457 262.055 94.7822V96.2152C262.055 96.3517 262.121 96.4199 262.255 96.4199C262.255 96.4199 262.322 96.4199 262.389 96.4199V98.2624C262.389 98.6036 262.856 98.6036 262.856 98.2624V96.4199H262.923V98.2624C262.923 98.6036 263.39 98.6036 263.39 98.2624V96.4199C263.457 96.4199 263.524 96.4199 263.524 96.4199C263.657 96.4199 263.724 96.3517 263.724 96.2152V94.7822C263.724 94.6457 263.59 94.5093 263.457 94.5093Z" fill="white"/>
<path d="M262.923 94.3728C263.107 94.3728 263.257 94.2201 263.257 94.0316C263.257 93.8432 263.107 93.6904 262.923 93.6904C262.738 93.6904 262.589 93.8432 262.589 94.0316C262.589 94.2201 262.738 94.3728 262.923 94.3728Z" fill="white"/>
<path d="M261.053 94.5093H259.918C259.785 94.5093 259.651 94.6457 259.651 94.7822V96.2152C259.651 96.3517 259.718 96.4199 259.852 96.4199C259.852 96.4199 259.918 96.4199 259.985 96.4199V98.2624C259.985 98.6036 260.453 98.6036 260.453 98.2624V96.4199H260.519V98.2624C260.519 98.6036 260.987 98.6036 260.987 98.2624V96.4199C261.053 96.4199 261.12 96.4199 261.12 96.4199C261.254 96.4199 261.32 96.3517 261.32 96.2152V94.7822C261.32 94.6457 261.187 94.5093 261.053 94.5093Z" fill="white"/>
<path d="M260.453 94.3728C260.637 94.3728 260.787 94.2201 260.787 94.0316C260.787 93.8432 260.637 93.6904 260.453 93.6904C260.269 93.6904 260.119 93.8432 260.119 94.0316C260.119 94.2201 260.269 94.3728 260.453 94.3728Z" fill="white"/>
<path d="M237.019 86.6624C237.419 86.6624 237.753 86.3212 237.753 85.9117C237.753 85.5023 237.419 85.1611 237.019 85.1611C236.618 85.1611 236.284 85.5023 236.284 85.9117C236.284 86.3212 236.618 86.6624 237.019 86.6624Z" fill="white"/>
<path d="M236.952 91.439V94.1003C236.952 94.578 236.284 94.578 236.284 94.1003V91.439H235.349L236.351 87.8906H236.217L235.616 89.8695C235.483 90.279 234.882 90.1425 235.015 89.6648L235.683 87.4812C235.75 87.2083 236.084 86.7988 236.618 86.7988H237.085H237.619C238.153 86.7988 238.487 87.2765 238.554 87.4812L239.222 89.6648C239.355 90.1425 238.754 90.3472 238.621 89.8695L238.02 87.8906H237.819L238.821 91.439H237.886V94.1003C237.886 94.578 237.219 94.578 237.219 94.1003V91.439H236.952Z" fill="white"/>
<path d="M245.63 75.6079V104.063H228.138V75.6079H197.425V104.063H179.933V75.6079H172.455V114.367H252.974V75.6079H245.63Z" fill="black"/>
<path d="M113.482 26.5591H118.397V25.2913H115.02V23.5548H118.131V22.2871H115.02V20.5541H118.383V19.2864H113.482V26.5591ZM120.859 26.5591L121.398 24.9007H124.023L124.563 26.5591H126.21L123.703 19.2864H121.722L119.211 26.5591H120.859ZM121.789 23.7004L122.684 20.9483H122.741L123.636 23.7004H121.789ZM130.865 21.378H132.339C132.317 20.0818 131.252 19.1869 129.633 19.1869C128.038 19.1869 126.87 20.0676 126.877 21.3886C126.873 22.4611 127.63 23.0754 128.859 23.3702L129.65 23.569C130.442 23.7608 130.883 23.9881 130.886 24.4781C130.883 25.0108 130.378 25.373 129.597 25.373C128.798 25.373 128.223 25.0037 128.173 24.2757H126.685C126.724 25.8489 127.85 26.6621 129.615 26.6621C131.391 26.6621 132.435 25.8133 132.438 24.4817C132.435 23.2707 131.522 22.628 130.258 22.3439L129.604 22.1876C128.972 22.042 128.443 21.8077 128.454 21.2856C128.454 20.8169 128.869 20.4724 129.622 20.4724C130.357 20.4724 130.808 20.8062 130.865 21.378ZM133.195 20.5541H135.422V26.5591H136.942V20.5541H139.168V19.2864H133.195V20.5541ZM102.922 32.5541H105.148V38.5591H106.668V32.5541H108.895V31.2864H102.922V32.5541ZM116.24 34.9227C116.24 32.5435 114.762 31.1869 112.834 31.1869C110.895 31.1869 109.429 32.5435 109.429 34.9227C109.429 37.2913 110.895 38.6585 112.834 38.6585C114.762 38.6585 116.24 37.302 116.24 34.9227ZM114.681 34.9227C114.681 36.4639 113.949 37.2984 112.834 37.2984C111.715 37.2984 110.987 36.4639 110.987 34.9227C110.987 33.3815 111.715 32.547 112.834 32.547C113.949 32.547 114.681 33.3815 114.681 34.9227ZM118.742 38.5591H120.241L121.622 33.8041H121.679L123.064 38.5591H124.563L126.644 31.2864H124.964L123.76 36.3503H123.696L122.372 31.2864H120.933L119.605 36.3396H119.545L118.341 31.2864H116.661L118.742 38.5591ZM127.466 38.5591H132.381V37.2913H129.004V35.5548H132.115V34.2871H129.004V32.5541H132.367V31.2864H127.466V38.5591ZM133.59 38.5591H135.127V35.981H136.249L137.627 38.5591H139.325L137.78 35.7324C138.607 35.3773 139.065 34.6564 139.065 33.6621C139.065 32.2168 138.11 31.2864 136.459 31.2864H133.59V38.5591ZM135.127 34.7452V32.5435H136.164C137.052 32.5435 137.482 32.9376 137.482 33.6621C137.482 34.3829 137.052 34.7452 136.171 34.7452H135.127Z" fill="black"/>
<path d="M187.874 311.862H189.372L190.754 307.107H190.81L192.195 311.862H193.694L195.775 304.589H194.095L192.891 309.653H192.828L191.503 304.589H190.065L188.737 309.642H188.676L187.472 304.589H185.793L187.874 311.862ZM196.598 311.862H201.513V310.594H198.136V308.858H201.246V307.59H198.136V305.857H201.498V304.589H196.598V311.862ZM206.666 306.681H208.14C208.119 305.385 207.053 304.49 205.434 304.49C203.84 304.49 202.671 305.37 202.678 306.691C202.675 307.764 203.431 308.378 204.66 308.673L205.452 308.872C206.244 309.064 206.684 309.291 206.688 309.781C206.684 310.314 206.18 310.676 205.399 310.676C204.6 310.676 204.024 310.306 203.975 309.578H202.487C202.526 311.152 203.651 311.965 205.416 311.965C207.192 311.965 208.236 311.116 208.239 309.784C208.236 308.573 207.323 307.931 206.059 307.647L205.406 307.49C204.774 307.345 204.244 307.11 204.255 306.588C204.255 306.12 204.671 305.775 205.423 305.775C206.158 305.775 206.609 306.109 206.666 306.681ZM208.997 305.857H211.223V311.862H212.743V305.857H214.97V304.589H208.997V305.857ZM185.96 317.857H188.186V323.862H189.706V317.857H191.933V316.589H185.96V317.857ZM199.277 320.225C199.277 317.846 197.8 316.49 195.872 316.49C193.933 316.49 192.466 317.846 192.466 320.225C192.466 322.594 193.933 323.961 195.872 323.961C197.8 323.961 199.277 322.605 199.277 320.225ZM197.718 320.225C197.718 321.767 196.987 322.601 195.872 322.601C194.753 322.601 194.025 321.767 194.025 320.225C194.025 318.684 194.753 317.85 195.872 317.85C196.987 317.85 197.718 318.684 197.718 320.225ZM201.78 323.862H203.278L204.66 319.107H204.717L206.102 323.862H207.6L209.681 316.589H208.002L206.798 321.653H206.734L205.409 316.589H203.971L202.643 321.642H202.582L201.379 316.589H199.699L201.78 323.862ZM210.504 323.862H215.419V322.594H212.042V320.858H215.153V319.59H212.042V317.857H215.405V316.589H210.504V323.862ZM216.627 323.862H218.165V321.284H219.287L220.665 323.862H222.362L220.818 321.035C221.645 320.68 222.103 319.959 222.103 318.965C222.103 317.519 221.148 316.589 219.497 316.589H216.627V323.862ZM218.165 320.048V317.846H219.202C220.09 317.846 220.519 318.24 220.519 318.965C220.519 319.686 220.09 320.048 219.209 320.048H218.165Z" fill="black"/>
<path d="M2.59375 43H25.4063V37.4687H11.9688V37.25L16.6406 32.6719C23.2188 26.6719 24.9844 23.6719 24.9844 20.0312C24.9844 14.4844 20.4531 10.5625 13.5938 10.5625C6.875 10.5625 2.26563 14.5781 2.28125 20.8594H8.70313C8.6875 17.7969 10.625 15.9219 13.5469 15.9219C16.3594 15.9219 18.4531 17.6719 18.4531 20.4844C18.4531 23.0312 16.8906 24.7812 13.9844 27.5781L2.59375 38.125V43ZM30.4961 43H37.2617V29.7812H50.2773V24.2031H37.2617V16.5781H51.6836V11H30.4961V43Z" fill="black"/>
<path d="M149.887 245.89C148.639 245.674 147.955 244.816 147.955 244.006V243.61H147.109V244.006C147.109 244.798 146.419 245.674 145.177 245.89L145.513 246.55C146.473 246.364 147.175 245.824 147.529 245.122C147.883 245.824 148.591 246.358 149.551 246.55L149.887 245.89ZM145.057 247.498V248.14H150.061V247.498H145.057ZM153.475 247.564V246.646H155.047V246.022H151.969V245.446H154.879V244.834H151.969V244.294H155.005V243.664H151.165V246.646H152.683V247.564H150.577V248.206H155.581V247.564H153.475ZM157.2 245.89H158.994V243.754H156.384V244.384H158.184V245.266H156.39V247.54H156.888C157.89 247.54 158.7 247.504 159.6 247.348L159.516 246.706C158.736 246.838 158.04 246.88 157.2 246.886V245.89ZM159.9 243.28V248.824H160.692V243.28H159.9ZM146.437 251.432H147.055V253.868C146.845 253.874 146.641 253.886 146.437 253.886V251.432ZM147.817 251.432H148.291V250.796H145.189V251.432H145.669V253.904C145.453 253.904 145.243 253.904 145.045 253.904L145.129 254.552C146.119 254.546 147.391 254.522 148.555 254.324L148.507 253.754C148.279 253.784 148.051 253.808 147.817 253.82V251.432ZM148.861 250.292V255.818H149.659V250.292H148.861ZM154.207 252.314H151.933V251.744H154.207V252.314ZM154.987 250.496H154.207V251.126H151.933V250.496H151.147V252.944H154.987V250.496ZM155.581 253.466H150.577V254.096H152.665V255.818H153.457V254.096H155.581V253.466ZM159.024 253.4C159.174 252.488 159.174 251.816 159.174 251.282V250.832H156.33V251.462H158.394C158.394 251.954 158.376 252.548 158.25 253.334L159.024 253.4ZM157.818 252.416H157.038V254.048C156.69 254.054 156.354 254.054 156.048 254.054L156.12 254.702C157.08 254.696 158.316 254.672 159.438 254.48L159.396 253.91C158.892 253.97 158.352 254.006 157.818 254.024V252.416ZM161.184 252.506H160.44V250.28H159.648V255.806H160.44V253.166H161.184V252.506Z" fill="black"/>
<path d="M20.6664 219.614H22.3764V218.984H19.8744V222.698H20.3244C21.3324 222.698 21.9924 222.674 22.7364 222.536L22.6584 221.894C22.0284 222.002 21.4584 222.044 20.6664 222.05V219.614ZM23.4624 218.492V220.4H22.1124V221.036H23.4624V224.036H24.2544V218.492H23.4624ZM29.606 221.342H26.528V220.724H29.438V220.112H26.528V219.53H29.564V218.894H25.724V221.966H29.606V221.342ZM25.136 222.74V223.382H30.14V222.74H25.136ZM31.7595 221.096H33.5535V218.96H30.9435V219.59H32.7435V220.472H30.9495V222.746H31.4475C32.4495 222.746 33.2595 222.71 34.1595 222.554L34.0755 221.912C33.2955 222.044 32.5995 222.086 31.7595 222.092V221.096ZM34.4595 218.486V224.03H35.2515V218.486H34.4595ZM37.249 219.014H36.463V222.656H36.955C37.795 222.656 38.713 222.596 39.655 222.398L39.571 221.738C38.761 221.9 37.975 221.96 37.249 221.978V219.014ZM39.997 218.486V224.012H40.789V218.486H39.997ZM42.7806 221.108H44.5566V220.49H42.7806V219.59H44.7846V218.948H41.9886V222.77H42.4686C43.4586 222.77 44.2326 222.746 45.0966 222.614L45.0246 221.984C44.2686 222.098 43.6026 222.128 42.7806 222.134V221.108ZM45.4986 218.492V224.024H46.2966V218.492H45.4986ZM32.7257 228.096C31.4777 227.88 30.7937 227.022 30.7937 226.212V225.816H29.9477V226.212C29.9477 227.004 29.2577 227.88 28.0157 228.096L28.3517 228.756C29.3117 228.57 30.0137 228.03 30.3677 227.328C30.7217 228.03 31.4297 228.564 32.3897 228.756L32.7257 228.096ZM27.8957 229.704V230.346H32.8997V229.704H27.8957ZM34.7293 226.638H35.2993V229.074C35.1073 229.08 34.9153 229.086 34.7293 229.092V226.638ZM36.0613 226.638H36.5353V226.002H33.4873V226.638H33.9613V229.11C33.7453 229.11 33.5353 229.11 33.3433 229.11L33.4273 229.758C34.3693 229.758 35.6233 229.734 36.7453 229.536L36.6973 228.96C36.4933 228.99 36.2773 229.002 36.0613 229.02V226.638ZM38.5453 227.58H37.7413V225.498H36.9493V231.024H37.7413V228.234H38.5453V227.58Z" fill="black"/>
<path d="M287.49 20.4983C286.242 20.2823 285.558 19.4243 285.558 18.6143V18.2183H284.712V18.6143C284.712 19.4063 284.022 20.2823 282.78 20.4983L283.116 21.1583C284.076 20.9723 284.778 20.4323 285.132 19.7303C285.486 20.4323 286.194 20.9663 287.154 21.1583L287.49 20.4983ZM282.66 22.1063V22.7483H287.664V22.1063H282.66ZM290.321 18.3203H289.529V19.1243C289.529 20.1983 289.073 21.2663 288.107 21.6803L288.581 22.3343C289.241 22.0223 289.691 21.4283 289.937 20.6903C290.183 21.3683 290.609 21.9143 291.245 22.2023L291.695 21.5603C290.759 21.1583 290.321 20.1503 290.321 19.1243V18.3203ZM291.965 17.8883V23.4323H292.757V17.8883H291.965ZM278.622 28.5063C278.208 28.5063 277.932 28.0683 277.932 27.2463C277.932 26.4303 278.208 25.9923 278.622 25.9923C279.03 25.9923 279.312 26.4303 279.312 27.2463C279.312 28.0683 279.03 28.5063 278.622 28.5063ZM278.622 25.2783C277.782 25.2783 277.17 26.0343 277.17 27.2463C277.17 28.4643 277.782 29.2263 278.622 29.2263C279.456 29.2263 280.074 28.4643 280.074 27.2463C280.074 26.0343 279.456 25.2783 278.622 25.2783ZM282.27 26.9763H281.466V24.8943H280.674V30.4203H281.466V27.6303H282.27V26.9763ZM283.668 27.4983H285.42V25.3623H282.882V25.9923H284.64V26.8743H282.888V29.1543H283.356C284.316 29.1543 285.078 29.1183 285.906 28.9683L285.834 28.3263C285.114 28.4523 284.46 28.4943 283.668 28.5003V27.4983ZM287.79 26.9763H286.998V24.8883H286.206V30.4323H286.998V27.6303H287.79V26.9763ZM288.449 25.3923V29.1063H291.107V25.3923H288.449ZM290.327 26.0163V28.4823H289.229V26.0163H290.327ZM291.965 24.8943V30.4323H292.757V24.8943H291.965ZM294.203 28.3203C295.163 28.1463 295.853 27.6603 296.201 27.0063C296.549 27.6483 297.251 28.1223 298.223 28.2903L298.523 27.6663C297.275 27.4803 296.621 26.7483 296.615 25.9863H298.277V25.3623H294.113V25.9863H295.775C295.769 26.7483 295.115 27.4983 293.897 27.6903L294.203 28.3203ZM293.699 29.1183V29.7603H298.703V29.1183H293.699Z" fill="black"/>
<path d="M229.811 23.4341H232.193V24.8981H229.811V23.4341ZM231.401 26.6441V25.5221H232.967V22.8101H229.037V25.5221H230.609V26.6441H228.509V27.2861H233.513V26.6441H231.401ZM238.492 24.3101H235.432V24.0101H238.324V23.4341H235.432V23.1461H238.45V22.5461H234.646V24.9101H238.492V24.3101ZM237.634 27.0221C237.634 27.2501 237.274 27.3521 236.512 27.3521C235.75 27.3521 235.396 27.2501 235.396 27.0221C235.396 26.7941 235.75 26.6981 236.512 26.6981C237.274 26.6981 237.634 26.7941 237.634 27.0221ZM239.02 25.8161V25.1921H234.022V25.8161H236.122V26.1281C235.15 26.1941 234.598 26.4941 234.598 27.0221C234.598 27.6101 235.3 27.9341 236.512 27.9341C237.724 27.9341 238.432 27.6101 238.432 27.0221C238.432 26.5001 237.88 26.1941 236.914 26.1281V25.8161H239.02ZM243.334 22.3961V27.9401H244.126V22.3961H243.334ZM241.156 22.7861C240.322 22.7861 239.704 23.5421 239.704 24.7541C239.704 25.9721 240.322 26.7341 241.156 26.7341C241.99 26.7341 242.608 25.9721 242.608 24.7541C242.608 23.5421 241.99 22.7861 241.156 22.7861ZM241.156 23.5001C241.564 23.5001 241.846 23.9381 241.846 24.7541C241.846 25.5761 241.564 26.0141 241.156 26.0141C240.748 26.0141 240.466 25.5761 240.466 24.7541C240.466 23.9381 240.748 23.5001 241.156 23.5001ZM247.557 23.2181C248.277 23.2181 248.739 23.4341 248.739 23.8301C248.739 24.2321 248.277 24.4481 247.557 24.4481C246.831 24.4481 246.369 24.2321 246.369 23.8301C246.369 23.4341 246.831 23.2181 247.557 23.2181ZM247.557 25.0781C248.733 25.0781 249.555 24.5921 249.555 23.8301C249.555 23.0801 248.733 22.5881 247.557 22.5881C246.375 22.5881 245.559 23.0801 245.559 23.8301C245.559 24.5921 246.375 25.0781 247.557 25.0781ZM250.071 25.4921H245.067V26.1281H247.155V27.9341H247.947V26.1281H250.071V25.4921Z" fill="black"/>
<path d="M287.623 76.3313V78.9413H288.288V76.3313H287.623ZM285.223 79.1463V80.8813H288.288V79.1463H285.223ZM287.643 79.6613V80.3663H285.873V79.6613H287.643ZM285.783 76.5413C285.068 76.5413 284.528 77.0013 284.528 77.6513C284.528 78.2963 285.068 78.7563 285.783 78.7563C286.498 78.7563 287.033 78.2963 287.033 77.6513C287.033 77.0013 286.498 76.5413 285.783 76.5413ZM285.783 77.0913C286.128 77.0913 286.388 77.3013 286.388 77.6513C286.388 77.9963 286.128 78.2063 285.783 78.2063C285.433 78.2063 285.173 77.9963 285.173 77.6513C285.173 77.3013 285.433 77.0913 285.783 77.0913ZM291.608 78.6363H290.668V77.2563H291.608V78.6363ZM290.013 78.6363H289.413V79.1613H292.873V78.6363H292.263V77.2563H292.888V76.7313H289.388V77.2563H290.013V78.6363ZM289.063 79.8663V80.4013H293.233V79.8663H289.063ZM294.427 78.5463H295.412V76.7813H293.782V77.3063H294.772V78.0263H293.787V79.8613H294.112C294.687 79.8613 295.197 79.8463 295.792 79.7413L295.737 79.2113C295.272 79.2863 294.862 79.3113 294.427 79.3213V78.5463ZM296.052 77.8963H295.597V78.4363H296.052V80.7213H296.662V76.4113H296.052V77.8963ZM296.987 76.3263V80.9313H297.612V76.3263H296.987ZM301.452 79.7413H302.112V76.3313H301.452V76.9313H300.687V77.4563H301.452V77.8163H300.687V78.3463H301.452V79.7413ZM301.012 78.6613C300.282 78.3863 299.982 77.7563 299.982 77.1263V76.5913H299.312V77.1263C299.312 77.7963 298.997 78.4413 298.237 78.7113L298.582 79.2263C299.107 79.0313 299.457 78.6563 299.652 78.1863C299.842 78.6263 300.167 78.9813 300.647 79.1713L301.012 78.6613ZM299.732 80.3313V79.4313H299.072V80.8563H302.212V80.3313H299.732Z" fill="black"/>
<path d="M162.466 43.8362V44.2562H163.63C163.614 44.4322 163.586 44.5922 163.55 44.7482L162.27 44.8202L162.338 45.2642L163.39 45.1682C163.178 45.5722 162.822 45.9122 162.25 46.2122L162.538 46.6122C163.858 45.9202 164.154 44.9682 164.154 43.8362H162.466ZM164.834 43.4842V44.8962H164.146V45.3242H164.834V47.1682H165.362V43.4842H164.834ZM166.882 44.2482H167.294V45.8722C167.154 45.8762 167.018 45.8842 166.882 45.8842V44.2482ZM167.802 44.2482H168.118V43.8242H166.05V44.2482H166.37V45.8962C166.226 45.8962 166.086 45.8962 165.954 45.8962L166.01 46.3282C166.67 46.3242 167.518 46.3082 168.294 46.1762L168.262 45.7962C168.11 45.8162 167.958 45.8322 167.802 45.8402V44.2482ZM168.498 43.4882V47.1722H169.03V43.4882H168.498ZM163.662 50.2202C162.83 50.0762 162.374 49.5042 162.374 48.9642V48.7002H161.81V48.9642C161.81 49.4922 161.35 50.0762 160.522 50.2202L160.746 50.6602C161.386 50.5362 161.854 50.1762 162.09 49.7082C162.326 50.1762 162.798 50.5322 163.438 50.6602L163.662 50.2202ZM160.442 51.2922V51.7202H163.778V51.2922H160.442ZM164.838 48.8322H164.314V51.2602H164.642C165.202 51.2602 165.814 51.2202 166.442 51.0882L166.386 50.6482C165.846 50.7562 165.322 50.7962 164.838 50.8082V48.8322ZM166.67 48.4802V52.1642H167.198V48.4802H166.67ZM168.702 49.2282H169.066V50.8802C168.942 50.8882 168.822 50.8922 168.702 50.8962V49.2282ZM169.574 49.2282H169.918V48.8082H167.886V49.2282H168.19V50.9082C168.05 50.9082 167.914 50.9082 167.786 50.9082L167.842 51.3362C168.47 51.3362 169.306 51.3202 170.042 51.1922L170.01 50.8082C169.87 50.8242 169.722 50.8402 169.574 50.8482V49.2282ZM170.366 48.4842V49.8202H169.818V50.2482H170.366V52.1722H170.894V48.4842H170.366Z" fill="black"/>
<path d="M157.692 92.6817C157.692 92.3997 157.953 92.2347 158.331 92.2347C158.712 92.2347 158.973 92.3997 158.973 92.6817C158.973 92.9637 158.712 93.1287 158.331 93.1287C157.953 93.1287 157.692 92.9637 157.692 92.6817ZM158.529 93.8997V93.4317C159.018 93.3747 159.363 93.0927 159.363 92.6817C159.363 92.2197 158.922 91.9197 158.331 91.9197C157.743 91.9197 157.302 92.2197 157.302 92.6817C157.302 93.0927 157.647 93.3717 158.133 93.4317V93.8997H157.083V94.2207H159.585V93.8997H158.529ZM160.395 93.0807H161.292V92.0127H159.987V92.3277H160.887V92.7687H159.99V93.9057H160.239C160.74 93.9057 161.145 93.8877 161.595 93.8097L161.553 93.4887C161.163 93.5547 160.815 93.5757 160.395 93.5787V93.0807ZM161.745 91.7757V94.5477H162.141V91.7757H161.745ZM163.67 92.3697H164.24V92.0427H162.692V92.3697H163.268V92.5227C163.268 92.9937 163.043 93.5007 162.581 93.7077L162.806 94.0227C163.13 93.8757 163.352 93.5727 163.475 93.2127C163.598 93.5457 163.817 93.8157 164.138 93.9537L164.354 93.6417C163.892 93.4497 163.67 92.9727 163.67 92.5227V92.3697ZM164.495 91.7787V94.5417H164.891V91.7787H164.495ZM167.276 93.1737H167.672V91.7757H167.276V92.1627H166.607V92.4777H167.276V93.1737ZM166.952 92.6907C166.586 92.7537 166.241 92.7807 165.905 92.7867V91.8897H165.512V93.1137H165.746C166.145 93.1137 166.556 93.0927 167.003 93.0087L166.952 92.6907ZM166.25 94.1997V94.0317H167.672V93.2787H165.851V93.5877H167.276V93.7407H165.854V94.5087H167.741V94.1997H166.25ZM158.874 96.9007H159.063V97.8697H159.438V95.7817H159.063V96.5797H158.874V95.8297H158.505V97.7797H158.874V96.9007ZM157.632 96.3487H157.845V97.1077C157.776 97.1107 157.701 97.1137 157.632 97.1137V96.3487ZM158.397 97.0627C158.337 97.0717 158.268 97.0777 158.199 97.0867V96.3487H158.37V96.0337H157.107V96.3487H157.278V97.1227C157.2 97.1227 157.128 97.1227 157.059 97.1227L157.101 97.4437C157.443 97.4437 157.998 97.4347 158.421 97.3507L158.397 97.0627ZM157.962 98.1787V97.6207H157.563V98.4937H159.504V98.1787H157.962ZM161.268 96.8197H160.983C161.04 96.5947 161.061 96.3487 161.061 96.0877H159.984V96.4057H160.68C160.671 96.5167 160.656 96.6217 160.632 96.7207L159.846 96.7627L159.891 97.0927L160.527 97.0267C160.398 97.2907 160.179 97.5187 159.831 97.7227L160.05 97.9987C160.47 97.7557 160.728 97.4647 160.875 97.1347H161.268V98.4187H161.637V95.8387H161.268V96.8197ZM161.844 95.7757V98.5387H162.219V95.7757H161.844ZM164.495 95.7757V98.5477H164.891V95.7757H164.495ZM163.406 95.9707C162.989 95.9707 162.68 96.3487 162.68 96.9547C162.68 97.5637 162.989 97.9447 163.406 97.9447C163.823 97.9447 164.132 97.5637 164.132 96.9547C164.132 96.3487 163.823 95.9707 163.406 95.9707ZM163.406 96.3277C163.61 96.3277 163.751 96.5467 163.751 96.9547C163.751 97.3657 163.61 97.5847 163.406 97.5847C163.202 97.5847 163.061 97.3657 163.061 96.9547C163.061 96.5467 163.202 96.3277 163.406 96.3277ZM165.566 96.8347L165.614 97.1557L167.192 97.0747C167.174 97.2607 167.144 97.4617 167.09 97.6867L167.48 97.7257C167.609 97.1257 167.609 96.7447 167.609 96.3427V96.0217H165.644V96.3367H167.219V96.3427C167.219 96.4837 167.219 96.6277 167.213 96.7807L165.566 96.8347ZM165.365 97.8907V98.2147H167.861V97.8907H165.365Z" fill="black"/>
</g>
<path d="M38.7666 359.862L38.958 361.175L39.2383 359.992L41.207 353.047H42.3145L44.2354 359.992L44.5088 361.195L44.7207 359.855L46.2656 353.047H47.585L45.1719 363H43.9756L41.9248 355.747L41.7676 354.988L41.6104 355.747L39.4844 363H38.2881L35.8818 353.047H37.1943L38.7666 359.862ZM54.6738 358.399H50.3604V361.927H55.3711V363H49.0479V353.047H55.3027V354.127H50.3604V357.326H54.6738V358.399ZM59.9375 358.563C58.8118 358.24 57.9915 357.843 57.4766 357.374C56.9661 356.9 56.7109 356.317 56.7109 355.624C56.7109 354.84 57.0231 354.193 57.6475 353.683C58.2764 353.168 59.0921 352.91 60.0947 352.91C60.7783 352.91 61.3867 353.042 61.9199 353.307C62.4577 353.571 62.8724 353.936 63.1641 354.4C63.4603 354.865 63.6084 355.373 63.6084 355.925H62.2891C62.2891 355.323 62.0977 354.852 61.7148 354.51C61.332 354.163 60.792 353.99 60.0947 353.99C59.4476 353.99 58.9417 354.134 58.5771 354.421C58.2171 354.703 58.0371 355.098 58.0371 355.604C58.0371 356.009 58.208 356.353 58.5498 356.636C58.8962 356.914 59.4818 357.169 60.3066 357.401C61.1361 357.634 61.7832 357.891 62.248 358.174C62.7174 358.452 63.0638 358.778 63.2871 359.151C63.515 359.525 63.6289 359.965 63.6289 360.471C63.6289 361.277 63.3145 361.924 62.6855 362.412C62.0566 362.895 61.2158 363.137 60.1631 363.137C59.4795 363.137 58.8415 363.007 58.249 362.747C57.6566 362.483 57.1986 362.123 56.875 361.667C56.556 361.211 56.3965 360.694 56.3965 360.115H57.7158C57.7158 360.717 57.9368 361.193 58.3789 361.544C58.8255 361.89 59.4202 362.063 60.1631 362.063C60.8558 362.063 61.3867 361.922 61.7559 361.64C62.125 361.357 62.3096 360.972 62.3096 360.484C62.3096 359.997 62.1387 359.621 61.7969 359.356C61.4551 359.088 60.8353 358.823 59.9375 358.563ZM72.1943 354.127H68.9951V363H67.6895V354.127H64.4971V353.047H72.1943V354.127ZM87.0548 351.492H85.9488V358.016H87.0548V351.492ZM77.6048 354.81C77.6048 353.746 78.3748 352.976 79.4388 352.976C80.4888 352.976 81.2588 353.746 81.2588 354.81C81.2588 355.916 80.4888 356.686 79.4388 356.686C78.3748 356.686 77.6048 355.916 77.6048 354.81ZM83.5828 355.272V357.932H84.6608V351.744H83.5828V354.348H82.2528C82.0568 352.976 80.9368 352.066 79.4388 352.066C77.7728 352.066 76.5828 353.186 76.5828 354.81C76.5828 356.462 77.7728 357.596 79.4388 357.596C80.9368 357.596 82.0708 356.672 82.2668 355.272H83.5828ZM79.9288 362.944V361.6H87.0548V358.604H78.7668V359.514H85.9068V360.732H78.7948V363.868H87.5308V362.944H79.9288ZM91.2118 357.12H95.8458V352.64H90.0218V353.578H94.6838V356.196H90.0638V361.012H91.0998C93.2558 361.012 95.1598 360.928 97.4278 360.55L97.3158 359.612C95.1178 359.962 93.2698 360.06 91.2118 360.06V357.12ZM98.4918 351.464V364.05H99.6398V351.464H98.4918ZM106.401 359.948H103.755V356.7H106.401V359.948ZM109.299 356.252H107.479V352.724H106.401V355.776H103.755V352.724H102.663V360.886H107.479V357.19H109.299V363.42H110.391V351.758H109.299V356.252ZM111.791 351.478V364.036H112.883V351.478H111.791ZM124.222 351.478V364.064H125.37V351.478H124.222ZM118.748 352.444C116.886 352.444 115.556 354.152 115.556 356.826C115.556 359.5 116.886 361.208 118.748 361.208C120.61 361.208 121.94 359.5 121.94 356.826C121.94 354.152 120.61 352.444 118.748 352.444ZM118.748 353.48C119.966 353.48 120.834 354.796 120.834 356.826C120.834 358.87 119.966 360.186 118.748 360.186C117.516 360.186 116.648 358.87 116.648 356.826C116.648 354.796 117.516 353.48 118.748 353.48ZM129.694 357.078H133.81V356.154H129.694V353.564H134.356V352.612H128.546V361.026H129.512C131.906 361.026 133.432 360.956 135.252 360.634L135.126 359.696C133.418 360.004 131.962 360.088 129.694 360.088V357.078ZM137.17 351.464V356.21H134.58V357.162H137.17V364.05H138.318V351.464H137.17ZM149.643 353.676H142.307V356.364H151.001V355.538H143.441V354.46H150.777V351.842H142.279V352.654H149.643V353.676ZM143.371 361.88H150.819V359.206H142.209V360.032H149.685V361.082H142.237V363.868H151.211V363.042H143.371V361.88ZM140.851 357.316V358.184H152.233V357.316H140.851ZM166.331 351.478V364.064H167.479V351.478H166.331ZM160.857 352.444C158.995 352.444 157.665 354.152 157.665 356.826C157.665 359.5 158.995 361.208 160.857 361.208C162.719 361.208 164.049 359.5 164.049 356.826C164.049 354.152 162.719 352.444 160.857 352.444ZM160.857 353.48C162.075 353.48 162.943 354.796 162.943 356.826C162.943 358.87 162.075 360.186 160.857 360.186C159.625 360.186 158.757 358.87 158.757 356.826C158.757 354.796 159.625 353.48 160.857 353.48ZM175.752 363.14C173.778 363.14 172.616 362.65 172.616 361.796C172.616 360.942 173.778 360.452 175.752 360.452C177.712 360.452 178.888 360.942 178.888 361.796C178.888 362.65 177.712 363.14 175.752 363.14ZM175.752 359.556C173.064 359.556 171.454 360.354 171.454 361.796C171.454 363.238 173.064 364.022 175.752 364.022C178.454 364.022 180.05 363.238 180.05 361.796C180.05 360.354 178.454 359.556 175.752 359.556ZM174.016 356.224C174.534 356.308 175.122 356.364 175.752 356.364C176.396 356.364 176.984 356.308 177.502 356.224V357.694H174.016V356.224ZM172.518 354.04C172.518 353.13 173.75 352.598 175.752 352.598C177.754 352.598 178.986 353.13 178.986 354.04C178.986 354.936 177.754 355.482 175.752 355.482C173.75 355.482 172.518 354.936 172.518 354.04ZM178.636 357.694V355.916C179.602 355.524 180.162 354.88 180.162 354.04C180.162 352.57 178.482 351.702 175.752 351.702C173.036 351.702 171.342 352.57 171.342 354.04C171.342 354.894 171.888 355.524 172.882 355.93V357.694H170.068V358.618H181.436V357.694H178.636ZM186.643 360.284C185.509 360.284 184.683 359.472 184.683 358.352C184.683 357.218 185.509 356.406 186.643 356.406C187.791 356.406 188.617 357.218 188.617 358.352C188.617 359.472 187.791 360.284 186.643 360.284ZM186.643 355.454C184.879 355.454 183.605 356.658 183.605 358.352C183.605 360.06 184.879 361.236 186.643 361.236C188.435 361.236 189.709 360.06 189.709 358.352C189.709 356.658 188.435 355.454 186.643 355.454ZM187.203 351.632H186.055V353.494H182.891V354.418H190.297V353.494H187.203V351.632ZM194.693 356.644H192.635V351.492H191.487V364.036H192.635V357.61H194.693V356.644ZM202.182 358.254C202.266 357.82 202.322 357.344 202.322 356.826C202.322 356.252 202.252 355.72 202.14 355.23H205.038V358.254H202.182ZM199.2 360.186C197.996 360.186 197.156 358.87 197.156 356.826C197.156 354.796 197.996 353.48 199.2 353.48C200.39 353.48 201.244 354.796 201.244 356.826C201.244 358.87 200.39 360.186 199.2 360.186ZM205.038 351.478V354.292H201.818C201.286 353.116 200.362 352.444 199.2 352.444C197.366 352.444 196.064 354.152 196.064 356.826C196.064 359.5 197.366 361.208 199.2 361.208C200.404 361.208 201.384 360.466 201.902 359.192H205.038V364.064H206.186V351.478H205.038ZM221.319 351.478V364.064H222.467V351.478H221.319ZM215.845 352.444C213.983 352.444 212.653 354.152 212.653 356.826C212.653 359.5 213.983 361.208 215.845 361.208C217.707 361.208 219.037 359.5 219.037 356.826C219.037 354.152 217.707 352.444 215.845 352.444ZM215.845 353.48C217.063 353.48 217.931 354.796 217.931 356.826C217.931 358.87 217.063 360.186 215.845 360.186C214.613 360.186 213.745 358.87 213.745 356.826C213.745 354.796 214.613 353.48 215.845 353.48ZM230.754 363.14C228.766 363.14 227.604 362.65 227.604 361.768C227.604 360.886 228.766 360.396 230.754 360.396C232.714 360.396 233.876 360.886 233.876 361.768C233.876 362.65 232.714 363.14 230.754 363.14ZM230.754 359.5C228.066 359.5 226.442 360.312 226.442 361.768C226.442 363.224 228.066 364.036 230.754 364.036C233.414 364.036 235.038 363.224 235.038 361.768C235.038 360.312 233.414 359.5 230.754 359.5ZM231.328 357.68V356.224H235.108V355.3H227.646V352.976H235.024V352.052H226.498V356.224H230.18V357.68H225.07V358.604H236.438V357.68H231.328ZM241.631 360.284C240.497 360.284 239.671 359.472 239.671 358.352C239.671 357.218 240.497 356.406 241.631 356.406C242.779 356.406 243.605 357.218 243.605 358.352C243.605 359.472 242.779 360.284 241.631 360.284ZM241.631 355.454C239.867 355.454 238.593 356.658 238.593 358.352C238.593 360.06 239.867 361.236 241.631 361.236C243.423 361.236 244.697 360.06 244.697 358.352C244.697 356.658 243.423 355.454 241.631 355.454ZM242.191 351.632H241.043V353.494H237.879V354.418H245.285V353.494H242.191V351.632ZM249.681 356.644H247.623V351.492H246.475V364.036H247.623V357.61H249.681V356.644ZM254.552 352.668H253.446V355.062C253.446 357.218 252.41 359.472 250.688 360.48L251.402 361.334C252.648 360.564 253.558 359.15 254.006 357.484C254.454 359.01 255.294 360.34 256.484 361.068L257.142 360.172C255.49 359.164 254.552 357.036 254.552 355.02V352.668ZM257.856 355.986H255.784V356.938H257.856V363.42H258.934V351.758H257.856V355.986ZM260.404 351.478V364.036H261.496V351.478H260.404ZM267.641 358.52C268.159 358.646 268.761 358.716 269.377 358.716C270.007 358.716 270.609 358.646 271.141 358.52V361.474H267.641V358.52ZM269.377 353.172C271.393 353.172 272.849 354.096 272.849 355.496C272.849 356.896 271.393 357.82 269.377 357.82C267.361 357.82 265.919 356.896 265.919 355.496C265.919 354.096 267.361 353.172 269.377 353.172ZM272.289 361.474V358.072C273.325 357.526 273.941 356.63 273.941 355.496C273.941 353.536 272.051 352.276 269.377 352.276C266.717 352.276 264.813 353.536 264.813 355.496C264.813 356.63 265.443 357.54 266.493 358.086V361.474H263.693V362.426H275.103V361.474H272.289ZM276.828 362.337C276.828 362.118 276.892 361.936 277.02 361.79C277.152 361.644 277.348 361.571 277.607 361.571C277.867 361.571 278.063 361.644 278.195 361.79C278.332 361.936 278.4 362.118 278.4 362.337C278.4 362.547 278.332 362.722 278.195 362.863C278.063 363.005 277.867 363.075 277.607 363.075C277.348 363.075 277.152 363.005 277.02 362.863C276.892 362.722 276.828 362.547 276.828 362.337Z" fill="black"/>
<path d="M206.616 419.357H208.116V417.857V387.5H313.5V714.5H1.5V447.5H161.319H162.819V446V419.357H206.616Z" fill="#C4C4C4" stroke="black" stroke-width="3" stroke-miterlimit="10"/>
<path d="M251.266 471.337H241.75V506.373H251.266V471.337Z" fill="black"/>
<path d="M113.266 630.412H103.75V665.448H113.266V630.412Z" fill="black"/>
<path d="M276.806 471.337H267.29V506.373H276.806V471.337Z" fill="black"/>
<path d="M138.806 630.412H129.29V665.448H138.806V630.412Z" fill="black"/>
<path d="M265.448 471.337H253.107V506.373H265.448V471.337Z" fill="black"/>
<path d="M127.448 630.412H115.107V665.448H127.448V630.412Z" fill="black"/>
<path d="M240 471.412H167V506.412H240V471.412Z" fill="black"/>
<path d="M102 630.487H29V665.487H102V630.487Z" fill="black"/>
<path d="M262.87 492.285V486.971C262.87 486.414 262.44 485.982 261.887 485.982H256.607C256.055 485.982 255.625 486.414 255.625 486.971V492.285C255.625 492.841 256.055 493.273 256.607 493.273H261.887C262.44 493.212 262.87 492.841 262.87 492.285ZM262.072 492.408H256.423V486.785H262.072V492.408Z" fill="white"/>
<path d="M260.168 482.521C260.168 482.089 260.782 482.089 260.782 482.521V484.251L261.089 483.881C261.335 483.633 261.703 484.004 261.457 484.251L260.659 485.178C260.536 485.302 260.352 485.302 260.229 485.178L259.431 484.251C259.186 483.942 259.616 483.633 259.8 483.881L260.107 484.313L260.168 482.521Z" fill="white"/>
<path d="M257.774 484.995C257.774 485.428 258.388 485.428 258.388 484.995V483.265L258.695 483.636C258.94 483.883 259.309 483.512 259.063 483.265L258.265 482.338C258.142 482.215 257.958 482.215 257.835 482.338L257.037 483.265C256.791 483.574 257.221 483.883 257.405 483.636L257.712 483.203L257.774 484.995Z" fill="white"/>
<path d="M260.905 488.453H259.861C259.738 488.453 259.615 488.577 259.615 488.7V489.998C259.615 490.122 259.677 490.183 259.799 490.183C259.799 490.183 259.861 490.183 259.922 490.183V491.852C259.922 492.161 260.352 492.161 260.352 491.852V490.183H260.413V491.852C260.413 492.161 260.843 492.161 260.843 491.852V490.183C260.905 490.183 260.966 490.183 260.966 490.183C261.089 490.183 261.15 490.122 261.15 489.998V488.7C261.15 488.577 261.027 488.453 260.905 488.453Z" fill="white"/>
<path d="M260.352 488.33C260.521 488.33 260.659 488.192 260.659 488.021C260.659 487.85 260.521 487.712 260.352 487.712C260.182 487.712 260.045 487.85 260.045 488.021C260.045 488.192 260.182 488.33 260.352 488.33Z" fill="white"/>
<path d="M258.695 488.453H257.651C257.528 488.453 257.405 488.577 257.405 488.7V489.998C257.405 490.122 257.467 490.183 257.589 490.183C257.589 490.183 257.651 490.183 257.712 490.183V491.852C257.712 492.161 258.142 492.161 258.142 491.852V490.183H258.203V491.852C258.203 492.161 258.633 492.161 258.633 491.852V490.183C258.695 490.183 258.756 490.183 258.756 490.183C258.879 490.183 258.94 490.122 258.94 489.998V488.7C258.94 488.577 258.817 488.453 258.695 488.453Z" fill="white"/>
<path d="M258.141 488.33C258.311 488.33 258.448 488.192 258.448 488.021C258.448 487.85 258.311 487.712 258.141 487.712C257.971 487.712 257.834 487.85 257.834 488.021C257.834 488.192 257.971 488.33 258.141 488.33Z" fill="white"/>
<path d="M124.87 651.36V646.046C124.87 645.49 124.44 645.057 123.887 645.057H118.607C118.055 645.057 117.625 645.49 117.625 646.046V651.36C117.625 651.916 118.055 652.349 118.607 652.349H123.887C124.44 652.287 124.87 651.916 124.87 651.36ZM124.072 651.484H118.423V645.86H124.072V651.484Z" fill="white"/>
<path d="M122.168 641.596C122.168 641.164 122.782 641.164 122.782 641.596V643.327L123.089 642.956C123.335 642.709 123.703 643.079 123.457 643.327L122.659 644.253C122.536 644.377 122.352 644.377 122.229 644.253L121.431 643.327C121.186 643.018 121.616 642.709 121.8 642.956L122.107 643.388L122.168 641.596Z" fill="white"/>
<path d="M119.774 644.071C119.774 644.503 120.388 644.503 120.388 644.071V642.34L120.695 642.711C120.94 642.958 121.309 642.588 121.063 642.34L120.265 641.413C120.142 641.29 119.958 641.29 119.835 641.413L119.037 642.34C118.791 642.649 119.221 642.958 119.405 642.711L119.712 642.279L119.774 644.071Z" fill="white"/>
<path d="M122.905 647.528H121.861C121.738 647.528 121.615 647.652 121.615 647.775V649.073C121.615 649.197 121.677 649.259 121.799 649.259C121.799 649.259 121.861 649.259 121.922 649.259V650.927C121.922 651.236 122.352 651.236 122.352 650.927V649.259H122.413V650.927C122.413 651.236 122.843 651.236 122.843 650.927V649.259C122.905 649.259 122.966 649.259 122.966 649.259C123.089 649.259 123.15 649.197 123.15 649.073V647.775C123.15 647.652 123.027 647.528 122.905 647.528Z" fill="white"/>
<path d="M122.352 647.405C122.521 647.405 122.659 647.267 122.659 647.096C122.659 646.925 122.521 646.787 122.352 646.787C122.182 646.787 122.045 646.925 122.045 647.096C122.045 647.267 122.182 647.405 122.352 647.405Z" fill="white"/>
<path d="M120.695 647.528H119.651C119.528 647.528 119.405 647.652 119.405 647.775V649.073C119.405 649.197 119.467 649.259 119.589 649.259C119.589 649.259 119.651 649.259 119.712 649.259V650.927C119.712 651.236 120.142 651.236 120.142 650.927V649.259H120.203V650.927C120.203 651.236 120.633 651.236 120.633 650.927V649.259C120.695 649.259 120.756 649.259 120.756 649.259C120.879 649.259 120.94 649.197 120.94 649.073V647.775C120.94 647.652 120.817 647.528 120.695 647.528Z" fill="white"/>
<path d="M120.141 647.405C120.311 647.405 120.448 647.267 120.448 647.096C120.448 646.925 120.311 646.787 120.141 646.787C119.971 646.787 119.834 646.925 119.834 647.096C119.834 647.267 119.971 647.405 120.141 647.405Z" fill="white"/>
<path d="M175.845 694.272C176.214 694.272 176.521 693.963 176.521 693.592C176.521 693.221 176.214 692.912 175.845 692.912C175.477 692.912 175.17 693.221 175.17 693.592C175.17 693.963 175.477 694.272 175.845 694.272Z" fill="white"/>
<path d="M264.158 517.495C264.526 517.495 264.833 517.186 264.833 516.815C264.833 516.445 264.526 516.136 264.158 516.136C263.789 516.136 263.482 516.445 263.482 516.815C263.544 517.186 263.789 517.495 264.158 517.495Z" fill="white"/>
<path d="M126.158 676.57C126.526 676.57 126.833 676.261 126.833 675.891C126.833 675.52 126.526 675.211 126.158 675.211C125.789 675.211 125.482 675.52 125.482 675.891C125.544 676.261 125.789 676.57 126.158 676.57Z" fill="white"/>
<path d="M175.632 486.412H177.17V484.054H178.462C180.135 484.054 181.108 483.056 181.108 481.604C181.108 480.159 180.153 479.139 178.501 479.139H175.632V486.412ZM177.17 482.822V480.396H178.207C179.094 480.396 179.524 480.879 179.524 481.604C179.524 482.325 179.094 482.822 178.214 482.822H177.17ZM183.487 486.515C184.293 486.515 184.815 486.164 185.082 485.656H185.124V486.412H186.559V482.733C186.559 481.433 185.458 480.887 184.244 480.887C182.937 480.887 182.077 481.512 181.868 482.506L183.267 482.619C183.37 482.257 183.693 481.991 184.237 481.991C184.751 481.991 185.046 482.25 185.046 482.698V482.719C185.046 483.07 184.673 483.117 183.725 483.209C182.646 483.308 181.676 483.671 181.676 484.889C181.676 485.968 182.447 486.515 183.487 486.515ZM183.92 485.471C183.455 485.471 183.121 485.254 183.121 484.839C183.121 484.413 183.473 484.203 184.006 484.129C184.336 484.083 184.876 484.004 185.057 483.884V484.463C185.057 485.034 184.585 485.471 183.92 485.471ZM187.733 486.412H189.245V483.326C189.245 482.655 189.735 482.193 190.403 482.193C190.613 482.193 190.9 482.229 191.042 482.275V480.933C190.907 480.901 190.719 480.879 190.566 480.879C189.956 480.879 189.455 481.235 189.256 481.909H189.199V480.958H187.733V486.412ZM191.824 486.412H193.337V484.679L193.746 484.214L195.233 486.412H197.006L194.878 483.319L196.903 480.958H195.166L193.419 483.028H193.337V479.139H191.824V486.412ZM197.645 486.412H199.157V480.958H197.645V486.412ZM198.405 480.254C198.856 480.254 199.225 479.91 199.225 479.487C199.225 479.068 198.856 478.724 198.405 478.724C197.957 478.724 197.588 479.068 197.588 479.487C197.588 479.91 197.957 480.254 198.405 480.254ZM201.882 483.259C201.886 482.556 202.305 482.144 202.915 482.144C203.523 482.144 203.888 482.541 203.885 483.209V486.412H205.398V482.939C205.398 481.668 204.652 480.887 203.516 480.887C202.706 480.887 202.12 481.284 201.875 481.92H201.811V480.958H200.369V486.412H201.882V483.259ZM209.047 488.571C210.606 488.571 211.714 487.861 211.714 486.465V480.958H210.212V481.874H210.155C209.953 481.43 209.509 480.887 208.596 480.887C207.4 480.887 206.388 481.817 206.388 483.674C206.388 485.489 207.371 486.334 208.6 486.334C209.47 486.334 209.956 485.897 210.155 485.446H210.219V486.444C210.219 487.193 209.74 487.485 209.083 487.485C208.415 487.485 208.078 487.193 207.954 486.863L206.555 487.051C206.736 487.911 207.577 488.571 209.047 488.571ZM209.079 485.198C208.337 485.198 207.932 484.608 207.932 483.667C207.932 482.74 208.33 482.09 209.079 482.09C209.814 482.09 210.226 482.712 210.226 483.667C210.226 484.629 209.807 485.198 209.079 485.198ZM175.632 498.412H180.547V497.144H177.17V495.408H180.281V494.14H177.17V492.407H180.533V491.139H175.632V498.412ZM183.009 498.412L183.548 496.754H186.173L186.713 498.412H188.36L185.853 491.139H183.872L181.361 498.412H183.009ZM183.939 495.553L184.834 492.801H184.891L185.786 495.553H183.939ZM193.015 493.231H194.489C194.467 491.935 193.402 491.04 191.783 491.04C190.188 491.04 189.02 491.921 189.027 493.242C189.023 494.314 189.78 494.928 191.009 495.223L191.8 495.422C192.592 495.614 193.033 495.841 193.036 496.331C193.033 496.864 192.528 497.226 191.747 497.226C190.948 497.226 190.373 496.857 190.323 496.129H188.835C188.874 497.702 190 498.515 191.765 498.515C193.54 498.515 194.585 497.666 194.588 496.335C194.585 495.124 193.672 494.481 192.408 494.197L191.754 494.041C191.122 493.895 190.593 493.661 190.604 493.139C190.604 492.67 191.019 492.325 191.772 492.325C192.507 492.325 192.958 492.659 193.015 493.231ZM195.345 492.407H197.572V498.412H199.092V492.407H201.318V491.139H195.345V492.407ZM204.616 498.412H206.154V495.408H209.276V498.412H210.81V491.139H209.276V494.14H206.154V491.139H204.616V498.412ZM213.331 498.412L213.871 496.754H216.495L217.035 498.412H218.683L216.175 491.139H214.194L211.683 498.412H213.331ZM214.261 495.553L215.156 492.801H215.213L216.108 495.553H214.261ZM219.558 498.412H224.213V497.144H221.096V491.139H219.558V498.412ZM225.232 498.412H229.887V497.144H226.769V491.139H225.232V498.412Z" fill="white"/>
<path d="M37.6321 645.487H39.1697V643.129H40.4624C42.1349 643.129 43.108 642.131 43.108 640.679C43.108 639.234 42.1527 638.215 40.5014 638.215H37.6321V645.487ZM39.1697 641.897V639.472H40.2067C41.0945 639.472 41.5241 639.955 41.5241 640.679C41.5241 641.4 41.0945 641.897 40.2138 641.897H39.1697ZM45.4872 645.59C46.2933 645.59 46.8153 645.239 47.0817 644.731H47.1243V645.487H48.5589V641.808C48.5589 640.509 47.4581 639.962 46.2436 639.962C44.9368 639.962 44.0774 640.587 43.8679 641.581L45.267 641.695C45.37 641.332 45.6932 641.066 46.2365 641.066C46.7514 641.066 47.0462 641.325 47.0462 641.773V641.794C47.0462 642.146 46.6733 642.192 45.7251 642.284C44.6456 642.384 43.6761 642.746 43.6761 643.964C43.6761 645.043 44.4467 645.59 45.4872 645.59ZM45.9205 644.546C45.4553 644.546 45.1214 644.33 45.1214 643.914C45.1214 643.488 45.473 643.278 46.0057 643.204C46.3359 643.158 46.8757 643.08 47.0568 642.959V643.538C47.0568 644.109 46.5845 644.546 45.9205 644.546ZM49.7326 645.487H51.2454V642.401C51.2454 641.73 51.7354 641.269 52.4031 641.269C52.6126 641.269 52.9002 641.304 53.0423 641.35V640.008C52.9073 639.976 52.7191 639.955 52.5664 639.955C51.9556 639.955 51.4549 640.31 51.256 640.984H51.1992V640.033H49.7326V645.487ZM53.8244 645.487H55.3372V643.754L55.7456 643.289L57.2335 645.487H59.0055L56.8784 642.394L58.9025 640.033H57.166L55.4189 642.103H55.3372V638.215H53.8244V645.487ZM59.6447 645.487H61.1575V640.033H59.6447V645.487ZM60.4047 639.33C60.8556 639.33 61.225 638.985 61.225 638.563C61.225 638.144 60.8556 637.799 60.4047 637.799C59.9572 637.799 59.5879 638.144 59.5879 638.563C59.5879 638.985 59.9572 639.33 60.4047 639.33ZM63.8821 642.334C63.8857 641.631 64.3047 641.219 64.9155 641.219C65.5227 641.219 65.8885 641.617 65.8849 642.284V645.487H67.3977V642.014C67.3977 640.743 66.652 639.962 65.5156 639.962C64.706 639.962 64.12 640.359 63.875 640.995H63.8111V640.033H62.3693V645.487H63.8821V642.334ZM71.0474 647.646C72.6064 647.646 73.7143 646.936 73.7143 645.541V640.033H72.2122V640.949H72.1554C71.9529 640.505 71.5091 639.962 70.5964 639.962C69.3997 639.962 68.3876 640.892 68.3876 642.749C68.3876 644.564 69.3713 645.409 70.6 645.409C71.47 645.409 71.9565 644.972 72.1554 644.521H72.2193V645.519C72.2193 646.269 71.7399 646.56 71.0829 646.56C70.4153 646.56 70.0779 646.269 69.9537 645.938L68.5545 646.127C68.7356 646.986 69.5772 647.646 71.0474 647.646ZM71.0794 644.273C70.3372 644.273 69.9324 643.683 69.9324 642.742C69.9324 641.815 70.3301 641.166 71.0794 641.166C71.8145 641.166 72.2264 641.787 72.2264 642.742C72.2264 643.705 71.8074 644.273 71.0794 644.273ZM39.2692 657.487H40.7678L42.1491 652.732H42.206L43.5909 657.487H45.0895L47.1705 650.215H45.4908L44.2869 655.278H44.223L42.8984 650.215H41.4602L40.1321 655.268H40.0717L38.8679 650.215H37.1882L39.2692 657.487ZM47.9934 657.487H52.9082V656.22H49.5311V654.483H52.6419V653.215H49.5311V651.482H52.894V650.215H47.9934V657.487ZM58.0618 652.306H59.5355C59.5142 651.01 58.4489 650.115 56.8295 650.115C55.2351 650.115 54.0668 650.996 54.0739 652.317C54.0703 653.389 54.8267 654.004 56.0554 654.298L56.8473 654.497C57.6392 654.689 58.0795 654.916 58.0831 655.406C58.0795 655.939 57.5753 656.301 56.794 656.301C55.995 656.301 55.4197 655.932 55.37 655.204H53.8821C53.9212 656.777 55.0469 657.59 56.8118 657.59C58.5874 657.59 59.6314 656.742 59.6349 655.41C59.6314 654.199 58.7188 653.556 57.4545 653.272L56.8011 653.116C56.169 652.97 55.6399 652.736 55.6506 652.214C55.6506 651.745 56.0661 651.401 56.8189 651.401C57.554 651.401 58.005 651.734 58.0618 652.306ZM60.3922 651.482H62.6188V657.487H64.1387V651.482H66.3652V650.215H60.3922V651.482ZM69.6634 657.487H71.201V654.483H74.3224V657.487H75.8565V650.215H74.3224V653.215H71.201V650.215H69.6634V657.487ZM78.3778 657.487L78.9176 655.829H81.5419L82.0817 657.487H83.7294L81.2223 650.215H79.2408L76.7301 657.487H78.3778ZM79.3082 654.629L80.2031 651.877H80.2599L81.1548 654.629H79.3082ZM84.6048 657.487H89.2603V656.22H86.1424V650.215H84.6048V657.487ZM90.2786 657.487H94.9341V656.22H91.8162V650.215H90.2786V657.487Z" fill="white"/>
<path d="M2.78125 429.412H9.54688V419.037H15.2344C22.5937 419.037 26.875 414.646 26.875 408.256C26.875 401.896 22.6719 397.412 15.4063 397.412H2.78125V429.412ZM9.54688 413.615V402.943H14.1094C18.0156 402.943 19.9063 405.068 19.9063 408.256C19.9063 411.428 18.0156 413.615 14.1406 413.615H9.54688Z" fill="black"/>
<defs>
<clipPath id="clip0">
<rect width="315" height="330" fill="white"/>
</clipPath>
</defs>
</svg>
