<svg width="315" height="756" viewBox="0 0 315 756" fill="none" xmlns="http://www.w3.org/2000/svg">
<mask id="path-1-inside-1" fill="white">
<path d="M285 330L280.014 323.385H159V298.413H187.554V275.43H210.537V129.839H180.381V74.4862H210.537V0H314V274.484H292.39V304.397L312.833 330"/>
</mask>
<path d="M285 330L280.014 323.385H159V298.413H187.554V275.43H210.537V129.839H180.381V74.4862H210.537V0H314V274.484H292.39V304.397L312.833 330" fill="white"/>
<path d="M280.014 323.385L282.41 321.579L281.51 320.385H280.014V323.385ZM159 323.385H156V326.385H159V323.385ZM159 298.413V295.413H156V298.413H159ZM187.554 298.413V301.413H190.554V298.413H187.554ZM187.554 275.43V272.43H184.554V275.43H187.554ZM210.537 275.43V278.43H213.537V275.43H210.537ZM210.537 129.839H213.537V126.839H210.537V129.839ZM180.381 129.839H177.381V132.839H180.381V129.839ZM180.381 74.4862V71.4862H177.381V74.4862H180.381ZM210.537 74.4862V77.4862H213.537V74.4862H210.537ZM210.537 0V-3H207.537V0H210.537ZM314 0H317V-3H314V0ZM314 274.484V277.484H317V274.484H314ZM292.39 274.484V271.484H289.39V274.484H292.39ZM292.39 304.397H289.39V305.447L290.046 306.269L292.39 304.397ZM287.396 328.194L282.41 321.579L277.618 325.19L282.604 331.806L287.396 328.194ZM280.014 320.385H159V326.385H280.014V320.385ZM162 323.385V298.413H156V323.385H162ZM159 301.413H187.554V295.413H159V301.413ZM190.554 298.413V275.43H184.554V298.413H190.554ZM187.554 278.43H210.537V272.43H187.554V278.43ZM213.537 275.43V129.839H207.537V275.43H213.537ZM210.537 126.839H180.381V132.839H210.537V126.839ZM183.381 129.839V74.4862H177.381V129.839H183.381ZM180.381 77.4862H210.537V71.4862H180.381V77.4862ZM213.537 74.4862V0H207.537V74.4862H213.537ZM210.537 3H314V-3H210.537V3ZM311 0V274.484H317V0H311ZM314 271.484H292.39V277.484H314V271.484ZM289.39 274.484V304.397H295.39V274.484H289.39ZM290.046 306.269L310.489 331.872L315.177 328.128L294.735 302.525L290.046 306.269Z" fill="black" mask="url(#path-1-inside-1)"/>
<path d="M251.266 85.0732H241.75V120.109H251.266V85.0732Z" fill="#C4C4C4"/>
<path d="M276.806 85.0732H267.29V120.109H276.806V85.0732Z" fill="#C4C4C4"/>
<path d="M216.27 6.59766V78.1528H283.068V120.11H308.179V6.59766H216.27Z" fill="#DAC452"/>
<path d="M276.745 127.339H253.107V140.192H276.745V127.339Z" fill="black"/>
<path d="M188.431 304.115H164.794V316.967H188.431V304.115Z" fill="#FF0000"/>
<path d="M265.448 85.0732H253.107V120.109H265.448V85.0732Z" fill="black"/>
<path d="M239.908 85.0732H186.002V120.109H239.908V85.0732Z" fill="#C4C4C4"/>
<path d="M235.119 127.339H216.086V146.494H235.119V127.339Z" fill="black"/>
<path d="M213.015 281.634H193.982V300.789H213.015V281.634Z" fill="black"/>
<path d="M235.119 150.388H216.086V172.324H235.119V150.388Z" fill="#DAC452"/>
<path d="M235.119 175.413H216.086V197.349H235.119V175.413Z" fill="#DAC452"/>
<path d="M235.119 226.454H216.086V248.39H235.119V226.454Z" fill="#DAC452"/>
<path d="M277.033 186.148H258V208.085H277.033V186.148Z" fill="#DAC452"/>
<path d="M277.033 150.148H258V172.085H277.033V150.148Z" fill="#DAC452"/>
<path d="M277 226.148H258V273.148H277V226.148Z" fill="#DAC452"/>
<path d="M235.119 200.439H216.086V217.803H235.119V200.439Z" fill="black"/>
<path d="M235.119 251.479H216.086V273.416H235.119V251.479Z" fill="#DAC452"/>
<path d="M258 301.148H235V317.148H258V301.148Z" fill="#DAC452"/>
<path d="M308.179 150.388H289.146V172.324H308.179V150.388Z" fill="#DAC452"/>
<path d="M308 123.148H289V147.148H308V123.148Z" fill="#DAC452"/>
<path d="M308.179 175.413H289.146V197.349H308.179V175.413Z" fill="#DAC452"/>
<path d="M308.179 200.439H289.146V222.376H308.179V200.439Z" fill="#DAC452"/>
<path d="M308.179 240.479H289.146V268.409H308.179V240.479Z" fill="#00AC8D"/>
<path d="M205.666 288.307C206.034 288.307 206.341 287.998 206.341 287.627C206.341 287.256 206.034 286.947 205.666 286.947C205.297 286.947 204.99 287.256 204.99 287.627C204.99 287.998 205.297 288.307 205.666 288.307Z" fill="white"/>
<path d="M205.543 292.694V295.103C205.543 295.536 204.929 295.536 204.929 295.103V292.694H204.07L204.991 289.48H204.868L204.315 291.272C204.193 291.643 203.64 291.52 203.763 291.087L204.377 289.11C204.438 288.862 204.745 288.492 205.236 288.492H205.666H206.157C206.648 288.492 206.955 288.924 207.017 289.11L207.631 291.087C207.754 291.52 207.201 291.705 207.078 291.272L206.526 289.48H206.341L207.262 292.694H206.403V295.103C206.403 295.536 205.789 295.536 205.789 295.103V292.694H205.543Z" fill="white"/>
<path d="M200.412 288.492C199.921 288.492 199.553 288.862 199.553 289.419V291.52C199.553 291.952 200.167 291.952 200.167 291.52V289.604H200.289V294.98C200.289 295.536 201.088 295.536 201.088 294.98V291.828H201.21V294.98C201.21 295.536 202.009 295.536 202.009 294.98V289.604H202.131V291.52C202.131 291.952 202.745 291.952 202.745 291.52V289.419C202.745 288.986 202.377 288.492 201.886 288.492H200.412Z" fill="white"/>
<path d="M201.087 288.307C201.46 288.307 201.763 288.002 201.763 287.627C201.763 287.252 201.46 286.947 201.087 286.947C200.714 286.947 200.412 287.252 200.412 287.627C200.412 288.002 200.714 288.307 201.087 288.307Z" fill="white"/>
<path d="M227.83 134.013C228.198 134.013 228.505 133.704 228.505 133.333C228.505 132.962 228.198 132.653 227.83 132.653C227.461 132.653 227.154 132.962 227.154 133.333C227.154 133.704 227.461 134.013 227.83 134.013Z" fill="white"/>
<path d="M227.707 138.4V140.81C227.707 141.243 227.093 141.243 227.093 140.81V138.4H226.234L227.155 135.187H227.032L226.479 136.979C226.357 137.35 225.804 137.226 225.927 136.794L226.541 134.816C226.602 134.569 226.909 134.198 227.4 134.198H227.83H228.321C228.812 134.198 229.119 134.631 229.181 134.816L229.795 136.794C229.918 137.226 229.365 137.411 229.242 136.979L228.69 135.187H228.505L229.426 138.4H228.567V140.81C228.567 141.243 227.953 141.243 227.953 140.81V138.4H227.707Z" fill="white"/>
<path d="M222.576 134.26C222.085 134.26 221.717 134.631 221.717 135.187V137.288C221.717 137.72 222.331 137.72 222.331 137.288V135.372H222.454V140.748C222.454 141.304 223.252 141.304 223.252 140.748V137.597H223.374V140.748C223.374 141.304 224.173 141.304 224.173 140.748V135.372H224.295V137.288C224.295 137.72 224.909 137.72 224.909 137.288V135.187C224.909 134.754 224.541 134.26 224.05 134.26H222.576Z" fill="white"/>
<path d="M223.252 134.013C223.624 134.013 223.927 133.708 223.927 133.333C223.927 132.958 223.624 132.653 223.252 132.653C222.879 132.653 222.576 132.958 222.576 133.333C222.576 133.708 222.879 134.013 223.252 134.013Z" fill="white"/>
<path d="M262.87 106.021V100.707C262.87 100.151 262.44 99.7183 261.887 99.7183H256.607C256.055 99.7183 255.625 100.151 255.625 100.707V106.021C255.625 106.577 256.055 107.01 256.607 107.01H261.887C262.44 106.948 262.87 106.577 262.87 106.021ZM262.072 106.145H256.423V100.522H262.072V106.145Z" fill="white"/>
<path d="M260.168 96.2575C260.168 95.825 260.782 95.825 260.782 96.2575V97.9877L261.089 97.6169C261.335 97.3698 261.703 97.7405 261.457 97.9877L260.659 98.9146C260.536 99.0382 260.352 99.0382 260.229 98.9146L259.431 97.9877C259.186 97.6787 259.616 97.3698 259.8 97.6169L260.107 98.0495L260.168 96.2575Z" fill="white"/>
<path d="M257.774 98.7317C257.774 99.1642 258.388 99.1642 258.388 98.7317V97.0015L258.695 97.3723C258.94 97.6194 259.309 97.2487 259.063 97.0015L258.265 96.0746C258.142 95.951 257.958 95.951 257.835 96.0746L257.037 97.0015C256.791 97.3105 257.221 97.6194 257.405 97.3723L257.712 96.9397L257.774 98.7317Z" fill="white"/>
<path d="M260.905 102.189H259.861C259.738 102.189 259.615 102.313 259.615 102.437V103.734C259.615 103.858 259.677 103.92 259.799 103.92C259.799 103.92 259.861 103.92 259.922 103.92V105.588C259.922 105.897 260.352 105.897 260.352 105.588V103.92H260.413V105.588C260.413 105.897 260.843 105.897 260.843 105.588V103.92C260.905 103.92 260.966 103.92 260.966 103.92C261.089 103.92 261.15 103.858 261.15 103.734V102.437C261.15 102.313 261.027 102.189 260.905 102.189Z" fill="white"/>
<path d="M260.352 102.066C260.521 102.066 260.659 101.928 260.659 101.757C260.659 101.587 260.521 101.448 260.352 101.448C260.182 101.448 260.045 101.587 260.045 101.757C260.045 101.928 260.182 102.066 260.352 102.066Z" fill="white"/>
<path d="M258.695 102.189H257.651C257.528 102.189 257.405 102.313 257.405 102.437V103.734C257.405 103.858 257.467 103.92 257.589 103.92C257.589 103.92 257.651 103.92 257.712 103.92V105.588C257.712 105.897 258.142 105.897 258.142 105.588V103.92H258.203V105.588C258.203 105.897 258.633 105.897 258.633 105.588V103.92C258.695 103.92 258.756 103.92 258.756 103.92C258.879 103.92 258.94 103.858 258.94 103.734V102.437C258.94 102.313 258.817 102.189 258.695 102.189Z" fill="white"/>
<path d="M258.141 102.066C258.311 102.066 258.448 101.928 258.448 101.757C258.448 101.587 258.311 101.448 258.141 101.448C257.971 101.448 257.834 101.587 257.834 101.757C257.834 101.928 257.971 102.066 258.141 102.066Z" fill="white"/>
<path d="M229.224 213.663V208.349C229.224 207.793 228.794 207.36 228.242 207.36H222.962C222.409 207.36 221.979 207.793 221.979 208.349V213.663C221.979 214.219 222.409 214.652 222.962 214.652H228.242C228.794 214.652 229.224 214.219 229.224 213.663ZM228.426 213.849H222.778V208.225H228.426V213.849Z" fill="white"/>
<path d="M226.523 203.962C226.523 203.529 227.137 203.529 227.137 203.962V205.692L227.444 205.321C227.689 205.074 228.057 205.445 227.812 205.692L227.014 206.619C226.891 206.742 226.707 206.742 226.584 206.619L225.786 205.692C225.54 205.383 225.97 205.074 226.154 205.321L226.461 205.754L226.523 203.962Z" fill="white"/>
<path d="M224.128 206.371C224.128 206.804 224.742 206.804 224.742 206.371V204.641L225.049 205.012C225.295 205.259 225.663 204.888 225.417 204.641L224.619 203.714C224.496 203.591 224.312 203.591 224.189 203.714L223.391 204.641C223.146 204.95 223.575 205.259 223.76 205.012L224.067 204.579L224.128 206.371Z" fill="white"/>
<path d="M227.259 209.893H226.215C226.093 209.893 225.97 210.016 225.97 210.14V211.437C225.97 211.561 226.031 211.623 226.154 211.623C226.154 211.623 226.215 211.623 226.277 211.623V213.291C226.277 213.6 226.706 213.6 226.706 213.291V211.623H226.768V213.291C226.768 213.6 227.198 213.6 227.198 213.291V211.623C227.259 211.623 227.32 211.623 227.32 211.623C227.443 211.623 227.505 211.561 227.505 211.437V210.14C227.505 209.954 227.382 209.893 227.259 209.893Z" fill="white"/>
<path d="M226.768 209.769C226.937 209.769 227.075 209.631 227.075 209.46C227.075 209.29 226.937 209.151 226.768 209.151C226.598 209.151 226.461 209.29 226.461 209.46C226.461 209.631 226.598 209.769 226.768 209.769Z" fill="white"/>
<path d="M225.049 209.893H224.005C223.883 209.893 223.76 210.016 223.76 210.14V211.437C223.76 211.561 223.821 211.623 223.944 211.623C223.944 211.623 224.005 211.623 224.067 211.623V213.291C224.067 213.6 224.496 213.6 224.496 213.291V211.623H224.558V213.291C224.558 213.6 224.988 213.6 224.988 213.291V211.623C225.049 211.623 225.11 211.623 225.11 211.623C225.233 211.623 225.295 211.561 225.295 211.437V210.14C225.295 209.954 225.172 209.893 225.049 209.893Z" fill="white"/>
<path d="M224.495 209.769C224.665 209.769 224.802 209.631 224.802 209.46C224.802 209.29 224.665 209.151 224.495 209.151C224.326 209.151 224.188 209.29 224.188 209.46C224.188 209.631 224.326 209.769 224.495 209.769Z" fill="white"/>
<path d="M294.428 255.338H295.963V253.731H297.498V252.125H299.032V250.58H300.629V249.035H302.9V249.838H301.365V251.383H299.831V252.928H298.296V254.535H296.699V256.141H294.428V255.338Z" fill="white"/>
<path d="M175.845 308.008C176.214 308.008 176.521 307.699 176.521 307.328C176.521 306.957 176.214 306.648 175.845 306.648C175.477 306.648 175.17 306.957 175.17 307.328C175.17 307.699 175.477 308.008 175.845 308.008Z" fill="white"/>
<path d="M180.389 307.39H178.854C178.547 307.39 178.117 307.513 177.872 307.76L176.46 309.182V308.749C176.46 307.884 175.17 307.884 175.17 308.749V310.417L173.942 311.653C173.82 311.777 173.82 311.777 173.574 311.777H172.837C172.101 311.777 171.609 312.457 171.609 313.013C171.609 313.569 172.039 314.31 172.899 314.31C172.899 314.31 173.942 314.31 174.249 314.31C174.556 314.31 174.925 314.187 175.232 313.878L179.1 309.985C179.161 309.923 179.222 309.861 179.345 309.861C179.345 309.861 179.898 309.861 180.328 309.861C180.819 309.861 181.433 309.305 181.433 308.564C181.556 307.884 180.88 307.39 180.389 307.39ZM180.328 309.243H179.529C179.161 309.243 179.038 309.305 178.854 309.491L174.925 313.445C174.741 313.631 174.556 313.692 174.311 313.692H173.021C172.715 313.692 172.408 313.383 172.408 313.013C172.408 312.642 172.715 312.457 172.96 312.457H173.82C174.065 312.457 174.249 312.395 174.372 312.209L178.363 308.193C178.547 308.008 178.67 308.008 178.977 308.008H180.328C180.635 308.008 180.88 308.378 180.88 308.625C180.88 308.873 180.696 309.243 180.328 309.243Z" fill="white"/>
<path d="M264.158 131.231C264.526 131.231 264.833 130.923 264.833 130.552C264.833 130.181 264.526 129.872 264.158 129.872C263.789 129.872 263.482 130.181 263.482 130.552C263.544 130.923 263.789 131.231 264.158 131.231Z" fill="white"/>
<path d="M268.701 130.613H267.167C266.86 130.613 266.43 130.737 266.184 130.984L264.772 132.405V131.973C264.772 131.108 263.483 131.108 263.483 131.973V133.641L262.255 134.877C262.132 135.001 262.132 135.001 261.887 135.001H261.15C260.413 135.001 259.922 135.68 259.922 136.236C259.922 136.792 260.352 137.534 261.211 137.534C261.211 137.534 262.255 137.534 262.562 137.534C262.869 137.534 263.237 137.41 263.544 137.101L267.412 133.209C267.474 133.147 267.535 133.085 267.658 133.085C267.658 133.085 268.21 133.085 268.64 133.085C269.131 133.085 269.745 132.529 269.745 131.787C269.868 131.108 269.193 130.613 268.701 130.613ZM268.64 132.529H267.842C267.474 132.529 267.351 132.591 267.167 132.776L263.237 136.731C263.053 136.916 262.869 136.978 262.623 136.978H261.334C261.027 136.978 260.72 136.669 260.72 136.298C260.72 135.927 261.027 135.742 261.273 135.742H262.132C262.378 135.742 262.562 135.68 262.685 135.495L266.675 131.478C266.86 131.293 266.982 131.293 267.289 131.293H268.64C268.947 131.293 269.193 131.664 269.193 131.911C269.193 132.158 269.07 132.529 268.64 132.529Z" fill="white"/>
<path d="M178.026 10.1484H182.941V8.88068H179.564V7.14418H182.675V5.87642H179.564V4.14347H182.927V2.87571H178.026V10.1484ZM185.403 10.1484L185.943 8.49006H188.567L189.107 10.1484H190.754L188.247 2.87571H186.266L183.755 10.1484H185.403ZM186.333 7.28977L187.228 4.53764H187.285L188.18 7.28977H186.333ZM195.409 4.96733H196.883C196.861 3.67116 195.796 2.77628 194.177 2.77628C192.582 2.77628 191.414 3.65696 191.421 4.97798C191.417 6.05043 192.174 6.66477 193.403 6.95952L194.194 7.15838C194.986 7.35014 195.427 7.57741 195.43 8.06747C195.427 8.60014 194.922 8.96236 194.141 8.96236C193.342 8.96236 192.767 8.59304 192.717 7.86506H191.229C191.268 9.43821 192.394 10.2514 194.159 10.2514C195.935 10.2514 196.979 9.4027 196.982 8.07102C196.979 6.86009 196.066 6.21733 194.802 5.93324L194.148 5.77699C193.516 5.63139 192.987 5.39702 192.998 4.875C192.998 4.40625 193.413 4.06179 194.166 4.06179C194.901 4.06179 195.352 4.3956 195.409 4.96733ZM197.739 4.14347H199.966V10.1484H201.486V4.14347H203.712V2.87571H197.739V4.14347ZM167.466 16.1435H169.693V22.1484H171.212V16.1435H173.439V14.8757H167.466V16.1435ZM180.784 18.5121C180.784 16.1328 179.306 14.7763 177.378 14.7763C175.439 14.7763 173.973 16.1328 173.973 18.5121C173.973 20.8807 175.439 22.2479 177.378 22.2479C179.306 22.2479 180.784 20.8913 180.784 18.5121ZM179.225 18.5121C179.225 20.0533 178.493 20.8878 177.378 20.8878C176.259 20.8878 175.531 20.0533 175.531 18.5121C175.531 16.9709 176.259 16.1364 177.378 16.1364C178.493 16.1364 179.225 16.9709 179.225 18.5121ZM183.286 22.1484H184.785L186.166 17.3935H186.223L187.608 22.1484H189.107L191.188 14.8757H189.508L188.304 19.9396H188.24L186.916 14.8757H185.477L184.149 19.929H184.089L182.885 14.8757H181.205L183.286 22.1484ZM192.011 22.1484H196.925V20.8807H193.548V19.1442H196.659V17.8764H193.548V16.1435H196.911V14.8757H192.011V22.1484ZM198.134 22.1484H199.671V19.5703H200.793L202.171 22.1484H203.869L202.324 19.3217C203.151 18.9666 203.609 18.2457 203.609 17.2514C203.609 15.8061 202.654 14.8757 201.003 14.8757H198.134V22.1484ZM199.671 18.3345V16.1328H200.708C201.596 16.1328 202.026 16.527 202.026 17.2514C202.026 17.9723 201.596 18.3345 200.715 18.3345H199.671Z" fill="black"/>
<path d="M2.78125 43H16.4531C23.6406 43 27.4688 39.25 27.4688 34.1562C27.4688 29.4219 24.0781 26.5625 20.4375 26.3906V26.0781C23.7656 25.3281 26.2188 22.9687 26.2188 19.2031C26.2188 14.4062 22.6563 11 15.5937 11H2.78125V43ZM9.54688 37.4687V28.9687H15.2188C18.4688 28.9687 20.4844 30.8438 20.4844 33.4844C20.4844 35.8906 18.8438 37.4687 15.0625 37.4687H9.54688ZM9.54688 24.3906V16.4687H14.6875C17.6875 16.4687 19.3906 18.0156 19.3906 20.3281C19.3906 22.8594 17.3281 24.3906 14.5625 24.3906H9.54688ZM31.6836 43H54.4961V37.4687H41.0586V37.25L45.7305 32.6719C52.3086 26.6719 54.0742 23.6719 54.0742 20.0312C54.0742 14.4844 49.543 10.5625 42.6836 10.5625C35.9648 10.5625 31.3555 14.5781 31.3711 20.8594H37.793C37.7773 17.7969 39.7148 15.9219 42.6367 15.9219C45.4492 15.9219 47.543 17.6719 47.543 20.4844C47.543 23.0312 45.9805 24.7812 43.0742 27.5781L31.6836 38.125V43Z" fill="black"/>
<path d="M237.497 47.2884C238.527 47.2884 239.397 46.8884 239.897 46.3984V43.0584H237.267V44.2684H238.577V45.7284C238.367 45.9084 238.007 46.0084 237.647 46.0084C236.197 46.0084 235.457 45.0384 235.457 43.4284C235.457 41.8384 236.317 40.8784 237.547 40.8784C238.217 40.8784 238.637 41.1484 238.997 41.4984L239.787 40.5584C239.307 40.0684 238.567 39.6084 237.497 39.6084C235.527 39.6084 233.947 41.0384 233.947 43.4784C233.947 45.9484 235.477 47.2884 237.497 47.2884ZM241.485 47.1484H243.595C245.775 47.1484 247.175 45.9084 247.175 43.4184C247.175 40.9184 245.775 39.7484 243.515 39.7484H241.485V47.1484ZM242.965 45.9584V40.9284H243.425C244.805 40.9284 245.665 41.6084 245.665 43.4184C245.665 45.2184 244.805 45.9584 243.425 45.9584H242.965ZM250.104 40.9184H251.064C252.014 40.9184 252.534 41.1884 252.534 41.9884C252.534 42.7784 252.014 43.1784 251.064 43.1784H250.104V40.9184ZM254.304 47.1484L252.574 44.1184C253.424 43.7884 253.984 43.0984 253.984 41.9884C253.984 40.2884 252.754 39.7484 251.204 39.7484H248.624V47.1484H250.104V44.3484H251.134L252.654 47.1484H254.304ZM259.696 44.8184C259.006 44.8184 258.546 44.0884 258.546 42.7184C258.546 41.3584 259.006 40.6284 259.696 40.6284C260.376 40.6284 260.846 41.3584 260.846 42.7184C260.846 44.0884 260.376 44.8184 259.696 44.8184ZM259.696 39.4384C258.296 39.4384 257.276 40.6984 257.276 42.7184C257.276 44.7484 258.296 46.0184 259.696 46.0184C261.086 46.0184 262.116 44.7484 262.116 42.7184C262.116 40.6984 261.086 39.4384 259.696 39.4384ZM265.776 42.2684H264.436V38.7984H263.116V48.0084H264.436V43.3584H265.776V42.2684ZM266.955 39.6784V40.7284H269.875C269.845 41.1684 269.775 41.5684 269.685 41.9484L266.465 42.1384L266.635 43.2584L269.305 42.9984C268.785 44.0084 267.895 44.8684 266.385 45.6184L267.085 46.6384C270.515 44.8884 271.185 42.5184 271.185 39.6784H266.955ZM274.925 42.3084H273.635V38.7884H272.315V47.9884H273.635V43.3984H274.925V42.3084ZM277.194 40.8884H279.404V39.8384H275.894V45.9584H276.524C277.874 45.9584 278.784 45.9184 279.814 45.7184L279.704 44.6384C278.894 44.7984 278.154 44.8584 277.194 44.8784V40.8884ZM280.374 42.1584H278.774V43.2284H280.374V47.5984H281.604V38.9684H280.374V42.1584ZM282.284 38.7884V47.9984H283.534V38.7884H282.284ZM285.274 39.6284V45.8184H289.704V39.6284H285.274ZM288.404 40.6684V44.7784H286.574V40.6684H288.404ZM291.134 38.7984V48.0284H292.454V38.7984H291.134Z" fill="black"/>
<path d="M296.984 133.752H296.496C296.62 133.152 296.62 132.724 296.62 132.344V132.012H294.04V132.432H296.112C296.112 132.552 296.112 132.676 296.104 132.808L293.92 132.876L293.98 133.324L296.068 133.216C296.048 133.38 296.02 133.56 295.976 133.752H293.656V134.18H295.052V135.484H295.58V134.18H296.984V133.752ZM300.472 131.808H299.972V134.548H300.472V131.808ZM297.816 133.004C297.816 132.7 297.972 132.528 298.188 132.528C298.404 132.528 298.56 132.7 298.56 133.004C298.56 133.304 298.404 133.48 298.188 133.48C297.972 133.48 297.816 133.304 297.816 133.004ZM299.24 133.228V134.44H299.732V131.872H299.24V132.804H299.012C298.936 132.372 298.612 132.076 298.188 132.076C297.7 132.076 297.344 132.46 297.344 133.004C297.344 133.552 297.7 133.936 298.188 133.936C298.604 133.936 298.924 133.652 299.008 133.228H299.24ZM298.52 135.008V134.2H297.992V135.428H300.564V135.008H298.52ZM301.348 134.092C301.988 133.976 302.448 133.652 302.68 133.216C302.912 133.644 303.38 133.96 304.028 134.072L304.228 133.656C303.396 133.532 302.96 133.044 302.956 132.536H304.064V132.12H301.288V132.536H302.396C302.392 133.044 301.956 133.544 301.144 133.672L301.348 134.092ZM301.012 134.624V135.052H304.348V134.624H301.012ZM296.876 139.212H296.152V138.396H296.876V139.212ZM298.056 136.804V138.1H297.396V137.096H296.876V137.984H296.152V137.096H295.628V139.632H297.396V138.524H298.056V140.5H298.584V136.804H298.056ZM302.228 136.808H301.7V139.252H302.228V136.808ZM299.42 137.04V137.46H300.584C300.572 137.564 300.552 137.672 300.52 137.768L299.232 137.812L299.308 138.224L300.3 138.148C300.092 138.396 299.748 138.604 299.228 138.756L299.432 139.172C300.68 138.78 301.14 138.084 301.14 137.04H299.42ZM301.256 139.032H300.712V139.104C300.712 139.528 300.34 139.948 299.54 140.064L299.744 140.48C300.34 140.38 300.764 140.116 300.984 139.756C301.196 140.112 301.608 140.372 302.188 140.472L302.396 140.06C301.612 139.944 301.256 139.532 301.256 139.104V139.032Z" fill="black"/>
<path d="M296.992 157.696V158.124H297.544V159H298.072V156.808H297.544V157.696H296.992ZM297.212 158.488C296.652 158.304 296.396 157.872 296.38 157.452H297.096V157.028H295.116V157.452H295.84C295.824 157.912 295.556 158.38 294.972 158.584L295.24 159C295.668 158.856 295.96 158.556 296.12 158.184C296.28 158.508 296.556 158.768 296.956 158.9L297.212 158.488ZM296.828 160.096C296.344 160.096 296.092 159.996 296.092 159.788C296.092 159.58 296.344 159.48 296.828 159.48C297.308 159.48 297.56 159.58 297.56 159.788C297.56 159.996 297.308 160.096 296.828 160.096ZM296.828 159.08C296.044 159.08 295.564 159.34 295.564 159.788C295.564 160.236 296.044 160.496 296.828 160.496C297.608 160.496 298.088 160.236 298.088 159.788C298.088 159.34 297.608 159.08 296.828 159.08ZM300.336 156.864C299.52 156.864 299.004 157.128 299.004 157.564C299.004 158 299.52 158.26 300.336 158.26C301.152 158.26 301.672 158 301.672 157.564C301.672 157.128 301.152 156.864 300.336 156.864ZM300.336 157.264C300.844 157.264 301.128 157.36 301.128 157.564C301.128 157.764 300.844 157.86 300.336 157.86C299.832 157.86 299.548 157.764 299.548 157.564C299.548 157.36 299.832 157.264 300.336 157.264ZM299.06 159.056V160.448H301.604V159.056H301.076V159.344H299.584V159.056H299.06ZM299.584 159.74H301.076V160.036H299.584V159.74ZM298.672 158.452V158.872H302V158.452H298.672ZM294.453 161.808H293.953V164.28H294.453V161.808ZM291.789 162.952C291.789 162.664 291.941 162.492 292.161 162.492C292.381 162.492 292.533 162.664 292.533 162.952C292.533 163.24 292.381 163.408 292.161 163.408C291.941 163.408 291.789 163.24 291.789 162.952ZM293.237 162.744V163.172H292.977C292.989 163.1 292.997 163.032 292.997 162.956C292.997 162.88 292.989 162.812 292.977 162.744H293.237ZM293.237 163.592V163.928H293.729V161.88H293.237V162.324H292.777C292.629 162.156 292.413 162.056 292.161 162.056C291.677 162.056 291.325 162.424 291.325 162.952C291.325 163.484 291.677 163.852 292.161 163.852C292.409 163.852 292.621 163.756 292.769 163.592H293.237ZM293.445 164.092H292.917V164.188C292.917 164.568 292.541 164.968 291.745 165.072L291.937 165.48C292.529 165.396 292.957 165.148 293.181 164.812C293.405 165.148 293.833 165.396 294.425 165.48L294.621 165.072C293.825 164.968 293.445 164.568 293.445 164.188V164.092ZM297.064 162.952C296.572 163.048 296.104 163.08 295.668 163.088V161.968H295.14V163.528H295.452C295.968 163.528 296.524 163.492 297.124 163.372L297.064 162.952ZM295.992 164.796H297.892V163.776H295.46V164.192H297.364V164.408H295.464V165.448H297.996V165.036H295.992V164.796ZM297.892 162.496V161.804H297.364V163.628H297.892V162.924H298.38V162.496H297.892ZM298.904 162.02V162.436H300.044C299.968 162.924 299.508 163.328 298.692 163.532L298.892 163.944C299.988 163.664 300.608 163 300.608 162.02H298.904ZM299.816 164.432H301.212V165.036H299.816V164.432ZM299.296 165.448H301.732V164.016H299.296V165.448ZM301.2 161.812V163.86H301.732V161.812H301.2ZM303.704 163.284H302.98V162.836H303.704V163.284ZM304.224 161.988H303.704V162.432H302.98V161.988H302.46V163.7H304.224V161.988ZM304.728 165.032H303.368V164.716H304.728V165.032ZM304.728 164.308H303.368V163.988H302.848V165.452H305.252V163.988H304.728V164.308ZM305.74 162.584H305.252V161.808H304.724V163.832H305.252V163.016H305.74V162.584Z" fill="black"/>
<path d="M298.716 184.488C297.876 184.352 297.424 183.8 297.424 183.276V183.012H296.86V183.276C296.86 183.788 296.404 184.352 295.572 184.488L295.788 184.924C296.432 184.808 296.9 184.46 297.14 184.008C297.38 184.464 297.852 184.808 298.5 184.924L298.716 184.488ZM297.408 185.632V184.808H296.88V185.632H295.492V186.056H298.828V185.632H297.408ZM301.696 182.804V186.5H302.224V182.804H301.696ZM300.244 183.064C299.688 183.064 299.276 183.568 299.276 184.376C299.276 185.188 299.688 185.696 300.244 185.696C300.8 185.696 301.212 185.188 301.212 184.376C301.212 183.568 300.8 183.064 300.244 183.064ZM300.244 183.54C300.516 183.54 300.704 183.832 300.704 184.376C300.704 184.924 300.516 185.216 300.244 185.216C299.972 185.216 299.784 184.924 299.784 184.376C299.784 183.832 299.972 183.54 300.244 183.54ZM296.04 188.98C296.04 188.676 296.24 188.488 296.508 188.488C296.78 188.488 296.98 188.676 296.98 188.98C296.98 189.288 296.78 189.476 296.508 189.476C296.24 189.476 296.04 189.288 296.04 188.98ZM298.044 188.74V189.216H297.452C297.472 189.144 297.48 189.06 297.48 188.98C297.48 188.896 297.468 188.816 297.452 188.74H298.044ZM298.044 189.636V190.504H298.572V187.808H298.044V188.32H297.224C297.044 188.136 296.796 188.028 296.508 188.028C295.964 188.028 295.54 188.432 295.54 188.98C295.54 189.532 295.964 189.936 296.508 189.936C296.796 189.936 297.052 189.824 297.232 189.636H298.044ZM296.672 191.008V190.24H296.144V191.428H298.656V191.008H296.672ZM301.256 189.12C300.76 189.216 300.288 189.252 299.848 189.26V187.98H299.32V189.7H299.632C300.152 189.7 300.716 189.664 301.316 189.544L301.256 189.12ZM300.192 190.464H301.556V191.036H300.192V190.464ZM299.672 191.448H302.072V190.052H299.672V191.448ZM302.56 188.584H302.072V187.808H301.544V189.88H302.072V189.016H302.56V188.584Z" fill="black"/>
<path d="M296.824 210.828H297.556V210.408H296.828V209.896H296.3V210.408H295.552V210.828H296.3V210.956C296.3 211.508 296.024 212.132 295.428 212.408L295.712 212.812C296.124 212.628 296.408 212.256 296.568 211.816C296.72 212.224 296.988 212.568 297.38 212.748L297.66 212.348C297.084 212.072 296.824 211.476 296.824 210.956V210.828ZM298.912 211.24H298.376V209.812H297.848V213.492H298.376V211.676H298.912V211.24ZM299.708 210.748C299.708 210.492 299.904 210.336 300.18 210.336C300.456 210.336 300.652 210.492 300.652 210.748C300.652 211.008 300.456 211.164 300.18 211.164C299.904 211.164 299.708 211.008 299.708 210.748ZM301.16 210.748C301.16 210.264 300.744 209.912 300.18 209.912C299.62 209.912 299.2 210.264 299.2 210.748C299.2 211.24 299.62 211.588 300.18 211.588C300.744 211.588 301.16 211.24 301.16 210.748ZM300.168 212.8H302.072V211.792H299.64V212.2H301.552V212.42H299.644V213.448H302.176V213.04H300.168V212.8ZM302.072 210.516V209.808H301.544V211.648H302.072V210.948H302.556V210.516H302.072Z" fill="black"/>
<path d="M263.82 157.604H264.356V157.176H262.716V157.604H263.308V157.784C263.308 158.416 263.116 159.076 262.58 159.416L262.892 159.804C263.224 159.596 263.44 159.236 263.568 158.816C263.688 159.204 263.896 159.524 264.224 159.716L264.532 159.332C264 159.02 263.82 158.4 263.82 157.784V157.604ZM264.568 158.064H264.1V158.492H264.568V160.324H265.06V156.868H264.568V158.064ZM265.312 156.804V160.488H265.812V156.804H265.312ZM266.992 157.16H266.476V159.612H266.732C267.196 159.612 267.596 159.596 268.036 159.504L267.972 159.064C267.632 159.128 267.324 159.152 266.992 159.16V157.16ZM268.22 157.968H267.496V158.396H268.22V160.328H268.712V156.868H268.22V157.968ZM269 156.804V160.488H269.5V156.804H269ZM272.136 158.148C271.672 158.224 271.272 158.24 270.668 158.244V157.984H271.82V156.976H270.14V157.376H271.3V157.616H270.144V158.648H270.456C271.2 158.648 271.66 158.636 272.176 158.548L272.136 158.148ZM271.032 159.84H272.912V158.86H270.504V159.256H272.392V159.468H270.512V160.464H273.044V160.068H271.032V159.84ZM272.912 157.532V156.804H272.384V158.72H272.912V157.964H273.4V157.532H272.912ZM265.632 163.508H263.568V162.54H265.604V162.112H263.04V163.928H265.632V163.508ZM262.652 164.62V165.052H265.988V164.62H262.652ZM269.392 161.808H268.86V164.044H269.392V161.808ZM268.556 163.368C268.076 163.448 267.648 163.468 267.04 163.472V163.148H268.212V162.024H266.516V162.444H267.692V162.756H266.52V163.896H266.844C267.576 163.896 268.068 163.88 268.616 163.788L268.556 163.368ZM268.152 165.088C267.672 165.088 267.42 165 267.42 164.804C267.42 164.612 267.672 164.524 268.152 164.524C268.636 164.524 268.888 164.612 268.888 164.804C268.888 165 268.636 165.088 268.152 165.088ZM268.152 164.112C267.372 164.112 266.892 164.368 266.892 164.804C266.892 165.24 267.372 165.496 268.152 165.496C268.936 165.496 269.416 165.24 269.416 164.804C269.416 164.368 268.936 164.112 268.152 164.112ZM270.284 163.216L270.348 163.644L272.452 163.536C272.428 163.784 272.388 164.052 272.316 164.352L272.836 164.404C273.008 163.604 273.008 163.096 273.008 162.56V162.132H270.388V162.552H272.488V162.56C272.488 162.748 272.488 162.94 272.48 163.144L270.284 163.216ZM270.016 164.624V165.056H273.344V164.624H270.016Z" fill="black"/>
<path d="M218.279 158.792C218.759 158.792 219.067 158.936 219.067 159.2C219.067 159.468 218.759 159.612 218.279 159.612C217.795 159.612 217.487 159.468 217.487 159.2C217.487 158.936 217.795 158.792 218.279 158.792ZM218.279 160.032C219.063 160.032 219.611 159.708 219.611 159.2C219.611 158.7 219.063 158.372 218.279 158.372C217.491 158.372 216.947 158.7 216.947 159.2C216.947 159.708 217.491 160.032 218.279 160.032ZM219.955 160.308H216.619V160.732H218.011V161.936H218.539V160.732H219.955V160.308ZM221.127 160.688C220.927 160.688 220.807 160.412 220.807 159.844C220.807 159.28 220.927 159.004 221.127 159.004C221.331 159.004 221.447 159.28 221.447 159.844C221.447 160.412 221.331 160.688 221.127 160.688ZM222.211 159.604H221.919C221.859 158.916 221.563 158.508 221.127 158.508C220.639 158.508 220.331 159.012 220.331 159.844C220.331 160.68 220.639 161.184 221.127 161.184C221.575 161.184 221.875 160.752 221.923 160.032H222.211V161.768H222.703V158.308H222.211V159.604ZM222.959 158.244V161.928H223.459V158.244H222.959ZM225.911 161.092V160.252H226.963V159.832H224.883V158.528H224.355V160.252H225.383V161.092H223.979V161.52H227.315V161.092H225.911ZM228.142 160.372L228.602 159.636C228.686 159.476 228.766 159.312 228.838 159.156H228.854C228.846 159.328 228.83 159.596 228.83 159.768V160.372H228.142ZM229.73 160.372H229.378V158.628H228.674L227.57 160.42V160.82H228.83V161.588H229.378V160.82H229.73V160.372ZM230.014 161.588H231.998V161.092H231.354C231.218 161.092 231.022 161.108 230.874 161.124C231.414 160.596 231.858 160.02 231.858 159.484C231.858 158.932 231.486 158.572 230.926 158.572C230.522 158.572 230.258 158.732 229.986 159.02L230.306 159.34C230.454 159.176 230.634 159.036 230.85 159.036C231.13 159.036 231.294 159.216 231.294 159.516C231.294 159.972 230.818 160.528 230.014 161.248V161.588ZM232.525 161.588H234.305V161.112H233.749V158.628H233.313C233.125 158.744 232.921 158.82 232.625 158.876V159.24H233.161V161.112H232.525V161.588ZM219.689 165.66H218.949V164.844H219.689V165.66ZM219.689 164.432H218.949V163.54H218.425V166.08H220.213V163.54H219.689V164.432ZM221.733 164.62H221.197V163.252H220.669V166.932H221.197V165.06H221.733V164.62ZM224.516 163.244V166.94H225.044V163.244H224.516ZM223.064 163.504C222.508 163.504 222.096 164.008 222.096 164.816C222.096 165.628 222.508 166.136 223.064 166.136C223.62 166.136 224.032 165.628 224.032 164.816C224.032 164.008 223.62 163.504 223.064 163.504ZM223.064 163.98C223.336 163.98 223.524 164.272 223.524 164.816C223.524 165.364 223.336 165.656 223.064 165.656C222.792 165.656 222.604 165.364 222.604 164.816C222.604 164.272 222.792 163.98 223.064 163.98ZM228.54 165.68C228.688 164.896 228.688 164.376 228.688 163.916V163.564H226.012V163.984H228.16C228.16 164.412 228.152 164.924 228.012 165.62L228.54 165.68ZM227.38 166.064V164.796H226.852V166.064H225.676V166.488H229.008V166.064H227.38ZM230.42 165.6H229.948V164.04H230.42V165.6ZM231.264 164.584H230.908V163.624H229.456V166.012H230.908V165.012H231.264V166.764H231.756V163.304H231.264V164.584ZM232.012 163.244V166.928H232.512V163.244H232.012Z" fill="black"/>
<path d="M220.832 185.58V188.056H222.604V185.58H220.832ZM222.084 185.996V187.64H221.352V185.996H222.084ZM223.176 185.248V188.94H223.704V185.248H223.176ZM224.512 185.58V188.056H226.284V185.58H224.512ZM225.764 185.996V187.64H225.032V185.996H225.764ZM226.856 185.248V188.94H227.384V185.248H226.856ZM230.096 186.652C229.696 186.736 229.332 186.76 228.676 186.764V185.896H229.792V185.472H228.152V187.188H228.46C229.276 187.188 229.696 187.168 230.148 187.068L230.096 186.652ZM229.036 187.888H230.396V188.476H229.036V187.888ZM228.516 188.888H230.912V187.472H228.516V188.888ZM231.4 186.076H230.912V185.244H230.384V187.312H230.912V186.504H231.4V186.076Z" fill="black"/>
<path d="M221.824 237.196H221V236.804H220.468V237.196H219.652V237.608H221.82L221.824 237.196ZM220.336 238.448C220.336 238.248 220.5 238.14 220.736 238.14C220.968 238.14 221.136 238.248 221.136 238.448C221.136 238.652 220.968 238.76 220.736 238.76C220.5 238.76 220.336 238.652 220.336 238.448ZM221.64 238.448C221.64 238.032 221.264 237.74 220.736 237.74C220.208 237.74 219.832 238.032 219.832 238.448C219.832 238.872 220.208 239.16 220.736 239.16C221.264 239.16 221.64 238.872 221.64 238.448ZM220.704 239.36H220.176V240.428H222.684V240.008H220.704V239.36ZM222.552 237.932V236.808H222.024V239.564H222.552V238.368H223.04V237.932H222.552ZM226.668 238.656V238.236H226.204C226.276 237.844 226.276 237.536 226.276 237.26V236.964H223.744V237.388H225.756C225.756 237.632 225.744 237.9 225.676 238.236H223.332V238.656H224.732V239.176H223.668V239.592H225.752V240.492H226.284V239.176H225.26V238.656H226.668ZM229.308 238.356C228.748 238.192 228.476 237.812 228.448 237.424H229.172V237.008H227.168V237.424H227.904C227.876 237.84 227.608 238.24 227.024 238.412L227.288 238.828C227.72 238.696 228.016 238.42 228.184 238.076C228.352 238.392 228.636 238.644 229.052 238.764L229.308 238.356ZM229.548 240.028H228.148V239.704H229.548V240.028ZM229.548 239.3H228.148V238.964H227.624V240.448H230.072V238.964H229.548V239.3ZM229.54 236.812V238.808H230.072V236.812H229.54Z" fill="black"/>
<path d="M221.84 262.408C221.26 262.216 221.012 261.756 221.012 261.3V260.996H220.476V261.312C220.476 261.808 220.22 262.3 219.604 262.508L219.88 262.92C220.308 262.772 220.596 262.484 220.756 262.112C220.916 262.432 221.18 262.688 221.564 262.82L221.84 262.408ZM220.676 263.5H222.036V264.036H220.676V263.5ZM220.156 264.448H222.552V263.084H220.156V264.448ZM223.04 261.64H222.552V260.808H222.024V262.936H222.552V262.076H223.04V261.64ZM224.432 262.412H223.956V261.964H224.432V262.412ZM224.92 261.044H224.432V261.56H223.956V261.044H223.46V262.824H224.92V261.044ZM223.936 263.616H225.944V264.496H226.472V263.196H223.936V263.616ZM225.972 260.808V261.708H225.684V260.872H225.192V263.012H225.684V262.132H225.972V263.024H226.472V260.808H225.972ZM227.936 263.352H227.408V264.428H230.008V264.008H227.936V263.352ZM228.944 262.688V262.328H229.98V261.908H227.944V261.404H229.948V260.984H227.42V262.328H228.416V262.688H227.016V263.108H230.348V262.688H228.944Z" fill="black"/>
<path d="M261.189 247.572H261.569V249.196C261.441 249.2 261.313 249.204 261.189 249.208V247.572ZM262.077 247.572H262.393V247.148H260.361V247.572H260.677V249.22C260.533 249.22 260.393 249.22 260.265 249.22L260.321 249.652C260.949 249.652 261.785 249.636 262.533 249.504L262.501 249.12C262.365 249.14 262.221 249.148 262.077 249.16V247.572ZM263.733 248.2H263.197V246.812H262.669V250.496H263.197V248.636H263.733V248.2ZM266.516 246.804V250.5H267.044V246.804H266.516ZM265.064 247.064C264.508 247.064 264.096 247.568 264.096 248.376C264.096 249.188 264.508 249.696 265.064 249.696C265.62 249.696 266.032 249.188 266.032 248.376C266.032 247.568 265.62 247.064 265.064 247.064ZM265.064 247.54C265.336 247.54 265.524 247.832 265.524 248.376C265.524 248.924 265.336 249.216 265.064 249.216C264.792 249.216 264.604 248.924 264.604 248.376C264.604 247.832 264.792 247.54 265.064 247.54ZM268.68 249.216C268.412 249.216 268.232 248.924 268.232 248.376C268.232 247.832 268.412 247.54 268.68 247.54C268.952 247.54 269.132 247.832 269.132 248.376C269.132 248.924 268.952 249.216 268.68 249.216ZM270.236 246.804V248.132H269.62C269.548 247.468 269.176 247.064 268.68 247.064C268.132 247.064 267.728 247.568 267.728 248.376C267.728 249.188 268.132 249.696 268.68 249.696C269.192 249.696 269.568 249.264 269.624 248.56H270.236V250.5H270.764V246.804H270.236ZM274.492 246.812H273.992V248.708H274.492V246.812ZM272.452 248.188H271.976V247.8H272.452V248.188ZM272.94 247.996H273.244V248.688H273.736V246.872H273.244V247.58H272.94V247.008H272.452V247.412H271.976V247.012H271.48V248.592H272.94V247.996ZM272.524 250.064V249.84H274.492V248.856H271.988V249.26H273.964V249.46H271.996V250.464H274.608V250.064H272.524ZM261.061 252.564H262.313V252.136H260.533V254.624H260.857C261.641 254.624 262.109 254.608 262.609 254.512L262.561 254.076C262.117 254.16 261.705 254.18 261.061 254.184V252.564ZM262.837 251.808V255.504H263.365V251.808H262.837ZM265 254.216C264.732 254.216 264.552 253.924 264.552 253.376C264.552 252.832 264.732 252.54 265 252.54C265.272 252.54 265.452 252.832 265.452 253.376C265.452 253.924 265.272 254.216 265 254.216ZM266.556 251.804V253.132H265.94C265.868 252.468 265.496 252.064 265 252.064C264.452 252.064 264.048 252.568 264.048 253.376C264.048 254.188 264.452 254.696 265 254.696C265.512 254.696 265.888 254.264 265.944 253.56H266.556V255.5H267.084V251.804H266.556ZM270.54 254.24C270.688 253.456 270.688 252.936 270.688 252.476V252.124H268.012V252.544H270.16C270.16 252.972 270.152 253.484 270.012 254.18L270.54 254.24ZM269.38 254.624V253.356H268.852V254.624H267.676V255.048H271.008V254.624H269.38ZM272.42 254.16H271.948V252.6H272.42V254.16ZM273.264 253.144H272.908V252.184H271.456V254.572H272.908V253.572H273.264V255.324H273.756V251.864H273.264V253.144ZM274.012 251.804V255.488H274.512V251.804H274.012Z" fill="black"/>
<path d="M239.493 308.14V310.616H241.265V308.14H239.493ZM240.745 308.556V310.2H240.013V308.556H240.745ZM241.837 307.808V311.5H242.365V307.808H241.837ZM243.98 310.216C243.704 310.216 243.52 309.924 243.52 309.376C243.52 308.832 243.704 308.54 243.98 308.54C244.252 308.54 244.44 308.832 244.44 309.376C244.44 309.924 244.252 310.216 243.98 310.216ZM243.98 308.064C243.42 308.064 243.012 308.568 243.012 309.376C243.012 310.188 243.42 310.696 243.98 310.696C244.536 310.696 244.948 310.188 244.948 309.376C244.948 308.568 244.536 308.064 243.98 308.064ZM246.412 309.196H245.876V307.808H245.348V311.492H245.876V309.632H246.412V309.196ZM247.592 310.3H247.064V311.428H249.664V311.008H247.592V310.3ZM248.608 309.656V309.216H249.632V308.796H247.616V307.912H247.088V309.216H248.08V309.656H246.676V310.076H250.008V309.656H248.608ZM250.992 308.156H250.464V310.588H250.784C251.32 310.588 251.912 310.556 252.524 310.428L252.472 309.996C251.956 310.096 251.456 310.136 250.992 310.148V308.156ZM253.752 309.196H253.236V307.804H252.708V311.484H253.236V309.632H253.752V309.196Z" fill="black"/>
<path d="M293.937 261.48H294.465V258.808H293.937V259.62H293.509V260.04H293.937V261.48ZM293.781 260.592C293.353 260.328 293.249 259.844 293.249 259.38V259.056H292.877V259.06H292.757V259.384C292.757 259.712 292.713 260.08 292.513 260.368C292.313 260.08 292.269 259.704 292.269 259.384V259.06H292.149V259.056H291.773V259.38C291.773 259.828 291.669 260.32 291.241 260.592L291.525 260.964C291.769 260.812 291.925 260.576 292.021 260.3C292.109 260.588 292.261 260.84 292.513 261.008C292.765 260.844 292.917 260.596 293.005 260.308C293.097 260.584 293.253 260.816 293.497 260.964L293.781 260.592ZM292.433 262.008V261.232H291.905V262.428H294.545V262.008H292.433ZM295.908 261.256H295.38V262.428H297.992V262.008H295.908V261.256ZM297.844 260.568C297.936 260.06 297.936 259.684 297.936 259.32V258.972H295.404V259.392H297.416C297.416 259.5 297.416 259.608 297.412 259.724L295.3 259.768L295.36 260.192L297.384 260.108C297.368 260.252 297.348 260.4 297.312 260.568H294.992V260.988H298.324V260.568H297.844ZM298.84 259.184V259.612H300.044C299.948 260.428 299.492 261.012 298.636 261.452L298.932 261.856C300.156 261.236 300.576 260.288 300.576 259.184H298.84ZM302.072 260.212H301.556V258.804H301.028V262.484H301.556V260.648H302.072V260.212ZM305.32 259.908H303.284V259.36H305.292V258.94H302.76V260.328H305.32V259.908ZM303.276 261.324H302.748V262.428H305.348V262.008H303.276V261.324ZM302.356 260.628V261.048H305.688V260.628H302.356Z" fill="white"/>
<path d="M265.164 194.544H266.332V193.12H264.64V193.54H265.812V194.128H264.644V195.648H264.956C265.596 195.648 266.104 195.624 266.656 195.524L266.608 195.096C266.128 195.18 265.692 195.208 265.164 195.212V194.544ZM267.912 194.196H267.384V192.804H266.856V196.5H267.384V194.632H267.912V194.196ZM271.312 192.812H270.812V195.548H271.312V192.812ZM269.272 194.496H268.792V193.568H269.272V194.496ZM269.76 194.22H270.072V195.44H270.564V192.872H270.072V193.796H269.76V193.164H268.3V194.9H269.76V194.22ZM269.36 196.008V195.228H268.832V196.428H271.404V196.008H269.36ZM263.732 200.2H263.252V199.404H263.732V200.2ZM264.564 199.156H264.22V198.144H263.732V198.988H263.252V198.14H262.756V200.62H264.22V199.58H264.564V201.332H265.056V197.872H264.564V199.156ZM265.312 197.804V201.488H265.812V197.804H265.312ZM267.004 199.544H268.172V198.12H266.48V198.54H267.652V199.128H266.484V200.648H266.796C267.436 200.648 267.944 200.624 268.496 200.524L268.448 200.096C267.968 200.18 267.532 200.208 267.004 200.212V199.544ZM269.752 199.196H269.224V197.804H268.696V201.5H269.224V199.632H269.752V199.196ZM270.888 199.024H272.464V199.54H270.888V199.024ZM271.94 200.636V199.96H272.984V198.036H272.464V198.608H270.888V198.036H270.364V199.96H271.412V200.636H270.012V201.064H273.348V200.636H271.94Z" fill="black"/>
<path fill-rule="evenodd" clip-rule="evenodd" d="M248.789 247.432C252.317 246.822 255 243.756 255 240.065C255 235.935 251.642 232.588 247.5 232.588C243.358 232.588 240 235.935 240 240.065C240 243.756 242.683 246.822 246.211 247.432L247.5 252.588L248.789 247.432Z" fill="black"/>
<path fill-rule="evenodd" clip-rule="evenodd" d="M248.789 245.432C252.317 244.822 255 241.756 255 238.065C255 233.935 251.642 230.588 247.5 230.588C243.358 230.588 240 233.935 240 238.065C240 241.756 242.683 244.822 246.211 245.432L247.5 250.588L248.789 245.432Z" fill="#FF0000"/>
<ellipse cx="247.5" cy="238.065" rx="2.5" ry="2.49231" fill="white"/>
<path d="M197 311.588H214L248 277.588V259.588" stroke="#FF0000" stroke-width="3" stroke-linecap="round"/>
<path d="M186.734 590.352H185.234V591.852V702.119H1.5V525.582H95.2488H96.7488V524.082V474.677H161.319H162.819V473.177V407.616H206.616H208.116V406.116V375.828H313.5V540.32H186.734H185.234V541.82V562.313V563.813H186.734H214.102V590.352H186.734Z" fill="white" stroke="black" stroke-width="3" stroke-miterlimit="10"/>
<path d="M168.086 498.698H254.188V462.853H168.086V498.698Z" fill="#C4C4C4"/>
<path d="M143.45 498.675H164.65V479.078H143.45V498.675Z" fill="black"/>
<path d="M156.495 485.96C156.906 485.96 157.248 485.644 157.248 485.264C157.248 484.885 156.906 484.569 156.495 484.569C156.085 484.569 155.743 484.885 155.743 485.264C155.743 485.644 156.085 485.96 156.495 485.96Z" fill="white"/>
<path d="M156.358 490.448V492.913C156.358 493.356 155.675 493.356 155.675 492.913V490.448H154.717L155.743 487.16H155.538L154.922 488.994C154.786 489.373 154.17 489.247 154.307 488.804L154.991 486.781C155.059 486.528 155.401 486.149 155.948 486.149H156.427H156.974C157.521 486.149 157.863 486.591 157.931 486.781L158.615 488.804C158.752 489.247 158.137 489.436 158 488.994L157.384 487.16H157.179L158.205 490.448H157.248V492.913C157.248 493.356 156.564 493.356 156.564 492.913V490.448H156.358Z" fill="white"/>
<path d="M150.583 486.212C150.036 486.212 149.626 486.592 149.626 487.161V489.31C149.626 489.753 150.31 489.753 150.31 489.31V487.35H150.447V492.85C150.447 493.419 151.336 493.419 151.336 492.85V489.626H151.473V492.85C151.473 493.419 152.362 493.419 152.362 492.85V487.35H152.498V489.31C152.498 489.753 153.182 489.753 153.182 489.31V487.161C153.182 486.718 152.772 486.212 152.225 486.212H150.583Z" fill="white"/>
<path d="M151.404 485.96C151.819 485.96 152.156 485.648 152.156 485.264C152.156 484.88 151.819 484.569 151.404 484.569C150.988 484.569 150.651 484.88 150.651 485.264C150.651 485.648 150.988 485.96 151.404 485.96Z" fill="white"/>
<path d="M7.5406 613.083H28.7412L28.7412 593.485H7.5406L7.5406 613.083Z" fill="black"/>
<path d="M20.6292 600.384C21.0396 600.384 21.3815 600.068 21.3815 599.689C21.3815 599.31 21.0396 598.994 20.6292 598.994C20.2189 598.994 19.877 599.31 19.877 599.689C19.877 600.068 20.2189 600.384 20.6292 600.384Z" fill="white"/>
<path d="M20.4922 604.81V607.276C20.4922 607.718 19.8084 607.718 19.8084 607.276V604.81H18.8509L19.8767 601.523H19.74L19.1245 603.356C18.9877 603.735 18.3722 603.609 18.509 603.166L19.1928 601.143C19.2612 600.891 19.6032 600.511 20.1503 600.511H20.629H21.1761C21.7233 600.511 22.0652 600.954 22.1336 601.143L22.8175 603.166C22.9543 603.609 22.3388 603.799 22.202 603.356L21.5865 601.523H21.3813L22.4071 604.81H21.4497V607.276C21.4497 607.718 20.7658 607.718 20.7658 607.276V604.81H20.4922Z" fill="white"/>
<path d="M14.7856 600.574C14.2385 600.574 13.8281 600.954 13.8281 601.522V603.672C13.8281 604.114 14.512 604.114 14.512 603.672V601.712H14.6488V607.212C14.6488 607.781 15.5379 607.781 15.5379 607.212V603.988H15.6746V607.212C15.6746 607.781 16.5637 607.781 16.5637 607.212V601.712H16.7005V603.672C16.7005 604.114 17.3844 604.114 17.3844 603.672V601.522C17.3844 601.08 16.974 600.574 16.4269 600.574H14.7856Z" fill="white"/>
<path d="M15.5374 600.384C15.9529 600.384 16.2897 600.073 16.2897 599.689C16.2897 599.305 15.9529 598.994 15.5374 598.994C15.122 598.994 14.7852 599.305 14.7852 599.689C14.7852 600.073 15.122 600.384 15.5374 600.384Z" fill="white"/>
<path d="M7.73652 662.086H113.842V626.204H7.73652V662.086Z" fill="#C4C4C4"/>
<path d="M116.266 661.937H130.012V626.092H116.266V661.937Z" fill="black"/>
<path d="M180.672 594V661.96H169.662L152.701 644.891V620.552L180.672 594Z" fill="#C8A67C"/>
<path d="M127.136 649.885V644.448C127.136 643.879 126.658 643.437 126.042 643.437H120.161C119.545 643.437 119.066 643.879 119.066 644.448V649.885C119.066 650.454 119.545 650.896 120.161 650.896H126.042C126.658 650.833 127.136 650.454 127.136 649.885ZM126.247 650.011H119.955V644.258H126.247V650.011Z" fill="white"/>
<path d="M124.128 639.896C124.128 639.454 124.811 639.454 124.811 639.896V641.667L125.153 641.287C125.427 641.034 125.837 641.414 125.564 641.667L124.675 642.615C124.538 642.741 124.333 642.741 124.196 642.615L123.307 641.667C123.033 641.35 123.512 641.034 123.717 641.287L124.059 641.73L124.128 639.896Z" fill="white"/>
<path d="M121.461 642.427C121.461 642.87 122.145 642.87 122.145 642.427V640.657L122.486 641.036C122.76 641.289 123.17 640.91 122.897 640.657L122.008 639.709C121.871 639.582 121.666 639.582 121.529 639.709L120.64 640.657C120.366 640.973 120.845 641.289 121.05 641.036L121.392 640.594L121.461 642.427Z" fill="white"/>
<path d="M124.948 645.965H123.785C123.648 645.965 123.512 646.092 123.512 646.218V647.546C123.512 647.672 123.58 647.735 123.717 647.735C123.717 647.735 123.785 647.735 123.854 647.735V649.442C123.854 649.758 124.332 649.758 124.332 649.442V647.735H124.401V649.442C124.401 649.758 124.879 649.758 124.879 649.442V647.735C124.948 647.735 125.016 647.735 125.016 647.735C125.153 647.735 125.221 647.672 125.221 647.546V646.218C125.221 646.092 125.085 645.965 124.948 645.965Z" fill="white"/>
<path d="M124.401 645.839C124.589 645.839 124.743 645.697 124.743 645.523C124.743 645.348 124.589 645.207 124.401 645.207C124.212 645.207 124.059 645.348 124.059 645.523C124.059 645.697 124.212 645.839 124.401 645.839Z" fill="white"/>
<path d="M122.486 645.965H121.323C121.187 645.965 121.05 646.092 121.05 646.218V647.546C121.05 647.672 121.118 647.735 121.255 647.735C121.255 647.735 121.323 647.735 121.392 647.735V649.442C121.392 649.758 121.87 649.758 121.87 649.442V647.735H121.939V649.442C121.939 649.758 122.418 649.758 122.418 649.442V647.735C122.486 647.735 122.554 647.735 122.554 647.735C122.691 647.735 122.76 647.672 122.76 647.546V646.218C122.76 646.092 122.623 645.965 122.486 645.965Z" fill="white"/>
<path d="M121.939 645.839C122.128 645.839 122.281 645.697 122.281 645.523C122.281 645.348 122.128 645.207 121.939 645.207C121.75 645.207 121.597 645.348 121.597 645.523C121.597 645.697 121.75 645.839 121.939 645.839Z" fill="white"/>
<path d="M189.434 587.044H210.635V566.751H189.434V587.044Z" fill="black"/>
<path d="M204.073 581.545V576.109C204.073 575.54 203.594 575.097 202.979 575.097H197.097C196.482 575.097 196.003 575.54 196.003 576.109V581.545C196.003 582.114 196.482 582.557 197.097 582.557H202.979C203.594 582.557 204.073 582.114 204.073 581.545ZM203.184 581.735H196.892V575.982H203.184V581.735Z" fill="white"/>
<path d="M200.996 571.557C200.996 571.114 201.68 571.114 201.68 571.557V573.327L202.022 572.948C202.295 572.695 202.706 573.074 202.432 573.327L201.543 574.275C201.406 574.402 201.201 574.402 201.064 574.275L200.175 573.327C199.902 573.011 200.38 572.695 200.585 572.948L200.927 573.39L200.996 571.557Z" fill="white"/>
<path d="M198.397 574.088C198.397 574.53 199.081 574.53 199.081 574.088V572.318L199.423 572.697C199.697 572.95 200.107 572.57 199.833 572.318L198.944 571.369C198.807 571.243 198.602 571.243 198.466 571.369L197.576 572.318C197.303 572.634 197.782 572.95 197.987 572.697L198.329 572.254L198.397 574.088Z" fill="white"/>
<path d="M201.884 577.689H200.722C200.585 577.689 200.448 577.816 200.448 577.942V579.27C200.448 579.396 200.517 579.46 200.653 579.46C200.653 579.46 200.722 579.46 200.79 579.46V581.166C200.79 581.482 201.269 581.482 201.269 581.166V579.46H201.337V581.166C201.337 581.482 201.816 581.482 201.816 581.166V579.46C201.884 579.46 201.953 579.46 201.953 579.46C202.09 579.46 202.158 579.396 202.158 579.27V577.942C202.158 577.753 202.021 577.689 201.884 577.689Z" fill="white"/>
<path d="M201.269 577.499C201.458 577.499 201.611 577.358 201.611 577.183C201.611 577.009 201.458 576.867 201.269 576.867C201.08 576.867 200.927 577.009 200.927 577.183C200.927 577.358 201.08 577.499 201.269 577.499Z" fill="white"/>
<path d="M199.354 577.689H198.192C198.055 577.689 197.918 577.816 197.918 577.942V579.27C197.918 579.396 197.986 579.46 198.123 579.46C198.123 579.46 198.192 579.46 198.26 579.46V581.166C198.26 581.482 198.739 581.482 198.739 581.166V579.46H198.807V581.166C198.807 581.482 199.286 581.482 199.286 581.166V579.46C199.354 579.46 199.423 579.46 199.423 579.46C199.559 579.46 199.628 579.396 199.628 579.27V577.942C199.628 577.753 199.559 577.689 199.354 577.689Z" fill="white"/>
<path d="M198.807 577.499C198.996 577.499 199.149 577.358 199.149 577.183C199.149 577.009 198.996 576.867 198.807 576.867C198.618 576.867 198.465 577.009 198.465 577.183C198.465 577.358 198.618 577.499 198.807 577.499Z" fill="white"/>
<path d="M66.994 613.08H98.7266V592.723H66.994V613.08Z" fill="black"/>
<path d="M39.4602 590.206V613.091H64.6274V590.206H98.7535V529.643H7.62402V590.206H39.4602Z" fill="#C4C4C4"/>
<path d="M86.9224 607.592V602.155C86.9224 601.586 86.4437 601.144 85.8282 601.144H80.0151C79.3996 601.144 78.9209 601.586 78.9209 602.155V607.592C78.9209 608.161 79.3996 608.603 80.0151 608.603H85.8966C86.4437 608.54 86.9224 608.161 86.9224 607.592ZM86.0334 607.718H79.7416V601.965H86.0334V607.718Z" fill="white"/>
<path d="M83.9128 597.603C83.9128 597.161 84.5967 597.161 84.5967 597.603V599.373L84.9386 598.994C85.2122 598.741 85.6225 599.121 85.349 599.373L84.4599 600.322C84.3231 600.448 84.1179 600.448 83.9812 600.322L83.0921 599.373C82.8185 599.057 83.2973 598.741 83.5024 598.994L83.8444 599.437L83.9128 597.603Z" fill="white"/>
<path d="M81.2458 600.134C81.2458 600.576 81.9297 600.576 81.9297 600.134V598.363L82.2716 598.743C82.5452 598.996 82.9555 598.616 82.6819 598.363L81.7929 597.415C81.6561 597.289 81.4509 597.289 81.3142 597.415L80.4251 598.363C80.1515 598.68 80.6303 598.996 80.8354 598.743L81.1774 598.3L81.2458 600.134Z" fill="white"/>
<path d="M84.734 603.672H83.5714C83.4346 603.672 83.2979 603.799 83.2979 603.925V605.253C83.2979 605.379 83.3662 605.442 83.503 605.442C83.503 605.442 83.5714 605.442 83.6398 605.442V607.149C83.6398 607.465 84.1185 607.465 84.1185 607.149V605.442H84.1869V607.149C84.1869 607.465 84.6656 607.465 84.6656 607.149V605.442C84.734 605.442 84.8024 605.442 84.8024 605.442C84.9392 605.442 85.0076 605.379 85.0076 605.253V603.925C85.0076 603.799 84.8708 603.672 84.734 603.672Z" fill="white"/>
<path d="M84.1867 603.546C84.3755 603.546 84.5286 603.404 84.5286 603.23C84.5286 603.055 84.3755 602.914 84.1867 602.914C83.9978 602.914 83.8447 603.055 83.8447 603.23C83.8447 603.404 83.9978 603.546 84.1867 603.546Z" fill="white"/>
<path d="M82.2721 603.672H81.1095C80.9727 603.672 80.8359 603.799 80.8359 603.925V605.253C80.8359 605.379 80.9043 605.442 81.0411 605.442C81.0411 605.442 81.1095 605.442 81.1779 605.442V607.149C81.1779 607.465 81.6566 607.465 81.6566 607.149V605.442H81.725V607.149C81.725 607.465 82.2037 607.465 82.2037 607.149V605.442C82.2721 605.442 82.3405 605.442 82.3405 605.442C82.4773 605.442 82.5457 605.379 82.5457 605.253V603.925C82.5457 603.799 82.4089 603.672 82.2721 603.672Z" fill="white"/>
<path d="M81.7247 603.546C81.9136 603.546 82.0667 603.404 82.0667 603.23C82.0667 603.055 81.9136 602.914 81.7247 602.914C81.5359 602.914 81.3828 603.055 81.3828 603.23C81.3828 603.404 81.5359 603.546 81.7247 603.546Z" fill="white"/>
<path d="M168.071 451.413H206.438V412.47H168.071V451.413Z" fill="#C4C4C4"/>
<path d="M256.225 498.698H269.971V462.853H256.225V498.698Z" fill="black"/>
<path d="M267.128 486.592V481.155C267.128 480.586 266.649 480.144 266.033 480.144H260.152C259.536 480.144 259.058 480.586 259.058 481.155V486.592C259.058 487.161 259.536 487.603 260.152 487.603H266.033C266.649 487.603 267.128 487.161 267.128 486.592ZM266.239 486.782H259.947V481.029H266.239V486.782Z" fill="white"/>
<path d="M264.119 476.603C264.119 476.161 264.803 476.161 264.803 476.603V478.374L265.145 477.994C265.418 477.741 265.829 478.121 265.555 478.374L264.666 479.322C264.529 479.448 264.324 479.448 264.187 479.322L263.298 478.374C263.025 478.057 263.503 477.741 263.708 477.994L264.05 478.437L264.119 476.603Z" fill="white"/>
<path d="M261.452 479.134C261.452 479.577 262.136 479.577 262.136 479.134V477.364L262.478 477.743C262.751 477.996 263.162 477.617 262.888 477.364L261.999 476.416C261.862 476.289 261.657 476.289 261.52 476.416L260.631 477.364C260.358 477.68 260.836 477.996 261.042 477.743L261.383 477.301L261.452 479.134Z" fill="white"/>
<path d="M264.939 482.736H263.777C263.64 482.736 263.503 482.862 263.503 482.989V484.316C263.503 484.443 263.571 484.506 263.708 484.506C263.708 484.506 263.776 484.506 263.845 484.506V486.213C263.845 486.529 264.324 486.529 264.324 486.213V484.506H264.392V486.213C264.392 486.529 264.871 486.529 264.871 486.213V484.506C264.939 484.506 265.008 484.506 265.008 484.506C265.144 484.506 265.213 484.443 265.213 484.316V482.989C265.213 482.799 265.076 482.736 264.939 482.736Z" fill="white"/>
<path d="M264.392 482.546C264.581 482.546 264.734 482.404 264.734 482.23C264.734 482.055 264.581 481.914 264.392 481.914C264.203 481.914 264.05 482.055 264.05 482.23C264.05 482.404 264.203 482.546 264.392 482.546Z" fill="white"/>
<path d="M262.477 482.736H261.315C261.178 482.736 261.041 482.862 261.041 482.989V484.316C261.041 484.443 261.109 484.506 261.246 484.506C261.246 484.506 261.315 484.506 261.383 484.506V486.213C261.383 486.529 261.862 486.529 261.862 486.213V484.506H261.93V486.213C261.93 486.529 262.409 486.529 262.409 486.213V484.506C262.477 484.506 262.546 484.506 262.546 484.506C262.682 484.506 262.751 484.443 262.751 484.316V482.989C262.751 482.799 262.614 482.736 262.477 482.736Z" fill="white"/>
<path d="M261.861 482.546C262.05 482.546 262.203 482.404 262.203 482.23C262.203 482.055 262.05 481.914 261.861 481.914C261.673 481.914 261.52 482.055 261.52 482.23C261.52 482.404 261.673 482.546 261.861 482.546Z" fill="white"/>
<path d="M232.654 519.19H269.994V506.041H232.654V519.19Z" fill="black"/>
<path d="M254.211 535.984H308.369V500.102H278.507V521.75H254.211V535.984Z" fill="#C4C4C4"/>
<path d="M278.527 499.077H308.369V438.589H278.527V499.077Z" fill="#DAC452"/>
<path d="M265.264 428.336H308.369V380.151H265.264V428.336Z" fill="#DAC452"/>
<path d="M213.315 428.336H259.736V380.151H213.315V428.336Z" fill="#DAC452"/>
<path d="M250.51 510.046C250.92 510.046 251.262 509.729 251.262 509.35C251.262 508.971 250.92 508.655 250.51 508.655C250.1 508.655 249.758 508.971 249.758 509.35C249.758 509.729 250.1 510.046 250.51 510.046Z" fill="white"/>
<path d="M255.502 509.413H253.793C253.451 509.413 252.972 509.54 252.698 509.792L251.125 511.246V510.804C251.125 509.919 249.689 509.919 249.689 510.804V512.511L248.321 513.775C248.185 513.902 248.185 513.902 247.911 513.902H247.09C246.27 513.902 245.723 514.597 245.723 515.166C245.723 515.735 246.201 516.494 247.159 516.494C247.159 516.494 248.321 516.494 248.663 516.494C249.005 516.494 249.416 516.367 249.758 516.051L254.135 512.068C254.203 512.005 254.271 511.942 254.408 511.942C254.408 511.942 255.024 511.942 255.502 511.942C256.049 511.942 256.733 511.373 256.733 510.614C256.802 509.919 256.118 509.413 255.502 509.413ZM255.434 511.373H254.545C254.135 511.373 253.998 511.436 253.793 511.626L249.416 515.672C249.211 515.861 249.005 515.925 248.732 515.925H247.296C246.954 515.925 246.612 515.608 246.612 515.229C246.612 514.85 246.954 514.66 247.227 514.66H248.185C248.458 514.66 248.663 514.597 248.8 514.407L253.245 510.298C253.451 510.108 253.587 510.108 253.929 510.108H255.434C255.776 510.108 256.049 510.488 256.049 510.741C256.049 510.994 255.913 511.373 255.434 511.373Z" fill="white"/>
<path d="M116.242 698.73H153.582V685.581H116.242V698.73Z" fill="#FF0000"/>
<path d="M134.112 689.572C134.522 689.572 134.864 689.256 134.864 688.877C134.864 688.498 134.522 688.182 134.112 688.182C133.701 688.182 133.359 688.498 133.359 688.877C133.359 689.256 133.701 689.572 134.112 689.572Z" fill="white"/>
<path d="M139.104 688.94H137.463C137.121 688.94 136.642 689.066 136.368 689.319L134.795 690.773V690.331C134.795 689.446 133.359 689.446 133.359 690.331V692.038L131.991 693.302C131.855 693.429 131.855 693.428 131.581 693.428H130.76C129.94 693.428 129.393 694.124 129.393 694.693C129.393 695.262 129.871 696.02 130.829 696.02C130.829 696.02 131.991 696.02 132.333 696.02C132.675 696.02 133.086 695.894 133.428 695.578L137.804 691.595C137.873 691.532 137.941 691.469 138.078 691.469C138.078 691.469 138.694 691.469 139.172 691.469C139.719 691.469 140.403 690.9 140.403 690.141C140.403 689.446 139.651 688.94 139.104 688.94ZM139.035 690.9H138.146C137.736 690.9 137.599 690.963 137.394 691.153L133.017 695.199C132.812 695.388 132.607 695.452 132.333 695.452H130.897C130.555 695.452 130.213 695.135 130.213 694.756C130.213 694.377 130.555 694.187 130.829 694.187H131.786C132.06 694.187 132.265 694.124 132.402 693.934L136.847 689.825C137.052 689.635 137.189 689.635 137.531 689.635H139.035C139.377 689.635 139.651 690.015 139.651 690.268C139.651 690.52 139.514 690.9 139.035 690.9Z" fill="white"/>
<path d="M189.592 558.408H226.933V545.258H189.592V558.408Z" fill="black"/>
<path d="M207.423 549.241C207.834 549.241 208.176 548.925 208.176 548.546C208.176 548.167 207.834 547.851 207.423 547.851C207.013 547.851 206.671 548.167 206.671 548.546C206.671 548.925 207.013 549.241 207.423 549.241Z" fill="white"/>
<path d="M212.485 548.609H210.775C210.433 548.609 209.954 548.735 209.681 548.988L208.108 550.442V550C208.108 549.115 206.672 549.115 206.672 550V551.707L205.304 552.971C205.167 553.097 205.167 553.097 204.894 553.097H204.073C203.252 553.097 202.705 553.793 202.705 554.362C202.705 554.931 203.184 555.689 204.141 555.689C204.141 555.689 205.304 555.689 205.646 555.689C205.988 555.689 206.398 555.563 206.74 555.247L211.117 551.264C211.185 551.201 211.254 551.138 211.39 551.138C211.39 551.138 212.006 551.138 212.485 551.138C213.032 551.138 213.716 550.569 213.716 549.81C213.716 549.115 213.032 548.609 212.485 548.609ZM212.348 550.569H211.459C211.049 550.569 210.912 550.632 210.707 550.822L206.33 554.868C206.125 555.057 205.919 555.12 205.646 555.12H204.21C203.868 555.12 203.526 554.804 203.526 554.425C203.526 554.046 203.868 553.856 204.141 553.856H205.099C205.372 553.856 205.577 553.793 205.714 553.603L210.159 549.494C210.365 549.304 210.501 549.304 210.843 549.304H212.348C212.69 549.304 212.963 549.684 212.963 549.936C212.963 550.189 212.827 550.569 212.348 550.569Z" fill="white"/>
<path d="M232.654 451.327H269.994V438.177H232.654V451.327Z" fill="black"/>
<path d="M250.51 442.213C250.92 442.213 251.262 441.897 251.262 441.517C251.262 441.138 250.92 440.822 250.51 440.822C250.1 440.822 249.758 441.138 249.758 441.517C249.758 441.897 250.1 442.213 250.51 442.213Z" fill="white"/>
<path d="M255.502 441.581H253.793C253.451 441.581 252.972 441.707 252.698 441.96L251.125 443.414V442.971C251.125 442.086 249.689 442.086 249.689 442.971V444.678L248.321 445.943C248.185 446.069 248.185 446.069 247.911 446.069H247.09C246.27 446.069 245.723 446.764 245.723 447.333C245.723 447.902 246.201 448.661 247.159 448.661C247.159 448.661 248.321 448.661 248.663 448.661C249.005 448.661 249.416 448.535 249.758 448.218L254.135 444.236C254.203 444.173 254.271 444.109 254.408 444.109C254.408 444.109 255.024 444.109 255.502 444.109C256.049 444.109 256.733 443.54 256.733 442.782C256.802 442.086 256.118 441.581 255.502 441.581ZM255.434 443.477H254.545C254.135 443.477 253.998 443.54 253.793 443.73L249.416 447.776C249.211 447.966 249.005 448.029 248.732 448.029H247.296C246.954 448.029 246.612 447.713 246.612 447.333C246.612 446.954 246.954 446.764 247.227 446.764H248.185C248.458 446.764 248.663 446.701 248.8 446.512L253.245 442.402C253.451 442.213 253.587 442.213 253.929 442.213H255.434C255.776 442.213 256.049 442.592 256.049 442.845C256.049 443.098 255.913 443.477 255.434 443.477Z" fill="white"/>
<path d="M101.739 547.007H149.543V529.622H101.739V547.007Z" fill="#C8A67C"/>
<path d="M102 594H150V578H102V594Z" fill="#C8A67C"/>
<path d="M120.163 574.94H149.57V564.257H120.163V574.94Z" fill="#C8A67C"/>
<path d="M101.832 592.736H149.568V594.822L130.008 613.092H101.832V592.736Z" fill="#C8A67C"/>
<path d="M101.832 521.741L129.188 503.282L149.568 511.5V527.115H101.832V521.741Z" fill="#C8A67C"/>
<path d="M117.288 574.971V561.696H149.568V549.558H101.832V574.971H117.288Z" fill="#C8A67C"/>
<path d="M171.411 384H176.326V382.732H172.949V380.996H176.059V379.728H172.949V377.995H176.312V376.727H171.411V384ZM178.788 384L179.327 382.342H181.952L182.491 384H184.139L181.632 376.727H179.65L177.14 384H178.788ZM179.718 381.141L180.613 378.389H180.67L181.565 381.141H179.718ZM188.794 378.819H190.267C190.246 377.523 189.181 376.628 187.562 376.628C185.967 376.628 184.799 377.509 184.806 378.83C184.802 379.902 185.559 380.516 186.787 380.811L187.579 381.01C188.371 381.202 188.812 381.429 188.815 381.919C188.812 382.452 188.307 382.814 187.526 382.814C186.727 382.814 186.152 382.445 186.102 381.717H184.614C184.653 383.29 185.779 384.103 187.544 384.103C189.319 384.103 190.363 383.254 190.367 381.923C190.363 380.712 189.451 380.069 188.187 379.785L187.533 379.629C186.901 379.483 186.372 379.249 186.383 378.727C186.383 378.258 186.798 377.913 187.551 377.913C188.286 377.913 188.737 378.247 188.794 378.819ZM191.124 377.995H193.351V384H194.871V377.995H197.097V376.727H191.124V377.995ZM160.851 389.995H163.077V396H164.597V389.995H166.824V388.727H160.851V389.995ZM174.168 392.364C174.168 389.984 172.691 388.628 170.763 388.628C168.824 388.628 167.357 389.984 167.357 392.364C167.357 394.732 168.824 396.099 170.763 396.099C172.691 396.099 174.168 394.743 174.168 392.364ZM172.609 392.364C172.609 393.905 171.878 394.739 170.763 394.739C169.644 394.739 168.916 393.905 168.916 392.364C168.916 390.822 169.644 389.988 170.763 389.988C171.878 389.988 172.609 390.822 172.609 392.364ZM176.671 396H178.17L179.551 391.245H179.608L180.993 396H182.491L184.572 388.727H182.893L181.689 393.791H181.625L180.3 388.727H178.862L177.534 393.781H177.474L176.27 388.727H174.59L176.671 396ZM185.395 396H190.31V394.732H186.933V392.996H190.044V391.728H186.933V389.995H190.296V388.727H185.395V396ZM191.518 396H193.056V393.422H194.178L195.556 396H197.253L195.709 393.173C196.536 392.818 196.994 392.097 196.994 391.103C196.994 389.658 196.039 388.727 194.388 388.727H191.518V396ZM193.056 392.186V389.984H194.093C194.981 389.984 195.41 390.379 195.41 391.103C195.41 391.824 194.981 392.186 194.1 392.186H193.056Z" fill="black"/>
<path d="M195.359 688.945H196.858L198.239 684.19H198.296L199.681 688.945H201.179L203.26 681.672H201.581L200.377 686.736H200.313L198.988 681.672H197.55L196.222 686.725H196.162L194.958 681.672H193.278L195.359 688.945ZM204.083 688.945H208.998V687.677H205.621V685.941H208.732V684.673H205.621V682.94H208.984V681.672H204.083V688.945ZM214.152 683.764H215.625C215.604 682.468 214.539 681.573 212.919 681.573C211.325 681.573 210.157 682.453 210.164 683.774C210.16 684.847 210.917 685.461 212.145 685.756L212.937 685.955C213.729 686.147 214.169 686.374 214.173 686.864C214.169 687.397 213.665 687.759 212.884 687.759C212.085 687.759 211.51 687.389 211.46 686.661H209.972C210.011 688.235 211.137 689.048 212.902 689.048C214.677 689.048 215.721 688.199 215.725 686.867C215.721 685.656 214.809 685.014 213.544 684.73L212.891 684.573C212.259 684.428 211.73 684.193 211.74 683.671C211.74 683.203 212.156 682.858 212.909 682.858C213.644 682.858 214.095 683.192 214.152 683.764ZM216.482 682.94H218.709V688.945H220.229V682.94H222.455V681.672H216.482V682.94ZM193.445 694.94H195.672V700.945H197.191V694.94H199.418V693.672H193.445V694.94ZM206.763 697.308C206.763 694.929 205.285 693.573 203.357 693.573C201.418 693.573 199.952 694.929 199.952 697.308C199.952 699.677 201.418 701.044 203.357 701.044C205.285 701.044 206.763 699.688 206.763 697.308ZM205.204 697.308C205.204 698.85 204.472 699.684 203.357 699.684C202.238 699.684 201.51 698.85 201.51 697.308C201.51 695.767 202.238 694.933 203.357 694.933C204.472 694.933 205.204 695.767 205.204 697.308ZM209.265 700.945H210.764L212.145 696.19H212.202L213.587 700.945H215.086L217.167 693.672H215.487L214.283 698.736H214.219L212.895 693.672H211.456L210.128 698.725H210.068L208.864 693.672H207.184L209.265 700.945ZM217.99 700.945H222.904V699.677H219.527V697.941H222.638V696.673H219.527V694.94H222.89V693.672H217.99V700.945ZM224.113 700.945H225.65V698.367H226.772L228.15 700.945H229.848L228.303 698.118C229.13 697.763 229.588 697.042 229.588 696.048C229.588 694.602 228.633 693.672 226.982 693.672H224.113V700.945ZM225.65 697.131V694.929H226.687C227.575 694.929 228.005 695.323 228.005 696.048C228.005 696.769 227.575 697.131 226.694 697.131H225.65Z" fill="black"/>
<path d="M16.5156 385H10.1563L2.23438 390.016V396.016L9.5625 391.422H9.75V417H16.5156V385ZM24.3086 417H31.0742V403.781H44.0898V398.203H31.0742V390.578H45.4961V385H24.3086V417Z" fill="black"/>
<path d="M278.52 406.703C279.633 406.703 280.123 405.905 280.123 404.932V401.425H279.087V404.848C279.087 405.562 278.849 405.807 278.394 405.807C278.1 405.807 277.827 405.646 277.624 405.268L276.91 405.793C277.26 406.395 277.764 406.703 278.52 406.703ZM282.919 406.703C284.116 406.703 284.823 405.982 284.823 405.135C284.823 404.386 284.41 403.987 283.78 403.728L283.101 403.441C282.66 403.266 282.289 403.133 282.289 402.762C282.289 402.419 282.583 402.216 283.038 402.216C283.465 402.216 283.808 402.37 284.137 402.643L284.662 401.992C284.242 401.565 283.64 401.327 283.038 401.327C281.988 401.327 281.246 401.978 281.246 402.825C281.246 403.581 281.771 404.001 282.296 404.218L282.989 404.512C283.451 404.708 283.766 404.827 283.766 405.212C283.766 405.576 283.479 405.807 282.94 405.807C282.485 405.807 281.995 405.576 281.624 405.233L281.029 405.947C281.533 406.43 282.226 406.703 282.919 406.703ZM285.698 401.418V402.167H287.805C287.637 403.595 286.839 404.617 285.341 405.387L285.859 406.094C288.001 405.009 288.736 403.35 288.736 401.418H285.698ZM291.354 403.217H290.451V400.753H289.527V407.193H290.451V403.98H291.354V403.217ZM297.037 402.685H293.474V401.726H296.988V400.991H292.557V403.42H297.037V402.685ZM293.46 405.163H292.536V407.095H297.086V406.36H293.46V405.163ZM291.85 403.945V404.68H297.681V403.945H291.85Z" fill="black"/>
<path d="M289.056 468.237H286.782V467.667H289.056V468.237ZM289.836 466.419H289.056V467.049H286.782V466.419H285.996V468.867H289.836V466.419ZM290.43 469.389H285.426V470.019H287.514V471.741H288.306V470.019H290.43V469.389ZM294.57 467.439H291.528V469.113H295.506V468.489H292.338V468.033H295.374V466.383H291.522V467.007H294.57V467.439ZM295.95 469.515H290.946V470.151H293.04V471.747H293.832V470.151H295.95V469.515ZM297.017 470.505H300.083V471.753H300.875V469.881H297.017V470.505ZM299.357 468.879V468.399H300.917V467.775H297.863V467.055H300.869V466.431H297.077V468.399H298.565V468.879H296.471V469.509H301.463V468.879H299.357Z" fill="black"/>
<path d="M228.715 405.051C228.365 405.051 228.113 404.771 228.113 404.288C228.113 403.805 228.365 403.518 228.715 403.518C229.065 403.518 229.317 403.805 229.317 404.288C229.317 404.771 229.065 405.051 228.715 405.051ZM228.715 402.748C227.889 402.748 227.301 403.385 227.301 404.288C227.301 405.184 227.889 405.821 228.715 405.821C229.541 405.821 230.129 405.184 230.129 404.288C230.129 403.385 229.541 402.748 228.715 402.748ZM229.17 400.935H228.26V401.733H227.161V402.468H230.241V401.733H229.17V400.935ZM231.823 400.753V403.385H231.333V400.879H230.472V406.934H231.333V404.127H231.823V407.2H232.698V400.753H231.823ZM236.513 401.712C237.353 401.712 237.892 401.964 237.892 402.426C237.892 402.895 237.353 403.147 236.513 403.147C235.666 403.147 235.127 402.895 235.127 402.426C235.127 401.964 235.666 401.712 236.513 401.712ZM236.513 403.882C237.885 403.882 238.844 403.315 238.844 402.426C238.844 401.551 237.885 400.977 236.513 400.977C235.134 400.977 234.182 401.551 234.182 402.426C234.182 403.315 235.134 403.882 236.513 403.882ZM239.446 404.365H233.608V405.107H236.044V407.214H236.968V405.107H239.446V404.365ZM241.335 403.798H243.428V401.306H240.383V402.041H242.483V403.07H240.39V405.723H240.971C242.14 405.723 243.085 405.681 244.135 405.499L244.037 404.75C243.127 404.904 242.315 404.953 241.335 404.96V403.798ZM244.485 400.753V407.221H245.409V400.753H244.485Z" fill="black"/>
<path d="M120.602 519.049C119.354 518.833 118.67 517.975 118.67 517.165V516.769H117.824V517.165C117.824 517.957 117.134 518.833 115.892 519.049L116.228 519.709C117.188 519.523 117.89 518.983 118.244 518.281C118.598 518.983 119.306 519.517 120.266 519.709L120.602 519.049ZM115.772 520.657V521.299H120.776V520.657H115.772ZM125.881 516.445H125.083V519.319H125.881V516.445ZM124.633 518.449C123.931 518.545 123.319 518.563 122.377 518.563V518.209H124.087V517.621H122.377V517.279H124.249V516.667H121.591V519.181H122.065C123.217 519.181 123.907 519.175 124.699 519.067L124.633 518.449ZM122.989 521.335V520.993H125.881V519.535H122.197V520.129H125.095V520.441H122.203V521.929H126.019V521.335H122.989ZM130.387 518.101H128.233V517.669H130.387V518.101ZM131.173 516.589H130.387V517.075H128.233V516.589H127.447V518.719H131.173V516.589ZM131.809 519.703V519.073H126.811V519.703H128.905V520.171H127.363V520.795H130.411V521.977H131.203V520.171H129.697V519.703H131.809ZM137.16 519.049C135.912 518.833 135.228 517.975 135.228 517.165V516.769H134.382V517.165C134.382 517.957 133.692 518.833 132.45 519.049L132.786 519.709C133.746 519.523 134.448 518.983 134.802 518.281C135.156 518.983 135.864 519.517 136.824 519.709L137.16 519.049ZM132.33 520.657V521.299H137.334V520.657H132.33Z" fill="black"/>
<path d="M115.884 537.73C115.884 537.166 116.406 536.836 117.162 536.836C117.924 536.836 118.446 537.166 118.446 537.73C118.446 538.294 117.924 538.624 117.162 538.624C116.406 538.624 115.884 538.294 115.884 537.73ZM117.558 540.166V539.23C118.536 539.116 119.226 538.552 119.226 537.73C119.226 536.806 118.344 536.206 117.162 536.206C115.986 536.206 115.104 536.806 115.104 537.73C115.104 538.552 115.794 539.11 116.766 539.23V540.166H114.666V540.808H119.67V540.166H117.558ZM123.845 537.52H120.761V539.386H124.751V538.756H121.547V538.138H124.625V536.296H120.755V536.926H123.845V537.52ZM120.185 540.178V540.826H125.189V540.178H120.185ZM126.923 537.73C126.923 537.166 127.445 536.836 128.201 536.836C128.963 536.836 129.485 537.166 129.485 537.73C129.485 538.294 128.963 538.624 128.201 538.624C127.445 538.624 126.923 538.294 126.923 537.73ZM128.597 540.166V539.23C129.575 539.116 130.265 538.552 130.265 537.73C130.265 536.806 129.383 536.206 128.201 536.206C127.025 536.206 126.143 536.806 126.143 537.73C126.143 538.552 126.833 539.11 127.805 539.23V540.166H125.705V540.808H130.709V540.166H128.597ZM134.884 537.52H131.8V539.386H135.79V538.756H132.586V538.138H135.664V536.296H131.794V536.926H134.884V537.52ZM131.224 540.178V540.826H136.228V540.178H131.224Z" fill="black"/>
<path d="M122.232 554.181H121.32V553.491H120.54V554.181H119.628V554.817H122.232V554.181ZM120.918 557.037C120.636 557.037 120.426 556.797 120.426 556.377C120.426 555.963 120.636 555.723 120.918 555.723C121.206 555.723 121.41 555.963 121.41 556.377C121.41 556.797 121.206 557.037 120.918 557.037ZM120.918 555.063C120.234 555.063 119.742 555.609 119.742 556.377C119.742 557.151 120.234 557.691 120.918 557.691C121.602 557.691 122.094 557.151 122.094 556.377C122.094 555.609 121.602 555.063 120.918 555.063ZM122.556 555.387H122.1V556.041H122.556V558.633H123.288V553.449H122.556V555.387ZM123.624 553.353V558.879H124.374V553.353H123.624ZM126.635 556.965C126.221 556.965 125.945 556.527 125.945 555.705C125.945 554.889 126.221 554.451 126.635 554.451C127.043 554.451 127.325 554.889 127.325 555.705C127.325 556.527 127.043 556.965 126.635 556.965ZM126.635 553.737C125.795 553.737 125.183 554.493 125.183 555.705C125.183 556.923 125.795 557.685 126.635 557.685C127.469 557.685 128.087 556.923 128.087 555.705C128.087 554.493 127.469 553.737 126.635 553.737ZM130.283 555.435H129.479V553.353H128.687V558.879H129.479V556.089H130.283V555.435Z" fill="black"/>
<path d="M117.315 595.582H116.265V594.802H117.315V595.582ZM118.089 595.096H119.073V597.07H119.865V592.996H119.073V594.46H118.089V593.362H117.315V594.196H116.265V593.356H115.479V596.212H118.089V595.096ZM117.009 597.79V596.674H116.217V598.42H119.985V597.79H117.009ZM120.975 593.674V594.304H122.373C122.271 595.39 121.803 596.188 120.693 596.836L121.155 597.388C122.697 596.488 123.153 595.222 123.153 593.674H120.975ZM124.743 592.99V595.072H124.251V593.134H123.513V598.282H124.251V595.708H124.743V598.516H125.499V592.99H124.743ZM129.578 595.498C128.708 595.24 128.33 594.622 128.318 593.992H129.398V593.356H126.41V593.992H127.508C127.496 594.682 127.1 595.384 126.206 595.684L126.602 596.302C127.25 596.092 127.688 595.654 127.934 595.108C128.174 595.564 128.594 595.93 129.2 596.11L129.578 595.498ZM128.828 597.91C128.12 597.91 127.742 597.76 127.742 597.448C127.742 597.13 128.12 596.98 128.828 596.98C129.53 596.98 129.908 597.13 129.908 597.448C129.908 597.76 129.53 597.91 128.828 597.91ZM128.828 596.368C127.676 596.368 126.956 596.77 126.956 597.448C126.956 598.12 127.676 598.516 128.828 598.516C129.974 598.516 130.694 598.12 130.694 597.448C130.694 596.77 129.974 596.368 128.828 596.368ZM130.634 594.262V592.99H129.842V596.272H130.634V594.91H131.366V594.262H130.634ZM132.842 595.606H134.426V594.988H132.842V594.088H134.612V593.452H132.056V597.274H132.506C133.436 597.274 134.144 597.256 134.942 597.13L134.87 596.494C134.192 596.602 133.586 596.632 132.842 596.638V595.606ZM135.65 592.984V594.934H134.702V595.57H135.65V598.528H136.442V592.984H135.65Z" fill="black"/>
<path d="M163.667 630.806C163.253 630.806 162.977 630.368 162.977 629.546C162.977 628.73 163.253 628.292 163.667 628.292C164.075 628.292 164.357 628.73 164.357 629.546C164.357 630.368 164.075 630.806 163.667 630.806ZM163.667 627.578C162.827 627.578 162.215 628.334 162.215 629.546C162.215 630.764 162.827 631.526 163.667 631.526C164.501 631.526 165.119 630.764 165.119 629.546C165.119 628.334 164.501 627.578 163.667 627.578ZM167.315 629.276H166.511V627.194H165.719V632.72H166.511V629.93H167.315V629.276ZM169.733 629.522H168.647V628.838H169.733V629.522ZM170.513 627.548H169.733V628.232H168.647V627.548H167.867V630.14H170.513V627.548ZM170.243 632.114C169.541 632.114 169.163 631.964 169.163 631.652C169.163 631.34 169.541 631.19 170.243 631.19C170.951 631.19 171.329 631.34 171.329 631.652C171.329 631.964 170.951 632.114 170.243 632.114ZM170.243 630.572C169.097 630.572 168.377 630.974 168.377 631.652C168.377 632.324 169.097 632.732 170.243 632.732C171.395 632.732 172.115 632.324 172.115 631.652C172.115 630.974 171.395 630.572 170.243 630.572ZM172.055 628.484V627.2H171.263V630.452H172.055V629.132H172.787V628.484H172.055ZM158.286 637.782H157.566V636.588H158.286V637.782ZM159.534 636.216H159.018V634.698H158.286V635.964H157.566V634.692H156.822V638.412H159.018V636.852H159.534V639.48H160.272V634.29H159.534V636.216ZM160.656 634.188V639.714H161.406V634.188H160.656ZM165.971 634.188V639.732H166.763V634.188H165.971ZM163.793 634.578C162.959 634.578 162.341 635.334 162.341 636.546C162.341 637.764 162.959 638.526 163.793 638.526C164.627 638.526 165.245 637.764 165.245 636.546C165.245 635.334 164.627 634.578 163.793 634.578ZM163.793 635.292C164.201 635.292 164.483 635.73 164.483 636.546C164.483 637.368 164.201 637.806 163.793 637.806C163.385 637.806 163.103 637.368 163.103 636.546C163.103 635.73 163.385 635.292 163.793 635.292ZM167.981 634.722V635.352H169.727C169.703 635.616 169.661 635.856 169.607 636.09L167.687 636.198L167.789 636.864L169.367 636.72C169.049 637.326 168.515 637.836 167.657 638.286L168.089 638.886C170.069 637.848 170.513 636.42 170.513 634.722H167.981ZM171.533 634.194V636.312H170.501V636.954H171.533V639.72H172.325V634.194H171.533ZM174.328 636.798H176.122V634.662H173.512V635.292H175.312V636.174H173.518V638.448H174.016C175.018 638.448 175.828 638.412 176.728 638.256L176.644 637.614C175.864 637.746 175.168 637.788 174.328 637.794V636.798ZM177.028 634.188V639.732H177.82V634.188H177.028Z" fill="black"/>
<path d="M126.92 570.149C126.324 569.957 126.076 569.493 126.076 569.025V568.625H125.54V569.021C125.54 569.525 125.28 570.017 124.66 570.217L124.94 570.629C125.36 570.489 125.652 570.201 125.816 569.833C125.976 570.165 126.248 570.429 126.648 570.561L126.92 570.149ZM125.772 570.841H125.244V572.021H127.744V571.601H125.772V570.841ZM127.616 569.469V568.401H127.088V571.097H127.616V569.905H128.104V569.469H127.616ZM129.067 570.145H130.219V569.733H129.067V569.133H130.271V568.705H128.539V571.253H128.851C129.483 571.253 129.979 571.237 130.539 571.153L130.491 570.733C130.011 570.805 129.587 570.825 129.067 570.829V570.145ZM131.815 569.797H131.279V568.401H130.751V572.089H131.279V570.233H131.815V569.797ZM132.707 569.165H133.427V570.773H132.707V569.165ZM132.187 571.189H133.947V568.749H132.187V571.189ZM135.495 569.789H134.959V568.405H134.431V572.085H134.959V570.225H135.495V569.789ZM136.491 570.137H137.687V568.713H135.947V569.133H137.147V569.721H135.951V571.237H136.283C136.951 571.237 137.491 571.213 138.091 571.109L138.035 570.681C137.515 570.769 137.051 570.797 136.491 570.801V570.137ZM138.291 568.397V572.093H138.819V568.397H138.291ZM140.423 570.809C140.147 570.809 139.963 570.517 139.963 569.969C139.963 569.425 140.147 569.133 140.423 569.133C140.695 569.133 140.883 569.425 140.883 569.969C140.883 570.517 140.695 570.809 140.423 570.809ZM140.423 568.657C139.863 568.657 139.455 569.161 139.455 569.969C139.455 570.781 139.863 571.289 140.423 571.289C140.979 571.289 141.391 570.781 141.391 569.969C141.391 569.161 140.979 568.657 140.423 568.657ZM142.855 569.789H142.319V568.401H141.791V572.085H142.319V570.225H142.855V569.789ZM145.046 571.245V570.405H146.098V569.985H144.018V568.681H143.49V570.405H144.518V571.245H143.114V571.673H146.45V571.245H145.046ZM149.934 568.405H149.434V570.301H149.934V568.405ZM147.894 569.781H147.418V569.393H147.894V569.781ZM148.382 569.589H148.686V570.281H149.178V568.465H148.686V569.173H148.382V568.601H147.894V569.005H147.418V568.605H146.922V570.185H148.382V569.589ZM147.966 571.657V571.433H149.934V570.449H147.43V570.853H149.406V571.053H147.438V572.057H150.05V571.657H147.966ZM151.146 570.137H152.314V568.713H150.622V569.133H151.794V569.721H150.626V571.241H150.938C151.578 571.241 152.086 571.217 152.638 571.117L152.59 570.689C152.11 570.773 151.674 570.801 151.146 570.805V570.137ZM153.894 569.789H153.366V568.397H152.838V572.093H153.366V570.225H153.894V569.789Z" fill="black"/>
<path fill-rule="evenodd" clip-rule="evenodd" d="M168.789 582.196C172.317 581.587 175 578.521 175 574.829C175 570.7 171.642 567.353 167.5 567.353C163.358 567.353 160 570.7 160 574.829C160 578.521 162.683 581.587 166.211 582.196L167.5 587.353L168.789 582.196Z" fill="black"/>
<path fill-rule="evenodd" clip-rule="evenodd" d="M168.789 580.196C172.317 579.587 175 576.521 175 572.829C175 568.7 171.642 565.353 167.5 565.353C163.358 565.353 160 568.7 160 572.829C160 576.521 162.683 579.587 166.211 580.196L167.5 585.353L168.789 580.196Z" fill="#FF0000"/>
<ellipse cx="167.5" cy="572.829" rx="2.5" ry="2.49231" fill="white"/>
<path d="M167 591.844L142 615.034V670.688" stroke="#FF0000" stroke-width="3" stroke-linecap="round"/>
<path d="M0.90918 732.96C0.90918 731.93 1.0459 730.941 1.31934 729.993C1.59733 729.045 2.00977 728.184 2.55664 727.409C3.10352 726.634 3.6709 726.088 4.25879 725.769L4.51855 726.603C3.85319 727.113 3.30632 727.892 2.87793 728.94C2.4541 729.989 2.22168 731.162 2.18066 732.461L2.17383 733.042C2.17383 734.801 2.49512 736.328 3.1377 737.622C3.52507 738.397 3.98535 739.003 4.51855 739.44L4.25879 740.213C3.65267 739.876 3.07389 739.311 2.52246 738.518C1.44694 736.968 0.90918 735.116 0.90918 732.96ZM6.25516 726.71V734.872H12.0232V726.71H6.25516ZM10.9032 727.634V733.962H7.37516V727.634H10.9032ZM14.6552 725.478V738.064H15.8032V725.478H14.6552ZM21.7521 734.186C20.5341 734.186 19.6801 732.87 19.6801 730.826C19.6801 728.796 20.5341 727.48 21.7521 727.48C22.9561 727.48 23.8101 728.796 23.8101 730.826C23.8101 732.87 22.9561 734.186 21.7521 734.186ZM21.7521 726.444C19.9041 726.444 18.5881 728.152 18.5881 730.826C18.5881 733.5 19.9041 735.208 21.7521 735.208C23.6001 735.208 24.9021 733.5 24.9021 730.826C24.9021 728.152 23.6001 726.444 21.7521 726.444ZM30.1381 730.49H28.0661V725.492H26.9181V738.036H28.0661V731.456H30.1381V730.49ZM33.875 734.004H32.727V737.756H41.449V736.818H33.875V734.004ZM37.543 732.044V730.238H41.351V729.314H33.959V725.954H32.825V730.238H36.409V732.044H31.299V732.982H42.653V732.044H37.543ZM45.8019 726.696H44.6679V734.858H45.6619C47.5799 734.858 49.4979 734.718 51.6399 734.284L51.4999 733.332C49.4699 733.738 47.6079 733.892 45.8019 733.892V726.696ZM55.8399 730.49H53.8239V725.478H52.6759V738.036H53.8239V731.442H55.8399V730.49ZM61.8034 729.118C61.8034 727.97 62.6994 727.158 63.9314 727.158C65.1774 727.158 66.0734 727.97 66.0734 729.118C66.0734 730.266 65.1774 731.078 63.9314 731.078C62.6994 731.078 61.8034 730.266 61.8034 729.118ZM69.6994 728.138V730.084H66.9974C67.1094 729.79 67.1654 729.468 67.1654 729.118C67.1654 728.768 67.1094 728.432 66.9974 728.138H69.6994ZM69.6994 731.008V732.548H70.8614V725.492H69.6994V727.214H66.4514C65.8914 726.584 64.9954 726.206 63.9314 726.206C62.0694 726.206 60.7114 727.382 60.7114 729.118C60.7114 730.84 62.0694 732.03 63.9314 732.03C64.9954 732.03 65.8914 731.652 66.4654 731.008H69.6994ZM65.4294 734.06H68.0194V736.916H65.4294V734.06ZM69.1534 736.916V734.06H70.9594V733.136H62.5174V734.06H64.2954V736.916H62.3914V737.84H71.1134V736.916H69.1534ZM76.5283 733.028C76.5283 734.045 76.3939 735.02 76.125 735.954C75.8607 736.884 75.4528 737.743 74.9014 738.531C74.3545 739.32 73.7803 739.88 73.1787 740.213L72.9121 739.44C73.6139 738.903 74.1768 738.069 74.6006 736.938C75.029 735.804 75.2477 734.546 75.2568 733.165V732.946C75.2568 731.989 75.1566 731.101 74.9561 730.28C74.7555 729.455 74.4753 728.717 74.1152 728.065C73.7598 727.414 73.3587 726.906 72.9121 726.541L73.1787 725.769C73.7803 726.101 74.3522 726.657 74.8945 727.437C75.4414 728.216 75.8493 729.075 76.1182 730.014C76.3916 730.952 76.5283 731.957 76.5283 733.028ZM80.8213 733.862L81.0127 735.175L81.293 733.992L83.2617 727.047H84.3691L86.29 733.992L86.5635 735.195L86.7754 733.855L88.3203 727.047H89.6396L87.2266 737H86.0303L83.9795 729.747L83.8223 728.988L83.665 729.747L81.5391 737H80.3428L77.9365 727.047H79.249L80.8213 733.862ZM96.7285 732.399H92.415V735.927H97.4258V737H91.1025V727.047H97.3574V728.127H92.415V731.326H96.7285V732.399ZM101.992 732.563C100.867 732.24 100.046 731.843 99.5312 731.374C99.0208 730.9 98.7656 730.317 98.7656 729.624C98.7656 728.84 99.0778 728.193 99.7021 727.683C100.331 727.168 101.147 726.91 102.149 726.91C102.833 726.91 103.441 727.042 103.975 727.307C104.512 727.571 104.927 727.936 105.219 728.4C105.515 728.865 105.663 729.373 105.663 729.925H104.344C104.344 729.323 104.152 728.852 103.77 728.51C103.387 728.163 102.847 727.99 102.149 727.99C101.502 727.99 100.996 728.134 100.632 728.421C100.272 728.703 100.092 729.098 100.092 729.604C100.092 730.009 100.263 730.353 100.604 730.636C100.951 730.914 101.536 731.169 102.361 731.401C103.191 731.634 103.838 731.891 104.303 732.174C104.772 732.452 105.118 732.778 105.342 733.151C105.57 733.525 105.684 733.965 105.684 734.471C105.684 735.277 105.369 735.924 104.74 736.412C104.111 736.895 103.271 737.137 102.218 737.137C101.534 737.137 100.896 737.007 100.304 736.747C99.7113 736.483 99.2533 736.123 98.9297 735.667C98.6107 735.211 98.4512 734.694 98.4512 734.115H99.7705C99.7705 734.717 99.9915 735.193 100.434 735.544C100.88 735.89 101.475 736.063 102.218 736.063C102.91 736.063 103.441 735.922 103.811 735.64C104.18 735.357 104.364 734.972 104.364 734.484C104.364 733.997 104.193 733.621 103.852 733.356C103.51 733.088 102.89 732.823 101.992 732.563ZM114.249 728.127H111.05V737H109.744V728.127H106.552V727.047H114.249V728.127ZM121.354 734.214C120.346 734.214 119.716 732.94 119.716 730.882C119.716 728.866 120.346 727.592 121.354 727.592C122.334 727.592 122.978 728.866 122.978 730.882C122.978 732.94 122.334 734.214 121.354 734.214ZM125.596 730.364H124.014C123.874 727.998 122.866 726.528 121.354 726.528C119.716 726.528 118.666 728.208 118.666 730.882C118.666 733.598 119.716 735.278 121.354 735.278C122.894 735.278 123.916 733.766 124.014 731.302H125.596V737.42H126.688V725.758H125.596V730.364ZM128.088 725.478V738.036H129.18V725.478H128.088ZM142.212 731.792C140.014 731.372 137.634 729.468 137.634 727.326V726.36H136.43V727.326C136.43 729.468 134.064 731.358 131.866 731.792L132.384 732.744C134.274 732.296 136.234 730.952 137.032 729.118C137.83 730.966 139.79 732.31 141.694 732.744L142.212 731.792ZM131.39 735.404V736.356H142.772V735.404H131.39ZM153.453 731.974H154.615V725.478H153.453V728.502H150.751V729.426H153.453V731.974ZM145.193 726.094V727.004H149.533C149.491 727.438 149.393 727.844 149.253 728.236L144.591 728.446L144.759 729.356L148.805 729.048C148.049 730.126 146.705 730.98 144.619 731.498L145.039 732.38C148.931 731.358 150.723 729.244 150.723 726.094H145.193ZM147.685 736.958V735.572H154.615V732.548H146.523V733.458H153.481V734.718H146.551V737.868H155.035V736.958H147.685ZM158.674 731.218H162.034V726.864H157.526V727.802H160.928V730.308H157.568V734.956H158.394C159.99 734.956 161.418 734.886 163.168 734.592L163.07 733.654C161.46 733.934 160.102 733.99 158.674 733.99V731.218ZM164.176 729.986H162.622V730.938H164.176V737.378H165.254V725.786H164.176V729.986ZM166.71 725.478V738.036H167.816V725.478H166.71ZM179.155 725.478V738.064H180.303V725.478H179.155ZM173.681 726.444C171.819 726.444 170.489 728.152 170.489 730.826C170.489 733.5 171.819 735.208 173.681 735.208C175.543 735.208 176.873 733.5 176.873 730.826C176.873 728.152 175.543 726.444 173.681 726.444ZM173.681 727.48C174.899 727.48 175.767 728.796 175.767 730.826C175.767 732.87 174.899 734.186 173.681 734.186C172.449 734.186 171.581 732.87 171.581 730.826C171.581 728.796 172.449 727.48 173.681 727.48ZM184.628 731.078H188.744V730.154H184.628V727.564H189.29V726.612H183.48V735.026H184.446C186.84 735.026 188.366 734.956 190.186 734.634L190.06 733.696C188.352 734.004 186.896 734.088 184.628 734.088V731.078ZM192.104 725.464V730.21H189.514V731.162H192.104V738.05H193.252V725.464H192.104ZM204.577 727.676H197.241V730.364H205.935V729.538H198.375V728.46H205.711V725.842H197.213V726.654H204.577V727.676ZM198.305 735.88H205.753V733.206H197.143V734.032H204.619V735.082H197.171V737.868H206.145V737.042H198.305V735.88ZM195.785 731.316V732.184H207.167V731.316H195.785ZM221.265 725.478V738.064H222.413V725.478H221.265ZM215.791 726.444C213.929 726.444 212.599 728.152 212.599 730.826C212.599 733.5 213.929 735.208 215.791 735.208C217.653 735.208 218.983 733.5 218.983 730.826C218.983 728.152 217.653 726.444 215.791 726.444ZM215.791 727.48C217.009 727.48 217.877 728.796 217.877 730.826C217.877 732.87 217.009 734.186 215.791 734.186C214.559 734.186 213.691 732.87 213.691 730.826C213.691 728.796 214.559 727.48 215.791 727.48ZM230.685 737.14C228.711 737.14 227.549 736.65 227.549 735.796C227.549 734.942 228.711 734.452 230.685 734.452C232.645 734.452 233.821 734.942 233.821 735.796C233.821 736.65 232.645 737.14 230.685 737.14ZM230.685 733.556C227.997 733.556 226.387 734.354 226.387 735.796C226.387 737.238 227.997 738.022 230.685 738.022C233.387 738.022 234.983 737.238 234.983 735.796C234.983 734.354 233.387 733.556 230.685 733.556ZM228.949 730.224C229.467 730.308 230.055 730.364 230.685 730.364C231.329 730.364 231.917 730.308 232.435 730.224V731.694H228.949V730.224ZM227.451 728.04C227.451 727.13 228.683 726.598 230.685 726.598C232.687 726.598 233.919 727.13 233.919 728.04C233.919 728.936 232.687 729.482 230.685 729.482C228.683 729.482 227.451 728.936 227.451 728.04ZM233.569 731.694V729.916C234.535 729.524 235.095 728.88 235.095 728.04C235.095 726.57 233.415 725.702 230.685 725.702C227.969 725.702 226.275 726.57 226.275 728.04C226.275 728.894 226.821 729.524 227.815 729.93V731.694H225.001V732.618H236.369V731.694H233.569ZM241.576 734.284C240.442 734.284 239.616 733.472 239.616 732.352C239.616 731.218 240.442 730.406 241.576 730.406C242.724 730.406 243.55 731.218 243.55 732.352C243.55 733.472 242.724 734.284 241.576 734.284ZM241.576 729.454C239.812 729.454 238.538 730.658 238.538 732.352C238.538 734.06 239.812 735.236 241.576 735.236C243.368 735.236 244.642 734.06 244.642 732.352C244.642 730.658 243.368 729.454 241.576 729.454ZM242.136 725.632H240.988V727.494H237.824V728.418H245.23V727.494H242.136V725.632ZM249.626 730.644H247.568V725.492H246.42V738.036H247.568V731.61H249.626V730.644ZM257.115 732.254C257.199 731.82 257.255 731.344 257.255 730.826C257.255 730.252 257.185 729.72 257.073 729.23H259.971V732.254H257.115ZM254.133 734.186C252.929 734.186 252.089 732.87 252.089 730.826C252.089 728.796 252.929 727.48 254.133 727.48C255.323 727.48 256.177 728.796 256.177 730.826C256.177 732.87 255.323 734.186 254.133 734.186ZM259.971 725.478V728.292H256.751C256.219 727.116 255.295 726.444 254.133 726.444C252.299 726.444 250.997 728.152 250.997 730.826C250.997 733.5 252.299 735.208 254.133 735.208C255.337 735.208 256.317 734.466 256.835 733.192H259.971V738.064H261.119V725.478H259.971ZM276.253 725.478V738.064H277.401V725.478H276.253ZM270.779 726.444C268.917 726.444 267.587 728.152 267.587 730.826C267.587 733.5 268.917 735.208 270.779 735.208C272.641 735.208 273.971 733.5 273.971 730.826C273.971 728.152 272.641 726.444 270.779 726.444ZM270.779 727.48C271.997 727.48 272.865 728.796 272.865 730.826C272.865 732.87 271.997 734.186 270.779 734.186C269.547 734.186 268.679 732.87 268.679 730.826C268.679 728.796 269.547 727.48 270.779 727.48ZM285.688 737.14C283.7 737.14 282.538 736.65 282.538 735.768C282.538 734.886 283.7 734.396 285.688 734.396C287.648 734.396 288.81 734.886 288.81 735.768C288.81 736.65 287.648 737.14 285.688 737.14ZM285.688 733.5C283 733.5 281.376 734.312 281.376 735.768C281.376 737.224 283 738.036 285.688 738.036C288.348 738.036 289.972 737.224 289.972 735.768C289.972 734.312 288.348 733.5 285.688 733.5ZM286.262 731.68V730.224H290.042V729.3H282.58V726.976H289.958V726.052H281.432V730.224H285.114V731.68H280.004V732.604H291.372V731.68H286.262ZM296.565 734.284C295.431 734.284 294.605 733.472 294.605 732.352C294.605 731.218 295.431 730.406 296.565 730.406C297.713 730.406 298.539 731.218 298.539 732.352C298.539 733.472 297.713 734.284 296.565 734.284ZM296.565 729.454C294.801 729.454 293.527 730.658 293.527 732.352C293.527 734.06 294.801 735.236 296.565 735.236C298.357 735.236 299.631 734.06 299.631 732.352C299.631 730.658 298.357 729.454 296.565 729.454ZM297.125 725.632H295.977V727.494H292.813V728.418H300.219V727.494H297.125V725.632ZM304.615 730.644H302.557V725.492H301.409V738.036H302.557V731.61H304.615V730.644ZM4.466 742.668H3.36V745.062C3.36 747.218 2.324 749.472 0.602 750.48L1.316 751.334C2.562 750.564 3.472 749.15 3.92 747.484C4.368 749.01 5.208 750.34 6.398 751.068L7.056 750.172C5.404 749.164 4.466 747.036 4.466 745.02V742.668ZM7.77 745.986H5.698V746.938H7.77V753.42H8.848V741.758H7.77V745.986ZM10.318 741.478V754.036H11.41V741.478H10.318ZM17.5549 748.52C18.0729 748.646 18.6749 748.716 19.2909 748.716C19.9209 748.716 20.5229 748.646 21.0549 748.52V751.474H17.5549V748.52ZM19.2909 743.172C21.3069 743.172 22.7629 744.096 22.7629 745.496C22.7629 746.896 21.3069 747.82 19.2909 747.82C17.2749 747.82 15.8329 746.896 15.8329 745.496C15.8329 744.096 17.2749 743.172 19.2909 743.172ZM22.2029 751.474V748.072C23.2389 747.526 23.8549 746.63 23.8549 745.496C23.8549 743.536 21.9649 742.276 19.2909 742.276C16.6309 742.276 14.7269 743.536 14.7269 745.496C14.7269 746.63 15.3569 747.54 16.4069 748.086V751.474H13.6069V752.426H25.0169V751.474H22.2029ZM26.7422 752.337C26.7422 752.118 26.806 751.936 26.9336 751.79C27.0658 751.644 27.2617 751.571 27.5215 751.571C27.7812 751.571 27.9772 751.644 28.1094 751.79C28.2461 751.936 28.3145 752.118 28.3145 752.337C28.3145 752.547 28.2461 752.722 28.1094 752.863C27.9772 753.005 27.7812 753.075 27.5215 753.075C27.2617 753.075 27.0658 753.005 26.9336 752.863C26.806 752.722 26.7422 752.547 26.7422 752.337Z" fill="black"/>
<rect x="11" y="312" width="5" height="53.1429" fill="url(#paint0_linear)"/>
<path d="M13.5 372L6.13879 359.25L20.8612 359.25L13.5 372Z" fill="#FF0000"/>
<defs>
<linearGradient id="paint0_linear" x1="13.5" y1="312" x2="13.5" y2="365.143" gradientUnits="userSpaceOnUse">
<stop stop-color="#FF0000" stop-opacity="0"/>
<stop offset="0.546875" stop-color="#FF0000"/>
</linearGradient>
</defs>
</svg>
