<svg width="315" height="756" viewBox="0 0 315 756" fill="none" xmlns="http://www.w3.org/2000/svg">
<mask id="path-1-inside-1" fill="white">
<path d="M285 330L280.014 323.385H159V298.413H187.554V275.43H210.537V129.839H180.381V74.4862H210.537V0H314V274.484H292.39V304.397L312.833 330"/>
</mask>
<path d="M285 330L280.014 323.385H159V298.413H187.554V275.43H210.537V129.839H180.381V74.4862H210.537V0H314V274.484H292.39V304.397L312.833 330" fill="white"/>
<path d="M280.014 323.385L282.41 321.579L281.51 320.385H280.014V323.385ZM159 323.385H156V326.385H159V323.385ZM159 298.413V295.413H156V298.413H159ZM187.554 298.413V301.413H190.554V298.413H187.554ZM187.554 275.43V272.43H184.554V275.43H187.554ZM210.537 275.43V278.43H213.537V275.43H210.537ZM210.537 129.839H213.537V126.839H210.537V129.839ZM180.381 129.839H177.381V132.839H180.381V129.839ZM180.381 74.4862V71.4862H177.381V74.4862H180.381ZM210.537 74.4862V77.4862H213.537V74.4862H210.537ZM210.537 0V-3H207.537V0H210.537ZM314 0H317V-3H314V0ZM314 274.484V277.484H317V274.484H314ZM292.39 274.484V271.484H289.39V274.484H292.39ZM292.39 304.397H289.39V305.447L290.046 306.269L292.39 304.397ZM287.396 328.194L282.41 321.579L277.618 325.19L282.604 331.806L287.396 328.194ZM280.014 320.385H159V326.385H280.014V320.385ZM162 323.385V298.413H156V323.385H162ZM159 301.413H187.554V295.413H159V301.413ZM190.554 298.413V275.43H184.554V298.413H190.554ZM187.554 278.43H210.537V272.43H187.554V278.43ZM213.537 275.43V129.839H207.537V275.43H213.537ZM210.537 126.839H180.381V132.839H210.537V126.839ZM183.381 129.839V74.4862H177.381V129.839H183.381ZM180.381 77.4862H210.537V71.4862H180.381V77.4862ZM213.537 74.4862V0H207.537V74.4862H213.537ZM210.537 3H314V-3H210.537V3ZM311 0V274.484H317V0H311ZM314 271.484H292.39V277.484H314V271.484ZM289.39 274.484V304.397H295.39V274.484H289.39ZM290.046 306.269L310.489 331.872L315.177 328.128L294.735 302.525L290.046 306.269Z" fill="black" mask="url(#path-1-inside-1)"/>
<path d="M251.266 85.0732H241.75V120.109H251.266V85.0732Z" fill="#C4C4C4"/>
<path d="M276.806 85.0732H267.29V120.109H276.806V85.0732Z" fill="#C4C4C4"/>
<path d="M216.27 6.59766V78.1528H283.068V120.11H308.179V6.59766H216.27Z" fill="#DAC452"/>
<path d="M276.745 127.339H253.107V140.192H276.745V127.339Z" fill="black"/>
<path d="M188.431 304.115H164.794V316.967H188.431V304.115Z" fill="black"/>
<path d="M265.448 85.0732H253.107V120.109H265.448V85.0732Z" fill="#FF0000"/>
<path d="M239.908 85.0732H186.002V120.109H239.908V85.0732Z" fill="#C4C4C4"/>
<path d="M235.118 127.339H216.085V146.494H235.118V127.339Z" fill="black"/>
<path d="M213.016 281.634H193.983V300.789H213.016V281.634Z" fill="black"/>
<path d="M235.118 150.388H216.085V172.324H235.118V150.388Z" fill="#DAC452"/>
<path d="M235.118 175.413H216.085V197.349H235.118V175.413Z" fill="#DAC452"/>
<path d="M235.118 226.454H216.085V248.39H235.118V226.454Z" fill="#DAC452"/>
<path d="M277.033 186.148H258V208.085H277.033V186.148Z" fill="#DAC452"/>
<path d="M277.033 150.148H258V172.085H277.033V150.148Z" fill="#DAC452"/>
<path d="M277 226.148H258V273.148H277V226.148Z" fill="#DAC452"/>
<path d="M235.118 200.439H216.085V217.803H235.118V200.439Z" fill="black"/>
<path d="M235.118 251.479H216.085V273.416H235.118V251.479Z" fill="#DAC452"/>
<path d="M258 301.148H235V317.148H258V301.148Z" fill="#DAC452"/>
<path d="M308.179 150.388H289.146V172.324H308.179V150.388Z" fill="#DAC452"/>
<path d="M308 123.148H289V147.148H308V123.148Z" fill="#DAC452"/>
<path d="M308.179 175.413H289.146V197.349H308.179V175.413Z" fill="#DAC452"/>
<path d="M308.179 200.439H289.146V222.376H308.179V200.439Z" fill="#DAC452"/>
<path d="M308.179 240.479H289.146V268.409H308.179V240.479Z" fill="#00AC8D"/>
<path d="M205.666 288.307C206.034 288.307 206.341 287.998 206.341 287.627C206.341 287.256 206.034 286.947 205.666 286.947C205.297 286.947 204.99 287.256 204.99 287.627C204.99 287.998 205.297 288.307 205.666 288.307Z" fill="white"/>
<path d="M205.543 292.694V295.103C205.543 295.536 204.929 295.536 204.929 295.103V292.694H204.07L204.991 289.48H204.868L204.315 291.272C204.193 291.643 203.64 291.52 203.763 291.087L204.377 289.11C204.438 288.862 204.745 288.492 205.236 288.492H205.666H206.157C206.648 288.492 206.955 288.924 207.017 289.11L207.631 291.087C207.754 291.52 207.201 291.705 207.078 291.272L206.526 289.48H206.341L207.262 292.694H206.403V295.103C206.403 295.536 205.789 295.536 205.789 295.103V292.694H205.543Z" fill="white"/>
<path d="M200.412 288.492C199.921 288.492 199.553 288.862 199.553 289.419V291.52C199.553 291.952 200.167 291.952 200.167 291.52V289.604H200.289V294.98C200.289 295.536 201.088 295.536 201.088 294.98V291.828H201.21V294.98C201.21 295.536 202.009 295.536 202.009 294.98V289.604H202.131V291.52C202.131 291.952 202.745 291.952 202.745 291.52V289.419C202.745 288.986 202.377 288.492 201.886 288.492H200.412Z" fill="white"/>
<path d="M201.087 288.307C201.46 288.307 201.763 288.002 201.763 287.627C201.763 287.252 201.46 286.947 201.087 286.947C200.714 286.947 200.412 287.252 200.412 287.627C200.412 288.002 200.714 288.307 201.087 288.307Z" fill="white"/>
<path d="M227.829 134.013C228.198 134.013 228.505 133.704 228.505 133.333C228.505 132.962 228.198 132.653 227.829 132.653C227.461 132.653 227.154 132.962 227.154 133.333C227.154 133.704 227.461 134.013 227.829 134.013Z" fill="white"/>
<path d="M227.707 138.4V140.81C227.707 141.243 227.093 141.243 227.093 140.81V138.4H226.233L227.154 135.187H227.031L226.479 136.979C226.356 137.35 225.804 137.226 225.926 136.794L226.54 134.816C226.602 134.569 226.909 134.198 227.4 134.198H227.83H228.321C228.812 134.198 229.119 134.631 229.18 134.816L229.794 136.794C229.917 137.226 229.365 137.411 229.242 136.979L228.689 135.187H228.505L229.426 138.4H228.566V140.81C228.566 141.243 227.952 141.243 227.952 140.81V138.4H227.707Z" fill="white"/>
<path d="M222.576 134.26C222.085 134.26 221.716 134.631 221.716 135.187V137.288C221.716 137.72 222.33 137.72 222.33 137.288V135.372H222.453V140.748C222.453 141.304 223.251 141.304 223.251 140.748V137.597H223.374V140.748C223.374 141.304 224.172 141.304 224.172 140.748V135.372H224.295V137.288C224.295 137.72 224.909 137.72 224.909 137.288V135.187C224.909 134.754 224.541 134.26 224.049 134.26H222.576Z" fill="white"/>
<path d="M223.251 134.013C223.624 134.013 223.926 133.708 223.926 133.333C223.926 132.958 223.624 132.653 223.251 132.653C222.878 132.653 222.576 132.958 222.576 133.333C222.576 133.708 222.878 134.013 223.251 134.013Z" fill="white"/>
<path d="M262.869 106.021V100.707C262.869 100.151 262.44 99.7183 261.887 99.7183H256.607C256.054 99.7183 255.625 100.151 255.625 100.707V106.021C255.625 106.577 256.054 107.01 256.607 107.01H261.887C262.44 106.948 262.869 106.577 262.869 106.021ZM262.071 106.145H256.423V100.522H262.071V106.145Z" fill="white"/>
<path d="M260.168 96.2575C260.168 95.825 260.782 95.825 260.782 96.2575V97.9877L261.089 97.6169C261.334 97.3698 261.702 97.7405 261.457 97.9877L260.659 98.9146C260.536 99.0382 260.352 99.0382 260.229 98.9146L259.431 97.9877C259.185 97.6787 259.615 97.3698 259.799 97.6169L260.106 98.0495L260.168 96.2575Z" fill="white"/>
<path d="M257.773 98.7317C257.773 99.1642 258.387 99.1642 258.387 98.7317V97.0015L258.694 97.3723C258.94 97.6194 259.308 97.2487 259.062 97.0015L258.264 96.0746C258.141 95.951 257.957 95.951 257.834 96.0746L257.036 97.0015C256.791 97.3105 257.221 97.6194 257.405 97.3723L257.712 96.9397L257.773 98.7317Z" fill="white"/>
<path d="M260.905 102.189H259.861C259.738 102.189 259.615 102.313 259.615 102.437V103.734C259.615 103.858 259.677 103.92 259.799 103.92C259.799 103.92 259.861 103.92 259.922 103.92V105.588C259.922 105.897 260.352 105.897 260.352 105.588V103.92H260.413V105.588C260.413 105.897 260.843 105.897 260.843 105.588V103.92C260.905 103.92 260.966 103.92 260.966 103.92C261.089 103.92 261.15 103.858 261.15 103.734V102.437C261.15 102.313 261.027 102.189 260.905 102.189Z" fill="white"/>
<path d="M260.351 102.066C260.521 102.066 260.658 101.928 260.658 101.757C260.658 101.587 260.521 101.448 260.351 101.448C260.182 101.448 260.044 101.587 260.044 101.757C260.044 101.928 260.182 102.066 260.351 102.066Z" fill="white"/>
<path d="M258.695 102.189H257.651C257.528 102.189 257.405 102.313 257.405 102.437V103.734C257.405 103.858 257.467 103.92 257.589 103.92C257.589 103.92 257.651 103.92 257.712 103.92V105.588C257.712 105.897 258.142 105.897 258.142 105.588V103.92H258.203V105.588C258.203 105.897 258.633 105.897 258.633 105.588V103.92C258.695 103.92 258.756 103.92 258.756 103.92C258.879 103.92 258.94 103.858 258.94 103.734V102.437C258.94 102.313 258.817 102.189 258.695 102.189Z" fill="white"/>
<path d="M258.141 102.066C258.311 102.066 258.448 101.928 258.448 101.757C258.448 101.587 258.311 101.448 258.141 101.448C257.972 101.448 257.834 101.587 257.834 101.757C257.834 101.928 257.972 102.066 258.141 102.066Z" fill="white"/>
<path d="M229.224 213.663V208.349C229.224 207.793 228.794 207.36 228.242 207.36H222.962C222.409 207.36 221.979 207.793 221.979 208.349V213.663C221.979 214.219 222.409 214.652 222.962 214.652H228.242C228.794 214.652 229.224 214.219 229.224 213.663ZM228.426 213.849H222.778V208.225H228.426V213.849Z" fill="white"/>
<path d="M226.523 203.962C226.523 203.529 227.137 203.529 227.137 203.962V205.692L227.444 205.321C227.689 205.074 228.057 205.445 227.812 205.692L227.014 206.619C226.891 206.742 226.707 206.742 226.584 206.619L225.786 205.692C225.54 205.383 225.97 205.074 226.154 205.321L226.461 205.754L226.523 203.962Z" fill="white"/>
<path d="M224.128 206.371C224.128 206.804 224.742 206.804 224.742 206.371V204.641L225.049 205.012C225.295 205.259 225.663 204.888 225.417 204.641L224.619 203.714C224.496 203.591 224.312 203.591 224.189 203.714L223.391 204.641C223.146 204.95 223.575 205.259 223.76 205.012L224.067 204.579L224.128 206.371Z" fill="white"/>
<path d="M227.26 209.893H226.216C226.093 209.893 225.97 210.016 225.97 210.14V211.437C225.97 211.561 226.032 211.623 226.154 211.623C226.154 211.623 226.216 211.623 226.277 211.623V213.291C226.277 213.6 226.707 213.6 226.707 213.291V211.623H226.768V213.291C226.768 213.6 227.198 213.6 227.198 213.291V211.623C227.26 211.623 227.321 211.623 227.321 211.623C227.444 211.623 227.505 211.561 227.505 211.437V210.14C227.505 209.954 227.382 209.893 227.26 209.893Z" fill="white"/>
<path d="M226.769 209.769C226.938 209.769 227.076 209.631 227.076 209.46C227.076 209.29 226.938 209.151 226.769 209.151C226.599 209.151 226.462 209.29 226.462 209.46C226.462 209.631 226.599 209.769 226.769 209.769Z" fill="white"/>
<path d="M225.05 209.893H224.006C223.883 209.893 223.76 210.016 223.76 210.14V211.437C223.76 211.561 223.822 211.623 223.944 211.623C223.944 211.623 224.006 211.623 224.067 211.623V213.291C224.067 213.6 224.497 213.6 224.497 213.291V211.623H224.558V213.291C224.558 213.6 224.988 213.6 224.988 213.291V211.623C225.05 211.623 225.111 211.623 225.111 211.623C225.234 211.623 225.295 211.561 225.295 211.437V210.14C225.295 209.954 225.172 209.893 225.05 209.893Z" fill="white"/>
<path d="M224.496 209.769C224.666 209.769 224.803 209.631 224.803 209.46C224.803 209.29 224.666 209.151 224.496 209.151C224.327 209.151 224.189 209.29 224.189 209.46C224.189 209.631 224.327 209.769 224.496 209.769Z" fill="white"/>
<path d="M294.427 255.338H295.962V253.731H297.497V252.125H299.032V250.58H300.628V249.035H302.9V249.838H301.365V251.383H299.83V252.928H298.295V254.535H296.699V256.141H294.427V255.338Z" fill="white"/>
<path d="M175.845 308.008C176.214 308.008 176.521 307.699 176.521 307.328C176.521 306.957 176.214 306.648 175.845 306.648C175.477 306.648 175.17 306.957 175.17 307.328C175.17 307.699 175.477 308.008 175.845 308.008Z" fill="white"/>
<path d="M180.389 307.39H178.854C178.547 307.39 178.117 307.513 177.871 307.76L176.459 309.182V308.749C176.459 307.884 175.17 307.884 175.17 308.749V310.417L173.942 311.653C173.819 311.777 173.819 311.777 173.574 311.777H172.837C172.1 311.777 171.609 312.457 171.609 313.013C171.609 313.569 172.039 314.31 172.898 314.31C172.898 314.31 173.942 314.31 174.249 314.31C174.556 314.31 174.924 314.187 175.231 313.878L179.099 309.985C179.161 309.923 179.222 309.861 179.345 309.861C179.345 309.861 179.897 309.861 180.327 309.861C180.818 309.861 181.432 309.305 181.432 308.564C181.555 307.884 180.88 307.39 180.389 307.39ZM180.327 309.243H179.529C179.161 309.243 179.038 309.305 178.854 309.491L174.924 313.445C174.74 313.631 174.556 313.692 174.31 313.692H173.021C172.714 313.692 172.407 313.383 172.407 313.013C172.407 312.642 172.714 312.457 172.96 312.457H173.819C174.065 312.457 174.249 312.395 174.372 312.209L178.362 308.193C178.547 308.008 178.669 308.008 178.976 308.008H180.327C180.634 308.008 180.88 308.378 180.88 308.625C180.88 308.873 180.695 309.243 180.327 309.243Z" fill="white"/>
<path d="M264.158 131.231C264.527 131.231 264.834 130.923 264.834 130.552C264.834 130.181 264.527 129.872 264.158 129.872C263.79 129.872 263.483 130.181 263.483 130.552C263.544 130.923 263.79 131.231 264.158 131.231Z" fill="white"/>
<path d="M268.701 130.613H267.167C266.86 130.613 266.43 130.737 266.184 130.984L264.772 132.405V131.973C264.772 131.108 263.483 131.108 263.483 131.973V133.641L262.255 134.877C262.132 135.001 262.132 135.001 261.887 135.001H261.15C260.413 135.001 259.922 135.68 259.922 136.236C259.922 136.792 260.352 137.534 261.211 137.534C261.211 137.534 262.255 137.534 262.562 137.534C262.869 137.534 263.237 137.41 263.544 137.101L267.412 133.209C267.474 133.147 267.535 133.085 267.658 133.085C267.658 133.085 268.21 133.085 268.64 133.085C269.131 133.085 269.745 132.529 269.745 131.787C269.868 131.108 269.193 130.613 268.701 130.613ZM268.64 132.529H267.842C267.474 132.529 267.351 132.591 267.167 132.776L263.237 136.731C263.053 136.916 262.869 136.978 262.623 136.978H261.334C261.027 136.978 260.72 136.669 260.72 136.298C260.72 135.927 261.027 135.742 261.273 135.742H262.132C262.378 135.742 262.562 135.68 262.685 135.495L266.675 131.478C266.86 131.293 266.982 131.293 267.289 131.293H268.64C268.947 131.293 269.193 131.664 269.193 131.911C269.193 132.158 269.07 132.529 268.64 132.529Z" fill="white"/>
<path d="M178.026 10.1484H182.941V8.88068H179.564V7.14418H182.675V5.87642H179.564V4.14347H182.927V2.87571H178.026V10.1484ZM185.403 10.1484L185.943 8.49006H188.567L189.107 10.1484H190.754L188.247 2.87571H186.266L183.755 10.1484H185.403ZM186.333 7.28977L187.228 4.53764H187.285L188.18 7.28977H186.333ZM195.409 4.96733H196.883C196.861 3.67116 195.796 2.77628 194.177 2.77628C192.582 2.77628 191.414 3.65696 191.421 4.97798C191.417 6.05043 192.174 6.66477 193.403 6.95952L194.194 7.15838C194.986 7.35014 195.427 7.57741 195.43 8.06747C195.427 8.60014 194.922 8.96236 194.141 8.96236C193.342 8.96236 192.767 8.59304 192.717 7.86506H191.229C191.268 9.43821 192.394 10.2514 194.159 10.2514C195.935 10.2514 196.979 9.4027 196.982 8.07102C196.979 6.86009 196.066 6.21733 194.802 5.93324L194.148 5.77699C193.516 5.63139 192.987 5.39702 192.998 4.875C192.998 4.40625 193.413 4.06179 194.166 4.06179C194.901 4.06179 195.352 4.3956 195.409 4.96733ZM197.739 4.14347H199.966V10.1484H201.486V4.14347H203.712V2.87571H197.739V4.14347ZM167.466 16.1435H169.693V22.1484H171.212V16.1435H173.439V14.8757H167.466V16.1435ZM180.784 18.5121C180.784 16.1328 179.306 14.7763 177.378 14.7763C175.439 14.7763 173.973 16.1328 173.973 18.5121C173.973 20.8807 175.439 22.2479 177.378 22.2479C179.306 22.2479 180.784 20.8913 180.784 18.5121ZM179.225 18.5121C179.225 20.0533 178.493 20.8878 177.378 20.8878C176.259 20.8878 175.531 20.0533 175.531 18.5121C175.531 16.9709 176.259 16.1364 177.378 16.1364C178.493 16.1364 179.225 16.9709 179.225 18.5121ZM183.286 22.1484H184.785L186.166 17.3935H186.223L187.608 22.1484H189.107L191.188 14.8757H189.508L188.304 19.9396H188.24L186.916 14.8757H185.477L184.149 19.929H184.089L182.885 14.8757H181.205L183.286 22.1484ZM192.011 22.1484H196.925V20.8807H193.548V19.1442H196.659V17.8764H193.548V16.1435H196.911V14.8757H192.011V22.1484ZM198.134 22.1484H199.671V19.5703H200.793L202.171 22.1484H203.869L202.324 19.3217C203.151 18.9666 203.609 18.2457 203.609 17.2514C203.609 15.8061 202.654 14.8757 201.003 14.8757H198.134V22.1484ZM199.671 18.3345V16.1328H200.708C201.596 16.1328 202.026 16.527 202.026 17.2514C202.026 17.9723 201.596 18.3345 200.715 18.3345H199.671Z" fill="black"/>
<path d="M2.78125 43H16.4531C23.6406 43 27.4688 39.25 27.4688 34.1562C27.4688 29.4219 24.0781 26.5625 20.4375 26.3906V26.0781C23.7656 25.3281 26.2188 22.9687 26.2188 19.2031C26.2188 14.4062 22.6563 11 15.5937 11H2.78125V43ZM9.54688 37.4687V28.9687H15.2188C18.4688 28.9687 20.4844 30.8438 20.4844 33.4844C20.4844 35.8906 18.8438 37.4687 15.0625 37.4687H9.54688ZM9.54688 24.3906V16.4687H14.6875C17.6875 16.4687 19.3906 18.0156 19.3906 20.3281C19.3906 22.8594 17.3281 24.3906 14.5625 24.3906H9.54688ZM31.6836 43H54.4961V37.4687H41.0586V37.25L45.7305 32.6719C52.3086 26.6719 54.0742 23.6719 54.0742 20.0312C54.0742 14.4844 49.543 10.5625 42.6836 10.5625C35.9648 10.5625 31.3555 14.5781 31.3711 20.8594H37.793C37.7773 17.7969 39.7148 15.9219 42.6367 15.9219C45.4492 15.9219 47.543 17.6719 47.543 20.4844C47.543 23.0312 45.9805 24.7812 43.0742 27.5781L31.6836 38.125V43Z" fill="black"/>
<path d="M237.497 47.2884C238.527 47.2884 239.397 46.8884 239.897 46.3984V43.0584H237.267V44.2684H238.577V45.7284C238.367 45.9084 238.007 46.0084 237.647 46.0084C236.197 46.0084 235.457 45.0384 235.457 43.4284C235.457 41.8384 236.317 40.8784 237.547 40.8784C238.217 40.8784 238.637 41.1484 238.997 41.4984L239.787 40.5584C239.307 40.0684 238.567 39.6084 237.497 39.6084C235.527 39.6084 233.947 41.0384 233.947 43.4784C233.947 45.9484 235.477 47.2884 237.497 47.2884ZM241.485 47.1484H243.595C245.775 47.1484 247.175 45.9084 247.175 43.4184C247.175 40.9184 245.775 39.7484 243.515 39.7484H241.485V47.1484ZM242.965 45.9584V40.9284H243.425C244.805 40.9284 245.665 41.6084 245.665 43.4184C245.665 45.2184 244.805 45.9584 243.425 45.9584H242.965ZM250.104 40.9184H251.064C252.014 40.9184 252.534 41.1884 252.534 41.9884C252.534 42.7784 252.014 43.1784 251.064 43.1784H250.104V40.9184ZM254.304 47.1484L252.574 44.1184C253.424 43.7884 253.984 43.0984 253.984 41.9884C253.984 40.2884 252.754 39.7484 251.204 39.7484H248.624V47.1484H250.104V44.3484H251.134L252.654 47.1484H254.304ZM259.696 44.8184C259.006 44.8184 258.546 44.0884 258.546 42.7184C258.546 41.3584 259.006 40.6284 259.696 40.6284C260.376 40.6284 260.846 41.3584 260.846 42.7184C260.846 44.0884 260.376 44.8184 259.696 44.8184ZM259.696 39.4384C258.296 39.4384 257.276 40.6984 257.276 42.7184C257.276 44.7484 258.296 46.0184 259.696 46.0184C261.086 46.0184 262.116 44.7484 262.116 42.7184C262.116 40.6984 261.086 39.4384 259.696 39.4384ZM265.776 42.2684H264.436V38.7984H263.116V48.0084H264.436V43.3584H265.776V42.2684ZM266.955 39.6784V40.7284H269.875C269.845 41.1684 269.775 41.5684 269.685 41.9484L266.465 42.1384L266.635 43.2584L269.305 42.9984C268.785 44.0084 267.895 44.8684 266.385 45.6184L267.085 46.6384C270.515 44.8884 271.185 42.5184 271.185 39.6784H266.955ZM274.925 42.3084H273.635V38.7884H272.315V47.9884H273.635V43.3984H274.925V42.3084ZM277.194 40.8884H279.404V39.8384H275.894V45.9584H276.524C277.874 45.9584 278.784 45.9184 279.814 45.7184L279.704 44.6384C278.894 44.7984 278.154 44.8584 277.194 44.8784V40.8884ZM280.374 42.1584H278.774V43.2284H280.374V47.5984H281.604V38.9684H280.374V42.1584ZM282.284 38.7884V47.9984H283.534V38.7884H282.284ZM285.274 39.6284V45.8184H289.704V39.6284H285.274ZM288.404 40.6684V44.7784H286.574V40.6684H288.404ZM291.134 38.7984V48.0284H292.454V38.7984H291.134Z" fill="black"/>
<path d="M296.984 133.752H296.496C296.62 133.152 296.62 132.724 296.62 132.344V132.012H294.04V132.432H296.112C296.112 132.552 296.112 132.676 296.104 132.808L293.92 132.876L293.98 133.324L296.068 133.216C296.048 133.38 296.02 133.56 295.976 133.752H293.656V134.18H295.052V135.484H295.58V134.18H296.984V133.752ZM300.472 131.808H299.972V134.548H300.472V131.808ZM297.816 133.004C297.816 132.7 297.972 132.528 298.188 132.528C298.404 132.528 298.56 132.7 298.56 133.004C298.56 133.304 298.404 133.48 298.188 133.48C297.972 133.48 297.816 133.304 297.816 133.004ZM299.24 133.228V134.44H299.732V131.872H299.24V132.804H299.012C298.936 132.372 298.612 132.076 298.188 132.076C297.7 132.076 297.344 132.46 297.344 133.004C297.344 133.552 297.7 133.936 298.188 133.936C298.604 133.936 298.924 133.652 299.008 133.228H299.24ZM298.52 135.008V134.2H297.992V135.428H300.564V135.008H298.52ZM301.348 134.092C301.988 133.976 302.448 133.652 302.68 133.216C302.912 133.644 303.38 133.96 304.028 134.072L304.228 133.656C303.396 133.532 302.96 133.044 302.956 132.536H304.064V132.12H301.288V132.536H302.396C302.392 133.044 301.956 133.544 301.144 133.672L301.348 134.092ZM301.012 134.624V135.052H304.348V134.624H301.012ZM296.876 139.212H296.152V138.396H296.876V139.212ZM298.056 136.804V138.1H297.396V137.096H296.876V137.984H296.152V137.096H295.628V139.632H297.396V138.524H298.056V140.5H298.584V136.804H298.056ZM302.228 136.808H301.7V139.252H302.228V136.808ZM299.42 137.04V137.46H300.584C300.572 137.564 300.552 137.672 300.52 137.768L299.232 137.812L299.308 138.224L300.3 138.148C300.092 138.396 299.748 138.604 299.228 138.756L299.432 139.172C300.68 138.78 301.14 138.084 301.14 137.04H299.42ZM301.256 139.032H300.712V139.104C300.712 139.528 300.34 139.948 299.54 140.064L299.744 140.48C300.34 140.38 300.764 140.116 300.984 139.756C301.196 140.112 301.608 140.372 302.188 140.472L302.396 140.06C301.612 139.944 301.256 139.532 301.256 139.104V139.032Z" fill="black"/>
<path d="M296.992 157.696V158.124H297.544V159H298.072V156.808H297.544V157.696H296.992ZM297.212 158.488C296.652 158.304 296.396 157.872 296.38 157.452H297.096V157.028H295.116V157.452H295.84C295.824 157.912 295.556 158.38 294.972 158.584L295.24 159C295.668 158.856 295.96 158.556 296.12 158.184C296.28 158.508 296.556 158.768 296.956 158.9L297.212 158.488ZM296.828 160.096C296.344 160.096 296.092 159.996 296.092 159.788C296.092 159.58 296.344 159.48 296.828 159.48C297.308 159.48 297.56 159.58 297.56 159.788C297.56 159.996 297.308 160.096 296.828 160.096ZM296.828 159.08C296.044 159.08 295.564 159.34 295.564 159.788C295.564 160.236 296.044 160.496 296.828 160.496C297.608 160.496 298.088 160.236 298.088 159.788C298.088 159.34 297.608 159.08 296.828 159.08ZM300.336 156.864C299.52 156.864 299.004 157.128 299.004 157.564C299.004 158 299.52 158.26 300.336 158.26C301.152 158.26 301.672 158 301.672 157.564C301.672 157.128 301.152 156.864 300.336 156.864ZM300.336 157.264C300.844 157.264 301.128 157.36 301.128 157.564C301.128 157.764 300.844 157.86 300.336 157.86C299.832 157.86 299.548 157.764 299.548 157.564C299.548 157.36 299.832 157.264 300.336 157.264ZM299.06 159.056V160.448H301.604V159.056H301.076V159.344H299.584V159.056H299.06ZM299.584 159.74H301.076V160.036H299.584V159.74ZM298.672 158.452V158.872H302V158.452H298.672ZM294.453 161.808H293.953V164.28H294.453V161.808ZM291.789 162.952C291.789 162.664 291.941 162.492 292.161 162.492C292.381 162.492 292.533 162.664 292.533 162.952C292.533 163.24 292.381 163.408 292.161 163.408C291.941 163.408 291.789 163.24 291.789 162.952ZM293.237 162.744V163.172H292.977C292.989 163.1 292.997 163.032 292.997 162.956C292.997 162.88 292.989 162.812 292.977 162.744H293.237ZM293.237 163.592V163.928H293.729V161.88H293.237V162.324H292.777C292.629 162.156 292.413 162.056 292.161 162.056C291.677 162.056 291.325 162.424 291.325 162.952C291.325 163.484 291.677 163.852 292.161 163.852C292.409 163.852 292.621 163.756 292.769 163.592H293.237ZM293.445 164.092H292.917V164.188C292.917 164.568 292.541 164.968 291.745 165.072L291.937 165.48C292.529 165.396 292.957 165.148 293.181 164.812C293.405 165.148 293.833 165.396 294.425 165.48L294.621 165.072C293.825 164.968 293.445 164.568 293.445 164.188V164.092ZM297.064 162.952C296.572 163.048 296.104 163.08 295.668 163.088V161.968H295.14V163.528H295.452C295.968 163.528 296.524 163.492 297.124 163.372L297.064 162.952ZM295.992 164.796H297.892V163.776H295.46V164.192H297.364V164.408H295.464V165.448H297.996V165.036H295.992V164.796ZM297.892 162.496V161.804H297.364V163.628H297.892V162.924H298.38V162.496H297.892ZM298.904 162.02V162.436H300.044C299.968 162.924 299.508 163.328 298.692 163.532L298.892 163.944C299.988 163.664 300.608 163 300.608 162.02H298.904ZM299.816 164.432H301.212V165.036H299.816V164.432ZM299.296 165.448H301.732V164.016H299.296V165.448ZM301.2 161.812V163.86H301.732V161.812H301.2ZM303.704 163.284H302.98V162.836H303.704V163.284ZM304.224 161.988H303.704V162.432H302.98V161.988H302.46V163.7H304.224V161.988ZM304.728 165.032H303.368V164.716H304.728V165.032ZM304.728 164.308H303.368V163.988H302.848V165.452H305.252V163.988H304.728V164.308ZM305.74 162.584H305.252V161.808H304.724V163.832H305.252V163.016H305.74V162.584Z" fill="black"/>
<path d="M298.716 184.488C297.876 184.352 297.424 183.8 297.424 183.276V183.012H296.86V183.276C296.86 183.788 296.404 184.352 295.572 184.488L295.788 184.924C296.432 184.808 296.9 184.46 297.14 184.008C297.38 184.464 297.852 184.808 298.5 184.924L298.716 184.488ZM297.408 185.632V184.808H296.88V185.632H295.492V186.056H298.828V185.632H297.408ZM301.696 182.804V186.5H302.224V182.804H301.696ZM300.244 183.064C299.688 183.064 299.276 183.568 299.276 184.376C299.276 185.188 299.688 185.696 300.244 185.696C300.8 185.696 301.212 185.188 301.212 184.376C301.212 183.568 300.8 183.064 300.244 183.064ZM300.244 183.54C300.516 183.54 300.704 183.832 300.704 184.376C300.704 184.924 300.516 185.216 300.244 185.216C299.972 185.216 299.784 184.924 299.784 184.376C299.784 183.832 299.972 183.54 300.244 183.54ZM296.04 188.98C296.04 188.676 296.24 188.488 296.508 188.488C296.78 188.488 296.98 188.676 296.98 188.98C296.98 189.288 296.78 189.476 296.508 189.476C296.24 189.476 296.04 189.288 296.04 188.98ZM298.044 188.74V189.216H297.452C297.472 189.144 297.48 189.06 297.48 188.98C297.48 188.896 297.468 188.816 297.452 188.74H298.044ZM298.044 189.636V190.504H298.572V187.808H298.044V188.32H297.224C297.044 188.136 296.796 188.028 296.508 188.028C295.964 188.028 295.54 188.432 295.54 188.98C295.54 189.532 295.964 189.936 296.508 189.936C296.796 189.936 297.052 189.824 297.232 189.636H298.044ZM296.672 191.008V190.24H296.144V191.428H298.656V191.008H296.672ZM301.256 189.12C300.76 189.216 300.288 189.252 299.848 189.26V187.98H299.32V189.7H299.632C300.152 189.7 300.716 189.664 301.316 189.544L301.256 189.12ZM300.192 190.464H301.556V191.036H300.192V190.464ZM299.672 191.448H302.072V190.052H299.672V191.448ZM302.56 188.584H302.072V187.808H301.544V189.88H302.072V189.016H302.56V188.584Z" fill="black"/>
<path d="M296.824 210.828H297.556V210.408H296.828V209.896H296.3V210.408H295.552V210.828H296.3V210.956C296.3 211.508 296.024 212.132 295.428 212.408L295.712 212.812C296.124 212.628 296.408 212.256 296.568 211.816C296.72 212.224 296.988 212.568 297.38 212.748L297.66 212.348C297.084 212.072 296.824 211.476 296.824 210.956V210.828ZM298.912 211.24H298.376V209.812H297.848V213.492H298.376V211.676H298.912V211.24ZM299.708 210.748C299.708 210.492 299.904 210.336 300.18 210.336C300.456 210.336 300.652 210.492 300.652 210.748C300.652 211.008 300.456 211.164 300.18 211.164C299.904 211.164 299.708 211.008 299.708 210.748ZM301.16 210.748C301.16 210.264 300.744 209.912 300.18 209.912C299.62 209.912 299.2 210.264 299.2 210.748C299.2 211.24 299.62 211.588 300.18 211.588C300.744 211.588 301.16 211.24 301.16 210.748ZM300.168 212.8H302.072V211.792H299.64V212.2H301.552V212.42H299.644V213.448H302.176V213.04H300.168V212.8ZM302.072 210.516V209.808H301.544V211.648H302.072V210.948H302.556V210.516H302.072Z" fill="black"/>
<path d="M263.82 157.604H264.356V157.176H262.716V157.604H263.308V157.784C263.308 158.416 263.116 159.076 262.58 159.416L262.892 159.804C263.224 159.596 263.44 159.236 263.568 158.816C263.688 159.204 263.896 159.524 264.224 159.716L264.532 159.332C264 159.02 263.82 158.4 263.82 157.784V157.604ZM264.568 158.064H264.1V158.492H264.568V160.324H265.06V156.868H264.568V158.064ZM265.312 156.804V160.488H265.812V156.804H265.312ZM266.992 157.16H266.476V159.612H266.732C267.196 159.612 267.596 159.596 268.036 159.504L267.972 159.064C267.632 159.128 267.324 159.152 266.992 159.16V157.16ZM268.22 157.968H267.496V158.396H268.22V160.328H268.712V156.868H268.22V157.968ZM269 156.804V160.488H269.5V156.804H269ZM272.136 158.148C271.672 158.224 271.272 158.24 270.668 158.244V157.984H271.82V156.976H270.14V157.376H271.3V157.616H270.144V158.648H270.456C271.2 158.648 271.66 158.636 272.176 158.548L272.136 158.148ZM271.032 159.84H272.912V158.86H270.504V159.256H272.392V159.468H270.512V160.464H273.044V160.068H271.032V159.84ZM272.912 157.532V156.804H272.384V158.72H272.912V157.964H273.4V157.532H272.912ZM265.632 163.508H263.568V162.54H265.604V162.112H263.04V163.928H265.632V163.508ZM262.652 164.62V165.052H265.988V164.62H262.652ZM269.392 161.808H268.86V164.044H269.392V161.808ZM268.556 163.368C268.076 163.448 267.648 163.468 267.04 163.472V163.148H268.212V162.024H266.516V162.444H267.692V162.756H266.52V163.896H266.844C267.576 163.896 268.068 163.88 268.616 163.788L268.556 163.368ZM268.152 165.088C267.672 165.088 267.42 165 267.42 164.804C267.42 164.612 267.672 164.524 268.152 164.524C268.636 164.524 268.888 164.612 268.888 164.804C268.888 165 268.636 165.088 268.152 165.088ZM268.152 164.112C267.372 164.112 266.892 164.368 266.892 164.804C266.892 165.24 267.372 165.496 268.152 165.496C268.936 165.496 269.416 165.24 269.416 164.804C269.416 164.368 268.936 164.112 268.152 164.112ZM270.284 163.216L270.348 163.644L272.452 163.536C272.428 163.784 272.388 164.052 272.316 164.352L272.836 164.404C273.008 163.604 273.008 163.096 273.008 162.56V162.132H270.388V162.552H272.488V162.56C272.488 162.748 272.488 162.94 272.48 163.144L270.284 163.216ZM270.016 164.624V165.056H273.344V164.624H270.016Z" fill="black"/>
<path d="M218.279 158.792C218.759 158.792 219.067 158.936 219.067 159.2C219.067 159.468 218.759 159.612 218.279 159.612C217.795 159.612 217.487 159.468 217.487 159.2C217.487 158.936 217.795 158.792 218.279 158.792ZM218.279 160.032C219.063 160.032 219.611 159.708 219.611 159.2C219.611 158.7 219.063 158.372 218.279 158.372C217.491 158.372 216.947 158.7 216.947 159.2C216.947 159.708 217.491 160.032 218.279 160.032ZM219.955 160.308H216.619V160.732H218.011V161.936H218.539V160.732H219.955V160.308ZM221.127 160.688C220.927 160.688 220.807 160.412 220.807 159.844C220.807 159.28 220.927 159.004 221.127 159.004C221.331 159.004 221.447 159.28 221.447 159.844C221.447 160.412 221.331 160.688 221.127 160.688ZM222.211 159.604H221.919C221.859 158.916 221.563 158.508 221.127 158.508C220.639 158.508 220.331 159.012 220.331 159.844C220.331 160.68 220.639 161.184 221.127 161.184C221.575 161.184 221.875 160.752 221.923 160.032H222.211V161.768H222.703V158.308H222.211V159.604ZM222.959 158.244V161.928H223.459V158.244H222.959ZM225.911 161.092V160.252H226.963V159.832H224.883V158.528H224.355V160.252H225.383V161.092H223.979V161.52H227.315V161.092H225.911ZM228.142 160.372L228.602 159.636C228.686 159.476 228.766 159.312 228.838 159.156H228.854C228.846 159.328 228.83 159.596 228.83 159.768V160.372H228.142ZM229.73 160.372H229.378V158.628H228.674L227.57 160.42V160.82H228.83V161.588H229.378V160.82H229.73V160.372ZM230.014 161.588H231.998V161.092H231.354C231.218 161.092 231.022 161.108 230.874 161.124C231.414 160.596 231.858 160.02 231.858 159.484C231.858 158.932 231.486 158.572 230.926 158.572C230.522 158.572 230.258 158.732 229.986 159.02L230.306 159.34C230.454 159.176 230.634 159.036 230.85 159.036C231.13 159.036 231.294 159.216 231.294 159.516C231.294 159.972 230.818 160.528 230.014 161.248V161.588ZM232.525 161.588H234.305V161.112H233.749V158.628H233.313C233.125 158.744 232.921 158.82 232.625 158.876V159.24H233.161V161.112H232.525V161.588ZM219.689 165.66H218.949V164.844H219.689V165.66ZM219.689 164.432H218.949V163.54H218.425V166.08H220.213V163.54H219.689V164.432ZM221.733 164.62H221.197V163.252H220.669V166.932H221.197V165.06H221.733V164.62ZM224.516 163.244V166.94H225.044V163.244H224.516ZM223.064 163.504C222.508 163.504 222.096 164.008 222.096 164.816C222.096 165.628 222.508 166.136 223.064 166.136C223.62 166.136 224.032 165.628 224.032 164.816C224.032 164.008 223.62 163.504 223.064 163.504ZM223.064 163.98C223.336 163.98 223.524 164.272 223.524 164.816C223.524 165.364 223.336 165.656 223.064 165.656C222.792 165.656 222.604 165.364 222.604 164.816C222.604 164.272 222.792 163.98 223.064 163.98ZM228.54 165.68C228.688 164.896 228.688 164.376 228.688 163.916V163.564H226.012V163.984H228.16C228.16 164.412 228.152 164.924 228.012 165.62L228.54 165.68ZM227.38 166.064V164.796H226.852V166.064H225.676V166.488H229.008V166.064H227.38ZM230.42 165.6H229.948V164.04H230.42V165.6ZM231.264 164.584H230.908V163.624H229.456V166.012H230.908V165.012H231.264V166.764H231.756V163.304H231.264V164.584ZM232.012 163.244V166.928H232.512V163.244H232.012Z" fill="black"/>
<path d="M220.832 185.58V188.056H222.604V185.58H220.832ZM222.084 185.996V187.64H221.352V185.996H222.084ZM223.176 185.248V188.94H223.704V185.248H223.176ZM224.512 185.58V188.056H226.284V185.58H224.512ZM225.764 185.996V187.64H225.032V185.996H225.764ZM226.856 185.248V188.94H227.384V185.248H226.856ZM230.096 186.652C229.696 186.736 229.332 186.76 228.676 186.764V185.896H229.792V185.472H228.152V187.188H228.46C229.276 187.188 229.696 187.168 230.148 187.068L230.096 186.652ZM229.036 187.888H230.396V188.476H229.036V187.888ZM228.516 188.888H230.912V187.472H228.516V188.888ZM231.4 186.076H230.912V185.244H230.384V187.312H230.912V186.504H231.4V186.076Z" fill="black"/>
<path d="M221.824 237.196H221V236.804H220.468V237.196H219.652V237.608H221.82L221.824 237.196ZM220.336 238.448C220.336 238.248 220.5 238.14 220.736 238.14C220.968 238.14 221.136 238.248 221.136 238.448C221.136 238.652 220.968 238.76 220.736 238.76C220.5 238.76 220.336 238.652 220.336 238.448ZM221.64 238.448C221.64 238.032 221.264 237.74 220.736 237.74C220.208 237.74 219.832 238.032 219.832 238.448C219.832 238.872 220.208 239.16 220.736 239.16C221.264 239.16 221.64 238.872 221.64 238.448ZM220.704 239.36H220.176V240.428H222.684V240.008H220.704V239.36ZM222.552 237.932V236.808H222.024V239.564H222.552V238.368H223.04V237.932H222.552ZM226.668 238.656V238.236H226.204C226.276 237.844 226.276 237.536 226.276 237.26V236.964H223.744V237.388H225.756C225.756 237.632 225.744 237.9 225.676 238.236H223.332V238.656H224.732V239.176H223.668V239.592H225.752V240.492H226.284V239.176H225.26V238.656H226.668ZM229.308 238.356C228.748 238.192 228.476 237.812 228.448 237.424H229.172V237.008H227.168V237.424H227.904C227.876 237.84 227.608 238.24 227.024 238.412L227.288 238.828C227.72 238.696 228.016 238.42 228.184 238.076C228.352 238.392 228.636 238.644 229.052 238.764L229.308 238.356ZM229.548 240.028H228.148V239.704H229.548V240.028ZM229.548 239.3H228.148V238.964H227.624V240.448H230.072V238.964H229.548V239.3ZM229.54 236.812V238.808H230.072V236.812H229.54Z" fill="black"/>
<path d="M221.84 262.408C221.26 262.216 221.012 261.756 221.012 261.3V260.996H220.476V261.312C220.476 261.808 220.22 262.3 219.604 262.508L219.88 262.92C220.308 262.772 220.596 262.484 220.756 262.112C220.916 262.432 221.18 262.688 221.564 262.82L221.84 262.408ZM220.676 263.5H222.036V264.036H220.676V263.5ZM220.156 264.448H222.552V263.084H220.156V264.448ZM223.04 261.64H222.552V260.808H222.024V262.936H222.552V262.076H223.04V261.64ZM224.432 262.412H223.956V261.964H224.432V262.412ZM224.92 261.044H224.432V261.56H223.956V261.044H223.46V262.824H224.92V261.044ZM223.936 263.616H225.944V264.496H226.472V263.196H223.936V263.616ZM225.972 260.808V261.708H225.684V260.872H225.192V263.012H225.684V262.132H225.972V263.024H226.472V260.808H225.972ZM227.936 263.352H227.408V264.428H230.008V264.008H227.936V263.352ZM228.944 262.688V262.328H229.98V261.908H227.944V261.404H229.948V260.984H227.42V262.328H228.416V262.688H227.016V263.108H230.348V262.688H228.944Z" fill="black"/>
<path d="M261.189 247.572H261.569V249.196C261.441 249.2 261.313 249.204 261.189 249.208V247.572ZM262.077 247.572H262.393V247.148H260.361V247.572H260.677V249.22C260.533 249.22 260.393 249.22 260.265 249.22L260.321 249.652C260.949 249.652 261.785 249.636 262.533 249.504L262.501 249.12C262.365 249.14 262.221 249.148 262.077 249.16V247.572ZM263.733 248.2H263.197V246.812H262.669V250.496H263.197V248.636H263.733V248.2ZM266.516 246.804V250.5H267.044V246.804H266.516ZM265.064 247.064C264.508 247.064 264.096 247.568 264.096 248.376C264.096 249.188 264.508 249.696 265.064 249.696C265.62 249.696 266.032 249.188 266.032 248.376C266.032 247.568 265.62 247.064 265.064 247.064ZM265.064 247.54C265.336 247.54 265.524 247.832 265.524 248.376C265.524 248.924 265.336 249.216 265.064 249.216C264.792 249.216 264.604 248.924 264.604 248.376C264.604 247.832 264.792 247.54 265.064 247.54ZM268.68 249.216C268.412 249.216 268.232 248.924 268.232 248.376C268.232 247.832 268.412 247.54 268.68 247.54C268.952 247.54 269.132 247.832 269.132 248.376C269.132 248.924 268.952 249.216 268.68 249.216ZM270.236 246.804V248.132H269.62C269.548 247.468 269.176 247.064 268.68 247.064C268.132 247.064 267.728 247.568 267.728 248.376C267.728 249.188 268.132 249.696 268.68 249.696C269.192 249.696 269.568 249.264 269.624 248.56H270.236V250.5H270.764V246.804H270.236ZM274.492 246.812H273.992V248.708H274.492V246.812ZM272.452 248.188H271.976V247.8H272.452V248.188ZM272.94 247.996H273.244V248.688H273.736V246.872H273.244V247.58H272.94V247.008H272.452V247.412H271.976V247.012H271.48V248.592H272.94V247.996ZM272.524 250.064V249.84H274.492V248.856H271.988V249.26H273.964V249.46H271.996V250.464H274.608V250.064H272.524ZM261.061 252.564H262.313V252.136H260.533V254.624H260.857C261.641 254.624 262.109 254.608 262.609 254.512L262.561 254.076C262.117 254.16 261.705 254.18 261.061 254.184V252.564ZM262.837 251.808V255.504H263.365V251.808H262.837ZM265 254.216C264.732 254.216 264.552 253.924 264.552 253.376C264.552 252.832 264.732 252.54 265 252.54C265.272 252.54 265.452 252.832 265.452 253.376C265.452 253.924 265.272 254.216 265 254.216ZM266.556 251.804V253.132H265.94C265.868 252.468 265.496 252.064 265 252.064C264.452 252.064 264.048 252.568 264.048 253.376C264.048 254.188 264.452 254.696 265 254.696C265.512 254.696 265.888 254.264 265.944 253.56H266.556V255.5H267.084V251.804H266.556ZM270.54 254.24C270.688 253.456 270.688 252.936 270.688 252.476V252.124H268.012V252.544H270.16C270.16 252.972 270.152 253.484 270.012 254.18L270.54 254.24ZM269.38 254.624V253.356H268.852V254.624H267.676V255.048H271.008V254.624H269.38ZM272.42 254.16H271.948V252.6H272.42V254.16ZM273.264 253.144H272.908V252.184H271.456V254.572H272.908V253.572H273.264V255.324H273.756V251.864H273.264V253.144ZM274.012 251.804V255.488H274.512V251.804H274.012Z" fill="black"/>
<path d="M239.493 308.14V310.616H241.265V308.14H239.493ZM240.745 308.556V310.2H240.013V308.556H240.745ZM241.837 307.808V311.5H242.365V307.808H241.837ZM243.98 310.216C243.704 310.216 243.52 309.924 243.52 309.376C243.52 308.832 243.704 308.54 243.98 308.54C244.252 308.54 244.44 308.832 244.44 309.376C244.44 309.924 244.252 310.216 243.98 310.216ZM243.98 308.064C243.42 308.064 243.012 308.568 243.012 309.376C243.012 310.188 243.42 310.696 243.98 310.696C244.536 310.696 244.948 310.188 244.948 309.376C244.948 308.568 244.536 308.064 243.98 308.064ZM246.412 309.196H245.876V307.808H245.348V311.492H245.876V309.632H246.412V309.196ZM247.592 310.3H247.064V311.428H249.664V311.008H247.592V310.3ZM248.608 309.656V309.216H249.632V308.796H247.616V307.912H247.088V309.216H248.08V309.656H246.676V310.076H250.008V309.656H248.608ZM250.992 308.156H250.464V310.588H250.784C251.32 310.588 251.912 310.556 252.524 310.428L252.472 309.996C251.956 310.096 251.456 310.136 250.992 310.148V308.156ZM253.752 309.196H253.236V307.804H252.708V311.484H253.236V309.632H253.752V309.196Z" fill="black"/>
<path d="M293.937 261.48H294.465V258.808H293.937V259.62H293.509V260.04H293.937V261.48ZM293.781 260.592C293.353 260.328 293.249 259.844 293.249 259.38V259.056H292.877V259.06H292.757V259.384C292.757 259.712 292.713 260.08 292.513 260.368C292.313 260.08 292.269 259.704 292.269 259.384V259.06H292.149V259.056H291.773V259.38C291.773 259.828 291.669 260.32 291.241 260.592L291.525 260.964C291.769 260.812 291.925 260.576 292.021 260.3C292.109 260.588 292.261 260.84 292.513 261.008C292.765 260.844 292.917 260.596 293.005 260.308C293.097 260.584 293.253 260.816 293.497 260.964L293.781 260.592ZM292.433 262.008V261.232H291.905V262.428H294.545V262.008H292.433ZM295.908 261.256H295.38V262.428H297.992V262.008H295.908V261.256ZM297.844 260.568C297.936 260.06 297.936 259.684 297.936 259.32V258.972H295.404V259.392H297.416C297.416 259.5 297.416 259.608 297.412 259.724L295.3 259.768L295.36 260.192L297.384 260.108C297.368 260.252 297.348 260.4 297.312 260.568H294.992V260.988H298.324V260.568H297.844ZM298.84 259.184V259.612H300.044C299.948 260.428 299.492 261.012 298.636 261.452L298.932 261.856C300.156 261.236 300.576 260.288 300.576 259.184H298.84ZM302.072 260.212H301.556V258.804H301.028V262.484H301.556V260.648H302.072V260.212ZM305.32 259.908H303.284V259.36H305.292V258.94H302.76V260.328H305.32V259.908ZM303.276 261.324H302.748V262.428H305.348V262.008H303.276V261.324ZM302.356 260.628V261.048H305.688V260.628H302.356Z" fill="white"/>
<path d="M265.164 194.544H266.332V193.12H264.64V193.54H265.812V194.128H264.644V195.648H264.956C265.596 195.648 266.104 195.624 266.656 195.524L266.608 195.096C266.128 195.18 265.692 195.208 265.164 195.212V194.544ZM267.912 194.196H267.384V192.804H266.856V196.5H267.384V194.632H267.912V194.196ZM271.312 192.812H270.812V195.548H271.312V192.812ZM269.272 194.496H268.792V193.568H269.272V194.496ZM269.76 194.22H270.072V195.44H270.564V192.872H270.072V193.796H269.76V193.164H268.3V194.9H269.76V194.22ZM269.36 196.008V195.228H268.832V196.428H271.404V196.008H269.36ZM263.732 200.2H263.252V199.404H263.732V200.2ZM264.564 199.156H264.22V198.144H263.732V198.988H263.252V198.14H262.756V200.62H264.22V199.58H264.564V201.332H265.056V197.872H264.564V199.156ZM265.312 197.804V201.488H265.812V197.804H265.312ZM267.004 199.544H268.172V198.12H266.48V198.54H267.652V199.128H266.484V200.648H266.796C267.436 200.648 267.944 200.624 268.496 200.524L268.448 200.096C267.968 200.18 267.532 200.208 267.004 200.212V199.544ZM269.752 199.196H269.224V197.804H268.696V201.5H269.224V199.632H269.752V199.196ZM270.888 199.024H272.464V199.54H270.888V199.024ZM271.94 200.636V199.96H272.984V198.036H272.464V198.608H270.888V198.036H270.364V199.96H271.412V200.636H270.012V201.064H273.348V200.636H271.94Z" fill="black"/>
<path fill-rule="evenodd" clip-rule="evenodd" d="M284.789 143.432C288.317 142.822 291 139.756 291 136.065C291 131.935 287.642 128.588 283.5 128.588C279.358 128.588 276 131.935 276 136.065C276 139.756 278.683 142.822 282.211 143.432L283.5 148.588L284.789 143.432Z" fill="black"/>
<path fill-rule="evenodd" clip-rule="evenodd" d="M284.789 141.432C288.317 140.822 291 137.756 291 134.065C291 129.935 287.642 126.588 283.5 126.588C279.358 126.588 276 129.935 276 134.065C276 137.756 278.683 140.822 282.211 141.432L283.5 146.588L284.789 141.432Z" fill="#FF0000"/>
<ellipse cx="283.5" cy="134.065" rx="2.5" ry="2.49231" fill="white"/>
<path d="M206.616 407.357H208.116V405.857V375.5H313.5V702.5H1.5V435.5H161.319H162.819V434V407.357H206.616Z" fill="#C4C4C4" stroke="black" stroke-width="3" stroke-miterlimit="10"/>
<path d="M251.266 459.337H241.75V494.373H251.266V459.337Z" fill="black"/>
<path d="M113.266 618.412H103.75V653.448H113.266V618.412Z" fill="black"/>
<path d="M276.806 459.337H267.29V494.373H276.806V459.337Z" fill="black"/>
<path d="M138.806 618.412H129.29V653.448H138.806V618.412Z" fill="black"/>
<path d="M265.448 459.337H253.107V494.373H265.448V459.337Z" fill="#FF0000"/>
<path d="M127.448 618.412H115.107V653.448H127.448V618.412Z" fill="black"/>
<path d="M240 459.412H167V494.412H240V459.412Z" fill="black"/>
<path d="M102 618.487H29V653.487H102V618.487Z" fill="black"/>
<path d="M262.869 480.285V474.971C262.869 474.414 262.44 473.982 261.887 473.982H256.607C256.054 473.982 255.625 474.414 255.625 474.971V480.285C255.625 480.841 256.054 481.273 256.607 481.273H261.887C262.44 481.212 262.869 480.841 262.869 480.285ZM262.071 480.408H256.423V474.785H262.071V480.408Z" fill="white"/>
<path d="M260.168 470.521C260.168 470.089 260.782 470.089 260.782 470.521V472.251L261.089 471.881C261.334 471.633 261.702 472.004 261.457 472.251L260.659 473.178C260.536 473.302 260.352 473.302 260.229 473.178L259.431 472.251C259.185 471.942 259.615 471.633 259.799 471.881L260.106 472.313L260.168 470.521Z" fill="white"/>
<path d="M257.773 472.995C257.773 473.428 258.387 473.428 258.387 472.995V471.265L258.694 471.636C258.94 471.883 259.308 471.512 259.062 471.265L258.264 470.338C258.141 470.215 257.957 470.215 257.834 470.338L257.036 471.265C256.791 471.574 257.221 471.883 257.405 471.636L257.712 471.203L257.773 472.995Z" fill="white"/>
<path d="M260.905 476.453H259.861C259.738 476.453 259.615 476.577 259.615 476.7V477.998C259.615 478.122 259.677 478.183 259.799 478.183C259.799 478.183 259.861 478.183 259.922 478.183V479.852C259.922 480.161 260.352 480.161 260.352 479.852V478.183H260.413V479.852C260.413 480.161 260.843 480.161 260.843 479.852V478.183C260.905 478.183 260.966 478.183 260.966 478.183C261.089 478.183 261.15 478.122 261.15 477.998V476.7C261.15 476.577 261.027 476.453 260.905 476.453Z" fill="white"/>
<path d="M260.351 476.33C260.521 476.33 260.658 476.192 260.658 476.021C260.658 475.85 260.521 475.712 260.351 475.712C260.182 475.712 260.044 475.85 260.044 476.021C260.044 476.192 260.182 476.33 260.351 476.33Z" fill="white"/>
<path d="M258.695 476.453H257.651C257.528 476.453 257.405 476.577 257.405 476.7V477.998C257.405 478.122 257.467 478.183 257.589 478.183C257.589 478.183 257.651 478.183 257.712 478.183V479.852C257.712 480.161 258.142 480.161 258.142 479.852V478.183H258.203V479.852C258.203 480.161 258.633 480.161 258.633 479.852V478.183C258.695 478.183 258.756 478.183 258.756 478.183C258.879 478.183 258.94 478.122 258.94 477.998V476.7C258.94 476.577 258.817 476.453 258.695 476.453Z" fill="white"/>
<path d="M258.141 476.33C258.311 476.33 258.448 476.192 258.448 476.021C258.448 475.85 258.311 475.712 258.141 475.712C257.972 475.712 257.834 475.85 257.834 476.021C257.834 476.192 257.972 476.33 258.141 476.33Z" fill="white"/>
<path d="M124.869 639.36V634.046C124.869 633.49 124.44 633.057 123.887 633.057H118.607C118.054 633.057 117.625 633.49 117.625 634.046V639.36C117.625 639.916 118.054 640.349 118.607 640.349H123.887C124.44 640.287 124.869 639.916 124.869 639.36ZM124.071 639.484H118.423V633.86H124.071V639.484Z" fill="white"/>
<path d="M122.168 629.596C122.168 629.164 122.782 629.164 122.782 629.596V631.327L123.089 630.956C123.334 630.709 123.702 631.079 123.457 631.327L122.659 632.253C122.536 632.377 122.352 632.377 122.229 632.253L121.431 631.327C121.185 631.018 121.615 630.709 121.799 630.956L122.106 631.388L122.168 629.596Z" fill="white"/>
<path d="M119.773 632.071C119.773 632.503 120.387 632.503 120.387 632.071V630.34L120.694 630.711C120.94 630.958 121.308 630.588 121.062 630.34L120.264 629.413C120.141 629.29 119.957 629.29 119.834 629.413L119.036 630.34C118.791 630.649 119.221 630.958 119.405 630.711L119.712 630.279L119.773 632.071Z" fill="white"/>
<path d="M122.905 635.528H121.861C121.738 635.528 121.615 635.652 121.615 635.775V637.073C121.615 637.197 121.677 637.259 121.799 637.259C121.799 637.259 121.861 637.259 121.922 637.259V638.927C121.922 639.236 122.352 639.236 122.352 638.927V637.259H122.413V638.927C122.413 639.236 122.843 639.236 122.843 638.927V637.259C122.905 637.259 122.966 637.259 122.966 637.259C123.089 637.259 123.15 637.197 123.15 637.073V635.775C123.15 635.652 123.027 635.528 122.905 635.528Z" fill="white"/>
<path d="M122.351 635.405C122.521 635.405 122.658 635.267 122.658 635.096C122.658 634.925 122.521 634.787 122.351 634.787C122.182 634.787 122.044 634.925 122.044 635.096C122.044 635.267 122.182 635.405 122.351 635.405Z" fill="white"/>
<path d="M120.695 635.528H119.651C119.528 635.528 119.405 635.652 119.405 635.775V637.073C119.405 637.197 119.467 637.259 119.589 637.259C119.589 637.259 119.651 637.259 119.712 637.259V638.927C119.712 639.236 120.142 639.236 120.142 638.927V637.259H120.203V638.927C120.203 639.236 120.633 639.236 120.633 638.927V637.259C120.695 637.259 120.756 637.259 120.756 637.259C120.879 637.259 120.94 637.197 120.94 637.073V635.775C120.94 635.652 120.817 635.528 120.695 635.528Z" fill="white"/>
<path d="M120.141 635.405C120.311 635.405 120.448 635.267 120.448 635.096C120.448 634.925 120.311 634.787 120.141 634.787C119.972 634.787 119.834 634.925 119.834 635.096C119.834 635.267 119.972 635.405 120.141 635.405Z" fill="white"/>
<path d="M175.632 474.412H177.17V472.054H178.462C180.135 472.054 181.108 471.056 181.108 469.604C181.108 468.159 180.153 467.139 178.501 467.139H175.632V474.412ZM177.17 470.822V468.396H178.207C179.094 468.396 179.524 468.879 179.524 469.604C179.524 470.325 179.094 470.822 178.214 470.822H177.17ZM183.487 474.515C184.293 474.515 184.815 474.164 185.082 473.656H185.124V474.412H186.559V470.733C186.559 469.433 185.458 468.887 184.244 468.887C182.937 468.887 182.077 469.512 181.868 470.506L183.267 470.619C183.37 470.257 183.693 469.991 184.237 469.991C184.751 469.991 185.046 470.25 185.046 470.698V470.719C185.046 471.07 184.673 471.117 183.725 471.209C182.646 471.308 181.676 471.671 181.676 472.889C181.676 473.968 182.447 474.515 183.487 474.515ZM183.92 473.471C183.455 473.471 183.121 473.254 183.121 472.839C183.121 472.413 183.473 472.203 184.006 472.129C184.336 472.083 184.876 472.004 185.057 471.884V472.463C185.057 473.034 184.585 473.471 183.92 473.471ZM187.733 474.412H189.245V471.326C189.245 470.655 189.735 470.193 190.403 470.193C190.613 470.193 190.9 470.229 191.042 470.275V468.933C190.907 468.901 190.719 468.879 190.566 468.879C189.956 468.879 189.455 469.235 189.256 469.909H189.199V468.958H187.733V474.412ZM191.824 474.412H193.337V472.679L193.746 472.214L195.233 474.412H197.006L194.878 471.319L196.903 468.958H195.166L193.419 471.028H193.337V467.139H191.824V474.412ZM197.645 474.412H199.157V468.958H197.645V474.412ZM198.405 468.254C198.856 468.254 199.225 467.91 199.225 467.487C199.225 467.068 198.856 466.724 198.405 466.724C197.957 466.724 197.588 467.068 197.588 467.487C197.588 467.91 197.957 468.254 198.405 468.254ZM201.882 471.259C201.886 470.556 202.305 470.144 202.915 470.144C203.523 470.144 203.888 470.541 203.885 471.209V474.412H205.398V470.939C205.398 469.668 204.652 468.887 203.516 468.887C202.706 468.887 202.12 469.284 201.875 469.92H201.811V468.958H200.369V474.412H201.882V471.259ZM209.047 476.571C210.606 476.571 211.714 475.861 211.714 474.465V468.958H210.212V469.874H210.155C209.953 469.43 209.509 468.887 208.596 468.887C207.4 468.887 206.388 469.817 206.388 471.674C206.388 473.489 207.371 474.334 208.6 474.334C209.47 474.334 209.956 473.897 210.155 473.446H210.219V474.444C210.219 475.193 209.74 475.485 209.083 475.485C208.415 475.485 208.078 475.193 207.954 474.863L206.555 475.051C206.736 475.911 207.577 476.571 209.047 476.571ZM209.079 473.198C208.337 473.198 207.932 472.608 207.932 471.667C207.932 470.74 208.33 470.09 209.079 470.09C209.814 470.09 210.226 470.712 210.226 471.667C210.226 472.629 209.807 473.198 209.079 473.198ZM175.632 486.412H180.547V485.144H177.17V483.408H180.281V482.14H177.17V480.407H180.533V479.139H175.632V486.412ZM183.009 486.412L183.548 484.754H186.173L186.713 486.412H188.36L185.853 479.139H183.872L181.361 486.412H183.009ZM183.939 483.553L184.834 480.801H184.891L185.786 483.553H183.939ZM193.015 481.231H194.489C194.467 479.935 193.402 479.04 191.783 479.04C190.188 479.04 189.02 479.921 189.027 481.242C189.023 482.314 189.78 482.928 191.009 483.223L191.8 483.422C192.592 483.614 193.033 483.841 193.036 484.331C193.033 484.864 192.528 485.226 191.747 485.226C190.948 485.226 190.373 484.857 190.323 484.129H188.835C188.874 485.702 190 486.515 191.765 486.515C193.54 486.515 194.585 485.666 194.588 484.335C194.585 483.124 193.672 482.481 192.408 482.197L191.754 482.041C191.122 481.895 190.593 481.661 190.604 481.139C190.604 480.67 191.019 480.325 191.772 480.325C192.507 480.325 192.958 480.659 193.015 481.231ZM195.345 480.407H197.572V486.412H199.092V480.407H201.318V479.139H195.345V480.407ZM204.616 486.412H206.154V483.408H209.276V486.412H210.81V479.139H209.276V482.14H206.154V479.139H204.616V486.412ZM213.331 486.412L213.871 484.754H216.495L217.035 486.412H218.683L216.175 479.139H214.194L211.683 486.412H213.331ZM214.261 483.553L215.156 480.801H215.213L216.108 483.553H214.261ZM219.558 486.412H224.213V485.144H221.096V479.139H219.558V486.412ZM225.232 486.412H229.887V485.144H226.769V479.139H225.232V486.412Z" fill="white"/>
<path d="M37.6321 633.487H39.1697V631.129H40.4624C42.1349 631.129 43.108 630.131 43.108 628.679C43.108 627.234 42.1527 626.215 40.5014 626.215H37.6321V633.487ZM39.1697 629.897V627.472H40.2067C41.0945 627.472 41.5241 627.955 41.5241 628.679C41.5241 629.4 41.0945 629.897 40.2138 629.897H39.1697ZM45.4872 633.59C46.2933 633.59 46.8153 633.239 47.0817 632.731H47.1243V633.487H48.5589V629.808C48.5589 628.509 47.4581 627.962 46.2436 627.962C44.9368 627.962 44.0774 628.587 43.8679 629.581L45.267 629.695C45.37 629.332 45.6932 629.066 46.2365 629.066C46.7514 629.066 47.0462 629.325 47.0462 629.773V629.794C47.0462 630.146 46.6733 630.192 45.7251 630.284C44.6456 630.384 43.6761 630.746 43.6761 631.964C43.6761 633.043 44.4467 633.59 45.4872 633.59ZM45.9205 632.546C45.4553 632.546 45.1214 632.33 45.1214 631.914C45.1214 631.488 45.473 631.278 46.0057 631.204C46.3359 631.158 46.8757 631.08 47.0568 630.959V631.538C47.0568 632.109 46.5845 632.546 45.9205 632.546ZM49.7326 633.487H51.2454V630.401C51.2454 629.73 51.7354 629.269 52.4031 629.269C52.6126 629.269 52.9002 629.304 53.0423 629.35V628.008C52.9073 627.976 52.7191 627.955 52.5664 627.955C51.9556 627.955 51.4549 628.31 51.256 628.984H51.1992V628.033H49.7326V633.487ZM53.8244 633.487H55.3372V631.754L55.7456 631.289L57.2335 633.487H59.0055L56.8784 630.394L58.9025 628.033H57.166L55.4189 630.103H55.3372V626.215H53.8244V633.487ZM59.6447 633.487H61.1575V628.033H59.6447V633.487ZM60.4047 627.33C60.8556 627.33 61.225 626.985 61.225 626.563C61.225 626.144 60.8556 625.799 60.4047 625.799C59.9572 625.799 59.5879 626.144 59.5879 626.563C59.5879 626.985 59.9572 627.33 60.4047 627.33ZM63.8821 630.334C63.8857 629.631 64.3047 629.219 64.9155 629.219C65.5227 629.219 65.8885 629.617 65.8849 630.284V633.487H67.3977V630.014C67.3977 628.743 66.652 627.962 65.5156 627.962C64.706 627.962 64.12 628.359 63.875 628.995H63.8111V628.033H62.3693V633.487H63.8821V630.334ZM71.0474 635.646C72.6064 635.646 73.7143 634.936 73.7143 633.541V628.033H72.2122V628.949H72.1554C71.9529 628.505 71.5091 627.962 70.5964 627.962C69.3997 627.962 68.3876 628.892 68.3876 630.749C68.3876 632.564 69.3713 633.409 70.6 633.409C71.47 633.409 71.9565 632.972 72.1554 632.521H72.2193V633.519C72.2193 634.269 71.7399 634.56 71.0829 634.56C70.4153 634.56 70.0779 634.269 69.9537 633.938L68.5545 634.127C68.7356 634.986 69.5772 635.646 71.0474 635.646ZM71.0794 632.273C70.3372 632.273 69.9324 631.683 69.9324 630.742C69.9324 629.815 70.3301 629.166 71.0794 629.166C71.8145 629.166 72.2264 629.787 72.2264 630.742C72.2264 631.705 71.8074 632.273 71.0794 632.273ZM39.2692 645.487H40.7678L42.1491 640.732H42.206L43.5909 645.487H45.0895L47.1705 638.215H45.4908L44.2869 643.278H44.223L42.8984 638.215H41.4602L40.1321 643.268H40.0717L38.8679 638.215H37.1882L39.2692 645.487ZM47.9934 645.487H52.9082V644.22H49.5311V642.483H52.6419V641.215H49.5311V639.482H52.894V638.215H47.9934V645.487ZM58.0618 640.306H59.5355C59.5142 639.01 58.4489 638.115 56.8295 638.115C55.2351 638.115 54.0668 638.996 54.0739 640.317C54.0703 641.389 54.8267 642.004 56.0554 642.298L56.8473 642.497C57.6392 642.689 58.0795 642.916 58.0831 643.406C58.0795 643.939 57.5753 644.301 56.794 644.301C55.995 644.301 55.4197 643.932 55.37 643.204H53.8821C53.9212 644.777 55.0469 645.59 56.8118 645.59C58.5874 645.59 59.6314 644.742 59.6349 643.41C59.6314 642.199 58.7188 641.556 57.4545 641.272L56.8011 641.116C56.169 640.97 55.6399 640.736 55.6506 640.214C55.6506 639.745 56.0661 639.401 56.8189 639.401C57.554 639.401 58.005 639.734 58.0618 640.306ZM60.3922 639.482H62.6188V645.487H64.1387V639.482H66.3652V638.215H60.3922V639.482ZM69.6634 645.487H71.201V642.483H74.3224V645.487H75.8565V638.215H74.3224V641.215H71.201V638.215H69.6634V645.487ZM78.3778 645.487L78.9176 643.829H81.5419L82.0817 645.487H83.7294L81.2223 638.215H79.2408L76.7301 645.487H78.3778ZM79.3082 642.629L80.2031 639.877H80.2599L81.1548 642.629H79.3082ZM84.6048 645.487H89.2603V644.22H86.1424V638.215H84.6048V645.487ZM90.2786 645.487H94.9341V644.22H91.8162V638.215H90.2786V645.487Z" fill="white"/>
<path d="M2.78125 417.412H9.54688V407.037H15.2344C22.5937 407.037 26.875 402.646 26.875 396.256C26.875 389.896 22.6719 385.412 15.4063 385.412H2.78125V417.412ZM9.54688 401.615V390.943H14.1094C18.0156 390.943 19.9063 393.068 19.9063 396.256C19.9063 399.428 18.0156 401.615 14.1406 401.615H9.54688Z" fill="black"/>
<path fill-rule="evenodd" clip-rule="evenodd" d="M229.789 469.844C233.317 469.235 236 466.168 236 462.477C236 458.348 232.642 455 228.5 455C224.358 455 221 458.348 221 462.477C221 466.168 223.683 469.235 227.211 469.844L228.5 475L229.789 469.844Z" fill="black"/>
<path fill-rule="evenodd" clip-rule="evenodd" d="M229.789 467.844C233.317 467.235 236 464.168 236 460.477C236 456.348 232.642 453 228.5 453C224.358 453 221 456.348 221 460.477C221 464.168 223.683 467.235 227.211 467.844L228.5 473L229.789 467.844Z" fill="#FF0000"/>
<ellipse cx="228.5" cy="460.477" rx="2.5" ry="2.49231" fill="white"/>
<path d="M0.90918 732.96C0.90918 731.93 1.0459 730.941 1.31934 729.993C1.59733 729.045 2.00977 728.184 2.55664 727.409C3.10352 726.634 3.6709 726.088 4.25879 725.769L4.51855 726.603C3.85319 727.113 3.30632 727.892 2.87793 728.94C2.4541 729.989 2.22168 731.162 2.18066 732.461L2.17383 733.042C2.17383 734.801 2.49512 736.328 3.1377 737.622C3.52507 738.397 3.98535 739.003 4.51855 739.44L4.25879 740.213C3.65267 739.876 3.07389 739.311 2.52246 738.518C1.44694 736.968 0.90918 735.116 0.90918 732.96ZM13.2891 735.694C12.9518 736.177 12.4801 736.54 11.874 736.781C11.2725 737.018 10.5706 737.137 9.76855 737.137C8.95736 737.137 8.2373 736.948 7.6084 736.569C6.97949 736.187 6.49186 735.644 6.14551 734.942C5.80371 734.241 5.62826 733.427 5.61914 732.502V731.634C5.61914 730.134 5.96777 728.972 6.66504 728.147C7.36686 727.323 8.35124 726.91 9.61816 726.91C10.6572 726.91 11.4935 727.177 12.127 727.71C12.7604 728.239 13.1478 728.991 13.2891 729.966H11.9766C11.7305 728.649 10.9466 727.99 9.625 727.99C8.74544 727.99 8.0778 728.3 7.62207 728.92C7.1709 729.535 6.94303 730.428 6.93848 731.6V732.413C6.93848 733.53 7.19368 734.418 7.7041 735.079C8.21452 735.735 8.90495 736.063 9.77539 736.063C10.2676 736.063 10.6982 736.009 11.0674 735.899C11.4365 735.79 11.7419 735.605 11.9834 735.346V733.11H9.67969V732.044H13.2891V735.694ZM15.4834 737V727.047H18.293C19.1589 727.047 19.9245 727.238 20.5898 727.621C21.2552 728.004 21.7679 728.549 22.1279 729.255C22.4925 729.961 22.6771 730.772 22.6816 731.688V732.324C22.6816 733.263 22.4993 734.086 22.1348 734.792C21.7747 735.498 21.2575 736.041 20.583 736.419C19.9131 736.797 19.1315 736.991 18.2383 737H15.4834ZM16.7959 728.127V735.927H18.1768C19.1885 735.927 19.9746 735.612 20.5352 734.983C21.1003 734.354 21.3828 733.459 21.3828 732.297V731.716C21.3828 730.586 21.1162 729.708 20.583 729.084C20.0544 728.455 19.3024 728.136 18.3271 728.127H16.7959ZM28.3213 732.974H25.9834V737H24.6641V727.047H27.959C29.0801 727.047 29.9414 727.302 30.543 727.812C31.1491 728.323 31.4521 729.066 31.4521 730.041C31.4521 730.661 31.2835 731.201 30.9463 731.661C30.6136 732.121 30.1488 732.465 29.5518 732.693L31.8896 736.918V737H30.4814L28.3213 732.974ZM25.9834 731.9H28C28.6517 731.9 29.1689 731.732 29.5518 731.395C29.9391 731.057 30.1328 730.606 30.1328 730.041C30.1328 729.426 29.9482 728.954 29.5791 728.626C29.2145 728.298 28.6859 728.132 27.9932 728.127H25.9834V731.9ZM36.2306 734.186C35.0126 734.186 34.1586 732.87 34.1586 730.826C34.1586 728.796 35.0126 727.48 36.2306 727.48C37.4346 727.48 38.2886 728.796 38.2886 730.826C38.2886 732.87 37.4346 734.186 36.2306 734.186ZM36.2306 726.444C34.3826 726.444 33.0666 728.152 33.0666 730.826C33.0666 733.5 34.3826 735.208 36.2306 735.208C38.0786 735.208 39.3806 733.5 39.3806 730.826C39.3806 728.152 38.0786 726.444 36.2306 726.444ZM44.6166 730.49H42.5446V725.492H41.3966V738.036H42.5446V731.456H44.6166V730.49ZM46.5615 726.78V727.718H51.0835C51.0415 728.488 50.9155 729.216 50.7055 729.916L45.9315 730.238L46.1275 731.246L50.3555 730.84C49.5855 732.52 48.1995 733.948 45.8755 735.096L46.5055 735.978C50.9995 733.738 52.2315 730.42 52.2315 726.78H46.5615ZM57.4395 730.574H55.4235V725.478H54.2755V738.036H55.4235V731.526H57.4395V730.574ZM60.2384 727.942H63.8224V727.018H59.1044V735.012H59.9164C61.9184 735.012 63.1364 734.956 64.5644 734.648L64.4524 733.71C63.1364 733.99 62.0164 734.046 60.2384 734.06V727.942ZM65.6844 730.266H62.9824V731.218H65.6844V737.406H66.7624V725.786H65.6844V730.266ZM68.2044 725.478V738.036H69.2964V725.478H68.2044ZM72.2493 726.71V734.872H78.0173V726.71H72.2493ZM76.8973 727.634V733.962H73.3693V727.634H76.8973ZM80.6493 725.478V738.064H81.7973V725.478H80.6493ZM89.1609 729.118C89.1609 727.97 90.0569 727.158 91.2889 727.158C92.5349 727.158 93.4309 727.97 93.4309 729.118C93.4309 730.266 92.5349 731.078 91.2889 731.078C90.0569 731.078 89.1609 730.266 89.1609 729.118ZM97.0569 728.138V730.084H94.3549C94.4669 729.79 94.5229 729.468 94.5229 729.118C94.5229 728.768 94.4669 728.432 94.3549 728.138H97.0569ZM97.0569 731.008V732.548H98.2189V725.492H97.0569V727.214H93.8089C93.2489 726.584 92.3529 726.206 91.2889 726.206C89.4269 726.206 88.0689 727.382 88.0689 729.118C88.0689 730.84 89.4269 732.03 91.2889 732.03C92.3529 732.03 93.2489 731.652 93.8229 731.008H97.0569ZM92.7869 734.06H95.3769V736.916H92.7869V734.06ZM96.5109 736.916V734.06H98.3169V733.136H89.8749V734.06H91.6529V736.916H89.7489V737.84H98.4709V736.916H96.5109ZM103.886 733.028C103.886 734.045 103.751 735.02 103.482 735.954C103.218 736.884 102.81 737.743 102.259 738.531C101.712 739.32 101.138 739.88 100.536 740.213L100.27 739.44C100.971 738.903 101.534 738.069 101.958 736.938C102.386 735.804 102.605 734.546 102.614 733.165V732.946C102.614 731.989 102.514 731.101 102.313 730.28C102.113 729.455 101.833 728.717 101.473 728.065C101.117 727.414 100.716 726.906 100.27 726.541L100.536 725.769C101.138 726.101 101.71 726.657 102.252 727.437C102.799 728.216 103.207 729.075 103.476 730.014C103.749 730.952 103.886 731.957 103.886 733.028ZM111.658 732.399H107.345V735.927H112.355V737H106.032V727.047H112.287V728.127H107.345V731.326H111.658V732.399ZM119.485 734.402H115.315L114.379 737H113.025L116.826 727.047H117.975L121.782 737H120.436L119.485 734.402ZM115.712 733.322H119.096L117.4 728.667L115.712 733.322ZM126.055 732.563C124.929 732.24 124.109 731.843 123.594 731.374C123.083 730.9 122.828 730.317 122.828 729.624C122.828 728.84 123.14 728.193 123.765 727.683C124.394 727.168 125.209 726.91 126.212 726.91C126.896 726.91 127.504 727.042 128.037 727.307C128.575 727.571 128.99 727.936 129.281 728.4C129.577 728.865 129.726 729.373 129.726 729.925H128.406C128.406 729.323 128.215 728.852 127.832 728.51C127.449 728.163 126.909 727.99 126.212 727.99C125.565 727.99 125.059 728.134 124.694 728.421C124.334 728.703 124.154 729.098 124.154 729.604C124.154 730.009 124.325 730.353 124.667 730.636C125.013 730.914 125.599 731.169 126.424 731.401C127.253 731.634 127.9 731.891 128.365 732.174C128.835 732.452 129.181 732.778 129.404 733.151C129.632 733.525 129.746 733.965 129.746 734.471C129.746 735.277 129.432 735.924 128.803 736.412C128.174 736.895 127.333 737.137 126.28 737.137C125.597 737.137 124.959 737.007 124.366 736.747C123.774 736.483 123.316 736.123 122.992 735.667C122.673 735.211 122.514 734.694 122.514 734.115H123.833C123.833 734.717 124.054 735.193 124.496 735.544C124.943 735.89 125.537 736.063 126.28 736.063C126.973 736.063 127.504 735.922 127.873 735.64C128.242 735.357 128.427 734.972 128.427 734.484C128.427 733.997 128.256 733.621 127.914 733.356C127.572 733.088 126.952 732.823 126.055 732.563ZM138.312 728.127H135.112V737H133.807V728.127H130.614V727.047H138.312V728.127ZM153.172 725.492H152.066V732.016H153.172V725.492ZM143.722 728.81C143.722 727.746 144.492 726.976 145.556 726.976C146.606 726.976 147.376 727.746 147.376 728.81C147.376 729.916 146.606 730.686 145.556 730.686C144.492 730.686 143.722 729.916 143.722 728.81ZM149.7 729.272V731.932H150.778V725.744H149.7V728.348H148.37C148.174 726.976 147.054 726.066 145.556 726.066C143.89 726.066 142.7 727.186 142.7 728.81C142.7 730.462 143.89 731.596 145.556 731.596C147.054 731.596 148.188 730.672 148.384 729.272H149.7ZM146.046 736.944V735.6H153.172V732.604H144.884V733.514H152.024V734.732H144.912V737.868H153.648V736.944H146.046ZM157.329 731.12H161.963V726.64H156.139V727.578H160.801V730.196H156.181V735.012H157.217C159.373 735.012 161.277 734.928 163.545 734.55L163.433 733.612C161.235 733.962 159.387 734.06 157.329 734.06V731.12ZM164.609 725.464V738.05H165.757V725.464H164.609ZM172.518 733.948H169.872V730.7H172.518V733.948ZM175.416 730.252H173.596V726.724H172.518V729.776H169.872V726.724H168.78V734.886H173.596V731.19H175.416V737.42H176.508V725.758H175.416V730.252ZM177.908 725.478V738.036H179V725.478H177.908ZM190.339 725.478V738.064H191.487V725.478H190.339ZM184.865 726.444C183.003 726.444 181.673 728.152 181.673 730.826C181.673 733.5 183.003 735.208 184.865 735.208C186.727 735.208 188.057 733.5 188.057 730.826C188.057 728.152 186.727 726.444 184.865 726.444ZM184.865 727.48C186.083 727.48 186.951 728.796 186.951 730.826C186.951 732.87 186.083 734.186 184.865 734.186C183.633 734.186 182.765 732.87 182.765 730.826C182.765 728.796 183.633 727.48 184.865 727.48ZM195.812 731.078H199.928V730.154H195.812V727.564H200.474V726.612H194.664V735.026H195.63C198.024 735.026 199.55 734.956 201.37 734.634L201.244 733.696C199.536 734.004 198.08 734.088 195.812 734.088V731.078ZM203.288 725.464V730.21H200.698V731.162H203.288V738.05H204.436V725.464H203.288ZM215.761 727.676H208.425V730.364H217.119V729.538H209.559V728.46H216.895V725.842H208.397V726.654H215.761V727.676ZM209.489 735.88H216.937V733.206H208.327V734.032H215.803V735.082H208.355V737.868H217.329V737.042H209.489V735.88ZM206.969 731.316V732.184H218.351V731.316H206.969ZM232.448 725.478V738.064H233.596V725.478H232.448ZM226.974 726.444C225.112 726.444 223.782 728.152 223.782 730.826C223.782 733.5 225.112 735.208 226.974 735.208C228.836 735.208 230.166 733.5 230.166 730.826C230.166 728.152 228.836 726.444 226.974 726.444ZM226.974 727.48C228.192 727.48 229.06 728.796 229.06 730.826C229.06 732.87 228.192 734.186 226.974 734.186C225.742 734.186 224.874 732.87 224.874 730.826C224.874 728.796 225.742 727.48 226.974 727.48ZM241.869 737.14C239.895 737.14 238.733 736.65 238.733 735.796C238.733 734.942 239.895 734.452 241.869 734.452C243.829 734.452 245.005 734.942 245.005 735.796C245.005 736.65 243.829 737.14 241.869 737.14ZM241.869 733.556C239.181 733.556 237.571 734.354 237.571 735.796C237.571 737.238 239.181 738.022 241.869 738.022C244.571 738.022 246.167 737.238 246.167 735.796C246.167 734.354 244.571 733.556 241.869 733.556ZM240.133 730.224C240.651 730.308 241.239 730.364 241.869 730.364C242.513 730.364 243.101 730.308 243.619 730.224V731.694H240.133V730.224ZM238.635 728.04C238.635 727.13 239.867 726.598 241.869 726.598C243.871 726.598 245.103 727.13 245.103 728.04C245.103 728.936 243.871 729.482 241.869 729.482C239.867 729.482 238.635 728.936 238.635 728.04ZM244.753 731.694V729.916C245.719 729.524 246.279 728.88 246.279 728.04C246.279 726.57 244.599 725.702 241.869 725.702C239.153 725.702 237.459 726.57 237.459 728.04C237.459 728.894 238.005 729.524 238.999 729.93V731.694H236.185V732.618H247.553V731.694H244.753ZM252.76 734.284C251.626 734.284 250.8 733.472 250.8 732.352C250.8 731.218 251.626 730.406 252.76 730.406C253.908 730.406 254.734 731.218 254.734 732.352C254.734 733.472 253.908 734.284 252.76 734.284ZM252.76 729.454C250.996 729.454 249.722 730.658 249.722 732.352C249.722 734.06 250.996 735.236 252.76 735.236C254.552 735.236 255.826 734.06 255.826 732.352C255.826 730.658 254.552 729.454 252.76 729.454ZM253.32 725.632H252.172V727.494H249.008V728.418H256.414V727.494H253.32V725.632ZM260.81 730.644H258.752V725.492H257.604V738.036H258.752V731.61H260.81V730.644ZM268.299 732.254C268.383 731.82 268.439 731.344 268.439 730.826C268.439 730.252 268.369 729.72 268.257 729.23H271.155V732.254H268.299ZM265.317 734.186C264.113 734.186 263.273 732.87 263.273 730.826C263.273 728.796 264.113 727.48 265.317 727.48C266.507 727.48 267.361 728.796 267.361 730.826C267.361 732.87 266.507 734.186 265.317 734.186ZM271.155 725.478V728.292H267.935C267.403 727.116 266.479 726.444 265.317 726.444C263.483 726.444 262.181 728.152 262.181 730.826C262.181 733.5 263.483 735.208 265.317 735.208C266.521 735.208 267.501 734.466 268.019 733.192H271.155V738.064H272.303V725.478H271.155ZM287.436 725.478V738.064H288.584V725.478H287.436ZM281.962 726.444C280.1 726.444 278.77 728.152 278.77 730.826C278.77 733.5 280.1 735.208 281.962 735.208C283.824 735.208 285.154 733.5 285.154 730.826C285.154 728.152 283.824 726.444 281.962 726.444ZM281.962 727.48C283.18 727.48 284.048 728.796 284.048 730.826C284.048 732.87 283.18 734.186 281.962 734.186C280.73 734.186 279.862 732.87 279.862 730.826C279.862 728.796 280.73 727.48 281.962 727.48ZM296.871 737.14C294.883 737.14 293.721 736.65 293.721 735.768C293.721 734.886 294.883 734.396 296.871 734.396C298.831 734.396 299.993 734.886 299.993 735.768C299.993 736.65 298.831 737.14 296.871 737.14ZM296.871 733.5C294.183 733.5 292.559 734.312 292.559 735.768C292.559 737.224 294.183 738.036 296.871 738.036C299.531 738.036 301.155 737.224 301.155 735.768C301.155 734.312 299.531 733.5 296.871 733.5ZM297.445 731.68V730.224H301.225V729.3H293.763V726.976H301.141V726.052H292.615V730.224H296.297V731.68H291.187V732.604H302.555V731.68H297.445ZM4.424 750.284C3.29 750.284 2.464 749.472 2.464 748.352C2.464 747.218 3.29 746.406 4.424 746.406C5.572 746.406 6.398 747.218 6.398 748.352C6.398 749.472 5.572 750.284 4.424 750.284ZM4.424 745.454C2.66 745.454 1.386 746.658 1.386 748.352C1.386 750.06 2.66 751.236 4.424 751.236C6.216 751.236 7.49 750.06 7.49 748.352C7.49 746.658 6.216 745.454 4.424 745.454ZM4.984 741.632H3.836V743.494H0.672V744.418H8.078V743.494H4.984V741.632ZM12.474 746.644H10.416V741.492H9.268V754.036H10.416V747.61H12.474V746.644ZM17.3449 742.668H16.2389V745.062C16.2389 747.218 15.2029 749.472 13.4809 750.48L14.1949 751.334C15.4409 750.564 16.3509 749.15 16.7989 747.484C17.2469 749.01 18.0869 750.34 19.2769 751.068L19.9349 750.172C18.2829 749.164 17.3449 747.036 17.3449 745.02V742.668ZM20.6489 745.986H18.5769V746.938H20.6489V753.42H21.7269V741.758H20.6489V745.986ZM23.1969 741.478V754.036H24.2889V741.478H23.1969ZM30.4338 748.52C30.9518 748.646 31.5538 748.716 32.1698 748.716C32.7998 748.716 33.4018 748.646 33.9338 748.52V751.474H30.4338V748.52ZM32.1698 743.172C34.1858 743.172 35.6418 744.096 35.6418 745.496C35.6418 746.896 34.1858 747.82 32.1698 747.82C30.1538 747.82 28.7118 746.896 28.7118 745.496C28.7118 744.096 30.1538 743.172 32.1698 743.172ZM35.0818 751.474V748.072C36.1178 747.526 36.7338 746.63 36.7338 745.496C36.7338 743.536 34.8438 742.276 32.1698 742.276C29.5098 742.276 27.6058 743.536 27.6058 745.496C27.6058 746.63 28.2358 747.54 29.2858 748.086V751.474H26.4858V752.426H37.8958V751.474H35.0818ZM39.6211 752.337C39.6211 752.118 39.6849 751.936 39.8125 751.79C39.9447 751.644 40.1406 751.571 40.4004 751.571C40.6602 751.571 40.8561 751.644 40.9883 751.79C41.125 751.936 41.1934 752.118 41.1934 752.337C41.1934 752.547 41.125 752.722 40.9883 752.863C40.8561 753.005 40.6602 753.075 40.4004 753.075C40.1406 753.075 39.9447 753.005 39.8125 752.863C39.6849 752.722 39.6211 752.547 39.6211 752.337Z" fill="black"/>
<rect x="11" y="312" width="5" height="53.1429" fill="url(#paint0_linear)"/>
<path d="M13.5 372L6.13879 359.25L20.8612 359.25L13.5 372Z" fill="#FF0000"/>
<defs>
<linearGradient id="paint0_linear" x1="13.5" y1="312" x2="13.5" y2="365.143" gradientUnits="userSpaceOnUse">
<stop stop-color="#FF0000" stop-opacity="0"/>
<stop offset="0.546875" stop-color="#FF0000"/>
</linearGradient>
</defs>
</svg>
