<svg width="315" height="372" viewBox="0 0 315 372" fill="none" xmlns="http://www.w3.org/2000/svg">
<mask id="path-1-inside-1" fill="white">
<path d="M285 330L280.014 323.385H159V298.413H187.554V275.43H210.537V129.839H180.381V74.4862H210.537V0H314V274.484H292.39V304.397L312.833 330"/>
</mask>
<path d="M285 330L280.014 323.385H159V298.413H187.554V275.43H210.537V129.839H180.381V74.4862H210.537V0H314V274.484H292.39V304.397L312.833 330" fill="white"/>
<path d="M280.014 323.385L282.41 321.579L281.51 320.385H280.014V323.385ZM159 323.385H156V326.385H159V323.385ZM159 298.413V295.413H156V298.413H159ZM187.554 298.413V301.413H190.554V298.413H187.554ZM187.554 275.43V272.43H184.554V275.43H187.554ZM210.537 275.43V278.43H213.537V275.43H210.537ZM210.537 129.839H213.537V126.839H210.537V129.839ZM180.381 129.839H177.381V132.839H180.381V129.839ZM180.381 74.4862V71.4862H177.381V74.4862H180.381ZM210.537 74.4862V77.4862H213.537V74.4862H210.537ZM210.537 0V-3H207.537V0H210.537ZM314 0H317V-3H314V0ZM314 274.484V277.484H317V274.484H314ZM292.39 274.484V271.484H289.39V274.484H292.39ZM292.39 304.397H289.39V305.447L290.046 306.269L292.39 304.397ZM287.396 328.194L282.41 321.579L277.618 325.19L282.604 331.806L287.396 328.194ZM280.014 320.385H159V326.385H280.014V320.385ZM162 323.385V298.413H156V323.385H162ZM159 301.413H187.554V295.413H159V301.413ZM190.554 298.413V275.43H184.554V298.413H190.554ZM187.554 278.43H210.537V272.43H187.554V278.43ZM213.537 275.43V129.839H207.537V275.43H213.537ZM210.537 126.839H180.381V132.839H210.537V126.839ZM183.381 129.839V74.4862H177.381V129.839H183.381ZM180.381 77.4862H210.537V71.4862H180.381V77.4862ZM213.537 74.4862V0H207.537V74.4862H213.537ZM210.537 3H314V-3H210.537V3ZM311 0V274.484H317V0H311ZM314 271.484H292.39V277.484H314V271.484ZM289.39 274.484V304.397H295.39V274.484H289.39ZM290.046 306.269L310.489 331.872L315.177 328.128L294.735 302.525L290.046 306.269Z" fill="black" mask="url(#path-1-inside-1)"/>
<path d="M251.266 85.0732H241.75V120.109H251.266V85.0732Z" fill="#C4C4C4"/>
<path d="M276.806 85.0732H267.29V120.109H276.806V85.0732Z" fill="#C4C4C4"/>
<path d="M216.27 6.59766V78.1528H283.068V120.11H308.179V6.59766H216.27Z" fill="#DAC452"/>
<path d="M276.745 127.339H253.107V140.192H276.745V127.339Z" fill="black"/>
<path d="M188.431 304.115H164.794V316.967H188.431V304.115Z" fill="black"/>
<path d="M265.448 85.0732H253.107V120.109H265.448V85.0732Z" fill="black"/>
<path d="M239.908 85.0732H186.002V120.109H239.908V85.0732Z" fill="#C4C4C4"/>
<path d="M235.118 127.339H216.085V146.494H235.118V127.339Z" fill="black"/>
<path d="M213.016 281.634H193.983V300.789H213.016V281.634Z" fill="black"/>
<path d="M235.118 150.388H216.085V172.324H235.118V150.388Z" fill="#DAC452"/>
<path d="M235.118 175.413H216.085V197.349H235.118V175.413Z" fill="#DAC452"/>
<path d="M235.118 226.454H216.085V248.39H235.118V226.454Z" fill="#DAC452"/>
<path d="M277.033 186.148H258V208.085H277.033V186.148Z" fill="#DAC452"/>
<path d="M277.033 150.148H258V172.085H277.033V150.148Z" fill="#DAC452"/>
<path d="M277 226.148H258V273.148H277V226.148Z" fill="#DAC452"/>
<path d="M235.118 200.439H216.085V217.803H235.118V200.439Z" fill="black"/>
<path d="M235.118 251.479H216.085V273.416H235.118V251.479Z" fill="#DAC452"/>
<path d="M258 301.148H235V317.148H258V301.148Z" fill="#DAC452"/>
<path d="M308.179 150.388H289.146V172.324H308.179V150.388Z" fill="#DAC452"/>
<path d="M308 123.148H289V147.148H308V123.148Z" fill="#DAC452"/>
<path d="M308.179 175.413H289.146V197.349H308.179V175.413Z" fill="#DAC452"/>
<path d="M308.179 200.439H289.146V222.376H308.179V200.439Z" fill="#DAC452"/>
<path d="M308.179 240.479H289.146V268.409H308.179V240.479Z" fill="#00AC8D"/>
<path d="M205.666 288.307C206.034 288.307 206.341 287.998 206.341 287.627C206.341 287.256 206.034 286.947 205.666 286.947C205.297 286.947 204.99 287.256 204.99 287.627C204.99 287.998 205.297 288.307 205.666 288.307Z" fill="white"/>
<path d="M205.543 292.694V295.103C205.543 295.536 204.929 295.536 204.929 295.103V292.694H204.07L204.991 289.48H204.868L204.315 291.272C204.193 291.643 203.64 291.52 203.763 291.087L204.377 289.11C204.438 288.862 204.745 288.492 205.236 288.492H205.666H206.157C206.648 288.492 206.955 288.924 207.017 289.11L207.631 291.087C207.754 291.52 207.201 291.705 207.078 291.272L206.526 289.48H206.341L207.262 292.694H206.403V295.103C206.403 295.536 205.789 295.536 205.789 295.103V292.694H205.543Z" fill="white"/>
<path d="M200.412 288.492C199.921 288.492 199.553 288.862 199.553 289.419V291.52C199.553 291.952 200.167 291.952 200.167 291.52V289.604H200.289V294.98C200.289 295.536 201.088 295.536 201.088 294.98V291.828H201.21V294.98C201.21 295.536 202.009 295.536 202.009 294.98V289.604H202.131V291.52C202.131 291.952 202.745 291.952 202.745 291.52V289.419C202.745 288.986 202.377 288.492 201.886 288.492H200.412Z" fill="white"/>
<path d="M201.087 288.307C201.46 288.307 201.763 288.002 201.763 287.627C201.763 287.252 201.46 286.947 201.087 286.947C200.714 286.947 200.412 287.252 200.412 287.627C200.412 288.002 200.714 288.307 201.087 288.307Z" fill="white"/>
<path d="M227.829 134.013C228.198 134.013 228.505 133.704 228.505 133.333C228.505 132.962 228.198 132.653 227.829 132.653C227.461 132.653 227.154 132.962 227.154 133.333C227.154 133.704 227.461 134.013 227.829 134.013Z" fill="white"/>
<path d="M227.707 138.4V140.81C227.707 141.243 227.093 141.243 227.093 140.81V138.4H226.233L227.154 135.187H227.031L226.479 136.979C226.356 137.35 225.804 137.226 225.926 136.794L226.54 134.816C226.602 134.569 226.909 134.198 227.4 134.198H227.83H228.321C228.812 134.198 229.119 134.631 229.18 134.816L229.794 136.794C229.917 137.226 229.365 137.411 229.242 136.979L228.689 135.187H228.505L229.426 138.4H228.566V140.81C228.566 141.243 227.952 141.243 227.952 140.81V138.4H227.707Z" fill="white"/>
<path d="M222.576 134.26C222.085 134.26 221.716 134.631 221.716 135.187V137.288C221.716 137.72 222.33 137.72 222.33 137.288V135.372H222.453V140.748C222.453 141.304 223.251 141.304 223.251 140.748V137.597H223.374V140.748C223.374 141.304 224.172 141.304 224.172 140.748V135.372H224.295V137.288C224.295 137.72 224.909 137.72 224.909 137.288V135.187C224.909 134.754 224.541 134.26 224.049 134.26H222.576Z" fill="white"/>
<path d="M223.251 134.013C223.624 134.013 223.926 133.708 223.926 133.333C223.926 132.958 223.624 132.653 223.251 132.653C222.878 132.653 222.576 132.958 222.576 133.333C222.576 133.708 222.878 134.013 223.251 134.013Z" fill="white"/>
<path d="M262.869 106.021V100.707C262.869 100.151 262.44 99.7183 261.887 99.7183H256.607C256.054 99.7183 255.625 100.151 255.625 100.707V106.021C255.625 106.577 256.054 107.01 256.607 107.01H261.887C262.44 106.948 262.869 106.577 262.869 106.021ZM262.071 106.145H256.423V100.522H262.071V106.145Z" fill="white"/>
<path d="M260.168 96.2575C260.168 95.825 260.782 95.825 260.782 96.2575V97.9877L261.089 97.6169C261.334 97.3698 261.702 97.7405 261.457 97.9877L260.659 98.9146C260.536 99.0382 260.352 99.0382 260.229 98.9146L259.431 97.9877C259.185 97.6787 259.615 97.3698 259.799 97.6169L260.106 98.0495L260.168 96.2575Z" fill="white"/>
<path d="M257.773 98.7317C257.773 99.1642 258.387 99.1642 258.387 98.7317V97.0015L258.694 97.3723C258.94 97.6194 259.308 97.2487 259.062 97.0015L258.264 96.0746C258.141 95.951 257.957 95.951 257.834 96.0746L257.036 97.0015C256.791 97.3105 257.221 97.6194 257.405 97.3723L257.712 96.9397L257.773 98.7317Z" fill="white"/>
<path d="M260.905 102.189H259.861C259.738 102.189 259.615 102.313 259.615 102.437V103.734C259.615 103.858 259.677 103.92 259.799 103.92C259.799 103.92 259.861 103.92 259.922 103.92V105.588C259.922 105.897 260.352 105.897 260.352 105.588V103.92H260.413V105.588C260.413 105.897 260.843 105.897 260.843 105.588V103.92C260.905 103.92 260.966 103.92 260.966 103.92C261.089 103.92 261.15 103.858 261.15 103.734V102.437C261.15 102.313 261.027 102.189 260.905 102.189Z" fill="white"/>
<path d="M260.351 102.066C260.521 102.066 260.658 101.928 260.658 101.757C260.658 101.587 260.521 101.448 260.351 101.448C260.182 101.448 260.044 101.587 260.044 101.757C260.044 101.928 260.182 102.066 260.351 102.066Z" fill="white"/>
<path d="M258.695 102.189H257.651C257.528 102.189 257.405 102.313 257.405 102.437V103.734C257.405 103.858 257.467 103.92 257.589 103.92C257.589 103.92 257.651 103.92 257.712 103.92V105.588C257.712 105.897 258.142 105.897 258.142 105.588V103.92H258.203V105.588C258.203 105.897 258.633 105.897 258.633 105.588V103.92C258.695 103.92 258.756 103.92 258.756 103.92C258.879 103.92 258.94 103.858 258.94 103.734V102.437C258.94 102.313 258.817 102.189 258.695 102.189Z" fill="white"/>
<path d="M258.141 102.066C258.311 102.066 258.448 101.928 258.448 101.757C258.448 101.587 258.311 101.448 258.141 101.448C257.972 101.448 257.834 101.587 257.834 101.757C257.834 101.928 257.972 102.066 258.141 102.066Z" fill="white"/>
<path d="M229.224 213.663V208.349C229.224 207.793 228.794 207.36 228.242 207.36H222.962C222.409 207.36 221.979 207.793 221.979 208.349V213.663C221.979 214.219 222.409 214.652 222.962 214.652H228.242C228.794 214.652 229.224 214.219 229.224 213.663ZM228.426 213.849H222.778V208.225H228.426V213.849Z" fill="white"/>
<path d="M226.523 203.962C226.523 203.529 227.137 203.529 227.137 203.962V205.692L227.444 205.321C227.689 205.074 228.057 205.445 227.812 205.692L227.014 206.619C226.891 206.742 226.707 206.742 226.584 206.619L225.786 205.692C225.54 205.383 225.97 205.074 226.154 205.321L226.461 205.754L226.523 203.962Z" fill="white"/>
<path d="M224.128 206.371C224.128 206.804 224.742 206.804 224.742 206.371V204.641L225.049 205.012C225.295 205.259 225.663 204.888 225.417 204.641L224.619 203.714C224.496 203.591 224.312 203.591 224.189 203.714L223.391 204.641C223.146 204.95 223.575 205.259 223.76 205.012L224.067 204.579L224.128 206.371Z" fill="white"/>
<path d="M227.26 209.893H226.216C226.093 209.893 225.97 210.016 225.97 210.14V211.437C225.97 211.561 226.032 211.623 226.154 211.623C226.154 211.623 226.216 211.623 226.277 211.623V213.291C226.277 213.6 226.707 213.6 226.707 213.291V211.623H226.768V213.291C226.768 213.6 227.198 213.6 227.198 213.291V211.623C227.26 211.623 227.321 211.623 227.321 211.623C227.444 211.623 227.505 211.561 227.505 211.437V210.14C227.505 209.954 227.382 209.893 227.26 209.893Z" fill="white"/>
<path d="M226.769 209.769C226.938 209.769 227.076 209.631 227.076 209.46C227.076 209.29 226.938 209.151 226.769 209.151C226.599 209.151 226.462 209.29 226.462 209.46C226.462 209.631 226.599 209.769 226.769 209.769Z" fill="white"/>
<path d="M225.05 209.893H224.006C223.883 209.893 223.76 210.016 223.76 210.14V211.437C223.76 211.561 223.822 211.623 223.944 211.623C223.944 211.623 224.006 211.623 224.067 211.623V213.291C224.067 213.6 224.497 213.6 224.497 213.291V211.623H224.558V213.291C224.558 213.6 224.988 213.6 224.988 213.291V211.623C225.05 211.623 225.111 211.623 225.111 211.623C225.234 211.623 225.295 211.561 225.295 211.437V210.14C225.295 209.954 225.172 209.893 225.05 209.893Z" fill="white"/>
<path d="M224.496 209.769C224.666 209.769 224.803 209.631 224.803 209.46C224.803 209.29 224.666 209.151 224.496 209.151C224.327 209.151 224.189 209.29 224.189 209.46C224.189 209.631 224.327 209.769 224.496 209.769Z" fill="white"/>
<path d="M294.427 255.338H295.962V253.731H297.497V252.125H299.032V250.58H300.628V249.035H302.9V249.838H301.365V251.383H299.83V252.928H298.295V254.535H296.699V256.141H294.427V255.338Z" fill="white"/>
<path d="M175.845 308.008C176.214 308.008 176.521 307.699 176.521 307.328C176.521 306.957 176.214 306.648 175.845 306.648C175.477 306.648 175.17 306.957 175.17 307.328C175.17 307.699 175.477 308.008 175.845 308.008Z" fill="white"/>
<path d="M180.389 307.39H178.854C178.547 307.39 178.117 307.513 177.871 307.76L176.459 309.182V308.749C176.459 307.884 175.17 307.884 175.17 308.749V310.417L173.942 311.653C173.819 311.777 173.819 311.777 173.574 311.777H172.837C172.1 311.777 171.609 312.457 171.609 313.013C171.609 313.569 172.039 314.31 172.898 314.31C172.898 314.31 173.942 314.31 174.249 314.31C174.556 314.31 174.924 314.187 175.231 313.878L179.099 309.985C179.161 309.923 179.222 309.861 179.345 309.861C179.345 309.861 179.897 309.861 180.327 309.861C180.818 309.861 181.432 309.305 181.432 308.564C181.555 307.884 180.88 307.39 180.389 307.39ZM180.327 309.243H179.529C179.161 309.243 179.038 309.305 178.854 309.491L174.924 313.445C174.74 313.631 174.556 313.692 174.31 313.692H173.021C172.714 313.692 172.407 313.383 172.407 313.013C172.407 312.642 172.714 312.457 172.96 312.457H173.819C174.065 312.457 174.249 312.395 174.372 312.209L178.362 308.193C178.547 308.008 178.669 308.008 178.976 308.008H180.327C180.634 308.008 180.88 308.378 180.88 308.625C180.88 308.873 180.695 309.243 180.327 309.243Z" fill="white"/>
<path d="M264.158 131.231C264.527 131.231 264.834 130.923 264.834 130.552C264.834 130.181 264.527 129.872 264.158 129.872C263.79 129.872 263.483 130.181 263.483 130.552C263.544 130.923 263.79 131.231 264.158 131.231Z" fill="white"/>
<path d="M268.701 130.613H267.167C266.86 130.613 266.43 130.737 266.184 130.984L264.772 132.405V131.973C264.772 131.108 263.483 131.108 263.483 131.973V133.641L262.255 134.877C262.132 135.001 262.132 135.001 261.887 135.001H261.15C260.413 135.001 259.922 135.68 259.922 136.236C259.922 136.792 260.352 137.534 261.211 137.534C261.211 137.534 262.255 137.534 262.562 137.534C262.869 137.534 263.237 137.41 263.544 137.101L267.412 133.209C267.474 133.147 267.535 133.085 267.658 133.085C267.658 133.085 268.21 133.085 268.64 133.085C269.131 133.085 269.745 132.529 269.745 131.787C269.868 131.108 269.193 130.613 268.701 130.613ZM268.64 132.529H267.842C267.474 132.529 267.351 132.591 267.167 132.776L263.237 136.731C263.053 136.916 262.869 136.978 262.623 136.978H261.334C261.027 136.978 260.72 136.669 260.72 136.298C260.72 135.927 261.027 135.742 261.273 135.742H262.132C262.378 135.742 262.562 135.68 262.685 135.495L266.675 131.478C266.86 131.293 266.982 131.293 267.289 131.293H268.64C268.947 131.293 269.193 131.664 269.193 131.911C269.193 132.158 269.07 132.529 268.64 132.529Z" fill="white"/>
<path d="M178.026 10.1484H182.941V8.88068H179.564V7.14418H182.675V5.87642H179.564V4.14347H182.927V2.87571H178.026V10.1484ZM185.403 10.1484L185.943 8.49006H188.567L189.107 10.1484H190.754L188.247 2.87571H186.266L183.755 10.1484H185.403ZM186.333 7.28977L187.228 4.53764H187.285L188.18 7.28977H186.333ZM195.409 4.96733H196.883C196.861 3.67116 195.796 2.77628 194.177 2.77628C192.582 2.77628 191.414 3.65696 191.421 4.97798C191.417 6.05043 192.174 6.66477 193.403 6.95952L194.194 7.15838C194.986 7.35014 195.427 7.57741 195.43 8.06747C195.427 8.60014 194.922 8.96236 194.141 8.96236C193.342 8.96236 192.767 8.59304 192.717 7.86506H191.229C191.268 9.43821 192.394 10.2514 194.159 10.2514C195.935 10.2514 196.979 9.4027 196.982 8.07102C196.979 6.86009 196.066 6.21733 194.802 5.93324L194.148 5.77699C193.516 5.63139 192.987 5.39702 192.998 4.875C192.998 4.40625 193.413 4.06179 194.166 4.06179C194.901 4.06179 195.352 4.3956 195.409 4.96733ZM197.739 4.14347H199.966V10.1484H201.486V4.14347H203.712V2.87571H197.739V4.14347ZM167.466 16.1435H169.693V22.1484H171.212V16.1435H173.439V14.8757H167.466V16.1435ZM180.784 18.5121C180.784 16.1328 179.306 14.7763 177.378 14.7763C175.439 14.7763 173.973 16.1328 173.973 18.5121C173.973 20.8807 175.439 22.2479 177.378 22.2479C179.306 22.2479 180.784 20.8913 180.784 18.5121ZM179.225 18.5121C179.225 20.0533 178.493 20.8878 177.378 20.8878C176.259 20.8878 175.531 20.0533 175.531 18.5121C175.531 16.9709 176.259 16.1364 177.378 16.1364C178.493 16.1364 179.225 16.9709 179.225 18.5121ZM183.286 22.1484H184.785L186.166 17.3935H186.223L187.608 22.1484H189.107L191.188 14.8757H189.508L188.304 19.9396H188.24L186.916 14.8757H185.477L184.149 19.929H184.089L182.885 14.8757H181.205L183.286 22.1484ZM192.011 22.1484H196.925V20.8807H193.548V19.1442H196.659V17.8764H193.548V16.1435H196.911V14.8757H192.011V22.1484ZM198.134 22.1484H199.671V19.5703H200.793L202.171 22.1484H203.869L202.324 19.3217C203.151 18.9666 203.609 18.2457 203.609 17.2514C203.609 15.8061 202.654 14.8757 201.003 14.8757H198.134V22.1484ZM199.671 18.3345V16.1328H200.708C201.596 16.1328 202.026 16.527 202.026 17.2514C202.026 17.9723 201.596 18.3345 200.715 18.3345H199.671Z" fill="black"/>
<path d="M2.78125 43H16.4531C23.6406 43 27.4688 39.25 27.4688 34.1562C27.4688 29.4219 24.0781 26.5625 20.4375 26.3906V26.0781C23.7656 25.3281 26.2188 22.9687 26.2188 19.2031C26.2188 14.4062 22.6563 11 15.5937 11H2.78125V43ZM9.54688 37.4687V28.9687H15.2188C18.4688 28.9687 20.4844 30.8438 20.4844 33.4844C20.4844 35.8906 18.8438 37.4687 15.0625 37.4687H9.54688ZM9.54688 24.3906V16.4687H14.6875C17.6875 16.4687 19.3906 18.0156 19.3906 20.3281C19.3906 22.8594 17.3281 24.3906 14.5625 24.3906H9.54688ZM31.6836 43H54.4961V37.4687H41.0586V37.25L45.7305 32.6719C52.3086 26.6719 54.0742 23.6719 54.0742 20.0312C54.0742 14.4844 49.543 10.5625 42.6836 10.5625C35.9648 10.5625 31.3555 14.5781 31.3711 20.8594H37.793C37.7773 17.7969 39.7148 15.9219 42.6367 15.9219C45.4492 15.9219 47.543 17.6719 47.543 20.4844C47.543 23.0312 45.9805 24.7812 43.0742 27.5781L31.6836 38.125V43Z" fill="black"/>
<path d="M237.497 47.2884C238.527 47.2884 239.397 46.8884 239.897 46.3984V43.0584H237.267V44.2684H238.577V45.7284C238.367 45.9084 238.007 46.0084 237.647 46.0084C236.197 46.0084 235.457 45.0384 235.457 43.4284C235.457 41.8384 236.317 40.8784 237.547 40.8784C238.217 40.8784 238.637 41.1484 238.997 41.4984L239.787 40.5584C239.307 40.0684 238.567 39.6084 237.497 39.6084C235.527 39.6084 233.947 41.0384 233.947 43.4784C233.947 45.9484 235.477 47.2884 237.497 47.2884ZM241.485 47.1484H243.595C245.775 47.1484 247.175 45.9084 247.175 43.4184C247.175 40.9184 245.775 39.7484 243.515 39.7484H241.485V47.1484ZM242.965 45.9584V40.9284H243.425C244.805 40.9284 245.665 41.6084 245.665 43.4184C245.665 45.2184 244.805 45.9584 243.425 45.9584H242.965ZM250.104 40.9184H251.064C252.014 40.9184 252.534 41.1884 252.534 41.9884C252.534 42.7784 252.014 43.1784 251.064 43.1784H250.104V40.9184ZM254.304 47.1484L252.574 44.1184C253.424 43.7884 253.984 43.0984 253.984 41.9884C253.984 40.2884 252.754 39.7484 251.204 39.7484H248.624V47.1484H250.104V44.3484H251.134L252.654 47.1484H254.304ZM259.696 44.8184C259.006 44.8184 258.546 44.0884 258.546 42.7184C258.546 41.3584 259.006 40.6284 259.696 40.6284C260.376 40.6284 260.846 41.3584 260.846 42.7184C260.846 44.0884 260.376 44.8184 259.696 44.8184ZM259.696 39.4384C258.296 39.4384 257.276 40.6984 257.276 42.7184C257.276 44.7484 258.296 46.0184 259.696 46.0184C261.086 46.0184 262.116 44.7484 262.116 42.7184C262.116 40.6984 261.086 39.4384 259.696 39.4384ZM265.776 42.2684H264.436V38.7984H263.116V48.0084H264.436V43.3584H265.776V42.2684ZM266.955 39.6784V40.7284H269.875C269.845 41.1684 269.775 41.5684 269.685 41.9484L266.465 42.1384L266.635 43.2584L269.305 42.9984C268.785 44.0084 267.895 44.8684 266.385 45.6184L267.085 46.6384C270.515 44.8884 271.185 42.5184 271.185 39.6784H266.955ZM274.925 42.3084H273.635V38.7884H272.315V47.9884H273.635V43.3984H274.925V42.3084ZM277.194 40.8884H279.404V39.8384H275.894V45.9584H276.524C277.874 45.9584 278.784 45.9184 279.814 45.7184L279.704 44.6384C278.894 44.7984 278.154 44.8584 277.194 44.8784V40.8884ZM280.374 42.1584H278.774V43.2284H280.374V47.5984H281.604V38.9684H280.374V42.1584ZM282.284 38.7884V47.9984H283.534V38.7884H282.284ZM285.274 39.6284V45.8184H289.704V39.6284H285.274ZM288.404 40.6684V44.7784H286.574V40.6684H288.404ZM291.134 38.7984V48.0284H292.454V38.7984H291.134Z" fill="black"/>
<path d="M296.984 133.752H296.496C296.62 133.152 296.62 132.724 296.62 132.344V132.012H294.04V132.432H296.112C296.112 132.552 296.112 132.676 296.104 132.808L293.92 132.876L293.98 133.324L296.068 133.216C296.048 133.38 296.02 133.56 295.976 133.752H293.656V134.18H295.052V135.484H295.58V134.18H296.984V133.752ZM300.472 131.808H299.972V134.548H300.472V131.808ZM297.816 133.004C297.816 132.7 297.972 132.528 298.188 132.528C298.404 132.528 298.56 132.7 298.56 133.004C298.56 133.304 298.404 133.48 298.188 133.48C297.972 133.48 297.816 133.304 297.816 133.004ZM299.24 133.228V134.44H299.732V131.872H299.24V132.804H299.012C298.936 132.372 298.612 132.076 298.188 132.076C297.7 132.076 297.344 132.46 297.344 133.004C297.344 133.552 297.7 133.936 298.188 133.936C298.604 133.936 298.924 133.652 299.008 133.228H299.24ZM298.52 135.008V134.2H297.992V135.428H300.564V135.008H298.52ZM301.348 134.092C301.988 133.976 302.448 133.652 302.68 133.216C302.912 133.644 303.38 133.96 304.028 134.072L304.228 133.656C303.396 133.532 302.96 133.044 302.956 132.536H304.064V132.12H301.288V132.536H302.396C302.392 133.044 301.956 133.544 301.144 133.672L301.348 134.092ZM301.012 134.624V135.052H304.348V134.624H301.012ZM296.876 139.212H296.152V138.396H296.876V139.212ZM298.056 136.804V138.1H297.396V137.096H296.876V137.984H296.152V137.096H295.628V139.632H297.396V138.524H298.056V140.5H298.584V136.804H298.056ZM302.228 136.808H301.7V139.252H302.228V136.808ZM299.42 137.04V137.46H300.584C300.572 137.564 300.552 137.672 300.52 137.768L299.232 137.812L299.308 138.224L300.3 138.148C300.092 138.396 299.748 138.604 299.228 138.756L299.432 139.172C300.68 138.78 301.14 138.084 301.14 137.04H299.42ZM301.256 139.032H300.712V139.104C300.712 139.528 300.34 139.948 299.54 140.064L299.744 140.48C300.34 140.38 300.764 140.116 300.984 139.756C301.196 140.112 301.608 140.372 302.188 140.472L302.396 140.06C301.612 139.944 301.256 139.532 301.256 139.104V139.032Z" fill="black"/>
<path d="M296.992 157.696V158.124H297.544V159H298.072V156.808H297.544V157.696H296.992ZM297.212 158.488C296.652 158.304 296.396 157.872 296.38 157.452H297.096V157.028H295.116V157.452H295.84C295.824 157.912 295.556 158.38 294.972 158.584L295.24 159C295.668 158.856 295.96 158.556 296.12 158.184C296.28 158.508 296.556 158.768 296.956 158.9L297.212 158.488ZM296.828 160.096C296.344 160.096 296.092 159.996 296.092 159.788C296.092 159.58 296.344 159.48 296.828 159.48C297.308 159.48 297.56 159.58 297.56 159.788C297.56 159.996 297.308 160.096 296.828 160.096ZM296.828 159.08C296.044 159.08 295.564 159.34 295.564 159.788C295.564 160.236 296.044 160.496 296.828 160.496C297.608 160.496 298.088 160.236 298.088 159.788C298.088 159.34 297.608 159.08 296.828 159.08ZM300.336 156.864C299.52 156.864 299.004 157.128 299.004 157.564C299.004 158 299.52 158.26 300.336 158.26C301.152 158.26 301.672 158 301.672 157.564C301.672 157.128 301.152 156.864 300.336 156.864ZM300.336 157.264C300.844 157.264 301.128 157.36 301.128 157.564C301.128 157.764 300.844 157.86 300.336 157.86C299.832 157.86 299.548 157.764 299.548 157.564C299.548 157.36 299.832 157.264 300.336 157.264ZM299.06 159.056V160.448H301.604V159.056H301.076V159.344H299.584V159.056H299.06ZM299.584 159.74H301.076V160.036H299.584V159.74ZM298.672 158.452V158.872H302V158.452H298.672ZM294.453 161.808H293.953V164.28H294.453V161.808ZM291.789 162.952C291.789 162.664 291.941 162.492 292.161 162.492C292.381 162.492 292.533 162.664 292.533 162.952C292.533 163.24 292.381 163.408 292.161 163.408C291.941 163.408 291.789 163.24 291.789 162.952ZM293.237 162.744V163.172H292.977C292.989 163.1 292.997 163.032 292.997 162.956C292.997 162.88 292.989 162.812 292.977 162.744H293.237ZM293.237 163.592V163.928H293.729V161.88H293.237V162.324H292.777C292.629 162.156 292.413 162.056 292.161 162.056C291.677 162.056 291.325 162.424 291.325 162.952C291.325 163.484 291.677 163.852 292.161 163.852C292.409 163.852 292.621 163.756 292.769 163.592H293.237ZM293.445 164.092H292.917V164.188C292.917 164.568 292.541 164.968 291.745 165.072L291.937 165.48C292.529 165.396 292.957 165.148 293.181 164.812C293.405 165.148 293.833 165.396 294.425 165.48L294.621 165.072C293.825 164.968 293.445 164.568 293.445 164.188V164.092ZM297.064 162.952C296.572 163.048 296.104 163.08 295.668 163.088V161.968H295.14V163.528H295.452C295.968 163.528 296.524 163.492 297.124 163.372L297.064 162.952ZM295.992 164.796H297.892V163.776H295.46V164.192H297.364V164.408H295.464V165.448H297.996V165.036H295.992V164.796ZM297.892 162.496V161.804H297.364V163.628H297.892V162.924H298.38V162.496H297.892ZM298.904 162.02V162.436H300.044C299.968 162.924 299.508 163.328 298.692 163.532L298.892 163.944C299.988 163.664 300.608 163 300.608 162.02H298.904ZM299.816 164.432H301.212V165.036H299.816V164.432ZM299.296 165.448H301.732V164.016H299.296V165.448ZM301.2 161.812V163.86H301.732V161.812H301.2ZM303.704 163.284H302.98V162.836H303.704V163.284ZM304.224 161.988H303.704V162.432H302.98V161.988H302.46V163.7H304.224V161.988ZM304.728 165.032H303.368V164.716H304.728V165.032ZM304.728 164.308H303.368V163.988H302.848V165.452H305.252V163.988H304.728V164.308ZM305.74 162.584H305.252V161.808H304.724V163.832H305.252V163.016H305.74V162.584Z" fill="black"/>
<path d="M298.716 184.488C297.876 184.352 297.424 183.8 297.424 183.276V183.012H296.86V183.276C296.86 183.788 296.404 184.352 295.572 184.488L295.788 184.924C296.432 184.808 296.9 184.46 297.14 184.008C297.38 184.464 297.852 184.808 298.5 184.924L298.716 184.488ZM297.408 185.632V184.808H296.88V185.632H295.492V186.056H298.828V185.632H297.408ZM301.696 182.804V186.5H302.224V182.804H301.696ZM300.244 183.064C299.688 183.064 299.276 183.568 299.276 184.376C299.276 185.188 299.688 185.696 300.244 185.696C300.8 185.696 301.212 185.188 301.212 184.376C301.212 183.568 300.8 183.064 300.244 183.064ZM300.244 183.54C300.516 183.54 300.704 183.832 300.704 184.376C300.704 184.924 300.516 185.216 300.244 185.216C299.972 185.216 299.784 184.924 299.784 184.376C299.784 183.832 299.972 183.54 300.244 183.54ZM296.04 188.98C296.04 188.676 296.24 188.488 296.508 188.488C296.78 188.488 296.98 188.676 296.98 188.98C296.98 189.288 296.78 189.476 296.508 189.476C296.24 189.476 296.04 189.288 296.04 188.98ZM298.044 188.74V189.216H297.452C297.472 189.144 297.48 189.06 297.48 188.98C297.48 188.896 297.468 188.816 297.452 188.74H298.044ZM298.044 189.636V190.504H298.572V187.808H298.044V188.32H297.224C297.044 188.136 296.796 188.028 296.508 188.028C295.964 188.028 295.54 188.432 295.54 188.98C295.54 189.532 295.964 189.936 296.508 189.936C296.796 189.936 297.052 189.824 297.232 189.636H298.044ZM296.672 191.008V190.24H296.144V191.428H298.656V191.008H296.672ZM301.256 189.12C300.76 189.216 300.288 189.252 299.848 189.26V187.98H299.32V189.7H299.632C300.152 189.7 300.716 189.664 301.316 189.544L301.256 189.12ZM300.192 190.464H301.556V191.036H300.192V190.464ZM299.672 191.448H302.072V190.052H299.672V191.448ZM302.56 188.584H302.072V187.808H301.544V189.88H302.072V189.016H302.56V188.584Z" fill="black"/>
<path d="M296.824 210.828H297.556V210.408H296.828V209.896H296.3V210.408H295.552V210.828H296.3V210.956C296.3 211.508 296.024 212.132 295.428 212.408L295.712 212.812C296.124 212.628 296.408 212.256 296.568 211.816C296.72 212.224 296.988 212.568 297.38 212.748L297.66 212.348C297.084 212.072 296.824 211.476 296.824 210.956V210.828ZM298.912 211.24H298.376V209.812H297.848V213.492H298.376V211.676H298.912V211.24ZM299.708 210.748C299.708 210.492 299.904 210.336 300.18 210.336C300.456 210.336 300.652 210.492 300.652 210.748C300.652 211.008 300.456 211.164 300.18 211.164C299.904 211.164 299.708 211.008 299.708 210.748ZM301.16 210.748C301.16 210.264 300.744 209.912 300.18 209.912C299.62 209.912 299.2 210.264 299.2 210.748C299.2 211.24 299.62 211.588 300.18 211.588C300.744 211.588 301.16 211.24 301.16 210.748ZM300.168 212.8H302.072V211.792H299.64V212.2H301.552V212.42H299.644V213.448H302.176V213.04H300.168V212.8ZM302.072 210.516V209.808H301.544V211.648H302.072V210.948H302.556V210.516H302.072Z" fill="black"/>
<path d="M263.82 157.604H264.356V157.176H262.716V157.604H263.308V157.784C263.308 158.416 263.116 159.076 262.58 159.416L262.892 159.804C263.224 159.596 263.44 159.236 263.568 158.816C263.688 159.204 263.896 159.524 264.224 159.716L264.532 159.332C264 159.02 263.82 158.4 263.82 157.784V157.604ZM264.568 158.064H264.1V158.492H264.568V160.324H265.06V156.868H264.568V158.064ZM265.312 156.804V160.488H265.812V156.804H265.312ZM266.992 157.16H266.476V159.612H266.732C267.196 159.612 267.596 159.596 268.036 159.504L267.972 159.064C267.632 159.128 267.324 159.152 266.992 159.16V157.16ZM268.22 157.968H267.496V158.396H268.22V160.328H268.712V156.868H268.22V157.968ZM269 156.804V160.488H269.5V156.804H269ZM272.136 158.148C271.672 158.224 271.272 158.24 270.668 158.244V157.984H271.82V156.976H270.14V157.376H271.3V157.616H270.144V158.648H270.456C271.2 158.648 271.66 158.636 272.176 158.548L272.136 158.148ZM271.032 159.84H272.912V158.86H270.504V159.256H272.392V159.468H270.512V160.464H273.044V160.068H271.032V159.84ZM272.912 157.532V156.804H272.384V158.72H272.912V157.964H273.4V157.532H272.912ZM265.632 163.508H263.568V162.54H265.604V162.112H263.04V163.928H265.632V163.508ZM262.652 164.62V165.052H265.988V164.62H262.652ZM269.392 161.808H268.86V164.044H269.392V161.808ZM268.556 163.368C268.076 163.448 267.648 163.468 267.04 163.472V163.148H268.212V162.024H266.516V162.444H267.692V162.756H266.52V163.896H266.844C267.576 163.896 268.068 163.88 268.616 163.788L268.556 163.368ZM268.152 165.088C267.672 165.088 267.42 165 267.42 164.804C267.42 164.612 267.672 164.524 268.152 164.524C268.636 164.524 268.888 164.612 268.888 164.804C268.888 165 268.636 165.088 268.152 165.088ZM268.152 164.112C267.372 164.112 266.892 164.368 266.892 164.804C266.892 165.24 267.372 165.496 268.152 165.496C268.936 165.496 269.416 165.24 269.416 164.804C269.416 164.368 268.936 164.112 268.152 164.112ZM270.284 163.216L270.348 163.644L272.452 163.536C272.428 163.784 272.388 164.052 272.316 164.352L272.836 164.404C273.008 163.604 273.008 163.096 273.008 162.56V162.132H270.388V162.552H272.488V162.56C272.488 162.748 272.488 162.94 272.48 163.144L270.284 163.216ZM270.016 164.624V165.056H273.344V164.624H270.016Z" fill="black"/>
<path d="M218.279 158.792C218.759 158.792 219.067 158.936 219.067 159.2C219.067 159.468 218.759 159.612 218.279 159.612C217.795 159.612 217.487 159.468 217.487 159.2C217.487 158.936 217.795 158.792 218.279 158.792ZM218.279 160.032C219.063 160.032 219.611 159.708 219.611 159.2C219.611 158.7 219.063 158.372 218.279 158.372C217.491 158.372 216.947 158.7 216.947 159.2C216.947 159.708 217.491 160.032 218.279 160.032ZM219.955 160.308H216.619V160.732H218.011V161.936H218.539V160.732H219.955V160.308ZM221.127 160.688C220.927 160.688 220.807 160.412 220.807 159.844C220.807 159.28 220.927 159.004 221.127 159.004C221.331 159.004 221.447 159.28 221.447 159.844C221.447 160.412 221.331 160.688 221.127 160.688ZM222.211 159.604H221.919C221.859 158.916 221.563 158.508 221.127 158.508C220.639 158.508 220.331 159.012 220.331 159.844C220.331 160.68 220.639 161.184 221.127 161.184C221.575 161.184 221.875 160.752 221.923 160.032H222.211V161.768H222.703V158.308H222.211V159.604ZM222.959 158.244V161.928H223.459V158.244H222.959ZM225.911 161.092V160.252H226.963V159.832H224.883V158.528H224.355V160.252H225.383V161.092H223.979V161.52H227.315V161.092H225.911ZM228.142 160.372L228.602 159.636C228.686 159.476 228.766 159.312 228.838 159.156H228.854C228.846 159.328 228.83 159.596 228.83 159.768V160.372H228.142ZM229.73 160.372H229.378V158.628H228.674L227.57 160.42V160.82H228.83V161.588H229.378V160.82H229.73V160.372ZM230.014 161.588H231.998V161.092H231.354C231.218 161.092 231.022 161.108 230.874 161.124C231.414 160.596 231.858 160.02 231.858 159.484C231.858 158.932 231.486 158.572 230.926 158.572C230.522 158.572 230.258 158.732 229.986 159.02L230.306 159.34C230.454 159.176 230.634 159.036 230.85 159.036C231.13 159.036 231.294 159.216 231.294 159.516C231.294 159.972 230.818 160.528 230.014 161.248V161.588ZM232.525 161.588H234.305V161.112H233.749V158.628H233.313C233.125 158.744 232.921 158.82 232.625 158.876V159.24H233.161V161.112H232.525V161.588ZM219.689 165.66H218.949V164.844H219.689V165.66ZM219.689 164.432H218.949V163.54H218.425V166.08H220.213V163.54H219.689V164.432ZM221.733 164.62H221.197V163.252H220.669V166.932H221.197V165.06H221.733V164.62ZM224.516 163.244V166.94H225.044V163.244H224.516ZM223.064 163.504C222.508 163.504 222.096 164.008 222.096 164.816C222.096 165.628 222.508 166.136 223.064 166.136C223.62 166.136 224.032 165.628 224.032 164.816C224.032 164.008 223.62 163.504 223.064 163.504ZM223.064 163.98C223.336 163.98 223.524 164.272 223.524 164.816C223.524 165.364 223.336 165.656 223.064 165.656C222.792 165.656 222.604 165.364 222.604 164.816C222.604 164.272 222.792 163.98 223.064 163.98ZM228.54 165.68C228.688 164.896 228.688 164.376 228.688 163.916V163.564H226.012V163.984H228.16C228.16 164.412 228.152 164.924 228.012 165.62L228.54 165.68ZM227.38 166.064V164.796H226.852V166.064H225.676V166.488H229.008V166.064H227.38ZM230.42 165.6H229.948V164.04H230.42V165.6ZM231.264 164.584H230.908V163.624H229.456V166.012H230.908V165.012H231.264V166.764H231.756V163.304H231.264V164.584ZM232.012 163.244V166.928H232.512V163.244H232.012Z" fill="black"/>
<path d="M220.832 185.58V188.056H222.604V185.58H220.832ZM222.084 185.996V187.64H221.352V185.996H222.084ZM223.176 185.248V188.94H223.704V185.248H223.176ZM224.512 185.58V188.056H226.284V185.58H224.512ZM225.764 185.996V187.64H225.032V185.996H225.764ZM226.856 185.248V188.94H227.384V185.248H226.856ZM230.096 186.652C229.696 186.736 229.332 186.76 228.676 186.764V185.896H229.792V185.472H228.152V187.188H228.46C229.276 187.188 229.696 187.168 230.148 187.068L230.096 186.652ZM229.036 187.888H230.396V188.476H229.036V187.888ZM228.516 188.888H230.912V187.472H228.516V188.888ZM231.4 186.076H230.912V185.244H230.384V187.312H230.912V186.504H231.4V186.076Z" fill="black"/>
<path d="M221.824 237.196H221V236.804H220.468V237.196H219.652V237.608H221.82L221.824 237.196ZM220.336 238.448C220.336 238.248 220.5 238.14 220.736 238.14C220.968 238.14 221.136 238.248 221.136 238.448C221.136 238.652 220.968 238.76 220.736 238.76C220.5 238.76 220.336 238.652 220.336 238.448ZM221.64 238.448C221.64 238.032 221.264 237.74 220.736 237.74C220.208 237.74 219.832 238.032 219.832 238.448C219.832 238.872 220.208 239.16 220.736 239.16C221.264 239.16 221.64 238.872 221.64 238.448ZM220.704 239.36H220.176V240.428H222.684V240.008H220.704V239.36ZM222.552 237.932V236.808H222.024V239.564H222.552V238.368H223.04V237.932H222.552ZM226.668 238.656V238.236H226.204C226.276 237.844 226.276 237.536 226.276 237.26V236.964H223.744V237.388H225.756C225.756 237.632 225.744 237.9 225.676 238.236H223.332V238.656H224.732V239.176H223.668V239.592H225.752V240.492H226.284V239.176H225.26V238.656H226.668ZM229.308 238.356C228.748 238.192 228.476 237.812 228.448 237.424H229.172V237.008H227.168V237.424H227.904C227.876 237.84 227.608 238.24 227.024 238.412L227.288 238.828C227.72 238.696 228.016 238.42 228.184 238.076C228.352 238.392 228.636 238.644 229.052 238.764L229.308 238.356ZM229.548 240.028H228.148V239.704H229.548V240.028ZM229.548 239.3H228.148V238.964H227.624V240.448H230.072V238.964H229.548V239.3ZM229.54 236.812V238.808H230.072V236.812H229.54Z" fill="black"/>
<path d="M221.84 262.408C221.26 262.216 221.012 261.756 221.012 261.3V260.996H220.476V261.312C220.476 261.808 220.22 262.3 219.604 262.508L219.88 262.92C220.308 262.772 220.596 262.484 220.756 262.112C220.916 262.432 221.18 262.688 221.564 262.82L221.84 262.408ZM220.676 263.5H222.036V264.036H220.676V263.5ZM220.156 264.448H222.552V263.084H220.156V264.448ZM223.04 261.64H222.552V260.808H222.024V262.936H222.552V262.076H223.04V261.64ZM224.432 262.412H223.956V261.964H224.432V262.412ZM224.92 261.044H224.432V261.56H223.956V261.044H223.46V262.824H224.92V261.044ZM223.936 263.616H225.944V264.496H226.472V263.196H223.936V263.616ZM225.972 260.808V261.708H225.684V260.872H225.192V263.012H225.684V262.132H225.972V263.024H226.472V260.808H225.972ZM227.936 263.352H227.408V264.428H230.008V264.008H227.936V263.352ZM228.944 262.688V262.328H229.98V261.908H227.944V261.404H229.948V260.984H227.42V262.328H228.416V262.688H227.016V263.108H230.348V262.688H228.944Z" fill="black"/>
<path d="M261.189 247.572H261.569V249.196C261.441 249.2 261.313 249.204 261.189 249.208V247.572ZM262.077 247.572H262.393V247.148H260.361V247.572H260.677V249.22C260.533 249.22 260.393 249.22 260.265 249.22L260.321 249.652C260.949 249.652 261.785 249.636 262.533 249.504L262.501 249.12C262.365 249.14 262.221 249.148 262.077 249.16V247.572ZM263.733 248.2H263.197V246.812H262.669V250.496H263.197V248.636H263.733V248.2ZM266.516 246.804V250.5H267.044V246.804H266.516ZM265.064 247.064C264.508 247.064 264.096 247.568 264.096 248.376C264.096 249.188 264.508 249.696 265.064 249.696C265.62 249.696 266.032 249.188 266.032 248.376C266.032 247.568 265.62 247.064 265.064 247.064ZM265.064 247.54C265.336 247.54 265.524 247.832 265.524 248.376C265.524 248.924 265.336 249.216 265.064 249.216C264.792 249.216 264.604 248.924 264.604 248.376C264.604 247.832 264.792 247.54 265.064 247.54ZM268.68 249.216C268.412 249.216 268.232 248.924 268.232 248.376C268.232 247.832 268.412 247.54 268.68 247.54C268.952 247.54 269.132 247.832 269.132 248.376C269.132 248.924 268.952 249.216 268.68 249.216ZM270.236 246.804V248.132H269.62C269.548 247.468 269.176 247.064 268.68 247.064C268.132 247.064 267.728 247.568 267.728 248.376C267.728 249.188 268.132 249.696 268.68 249.696C269.192 249.696 269.568 249.264 269.624 248.56H270.236V250.5H270.764V246.804H270.236ZM274.492 246.812H273.992V248.708H274.492V246.812ZM272.452 248.188H271.976V247.8H272.452V248.188ZM272.94 247.996H273.244V248.688H273.736V246.872H273.244V247.58H272.94V247.008H272.452V247.412H271.976V247.012H271.48V248.592H272.94V247.996ZM272.524 250.064V249.84H274.492V248.856H271.988V249.26H273.964V249.46H271.996V250.464H274.608V250.064H272.524ZM261.061 252.564H262.313V252.136H260.533V254.624H260.857C261.641 254.624 262.109 254.608 262.609 254.512L262.561 254.076C262.117 254.16 261.705 254.18 261.061 254.184V252.564ZM262.837 251.808V255.504H263.365V251.808H262.837ZM265 254.216C264.732 254.216 264.552 253.924 264.552 253.376C264.552 252.832 264.732 252.54 265 252.54C265.272 252.54 265.452 252.832 265.452 253.376C265.452 253.924 265.272 254.216 265 254.216ZM266.556 251.804V253.132H265.94C265.868 252.468 265.496 252.064 265 252.064C264.452 252.064 264.048 252.568 264.048 253.376C264.048 254.188 264.452 254.696 265 254.696C265.512 254.696 265.888 254.264 265.944 253.56H266.556V255.5H267.084V251.804H266.556ZM270.54 254.24C270.688 253.456 270.688 252.936 270.688 252.476V252.124H268.012V252.544H270.16C270.16 252.972 270.152 253.484 270.012 254.18L270.54 254.24ZM269.38 254.624V253.356H268.852V254.624H267.676V255.048H271.008V254.624H269.38ZM272.42 254.16H271.948V252.6H272.42V254.16ZM273.264 253.144H272.908V252.184H271.456V254.572H272.908V253.572H273.264V255.324H273.756V251.864H273.264V253.144ZM274.012 251.804V255.488H274.512V251.804H274.012Z" fill="black"/>
<path d="M239.493 308.14V310.616H241.265V308.14H239.493ZM240.745 308.556V310.2H240.013V308.556H240.745ZM241.837 307.808V311.5H242.365V307.808H241.837ZM243.98 310.216C243.704 310.216 243.52 309.924 243.52 309.376C243.52 308.832 243.704 308.54 243.98 308.54C244.252 308.54 244.44 308.832 244.44 309.376C244.44 309.924 244.252 310.216 243.98 310.216ZM243.98 308.064C243.42 308.064 243.012 308.568 243.012 309.376C243.012 310.188 243.42 310.696 243.98 310.696C244.536 310.696 244.948 310.188 244.948 309.376C244.948 308.568 244.536 308.064 243.98 308.064ZM246.412 309.196H245.876V307.808H245.348V311.492H245.876V309.632H246.412V309.196ZM247.592 310.3H247.064V311.428H249.664V311.008H247.592V310.3ZM248.608 309.656V309.216H249.632V308.796H247.616V307.912H247.088V309.216H248.08V309.656H246.676V310.076H250.008V309.656H248.608ZM250.992 308.156H250.464V310.588H250.784C251.32 310.588 251.912 310.556 252.524 310.428L252.472 309.996C251.956 310.096 251.456 310.136 250.992 310.148V308.156ZM253.752 309.196H253.236V307.804H252.708V311.484H253.236V309.632H253.752V309.196Z" fill="black"/>
<path d="M293.937 261.48H294.465V258.808H293.937V259.62H293.509V260.04H293.937V261.48ZM293.781 260.592C293.353 260.328 293.249 259.844 293.249 259.38V259.056H292.877V259.06H292.757V259.384C292.757 259.712 292.713 260.08 292.513 260.368C292.313 260.08 292.269 259.704 292.269 259.384V259.06H292.149V259.056H291.773V259.38C291.773 259.828 291.669 260.32 291.241 260.592L291.525 260.964C291.769 260.812 291.925 260.576 292.021 260.3C292.109 260.588 292.261 260.84 292.513 261.008C292.765 260.844 292.917 260.596 293.005 260.308C293.097 260.584 293.253 260.816 293.497 260.964L293.781 260.592ZM292.433 262.008V261.232H291.905V262.428H294.545V262.008H292.433ZM295.908 261.256H295.38V262.428H297.992V262.008H295.908V261.256ZM297.844 260.568C297.936 260.06 297.936 259.684 297.936 259.32V258.972H295.404V259.392H297.416C297.416 259.5 297.416 259.608 297.412 259.724L295.3 259.768L295.36 260.192L297.384 260.108C297.368 260.252 297.348 260.4 297.312 260.568H294.992V260.988H298.324V260.568H297.844ZM298.84 259.184V259.612H300.044C299.948 260.428 299.492 261.012 298.636 261.452L298.932 261.856C300.156 261.236 300.576 260.288 300.576 259.184H298.84ZM302.072 260.212H301.556V258.804H301.028V262.484H301.556V260.648H302.072V260.212ZM305.32 259.908H303.284V259.36H305.292V258.94H302.76V260.328H305.32V259.908ZM303.276 261.324H302.748V262.428H305.348V262.008H303.276V261.324ZM302.356 260.628V261.048H305.688V260.628H302.356Z" fill="white"/>
<path d="M265.164 194.544H266.332V193.12H264.64V193.54H265.812V194.128H264.644V195.648H264.956C265.596 195.648 266.104 195.624 266.656 195.524L266.608 195.096C266.128 195.18 265.692 195.208 265.164 195.212V194.544ZM267.912 194.196H267.384V192.804H266.856V196.5H267.384V194.632H267.912V194.196ZM271.312 192.812H270.812V195.548H271.312V192.812ZM269.272 194.496H268.792V193.568H269.272V194.496ZM269.76 194.22H270.072V195.44H270.564V192.872H270.072V193.796H269.76V193.164H268.3V194.9H269.76V194.22ZM269.36 196.008V195.228H268.832V196.428H271.404V196.008H269.36ZM263.732 200.2H263.252V199.404H263.732V200.2ZM264.564 199.156H264.22V198.144H263.732V198.988H263.252V198.14H262.756V200.62H264.22V199.58H264.564V201.332H265.056V197.872H264.564V199.156ZM265.312 197.804V201.488H265.812V197.804H265.312ZM267.004 199.544H268.172V198.12H266.48V198.54H267.652V199.128H266.484V200.648H266.796C267.436 200.648 267.944 200.624 268.496 200.524L268.448 200.096C267.968 200.18 267.532 200.208 267.004 200.212V199.544ZM269.752 199.196H269.224V197.804H268.696V201.5H269.224V199.632H269.752V199.196ZM270.888 199.024H272.464V199.54H270.888V199.024ZM271.94 200.636V199.96H272.984V198.036H272.464V198.608H270.888V198.036H270.364V199.96H271.412V200.636H270.012V201.064H273.348V200.636H271.94Z" fill="black"/>
<path fill-rule="evenodd" clip-rule="evenodd" d="M284.789 143.432C288.317 142.822 291 139.756 291 136.065C291 131.935 287.642 128.588 283.5 128.588C279.358 128.588 276 131.935 276 136.065C276 139.756 278.683 142.822 282.211 143.432L283.5 148.588L284.789 143.432Z" fill="black"/>
<path fill-rule="evenodd" clip-rule="evenodd" d="M284.789 141.432C288.317 140.822 291 137.756 291 134.065C291 129.935 287.642 126.588 283.5 126.588C279.358 126.588 276 129.935 276 134.065C276 137.756 278.683 140.822 282.211 141.432L283.5 146.588L284.789 141.432Z" fill="#FF0000"/>
<ellipse cx="283.5" cy="134.065" rx="2.5" ry="2.49231" fill="white"/>
<path fill-rule="evenodd" clip-rule="evenodd" d="M248.789 247.432C252.317 246.822 255 243.756 255 240.065C255 235.935 251.642 232.588 247.5 232.588C243.358 232.588 240 235.935 240 240.065C240 243.756 242.683 246.822 246.211 247.432L247.5 252.588L248.789 247.432Z" fill="black"/>
<path fill-rule="evenodd" clip-rule="evenodd" d="M248.789 245.432C252.317 244.822 255 241.756 255 238.065C255 233.935 251.642 230.588 247.5 230.588C243.358 230.588 240 233.935 240 238.065C240 241.756 242.683 244.822 246.211 245.432L247.5 250.588L248.789 245.432Z" fill="#FF0000"/>
<ellipse cx="247.5" cy="238.065" rx="2.5" ry="2.49231" fill="white"/>
<path d="M247 224.588V180.856H283V153.588" stroke="#FF0000" stroke-width="3" stroke-linecap="round"/>
<path d="M6.426 363.14C4.438 363.14 3.276 362.65 3.276 361.768C3.276 360.886 4.438 360.396 6.426 360.396C8.386 360.396 9.548 360.886 9.548 361.768C9.548 362.65 8.386 363.14 6.426 363.14ZM6.426 359.5C3.738 359.5 2.114 360.312 2.114 361.768C2.114 363.224 3.738 364.036 6.426 364.036C9.086 364.036 10.71 363.224 10.71 361.768C10.71 360.312 9.086 359.5 6.426 359.5ZM7 357.68V356.224H10.78V355.3H3.318V352.976H10.696V352.052H2.17V356.224H5.852V357.68H0.742V358.604H12.11V357.68H7ZM23.9249 351.478H22.7769V357.918H23.9249V351.478ZM15.0209 354.726C15.0209 353.634 15.9309 352.864 17.1489 352.864C18.3809 352.864 19.2769 353.634 19.2769 354.726C19.2769 355.804 18.3809 356.574 17.1489 356.574C15.9309 356.574 15.0209 355.804 15.0209 354.726ZM20.3969 354.726C20.3969 353.06 19.0249 351.926 17.1489 351.926C15.2729 351.926 13.9149 353.06 13.9149 354.726C13.9149 356.378 15.2729 357.498 17.1489 357.498C19.0249 357.498 20.3969 356.378 20.3969 354.726ZM16.9529 362.958V361.572H23.9249V358.534H15.7909V359.444H22.7909V360.718H15.8189V363.868H24.3449V362.958H16.9529ZM33.9478 353.018H30.8118V351.478H29.6638V353.018H26.5418V353.942H33.9478V353.018ZM28.3338 356.966C28.3338 356.098 29.1038 355.538 30.2378 355.538C31.3718 355.538 32.1558 356.098 32.1558 356.966C32.1558 357.848 31.3718 358.408 30.2378 358.408C29.1038 358.408 28.3338 357.848 28.3338 356.966ZM33.2478 356.966C33.2478 355.566 32.0158 354.642 30.2378 354.642C28.4598 354.642 27.2418 355.566 27.2418 356.966C27.2418 358.38 28.4598 359.304 30.2378 359.304C32.0158 359.304 33.2478 358.38 33.2478 356.966ZM29.5798 360.158H28.4318V363.756H36.8038V362.818H29.5798V360.158ZM36.2438 355.622V351.478H35.0958V360.9H36.2438V356.588H38.0918V355.622H36.2438ZM43.8734 357.036C45.9454 356.826 47.7654 356.084 48.5354 354.852C49.2914 356.084 51.1254 356.826 53.1974 357.036L53.5474 356.154C51.1814 355.93 49.2634 354.992 49.1514 353.62H53.0434V352.71H49.1094V351.436H47.9614V352.71H44.0274V353.62H47.9054C47.7934 354.992 45.8614 355.93 43.5234 356.154L43.8734 357.036ZM48.5214 363.154C46.5334 363.154 45.3854 362.72 45.3854 361.936C45.3854 361.152 46.5334 360.704 48.5214 360.704C50.5094 360.704 51.6574 361.152 51.6574 361.936C51.6574 362.72 50.5094 363.154 48.5214 363.154ZM48.5214 359.85C45.8194 359.85 44.2234 360.578 44.2234 361.936C44.2234 363.294 45.8194 364.022 48.5214 364.022C51.2234 364.022 52.8194 363.294 52.8194 361.936C52.8194 360.578 51.2234 359.85 48.5214 359.85ZM42.8514 357.862V358.786H54.2054V357.862H42.8514ZM64.8863 351.492V358.226H66.0343V351.492H64.8863ZM57.9423 358.842V363.868H66.0343V358.842H64.9003V360.382H59.0763V358.842H57.9423ZM59.0763 361.278H64.9003V362.944H59.0763V361.278ZM59.2863 352.08C57.3963 352.08 56.0243 353.256 56.0243 354.964C56.0243 356.7 57.3963 357.862 59.2863 357.862C61.1903 357.862 62.5763 356.7 62.5763 354.964C62.5763 353.256 61.1903 352.08 59.2863 352.08ZM59.2863 353.032C60.5603 353.032 61.4563 353.83 61.4563 354.964C61.4563 356.112 60.5603 356.91 59.2863 356.91C58.0403 356.91 57.1443 356.112 57.1443 354.964C57.1443 353.83 58.0403 353.032 59.2863 353.032ZM70.5412 352.696H69.3932V360.788H70.4292C72.4312 360.788 74.4052 360.648 76.5892 360.2L76.4632 359.22C74.3772 359.64 72.4312 359.808 70.5412 359.808V352.696ZM77.7512 351.478V364.022H78.8992V351.478H77.7512ZM83.1681 353.634H87.8581V352.682H82.0201V360.928H83.0141C85.3801 360.928 87.0321 360.844 88.9501 360.48L88.8241 359.528C87.0041 359.85 85.3941 359.948 83.1681 359.948V353.634ZM93.2201 356.434H91.1481V351.478H90.0001V364.064H91.1481V357.386H93.2201V356.434ZM94.6094 362.337C94.6094 362.118 94.6732 361.936 94.8008 361.79C94.9329 361.644 95.1289 361.571 95.3887 361.571C95.6484 361.571 95.8444 361.644 95.9766 361.79C96.1133 361.936 96.1816 362.118 96.1816 362.337C96.1816 362.547 96.1133 362.722 95.9766 362.863C95.8444 363.005 95.6484 363.075 95.3887 363.075C95.1289 363.075 94.9329 363.005 94.8008 362.863C94.6732 362.722 94.6094 362.547 94.6094 362.337ZM106.011 353.718H108.965V352.766H101.951V353.718H104.863V355.314C104.863 357.484 103.337 359.85 101.531 360.704L102.203 361.628C103.631 360.9 104.863 359.318 105.437 357.484C106.039 359.206 107.271 360.648 108.727 361.32L109.371 360.396C107.523 359.612 106.011 357.442 106.011 355.314V353.718ZM110.659 351.492V364.036H111.807V351.492H110.659ZM120.668 361.502V358.282H124.49V357.358H117V353.424H124.364V352.486H115.852V358.282H119.506V361.502H114.396V362.454H125.806V361.502H120.668ZM131.363 352.402C129.417 352.402 128.003 353.592 128.003 355.356C128.003 357.106 129.417 358.31 131.363 358.31C133.323 358.31 134.723 357.106 134.723 355.356C134.723 353.592 133.323 352.402 131.363 352.402ZM131.363 353.382C132.665 353.382 133.603 354.18 133.603 355.356C133.603 356.518 132.665 357.33 131.363 357.33C130.075 357.33 129.123 356.518 129.123 355.356C129.123 354.18 130.075 353.382 131.363 353.382ZM136.375 351.478V364.064H137.523V351.478H136.375ZM127.513 361.306C129.781 361.306 132.819 361.278 135.647 360.76L135.549 359.906C132.805 360.326 129.655 360.34 127.373 360.34L127.513 361.306ZM144.998 355.454C144.998 354.222 145.922 353.354 147.154 353.354C148.386 353.354 149.31 354.222 149.31 355.454C149.31 356.686 148.386 357.554 147.154 357.554C145.922 357.554 144.998 356.686 144.998 355.454ZM150.43 355.454C150.43 353.634 149.03 352.36 147.154 352.36C145.278 352.36 143.878 353.634 143.878 355.454C143.878 357.274 145.278 358.548 147.154 358.548C149.03 358.548 150.43 357.274 150.43 355.454ZM146.72 359.78H145.572V363.756H153.944V362.818H146.72V359.78ZM153.384 355.3V351.478H152.236V360.718H153.384V356.252H155.232V355.3H153.384ZM158.283 353.004H157.135V360.774H157.933C159.291 360.774 160.733 360.704 162.427 360.382L162.315 359.388C160.817 359.682 159.487 359.766 158.283 359.78V353.004ZM166.067 351.478V356.588H164.289V351.758H163.211V363.392H164.289V357.54H166.067V364.022H167.173V351.478H166.067ZM175.082 363.14C173.094 363.14 171.932 362.65 171.932 361.768C171.932 360.886 173.094 360.396 175.082 360.396C177.042 360.396 178.204 360.886 178.204 361.768C178.204 362.65 177.042 363.14 175.082 363.14ZM175.082 359.5C172.394 359.5 170.77 360.312 170.77 361.768C170.77 363.224 172.394 364.036 175.082 364.036C177.742 364.036 179.366 363.224 179.366 361.768C179.366 360.312 177.742 359.5 175.082 359.5ZM175.656 357.68V356.224H179.436V355.3H171.974V352.976H179.352V352.052H170.826V356.224H174.508V357.68H169.398V358.604H180.766V357.68H175.656ZM191.461 360.872H192.623V351.492H191.461V354.432H188.717V355.384H191.461V360.872ZM189.613 357.904C187.807 357.232 186.575 355.58 186.575 353.83V352.234H185.427V353.788C185.427 355.706 184.167 357.484 182.291 358.17L182.893 359.08C184.363 358.492 185.483 357.302 186.015 355.804C186.547 357.162 187.625 358.24 189.011 358.786L189.613 357.904ZM185.693 362.818V359.836H184.545V363.756H192.917V362.818H185.693ZM200.826 352.262C198.222 352.262 196.262 353.648 196.262 355.734C196.262 357.834 198.222 359.206 200.826 359.206C203.43 359.206 205.39 357.834 205.39 355.734C205.39 353.648 203.43 352.262 200.826 352.262ZM200.826 353.2C202.814 353.2 204.298 354.222 204.298 355.734C204.298 357.26 202.814 358.268 200.826 358.268C198.852 358.268 197.354 357.26 197.354 355.734C197.354 354.222 198.852 353.2 200.826 353.2ZM195.142 361.418V362.37H206.552V361.418H195.142ZM214.293 361.544V359.178H218.311V358.254H210.583V356.224H218.017V352.402H209.421V353.34H216.897V355.3H209.449V359.178H213.131V361.544H208.021V362.482H219.431V361.544H214.293ZM233.515 351.478V364.064H234.663V351.478H233.515ZM228.041 352.444C226.179 352.444 224.849 354.152 224.849 356.826C224.849 359.5 226.179 361.208 228.041 361.208C229.903 361.208 231.233 359.5 231.233 356.826C231.233 354.152 229.903 352.444 228.041 352.444ZM228.041 353.48C229.259 353.48 230.127 354.796 230.127 356.826C230.127 358.87 229.259 360.186 228.041 360.186C226.809 360.186 225.941 358.87 225.941 356.826C225.941 354.796 226.809 353.48 228.041 353.48ZM242.949 363.14C240.961 363.14 239.799 362.65 239.799 361.768C239.799 360.886 240.961 360.396 242.949 360.396C244.909 360.396 246.071 360.886 246.071 361.768C246.071 362.65 244.909 363.14 242.949 363.14ZM242.949 359.5C240.261 359.5 238.637 360.312 238.637 361.768C238.637 363.224 240.261 364.036 242.949 364.036C245.609 364.036 247.233 363.224 247.233 361.768C247.233 360.312 245.609 359.5 242.949 359.5ZM243.523 357.68V356.224H247.303V355.3H239.841V352.976H247.219V352.052H238.693V356.224H242.375V357.68H237.265V358.604H248.633V357.68H243.523ZM253.826 360.284C252.692 360.284 251.866 359.472 251.866 358.352C251.866 357.218 252.692 356.406 253.826 356.406C254.974 356.406 255.8 357.218 255.8 358.352C255.8 359.472 254.974 360.284 253.826 360.284ZM253.826 355.454C252.062 355.454 250.788 356.658 250.788 358.352C250.788 360.06 252.062 361.236 253.826 361.236C255.618 361.236 256.892 360.06 256.892 358.352C256.892 356.658 255.618 355.454 253.826 355.454ZM254.386 351.632H253.238V353.494H250.074V354.418H257.48V353.494H254.386V351.632ZM261.876 356.644H259.818V351.492H258.67V364.036H259.818V357.61H261.876V356.644ZM266.747 352.668H265.641V355.062C265.641 357.218 264.605 359.472 262.883 360.48L263.597 361.334C264.843 360.564 265.753 359.15 266.201 357.484C266.649 359.01 267.489 360.34 268.679 361.068L269.337 360.172C267.685 359.164 266.747 357.036 266.747 355.02V352.668ZM270.051 355.986H267.979V356.938H270.051V363.42H271.129V351.758H270.051V355.986ZM272.599 351.478V364.036H273.691V351.478H272.599ZM279.836 358.52C280.354 358.646 280.956 358.716 281.572 358.716C282.202 358.716 282.804 358.646 283.336 358.52V361.474H279.836V358.52ZM281.572 353.172C283.588 353.172 285.044 354.096 285.044 355.496C285.044 356.896 283.588 357.82 281.572 357.82C279.556 357.82 278.114 356.896 278.114 355.496C278.114 354.096 279.556 353.172 281.572 353.172ZM284.484 361.474V358.072C285.52 357.526 286.136 356.63 286.136 355.496C286.136 353.536 284.246 352.276 281.572 352.276C278.912 352.276 277.008 353.536 277.008 355.496C277.008 356.63 277.638 357.54 278.688 358.086V361.474H275.888V362.426H287.298V361.474H284.484ZM289.023 362.337C289.023 362.118 289.087 361.936 289.215 361.79C289.347 361.644 289.543 361.571 289.803 361.571C290.062 361.571 290.258 361.644 290.391 361.79C290.527 361.936 290.596 362.118 290.596 362.337C290.596 362.547 290.527 362.722 290.391 362.863C290.258 363.005 290.062 363.075 289.803 363.075C289.543 363.075 289.347 363.005 289.215 362.863C289.087 362.722 289.023 362.547 289.023 362.337Z" fill="black"/>
</svg>
