<svg width="355" height="112" viewBox="0 0 355 112" fill="none" xmlns="http://www.w3.org/2000/svg">
<path opacity="0.8" d="M119 18L101 29L112 35.5L123 28.5C123 28.5 144.5 35 173 32C201.5 29 216.5 16 216.5 16L223 20L232 14L215.5 4.5C215.5 4.5 201 19.5 171 23C141 26.5 119 18 119 18Z" fill="#C4C4C4"/>
<path d="M295.659 14.1291L285.471 20.2002L252.387 0.416992L198.191 32.8656L205.753 37.4189L187.636 48.2525L271.764 98.5478L354.318 49.1946L295.659 14.1291Z" fill="white"/>
<path d="M99.8836 111.213L0.578125 51.8114L71.3681 9.47119L170.674 68.8731L99.8836 111.213Z" fill="white"/>
<path d="M259.581 58.6674L252.124 54.1664L266.461 45.5833L273.918 50.0319L259.581 58.6674Z" fill="black"/>
<path d="M232.746 42.6001L225.289 38.1515L239.678 29.5684L247.135 34.017L232.746 42.6001Z" fill="black"/>
<path d="M79.0352 67.3553L71.5781 62.8544L85.9147 54.2712L93.3718 58.7198L79.0352 67.3553Z" fill="black"/>
<path d="M45.1632 47.1012L37.7061 42.6526L52.0951 34.0171L59.5522 38.4657L45.1632 47.1012Z" fill="black"/>
<path d="M49.2593 39.6695C48.9442 39.5124 48.4716 39.5124 48.209 39.6695L46.9487 40.4022C46.6861 40.5592 47.0537 40.7685 47.3163 40.6115L48.4716 39.9311L48.5766 39.9835L45.3207 41.9199C45.0056 42.1293 45.4782 42.391 45.7933 42.1816L47.6839 41.0302L47.7889 41.0825L45.8984 42.2339C45.5833 42.4433 46.0559 42.705 46.371 42.4956L49.6269 40.5592L49.7319 40.6115L48.5766 41.2919C48.314 41.4489 48.6816 41.6582 48.9442 41.5012L50.2046 40.7162C50.4671 40.5592 50.5197 40.2452 50.2046 40.0881L49.2593 39.6695Z" fill="white"/>
<path d="M50.2569 39.9834C50.5759 39.9834 50.8345 39.8194 50.8345 39.6171C50.8345 39.4148 50.5759 39.2507 50.2569 39.2507C49.9378 39.2507 49.6792 39.4148 49.6792 39.6171C49.6792 39.8194 49.9378 39.9834 50.2569 39.9834Z" fill="white"/>
<path d="M91.3233 82.6899L83.8662 78.2413L104.925 65.6282L112.382 70.0768L91.3233 82.6899Z" fill="black"/>
<path d="M98.2552 76.6713L101.459 74.7871C101.774 74.5778 101.774 74.2638 101.459 74.1068L98.2552 72.1703C97.9401 71.961 97.415 71.961 97.0999 72.1703L93.8965 74.0544C93.5814 74.2638 93.5814 74.5778 93.8965 74.7348L97.0999 76.6713C97.415 76.8806 97.9401 76.8806 98.2552 76.6713ZM97.6775 76.4619L94.2641 74.4208L97.625 72.3797L101.038 74.4208L97.6775 76.4619Z" fill="white"/>
<path d="M102.456 72.1702C102.719 72.0132 103.086 72.2225 102.824 72.3795L101.774 73.0076L102.194 72.9552C102.456 72.9552 102.509 73.2169 102.194 73.2169L101.143 73.2692C100.986 73.2692 100.881 73.2169 100.881 73.1122L100.986 72.4842C100.986 72.2748 101.459 72.3272 101.459 72.4842L101.406 72.7459L102.456 72.1702Z" fill="white"/>
<path d="M99.5679 72.2226C99.3053 72.3796 99.6729 72.5889 99.9355 72.4319L100.986 71.8039L100.933 72.0656C100.933 72.2226 101.353 72.2749 101.406 72.0656L101.511 71.4375C101.511 71.3329 101.406 71.2805 101.248 71.2805L100.198 71.3329C99.883 71.3329 99.9355 71.5945 100.198 71.5945L100.618 71.5422L99.5679 72.2226Z" fill="white"/>
<path d="M99.3582 74.5768L98.728 74.2105C98.6755 74.1581 98.5179 74.1581 98.4129 74.2105L97.6252 74.6815C97.5727 74.7338 97.5727 74.7862 97.6252 74.7862C97.6252 74.7862 97.6252 74.7862 97.6777 74.8385L96.6799 75.4665C96.5224 75.5712 96.785 75.7282 96.9425 75.6235L97.9403 74.9955H97.9928L96.995 75.6235C96.785 75.7282 97.1 75.8852 97.2576 75.7806L98.2554 75.1525C98.3079 75.1525 98.3079 75.2049 98.3079 75.2049C98.3604 75.2572 98.4654 75.2572 98.5179 75.2049L99.3057 74.7338C99.4632 74.7338 99.4632 74.6291 99.3582 74.5768Z" fill="white"/>
<path d="M99.3055 74.4206C99.4506 74.4206 99.5681 74.3503 99.5681 74.2636C99.5681 74.1769 99.4506 74.1066 99.3055 74.1066C99.1605 74.1066 99.043 74.1769 99.043 74.2636C99.043 74.3503 99.1605 74.4206 99.3055 74.4206Z" fill="white"/>
<path d="M98.0452 73.7927L97.415 73.4263C97.3625 73.374 97.2049 73.374 97.0999 73.4263L96.3122 73.8974C96.2597 73.9497 96.2597 74.002 96.3122 74.002C96.3122 74.002 96.3122 74.002 96.3647 74.0544L95.3669 74.6824C95.2094 74.7871 95.472 74.9441 95.6295 74.8394L96.6273 74.2114H96.6798L95.682 74.8394C95.472 74.9441 95.787 75.1011 95.9446 74.9964L96.9424 74.3684C96.9949 74.3684 96.9949 74.4207 96.9949 74.4207C97.0474 74.4731 97.1524 74.4731 97.2049 74.4207L97.9927 73.9497C98.0977 73.9497 98.0977 73.845 98.0452 73.7927Z" fill="white"/>
<path d="M97.9926 73.5833C98.1376 73.5833 98.2551 73.513 98.2551 73.4263C98.2551 73.3396 98.1376 73.2693 97.9926 73.2693C97.8475 73.2693 97.73 73.3396 97.73 73.4263C97.73 73.513 97.8475 73.5833 97.9926 73.5833Z" fill="white"/>
<path d="M83.7611 60.133C83.9711 60.29 84.3387 60.29 84.6013 60.133C84.8114 59.976 84.8114 59.7666 84.6013 59.662C84.3913 59.5049 84.0236 59.5049 83.7611 59.662C83.551 59.7666 83.551 60.0283 83.7611 60.133Z" fill="white"/>
<path d="M81.0829 61.6508L79.665 62.4881C79.4024 62.6451 79.0348 62.4358 79.2974 62.2788L80.7153 61.4414L80.1901 61.1274L82.6583 60.29L82.5533 60.2377L81.1354 60.7087C80.8203 60.8134 80.6102 60.5517 80.9253 60.447L82.4482 59.976C82.6058 59.9236 83.0259 59.8713 83.341 60.0283L83.6036 60.1853L83.9187 60.3423C84.2337 60.4993 84.1287 60.761 84.0762 60.8657L83.236 61.8078C83.0784 62.0171 82.6058 61.8601 82.8158 61.7031L83.6036 60.8657L83.4985 60.8134L82.1332 62.2788L81.608 61.9648L80.1376 62.8545C79.875 63.0115 79.5074 62.8022 79.77 62.6451L81.2404 61.7554L81.0829 61.6508Z" fill="white"/>
<path d="M172.827 84.4693L161.326 77.5609L173.247 70.4431L184.748 77.2992L172.827 84.4693Z" fill="black"/>
<path d="M172.512 80.3871L175.715 78.503C176.031 78.2936 176.031 77.9796 175.715 77.8226L172.512 75.8861C172.197 75.6768 171.672 75.6768 171.357 75.8861L168.153 77.7702C167.838 77.9796 167.838 78.2936 168.153 78.4506L171.357 80.3871C171.672 80.5441 172.144 80.5964 172.512 80.3871ZM171.934 80.1254L168.521 78.0843L171.882 76.0431L175.295 78.0843L171.934 80.1254Z" fill="white"/>
<path d="M176.713 75.8861C176.976 75.729 177.343 75.9384 177.081 76.0954L176.03 76.7235L176.451 76.6711C176.713 76.6711 176.766 76.9328 176.451 76.9328L175.4 76.9851C175.243 76.9851 175.138 76.9328 175.138 76.8281L175.243 76.2001C175.243 75.9907 175.715 76.0431 175.715 76.2001L175.663 76.4618L176.713 75.8861Z" fill="white"/>
<path d="M173.772 75.9384C173.51 76.0954 173.877 76.3048 174.14 76.1478L175.19 75.5197L175.138 75.7814C175.138 75.9384 175.558 75.9907 175.61 75.7814L175.716 75.1533C175.716 75.0487 175.61 74.9963 175.453 74.9963L174.403 75.0487C174.088 75.0487 174.14 75.3104 174.403 75.3104L174.823 75.258L173.772 75.9384Z" fill="white"/>
<path d="M173.562 78.2929L172.932 77.9265C172.88 77.8742 172.722 77.8742 172.617 77.9265L171.829 78.3976C171.777 78.4499 171.777 78.5022 171.829 78.5022C171.829 78.5022 171.829 78.5022 171.882 78.5546L170.884 79.1826C170.726 79.2873 170.989 79.4443 171.147 79.3396L172.144 78.7116H172.197L171.199 79.3396C170.989 79.4443 171.304 79.6013 171.462 79.4966L172.459 78.8686C172.512 78.8686 172.512 78.9209 172.512 78.9209C172.565 78.9733 172.67 78.9733 172.722 78.9209L173.51 78.4499C173.667 78.4499 173.667 78.3452 173.562 78.2929Z" fill="white"/>
<path d="M173.51 78.1366C173.655 78.1366 173.772 78.0663 173.772 77.9796C173.772 77.8929 173.655 77.8226 173.51 77.8226C173.365 77.8226 173.247 77.8929 173.247 77.9796C173.247 78.0663 173.365 78.1366 173.51 78.1366Z" fill="white"/>
<path d="M172.249 77.5085L171.619 77.1422C171.567 77.0898 171.409 77.0898 171.304 77.1422L170.516 77.6132C170.464 77.6655 170.464 77.7179 170.516 77.7179C170.516 77.7179 170.516 77.7179 170.569 77.7702L169.571 78.3982C169.413 78.5029 169.676 78.6599 169.834 78.5552L170.831 77.9272H170.884L169.886 78.5552C169.676 78.6599 169.991 78.8169 170.149 78.7122L171.146 78.0842C171.199 78.0842 171.199 78.1366 171.199 78.1366C171.251 78.1889 171.357 78.1889 171.409 78.1366L172.197 77.6655C172.302 77.6132 172.302 77.5608 172.249 77.5085Z" fill="white"/>
<path d="M172.197 77.2991C172.342 77.2991 172.459 77.2288 172.459 77.1421C172.459 77.0554 172.342 76.9851 172.197 76.9851C172.052 76.9851 171.934 77.0554 171.934 77.1421C171.934 77.2288 172.052 77.2991 172.197 77.2991Z" fill="white"/>
<path d="M113.8 55.2655L96.5752 44.9552L108.496 37.7852L125.773 48.0954L113.8 55.2655Z" fill="black"/>
<path d="M111.384 36.1104L109.809 37.0524L128.556 48.2524L115.375 56.1552L125.51 62.2263L138.744 54.3234L140.32 53.3814L111.384 36.1104Z" fill="black"/>
<path d="M118.262 98.8056L94 84.3084L142.996 55L167.206 69.4972L118.262 98.8056Z" fill="#C8A67C"/>
<path d="M80.296 41.3965L51.3604 24.1254L71.3685 12.1404L100.304 29.4637L80.296 41.3965Z" fill="#C8A67C"/>
<path d="M110.597 49.4562L113.8 47.5721C114.116 47.3627 114.116 47.0487 113.8 46.8917L110.597 44.9552C110.282 44.7459 109.757 44.7459 109.442 44.9552L106.238 46.8393C105.923 47.0487 105.923 47.3627 106.238 47.5197L109.442 49.4562C109.757 49.6132 110.229 49.6132 110.597 49.4562ZM110.019 49.1945L106.606 47.1534L109.967 45.1122L113.38 47.1534L110.019 49.1945Z" fill="white"/>
<path d="M114.798 44.9552C115.061 44.7982 115.428 45.0075 115.166 45.1646L114.115 45.7926L114.536 45.7403C114.798 45.7403 114.851 46.0019 114.536 46.0019L113.485 46.0543C113.328 46.0543 113.223 46.0019 113.223 45.8973L113.328 45.2692C113.328 45.0599 113.8 45.1122 113.8 45.2692L113.748 45.5309L114.798 44.9552Z" fill="white"/>
<path d="M111.91 44.9552C111.647 45.1122 112.015 45.3216 112.277 45.1646L113.328 44.5365L113.275 44.7982C113.275 44.9552 113.695 45.0076 113.748 44.7982L113.853 44.1702C113.853 44.0655 113.748 44.0132 113.59 44.0132L112.54 44.0655C112.225 44.0655 112.277 44.3272 112.54 44.3272L112.96 44.2749L111.91 44.9552Z" fill="white"/>
<path d="M111.699 47.3628L111.069 46.9964C111.017 46.9441 110.859 46.9441 110.754 46.9964L109.966 47.4674C109.914 47.5198 109.914 47.5721 109.966 47.5721C109.966 47.5721 109.966 47.5721 110.019 47.6244L109.021 48.2525C108.864 48.3572 109.126 48.5142 109.284 48.4095L110.282 47.7815H110.334L109.336 48.4095C109.126 48.5142 109.441 48.6712 109.599 48.5665L110.597 47.9385C110.649 47.9385 110.649 47.9908 110.649 47.9908C110.702 48.0431 110.807 48.0431 110.859 47.9908L111.647 47.5198C111.752 47.4674 111.752 47.4151 111.699 47.3628Z" fill="white"/>
<path d="M111.647 47.1534C111.792 47.1534 111.909 47.0831 111.909 46.9964C111.909 46.9096 111.792 46.8394 111.647 46.8394C111.502 46.8394 111.384 46.9096 111.384 46.9964C111.384 47.0831 111.502 47.1534 111.647 47.1534Z" fill="white"/>
<path d="M110.334 46.5244L109.704 46.1581C109.652 46.1058 109.494 46.1058 109.389 46.1581L108.601 46.6291C108.549 46.6815 108.549 46.7338 108.601 46.7338C108.601 46.7338 108.601 46.7338 108.654 46.7861L107.656 47.4142C107.498 47.5188 107.761 47.6758 107.919 47.5712L108.916 46.9431H108.969L107.971 47.5712C107.761 47.6758 108.076 47.8328 108.234 47.7282L109.231 47.1001C109.284 47.1001 109.284 47.1525 109.284 47.1525C109.336 47.2048 109.441 47.2048 109.494 47.1525L110.282 46.6815C110.439 46.6815 110.439 46.5768 110.334 46.5244Z" fill="white"/>
<path d="M110.282 46.3683C110.427 46.3683 110.544 46.298 110.544 46.2113C110.544 46.1246 110.427 46.0543 110.282 46.0543C110.137 46.0543 110.019 46.1246 110.019 46.2113C110.019 46.298 110.137 46.3683 110.282 46.3683Z" fill="white"/>
<path d="M184.59 50.0842L204.861 62.1739L197.141 66.7795L176.87 54.6898L184.59 50.0842Z" fill="black"/>
<path d="M191.942 57.2544C192.152 57.359 192.52 57.359 192.73 57.2544C192.94 57.1497 192.94 56.888 192.73 56.7833C192.52 56.6787 192.152 56.6787 191.942 56.7833C191.732 56.888 191.732 57.0973 191.942 57.2544Z" fill="white"/>
<path d="M195.041 58.6676L194.095 58.0919C193.885 57.9872 193.57 57.8825 193.308 57.8825H191.627L191.89 57.7255C192.415 57.4115 191.627 56.9405 191.102 57.2545L190.104 57.8825H188.634C188.476 57.8825 188.476 57.8825 188.371 57.7779L187.899 57.5162C187.426 57.2545 186.743 57.3068 186.428 57.5162C186.113 57.7255 185.903 58.1442 186.428 58.4582C186.428 58.4582 187.058 58.8246 187.216 58.9293C187.426 59.0339 187.689 59.1386 188.056 59.1386H192.783C192.888 59.1386 192.94 59.1386 192.993 59.191C192.993 59.191 193.308 59.4003 193.57 59.5573C193.833 59.7143 194.568 59.7667 195.041 59.505C195.408 59.2433 195.356 58.8246 195.041 58.6676ZM193.833 59.348L193.36 59.0339C193.15 58.9293 193.045 58.8769 192.783 58.8769H188.056C187.846 58.8769 187.689 58.8246 187.531 58.7199L186.743 58.2489C186.533 58.1442 186.533 57.9349 186.743 57.7779C186.953 57.6209 187.268 57.6732 187.426 57.7779L187.951 58.0919C188.109 58.1966 188.266 58.1966 188.424 58.1966H193.255C193.465 58.1966 193.57 58.2489 193.728 58.3536L194.568 58.8246C194.778 58.9293 194.673 59.1386 194.568 59.2433C194.463 59.348 194.095 59.4526 193.833 59.348Z" fill="white"/>
<path d="M280.272 53.8525L287.729 58.3011L266.671 70.9142L259.214 66.4133L280.272 53.8525Z" fill="black"/>
<path d="M311.203 51.6543L328.428 61.9646L290.092 84.8879L272.867 74.5777L311.203 51.6543Z" fill="#DAC452"/>
<path d="M294.503 54.2711L274.232 42.129L281.952 37.5234L302.223 49.6655L294.503 54.2711Z" fill="black"/>
<path d="M289.304 44.6936C289.514 44.7982 289.882 44.7982 290.092 44.6936C290.302 44.5889 290.302 44.3272 290.092 44.2225C289.882 44.1179 289.514 44.1179 289.304 44.2225C289.042 44.3796 289.042 44.5889 289.304 44.6936Z" fill="white"/>
<path d="M292.403 46.159L291.458 45.5833C291.248 45.4787 290.933 45.374 290.67 45.374H288.99L289.252 45.217C289.777 44.903 288.99 44.4319 288.464 44.746L287.467 45.374H285.996C285.839 45.374 285.839 45.374 285.734 45.2693L285.261 45.0076C284.788 44.746 284.106 44.7983 283.791 45.0076C283.475 45.217 283.265 45.6357 283.791 45.9497C283.791 45.9497 284.421 46.316 284.578 46.4207C284.788 46.5254 285.051 46.6301 285.419 46.6301H290.145C290.25 46.6301 290.302 46.6301 290.355 46.6824C290.355 46.6824 290.67 46.8917 290.933 47.0488C291.195 47.2058 291.93 47.2581 292.403 46.9964C292.771 46.7347 292.666 46.316 292.403 46.159ZM291.195 46.7871L290.723 46.4731C290.512 46.3684 290.407 46.316 290.145 46.316H285.419C285.208 46.316 285.051 46.2637 284.893 46.159L284.106 45.688C283.896 45.5833 283.896 45.374 284.106 45.217C284.316 45.06 284.631 45.1123 284.788 45.217L285.313 45.531C285.471 45.6357 285.629 45.6357 285.786 45.6357H290.618C290.828 45.6357 290.933 45.688 291.09 45.7927L291.93 46.2637C292.14 46.3684 292.035 46.5777 291.93 46.6824C291.825 46.7871 291.458 46.9441 291.195 46.7871Z" fill="white"/>
<path d="M94.5274 59.4002L79.0881 68.6637L69.3203 62.8544L84.8122 53.5908L60.7079 39.146L45.216 48.4095L35.5008 42.6002L50.9401 33.3366L43.4305 28.8357L22.3721 41.4488L82.7641 77.5609L103.823 64.9478L94.5274 59.4002Z" fill="black"/>
<path d="M236.895 35.1685C236.58 35.0115 236.107 35.0115 235.845 35.1685L234.584 35.9535C234.322 36.1105 234.689 36.3199 234.952 36.1629L236.107 35.4825L236.212 35.5348L232.956 37.4713C232.641 37.6806 233.114 37.9423 233.429 37.733L235.32 36.5816L235.425 36.6339L233.534 37.7853C233.219 37.9946 233.692 38.2563 234.007 38.047L237.263 36.1105L237.368 36.1629L236.212 36.8432C235.95 37.0003 236.317 37.2096 236.58 37.0526L237.84 36.2675C238.103 36.1105 238.155 35.7965 237.84 35.6395L236.895 35.1685Z" fill="white"/>
<path d="M237.84 35.4825C238.159 35.4825 238.418 35.3184 238.418 35.1161C238.418 34.9138 238.159 34.7498 237.84 34.7498C237.521 34.7498 237.263 34.9138 237.263 35.1161C237.263 35.3184 237.521 35.4825 237.84 35.4825Z" fill="white"/>
<path d="M211.243 37.4597L202 31.9121L223.058 19.3513L232.301 24.8466L211.243 37.4597Z" fill="#DAC452"/>
<path d="M245.588 22.0206L232.092 13.9607L243.698 7L257.194 15.0598L245.588 22.0206Z" fill="#DAC452"/>
<path d="M263.782 33.1797L247.607 23.4975L266.618 12.0881L282.845 21.7704L263.782 33.1797Z" fill="black"/>
<path d="M322.35 31.1494L297.113 16L277 28.0374L302.26 43.1626L322.35 31.1494Z" fill="#DAC452"/>
<path d="M331.26 61.1626L306 46.0374L326.113 34L351.373 49.1252L331.26 61.1626Z" fill="#DAC452"/>
<path d="M273.602 64.8956L276.805 63.0115C277.12 62.8021 277.12 62.4881 276.805 62.3311L273.602 60.3947C273.287 60.1853 272.762 60.1853 272.447 60.3947L269.243 62.2788C268.928 62.4881 268.928 62.8021 269.243 62.9592L272.447 64.8956C272.762 65.0526 273.287 65.1049 273.602 64.8956ZM273.024 64.6339L269.611 62.5928L272.972 60.5517L276.385 62.5928L273.024 64.6339Z" fill="white"/>
<path d="M277.803 60.3946C278.066 60.2376 278.433 60.4469 278.171 60.6039L277.12 61.232L277.54 61.1796C277.803 61.1796 277.855 61.4413 277.54 61.4413L276.49 61.4937C276.333 61.4937 276.228 61.4413 276.228 61.3367L276.333 60.7086C276.333 60.4993 276.805 60.5516 276.805 60.7086L276.753 60.9703L277.803 60.3946Z" fill="white"/>
<path d="M274.915 60.447C274.652 60.604 275.02 60.8133 275.282 60.6563L276.333 60.0283L276.28 60.2899C276.28 60.447 276.7 60.4993 276.753 60.2899L276.858 59.6619C276.858 59.5572 276.753 59.5049 276.595 59.5049L275.545 59.5572C275.23 59.5572 275.282 59.8189 275.545 59.8189L275.965 59.7666L274.915 60.447Z" fill="white"/>
<path d="M274.705 62.8022L274.075 62.4358C274.022 62.3835 273.865 62.3835 273.76 62.4358L272.972 62.9068C272.919 62.9592 272.919 63.0115 272.972 63.0115C272.972 63.0115 272.972 63.0115 273.024 63.0638L272.027 63.6919C271.869 63.7965 272.132 63.9535 272.289 63.8489L273.287 63.2208H273.339L272.342 63.8489C272.132 63.9535 272.447 64.1106 272.604 64.0059L273.602 63.3778C273.655 63.3778 273.655 63.4302 273.655 63.4302C273.707 63.4825 273.812 63.4825 273.865 63.4302L274.652 62.9592C274.81 62.9592 274.81 62.8545 274.705 62.8022Z" fill="white"/>
<path d="M274.652 62.5928C274.797 62.5928 274.915 62.5225 274.915 62.4358C274.915 62.3491 274.797 62.2788 274.652 62.2788C274.507 62.2788 274.39 62.3491 274.39 62.4358C274.39 62.5225 274.507 62.5928 274.652 62.5928Z" fill="white"/>
<path d="M273.392 62.017L272.762 61.6506C272.709 61.5983 272.552 61.5983 272.447 61.6506L271.659 62.1217C271.606 62.174 271.606 62.2263 271.659 62.2263C271.659 62.2263 271.659 62.2263 271.711 62.2787L270.714 62.9067C270.556 63.0114 270.819 63.1684 270.976 63.0637L271.974 62.4357H272.026L271.029 63.0637C270.819 63.1684 271.134 63.3254 271.291 63.2207L272.289 62.5927C272.342 62.5927 272.342 62.645 272.342 62.645C272.394 62.6974 272.499 62.6974 272.552 62.645L273.339 62.174C273.444 62.1217 273.444 62.0693 273.392 62.017Z" fill="white"/>
<path d="M273.339 61.8077C273.484 61.8077 273.602 61.7374 273.602 61.6507C273.602 61.5639 273.484 61.4937 273.339 61.4937C273.194 61.4937 273.077 61.5639 273.077 61.6507C273.077 61.7374 273.194 61.8077 273.339 61.8077Z" fill="white"/>
<path d="M264.307 51.445C264.517 51.602 264.885 51.602 265.147 51.445C265.357 51.288 265.357 51.0786 265.147 50.974C264.937 50.8169 264.57 50.8169 264.307 50.974C264.097 51.0786 264.097 51.3403 264.307 51.445Z" fill="white"/>
<path d="M261.629 52.9627L260.211 53.8001C259.948 53.9571 259.581 53.7477 259.843 53.5907L261.261 52.7534L260.736 52.4393L263.204 51.602L263.099 51.5496L261.681 52.0206C261.366 52.1253 261.156 51.8636 261.471 51.759L262.994 51.2879C263.152 51.2356 263.572 51.1833 263.887 51.3403L264.149 51.4973L264.465 51.6543C264.78 51.8113 264.675 52.073 264.622 52.1777L263.782 53.1197C263.624 53.3291 263.152 53.172 263.362 53.015L264.149 52.1777L264.044 52.1253L262.679 53.5907L262.154 53.2767L260.683 54.1664C260.421 54.3234 260.053 54.1141 260.316 53.9571L261.786 53.0674L261.629 52.9627Z" fill="white"/>
<path d="M275.073 50.7124L259.633 59.976L249.866 54.1666L265.358 44.9031L248.29 34.6975L232.851 43.961L223.083 38.1517L238.575 28.8881L234.374 26.376L213.315 38.9891L258.11 65.7853L279.169 53.1722L275.073 50.7124Z" fill="black"/>
<path d="M351.394 49.1946L271.764 96.8002L190.559 48.2524L206.523 38.7063L208.669 37.4233L206.527 36.1338L201.105 32.8692L252.387 2.165L284.701 21.4876L285.469 21.9471L286.239 21.4887L295.657 15.876L351.394 49.1946Z" stroke="black" stroke-width="3" stroke-miterlimit="10"/>
<path d="M99.8836 109.465L3.50026 51.8114L71.368 11.219L167.751 68.873L99.8836 109.465Z" stroke="black" stroke-width="3" stroke-miterlimit="10"/>
</svg>
