<svg width="355" height="152" viewBox="0 0 355 152" fill="none" xmlns="http://www.w3.org/2000/svg">
<path d="M152.331 142.39L152.733 133.028L82.9131 91.3223L94.3318 84.4632L111.938 95.0272L125.721 86.7663L139 94.7268L225.42 43.1085L206.909 32.0438L235.229 15.1214L253.741 26.1861L297.101 0.301773L354.497 34.5972L199.263 127.32L186.235 119.51L167.874 130.474L166.767 151.001" fill="white"/>
<path d="M251.829 54.1231L246.296 50.8187L266.467 38.7527L272.001 42.0571L251.829 54.1231Z" fill="black"/>
<path d="M266.567 62.9347L261.084 59.6303L281.256 47.6144L286.789 50.8687L266.567 62.9347Z" fill="black"/>
<path d="M296.9 2.95523L255.702 27.5879L294.435 50.6684L270.24 65.1376L284.777 73.7991L350.17 34.7473L296.9 2.95523Z" fill="#DAC452"/>
<path d="M255.049 69.8439L241.366 61.633L248.761 57.2271L262.443 65.388L255.049 69.8439Z" fill="black"/>
<path d="M100.418 99.6834L86.6855 91.4725L94.08 87.0667L107.813 95.2775L100.418 99.6834Z" fill="black"/>
<path d="M260.028 59.0295L252.885 54.7238L273.057 42.7079L280.2 46.9635L260.028 59.0295Z" fill="black"/>
<path d="M245.24 50.1678L214.002 31.5431L234.224 19.4771L265.411 38.1519L245.24 50.1678Z" fill="black"/>
<path d="M227.332 57.5775L216.315 51.0188L227.332 44.4101L238.348 51.0188L227.332 57.5775Z" fill="black"/>
<path d="M125.67 102.938L114.654 96.379L125.67 89.7702L136.686 96.379L125.67 102.938Z" fill="black"/>
<path d="M212.442 66.4393L201.426 59.8806L214.052 52.3206L225.068 58.9293L212.442 66.4393Z" fill="#DAC452"/>
<path d="M198.006 75.0507L186.989 68.492L199.666 60.932L210.631 67.5408L198.006 75.0507Z" fill="#DAC452"/>
<path d="M168.629 92.624L157.612 86.0153L170.289 78.5053L181.255 85.064L168.629 92.624Z" fill="#DAC452"/>
<path d="M186.235 82.1101L175.218 75.5514L185.228 69.5434L196.245 76.1522L186.235 82.1101Z" fill="black"/>
<path d="M154.242 101.235L143.226 94.6267L155.852 87.1168L166.868 93.6754L154.242 101.235Z" fill="#DAC452"/>
<path d="M254.747 91.7227L243.73 85.164L256.356 77.604L267.373 84.2128L254.747 91.7227Z" fill="#DAC452"/>
<path d="M232.84 80.1187L221.823 73.56L234.449 66L245.465 72.6088L232.84 80.1187Z" fill="#DAC452"/>
<path d="M269.016 82.1187L258 75.56L270.626 68L281.642 74.6088L269.016 82.1187Z" fill="#DAC452"/>
<path d="M240.36 100.334L229.344 93.7757L241.97 86.2156L252.986 92.7743L240.36 100.334Z" fill="#DAC452"/>
<path d="M225.923 108.946L214.907 102.387L227.533 94.8271L238.549 101.386L225.923 108.946Z" fill="#DAC452"/>
<path d="M211.016 92.1187L200 85.56L212.626 78L223.642 84.5587L211.016 92.1187Z" fill="#DAC452"/>
<path d="M142.016 123.119L131 116.51L143.626 109L154.642 115.559L142.016 123.119Z" fill="#DAC452"/>
<path d="M176.016 114.119L165 107.51L191 92L202 98.5L176.016 114.119Z" fill="#DAC452"/>
<path d="M200.221 125L186 116.483L206.779 104L221 112.517L200.221 125Z" fill="#00AB8C"/>
<path d="M128.881 95.3758C129.08 95.5252 129.429 95.5252 129.678 95.3758C129.878 95.2264 129.878 95.0273 129.678 94.9277C129.479 94.7783 129.13 94.7783 128.881 94.9277C128.632 95.0273 128.632 95.2264 128.881 95.3758Z" fill="white"/>
<path d="M126.338 96.8196L124.992 97.6162C124.743 97.7656 124.394 97.5664 124.643 97.4171L125.989 96.6204L125.491 96.3217L127.834 95.5251L127.734 95.4753L126.388 95.9234C126.089 96.023 125.89 95.774 126.189 95.6744L127.635 95.2263C127.784 95.1765 128.183 95.1268 128.482 95.2761L128.731 95.4255L129.03 95.5749C129.33 95.7242 129.23 95.9732 129.18 96.0727L128.382 96.969C128.233 97.1681 127.784 97.0187 127.984 96.8694L128.731 96.0727L128.632 96.023L127.335 97.4171L126.837 97.1183L125.441 97.9647C125.192 98.1141 124.843 97.9149 125.092 97.7656L126.488 96.9192L126.338 96.8196Z" fill="white"/>
<path d="M125.838 93.3986C125.539 93.2493 125.09 93.2493 124.841 93.3986L123.644 94.1455C123.395 94.2948 123.744 94.494 123.993 94.3446L125.09 93.6974L125.19 93.7472L122.099 95.5894C121.8 95.7885 122.248 96.0375 122.547 95.8383L124.342 94.7429L124.442 94.7927L122.647 95.8881C122.348 96.0872 122.797 96.3362 123.096 96.137L126.187 94.2948L126.286 94.3446L125.19 94.9919C124.94 95.1413 125.289 95.3404 125.539 95.191L126.735 94.4442C126.984 94.2948 127.034 93.9961 126.735 93.8467L125.838 93.3986Z" fill="white"/>
<path d="M126.735 93.6973C127.038 93.6973 127.283 93.5413 127.283 93.3488C127.283 93.1563 127.038 93.0002 126.735 93.0002C126.432 93.0002 126.187 93.1563 126.187 93.3488C126.187 93.5413 126.432 93.6973 126.735 93.6973Z" fill="white"/>
<path d="M229.881 50.3756C230.08 50.5249 230.429 50.5249 230.678 50.3756C230.878 50.2262 230.878 50.027 230.678 49.9275C230.479 49.7781 230.13 49.7781 229.881 49.9275C229.632 50.027 229.632 50.2262 229.881 50.3756Z" fill="white"/>
<path d="M227.338 51.8194L225.992 52.616C225.743 52.7653 225.394 52.5662 225.643 52.4168L226.989 51.6202L226.491 51.3215L228.834 50.5248L228.734 50.4751L227.388 50.9232C227.089 51.0227 226.89 50.7738 227.189 50.6742L228.635 50.2261C228.784 50.1763 229.183 50.1265 229.482 50.2759L229.731 50.4253L230.03 50.5746C230.33 50.724 230.23 50.9729 230.18 51.0725L229.382 51.9687C229.233 52.1679 228.784 52.0185 228.984 51.8691L229.731 51.0725L229.632 51.0227L228.335 52.4168L227.837 52.1181L226.441 52.9645C226.192 53.1139 225.843 52.9147 226.092 52.7653L227.488 51.9189L227.338 51.8194Z" fill="white"/>
<path d="M226.838 48.3984C226.539 48.2491 226.09 48.2491 225.841 48.3984L224.644 49.1453C224.395 49.2946 224.744 49.4938 224.993 49.3444L226.09 48.6972L226.19 48.7469L223.099 50.5891C222.8 50.7883 223.248 51.0372 223.547 50.8381L225.342 49.7427L225.442 49.7925L223.647 50.8879C223.348 51.087 223.797 51.336 224.096 51.1368L227.187 49.2946L227.286 49.3444L226.19 49.9917C225.94 50.141 226.289 50.3402 226.539 50.1908L227.735 49.444C227.984 49.2946 228.034 48.9959 227.735 48.8465L226.838 48.3984Z" fill="white"/>
<path d="M227.735 48.6971C228.038 48.6971 228.283 48.541 228.283 48.3485C228.283 48.156 228.038 48 227.735 48C227.432 48 227.187 48.156 227.187 48.3485C227.187 48.541 227.432 48.6971 227.735 48.6971Z" fill="white"/>
<path d="M266.669 53.272L269.737 51.4696C270.039 51.2694 270.039 50.969 269.737 50.8188L266.669 48.9663C266.367 48.7661 265.864 48.7661 265.562 48.9663L262.493 50.7687C262.192 50.969 262.192 51.2694 262.493 51.4196L265.562 53.272C265.864 53.4222 266.367 53.4723 266.669 53.272ZM266.115 53.0217L262.846 51.0691L266.065 49.1165L269.335 51.0691L266.115 53.0217Z" fill="white"/>
<path d="M270.693 48.9664C270.944 48.8162 271.296 49.0164 271.045 49.1666L270.039 49.7674L270.441 49.7174C270.693 49.7174 270.743 49.9677 270.441 49.9677L269.435 50.0178C269.284 50.0178 269.184 49.9677 269.184 49.8676L269.284 49.2668C269.284 49.0665 269.737 49.1166 269.737 49.2668L269.687 49.5171L270.693 48.9664Z" fill="white"/>
<path d="M267.926 49.0164C267.675 49.1666 268.027 49.3668 268.278 49.2166L269.285 48.6158L269.234 48.8662C269.234 49.0164 269.637 49.0664 269.687 48.8662L269.788 48.2654C269.788 48.1652 269.687 48.1152 269.536 48.1152L268.53 48.1652C268.228 48.1652 268.278 48.4156 268.53 48.4156L268.932 48.3655L267.926 49.0164Z" fill="white"/>
<path d="M267.725 51.2706L267.122 50.9202C267.071 50.8701 266.92 50.8701 266.82 50.9202L266.065 51.3708C266.015 51.4208 266.015 51.4709 266.065 51.4709C266.065 51.4709 266.065 51.4709 266.116 51.521L265.16 52.1218C265.009 52.2219 265.26 52.3721 265.411 52.272L266.367 51.6712H266.417L265.462 52.272C265.26 52.3721 265.562 52.5223 265.713 52.4222L266.669 51.8214C266.719 51.8214 266.719 51.8714 266.719 51.8714C266.769 51.9215 266.87 51.9215 266.92 51.8714L267.675 51.4208C267.776 51.4208 267.826 51.3207 267.725 51.2706Z" fill="white"/>
<path d="M267.675 51.1191C267.814 51.1191 267.926 51.0519 267.926 50.9689C267.926 50.886 267.814 50.8187 267.675 50.8187C267.536 50.8187 267.423 50.886 267.423 50.9689C267.423 51.0519 267.536 51.1191 267.675 51.1191Z" fill="white"/>
<path d="M266.417 50.5189L265.814 50.1684C265.763 50.1184 265.612 50.1184 265.512 50.1684L264.757 50.619C264.707 50.6691 264.707 50.7192 264.757 50.7192C264.757 50.7192 264.757 50.7192 264.807 50.7692L263.852 51.37C263.701 51.4702 263.952 51.6204 264.103 51.5202L265.059 50.9194H265.109L264.154 51.5202C263.952 51.6204 264.254 51.7706 264.405 51.6704L265.361 51.0696C265.411 51.0696 265.411 51.1197 265.411 51.1197C265.461 51.1698 265.562 51.1698 265.612 51.1197L266.367 50.6691C266.518 50.619 266.518 50.569 266.417 50.5189Z" fill="white"/>
<path d="M266.367 50.318C266.506 50.318 266.618 50.2507 266.618 50.1678C266.618 50.0848 266.506 50.0176 266.367 50.0176C266.228 50.0176 266.115 50.0848 266.115 50.1678C266.115 50.2507 266.228 50.318 266.367 50.318Z" fill="white"/>
<path d="M185.229 78.6556L188.297 76.8532C188.599 76.653 188.599 76.3526 188.297 76.2024L185.229 74.3499C184.927 74.1496 184.424 74.1496 184.122 74.3499L181.054 76.1523C180.752 76.3526 180.752 76.653 181.054 76.8032L184.122 78.6556C184.424 78.8058 184.877 78.8559 185.229 78.6556ZM184.675 78.4053L181.406 76.4527L184.625 74.5001L187.895 76.4527L184.675 78.4053Z" fill="white"/>
<path d="M189.253 74.3499C189.504 74.1997 189.856 74.4 189.605 74.5502L188.599 75.151L189.001 75.1009C189.253 75.1009 189.303 75.3513 189.001 75.3513L187.995 75.4013C187.844 75.4013 187.744 75.3513 187.744 75.2511L187.844 74.6503C187.844 74.4501 188.297 74.5002 188.297 74.6503L188.247 74.9007L189.253 74.3499Z" fill="white"/>
<path d="M186.436 74.3499C186.184 74.5001 186.536 74.7003 186.788 74.5501L187.794 73.9493L187.744 74.1997C187.744 74.3499 188.146 74.3999 188.196 74.1997L188.297 73.5989C188.297 73.4987 188.196 73.4487 188.045 73.4487L187.039 73.4987C186.737 73.4987 186.788 73.7491 187.039 73.7491L187.442 73.699L186.436 74.3499Z" fill="white"/>
<path d="M186.235 76.6535L185.631 76.3031C185.581 76.253 185.43 76.253 185.329 76.3031L184.575 76.7537C184.524 76.8037 184.524 76.8538 184.575 76.8538C184.575 76.8538 184.575 76.8538 184.625 76.9039L183.669 77.5047C183.518 77.6048 183.77 77.755 183.921 77.6549L184.876 77.0541H184.927L183.971 77.6549C183.77 77.755 184.072 77.9052 184.222 77.8051L185.178 77.2043C185.228 77.2043 185.228 77.2543 185.228 77.2543C185.279 77.3044 185.379 77.3044 185.43 77.2543L186.184 76.8037C186.335 76.7537 186.335 76.7036 186.235 76.6535Z" fill="white"/>
<path d="M186.184 76.4526C186.323 76.4526 186.436 76.3854 186.436 76.3024C186.436 76.2195 186.323 76.1522 186.184 76.1522C186.045 76.1522 185.933 76.2195 185.933 76.3024C185.933 76.3854 186.045 76.4526 186.184 76.4526Z" fill="white"/>
<path d="M184.977 75.9025L184.374 75.552C184.323 75.5019 184.172 75.5019 184.072 75.552L183.317 76.0026C183.267 76.0527 183.267 76.1028 183.317 76.1028C183.317 76.1028 183.317 76.1028 183.368 76.1528L182.412 76.7536C182.261 76.8538 182.512 77.004 182.663 76.9038L183.619 76.303H183.669L182.714 76.9038C182.512 77.004 182.814 77.1541 182.965 77.054L183.921 76.4532C183.971 76.4532 183.971 76.5033 183.971 76.5033C184.021 76.5534 184.122 76.5534 184.172 76.5033L184.927 76.0527C185.027 76.0026 185.028 75.9526 184.977 75.9025Z" fill="white"/>
<path d="M184.927 75.7016C185.066 75.7016 185.178 75.6343 185.178 75.5514C185.178 75.4684 185.066 75.4012 184.927 75.4012C184.788 75.4012 184.675 75.4684 184.675 75.5514C184.675 75.6343 184.788 75.7016 184.927 75.7016Z" fill="white"/>
<path d="M197.726 113.091L198.961 114L200.268 113.091L201.575 114L202.883 113L204.19 114L205.497 113L206.804 114L208.112 113L210 114.455L209.346 115L208.112 114L206.804 115L205.497 114L204.19 115L202.883 114L201.575 115L200.268 114L198.961 115L197 113.545L197.726 113.091Z" fill="white"/>
<path d="M98.2559 92.2235C98.4571 92.3236 98.8092 92.3236 99.0104 92.2235C99.2117 92.1234 99.2117 91.873 99.0104 91.7729C98.8092 91.6728 98.4571 91.6728 98.2559 91.7729C98.0547 91.9231 98.0547 92.1234 98.2559 92.2235Z" fill="white"/>
<path d="M101.224 93.6254L100.318 93.0747C100.117 92.9745 99.815 92.8744 99.5635 92.8744H97.9538L98.2053 92.7242C98.7084 92.4238 97.9538 91.9732 97.4508 92.2736L96.4951 92.8744H95.0866C94.9357 92.8744 94.9357 92.8744 94.8351 92.7743L94.3823 92.524C93.9296 92.2736 93.2757 92.3237 92.9739 92.524C92.6721 92.7242 92.4708 93.1248 92.9739 93.4251C92.9739 93.4251 93.5775 93.7756 93.7284 93.8757C93.9296 93.9759 94.1811 94.076 94.5333 94.076H99.0605C99.1611 94.076 99.2114 94.076 99.2617 94.1261C99.2617 94.1261 99.5635 94.3263 99.815 94.4765C100.067 94.6267 100.771 94.6768 101.224 94.4265C101.626 94.1761 101.525 93.7756 101.224 93.6254ZM100.117 94.2262L99.6641 93.9258C99.4629 93.8257 99.3623 93.7756 99.1108 93.7756H94.5836C94.3823 93.7756 94.2314 93.7255 94.0805 93.6254L93.326 93.1748C93.1248 93.0747 93.1248 92.8744 93.326 92.7242C93.5272 92.574 93.829 92.6241 93.9799 92.7242L94.483 93.0246C94.6339 93.1248 94.7848 93.1247 94.9357 93.1247H99.5635C99.7647 93.1247 99.8653 93.1748 100.016 93.2749L100.821 93.7255C101.022 93.8257 100.922 94.0259 100.821 94.1261C100.67 94.2763 100.368 94.3764 100.117 94.2262Z" fill="white"/>
<path d="M252.936 62.384C253.137 62.4841 253.489 62.4841 253.69 62.384C253.891 62.2838 253.891 62.0335 253.69 61.9334C253.489 61.8332 253.137 61.8332 252.936 61.9334C252.684 62.0836 252.684 62.2838 252.936 62.384Z" fill="white"/>
<path d="M255.904 63.7358L254.998 63.1851C254.797 63.0849 254.495 62.9848 254.244 62.9848H252.634L252.886 62.8346C253.389 62.5342 252.634 62.0836 252.131 62.384L251.175 62.9848H249.767C249.616 62.9848 249.616 62.9848 249.515 62.8847L249.063 62.6343C248.61 62.384 247.956 62.4341 247.654 62.6343C247.302 62.8346 247.151 63.2351 247.654 63.5355C247.654 63.5355 248.258 63.886 248.409 63.9861C248.61 64.0863 248.861 64.1864 249.214 64.1864H253.741C253.841 64.1864 253.892 64.1864 253.942 64.2365C253.942 64.2365 254.244 64.4367 254.495 64.5869C254.747 64.7371 255.451 64.7872 255.904 64.5369C256.256 64.3366 256.155 63.9361 255.904 63.7358ZM254.747 64.3867L254.294 64.0863C254.093 63.9861 253.992 63.9361 253.741 63.9361H249.214C249.012 63.9361 248.861 63.886 248.711 63.7859L247.956 63.3353C247.755 63.2351 247.755 63.0349 247.956 62.8847C248.157 62.7345 248.459 62.7845 248.61 62.8847L249.113 63.1851C249.264 63.2852 249.415 63.2852 249.566 63.2852H254.193C254.395 63.2852 254.495 63.3353 254.646 63.4354L255.451 63.886C255.652 63.9861 255.552 64.1864 255.451 64.2865C255.3 64.4367 254.998 64.5369 254.747 64.3867Z" fill="white"/>
<mask id="path-52-inside-1" fill="white">
<path d="M152.331 142.39L152.733 133.028L82.9131 91.3223L94.3318 84.4632L111.938 95.0272L125.721 86.7663L139 94.7268L225.42 43.1085L206.909 32.0438L235.229 15.1214L253.741 26.1861L297.101 0.301773L354.497 34.5972L199.263 127.32L186.235 119.51L167.874 130.474L166.767 151.001"/>
</mask>
<path d="M149.333 142.261C149.262 143.916 150.546 145.316 152.202 145.387C153.857 145.458 155.257 144.174 155.328 142.519L149.333 142.261ZM152.733 133.028L155.73 133.156L155.807 131.369L154.271 130.452L152.733 133.028ZM82.9131 91.3223L81.3683 88.7506L77.075 91.3296L81.3747 93.8978L82.9131 91.3223ZM94.3318 84.4632L95.8753 81.8908L94.3309 80.9641L92.787 81.8915L94.3318 84.4632ZM111.938 95.0272L110.394 97.5997L111.937 98.5253L113.48 97.6004L111.938 95.0272ZM125.721 86.7663L127.263 84.1932L125.721 83.2687L124.178 84.1931L125.721 86.7663ZM139 94.7268L137.458 97.2999L138.998 98.2229L140.539 97.3024L139 94.7268ZM225.42 43.1085L226.959 45.684L231.269 43.1094L226.959 40.5334L225.42 43.1085ZM206.909 32.0438L205.37 29.4685L201.061 32.0434L205.37 34.6189L206.909 32.0438ZM235.229 15.1214L236.768 12.5463L235.23 11.6265L233.69 12.5461L235.229 15.1214ZM253.741 26.1861L252.201 28.7611L253.74 29.6805L255.278 28.762L253.741 26.1861ZM297.101 0.301773L298.64 -2.27351L297.102 -3.19255L295.564 -2.27416L297.101 0.301773ZM354.497 34.5972L356.035 37.1727L360.346 34.5977L356.036 32.0219L354.497 34.5972ZM199.263 127.32L197.72 129.893L199.26 130.816L200.801 129.896L199.263 127.32ZM186.235 119.51L187.777 116.937L186.238 116.014L184.696 116.934L186.235 119.51ZM167.874 130.474L166.336 127.899L164.964 128.718L164.878 130.313L167.874 130.474ZM163.772 150.84C163.683 152.494 164.952 153.908 166.606 153.997C168.26 154.086 169.674 152.817 169.763 151.163L163.772 150.84ZM155.328 142.519L155.73 133.156L149.736 132.899L149.333 142.261L155.328 142.519ZM154.271 130.452L84.4515 88.7468L81.3747 93.8978L151.195 135.603L154.271 130.452ZM84.4579 93.894L95.8766 87.0349L92.787 81.8915L81.3683 88.7506L84.4579 93.894ZM92.7882 87.0357L110.394 97.5997L113.481 92.4548L95.8753 81.8908L92.7882 87.0357ZM113.48 97.6004L127.263 89.3395L124.178 84.1931L110.395 92.454L113.48 97.6004ZM124.178 89.3394L137.458 97.2999L140.543 92.1537L127.263 84.1932L124.178 89.3394ZM140.539 97.3024L226.959 45.684L223.882 40.5329L137.462 92.1513L140.539 97.3024ZM226.959 40.5334L208.448 29.4688L205.37 34.6189L223.881 45.6835L226.959 40.5334ZM208.448 34.6191L236.768 17.6967L233.69 12.5461L205.37 29.4685L208.448 34.6191ZM233.69 17.6965L252.201 28.7611L255.28 23.611L236.768 12.5463L233.69 17.6965ZM255.278 28.762L298.639 2.87771L295.564 -2.27416L252.203 23.6101L255.278 28.762ZM295.563 2.87705L352.958 37.1725L356.036 32.0219L298.64 -2.27351L295.563 2.87705ZM352.958 32.0217L197.725 124.744L200.801 129.896L356.035 37.1727L352.958 32.0217ZM200.805 124.747L187.777 116.937L184.692 122.083L197.72 129.893L200.805 124.747ZM184.696 116.934L166.336 127.899L169.412 133.05L187.773 122.085L184.696 116.934ZM164.878 130.313L163.772 150.84L169.763 151.163L170.87 130.636L164.878 130.313Z" fill="black" mask="url(#path-52-inside-1)"/>
</svg>
