<svg width="315" height="330" viewBox="0 0 315 330" fill="none" xmlns="http://www.w3.org/2000/svg">
<g clip-path="url(#clip0)">
<path d="M175 329.412L295 329.412C306.046 329.412 315 320.457 315 309.412L315 159.412L175 159.412L175 329.412Z" fill="#EDEAE6"/>
<path d="M222.429 233.347L204.784 242.227C203.239 243.01 202.263 244.664 202.263 246.406V278.008C202.263 280.62 204.215 282.622 206.573 282.622H227.796C230.235 282.622 232.105 280.533 232.105 278.008V270.434C232.105 270.26 232.105 270.086 232.105 269.912L228.446 237.003C228.202 233.869 225.112 231.954 222.429 233.347Z" fill="#84A359"/>
<path d="M243.079 305.281L236.006 315.843C234.663 317.851 235.737 320.557 238.155 321.081L257.046 325.62C258.478 325.97 259.911 325.446 260.806 324.311L264.566 319.335C265.372 318.288 265.462 316.978 264.924 315.843L260.269 305.717C259.732 304.495 258.389 303.622 257.046 303.622H246.033C244.869 303.709 243.706 304.32 243.079 305.281Z" fill="#84A359"/>
<path d="M218.842 324.508C218.842 323.222 218.134 322.022 216.896 321.507L201.588 313.962C199.376 312.848 196.81 314.22 196.544 316.62L195.66 324.165C195.394 326.137 197.075 327.938 199.11 327.938H215.214C217.25 327.938 218.842 326.395 218.842 324.508Z" fill="#84A359"/>
<path d="M251.752 220.704L274.025 185.546C274.967 184.036 276.595 183.148 278.308 183.148H302.123C304.95 183.148 307.263 185.546 307.263 188.475V231.979C307.263 234.909 304.95 237.306 302.123 237.306H261.775C260.147 237.306 258.52 236.507 257.578 235.087L251.838 226.652C250.639 224.965 250.553 222.568 251.752 220.704Z" fill="#84A359"/>
<path d="M267.882 242.833H302.954C305.367 242.833 307.263 244.716 307.263 247.113V291.207C307.263 292.406 306.746 293.604 305.798 294.461L296.405 302.594C295.63 303.279 294.596 303.622 293.561 303.622H283.221C280.808 303.622 278.912 301.738 278.912 299.341V289.495C278.912 287.097 277.016 285.214 274.603 285.214H269.261C267.71 285.214 266.331 284.358 265.555 283.073L257.024 268.433C256.679 267.748 256.421 267.063 256.421 266.292V259.014C256.421 258.244 256.593 257.473 257.024 256.788L264.176 244.716C264.952 243.603 266.417 242.833 267.882 242.833Z" fill="#84A359"/>
<path d="M283.442 309.148H295.73C297.255 309.148 298.421 310.386 298.421 311.801V317.548C298.421 319.052 297.165 320.201 295.73 320.201H286.133C285.057 320.201 284.16 319.582 283.711 318.698L281.02 312.951C280.124 311.182 281.469 309.148 283.442 309.148Z" fill="#84A359"/>
<path d="M154.737 208.775V198.035C154.737 194.008 158.411 191.144 162.17 192.218L184.898 199.288C188.145 200.273 189.854 204.032 188.572 207.343L181.822 224.705C180.968 226.943 178.832 228.464 176.525 228.464H160.462C157.3 228.464 154.737 225.779 154.737 222.468V208.775Z" fill="#84A359"/>
<path d="M185.971 210.78H187.228C188.652 210.78 189.909 211.654 190.496 212.964L197.617 229.034C199.377 232.964 199.377 237.418 197.701 241.436L189.239 261.611C187.731 265.279 182.369 264.143 182.369 260.126V214.448C182.369 212.44 183.961 210.78 185.971 210.78Z" fill="#84A359"/>
<path d="M144.79 103.35V149.043C144.79 150.672 145.578 152.215 146.893 153.244L152.328 157.359C166.177 167.904 182.13 175.448 199.223 179.563L208.777 181.877C212.196 182.735 215.526 180.163 215.526 176.734V132.841C215.526 130.783 214.387 128.983 212.546 128.04L152.766 98.7208C148.997 96.7491 144.79 99.3209 144.79 103.35Z" fill="#84A359"/>
<path d="M209.448 329.043C211.584 329.043 213.316 327.064 213.316 324.622C213.316 322.181 211.584 320.201 209.448 320.201C207.311 320.201 205.579 322.181 205.579 324.622C205.579 327.064 207.311 329.043 209.448 329.043Z" fill="#507146"/>
<path d="M257.526 320.201C260.578 320.201 263.053 317.974 263.053 315.227C263.053 312.48 260.578 310.253 257.526 310.253C254.474 310.253 252 312.48 252 315.227C252 317.974 254.474 320.201 257.526 320.201Z" fill="#507146"/>
<path d="M145.895 151.096C148.336 151.096 150.316 149.117 150.316 146.675C150.316 144.233 148.336 142.254 145.895 142.254C143.453 142.254 141.474 144.233 141.474 146.675C141.474 149.117 143.453 151.096 145.895 151.096Z" fill="#B5B758"/>
<path d="M152.526 142.254C155.578 142.254 158.053 139.78 158.053 136.727C158.053 133.675 155.578 131.201 152.526 131.201C149.474 131.201 147 133.675 147 136.727C147 139.78 149.474 142.254 152.526 142.254Z" fill="#B5B758"/>
<path d="M204.474 183.148C206.915 183.148 208.895 181.169 208.895 178.727C208.895 176.286 206.915 174.306 204.474 174.306C202.032 174.306 200.053 176.286 200.053 178.727C200.053 181.169 202.032 183.148 204.474 183.148Z" fill="#B5B758"/>
<path d="M216.631 243.938C219.073 243.938 221.053 241.711 221.053 238.964C221.053 236.218 219.073 233.991 216.631 233.991C214.19 233.991 212.21 236.218 212.21 238.964C212.21 241.711 214.19 243.938 216.631 243.938Z" fill="#B5B758"/>
<path d="M219.947 259.412C222.389 259.412 224.368 257.432 224.368 254.99C224.368 252.549 222.389 250.569 219.947 250.569C217.506 250.569 215.526 252.549 215.526 254.99C215.526 257.432 217.506 259.412 219.947 259.412Z" fill="#B5B758"/>
<path d="M203.921 281.517C206.058 281.517 207.79 279.538 207.79 277.096C207.79 274.654 206.058 272.675 203.921 272.675C201.785 272.675 200.053 274.654 200.053 277.096C200.053 279.538 201.785 281.517 203.921 281.517Z" fill="#B5B758"/>
<path d="M270.237 240.622C272.374 240.622 274.105 238.148 274.105 235.096C274.105 232.044 272.374 229.569 270.237 229.569C268.101 229.569 266.369 232.044 266.369 235.096C266.369 238.148 268.101 240.622 270.237 240.622Z" fill="#B5B758"/>
<path d="M281.842 204.148C284.284 204.148 286.263 201.674 286.263 198.622C286.263 195.57 284.284 193.096 281.842 193.096C279.401 193.096 277.421 195.57 277.421 198.622C277.421 201.674 279.401 204.148 281.842 204.148Z" fill="#B5B758"/>
<path d="M265.263 206.359C267.705 206.359 269.684 204.38 269.684 201.938C269.684 199.496 267.705 197.517 265.263 197.517C262.822 197.517 260.842 199.496 260.842 201.938C260.842 204.38 262.822 206.359 265.263 206.359Z" fill="#B5B758"/>
<path d="M294.553 252.78C297.3 252.78 299.526 250.801 299.526 248.359C299.526 245.917 297.3 243.938 294.553 243.938C291.806 243.938 289.579 245.917 289.579 248.359C289.579 250.801 291.806 252.78 294.553 252.78Z" fill="#B5B758"/>
<path d="M281.842 258.306C284.284 258.306 286.263 256.327 286.263 253.885C286.263 251.444 284.284 249.464 281.842 249.464C279.401 249.464 277.421 251.444 277.421 253.885C277.421 256.327 279.401 258.306 281.842 258.306Z" fill="#B5B758"/>
<path d="M263.052 279.306C265.494 279.306 267.473 277.079 267.473 274.333C267.473 271.586 265.494 269.359 263.052 269.359C260.611 269.359 258.631 271.586 258.631 274.333C258.631 277.079 260.611 279.306 263.052 279.306Z" fill="#B5B758"/>
<path d="M282.395 300.307C284.531 300.307 286.263 297.832 286.263 294.78C286.263 291.728 284.531 289.254 282.395 289.254C280.258 289.254 278.526 291.728 278.526 294.78C278.526 297.832 280.258 300.307 282.395 300.307Z" fill="#B5B758"/>
<path d="M246.474 316.886C248.915 316.886 250.895 314.906 250.895 312.465C250.895 310.023 248.915 308.043 246.474 308.043C244.032 308.043 242.053 310.023 242.053 312.465C242.053 314.906 244.032 316.886 246.474 316.886Z" fill="#B5B758"/>
<path d="M213.868 313.57C216.615 313.57 218.842 311.59 218.842 309.149C218.842 306.707 216.615 304.728 213.868 304.728C211.121 304.728 208.895 306.707 208.895 309.149C208.895 311.59 211.121 313.57 213.868 313.57Z" fill="#B5B758"/>
<path d="M204.474 329.043C206.915 329.043 208.895 327.064 208.895 324.622C208.895 322.181 206.915 320.201 204.474 320.201C202.032 320.201 200.053 322.181 200.053 324.622C200.053 327.064 202.032 329.043 204.474 329.043Z" fill="#B5B758"/>
<path d="M285.158 292.569C287.6 292.569 289.579 290.343 289.579 287.596C289.579 284.849 287.6 282.622 285.158 282.622C282.716 282.622 280.737 284.849 280.737 287.596C280.737 290.343 282.716 292.569 285.158 292.569Z" fill="#507146"/>
<path d="M267.474 283.728C269.915 283.728 271.895 281.501 271.895 278.754C271.895 276.007 269.915 273.78 267.474 273.78C265.032 273.78 263.053 276.007 263.053 278.754C263.053 281.501 265.032 283.728 267.474 283.728Z" fill="#507146"/>
<path d="M212.21 254.99C215.262 254.99 217.737 253.258 217.737 251.122C217.737 248.985 215.262 247.253 212.21 247.253C209.158 247.253 206.684 248.985 206.684 251.122C206.684 253.258 209.158 254.99 212.21 254.99Z" fill="#507146"/>
<path d="M225.474 275.991C227.915 275.991 229.895 274.259 229.895 272.122C229.895 269.986 227.915 268.254 225.474 268.254C223.032 268.254 221.053 269.986 221.053 272.122C221.053 274.259 223.032 275.991 225.474 275.991Z" fill="#507146"/>
<path d="M277.974 205.254C280.721 205.254 282.947 203.274 282.947 200.833C282.947 198.391 280.721 196.412 277.974 196.412C275.227 196.412 273 198.391 273 200.833C273 203.274 275.227 205.254 277.974 205.254Z" fill="#507146"/>
<path d="M294.553 193.096C297.3 193.096 299.526 191.117 299.526 188.675C299.526 186.233 297.3 184.254 294.553 184.254C291.806 184.254 289.579 186.233 289.579 188.675C289.579 191.117 291.806 193.096 294.553 193.096Z" fill="#507146"/>
<path d="M152.526 158.833C155.578 158.833 158.053 156.606 158.053 153.859C158.053 151.112 155.578 148.885 152.526 148.885C149.474 148.885 147 151.112 147 153.859C147 156.606 149.474 158.833 152.526 158.833Z" fill="#507146"/>
<path d="M273 197.517C276.052 197.517 278.526 195.29 278.526 192.543C278.526 189.797 276.052 187.57 273 187.57C269.948 187.57 267.474 189.797 267.474 192.543C267.474 195.29 269.948 197.517 273 197.517Z" fill="#849258"/>
<path d="M265.263 231.78C267.705 231.78 269.684 230.048 269.684 227.911C269.684 225.775 267.705 224.043 265.263 224.043C262.822 224.043 260.842 225.775 260.842 227.911C260.842 230.048 262.822 231.78 265.263 231.78Z" fill="#849258"/>
<path d="M279.632 235.096C282.073 235.096 284.053 233.117 284.053 230.675C284.053 228.233 282.073 226.254 279.632 226.254C277.19 226.254 275.21 228.233 275.21 230.675C275.21 233.117 277.19 235.096 279.632 235.096Z" fill="#849258"/>
<path d="M291.237 258.306C293.373 258.306 295.105 256.327 295.105 253.885C295.105 251.444 293.373 249.464 291.237 249.464C289.1 249.464 287.368 251.444 287.368 253.885C287.368 256.327 289.1 258.306 291.237 258.306Z" fill="#849258"/>
<path d="M225.474 251.675C227.915 251.675 229.895 249.448 229.895 246.701C229.895 243.954 227.915 241.728 225.474 241.728C223.032 241.728 221.053 243.954 221.053 246.701C221.053 249.448 223.032 251.675 225.474 251.675Z" fill="#849258"/>
<path d="M265.263 272.674C267.705 272.674 269.684 270.695 269.684 268.253C269.684 265.812 267.705 263.833 265.263 263.833C262.822 263.833 260.842 265.812 260.842 268.253C260.842 270.695 262.822 272.674 265.263 272.674Z" fill="#849258"/>
<path d="M225.671 170.145H224.171V171.645V186.5H176.5V33.5024H214.024H215.524V32.0024V1.5H313.5V170.145H225.671Z" fill="white" stroke="black" stroke-width="3" stroke-miterlimit="10"/>
<path d="M221.5 216.5L221.5 328.5L46.5 328.5L46.5 216.5L221.5 216.5Z" fill="white" stroke="black" stroke-width="3" stroke-miterlimit="10"/>
<path d="M118.015 285.848L130.398 285.848L130.398 250.822L118.015 250.822L118.015 285.848Z" fill="black"/>
<path d="M180.734 158.912L204.145 158.912L204.145 146.989L180.734 146.989L180.734 158.912Z" fill="black"/>
<path d="M217.339 114.432L229.723 114.432L229.723 79.4062L217.339 79.4062L217.339 114.432Z" fill="black"/>
<path d="M126.4 265.682C126.77 265.682 127.078 265.373 127.078 265.002C127.078 264.632 126.77 264.323 126.4 264.323C126.031 264.323 125.723 264.632 125.723 265.002C125.723 265.373 126.031 265.682 126.4 265.682Z" fill="white"/>
<path d="M126.277 270.005V272.415C126.277 272.847 125.661 272.847 125.661 272.415V270.005H124.798L125.723 266.793H125.599L125.045 268.585C124.922 268.955 124.367 268.832 124.49 268.399L125.106 266.422C125.168 266.175 125.476 265.805 125.969 265.805H126.4H126.893C127.386 265.805 127.694 266.237 127.756 266.422L128.372 268.399C128.495 268.832 127.941 269.017 127.817 268.585L127.263 266.793H127.078L128.002 270.005H127.14V272.415C127.14 272.847 126.524 272.847 126.524 272.415V270.005H126.277Z" fill="white"/>
<path d="M121.132 265.867C120.639 265.867 120.269 266.237 120.269 266.793V268.894C120.269 269.326 120.885 269.326 120.885 268.894V266.979H121.008V272.353C121.008 272.909 121.809 272.909 121.809 272.353V269.202H121.932V272.353C121.932 272.909 122.733 272.909 122.733 272.353V266.979H122.857V268.894C122.857 269.326 123.473 269.326 123.473 268.894V266.793C123.473 266.361 123.103 265.867 122.61 265.867H121.132Z" fill="white"/>
<path d="M121.871 265.62C122.245 265.62 122.548 265.315 122.548 264.94C122.548 264.565 122.245 264.261 121.871 264.261C121.496 264.261 121.193 264.565 121.193 264.94C121.193 265.315 121.496 265.62 121.871 265.62Z" fill="white"/>
<path d="M223.359 94.4435C223.729 94.4435 224.037 94.1346 224.037 93.764C224.037 93.3933 223.729 93.0845 223.359 93.0845C222.989 93.0845 222.681 93.3933 222.681 93.764C222.681 94.1346 222.989 94.4435 223.359 94.4435Z" fill="white"/>
<path d="M223.236 98.7677V101.177C223.236 101.609 222.619 101.609 222.619 101.177V98.7677H221.757L222.681 95.5555H222.558L222.003 97.3469C221.88 97.7176 221.326 97.594 221.449 97.1616L222.065 95.1848C222.127 94.9377 222.435 94.5671 222.928 94.5671H223.359H223.852C224.345 94.5671 224.653 94.9995 224.714 95.1848L225.33 97.1616C225.453 97.594 224.899 97.7793 224.776 97.3469L224.221 95.5555H224.036L224.961 98.7677H224.098V101.177C224.098 101.609 223.482 101.609 223.482 101.177V98.7677H223.236Z" fill="white"/>
<path d="M191.877 150.287C191.384 150.287 191.014 150.658 191.014 151.214V153.314C191.014 153.746 191.63 153.746 191.63 153.314V151.399H191.753V156.773C191.753 157.329 192.554 157.329 192.554 156.773V153.623H192.678V156.773C192.678 157.329 193.479 157.329 193.479 156.773V151.399H193.602V153.314C193.602 153.746 194.218 153.746 194.218 153.314V151.214C194.218 150.781 193.848 150.287 193.355 150.287H191.877Z" fill="white"/>
<path d="M192.616 150.102C192.99 150.102 193.293 149.797 193.293 149.422C193.293 149.047 192.99 148.743 192.616 148.743C192.241 148.743 191.938 149.047 191.938 149.422C191.938 149.797 192.241 150.102 192.616 150.102Z" fill="white"/>
<path d="M180.745 182.246L191.773 182.246L191.773 161.366L180.745 161.366L180.745 182.246Z" fill="black"/>
<path d="M193.786 182.286H206.293H219.539V161.407V147.013H206.293V161.407H193.786V182.286Z" fill="#DAC452"/>
<path d="M232.198 114.432L256.349 114.432L256.349 79.4062L232.198 79.4062L232.198 114.432Z" fill="black"/>
<path d="M258.209 114.432L270.593 114.432L270.593 79.4062L258.209 79.4062L258.209 114.432Z" fill="black"/>
<path d="M268.025 100.312V94.9997C268.025 94.4437 267.594 94.0113 267.039 94.0113H261.741C261.187 94.0113 260.755 94.4437 260.755 94.9997V100.312C260.755 100.868 261.187 101.301 261.741 101.301H267.039C267.594 101.239 268.025 100.868 268.025 100.312ZM267.224 100.436H261.556V94.8143H267.224V100.436Z" fill="white"/>
<path d="M265.253 90.5519C265.253 90.1194 265.869 90.1194 265.869 90.5519V92.2815L266.177 91.9109C266.423 91.6638 266.793 92.0344 266.547 92.2815L265.746 93.2081C265.623 93.3317 265.438 93.3317 265.315 93.2081L264.514 92.2815C264.267 91.9727 264.698 91.6638 264.883 91.9109L265.191 92.3433L265.253 90.5519Z" fill="white"/>
<path d="M262.912 93.0211C262.912 93.4535 263.528 93.4535 263.528 93.0211V91.2914L263.836 91.6621C264.082 91.9092 264.452 91.5385 264.205 91.2914L263.404 90.3648C263.281 90.2413 263.096 90.2413 262.973 90.3648L262.172 91.2914C261.926 91.6003 262.357 91.9092 262.542 91.6621L262.85 91.2297L262.912 93.0211Z" fill="white"/>
<path d="M265.993 96.4818H264.946C264.822 96.4818 264.699 96.6053 264.699 96.7289V98.0261C264.699 98.1497 264.761 98.2115 264.884 98.2115C264.884 98.2115 264.946 98.2115 265.007 98.2115V99.8793C265.007 100.188 265.439 100.188 265.439 99.8793V98.2115H265.5V99.8793C265.5 100.188 265.931 100.188 265.931 99.8793V98.2115C265.993 98.2115 266.055 98.2115 266.055 98.2115C266.178 98.2115 266.239 98.1497 266.239 98.0261V96.7289C266.239 96.6053 266.178 96.4818 265.993 96.4818Z" fill="white"/>
<path d="M265.5 96.3583C265.671 96.3583 265.808 96.22 265.808 96.0494C265.808 95.8788 265.671 95.7405 265.5 95.7405C265.33 95.7405 265.192 95.8788 265.192 96.0494C265.192 96.22 265.33 96.3583 265.5 96.3583Z" fill="white"/>
<path d="M263.775 96.4818H262.727C262.604 96.4818 262.481 96.6053 262.481 96.7289V98.0261C262.481 98.1497 262.543 98.2115 262.666 98.2115C262.666 98.2115 262.727 98.2115 262.789 98.2115V99.8793C262.789 100.188 263.22 100.188 263.22 99.8793V98.2115H263.282V99.8793C263.282 100.188 263.713 100.188 263.713 99.8793V98.2115C263.775 98.2115 263.836 98.2115 263.836 98.2115C263.96 98.2115 264.021 98.1497 264.021 98.0261V96.7289C264.021 96.6053 263.898 96.4818 263.775 96.4818Z" fill="white"/>
<path d="M263.282 96.3583C263.452 96.3583 263.59 96.22 263.59 96.0494C263.59 95.8788 263.452 95.7405 263.282 95.7405C263.112 95.7405 262.974 95.8788 262.974 96.0494C262.974 96.22 263.112 96.3583 263.282 96.3583Z" fill="white"/>
<path d="M180.553 114.432L215.485 114.432L215.485 79.4062L180.553 79.4062L180.553 114.432Z" fill="black"/>
<path d="M281.333 79.4321H308.749V114.458H296.92L281.333 92.59V79.4321Z" fill="#DAC452"/>
<path d="M260.14 5.85938V54.105H308.749V5.85938L260.14 5.85938Z" fill="#DAC452"/>
<path d="M220 6.41162V54.4116H247V6.41162L220 6.41162Z" fill="#DAC452"/>
<path d="M180.553 76.9297L215.485 76.9297L215.485 38.8768L180.553 38.8768L180.553 76.9297Z" fill="black"/>
<path d="M132.871 285.848L150.122 285.848L150.122 250.822L132.871 250.822L132.871 285.848Z" fill="black"/>
<path d="M174 285.588L183 285.588L183 266.588L174 266.588L174 285.588Z" fill="#C8A67C"/>
<path d="M185 285.588L192 285.588L192 266.588L185 266.588L185 285.588Z" fill="#C8A67C"/>
<path d="M194.494 285.847L217.413 285.847L217.413 266.944L194.494 266.944L194.494 285.847Z" fill="#C8A67C"/>
<path d="M173.64 248.694V264.755H217.383V220.71H166.74V248.694H173.64Z" fill="black"/>
<path d="M158.884 285.848L171.268 285.848L171.268 250.822L158.884 250.822L158.884 285.848Z" fill="black"/>
<path d="M168.65 273.836V268.523C168.65 267.967 168.219 267.535 167.664 267.535H162.366C161.812 267.535 161.38 267.967 161.38 268.523V273.836C161.38 274.392 161.812 274.824 162.366 274.824H167.664C168.219 274.762 168.65 274.392 168.65 273.836ZM167.911 273.959H162.243V268.338H167.911V273.959Z" fill="white"/>
<path d="M165.939 264.075C165.939 263.643 166.556 263.643 166.556 264.075V265.805L166.864 265.434C167.11 265.187 167.48 265.558 167.233 265.805L166.432 266.732C166.309 266.855 166.124 266.855 166.001 266.732L165.2 265.805C164.954 265.496 165.385 265.187 165.57 265.434L165.878 265.867L165.939 264.075Z" fill="white"/>
<path d="M163.537 266.544C163.537 266.977 164.153 266.977 164.153 266.544V264.815L164.461 265.185C164.707 265.433 165.077 265.062 164.83 264.815L164.029 263.888C163.906 263.765 163.721 263.765 163.598 263.888L162.797 264.815C162.551 265.124 162.982 265.433 163.167 265.185L163.475 264.753L163.537 266.544Z" fill="white"/>
<path d="M166.68 270.005H165.632C165.509 270.005 165.386 270.129 165.386 270.252V271.55C165.386 271.673 165.447 271.735 165.571 271.735C165.571 271.735 165.632 271.735 165.694 271.735V273.403C165.694 273.712 166.125 273.712 166.125 273.403V271.735H166.187V273.403C166.187 273.712 166.618 273.712 166.618 273.403V271.735C166.68 271.735 166.741 271.735 166.741 271.735C166.864 271.735 166.926 271.673 166.926 271.55V270.252C166.926 270.129 166.864 270.005 166.68 270.005Z" fill="white"/>
<path d="M166.186 269.882C166.357 269.882 166.495 269.743 166.495 269.573C166.495 269.402 166.357 269.264 166.186 269.264C166.016 269.264 165.878 269.402 165.878 269.573C165.878 269.743 166.016 269.882 166.186 269.882Z" fill="white"/>
<path d="M164.461 270.005H163.414C163.291 270.005 163.167 270.129 163.167 270.252V271.55C163.167 271.673 163.229 271.735 163.352 271.735C163.352 271.735 163.414 271.735 163.476 271.735V273.403C163.476 273.712 163.907 273.712 163.907 273.403V271.735H163.968V273.403C163.968 273.712 164.4 273.712 164.4 273.403V271.735C164.461 271.735 164.523 271.735 164.523 271.735C164.646 271.735 164.708 271.673 164.708 271.55V270.252C164.708 270.129 164.584 270.005 164.461 270.005Z" fill="white"/>
<path d="M163.968 269.882C164.138 269.882 164.276 269.743 164.276 269.573C164.276 269.402 164.138 269.264 163.968 269.264C163.798 269.264 163.66 269.402 163.66 269.573C163.66 269.743 163.798 269.882 163.968 269.882Z" fill="white"/>
<path d="M116.158 285.82V250.794H88.0644V220.71H69.8281V250.794V285.82H116.158Z" fill="black"/>
<path d="M118.05 248.74L143.988 248.74L143.988 220.756L118.05 220.756L118.05 248.74Z" fill="black"/>
<path d="M90 323.412L116 323.412L116 299.412L90 299.412L90 323.412Z" fill="#C8A67C"/>
<path d="M119 323.412L145 323.412L145 299.412L119 299.412L119 323.412Z" fill="#C8A67C"/>
<path d="M51.0731 285.865L67.646 285.865L67.646 220.755L51.0731 220.755L51.0731 285.865Z" fill="black"/>
<path d="M51.0686 323.634L88.0957 323.634L88.0957 287.805L51.0686 287.805L51.0686 323.634Z" fill="black"/>
<path d="M246.832 72.231L270.552 72.231L270.552 59.3819L246.832 59.3819L246.832 72.231Z" fill="black"/>
<path d="M257.921 63.2477C258.291 63.2477 258.599 62.9388 258.599 62.5682C258.599 62.1975 258.291 61.8887 257.921 61.8887C257.552 61.8887 257.244 62.1975 257.244 62.5682C257.305 63.0006 257.552 63.2477 257.921 63.2477Z" fill="white"/>
<path d="M262.481 62.6919H260.94C260.632 62.6919 260.201 62.8154 259.955 63.0625L258.538 64.4833V64.0509C258.538 63.1861 257.244 63.1861 257.244 64.0509V65.7188L256.012 66.9543C255.888 67.0778 255.888 67.0778 255.642 67.0778H254.903C254.163 67.0778 253.67 67.7573 253.67 68.3133C253.67 68.8693 254.102 69.6106 254.964 69.6106C254.964 69.6106 256.012 69.6106 256.32 69.6106C256.628 69.6106 256.997 69.487 257.305 69.1781L261.248 65.2864C261.31 65.2246 261.372 65.1628 261.495 65.1628C261.495 65.1628 262.049 65.1628 262.481 65.1628C262.973 65.1628 263.589 64.6069 263.589 63.8656C263.651 63.1861 262.973 62.6919 262.481 62.6919ZM262.419 64.5451H261.618C261.248 64.5451 261.125 64.6069 260.94 64.7922L256.997 68.7457C256.812 68.931 256.628 68.9928 256.381 68.9928H255.087C254.779 68.9928 254.471 68.684 254.471 68.3133C254.471 67.9427 254.779 67.7573 255.026 67.7573H255.888C256.135 67.7573 256.32 67.6956 256.443 67.5102L260.447 63.4949C260.632 63.3096 260.755 63.3096 261.064 63.3096H262.419C262.727 63.3096 262.973 63.6802 262.973 63.9273C262.973 64.1744 262.789 64.5451 262.419 64.5451Z" fill="white"/>
<path d="M236.912 138.843L270.551 138.843L270.551 125.994L236.912 125.994L236.912 138.843Z" fill="black"/>
<path d="M252.993 129.84C253.362 129.84 253.67 129.531 253.67 129.16C253.67 128.79 253.362 128.481 252.993 128.481C252.623 128.481 252.315 128.79 252.315 129.16C252.377 129.593 252.623 129.84 252.993 129.84Z" fill="white"/>
<path d="M257.552 129.284H256.012C255.704 129.284 255.272 129.407 255.026 129.654L253.609 131.075V130.643C253.609 129.778 252.315 129.778 252.315 130.643V132.311L251.083 133.546C250.96 133.67 250.96 133.67 250.713 133.67H249.974C249.235 133.67 248.742 134.349 248.742 134.905C248.742 135.461 249.173 136.202 250.035 136.202C250.035 136.202 251.083 136.202 251.391 136.202C251.699 136.202 252.069 136.079 252.377 135.77L256.32 131.878C256.381 131.816 256.443 131.755 256.566 131.755C256.566 131.755 257.121 131.755 257.552 131.755C258.045 131.755 258.661 131.199 258.661 130.457C258.722 129.778 258.045 129.284 257.552 129.284ZM257.49 131.137H256.689C256.32 131.137 256.196 131.199 256.012 131.384L252.069 135.338C251.884 135.523 251.699 135.585 251.453 135.585H250.159C249.851 135.585 249.543 135.276 249.543 134.905C249.543 134.534 249.851 134.349 250.097 134.349H250.96C251.206 134.349 251.391 134.287 251.514 134.102L255.519 130.087C255.704 129.901 255.827 129.901 256.135 129.901H257.49C257.798 129.901 258.045 130.272 258.045 130.519C258.045 130.766 257.86 131.137 257.49 131.137Z" fill="white"/>
<path d="M158.864 323.632L192.502 323.632L192.502 310.783L158.864 310.783L158.864 323.632Z" fill="black"/>
<path d="M174.934 314.669C175.304 314.669 175.612 314.36 175.612 313.989C175.612 313.618 175.304 313.31 174.934 313.31C174.564 313.31 174.256 313.618 174.256 313.989C174.256 314.36 174.564 314.669 174.934 314.669Z" fill="white"/>
<path d="M179.493 314.051H177.953C177.645 314.051 177.214 314.174 176.967 314.421L175.55 315.842V315.41C175.55 314.545 174.256 314.545 174.256 315.41V317.078L173.024 318.313C172.901 318.437 172.901 318.437 172.655 318.437H171.915C171.176 318.437 170.683 319.116 170.683 319.672C170.683 320.228 171.114 320.969 171.977 320.969C171.977 320.969 173.024 320.969 173.332 320.969C173.64 320.969 174.01 320.846 174.318 320.537L178.199 316.645C178.261 316.584 178.323 316.522 178.446 316.522C178.446 316.522 179 316.522 179.432 316.522C179.924 316.522 180.541 315.966 180.541 315.224C180.602 314.607 179.986 314.051 179.493 314.051ZM179.37 315.966H178.569C178.199 315.966 178.076 316.028 177.891 316.213L173.948 320.166C173.764 320.352 173.579 320.414 173.332 320.414H171.977C171.669 320.414 171.361 320.105 171.361 319.734C171.361 319.363 171.669 319.178 171.915 319.178H172.778C173.024 319.178 173.209 319.116 173.332 318.931L177.337 314.916C177.522 314.73 177.645 314.73 177.953 314.73H179.308C179.616 314.73 179.863 315.101 179.863 315.348C179.863 315.595 179.801 315.966 179.37 315.966Z" fill="white"/>
<path d="M223.079 194.703H242.178L242.24 212.123H223.141L223.079 194.703Z" fill="black"/>
<path d="M236.264 207.922V202.61C236.264 202.054 235.832 201.622 235.278 201.622H229.979C229.425 201.622 228.994 202.054 228.994 202.61V207.922C228.994 208.478 229.425 208.911 229.979 208.911H235.278C235.832 208.911 236.264 208.478 236.264 207.922ZM235.463 208.108H229.795V202.486H235.463V208.108Z" fill="white"/>
<path d="M233.491 198.224C233.491 197.792 234.107 197.792 234.107 198.224V199.954L234.415 199.583C234.662 199.336 235.031 199.707 234.785 199.954L233.984 200.881C233.861 201.004 233.676 201.004 233.553 200.881L232.752 199.954C232.505 199.645 232.937 199.336 233.122 199.583L233.43 200.016L233.491 198.224Z" fill="white"/>
<path d="M231.15 200.633C231.15 201.066 231.766 201.066 231.766 200.633V198.904L232.074 199.274C232.32 199.521 232.69 199.151 232.444 198.904L231.643 197.977C231.52 197.853 231.335 197.853 231.212 197.977L230.411 198.904C230.164 199.212 230.595 199.521 230.78 199.274L231.088 198.842L231.15 200.633Z" fill="white"/>
<path d="M234.231 204.155H233.184C233.061 204.155 232.938 204.278 232.938 204.402V205.699C232.938 205.822 232.999 205.884 233.122 205.884C233.122 205.884 233.184 205.884 233.246 205.884V207.552C233.246 207.861 233.677 207.861 233.677 207.552V205.884H233.738V207.552C233.738 207.861 234.17 207.861 234.17 207.552V205.884C234.231 205.884 234.293 205.884 234.293 205.884C234.416 205.884 234.478 205.822 234.478 205.699V204.402C234.478 204.278 234.416 204.155 234.231 204.155Z" fill="white"/>
<path d="M233.739 204.031C233.909 204.031 234.047 203.893 234.047 203.722C234.047 203.551 233.909 203.413 233.739 203.413C233.569 203.413 233.431 203.551 233.431 203.722C233.431 203.893 233.569 204.031 233.739 204.031Z" fill="white"/>
<path d="M232.013 204.155H230.966C230.842 204.155 230.719 204.278 230.719 204.402V205.699C230.719 205.822 230.781 205.884 230.904 205.884C230.904 205.884 230.966 205.884 231.027 205.884V207.552C231.027 207.861 231.459 207.861 231.459 207.552V205.884H231.52V207.552C231.52 207.861 231.951 207.861 231.951 207.552V205.884C232.013 205.884 232.075 205.884 232.075 205.884C232.198 205.884 232.26 205.822 232.26 205.699V204.402C232.26 204.278 232.136 204.155 232.013 204.155Z" fill="white"/>
<path d="M231.521 204.031C231.691 204.031 231.829 203.893 231.829 203.722C231.829 203.551 231.691 203.413 231.521 203.413C231.351 203.413 231.213 203.551 231.213 203.722C231.213 203.893 231.351 204.031 231.521 204.031Z" fill="white"/>
<path d="M227.719 187.63L261.358 187.63L261.358 174.781L227.719 174.781L227.719 187.63Z" fill="black"/>
<path d="M243.78 178.642C244.15 178.642 244.458 178.333 244.458 177.962C244.458 177.592 244.15 177.283 243.78 177.283C243.411 177.283 243.103 177.592 243.103 177.962C243.164 178.395 243.411 178.642 243.78 178.642Z" fill="white"/>
<path d="M248.339 178.086H246.799C246.491 178.086 246.06 178.209 245.813 178.457L244.396 179.877V179.445C244.396 178.58 243.103 178.58 243.103 179.445V181.113L241.87 182.348C241.747 182.472 241.747 182.472 241.501 182.472H240.761C240.022 182.472 239.529 183.151 239.529 183.707C239.529 184.263 239.961 185.005 240.823 185.005C240.823 185.005 241.87 185.005 242.178 185.005C242.487 185.005 242.856 184.881 243.164 184.572L247.107 180.68C247.169 180.619 247.23 180.557 247.354 180.557C247.354 180.557 247.908 180.557 248.339 180.557C248.832 180.557 249.448 180.001 249.448 179.26C249.51 178.58 248.832 178.086 248.339 178.086ZM248.278 179.939H247.477C247.107 179.939 246.984 180.001 246.799 180.186L242.856 184.14C242.671 184.325 242.487 184.387 242.24 184.387H240.946C240.638 184.387 240.33 184.078 240.33 183.707C240.33 183.337 240.638 183.151 240.885 183.151H241.747C241.994 183.151 242.178 183.09 242.302 182.904L246.306 178.889C246.491 178.704 246.614 178.704 246.922 178.704H248.278C248.586 178.704 248.832 179.074 248.832 179.321C248.832 179.569 248.709 179.939 248.278 179.939Z" fill="white"/>
<path d="M231.222 315.393H232.72L234.102 310.638H234.159L235.544 315.393H237.042L239.123 308.12H237.443L236.24 313.184H236.176L234.851 308.12H233.413L232.085 313.174H232.024L230.821 308.12H229.141L231.222 315.393ZM239.946 315.393H244.861V314.125H241.484V312.389H244.595V311.121H241.484V309.388H244.847V308.12H239.946V315.393ZM250.014 310.212H251.488C251.467 308.916 250.402 308.021 248.782 308.021C247.188 308.021 246.019 308.902 246.027 310.223C246.023 311.295 246.779 311.909 248.008 312.204L248.8 312.403C249.592 312.595 250.032 312.822 250.036 313.312C250.032 313.845 249.528 314.207 248.747 314.207C247.948 314.207 247.372 313.838 247.323 313.11H245.835C245.874 314.683 247 315.496 248.764 315.496C250.54 315.496 251.584 314.647 251.588 313.316C251.584 312.105 250.671 311.462 249.407 311.178L248.754 311.022C248.122 310.876 247.593 310.642 247.603 310.12C247.603 309.651 248.019 309.306 248.772 309.306C249.507 309.306 249.958 309.64 250.014 310.212ZM252.345 309.388H254.571V315.393H256.091V309.388H258.318V308.12H252.345V309.388ZM229.308 321.388H231.534V327.393H233.054V321.388H235.281V320.12H229.308V321.388ZM242.625 323.757C242.625 321.377 241.148 320.021 239.22 320.021C237.281 320.021 235.814 321.377 235.814 323.757C235.814 326.125 237.281 327.492 239.22 327.492C241.148 327.492 242.625 326.136 242.625 323.757ZM241.066 323.757C241.066 325.298 240.335 326.132 239.22 326.132C238.101 326.132 237.373 325.298 237.373 323.757C237.373 322.216 238.101 321.381 239.22 321.381C240.335 321.381 241.066 322.216 241.066 323.757ZM245.128 327.393H246.627L248.008 322.638H248.065L249.45 327.393H250.948L253.029 320.12H251.35L250.146 325.184H250.082L248.757 320.12H247.319L245.991 325.174H245.931L244.727 320.12H243.047L245.128 327.393ZM253.852 327.393H258.767V326.125H255.39V324.389H258.501V323.121H255.39V321.388H258.753V320.12H253.852V327.393ZM259.975 327.393H261.513V324.815H262.635L264.013 327.393H265.71L264.166 324.566C264.993 324.211 265.451 323.49 265.451 322.496C265.451 321.051 264.496 320.12 262.845 320.12H259.975V327.393ZM261.513 323.579V321.377H262.55C263.438 321.377 263.867 321.772 263.867 322.496C263.867 323.217 263.438 323.579 262.557 323.579H261.513Z" fill="black"/>
<path d="M180.308 10.4116H185.223V9.14387H181.846V7.40736H184.957V6.1396H181.846V4.40665H185.209V3.13889H180.308V10.4116ZM187.685 10.4116L188.225 8.75324H190.849L191.389 10.4116H193.037L190.529 3.13889H188.548L186.037 10.4116H187.685ZM188.615 7.55296L189.51 4.80083H189.567L190.462 7.55296H188.615ZM197.691 5.23051H199.165C199.144 3.93435 198.078 3.03946 196.459 3.03946C194.864 3.03946 193.696 3.92014 193.703 5.24117C193.7 6.31361 194.456 6.92796 195.685 7.2227L196.477 7.42156C197.269 7.61333 197.709 7.8406 197.712 8.33066C197.709 8.86333 197.205 9.22554 196.423 9.22554C195.624 9.22554 195.049 8.85622 194.999 8.12824H193.511C193.551 9.70139 194.676 10.5146 196.441 10.5146C198.217 10.5146 199.261 9.66588 199.264 8.33421C199.261 7.12327 198.348 6.48051 197.084 6.19642L196.431 6.04017C195.798 5.89458 195.269 5.6602 195.28 5.13818C195.28 4.66943 195.695 4.32497 196.448 4.32497C197.183 4.32497 197.634 4.65878 197.691 5.23051ZM200.022 4.40665H202.248V10.4116H203.768V4.40665H205.995V3.13889H200.022V4.40665ZM169.748 16.4066H171.975V22.4116H173.495V16.4066H175.721V15.1389H169.748V16.4066ZM183.066 18.7753C183.066 16.396 181.589 15.0395 179.66 15.0395C177.721 15.0395 176.255 16.396 176.255 18.7753C176.255 21.1439 177.721 22.5111 179.66 22.5111C181.589 22.5111 183.066 21.1545 183.066 18.7753ZM181.507 18.7753C181.507 20.3165 180.775 21.151 179.66 21.151C178.542 21.151 177.814 20.3165 177.814 18.7753C177.814 17.2341 178.542 16.3995 179.66 16.3995C180.775 16.3995 181.507 17.2341 181.507 18.7753ZM185.568 22.4116H187.067L188.448 17.6566H188.505L189.89 22.4116H191.389L193.47 15.1389H191.79L190.586 20.2028H190.522L189.198 15.1389H187.76L186.431 20.1922H186.371L185.167 15.1389H183.488L185.568 22.4116ZM194.293 22.4116H199.208V21.1439H195.83V19.4074H198.941V18.1396H195.83V16.4066H199.193V15.1389H194.293V22.4116ZM200.416 22.4116H201.953V19.8335H203.076L204.453 22.4116H206.151L204.606 19.5849C205.434 19.2298 205.892 18.5089 205.892 17.5146C205.892 16.0693 204.936 15.1389 203.285 15.1389H200.416V22.4116ZM201.953 18.5977V16.396H202.99C203.878 16.396 204.308 16.7902 204.308 17.5146C204.308 18.2355 203.878 18.5977 202.997 18.5977H201.953Z" fill="black"/>
<path d="M2.78125 43H16.4531C23.6406 43 27.4688 39.25 27.4688 34.1562C27.4688 29.4219 24.0781 26.5625 20.4375 26.3906V26.0781C23.7656 25.3281 26.2188 22.9687 26.2188 19.2031C26.2188 14.4062 22.6563 11 15.5937 11H2.78125V43ZM9.54688 37.4687V28.9687H15.2188C18.4688 28.9687 20.4844 30.8438 20.4844 33.4844C20.4844 35.8906 18.8438 37.4687 15.0625 37.4687H9.54688ZM9.54688 24.3906V16.4687H14.6875C17.6875 16.4687 19.3906 18.0156 19.3906 20.3281C19.3906 22.8594 17.3281 24.3906 14.5625 24.3906H9.54688ZM45.6055 11H39.2461L31.3242 16.0156V22.0156L38.6523 17.4219H38.8398V43H45.6055V11Z" fill="black"/>
<path d="M99.8925 310.932H101.02V310.302H99.8925V309.534H99.1005V310.302H97.9485V310.932H99.1005V311.124C99.1005 311.964 98.6685 312.9 97.7625 313.308L98.1885 313.914C98.8185 313.632 99.2625 313.068 99.5085 312.402C99.7545 313.032 100.192 313.56 100.816 313.818L101.236 313.212C100.33 312.822 99.8925 311.922 99.8925 311.124V310.932ZM101.53 309.402V314.928H102.322V309.402H101.53ZM106.186 312.516C106.336 311.604 106.336 310.932 106.336 310.398V309.948H103.492V310.578H105.556C105.556 311.07 105.538 311.664 105.412 312.45L106.186 312.516ZM104.98 311.532H104.2V313.164C103.852 313.17 103.516 313.17 103.21 313.17L103.282 313.818C104.242 313.812 105.478 313.788 106.6 313.596L106.558 313.026C106.054 313.086 105.514 313.122 104.98 313.14V311.532ZM108.346 311.622H107.602V309.396H106.81V314.922H107.602V312.282H108.346V311.622Z" fill="black"/>
<path d="M176.277 275.911C176.277 275.695 176.43 275.569 176.64 275.569C176.847 275.569 177.003 275.695 177.003 275.911C177.003 276.124 176.847 276.253 176.64 276.253C176.43 276.253 176.277 276.124 176.277 275.911ZM177.387 275.911C177.387 275.518 177.063 275.233 176.64 275.233C176.214 275.233 175.89 275.518 175.89 275.911C175.89 276.304 176.214 276.586 176.64 276.586C177.063 276.586 177.387 276.304 177.387 275.911ZM176.202 277.141H177.648V277.849H178.044V276.823H176.202V277.141ZM178.398 275.764V275.443H178.044V275.083H177.648V276.712H178.044V276.364H178.398V276.04H178.044V275.764H178.398ZM181.131 276.469V276.154H180.783C180.837 275.86 180.837 275.629 180.837 275.422V275.2H178.938V275.518H180.447C180.447 275.701 180.438 275.902 180.387 276.154H178.629V276.469H179.679V276.859H178.881V277.171H180.444V277.846H180.843V276.859H180.075V276.469H181.131Z" fill="black"/>
<path d="M188.038 276.073C188.125 275.758 188.125 275.506 188.125 275.329V275.173H187.135V275.485H187.738C187.735 275.629 187.717 275.806 187.657 276.034L188.038 276.073ZM186.784 276.082C186.928 275.758 186.928 275.497 186.928 275.32V275.173H186.073V275.485H186.541C186.529 275.623 186.496 275.788 186.397 276.025L186.784 276.082ZM188.059 277.12V276.814H187.318V276.595H186.916V276.814H186.178V277.12H186.901C186.838 277.309 186.571 277.492 186.067 277.54L186.199 277.834C186.643 277.786 186.955 277.633 187.117 277.42C187.279 277.636 187.594 277.786 188.038 277.834L188.17 277.54C187.666 277.492 187.396 277.309 187.333 277.12H188.059ZM187.36 276.193V275.803H186.973V276.193H185.875V276.511H188.365V276.193H187.36ZM190.351 276.244C189.931 276.121 189.727 275.836 189.706 275.545H190.249V275.233H188.746V275.545H189.298C189.277 275.857 189.076 276.157 188.638 276.286L188.836 276.598C189.16 276.499 189.382 276.292 189.508 276.034C189.634 276.271 189.847 276.46 190.159 276.55L190.351 276.244ZM190.531 277.498H189.481V277.255H190.531V277.498ZM190.531 276.952H189.481V276.7H189.088V277.813H190.924V276.7H190.531V276.952ZM190.525 275.086V276.583H190.924V275.086H190.525Z" fill="black"/>
<path d="M200.821 275.068V278.764H201.349V275.068H200.821ZM199.369 275.328C198.813 275.328 198.401 275.832 198.401 276.64C198.401 277.452 198.813 277.96 199.369 277.96C199.925 277.96 200.337 277.452 200.337 276.64C200.337 275.832 199.925 275.328 199.369 275.328ZM199.369 275.804C199.641 275.804 199.829 276.096 199.829 276.64C199.829 277.188 199.641 277.48 199.369 277.48C199.097 277.48 198.909 277.188 198.909 276.64C198.909 276.096 199.097 275.804 199.369 275.804ZM202.609 275.836H203.329V277.444H202.609V275.836ZM202.089 277.86H203.849V275.42H202.089V277.86ZM205.397 276.46H204.861V275.076H204.333V278.756H204.861V276.896H205.397V276.46ZM208.636 276.972H206.584V276.56H208.524V276.152H206.584V275.764H208.608V275.34H206.048V277.388H208.636V276.972ZM205.656 277.904V278.332H208.992V277.904H205.656ZM209.336 278.412H211.32V277.916H210.676C210.54 277.916 210.344 277.932 210.196 277.948C210.736 277.42 211.18 276.844 211.18 276.308C211.18 275.756 210.808 275.396 210.248 275.396C209.844 275.396 209.58 275.556 209.308 275.844L209.628 276.164C209.776 276 209.956 275.86 210.172 275.86C210.452 275.86 210.616 276.04 210.616 276.34C210.616 276.796 210.14 277.352 209.336 278.072V278.412ZM212.176 277.196L212.636 276.46C212.72 276.3 212.8 276.136 212.872 275.98H212.888C212.88 276.152 212.864 276.42 212.864 276.592V277.196H212.176ZM213.764 277.196H213.412V275.452H212.708L211.604 277.244V277.644H212.864V278.412H213.412V277.644H213.764V277.196Z" fill="black"/>
<path d="M125.721 313.062C125.421 313.062 125.241 312.648 125.241 311.796C125.241 310.95 125.421 310.536 125.721 310.536C126.027 310.536 126.201 310.95 126.201 311.796C126.201 312.648 126.027 313.062 125.721 313.062ZM127.347 311.436H126.909C126.819 310.404 126.375 309.792 125.721 309.792C124.989 309.792 124.527 310.548 124.527 311.796C124.527 313.05 124.989 313.806 125.721 313.806C126.393 313.806 126.843 313.158 126.915 312.078H127.347V314.682H128.085V309.492H127.347V311.436ZM128.469 309.396V314.922H129.219V309.396H128.469ZM133.784 309.396V314.94H134.576V309.396H133.784ZM131.606 309.786C130.772 309.786 130.154 310.542 130.154 311.754C130.154 312.972 130.772 313.734 131.606 313.734C132.44 313.734 133.058 312.972 133.058 311.754C133.058 310.542 132.44 309.786 131.606 309.786ZM131.606 310.5C132.014 310.5 132.296 310.938 132.296 311.754C132.296 312.576 132.014 313.014 131.606 313.014C131.198 313.014 130.916 312.576 130.916 311.754C130.916 310.938 131.198 310.5 131.606 310.5ZM136.412 311.082C136.412 310.65 136.724 310.398 137.144 310.398C137.564 310.398 137.882 310.65 137.882 311.082C137.882 311.514 137.564 311.772 137.144 311.772C136.724 311.772 136.412 311.514 136.412 311.082ZM137.546 312.396C138.194 312.252 138.65 311.748 138.65 311.082C138.65 310.29 138.002 309.72 137.144 309.72C136.292 309.72 135.644 310.29 135.644 311.082C135.644 311.754 136.106 312.264 136.76 312.402V313.182C136.298 313.188 135.848 313.188 135.458 313.188L135.554 313.83C136.484 313.836 137.714 313.836 138.866 313.62L138.8 313.05C138.398 313.098 137.978 313.134 137.546 313.152V312.396ZM140.606 311.568H139.88V309.396H139.088V314.922H139.88V312.222H140.606V311.568Z" fill="black"/>
<path d="M278.057 25.6046C276.601 25.3526 275.803 24.3516 275.803 23.4066V22.9446H274.816V23.4066C274.816 24.3306 274.011 25.3526 272.562 25.6046L272.954 26.3746C274.074 26.1576 274.893 25.5276 275.306 24.7086C275.719 25.5276 276.545 26.1506 277.665 26.3746L278.057 25.6046ZM272.422 27.4806V28.2296H278.26V27.4806H272.422ZM280.038 25.6186H282.054V24.8976H280.038V23.8476H282.145V23.0986H279.114V27.5576H279.66C280.766 27.5576 281.634 27.5296 282.614 27.3826L282.53 26.6476C281.69 26.7736 280.948 26.8086 280.038 26.8156V25.6186ZM284.847 25.0096H283.909V22.5666H282.985V29.0206H283.909V25.7726H284.847V25.0096ZM286.302 27.4316H289.767V29.0206H290.691V26.7036H286.302V27.4316ZM287.716 25.3876H286.491V24.5546H287.716V25.3876ZM289.767 22.5736V24.1416H288.619V22.9376H287.716V23.8476H286.491V22.9446H285.574V26.1296H288.619V24.8836H289.767V26.4166H290.691V22.5666L289.767 22.5736ZM297.375 25.6046C295.919 25.3526 295.121 24.3516 295.121 23.4066V22.9446H294.134V23.4066C294.134 24.3306 293.329 25.3526 291.88 25.6046L292.272 26.3746C293.392 26.1576 294.211 25.5276 294.624 24.7086C295.037 25.5276 295.863 26.1506 296.983 26.3746L297.375 25.6046ZM291.74 27.4806V28.2296H297.578V27.4806H291.74ZM276.93 34.6046H279.023V32.1126H275.978V32.8476H278.078V33.8766H275.985V36.5296H276.566C277.735 36.5296 278.68 36.4876 279.73 36.3056L279.632 35.5566C278.722 35.7106 277.91 35.7596 276.93 35.7666V34.6046ZM280.08 31.5596V38.0276H281.004V31.5596H280.08ZM284.503 32.9316H285.826V32.1826H282.249V32.9316H283.572V33.1556C283.572 34.3526 283.061 35.5916 281.983 36.0956L282.529 36.8236C283.271 36.4526 283.775 35.7386 284.048 34.8706C284.328 35.6756 284.825 36.3406 285.553 36.6976L286.085 35.9696C285.014 35.4796 284.503 34.2896 284.503 33.1556V32.9316ZM286.568 31.5596V33.8136H285.434V34.5626H286.568V38.0276H287.492V31.5596H286.568ZM288.521 36.4946V37.2506H294.359V36.4946H288.521ZM289.137 31.9866V35.4236H293.722V31.9866H292.812V33.0296H290.054V31.9866H289.137ZM290.054 33.7506H292.812V34.6886H290.054V33.7506Z" fill="black"/>
<path d="M228.268 22.9376V23.6656H230.263C230.13 24.5196 229.325 25.2266 227.897 25.5836L228.247 26.3046C230.165 25.8146 231.25 24.6526 231.25 22.9376H228.268ZM229.864 27.1586H232.307V28.2156H229.864V27.1586ZM228.954 28.9366H233.217V26.4306H228.954V28.9366ZM232.286 22.5736V26.1576H233.217V22.5736H232.286ZM237.745 23.0776H236.87V24.1626C236.87 24.9186 236.807 25.7586 236.422 26.4096C236.03 25.7516 235.967 24.9046 235.967 24.1626V23.0776H235.099V24.1626C235.099 25.1916 234.98 26.3116 234.161 26.9486L234.756 27.5786C235.148 27.2636 235.393 26.8016 235.547 26.2556C235.708 26.8296 235.974 27.3406 236.422 27.6836C236.87 27.3406 237.143 26.8296 237.297 26.2346C237.451 26.8086 237.71 27.2846 238.13 27.6136L238.69 26.9486C237.864 26.3116 237.745 25.1986 237.745 24.1626V23.0776ZM238.872 22.5666V29.0136H239.796V22.5666H238.872ZM225.748 32.9036H227.008V35.7176H225.748V32.9036ZM224.838 36.4456H227.918V32.1756H224.838V36.4456ZM230.627 33.9956H229.689V31.5736H228.765V38.0136H229.689V34.7586H230.627V33.9956ZM236.912 34.6816H236.065C236.226 33.7786 236.226 33.1206 236.226 32.5186V31.9376H231.753V32.6796H235.323C235.323 33.2326 235.309 33.8626 235.148 34.6816H231.088V35.4236H233.496V38.0136H234.434V35.4236H236.912V34.6816ZM240.895 36.5506V35.5916H242.848V34.8496H239.11V34.1286H242.701V31.9796H238.186V32.7146H241.791V33.4076H238.193V35.5916H239.971V36.5506H237.521V37.3066H243.359V36.5506H240.895Z" fill="black"/>
<path d="M284.961 86.6366C284.961 86.2766 285.221 86.0666 285.571 86.0666C285.921 86.0666 286.186 86.2766 286.186 86.6366C286.186 86.9966 285.921 87.2116 285.571 87.2116C285.221 87.2116 284.961 86.9966 284.961 86.6366ZM285.906 87.7316C286.446 87.6116 286.826 87.1916 286.826 86.6366C286.826 85.9766 286.286 85.5016 285.571 85.5016C284.861 85.5016 284.321 85.9766 284.321 86.6366C284.321 87.1966 284.706 87.6216 285.251 87.7366V88.3866C284.866 88.3916 284.491 88.3916 284.166 88.3916L284.246 88.9266C285.021 88.9316 286.046 88.9316 287.006 88.7516L286.951 88.2766C286.616 88.3166 286.266 88.3466 285.906 88.3616V87.7316ZM288.456 87.0416H287.851V85.2316H287.191V89.8366H287.851V87.5866H288.456V87.0416ZM292.641 85.2416H291.976V88.5466H292.641V85.2416ZM289.526 86.7016C289.526 86.3216 289.796 86.1016 290.136 86.1016C290.481 86.1016 290.741 86.3216 290.741 86.7016C290.741 87.0716 290.481 87.2966 290.136 87.2966C289.796 87.2966 289.526 87.0716 289.526 86.7016ZM291.386 86.7016C291.386 86.0216 290.841 85.5316 290.136 85.5316C289.431 85.5316 288.881 86.0216 288.881 86.7016C288.881 87.3716 289.431 87.8666 290.136 87.8666C290.841 87.8666 291.386 87.3716 291.386 86.7016ZM290.236 89.2366V88.2216H289.576V89.7616H292.756V89.2366H290.236ZM296.365 87.0616H296.715V88.6666H297.34V85.2366H296.715V86.5316H296.365V85.3216H295.75V88.5166H296.365V87.0616ZM294.025 86.7366C294.025 86.3566 294.215 86.1416 294.485 86.1416C294.75 86.1416 294.945 86.3566 294.945 86.7366C294.945 87.1166 294.75 87.3316 294.485 87.3316C294.215 87.3316 294.025 87.1166 294.025 86.7366ZM295.535 86.7366C295.535 86.0516 295.095 85.5716 294.485 85.5716C293.875 85.5716 293.43 86.0516 293.43 86.7366C293.43 87.4216 293.875 87.9016 294.485 87.9016C295.095 87.9016 295.535 87.4216 295.535 86.7366ZM294.9 89.2366V88.2316H294.24V89.7616H297.455V89.2366H294.9ZM299.1 86.0966H301.085V87.3166H299.1V86.0966ZM300.425 88.7716V87.8366H301.73V85.5766H298.455V87.8366H299.765V88.7716H298.015V89.3066H302.185V88.7716H300.425ZM303.874 88.2466C303.539 88.2466 303.314 87.8816 303.314 87.1966C303.314 86.5166 303.539 86.1516 303.874 86.1516C304.214 86.1516 304.439 86.5166 304.439 87.1966C304.439 87.8816 304.214 88.2466 303.874 88.2466ZM305.819 85.2316V86.8916H305.049C304.959 86.0616 304.494 85.5566 303.874 85.5566C303.189 85.5566 302.684 86.1866 302.684 87.1966C302.684 88.2116 303.189 88.8466 303.874 88.8466C304.514 88.8466 304.984 88.3066 305.054 87.4266H305.819V89.8516H306.479V85.2316H305.819Z" fill="black"/>
<path d="M198.846 173.362C198.536 173.362 198.306 173.152 198.306 172.802C198.306 172.452 198.536 172.237 198.846 172.237C199.156 172.237 199.381 172.452 199.381 172.797C199.381 173.152 199.156 173.362 198.846 173.362ZM198.846 171.702C198.176 171.702 197.676 172.157 197.676 172.797C197.676 173.447 198.176 173.902 198.846 173.902C199.511 173.902 200.006 173.447 200.006 172.797C200.006 172.157 199.511 171.702 198.846 171.702ZM199.171 170.317H198.511V170.917H197.491V171.442H200.171V170.917H199.171V170.317ZM201.791 172.037H201.131V170.237H200.471V174.842H201.131V172.582H201.791V172.037ZM205.275 170.237V172.712H205.94V170.237H205.275ZM202.88 172.912V174.787H205.94V172.912H205.285V173.342H203.535V172.912H202.88ZM203.535 173.847H205.285V174.267H203.535V173.847ZM203.435 170.427C202.72 170.427 202.18 170.882 202.18 171.512C202.18 172.147 202.72 172.602 203.435 172.602C204.15 172.602 204.685 172.147 204.685 171.512C204.685 170.882 204.15 170.427 203.435 170.427ZM203.435 170.972C203.785 170.972 204.04 171.177 204.04 171.512C204.04 171.857 203.785 172.057 203.435 172.057C203.085 172.057 202.825 171.857 202.825 171.512C202.825 171.177 203.085 170.972 203.435 170.972ZM210.54 170.237H209.875V173.622H210.54V170.237ZM208.535 172.382H207.6V171.727H208.535V172.382ZM209.185 170.567H208.535V171.222H207.6V170.567H206.945V172.907H209.185V170.567ZM208.125 174.237V173.292H207.46V174.762H210.645V174.237H208.125ZM215.34 172.407C214.3 172.227 213.73 171.512 213.73 170.837V170.507H213.025V170.837C213.025 171.497 212.45 172.227 211.415 172.407L211.695 172.957C212.495 172.802 213.08 172.352 213.375 171.767C213.67 172.352 214.26 172.797 215.06 172.957L215.34 172.407ZM211.315 173.747V174.282H215.485V173.747H211.315Z" fill="black"/>
</g>
<defs>
<clipPath id="clip0">
<rect width="315" height="330" fill="white"/>
</clipPath>
</defs>
</svg>
