<svg width="315" height="330" viewBox="0 0 315 330" fill="none" xmlns="http://www.w3.org/2000/svg">
<g clip-path="url(#clip0)">
<mask id="mask0" mask-type="alpha" maskUnits="userSpaceOnUse" x="0" y="0" width="180" height="330">
<path d="M179.053 0H0V329.072H179.053V0Z" fill="#EDEAE6"/>
</mask>
<g mask="url(#mask0)">
<path d="M179.053 0H20C8.9543 0 0 8.95429 0 20V329.072H179.053V0Z" fill="#EDEAE6"/>
<path d="M56.1472 186.286H-48.5212H-65.7633H-118.042C-120.032 186.286 -121.579 187.864 -121.579 189.892V368.515C-121.579 370.544 -120.032 372.121 -118.042 372.121H-48.5212C-46.5317 372.121 -44.9844 370.544 -44.9844 368.515V281.965H56.1472C58.1367 281.965 59.6841 280.387 59.6841 278.359V189.892C59.7946 187.864 58.1367 186.286 56.1472 186.286Z" fill="#84A359"/>
<path d="M256.2 186.286H151.532H134.289H82.0105C80.021 186.286 78.4736 187.864 78.4736 189.892V368.515C78.4736 370.544 80.021 372.121 82.0105 372.121H151.532C153.521 372.121 155.068 370.544 155.068 368.515V281.965H256.2C258.189 281.965 259.737 280.387 259.737 278.359V189.892C259.847 187.864 258.189 186.286 256.2 186.286Z" fill="#84A359"/>
<path d="M130.421 99.0196V146.223C130.421 147.905 131.21 149.5 132.525 150.562L137.959 154.813C151.808 165.706 167.762 173.5 184.854 177.751L194.408 180.142C197.827 181.027 201.158 178.37 201.158 174.828V129.485C201.158 127.359 200.018 125.499 198.177 124.525L138.397 94.2373C134.628 92.2004 130.421 94.8572 130.421 99.0196Z" fill="#84A359"/>
<path d="M-10.8487 95.3329L7.55174 99.1176C9.79975 99.5576 11.6315 97.2692 10.8821 94.9809L9.30019 90.2281C5.88654 80.1944 5.47025 69.3685 8.0513 59.0708L8.46759 57.5745C8.71737 56.5184 8.46759 55.3742 7.71826 54.582L-8.18434 36.9791C-10.0161 35.0427 -13.2632 36.363 -13.2632 39.1794V92.2524C-13.2632 93.7486 -12.2641 95.0689 -10.8487 95.3329Z" fill="#84A359"/>
<path d="M28.206 116.344L14.1559 106.338C13.4747 105.899 12.7935 105.548 12.0271 105.373L-6.45099 101.511C-9.94224 100.896 -13.2632 103.705 -13.2632 107.391V121.347C-13.2632 124.155 -11.0492 126.349 -8.4095 126.349H6.06642V146.536H-8.4095C-11.1344 146.536 -13.2632 148.818 -13.2632 151.539V173.218C-13.2632 176.466 -10.7086 179.186 -7.47282 179.186H18.0729C20.0314 179.186 21.9048 178.133 22.9266 176.466L34.337 158.122C37.9134 152.329 39.8719 145.571 39.7868 138.637C39.7016 129.772 35.3588 121.434 28.206 116.344Z" fill="#84A359"/>
<path d="M105.837 -2.11585C100.274 -0.709033 96.3626 4.30274 96.3626 10.1059V20.657C96.3626 27.6031 90.7994 33.2304 83.9324 33.2304H47.9459C37.4281 33.2304 27.4318 38.0663 20.8256 46.4193C15.8709 52.662 13.2632 60.3995 13.2632 68.3128V75.3469C13.2632 83.3481 15.9578 91.1735 20.9125 97.3283L29.8657 108.495C30.0395 108.671 30.2134 108.847 30.3003 109.022L42.6435 122.827C47.5112 128.278 48.989 135.752 47.0766 142.874C45.9466 147.006 46.9897 151.403 49.8582 154.568L53.509 158.701C57.4206 163.185 65.5045 166.79 71.4154 166.79C87.4094 165.295 102.1 157.294 112.183 144.545C119.137 135.752 123.483 125.113 124.7 113.946L125.047 110.429C126.091 101.285 124.961 92.1407 121.918 83.4361L115.834 66.2905C115.573 65.4992 115.312 64.7078 115.225 63.8286C114.008 56.0911 120.006 49.4087 127.481 49.4087H159.991C166.858 49.4087 172.421 43.7815 172.421 36.8353V-2.20377C172.421 -4.57777 171.726 -6.86385 170.596 -8.71029C168.401 -12.4969 114.136 -4.18282 105.837 -2.11585Z" fill="#84A359"/>
<path d="M157.5 28.1739C160.247 28.1739 162.474 25.9034 162.474 23.1026C162.474 20.3018 160.247 18.0313 157.5 18.0313C154.753 18.0313 152.526 20.3018 152.526 23.1026C152.526 25.9034 154.753 28.1739 157.5 28.1739Z" fill="#B5B758"/>
<path d="M64.6575 48.4591C66.794 48.4591 68.5259 46.4409 68.5259 43.9513C68.5259 41.4617 66.794 39.4435 64.6575 39.4435C62.521 39.4435 60.7891 41.4617 60.7891 43.9513C60.7891 46.4409 62.521 48.4591 64.6575 48.4591Z" fill="#B5B758"/>
<path d="M29.2891 57.4749C32.036 57.4749 34.2628 55.4567 34.2628 52.9671C34.2628 50.4775 32.036 48.4592 29.2891 48.4592C26.5422 48.4592 24.3154 50.4775 24.3154 52.9671C24.3154 55.4567 26.5422 57.4749 29.2891 57.4749Z" fill="#B5B758"/>
<path d="M85.6578 160.028C88.4047 160.028 90.6315 158.01 90.6315 155.52C90.6315 153.031 88.4047 151.012 85.6578 151.012C82.9109 151.012 80.6841 153.031 80.6841 155.52C80.6841 158.01 82.9109 160.028 85.6578 160.028Z" fill="#B5B758"/>
<path d="M100.579 157.774C103.02 157.774 105 155.504 105 152.703C105 149.902 103.02 147.632 100.579 147.632C98.1371 147.632 96.1577 149.902 96.1577 152.703C96.1577 155.504 98.1371 157.774 100.579 157.774Z" fill="#B5B758"/>
<path d="M108.316 13.5235C110.757 13.5235 112.737 11.5053 112.737 9.01565C112.737 6.52604 110.757 4.50781 108.316 4.50781C105.874 4.50781 103.895 6.52604 103.895 9.01565C103.895 11.5053 105.874 13.5235 108.316 13.5235Z" fill="#B5B758"/>
<path d="M1.10513 56.3479C3.54681 56.3479 5.52619 54.0774 5.52619 51.2766C5.52619 48.4758 3.54681 46.2053 1.10513 46.2053C-1.33655 46.2053 -3.31592 48.4758 -3.31592 51.2766C-3.31592 54.0774 -1.33655 56.3479 1.10513 56.3479Z" fill="#B5B758"/>
<path d="M4.97368 78.8871C7.72057 78.8871 9.94737 76.8688 9.94737 74.3792C9.94737 71.8896 7.72057 69.8714 4.97368 69.8714C2.22679 69.8714 0 71.8896 0 74.3792C0 76.8688 2.22679 78.8871 4.97368 78.8871Z" fill="#B5B758"/>
<path d="M11.0524 116.077C13.4941 116.077 15.4735 113.806 15.4735 111.005C15.4735 108.205 13.4941 105.934 11.0524 105.934C8.61072 105.934 6.63135 108.205 6.63135 111.005C6.63135 113.806 8.61072 116.077 11.0524 116.077Z" fill="#B5B758"/>
<path d="M24.8682 143.124C27.6151 143.124 29.8419 141.105 29.8419 138.616C29.8419 136.126 27.6151 134.108 24.8682 134.108C22.1213 134.108 19.8945 136.126 19.8945 138.616C19.8945 141.105 22.1213 143.124 24.8682 143.124Z" fill="#B5B758"/>
<path d="M7.18413 163.409C9.93103 163.409 12.1578 161.138 12.1578 158.338C12.1578 155.537 9.93103 153.266 7.18413 153.266C4.43724 153.266 2.21045 155.537 2.21045 158.338C2.21045 161.138 4.43724 163.409 7.18413 163.409Z" fill="#B5B758"/>
<path d="M-0.552684 153.266C2.19421 153.266 4.421 151.248 4.421 148.759C4.421 146.269 2.19421 144.251 -0.552684 144.251C-3.29957 144.251 -5.52637 146.269 -5.52637 148.759C-5.52637 151.248 -3.29957 153.266 -0.552684 153.266Z" fill="#B5B758"/>
<path d="M64.6575 130.727C66.794 130.727 68.5259 128.457 68.5259 125.656C68.5259 122.855 66.794 120.585 64.6575 120.585C62.521 120.585 60.7891 122.855 60.7891 125.656C60.7891 128.457 62.521 130.727 64.6575 130.727Z" fill="#B5B758"/>
<path d="M38.6837 100.299C41.1254 100.299 43.1048 98.0287 43.1048 95.2279C43.1048 92.4271 41.1254 90.1566 38.6837 90.1566C36.2421 90.1566 34.2627 92.4271 34.2627 95.2279C34.2627 98.0287 36.2421 100.299 38.6837 100.299Z" fill="#B5B758"/>
<path d="M43.6578 116.077C46.4047 116.077 48.6315 113.806 48.6315 111.005C48.6315 108.205 46.4047 105.934 43.6578 105.934C40.9109 105.934 38.6841 108.205 38.6841 111.005C38.6841 113.806 40.9109 116.077 43.6578 116.077Z" fill="#B5B758"/>
<path d="M105.552 76.6332C108.299 76.6332 110.526 74.3627 110.526 71.5619C110.526 68.761 108.299 66.4905 105.552 66.4905C102.805 66.4905 100.579 68.761 100.579 71.5619C100.579 74.3627 102.805 76.6332 105.552 76.6332Z" fill="#B5B758"/>
<path d="M104.447 57.4749C107.194 57.4749 109.421 55.4567 109.421 52.9671C109.421 50.4775 107.194 48.4592 104.447 48.4592C101.7 48.4592 99.4736 50.4775 99.4736 52.9671C99.4736 55.4567 101.7 57.4749 104.447 57.4749Z" fill="#B5B758"/>
<path d="M116.605 109.315C119.352 109.315 121.579 107.297 121.579 104.807C121.579 102.318 119.352 100.299 116.605 100.299C113.858 100.299 111.631 102.318 111.631 104.807C111.631 107.297 113.858 109.315 116.605 109.315Z" fill="#B5B758"/>
<path d="M109.974 105.934C112.721 105.934 114.947 103.664 114.947 100.863C114.947 98.0619 112.721 95.7914 109.974 95.7914C107.227 95.7914 105 98.0619 105 100.863C105 103.664 107.227 105.934 109.974 105.934Z" fill="#507146"/>
<path d="M85.6578 83.3949C88.4047 83.3949 90.6315 81.6289 90.6315 79.4505C90.6315 77.2721 88.4047 75.5062 85.6578 75.5062C82.9109 75.5062 80.6841 77.2721 80.6841 79.4505C80.6841 81.6289 82.9109 83.3949 85.6578 83.3949Z" fill="#507146"/>
<path d="M35.3683 56.3479C37.81 56.3479 39.7894 54.0774 39.7894 51.2766C39.7894 48.4758 37.81 46.2053 35.3683 46.2053C32.9266 46.2053 30.9473 48.4758 30.9473 51.2766C30.9473 54.0774 32.9266 56.3479 35.3683 56.3479Z" fill="#507146"/>
<path d="M-0.552684 89.0297C2.19421 89.0297 4.421 87.0115 4.421 84.5219C4.421 82.0323 2.19421 80.014 -0.552684 80.014C-3.29957 80.014 -5.52637 82.0323 -5.52637 84.5219C-5.52637 87.0115 -3.29957 89.0297 -0.552684 89.0297Z" fill="#507146"/>
<path d="M92.2891 157.774C95.036 157.774 97.2628 155.504 97.2628 152.703C97.2628 149.902 95.036 147.632 92.2891 147.632C89.5422 147.632 87.3154 149.902 87.3154 152.703C87.3154 155.504 89.5422 157.774 92.2891 157.774Z" fill="#507146"/>
<path d="M49.1841 126.219C51.931 126.219 54.1578 123.949 54.1578 121.148C54.1578 118.347 51.931 116.077 49.1841 116.077C46.4372 116.077 44.2104 118.347 44.2104 121.148C44.2104 123.949 46.4372 126.219 49.1841 126.219Z" fill="#507146"/>
<path d="M38.6837 109.315C41.1254 109.315 43.1048 107.297 43.1048 104.807C43.1048 102.318 41.1254 100.299 38.6837 100.299C36.2421 100.299 34.2627 102.318 34.2627 104.807C34.2627 107.297 36.2421 109.315 38.6837 109.315Z" fill="#507146"/>
<path d="M23.7627 153.266C26.5096 153.266 28.7364 150.996 28.7364 148.195C28.7364 145.394 26.5096 143.124 23.7627 143.124C21.0159 143.124 18.7891 145.394 18.7891 148.195C18.7891 150.996 21.0159 153.266 23.7627 153.266Z" fill="#507146"/>
<path d="M19.3419 169.044C22.0887 169.044 24.3155 166.773 24.3155 163.972C24.3155 161.172 22.0887 158.901 19.3419 158.901C16.595 158.901 14.3682 161.172 14.3682 163.972C14.3682 166.773 16.595 169.044 19.3419 169.044Z" fill="#507146"/>
<path d="M4.97368 116.077C7.72057 116.077 9.94737 114.058 9.94737 111.569C9.94737 109.079 7.72057 107.061 4.97368 107.061C2.22679 107.061 0 109.079 0 111.569C0 114.058 2.22679 116.077 4.97368 116.077Z" fill="#507146"/>
<path d="M132.632 146.505C135.073 146.505 137.053 144.739 137.053 142.56C137.053 140.382 135.073 138.616 132.632 138.616C130.19 138.616 128.21 140.382 128.21 142.56C128.21 144.739 130.19 146.505 132.632 146.505Z" fill="#B5B758"/>
<path d="M139.263 137.489C141.705 137.489 143.684 135.471 143.684 132.981C143.684 130.491 141.705 128.473 139.263 128.473C136.821 128.473 134.842 130.491 134.842 132.981C134.842 135.471 136.821 137.489 139.263 137.489Z" fill="#B5B758"/>
<path d="M139.263 155.52C141.705 155.52 143.684 153.25 143.684 150.449C143.684 147.648 141.705 145.378 139.263 145.378C136.821 145.378 134.842 147.648 134.842 150.449C134.842 153.25 136.821 155.52 139.263 155.52Z" fill="#507146"/>
<path d="M108.868 145.378C111.615 145.378 113.842 143.107 113.842 140.306C113.842 137.505 111.615 135.235 108.868 135.235C106.121 135.235 103.895 137.505 103.895 140.306C103.895 143.107 106.121 145.378 108.868 145.378Z" fill="#507146"/>
<path d="M121.026 120.585C123.773 120.585 126 118.566 126 116.077C126 113.587 123.773 111.569 121.026 111.569C118.28 111.569 116.053 113.587 116.053 116.077C116.053 118.566 118.28 120.585 121.026 120.585Z" fill="#507146"/>
<path d="M121.026 93.5376C123.773 93.5376 126 91.2671 126 88.4663C126 85.6655 123.773 83.395 121.026 83.395C118.28 83.395 116.053 85.6655 116.053 88.4663C116.053 91.2671 118.28 93.5376 121.026 93.5376Z" fill="#507146"/>
<path d="M108.316 111.569C110.757 111.569 112.737 109.551 112.737 107.061C112.737 104.571 110.757 102.553 108.316 102.553C105.874 102.553 103.895 104.571 103.895 107.061C103.895 109.551 105.874 111.569 108.316 111.569Z" fill="#849258"/>
<path d="M4.97368 155.52C7.72057 155.52 9.94737 153.25 9.94737 150.449C9.94737 147.648 7.72057 145.378 4.97368 145.378C2.22679 145.378 0 147.648 0 150.449C0 153.25 2.22679 155.52 4.97368 155.52Z" fill="#849258"/>
<path d="M-3.8686 73.2523C-1.12171 73.2523 1.10508 70.9818 1.10508 68.181C1.10508 65.3802 -1.12171 63.1097 -3.8686 63.1097C-6.61549 63.1097 -8.84229 65.3802 -8.84229 68.181C-8.84229 70.9818 -6.61549 73.2523 -3.8686 73.2523Z" fill="#849258"/>
<path d="M113.289 83.3949C115.426 83.3949 117.158 81.6289 117.158 79.4505C117.158 77.2721 115.426 75.5062 113.289 75.5062C111.153 75.5062 109.421 77.2721 109.421 79.4505C109.421 81.6289 111.153 83.3949 113.289 83.3949Z" fill="#849258"/>
<path d="M119.921 101.426C122.668 101.426 124.895 99.1557 124.895 96.3549C124.895 93.5541 122.668 91.2836 119.921 91.2836C117.174 91.2836 114.947 93.5541 114.947 96.3549C114.947 99.1557 117.174 101.426 119.921 101.426Z" fill="#849258"/>
<path d="M114.947 137.489C117.389 137.489 119.368 135.471 119.368 132.981C119.368 130.491 117.389 128.473 114.947 128.473C112.506 128.473 110.526 130.491 110.526 132.981C110.526 135.471 112.506 137.489 114.947 137.489Z" fill="#849258"/>
<path d="M111.079 20.2852C113.826 20.2852 116.052 18.267 116.052 15.7774C116.052 13.2878 113.826 11.2695 111.079 11.2695C108.332 11.2695 106.105 13.2878 106.105 15.7774C106.105 18.267 108.332 20.2852 111.079 20.2852Z" fill="#849258"/>
<path d="M21.5523 178.059C24.2992 178.059 26.526 175.789 26.526 172.988C26.526 170.187 24.2992 167.917 21.5523 167.917C18.8054 167.917 16.5786 170.187 16.5786 172.988C16.5786 175.789 18.8054 178.059 21.5523 178.059Z" fill="#849258"/>
<path d="M52.4998 155.52C54.6362 155.52 56.3682 153.25 56.3682 150.449C56.3682 147.648 54.6362 145.378 52.4998 145.378C50.3633 145.378 48.6313 147.648 48.6313 150.449C48.6313 153.25 50.3633 155.52 52.4998 155.52Z" fill="#849258"/>
<path d="M80.6842 169.044C83.1259 169.044 85.1053 166.773 85.1053 163.972C85.1053 161.172 83.1259 158.901 80.6842 158.901C78.2426 158.901 76.2632 161.172 76.2632 163.972C76.2632 166.773 78.2426 169.044 80.6842 169.044Z" fill="#849258"/>
<path d="M72.3946 167.917C75.1415 167.917 77.3683 165.646 77.3683 162.845C77.3683 160.045 75.1415 157.774 72.3946 157.774C69.6477 157.774 67.4209 160.045 67.4209 162.845C67.4209 165.646 69.6477 167.917 72.3946 167.917Z" fill="#849258"/>
<path d="M44.7627 111.569C47.5096 111.569 49.7364 109.298 49.7364 106.498C49.7364 103.697 47.5096 101.426 44.7627 101.426C42.0159 101.426 39.7891 103.697 39.7891 106.498C39.7891 109.298 42.0159 111.569 44.7627 111.569Z" fill="#849258"/>
</g>
<path d="M1.5 328.86V201.347H177.5V328.86H1.5Z" fill="white" stroke="black" stroke-width="3" stroke-miterlimit="10"/>
<path d="M208.956 17.9684H210.456V16.4684V1.5H313.5V150.425H164.481V120.831V119.331H162.981H148.5V17.9684H208.956Z" fill="white" stroke="black" stroke-width="3" stroke-miterlimit="10"/>
<path d="M243.561 75.6079H230.141V102.016H243.561V75.6079Z" fill="black"/>
<path d="M195.423 75.6079H182.003V102.016H195.423V75.6079Z" fill="black"/>
<path d="M96.5497 257.124H83.1299V283.532H96.5497V257.124Z" fill="black"/>
<path d="M35.6601 257.124H22.2402V283.532H35.6601V257.124Z" fill="black"/>
<path d="M28.1828 268.383C27.6486 268.383 27.248 268.792 27.248 269.407V271.727C27.248 272.204 27.9157 272.204 27.9157 271.727V269.611H28.0492V275.548C28.0492 276.162 28.9172 276.162 28.9172 275.548V272.068H29.0507V275.548C29.0507 276.162 29.9187 276.162 29.9187 275.548V269.611H30.0522V271.727C30.0522 272.204 30.7199 272.204 30.7199 271.727V269.407C30.7199 268.929 30.3193 268.383 29.7851 268.383H28.1828Z" fill="white"/>
<path d="M28.9839 268.11C29.3895 268.11 29.7183 267.774 29.7183 267.36C29.7183 266.945 29.3895 266.609 28.9839 266.609C28.5783 266.609 28.2495 266.945 28.2495 267.36C28.2495 267.774 28.5783 268.11 28.9839 268.11Z" fill="white"/>
<path d="M130.668 257.124H117.248V295.815H130.668V257.124Z" fill="black"/>
<path d="M127.931 280.188V274.32C127.931 273.706 127.463 273.228 126.862 273.228H121.121C120.52 273.228 120.052 273.706 120.052 274.32V280.188C120.052 280.802 120.52 281.28 121.121 281.28H126.862C127.463 281.28 127.931 280.871 127.931 280.188ZM127.063 280.393H120.92V274.183H127.063V280.393Z" fill="white"/>
<path d="M124.926 269.475C124.926 268.997 125.594 268.997 125.594 269.475V271.385L125.927 270.976C126.195 270.703 126.595 271.112 126.328 271.385L125.46 272.409C125.327 272.545 125.126 272.545 124.993 272.409L124.125 271.385C123.858 271.044 124.325 270.703 124.525 270.976L124.859 271.454L124.926 269.475Z" fill="white"/>
<path d="M122.389 272.136C122.389 272.614 123.057 272.614 123.057 272.136V270.225L123.39 270.635C123.657 270.908 124.058 270.498 123.791 270.225L122.923 269.202C122.789 269.065 122.589 269.065 122.456 269.202L121.588 270.225C121.321 270.567 121.788 270.908 121.988 270.635L122.322 270.157L122.389 272.136Z" fill="white"/>
<path d="M125.728 276.026H124.593C124.46 276.026 124.326 276.163 124.326 276.299V277.732C124.326 277.868 124.393 277.937 124.526 277.937C124.526 277.937 124.593 277.937 124.66 277.937V279.779C124.66 280.12 125.127 280.12 125.127 279.779V277.937H125.194V279.779C125.194 280.12 125.661 280.12 125.661 279.779V277.937C125.728 277.937 125.795 277.937 125.795 277.937C125.929 277.937 125.995 277.868 125.995 277.732V276.299C125.995 276.163 125.929 276.026 125.728 276.026Z" fill="white"/>
<path d="M125.194 275.889C125.379 275.889 125.528 275.737 125.528 275.548C125.528 275.36 125.379 275.207 125.194 275.207C125.01 275.207 124.86 275.36 124.86 275.548C124.86 275.737 125.01 275.889 125.194 275.889Z" fill="white"/>
<path d="M123.324 276.026H122.189C122.056 276.026 121.922 276.163 121.922 276.299V277.732C121.922 277.868 121.989 277.937 122.123 277.937C122.123 277.937 122.189 277.937 122.256 277.937V279.779C122.256 280.12 122.724 280.12 122.724 279.779V277.937H122.79V279.779C122.79 280.12 123.258 280.12 123.258 279.779V277.937C123.324 277.937 123.391 277.937 123.391 277.937C123.525 277.937 123.591 277.868 123.591 277.732V276.299C123.591 276.163 123.458 276.026 123.324 276.026Z" fill="white"/>
<path d="M122.79 275.889C122.975 275.889 123.124 275.737 123.124 275.548C123.124 275.36 122.975 275.207 122.79 275.207C122.606 275.207 122.457 275.36 122.457 275.548C122.457 275.737 122.606 275.889 122.79 275.889Z" fill="white"/>
<path d="M90.0083 268.11C90.4089 268.11 90.7428 267.769 90.7428 267.36C90.7428 266.95 90.4089 266.609 90.0083 266.609C89.6078 266.609 89.2739 266.95 89.2739 267.36C89.2739 267.769 89.6078 268.11 90.0083 268.11Z" fill="white"/>
<path d="M89.8744 272.955V275.616C89.8744 276.094 89.2067 276.094 89.2067 275.616V272.955H88.272L89.2735 269.407H89.14L88.5391 271.386C88.4055 271.795 87.8046 271.659 87.9382 271.181L88.6058 268.997C88.6726 268.724 89.0064 268.315 89.5406 268.315H90.0079H90.5421C91.0762 268.315 91.41 268.792 91.4768 268.997L92.1445 271.181C92.278 271.659 91.6771 271.863 91.5436 271.386L90.9427 269.407H90.7424L91.7439 272.955H90.8091V275.616C90.8091 276.094 90.1415 276.094 90.1415 275.616V272.955H89.8744Z" fill="white"/>
<path d="M204.436 199.46H183.739V221.364H204.436V199.46Z" fill="black"/>
<path d="M197.96 215.428V209.559C197.96 208.945 197.492 208.467 196.892 208.467H191.15C190.549 208.467 190.082 208.945 190.082 209.559V215.428C190.082 216.042 190.549 216.52 191.15 216.52H196.892C197.492 216.52 197.96 216.11 197.96 215.428ZM197.092 215.632H190.949V209.423H197.092V215.632Z" fill="white"/>
<path d="M195.023 204.714C195.023 204.237 195.69 204.237 195.69 204.714V206.625L196.024 206.215C196.291 205.943 196.692 206.352 196.425 206.625L195.557 207.649C195.423 207.785 195.223 207.785 195.089 207.649L194.221 206.625C193.954 206.284 194.422 205.943 194.622 206.215L194.956 206.693L195.023 204.714Z" fill="white"/>
<path d="M192.418 207.376C192.418 207.853 193.086 207.853 193.086 207.376V205.465L193.42 205.874C193.687 206.147 194.087 205.738 193.82 205.465L192.952 204.441C192.819 204.305 192.619 204.305 192.485 204.441L191.617 205.465C191.35 205.806 191.817 206.147 192.018 205.874L192.351 205.397L192.418 207.376Z" fill="white"/>
<path d="M195.824 211.266H194.689C194.555 211.266 194.422 211.402 194.422 211.539V212.972C194.422 213.108 194.489 213.176 194.622 213.176C194.622 213.176 194.689 213.176 194.756 213.176V215.019C194.756 215.36 195.223 215.36 195.223 215.019V213.176H195.29V215.019C195.29 215.36 195.757 215.36 195.757 215.019V213.176C195.824 213.176 195.891 213.176 195.891 213.176C196.024 213.176 196.091 213.108 196.091 212.972V211.539C196.091 211.402 195.957 211.266 195.824 211.266Z" fill="white"/>
<path d="M195.29 211.129C195.474 211.129 195.624 210.976 195.624 210.788C195.624 210.599 195.474 210.446 195.29 210.446C195.106 210.446 194.956 210.599 194.956 210.788C194.956 210.976 195.106 211.129 195.29 211.129Z" fill="white"/>
<path d="M193.42 211.266H192.285C192.152 211.266 192.018 211.402 192.018 211.539V212.972C192.018 213.108 192.085 213.176 192.218 213.176C192.218 213.176 192.285 213.176 192.352 213.176V215.019C192.352 215.36 192.819 215.36 192.819 215.019V213.176H192.886V215.019C192.886 215.36 193.353 215.36 193.353 215.019V213.176C193.42 213.176 193.487 213.176 193.487 213.176C193.62 213.176 193.687 213.108 193.687 212.972V211.539C193.687 211.402 193.554 211.266 193.42 211.266Z" fill="white"/>
<path d="M192.82 211.129C193.004 211.129 193.153 210.976 193.153 210.788C193.153 210.599 193.004 210.446 192.82 210.446C192.635 210.446 192.486 210.599 192.486 210.788C192.486 210.976 192.635 211.129 192.82 211.129Z" fill="white"/>
<path d="M109.636 211.062H78.6572V233.035H109.636V211.062Z" fill="black"/>
<path d="M78.6572 205.809V208.675H112.374V233.036H130.668V208.675V205.809H78.6572Z" fill="black"/>
<path d="M172.421 206.234H133.737V295.264H172.421V206.234Z" fill="#C8A67C"/>
<path d="M58.6945 205.809H6.68408V242.521H58.6945V205.809Z" fill="#C8A67C"/>
<path d="M98.0189 227.031V221.162C98.0189 220.548 97.5516 220.071 96.9507 220.071H91.2089C90.608 220.071 90.1406 220.548 90.1406 221.162V227.031C90.1406 227.645 90.608 228.123 91.2089 228.123H96.9507C97.5516 228.123 98.0189 227.645 98.0189 227.031ZM97.151 227.236H91.0086V221.026H97.151V227.236Z" fill="white"/>
<path d="M95.0139 214.063C95.0139 213.586 95.6815 213.586 95.6815 214.063V215.974L96.0154 215.565C96.2824 215.292 96.683 215.701 96.4159 215.974L95.548 216.998C95.4145 217.134 95.2142 217.134 95.0806 216.998L94.2127 215.974C93.9456 215.633 94.413 215.292 94.6133 215.565L94.9471 216.042L95.0139 214.063Z" fill="white"/>
<path d="M92.4772 216.725C92.4772 217.202 93.1449 217.202 93.1449 216.725V214.814L93.4787 215.223C93.7458 215.496 94.1464 215.087 93.8793 214.814L93.0114 213.79C92.8778 213.654 92.6775 213.654 92.544 213.79L91.6761 214.814C91.409 215.155 91.8764 215.496 92.0767 215.223L92.4105 214.746L92.4772 216.725Z" fill="white"/>
<path d="M95.883 222.868H94.748C94.6145 222.868 94.481 223.005 94.481 223.141V224.574C94.481 224.711 94.5477 224.779 94.6813 224.779C94.6813 224.779 94.748 224.779 94.8148 224.779V226.621C94.8148 226.963 95.2821 226.963 95.2821 226.621V224.711H95.3489V226.553C95.3489 226.894 95.8163 226.894 95.8163 226.553V224.711C95.883 224.711 95.9498 224.711 95.9498 224.711C96.0833 224.711 96.1501 224.642 96.1501 224.506V223.073C96.1501 222.936 96.0166 222.868 95.883 222.868Z" fill="white"/>
<path d="M95.2826 222.732C95.467 222.732 95.6164 222.579 95.6164 222.391C95.6164 222.202 95.467 222.049 95.2826 222.049C95.0982 222.049 94.9487 222.202 94.9487 222.391C94.9487 222.579 95.0982 222.732 95.2826 222.732Z" fill="white"/>
<path d="M93.4792 222.868H92.3442C92.2107 222.868 92.0771 223.005 92.0771 223.141V224.574C92.0771 224.711 92.1439 224.779 92.2774 224.779C92.2774 224.779 92.3442 224.779 92.411 224.779V226.621C92.411 226.963 92.8783 226.963 92.8783 226.621V224.711H92.9451V226.553C92.9451 226.894 93.4125 226.894 93.4125 226.553V224.711C93.4792 224.711 93.546 224.711 93.546 224.711C93.6795 224.711 93.7463 224.642 93.7463 224.506V223.073C93.6795 222.936 93.6128 222.868 93.4792 222.868Z" fill="white"/>
<path d="M92.8788 222.732C93.0631 222.732 93.2126 222.579 93.2126 222.391C93.2126 222.202 93.0631 222.049 92.8788 222.049C92.6944 222.049 92.5449 222.202 92.5449 222.391C92.5449 222.579 92.6944 222.732 92.8788 222.732Z" fill="white"/>
<path d="M163.223 171.924H199.677V157.73H163.223V171.924Z" fill="black"/>
<path d="M180.668 162.066C181.069 162.066 181.403 161.725 181.403 161.315C181.403 160.906 181.069 160.565 180.668 160.565C180.267 160.565 179.934 160.906 179.934 161.315C179.934 161.725 180.267 162.066 180.668 162.066Z" fill="white"/>
<path d="M185.608 161.383H183.939C183.606 161.383 183.138 161.52 182.871 161.793L181.336 163.362V162.885C181.336 161.929 179.933 161.929 179.933 162.885V164.727L178.598 166.092C178.465 166.228 178.465 166.228 178.198 166.228H177.396C176.595 166.228 176.061 166.979 176.061 167.593C176.061 168.207 176.528 169.026 177.463 169.026C177.463 169.026 178.598 169.026 178.932 169.026C179.266 169.026 179.666 168.89 180 168.548L184.273 164.249C184.34 164.181 184.407 164.113 184.54 164.113C184.54 164.113 185.141 164.113 185.608 164.113C186.143 164.113 186.81 163.499 186.81 162.68C186.877 161.929 186.143 161.383 185.608 161.383ZM185.542 163.499H184.674C184.273 163.499 184.14 163.567 183.939 163.772L179.666 168.139C179.466 168.344 179.266 168.412 178.999 168.412H177.597C177.263 168.412 176.929 168.071 176.929 167.661C176.929 167.252 177.263 167.047 177.53 167.047H178.465C178.732 167.047 178.932 166.979 179.065 166.774L183.405 162.339C183.606 162.134 183.739 162.134 184.073 162.134H185.542C185.876 162.134 186.143 162.543 186.143 162.816C186.143 163.089 185.942 163.499 185.542 163.499Z" fill="white"/>
<path d="M254.954 114.358H268.374V75.6667H254.954V114.358Z" fill="black"/>
<path d="M278.527 113.823H308.369V43.9517H278.527V113.823Z" fill="#DAC452"/>
<path d="M268.397 49.0627H231.943V63.2562H268.397V49.0627Z" fill="black"/>
<path d="M249.37 53.3629C249.77 53.3629 250.104 53.0218 250.104 52.6123C250.104 52.2029 249.77 51.8617 249.37 51.8617C248.969 51.8617 248.635 52.2029 248.635 52.6123C248.635 53.0218 248.969 53.3629 249.37 53.3629Z" fill="white"/>
<path d="M254.244 52.6804H252.575C252.241 52.6804 251.773 52.8169 251.506 53.0899L249.971 54.6593V54.1817C249.971 53.2263 248.569 53.2263 248.569 54.1817V56.0241L247.233 57.3889C247.1 57.5253 247.1 57.5253 246.833 57.5253H246.032C245.23 57.5253 244.696 58.276 244.696 58.8901C244.696 59.5042 245.164 60.3231 246.098 60.3231C246.098 60.3231 247.233 60.3231 247.567 60.3231C247.901 60.3231 248.302 60.1866 248.635 59.8454L252.908 55.5464C252.975 55.4782 253.042 55.4099 253.175 55.4099C253.175 55.4099 253.776 55.4099 254.244 55.4099C254.778 55.4099 255.445 54.7958 255.445 53.9769C255.512 53.2263 254.845 52.6804 254.244 52.6804ZM254.177 54.7958H253.309C252.908 54.7958 252.775 54.864 252.575 55.0688L248.302 59.436C248.101 59.6407 247.901 59.709 247.634 59.709H246.232C245.898 59.709 245.564 59.3678 245.564 58.9583C245.564 58.5489 245.898 58.3442 246.165 58.3442H247.1C247.367 58.3442 247.567 58.276 247.701 58.0712L252.04 53.6358C252.241 53.431 252.374 53.431 252.708 53.431H254.177C254.511 53.431 254.778 53.8405 254.778 54.1134C254.778 54.3864 254.644 54.7958 254.177 54.7958Z" fill="white"/>
<path d="M98.5535 257.124V285.511H81.0609V257.124H37.7301V285.511H20.2375V257.124H6.68408V295.815H115.245V257.124H98.5535Z" fill="black"/>
<path d="M187.879 86.867C187.344 86.867 186.944 87.2764 186.944 87.8906V90.2107C186.944 90.6884 187.612 90.6884 187.612 90.2107V88.0271H187.745V93.9638C187.745 94.578 188.613 94.578 188.613 93.9638V90.4837H188.747V93.9638C188.747 94.578 189.614 94.578 189.614 93.9638V88.0271H189.748V90.1425C189.748 90.6201 190.416 90.6201 190.416 90.1425V87.8223C190.416 87.3447 190.015 86.7988 189.481 86.7988L187.879 86.867Z" fill="white"/>
<path d="M188.68 86.6622C189.085 86.6622 189.414 86.3261 189.414 85.9116C189.414 85.497 189.085 85.1609 188.68 85.1609C188.274 85.1609 187.945 85.497 187.945 85.9116C187.945 86.3261 188.274 86.6622 188.68 86.6622Z" fill="white"/>
<path d="M170.453 75.6079H153.828V114.299H170.453V75.6079Z" fill="#DAC452"/>
<path d="M178.064 37.7352H153.828V59.0938H178.064V37.7352Z" fill="#DAC452"/>
<path d="M209.043 24.02H179.933V59.0262H209.043V24.02Z" fill="black"/>
<path d="M308.369 7.88818H266.369V41.697H308.369V7.88818Z" fill="#DAC452"/>
<path d="M260.842 7.88818H216.631V41.697H260.842V7.88818Z" fill="#DAC452"/>
<path d="M265.594 98.7405V92.872C265.594 92.2578 265.126 91.7802 264.525 91.7802H258.784C258.183 91.7802 257.715 92.2578 257.715 92.872V98.7405C257.715 99.3546 258.183 99.8323 258.784 99.8323H264.525C265.126 99.764 265.594 99.3546 265.594 98.7405ZM264.726 98.8769H258.583V92.6673H264.726V98.8769Z" fill="white"/>
<path d="M262.656 87.9587C262.656 87.481 263.324 87.481 263.324 87.9587V89.8694L263.657 89.46C263.925 89.187 264.325 89.5964 264.058 89.8694L263.19 90.893C263.057 91.0295 262.856 91.0295 262.723 90.893L261.855 89.8694C261.588 89.5282 262.055 89.187 262.255 89.46L262.589 89.9376L262.656 87.9587Z" fill="white"/>
<path d="M260.052 90.6876C260.052 91.1652 260.72 91.1652 260.72 90.6876V88.7769L261.053 89.1863C261.32 89.4593 261.721 89.0499 261.454 88.7769L260.586 87.7534C260.453 87.6169 260.252 87.6169 260.119 87.7534L259.251 88.7769C258.984 89.1181 259.451 89.4593 259.651 89.1863L259.985 88.7087L260.052 90.6876Z" fill="white"/>
<path d="M263.457 94.5094H262.322C262.189 94.5094 262.055 94.6459 262.055 94.7823V96.2154C262.055 96.3518 262.122 96.4201 262.255 96.4201C262.255 96.4201 262.322 96.4201 262.389 96.4201V98.2625C262.389 98.6037 262.856 98.6037 262.856 98.2625V96.4201H262.923V98.2625C262.923 98.6037 263.391 98.6037 263.391 98.2625V96.4201C263.457 96.4201 263.524 96.4201 263.524 96.4201C263.658 96.4201 263.724 96.3518 263.724 96.2154V94.7823C263.724 94.6459 263.591 94.5094 263.457 94.5094Z" fill="white"/>
<path d="M262.923 94.3729C263.108 94.3729 263.257 94.2202 263.257 94.0317C263.257 93.8433 263.108 93.6906 262.923 93.6906C262.739 93.6906 262.589 93.8433 262.589 94.0317C262.589 94.2202 262.739 94.3729 262.923 94.3729Z" fill="white"/>
<path d="M261.054 94.5094H259.919C259.785 94.5094 259.652 94.6459 259.652 94.7823V96.2154C259.652 96.3518 259.719 96.4201 259.852 96.4201C259.852 96.4201 259.919 96.4201 259.986 96.4201V98.2625C259.986 98.6037 260.453 98.6037 260.453 98.2625V96.4201H260.52V98.2625C260.52 98.6037 260.987 98.6037 260.987 98.2625V96.4201C261.054 96.4201 261.121 96.4201 261.121 96.4201C261.254 96.4201 261.321 96.3518 261.321 96.2154V94.7823C261.321 94.6459 261.187 94.5094 261.054 94.5094Z" fill="white"/>
<path d="M260.453 94.3729C260.638 94.3729 260.787 94.2202 260.787 94.0317C260.787 93.8433 260.638 93.6906 260.453 93.6906C260.269 93.6906 260.12 93.8433 260.12 94.0317C260.12 94.2202 260.269 94.3729 260.453 94.3729Z" fill="white"/>
<path d="M237.018 86.6622C237.419 86.6622 237.753 86.321 237.753 85.9116C237.753 85.5021 237.419 85.1609 237.018 85.1609C236.618 85.1609 236.284 85.5021 236.284 85.9116C236.284 86.321 236.618 86.6622 237.018 86.6622Z" fill="white"/>
<path d="M236.951 91.439V94.1002C236.951 94.5779 236.283 94.5779 236.283 94.1002V91.439H235.349L236.35 87.8906H236.217L235.616 89.8695C235.482 90.2789 234.881 90.1424 235.015 89.6648L235.682 87.4811C235.749 87.2082 236.083 86.7988 236.617 86.7988H237.085H237.619C238.153 86.7988 238.487 87.2764 238.553 87.4811L239.221 89.6648C239.355 90.1424 238.754 90.3471 238.62 89.8695L238.019 87.8906H237.819L238.82 91.439H237.886V94.1002C237.886 94.5779 237.218 94.5779 237.218 94.1002V91.439H236.951Z" fill="white"/>
<path d="M245.631 75.6079V104.063H228.138V75.6079H197.426V104.063H179.933V75.6079H172.456V114.367H252.975V75.6079H245.631Z" fill="black"/>
<path d="M113.482 26.559H118.397V25.2913H115.02V23.5548H118.131V22.287H115.02V20.554H118.383V19.2863H113.482V26.559ZM120.859 26.559L121.398 24.9006H124.023L124.563 26.559H126.21L123.703 19.2863H121.722L119.211 26.559H120.859ZM121.789 23.7004L122.684 20.9482H122.741L123.636 23.7004H121.789ZM130.865 21.3779H132.339C132.317 20.0817 131.252 19.1869 129.633 19.1869C128.038 19.1869 126.87 20.0675 126.877 21.3886C126.873 22.461 127.63 23.0754 128.859 23.3701L129.65 23.569C130.442 23.7607 130.883 23.988 130.886 24.4781C130.883 25.0107 130.378 25.3729 129.597 25.3729C128.798 25.3729 128.223 25.0036 128.173 24.2756H126.685C126.724 25.8488 127.85 26.662 129.615 26.662C131.391 26.662 132.435 25.8133 132.438 24.4816C132.435 23.2707 131.522 22.6279 130.258 22.3438L129.604 22.1876C128.972 22.042 128.443 21.8076 128.454 21.2856C128.454 20.8168 128.869 20.4724 129.622 20.4724C130.357 20.4724 130.808 20.8062 130.865 21.3779ZM133.195 20.554H135.422V26.559H136.942V20.554H139.168V19.2863H133.195V20.554ZM102.922 32.554H105.148V38.559H106.668V32.554H108.895V31.2863H102.922V32.554ZM116.24 34.9227C116.24 32.5434 114.762 31.1869 112.834 31.1869C110.895 31.1869 109.429 32.5434 109.429 34.9227C109.429 37.2913 110.895 38.6585 112.834 38.6585C114.762 38.6585 116.24 37.3019 116.24 34.9227ZM114.681 34.9227C114.681 36.4639 113.949 37.2984 112.834 37.2984C111.715 37.2984 110.987 36.4639 110.987 34.9227C110.987 33.3815 111.715 32.5469 112.834 32.5469C113.949 32.5469 114.681 33.3815 114.681 34.9227ZM118.742 38.559H120.241L121.622 33.804H121.679L123.064 38.559H124.563L126.644 31.2863H124.964L123.76 36.3502H123.696L122.372 31.2863H120.933L119.605 36.3396H119.545L118.341 31.2863H116.661L118.742 38.559ZM127.466 38.559H132.381V37.2913H129.004V35.5548H132.115V34.287H129.004V32.554H132.367V31.2863H127.466V38.559ZM133.59 38.559H135.127V35.9809H136.249L137.627 38.559H139.325L137.78 35.7323C138.607 35.3772 139.065 34.6563 139.065 33.662C139.065 32.2167 138.11 31.2863 136.459 31.2863H133.59V38.559ZM135.127 34.7451V32.5434H136.164C137.052 32.5434 137.482 32.9376 137.482 33.662C137.482 34.3829 137.052 34.7451 136.171 34.7451H135.127Z" fill="black"/>
<path d="M187.874 311.862H189.372L190.754 307.107H190.81L192.195 311.862H193.694L195.775 304.589H194.095L192.891 309.653H192.828L191.503 304.589H190.065L188.737 309.643H188.676L187.472 304.589H185.793L187.874 311.862ZM196.598 311.862H201.513V310.594H198.136V308.858H201.246V307.59H198.136V305.857H201.498V304.589H196.598V311.862ZM206.666 306.681H208.14C208.119 305.385 207.053 304.49 205.434 304.49C203.84 304.49 202.671 305.371 202.678 306.692C202.675 307.764 203.431 308.378 204.66 308.673L205.452 308.872C206.244 309.064 206.684 309.291 206.688 309.781C206.684 310.314 206.18 310.676 205.399 310.676C204.6 310.676 204.024 310.307 203.975 309.579H202.487C202.526 311.152 203.651 311.965 205.416 311.965C207.192 311.965 208.236 311.116 208.239 309.785C208.236 308.574 207.323 307.931 206.059 307.647L205.406 307.491C204.774 307.345 204.244 307.111 204.255 306.589C204.255 306.12 204.671 305.775 205.423 305.775C206.158 305.775 206.609 306.109 206.666 306.681ZM208.997 305.857H211.223V311.862H212.743V305.857H214.97V304.589H208.997V305.857ZM185.96 317.857H188.186V323.862H189.706V317.857H191.933V316.589H185.96V317.857ZM199.277 320.226C199.277 317.846 197.8 316.49 195.872 316.49C193.933 316.49 192.466 317.846 192.466 320.226C192.466 322.594 193.933 323.961 195.872 323.961C197.8 323.961 199.277 322.605 199.277 320.226ZM197.718 320.226C197.718 321.767 196.987 322.601 195.872 322.601C194.753 322.601 194.025 321.767 194.025 320.226C194.025 318.685 194.753 317.85 195.872 317.85C196.987 317.85 197.718 318.685 197.718 320.226ZM201.78 323.862H203.278L204.66 319.107H204.717L206.102 323.862H207.6L209.681 316.589H208.002L206.798 321.653H206.734L205.409 316.589H203.971L202.643 321.643H202.582L201.379 316.589H199.699L201.78 323.862ZM210.504 323.862H215.419V322.594H212.042V320.858H215.153V319.59H212.042V317.857H215.405V316.589H210.504V323.862ZM216.627 323.862H218.165V321.284H219.287L220.665 323.862H222.362L220.818 321.035C221.645 320.68 222.103 319.959 222.103 318.965C222.103 317.52 221.148 316.589 219.497 316.589H216.627V323.862ZM218.165 320.048V317.846H219.202C220.09 317.846 220.519 318.241 220.519 318.965C220.519 319.686 220.09 320.048 219.209 320.048H218.165Z" fill="black"/>
<path d="M2.59375 43H25.4063V37.4687H11.9688V37.25L16.6406 32.6719C23.2188 26.6719 24.9844 23.6719 24.9844 20.0312C24.9844 14.4844 20.4531 10.5625 13.5938 10.5625C6.875 10.5625 2.26563 14.5781 2.28125 20.8594H8.70313C8.6875 17.7969 10.625 15.9219 13.5469 15.9219C16.3594 15.9219 18.4531 17.6719 18.4531 20.4844C18.4531 23.0312 16.8906 24.7812 13.9844 27.5781L2.59375 38.125V43ZM30.4961 43H37.2617V29.7812H50.2773V24.2031H37.2617V16.5781H51.6836V11H30.4961V43Z" fill="black"/>
<path d="M149.888 245.89C148.64 245.674 147.956 244.816 147.956 244.006V243.61H147.11V244.006C147.11 244.798 146.42 245.674 145.178 245.89L145.514 246.55C146.474 246.364 147.176 245.824 147.53 245.122C147.884 245.824 148.592 246.358 149.552 246.55L149.888 245.89ZM145.058 247.498V248.14H150.062V247.498H145.058ZM153.475 247.564V246.646H155.047V246.022H151.969V245.446H154.879V244.834H151.969V244.294H155.005V243.664H151.165V246.646H152.683V247.564H150.577V248.206H155.581V247.564H153.475ZM157.201 245.89H158.995V243.754H156.385V244.384H158.185V245.266H156.391V247.54H156.889C157.891 247.54 158.701 247.504 159.601 247.348L159.517 246.706C158.737 246.838 158.041 246.88 157.201 246.886V245.89ZM159.901 243.28V248.824H160.693V243.28H159.901ZM146.438 251.432H147.056V253.868C146.846 253.874 146.642 253.886 146.438 253.886V251.432ZM147.818 251.432H148.292V250.796H145.19V251.432H145.67V253.904C145.454 253.904 145.244 253.904 145.046 253.904L145.13 254.552C146.12 254.546 147.392 254.522 148.556 254.324L148.508 253.754C148.28 253.784 148.052 253.808 147.818 253.82V251.432ZM148.862 250.292V255.818H149.66V250.292H148.862ZM154.207 252.314H151.933V251.744H154.207V252.314ZM154.987 250.496H154.207V251.126H151.933V250.496H151.147V252.944H154.987V250.496ZM155.581 253.466H150.577V254.096H152.665V255.818H153.457V254.096H155.581V253.466ZM159.025 253.4C159.175 252.488 159.175 251.816 159.175 251.282V250.832H156.331V251.462H158.395C158.395 251.954 158.377 252.548 158.251 253.334L159.025 253.4ZM157.819 252.416H157.039V254.048C156.691 254.054 156.355 254.054 156.049 254.054L156.121 254.702C157.081 254.696 158.317 254.672 159.439 254.48L159.397 253.91C158.893 253.97 158.353 254.006 157.819 254.024V252.416ZM161.185 252.506H160.441V250.28H159.649V255.806H160.441V253.166H161.185V252.506Z" fill="black"/>
<path d="M20.6669 219.615H22.3769V218.985H19.8749V222.699H20.3249C21.3329 222.699 21.9929 222.675 22.7369 222.537L22.6589 221.895C22.0289 222.003 21.4589 222.045 20.6669 222.051V219.615ZM23.4629 218.493V220.401H22.1129V221.037H23.4629V224.037H24.2549V218.493H23.4629ZM29.6065 221.343H26.5285V220.725H29.4385V220.113H26.5285V219.531H29.5645V218.895H25.7245V221.967H29.6065V221.343ZM25.1365 222.741V223.383H30.1405V222.741H25.1365ZM31.76 221.097H33.554V218.961H30.944V219.591H32.744V220.473H30.95V222.747H31.448C32.45 222.747 33.26 222.711 34.16 222.555L34.076 221.913C33.296 222.045 32.6 222.087 31.76 222.093V221.097ZM34.46 218.487V224.031H35.252V218.487H34.46ZM37.2495 219.015H36.4635V222.657H36.9555C37.7955 222.657 38.7135 222.597 39.6555 222.399L39.5715 221.739C38.7615 221.901 37.9755 221.961 37.2495 221.979V219.015ZM39.9975 218.487V224.013H40.7895V218.487H39.9975ZM42.7811 221.109H44.5571V220.491H42.7811V219.591H44.7851V218.949H41.9891V222.771H42.4691C43.4591 222.771 44.2331 222.747 45.0971 222.615L45.0251 221.985C44.2691 222.099 43.6031 222.129 42.7811 222.135V221.109ZM45.4991 218.493V224.025H46.2971V218.493H45.4991ZM32.7262 228.097C31.4782 227.881 30.7942 227.023 30.7942 226.213V225.817H29.9482V226.213C29.9482 227.005 29.2582 227.881 28.0162 228.097L28.3522 228.757C29.3122 228.571 30.0142 228.031 30.3682 227.329C30.7222 228.031 31.4302 228.565 32.3902 228.757L32.7262 228.097ZM27.8962 229.705V230.347H32.9002V229.705H27.8962ZM34.7298 226.639H35.2998V229.075C35.1078 229.081 34.9158 229.087 34.7298 229.093V226.639ZM36.0618 226.639H36.5358V226.003H33.4878V226.639H33.9618V229.111C33.7458 229.111 33.5358 229.111 33.3438 229.111L33.4278 229.759C34.3698 229.759 35.6238 229.735 36.7458 229.537L36.6978 228.961C36.4938 228.991 36.2778 229.003 36.0618 229.021V226.639ZM38.5458 227.581H37.7418V225.499H36.9498V231.025H37.7418V228.235H38.5458V227.581Z" fill="black"/>
<path d="M287.489 20.4985C286.241 20.2825 285.557 19.4245 285.557 18.6145V18.2185H284.711V18.6145C284.711 19.4065 284.021 20.2825 282.779 20.4985L283.115 21.1585C284.075 20.9725 284.777 20.4325 285.131 19.7305C285.485 20.4325 286.193 20.9665 287.153 21.1585L287.489 20.4985ZM282.659 22.1065V22.7485H287.663V22.1065H282.659ZM290.321 18.3205H289.529V19.1245C289.529 20.1985 289.073 21.2665 288.107 21.6805L288.581 22.3345C289.241 22.0225 289.691 21.4285 289.937 20.6905C290.183 21.3685 290.609 21.9145 291.245 22.2025L291.695 21.5605C290.759 21.1585 290.321 20.1505 290.321 19.1245V18.3205ZM291.965 17.8885V23.4325H292.757V17.8885H291.965ZM278.622 28.5065C278.208 28.5065 277.932 28.0685 277.932 27.2465C277.932 26.4305 278.208 25.9925 278.622 25.9925C279.03 25.9925 279.312 26.4305 279.312 27.2465C279.312 28.0685 279.03 28.5065 278.622 28.5065ZM278.622 25.2785C277.782 25.2785 277.17 26.0345 277.17 27.2465C277.17 28.4645 277.782 29.2265 278.622 29.2265C279.456 29.2265 280.074 28.4645 280.074 27.2465C280.074 26.0345 279.456 25.2785 278.622 25.2785ZM282.27 26.9765H281.466V24.8945H280.674V30.4205H281.466V27.6305H282.27V26.9765ZM283.667 27.4985H285.419V25.3625H282.881V25.9925H284.639V26.8745H282.887V29.1545H283.355C284.315 29.1545 285.077 29.1185 285.905 28.9685L285.833 28.3265C285.113 28.4525 284.459 28.4945 283.667 28.5005V27.4985ZM287.789 26.9765H286.997V24.8885H286.205V30.4325H286.997V27.6305H287.789V26.9765ZM288.449 25.3925V29.1065H291.107V25.3925H288.449ZM290.327 26.0165V28.4825H289.229V26.0165H290.327ZM291.965 24.8945V30.4325H292.757V24.8945H291.965ZM294.202 28.3205C295.162 28.1465 295.852 27.6605 296.2 27.0065C296.548 27.6485 297.25 28.1225 298.222 28.2905L298.522 27.6665C297.274 27.4805 296.62 26.7485 296.614 25.9865H298.276V25.3625H294.112V25.9865H295.774C295.768 26.7485 295.114 27.4985 293.896 27.6905L294.202 28.3205ZM293.698 29.1185V29.7605H298.702V29.1185H293.698Z" fill="black"/>
<path d="M229.811 23.4342H232.193V24.8982H229.811V23.4342ZM231.401 26.6442V25.5222H232.967V22.8102H229.037V25.5222H230.609V26.6442H228.509V27.2862H233.513V26.6442H231.401ZM238.492 24.3102H235.432V24.0102H238.324V23.4342H235.432V23.1462H238.45V22.5462H234.646V24.9102H238.492V24.3102ZM237.634 27.0222C237.634 27.2502 237.274 27.3522 236.512 27.3522C235.75 27.3522 235.396 27.2502 235.396 27.0222C235.396 26.7942 235.75 26.6982 236.512 26.6982C237.274 26.6982 237.634 26.7942 237.634 27.0222ZM239.02 25.8162V25.1922H234.022V25.8162H236.122V26.1282C235.15 26.1942 234.598 26.4942 234.598 27.0222C234.598 27.6102 235.3 27.9342 236.512 27.9342C237.724 27.9342 238.432 27.6102 238.432 27.0222C238.432 26.5002 237.88 26.1942 236.914 26.1282V25.8162H239.02ZM243.334 22.3962V27.9402H244.126V22.3962H243.334ZM241.156 22.7862C240.322 22.7862 239.704 23.5422 239.704 24.7542C239.704 25.9722 240.322 26.7342 241.156 26.7342C241.99 26.7342 242.608 25.9722 242.608 24.7542C242.608 23.5422 241.99 22.7862 241.156 22.7862ZM241.156 23.5002C241.564 23.5002 241.846 23.9382 241.846 24.7542C241.846 25.5762 241.564 26.0142 241.156 26.0142C240.748 26.0142 240.466 25.5762 240.466 24.7542C240.466 23.9382 240.748 23.5002 241.156 23.5002ZM247.557 23.2182C248.277 23.2182 248.739 23.4342 248.739 23.8302C248.739 24.2322 248.277 24.4482 247.557 24.4482C246.831 24.4482 246.369 24.2322 246.369 23.8302C246.369 23.4342 246.831 23.2182 247.557 23.2182ZM247.557 25.0782C248.733 25.0782 249.555 24.5922 249.555 23.8302C249.555 23.0802 248.733 22.5882 247.557 22.5882C246.375 22.5882 245.559 23.0802 245.559 23.8302C245.559 24.5922 246.375 25.0782 247.557 25.0782ZM250.071 25.4922H245.067V26.1282H247.155V27.9342H247.947V26.1282H250.071V25.4922Z" fill="black"/>
<path d="M287.623 76.3313V78.9413H288.288V76.3313H287.623ZM285.223 79.1463V80.8813H288.288V79.1463H285.223ZM287.643 79.6613V80.3663H285.873V79.6613H287.643ZM285.783 76.5413C285.068 76.5413 284.528 77.0013 284.528 77.6513C284.528 78.2963 285.068 78.7563 285.783 78.7563C286.498 78.7563 287.033 78.2963 287.033 77.6513C287.033 77.0013 286.498 76.5413 285.783 76.5413ZM285.783 77.0913C286.128 77.0913 286.388 77.3013 286.388 77.6513C286.388 77.9963 286.128 78.2063 285.783 78.2063C285.433 78.2063 285.173 77.9963 285.173 77.6513C285.173 77.3013 285.433 77.0913 285.783 77.0913ZM291.608 78.6363H290.668V77.2563H291.608V78.6363ZM290.013 78.6363H289.413V79.1613H292.873V78.6363H292.263V77.2563H292.888V76.7313H289.388V77.2563H290.013V78.6363ZM289.063 79.8663V80.4013H293.233V79.8663H289.063ZM294.427 78.5463H295.412V76.7813H293.782V77.3063H294.772V78.0263H293.787V79.8613H294.112C294.687 79.8613 295.197 79.8463 295.792 79.7413L295.737 79.2113C295.272 79.2863 294.862 79.3113 294.427 79.3213V78.5463ZM296.052 77.8963H295.597V78.4363H296.052V80.7213H296.662V76.4113H296.052V77.8963ZM296.987 76.3263V80.9313H297.612V76.3263H296.987ZM301.452 79.7413H302.112V76.3313H301.452V76.9313H300.687V77.4563H301.452V77.8163H300.687V78.3463H301.452V79.7413ZM301.012 78.6613C300.282 78.3863 299.982 77.7563 299.982 77.1263V76.5913H299.312V77.1263C299.312 77.7963 298.997 78.4413 298.237 78.7113L298.582 79.2263C299.107 79.0313 299.457 78.6563 299.652 78.1863C299.842 78.6263 300.167 78.9813 300.647 79.1713L301.012 78.6613ZM299.732 80.3313V79.4313H299.072V80.8563H302.212V80.3313H299.732Z" fill="black"/>
<path d="M162.466 43.8364V44.2564H163.63C163.614 44.4324 163.586 44.5924 163.55 44.7484L162.27 44.8204L162.338 45.2644L163.39 45.1684C163.178 45.5724 162.822 45.9124 162.25 46.2124L162.538 46.6124C163.858 45.9204 164.154 44.9684 164.154 43.8364H162.466ZM164.834 43.4844V44.8964H164.146V45.3244H164.834V47.1684H165.362V43.4844H164.834ZM166.881 44.2484H167.293V45.8724C167.153 45.8764 167.017 45.8844 166.881 45.8844V44.2484ZM167.801 44.2484H168.117V43.8244H166.049V44.2484H166.369V45.8964C166.225 45.8964 166.085 45.8964 165.953 45.8964L166.009 46.3284C166.669 46.3244 167.517 46.3084 168.293 46.1764L168.261 45.7964C168.109 45.8164 167.957 45.8324 167.801 45.8404V44.2484ZM168.497 43.4884V47.1724H169.029V43.4884H168.497ZM163.662 50.2204C162.83 50.0764 162.374 49.5044 162.374 48.9644V48.7004H161.81V48.9644C161.81 49.4924 161.35 50.0764 160.522 50.2204L160.746 50.6604C161.386 50.5364 161.854 50.1764 162.09 49.7084C162.326 50.1764 162.798 50.5324 163.438 50.6604L163.662 50.2204ZM160.442 51.2924V51.7204H163.778V51.2924H160.442ZM164.837 48.8324H164.313V51.2604H164.641C165.201 51.2604 165.813 51.2204 166.441 51.0884L166.385 50.6484C165.845 50.7564 165.321 50.7964 164.837 50.8084V48.8324ZM166.669 48.4804V52.1644H167.197V48.4804H166.669ZM168.701 49.2284H169.065V50.8804C168.941 50.8884 168.821 50.8924 168.701 50.8964V49.2284ZM169.573 49.2284H169.917V48.8084H167.885V49.2284H168.189V50.9084C168.049 50.9084 167.913 50.9084 167.785 50.9084L167.841 51.3364C168.469 51.3364 169.305 51.3204 170.041 51.1924L170.009 50.8084C169.869 50.8244 169.721 50.8404 169.573 50.8484V49.2284ZM170.365 48.4844V49.8204H169.817V50.2484H170.365V52.1724H170.893V48.4844H170.365Z" fill="black"/>
<path d="M157.692 92.6817C157.692 92.3997 157.953 92.2347 158.331 92.2347C158.712 92.2347 158.973 92.3997 158.973 92.6817C158.973 92.9637 158.712 93.1287 158.331 93.1287C157.953 93.1287 157.692 92.9637 157.692 92.6817ZM158.529 93.8997V93.4317C159.018 93.3747 159.363 93.0927 159.363 92.6817C159.363 92.2197 158.922 91.9197 158.331 91.9197C157.743 91.9197 157.302 92.2197 157.302 92.6817C157.302 93.0927 157.647 93.3717 158.133 93.4317V93.8997H157.083V94.2207H159.585V93.8997H158.529ZM160.395 93.0807H161.292V92.0127H159.987V92.3277H160.887V92.7687H159.99V93.9057H160.239C160.74 93.9057 161.145 93.8877 161.595 93.8097L161.553 93.4887C161.163 93.5547 160.815 93.5757 160.395 93.5787V93.0807ZM161.745 91.7757V94.5477H162.141V91.7757H161.745ZM163.671 92.3697H164.241V92.0427H162.693V92.3697H163.269V92.5227C163.269 92.9937 163.044 93.5007 162.582 93.7077L162.807 94.0227C163.131 93.8757 163.353 93.5727 163.476 93.2127C163.599 93.5457 163.818 93.8157 164.139 93.9537L164.355 93.6417C163.893 93.4497 163.671 92.9727 163.671 92.5227V92.3697ZM164.496 91.7787V94.5417H164.892V91.7787H164.496ZM167.277 93.1737H167.673V91.7757H167.277V92.1627H166.608V92.4777H167.277V93.1737ZM166.953 92.6907C166.587 92.7537 166.242 92.7807 165.906 92.7867V91.8897H165.513V93.1137H165.747C166.146 93.1137 166.557 93.0927 167.004 93.0087L166.953 92.6907ZM166.251 94.1997V94.0317H167.673V93.2787H165.852V93.5877H167.277V93.7407H165.855V94.5087H167.742V94.1997H166.251ZM158.874 96.9007H159.063V97.8697H159.438V95.7817H159.063V96.5797H158.874V95.8297H158.505V97.7797H158.874V96.9007ZM157.632 96.3487H157.845V97.1077C157.776 97.1107 157.701 97.1137 157.632 97.1137V96.3487ZM158.397 97.0627C158.337 97.0717 158.268 97.0777 158.199 97.0867V96.3487H158.37V96.0337H157.107V96.3487H157.278V97.1227C157.2 97.1227 157.128 97.1227 157.059 97.1227L157.101 97.4437C157.443 97.4437 157.998 97.4347 158.421 97.3507L158.397 97.0627ZM157.962 98.1787V97.6207H157.563V98.4937H159.504V98.1787H157.962ZM161.268 96.8197H160.983C161.04 96.5947 161.061 96.3487 161.061 96.0877H159.984V96.4057H160.68C160.671 96.5167 160.656 96.6217 160.632 96.7207L159.846 96.7627L159.891 97.0927L160.527 97.0267C160.398 97.2907 160.179 97.5187 159.831 97.7227L160.05 97.9987C160.47 97.7557 160.728 97.4647 160.875 97.1347H161.268V98.4187H161.637V95.8387H161.268V96.8197ZM161.844 95.7757V98.5387H162.219V95.7757H161.844ZM164.496 95.7757V98.5477H164.892V95.7757H164.496ZM163.407 95.9707C162.99 95.9707 162.681 96.3487 162.681 96.9547C162.681 97.5637 162.99 97.9447 163.407 97.9447C163.824 97.9447 164.133 97.5637 164.133 96.9547C164.133 96.3487 163.824 95.9707 163.407 95.9707ZM163.407 96.3277C163.611 96.3277 163.752 96.5467 163.752 96.9547C163.752 97.3657 163.611 97.5847 163.407 97.5847C163.203 97.5847 163.062 97.3657 163.062 96.9547C163.062 96.5467 163.203 96.3277 163.407 96.3277ZM165.567 96.8347L165.615 97.1557L167.193 97.0747C167.175 97.2607 167.145 97.4617 167.091 97.6867L167.481 97.7257C167.61 97.1257 167.61 96.7447 167.61 96.3427V96.0217H165.645V96.3367H167.22V96.3427C167.22 96.4837 167.22 96.6277 167.214 96.7807L165.567 96.8347ZM165.366 97.8907V98.2147H167.862V97.8907H165.366Z" fill="black"/>
</g>
<defs>
<clipPath id="clip0">
<rect width="315" height="330" fill="white"/>
</clipPath>
</defs>
</svg>
