<svg width="355" height="156" viewBox="0 0 355 156" fill="none" xmlns="http://www.w3.org/2000/svg">
<path opacity="0.8" d="M158.712 155.361L255.025 95.2321L197.557 61.1766L101.244 118.113L158.712 155.361Z" fill="#C4C4C4"/>
<path d="M160.508 54.1594L188.54 70.7832L198.268 65.001L252.555 97.1644L354.017 37.0194L295.755 2.5328L275.515 14.5102L251.457 0.26123L160.508 54.1594Z" fill="white"/>
<path d="M66.0023 19.0532L170.288 80.8502L104.286 119.932L0 58.1861L66.0023 19.0532Z" fill="white"/>
<path d="M88.23 56.173L95.6566 60.5612L74.6844 73.0032L67.2578 68.5634L88.23 56.173Z" fill="black"/>
<path d="M188.018 41.666L202.087 49.9779L194.922 54.2113L180.905 45.8994L188.018 41.666Z" fill="black"/>
<path d="M250.464 30.7213L257.89 35.1095L236.866 47.4999L229.439 43.1117L250.464 30.7213Z" fill="black"/>
<path d="M84.6213 64.2371C84.8335 64.396 85.2049 64.396 85.4702 64.2371C85.6824 64.0781 85.6824 63.8661 85.4702 63.7602C85.258 63.6012 84.8866 63.6012 84.6213 63.7602C84.356 63.8661 84.356 64.0781 84.6213 64.2371Z" fill="white"/>
<path d="M81.9157 65.7735L80.4832 66.6213C80.2179 66.7803 79.8465 66.5683 80.1118 66.4094L81.5443 65.5616L81.0137 65.2437L83.5073 64.3959L83.4012 64.3429L81.9687 64.8198C81.6504 64.9257 81.4382 64.6608 81.7565 64.5548L83.2951 64.078C83.4543 64.025 83.8787 63.972 84.197 64.1309L84.4623 64.2899L84.7806 64.4489C85.099 64.6078 84.9929 64.8728 84.9398 64.9787L84.0909 65.9325C83.9318 66.1445 83.4543 65.9855 83.6665 65.8265L84.4623 64.9787L84.3562 64.9257L82.9768 66.4094L82.4462 66.0915L80.9607 66.9922C80.6954 67.1512 80.324 66.9393 80.5893 66.7803L82.0748 65.8795L81.9157 65.7735Z" fill="white"/>
<path d="M81.3825 62.133C81.0641 61.974 80.5866 61.974 80.3214 62.133L79.048 62.9278C78.7828 63.0868 79.1541 63.2987 79.4194 63.1398L80.5866 62.4509L80.6927 62.5039L77.4033 64.4644C77.085 64.6764 77.5625 64.9413 77.8808 64.7294L79.7908 63.5636L79.8969 63.6166L77.9869 64.7824C77.6686 64.9943 78.1461 65.2592 78.4644 65.0473L81.7539 63.0868L81.86 63.1398L80.6927 63.8286C80.4275 63.9875 80.7989 64.1995 81.0641 64.0405L82.3375 63.2457C82.6027 63.0868 82.6558 62.7688 82.3375 62.6099L81.3825 62.133Z" fill="white"/>
<path d="M82.3375 62.4506C82.6598 62.4506 82.9211 62.2845 82.9211 62.0797C82.9211 61.8748 82.6598 61.7087 82.3375 61.7087C82.0152 61.7087 81.7539 61.8748 81.7539 62.0797C81.7539 62.2845 82.0152 62.4506 82.3375 62.4506Z" fill="white"/>
<path d="M245.077 38.1551C245.286 38.31 245.652 38.31 245.914 38.1551C246.123 38.0003 246.123 37.7938 245.914 37.6905C245.705 37.5356 245.338 37.5356 245.077 37.6905C244.815 37.7938 244.815 38.0519 245.077 38.1551Z" fill="white"/>
<path d="M242.41 39.6522L240.998 40.4782C240.736 40.6331 240.37 40.4266 240.631 40.2717L242.044 39.4457L241.521 39.1359L243.979 38.3099L243.874 38.2582L242.462 38.7229C242.148 38.8261 241.939 38.568 242.253 38.4648L243.769 38.0001C243.926 37.9485 244.345 37.8969 244.659 38.0517L244.92 38.2066L245.234 38.3615C245.548 38.5164 245.443 38.7745 245.391 38.8778L244.554 39.807C244.397 40.0136 243.926 39.8587 244.136 39.7038L244.92 38.8778L244.816 38.8261L243.456 40.2717L242.933 39.9619L241.468 40.8396C241.207 40.9945 240.841 40.788 241.102 40.6331L242.567 39.7554L242.41 39.6522Z" fill="white"/>
<path d="M192.725 46.777C192.411 46.6222 191.94 46.6222 191.679 46.777L190.424 47.5514C190.162 47.7063 190.528 47.9128 190.79 47.7579L191.94 47.0868L192.045 47.1384L188.802 49.0486C188.488 49.2551 188.959 49.5132 189.273 49.3067L191.156 48.171L191.26 48.2226L189.378 49.3584C189.064 49.5649 189.534 49.823 189.848 49.6165L193.091 47.7063L193.195 47.7579L192.045 48.4291C191.783 48.584 192.149 48.7905 192.411 48.6356L193.666 47.8612C193.928 47.7063 193.98 47.3966 193.666 47.2417L192.725 46.777Z" fill="white"/>
<path d="M193.666 47.0869C193.984 47.0869 194.241 46.9251 194.241 46.7255C194.241 46.5259 193.984 46.3642 193.666 46.3642C193.348 46.3642 193.091 46.5259 193.091 46.7255C193.091 46.9251 193.348 47.0869 193.666 47.0869Z" fill="white"/>
<path d="M179.389 46.7767L186.031 50.7004L173.531 58.083L166.889 54.1594L179.389 46.7767Z" fill="black"/>
<path d="M174.734 58.8063L182.265 63.2462L190.162 67.9442L202.662 60.5616L211.291 55.4506L203.342 50.7525L194.765 55.8636L187.234 51.3721L174.734 58.8063Z" fill="#DAC452"/>
<path d="M259.354 35.9868L273.841 44.5569L252.869 56.9989L238.382 48.3772L259.354 35.9868Z" fill="black"/>
<path d="M274.94 45.2277L282.419 49.616L261.395 62.058L253.968 57.6697L274.94 45.2277Z" fill="black"/>
<path d="M268.35 56.1216L271.54 54.263C271.854 54.0565 271.854 53.7468 271.54 53.5919L268.35 51.6817C268.036 51.4752 267.513 51.4752 267.2 51.6817L264.009 53.5403C263.695 53.7468 263.695 54.0565 264.009 54.2114L267.2 56.1216C267.513 56.3281 268.036 56.3281 268.35 56.1216ZM267.775 55.8635L264.375 53.85L267.723 51.8366L271.122 53.85L267.775 55.8635Z" fill="white"/>
<path d="M272.534 51.6812C272.795 51.5264 273.161 51.7329 272.9 51.8877L271.854 52.5073L272.272 52.4556C272.534 52.4556 272.586 52.7138 272.272 52.7138L271.226 52.7654C271.069 52.7654 270.965 52.7138 270.965 52.6105L271.069 51.991C271.069 51.7845 271.54 51.8361 271.54 51.991L271.488 52.2491L272.534 51.6812Z" fill="white"/>
<path d="M269.657 51.7333C269.396 51.8882 269.762 52.0947 270.023 51.9398L271.069 51.3203L271.017 51.5784C271.017 51.7333 271.436 51.7849 271.488 51.5784L271.592 50.9589C271.592 50.8556 271.488 50.804 271.331 50.804L270.285 50.8556C269.971 50.8556 270.023 51.1138 270.285 51.1138L270.703 51.0621L269.657 51.7333Z" fill="white"/>
<path d="M269.448 54.0567L268.82 53.6953C268.768 53.6437 268.611 53.6437 268.507 53.6953L267.722 54.16C267.67 54.2116 267.67 54.2632 267.722 54.2632C267.722 54.2632 267.722 54.2632 267.774 54.3148L266.781 54.9344C266.624 55.0376 266.885 55.1925 267.042 55.0893L268.036 54.4697H268.088L267.095 55.0893C266.885 55.1925 267.199 55.3474 267.356 55.2441L268.35 54.6246C268.402 54.6246 268.402 54.6762 268.402 54.6762C268.454 54.7279 268.559 54.7279 268.611 54.6762L269.396 54.2116C269.5 54.2116 269.5 54.1083 269.448 54.0567Z" fill="white"/>
<path d="M269.396 53.9018C269.54 53.9018 269.657 53.8324 269.657 53.7469C269.657 53.6614 269.54 53.592 269.396 53.592C269.251 53.592 269.134 53.6614 269.134 53.7469C269.134 53.8324 269.251 53.9018 269.396 53.9018Z" fill="white"/>
<path d="M268.088 53.2817L267.461 52.9203C267.408 52.8687 267.251 52.8687 267.147 52.9203L266.362 53.3849C266.31 53.4366 266.31 53.4882 266.362 53.4882C266.362 53.4882 266.362 53.4882 266.415 53.5398L265.421 54.1593C265.264 54.2626 265.526 54.4175 265.682 54.3142L266.676 53.6947H266.728L265.735 54.3142C265.526 54.4175 265.839 54.5723 265.996 54.4691L266.99 53.8496C267.042 53.8496 267.042 53.9012 267.042 53.9012C267.095 53.9528 267.199 53.9528 267.251 53.9012L268.036 53.4365C268.193 53.3849 268.193 53.3333 268.088 53.2817Z" fill="white"/>
<path d="M268.036 53.0754C268.18 53.0754 268.297 53.0061 268.297 52.9206C268.297 52.835 268.18 52.7657 268.036 52.7657C267.891 52.7657 267.774 52.835 267.774 52.9206C267.774 53.0061 267.891 53.0754 268.036 53.0754Z" fill="white"/>
<path d="M228.341 17.6075L249.313 30.0495L228.341 42.4915L207.369 30.0495L228.341 17.6075Z" fill="black"/>
<path d="M288.852 53.437L305.274 63.1945L284.302 75.6365L277.241 71.4031L280.954 58.1351L288.852 53.437Z" fill="#DAC452"/>
<path d="M313.432 23.8031L291.257 36.9163L320.44 54.2112L349.31 37.1228L323.003 21.4799L316.256 25.5068L313.432 23.8031Z" fill="#DAC452"/>
<path d="M286.132 33.8702L308.307 20.757L305.43 19.105L312.177 15.0781L295.859 5.4239L266.938 22.5123L286.132 33.8702Z" fill="#DAC452"/>
<path d="M252.608 3.25595L273.581 15.698L250.83 29.1725L229.858 16.7305L252.608 3.25595Z" fill="black"/>
<path d="M97.1211 61.4385L107.476 67.5821L86.5043 79.9725L76.1489 73.8806L97.1211 61.4385Z" fill="black"/>
<path d="M111.973 81.6247L123.113 88.2329L111.764 94.9443L100.624 88.3361L111.973 81.6247Z" fill="#C8A67C"/>
<path d="M124.474 89.0587L138.228 97.2157L126.879 103.927L113.125 95.7702L124.474 89.0587Z" fill="#C8A67C"/>
<path d="M122.852 75.1715L113.229 80.9021L139.483 96.4417L165.842 80.8504L135.456 62.8327L118.72 72.745L122.852 75.1715Z" fill="black"/>
<path d="M112.758 70.6799L120.185 75.0682L99.2127 87.5102L91.7861 83.1219L112.758 70.6799Z" fill="black"/>
<path d="M104.861 82.347L108.052 80.4885C108.365 80.282 108.365 79.9722 108.052 79.8173L104.861 77.9072C104.548 77.7006 104.025 77.7006 103.711 77.9072L100.521 79.7657C100.207 79.9722 100.207 80.282 100.521 80.4369L103.711 82.347C104.025 82.5019 104.495 82.5535 104.861 82.347ZM104.286 82.0889L100.887 80.0755L104.234 78.062L107.633 80.0755L104.286 82.0889Z" fill="white"/>
<path d="M109.045 77.9074C109.307 77.7525 109.673 77.959 109.411 78.1139L108.365 78.7334L108.784 78.6818C109.045 78.6818 109.097 78.9399 108.784 78.9399L107.738 78.9916C107.581 78.9916 107.476 78.9399 107.476 78.8367L107.581 78.2172C107.581 78.0107 108.051 78.0623 108.051 78.2172L107.999 78.4753L109.045 77.9074Z" fill="white"/>
<path d="M106.117 77.9073C105.855 78.0622 106.221 78.2687 106.483 78.1138L107.529 77.4943L107.477 77.7524C107.477 77.9073 107.895 77.9589 107.947 77.7524L108.052 77.1329C108.052 77.0296 107.947 76.978 107.79 76.978L106.744 77.0296C106.431 77.0296 106.483 77.2878 106.744 77.2878L107.163 77.2361L106.117 77.9073Z" fill="white"/>
<path d="M105.907 80.2819L105.279 79.9205C105.227 79.8689 105.07 79.8689 104.966 79.9205L104.181 80.3851C104.129 80.4367 104.129 80.4884 104.181 80.4884C104.181 80.4884 104.181 80.4884 104.233 80.54L103.24 81.1595C103.083 81.2628 103.344 81.4177 103.501 81.3144L104.495 80.6949H104.547L103.554 81.3144C103.344 81.4177 103.658 81.5725 103.815 81.4693L104.809 80.8498C104.861 80.8498 104.861 80.9014 104.861 80.9014C104.913 80.953 105.018 80.953 105.07 80.9014L105.855 80.4367C106.012 80.4367 106.012 80.3335 105.907 80.2819Z" fill="white"/>
<path d="M105.907 80.0754C106.051 80.0754 106.169 80.006 106.169 79.9205C106.169 79.8349 106.051 79.7656 105.907 79.7656C105.763 79.7656 105.646 79.8349 105.646 79.9205C105.646 80.006 105.763 80.0754 105.907 80.0754Z" fill="white"/>
<path d="M104.6 79.5066L103.972 79.1452C103.92 79.0936 103.763 79.0936 103.659 79.1452L102.874 79.6099C102.822 79.6615 102.822 79.7131 102.874 79.7131C102.874 79.7131 102.874 79.7131 102.926 79.7648L101.933 80.3843C101.776 80.4875 102.037 80.6424 102.194 80.5392L103.188 79.9196H103.24L102.246 80.5392C102.037 80.6424 102.351 80.7973 102.508 80.694L103.502 80.0745C103.554 80.0745 103.554 80.1262 103.554 80.1262C103.606 80.1778 103.711 80.1778 103.763 80.1262L104.548 79.6615C104.652 79.6099 104.652 79.5583 104.6 79.5066Z" fill="white"/>
<path d="M104.548 79.3013C104.692 79.3013 104.809 79.2319 104.809 79.1464C104.809 79.0609 104.692 78.9915 104.548 78.9915C104.403 78.9915 104.286 79.0609 104.286 79.1464C104.286 79.2319 104.403 79.3013 104.548 79.3013Z" fill="white"/>
<path d="M66.1076 67.9434L87.1321 55.5014L70.2393 45.5375L88.2827 34.8507L77.2998 28.3974L59.3086 39.0325L38.3364 51.4745L66.1076 67.9434Z" fill="black"/>
<path d="M106.221 45.4865L121.806 54.7276L105.07 64.6399L89.4849 55.3988L106.221 45.4865Z" fill="black"/>
<path d="M42.6245 63.3488L55.863 71.0758L41.1145 79.8007L27.876 72.0737L42.6245 63.3488Z" fill="#C8A67C"/>
<path d="M57.6745 72.0737L70.913 79.8007L56.1645 88.5256L42.926 80.7986L57.6745 72.0737Z" fill="#C8A67C"/>
<path d="M66.0024 21.6862L75.9916 27.5716L37.0283 50.6487L27.0391 44.7633L66.0024 21.6862Z" fill="black"/>
<path d="M25.8877 45.4865L48.1151 58.6513L26.6722 71.3514L4.44482 58.1866L25.8877 45.4865Z" fill="black"/>
<path d="M280.117 34.0766L294.395 42.5434L286.707 47.0865L272.429 38.6198L280.117 34.0766Z" fill="black"/>
<path d="M284.458 39.3942C284.667 39.4975 285.033 39.4975 285.243 39.3942C285.452 39.291 285.452 39.0328 285.243 38.9296C285.033 38.8263 284.667 38.8263 284.458 38.9296C284.249 39.0845 284.249 39.291 284.458 39.3942Z" fill="white"/>
<path d="M287.544 40.7884L286.603 40.2205C286.393 40.1172 286.08 40.014 285.818 40.014H284.145L284.406 39.8591C284.929 39.5493 284.145 39.0847 283.622 39.3945L282.628 40.014H281.163C281.007 40.014 281.007 40.014 280.902 39.9107L280.431 39.6526C279.961 39.3945 279.281 39.4461 278.967 39.6526C278.601 39.8591 278.444 40.2721 278.967 40.5819C278.967 40.5819 279.594 40.9432 279.751 41.0465C279.961 41.1498 280.222 41.253 280.588 41.253H285.295C285.4 41.253 285.452 41.253 285.504 41.3046C285.504 41.3046 285.818 41.5111 286.08 41.666C286.341 41.8209 287.073 41.8725 287.544 41.6144C287.962 41.4079 287.858 40.9949 287.544 40.7884ZM286.393 41.4595L285.923 41.1498C285.713 41.0465 285.609 40.9949 285.347 40.9949H280.64C280.431 40.9949 280.274 40.9432 280.117 40.84L279.333 40.3754C279.124 40.2721 279.124 40.0656 279.333 39.9107C279.542 39.7558 279.856 39.8075 280.013 39.9107L280.536 40.2205C280.693 40.3237 280.85 40.3237 281.007 40.3237H285.818C286.027 40.3237 286.132 40.3754 286.289 40.4786L287.126 40.9433C287.335 41.0465 287.23 41.253 287.126 41.3563C286.969 41.5111 286.655 41.6144 286.393 41.4595Z" fill="white"/>
<path d="M234.355 54.1593L254.543 66.1367L246.802 70.6799L226.667 58.7541L234.355 54.1593Z" fill="black"/>
<path d="M241.625 61.2843C241.834 61.3876 242.2 61.3876 242.409 61.2843C242.618 61.1811 242.618 60.9229 242.409 60.8197C242.2 60.7164 241.834 60.7164 241.625 60.8197C241.415 60.9229 241.415 61.1294 241.625 61.2843Z" fill="white"/>
<path d="M244.71 62.6784L243.769 62.1105C243.56 62.0073 243.246 61.904 242.985 61.904H241.311L241.572 61.7492C242.095 61.4394 241.311 60.9748 240.788 61.2845L239.794 61.904H238.33C238.173 61.904 238.173 61.904 238.068 61.8008L237.598 61.5427C237.127 61.2845 236.447 61.3362 236.133 61.5427C235.767 61.7492 235.61 62.1622 236.133 62.4719C236.133 62.4719 236.761 62.8333 236.918 62.9366C237.127 63.0398 237.389 63.1431 237.755 63.1431H242.462C242.566 63.1431 242.618 63.1431 242.671 63.1947C242.671 63.1947 242.985 63.4012 243.246 63.5561C243.508 63.711 244.24 63.7626 244.71 63.5045C245.129 63.2463 245.024 62.8333 244.71 62.6784ZM243.56 63.298L243.089 62.9882C242.88 62.8849 242.775 62.8333 242.514 62.8333H237.807C237.598 62.8333 237.441 62.7817 237.284 62.6784L236.499 62.2138C236.29 62.1105 236.29 61.904 236.499 61.7492C236.709 61.5943 237.022 61.6459 237.179 61.7492L237.702 62.0589C237.859 62.1622 238.016 62.1622 238.173 62.1622H242.985C243.194 62.1622 243.298 62.2138 243.455 62.3171L244.292 62.7817C244.501 62.8849 244.397 63.0915 244.292 63.1947C244.187 63.298 243.821 63.4528 243.56 63.298Z" fill="white"/>
<path d="M76.8277 91.95L97.0154 103.876L89.3274 108.471L69.1396 96.4932L76.8277 91.95Z" fill="black"/>
<path d="M84.1506 99.023C84.3598 99.1263 84.7259 99.1263 84.9351 99.023C85.1443 98.9198 85.1443 98.6616 84.9351 98.5584C84.7259 98.4551 84.3598 98.4551 84.1506 98.5584C83.9414 98.7133 83.9414 98.9198 84.1506 99.023Z" fill="white"/>
<path d="M87.2364 100.417L86.295 99.8493C86.0858 99.746 85.772 99.6427 85.5105 99.6427H83.8369L84.0984 99.4879C84.6214 99.1781 83.8369 98.7135 83.3139 99.0232L82.3202 99.6427H80.8558C80.6989 99.6427 80.6989 99.6427 80.5943 99.5395L80.1236 99.2814C79.6529 99.0232 78.973 99.0748 78.6592 99.2814C78.2931 99.4879 78.1362 99.9009 78.6592 100.211C78.6592 100.211 79.2868 100.572 79.4437 100.675C79.6529 100.779 79.9144 100.882 80.2805 100.882H84.9875C85.0921 100.882 85.1444 100.882 85.1967 100.933C85.1967 100.933 85.5105 101.14 85.772 101.295C86.0335 101.45 86.7657 101.501 87.2364 101.243C87.6025 101.037 87.5502 100.624 87.2364 100.417ZM86.0335 101.088L85.5628 100.779C85.3536 100.675 85.249 100.624 84.9875 100.624H80.2805C80.0713 100.624 79.9144 100.572 79.7575 100.469L78.973 100.004C78.7638 99.9009 78.7638 99.6944 78.973 99.5395C79.1822 99.3846 79.496 99.4362 79.6529 99.5395L80.1759 99.8493C80.3328 99.9525 80.4897 99.9525 80.6466 99.9525H85.4582C85.6674 99.9525 85.772 100.004 85.9289 100.107L86.7657 100.572C86.9749 100.675 86.8703 100.882 86.7657 100.985C86.6611 101.14 86.295 101.243 86.0335 101.088Z" fill="white"/>
<path d="M183.677 72.8998L195.079 79.7145L184.723 85.9098L173.27 79.095L183.677 72.8998Z" fill="black"/>
<path d="M183.625 82.2961L186.815 80.4376C187.129 80.2311 187.129 79.9213 186.815 79.7664L183.625 77.8562C183.311 77.6497 182.788 77.6497 182.474 77.8562L179.284 79.7148C178.97 79.9213 178.97 80.2311 179.284 80.386L182.474 82.2961C182.788 82.451 183.311 82.5026 183.625 82.2961ZM183.05 82.038L179.65 80.0246L182.997 78.0111L186.397 80.0246L183.05 82.038Z" fill="white"/>
<path d="M187.809 77.8563C188.07 77.7014 188.436 77.908 188.175 78.0628L187.129 78.6823L187.547 78.6307C187.809 78.6307 187.861 78.8889 187.547 78.8889L186.501 78.9405C186.344 78.9405 186.24 78.8889 186.24 78.7856L186.344 78.1661C186.344 77.9596 186.815 78.0112 186.815 78.1661L186.763 78.4242L187.809 77.8563Z" fill="white"/>
<path d="M184.932 77.8564C184.671 78.0112 185.037 78.2177 185.298 78.0629L186.344 77.4433L186.292 77.7015C186.292 77.8564 186.71 77.908 186.763 77.7015L186.867 77.082C186.867 76.9787 186.763 76.9271 186.606 76.9271L185.56 76.9787C185.246 76.9787 185.298 77.2368 185.56 77.2368L185.978 77.1852L184.932 77.8564Z" fill="white"/>
<path d="M184.724 80.2309L184.096 79.8695C184.044 79.8179 183.887 79.8179 183.782 79.8695L182.998 80.3341C182.945 80.3857 182.945 80.4374 182.998 80.4374C182.998 80.4374 182.998 80.4374 183.05 80.489L182.056 81.1085C181.899 81.2118 182.161 81.3667 182.318 81.2634L183.311 80.6439H183.364L182.37 81.2634C182.161 81.3667 182.475 81.5215 182.631 81.4183L183.625 80.7988C183.678 80.7988 183.677 80.8504 183.677 80.8504C183.73 80.902 183.834 80.902 183.887 80.8504L184.671 80.3858C184.828 80.3341 184.828 80.2825 184.724 80.2309Z" fill="white"/>
<path d="M184.671 80.0247C184.816 80.0247 184.933 79.9553 184.933 79.8698C184.933 79.7842 184.816 79.7149 184.671 79.7149C184.527 79.7149 184.41 79.7842 184.41 79.8698C184.41 79.9553 184.527 80.0247 184.671 80.0247Z" fill="white"/>
<path d="M183.364 79.4567L182.736 79.0954C182.684 79.0437 182.527 79.0437 182.422 79.0954L181.638 79.56C181.585 79.6116 181.585 79.6632 181.638 79.6632C181.638 79.6632 181.638 79.6632 181.69 79.7149L180.696 80.3344C180.539 80.4376 180.801 80.5925 180.958 80.4893L181.952 79.8698H182.004L181.01 80.4893C180.801 80.5925 181.115 80.7474 181.272 80.6442L182.265 80.0246C182.318 80.0246 182.318 80.0763 182.318 80.0763C182.37 80.1279 182.475 80.1279 182.527 80.0763L183.311 79.6116C183.468 79.56 183.468 79.5084 183.364 79.4567Z" fill="white"/>
<path d="M183.364 79.2503C183.508 79.2503 183.625 79.1809 183.625 79.0954C183.625 79.0098 183.508 78.9405 183.364 78.9405C183.219 78.9405 183.102 79.0098 183.102 79.0954C183.102 79.1809 183.219 79.2503 183.364 79.2503Z" fill="white"/>
<path d="M198.425 67.4789L218.56 79.4563L210.872 83.9994L190.737 72.0737L198.425 67.4789Z" fill="black"/>
<path d="M205.695 74.6038C205.905 74.7071 206.271 74.7071 206.48 74.6038C206.689 74.5006 206.689 74.2424 206.48 74.1392C206.271 74.0359 205.905 74.0359 205.695 74.1392C205.486 74.2424 205.486 74.449 205.695 74.6038Z" fill="white"/>
<path d="M208.781 75.998L207.84 75.4301C207.631 75.3268 207.317 75.2236 207.055 75.2236H205.382L205.643 75.0687C206.166 74.7589 205.382 74.2943 204.859 74.604L203.865 75.2236H202.401C202.244 75.2236 202.244 75.2236 202.139 75.1203L201.669 74.8622C201.198 74.604 200.518 74.6557 200.204 74.8622C199.838 75.0687 199.681 75.4817 200.204 75.7915C200.204 75.7915 200.832 76.1528 200.989 76.2561C201.198 76.3594 201.459 76.4626 201.825 76.4626H206.532C206.637 76.4626 206.689 76.4626 206.742 76.5142C206.742 76.5142 207.055 76.7207 207.317 76.8756C207.578 77.0305 208.311 77.0821 208.781 76.824C209.2 76.5659 209.095 76.1528 208.781 75.998ZM207.631 76.6175L207.16 76.3077C206.951 76.2045 206.846 76.1528 206.585 76.1528H201.878C201.669 76.1528 201.512 76.1012 201.355 75.998L200.57 75.5333C200.361 75.4301 200.361 75.2236 200.57 75.0687C200.779 74.9138 201.093 74.9654 201.25 75.0687L201.773 75.3784C201.93 75.4817 202.087 75.4817 202.244 75.4817H207.055C207.265 75.4817 207.369 75.5333 207.526 75.6366L208.363 76.1012C208.572 76.2045 208.468 76.411 208.363 76.5142C208.206 76.6691 207.892 76.7724 207.631 76.6175Z" fill="white"/>
<path d="M199.033 63.7105L198.267 63.2568L197.502 63.7116L188.54 69.0388L163.449 54.1599L251.457 2.00471L274.751 15.8008L275.515 16.2533L276.279 15.8011L295.755 4.27583L351.074 37.0203L252.555 95.4208L199.033 63.7105Z" stroke="black" stroke-width="3" stroke-miterlimit="10"/>
<path d="M2.94269 58.1852L66.0025 20.7969L167.345 80.8497L104.286 118.188L2.94269 58.1852Z" stroke="black" stroke-width="3" stroke-miterlimit="10"/>
</svg>
