<svg width="315" height="330" viewBox="0 0 315 330" fill="none" xmlns="http://www.w3.org/2000/svg">
<path d="M186.734 216.352H185.234V217.852V328.119H1.5V151.582H95.2488H96.7488V150.082V100.678H161.319H162.819V99.1777V33.6167H206.616H208.116V32.1167V1.82834H313.5V166.32H186.734H185.234V167.82V188.314V189.814H186.734H214.102V216.352H186.734Z" fill="white" stroke="black" stroke-width="3" stroke-miterlimit="10"/>
<path d="M168.086 124.698L254.188 124.698V88.8535H168.086V124.698Z" fill="black"/>
<path d="M143.45 124.676H164.651V105.078H143.45V124.676Z" fill="black"/>
<path d="M156.496 111.96C156.906 111.96 157.248 111.644 157.248 111.264C157.248 110.885 156.906 110.569 156.496 110.569C156.086 110.569 155.744 110.885 155.744 111.264C155.744 111.644 156.086 111.96 156.496 111.96Z" fill="white"/>
<path d="M156.359 116.448V118.914C156.359 119.356 155.675 119.356 155.675 118.914V116.448H154.718L155.743 113.161H155.538L154.923 114.994C154.786 115.373 154.171 115.247 154.307 114.804L154.991 112.781C155.06 112.529 155.402 112.149 155.949 112.149H156.427H156.974C157.522 112.149 157.864 112.592 157.932 112.781L158.616 114.804C158.753 115.247 158.137 115.437 158 114.994L157.385 113.161H157.18L158.206 116.448H157.248V118.914C157.248 119.356 156.564 119.356 156.564 118.914V116.448H156.359Z" fill="white"/>
<path d="M150.583 112.213C150.036 112.213 149.626 112.592 149.626 113.161V115.31C149.626 115.753 150.31 115.753 150.31 115.31V113.351H150.447V118.851C150.447 119.42 151.336 119.42 151.336 118.851V115.626H151.473V118.851C151.473 119.42 152.362 119.42 152.362 118.851V113.351H152.498V115.31C152.498 115.753 153.182 115.753 153.182 115.31V113.161C153.182 112.718 152.772 112.213 152.225 112.213H150.583Z" fill="white"/>
<path d="M151.404 111.96C151.82 111.96 152.156 111.648 152.156 111.264C152.156 110.88 151.82 110.569 151.404 110.569C150.989 110.569 150.652 110.88 150.652 111.264C150.652 111.648 150.989 111.96 151.404 111.96Z" fill="white"/>
<path d="M7.5406 239.083H28.7412L28.7412 219.485H7.5406L7.5406 239.083Z" fill="black"/>
<path d="M20.6307 226.385C21.041 226.385 21.383 226.069 21.383 225.689C21.383 225.31 21.041 224.994 20.6307 224.994C20.2204 224.994 19.8784 225.31 19.8784 225.689C19.8784 226.069 20.2204 226.385 20.6307 226.385Z" fill="white"/>
<path d="M20.4932 230.81V233.276C20.4932 233.718 19.8093 233.718 19.8093 233.276V230.81H18.8519L19.8777 227.523H19.7409L19.1254 229.356C18.9887 229.736 18.3732 229.609 18.5099 229.167L19.1938 227.144C19.2622 226.891 19.6042 226.511 20.1513 226.511H20.63H21.1771C21.7242 226.511 22.0662 226.954 22.1346 227.144L22.8185 229.167C22.9552 229.609 22.3397 229.799 22.203 229.356L21.5874 227.523H21.3823L22.4081 230.81H21.4507V233.276C21.4507 233.718 20.7668 233.718 20.7668 233.276V230.81H20.4932Z" fill="white"/>
<path d="M14.7861 226.574C14.2389 226.574 13.8286 226.954 13.8286 227.523V229.672C13.8286 230.115 14.5125 230.115 14.5125 229.672V227.712H14.6493V233.212C14.6493 233.781 15.5383 233.781 15.5383 233.212V229.988H15.6751V233.212C15.6751 233.781 16.5642 233.781 16.5642 233.212V227.712H16.701V229.672C16.701 230.115 17.3848 230.115 17.3848 229.672V227.523C17.3848 227.08 16.9745 226.574 16.4274 226.574H14.7861Z" fill="white"/>
<path d="M15.5379 226.385C15.9534 226.385 16.2902 226.073 16.2902 225.689C16.2902 225.305 15.9534 224.994 15.5379 224.994C15.1225 224.994 14.7856 225.305 14.7856 225.689C14.7856 226.073 15.1225 226.385 15.5379 226.385Z" fill="white"/>
<path d="M7.73701 288.087H113.842V252.204H7.73701V288.087Z" fill="black"/>
<path d="M116.265 287.937H130.011V252.092H116.265V287.937Z" fill="black"/>
<path d="M180.673 220V287.96H169.662L152.702 270.891V246.552L180.673 220Z" fill="#C8A67C"/>
<path d="M127.136 275.885V270.448C127.136 269.879 126.657 269.437 126.042 269.437H120.16C119.545 269.437 119.066 269.879 119.066 270.448V275.885C119.066 276.454 119.545 276.897 120.16 276.897H126.042C126.657 276.833 127.136 276.454 127.136 275.885ZM126.247 276.012H119.955V270.259H126.247V276.012Z" fill="white"/>
<path d="M124.127 265.897C124.127 265.454 124.811 265.454 124.811 265.897V267.667L125.153 267.288C125.426 267.035 125.837 267.414 125.563 267.667L124.674 268.615C124.537 268.742 124.332 268.742 124.195 268.615L123.306 267.667C123.033 267.351 123.512 267.035 123.717 267.288L124.059 267.73L124.127 265.897Z" fill="white"/>
<path d="M121.46 268.427C121.46 268.87 122.144 268.87 122.144 268.427V266.657L122.486 267.036C122.76 267.289 123.17 266.91 122.896 266.657L122.007 265.709C121.87 265.582 121.665 265.582 121.529 265.709L120.639 266.657C120.366 266.973 120.845 267.289 121.05 267.036L121.392 266.594L121.46 268.427Z" fill="white"/>
<path d="M124.948 271.966H123.786C123.649 271.966 123.512 272.092 123.512 272.218V273.546C123.512 273.672 123.581 273.736 123.717 273.736C123.717 273.736 123.786 273.736 123.854 273.736V275.443C123.854 275.759 124.333 275.759 124.333 275.443V273.736H124.401V275.443C124.401 275.759 124.88 275.759 124.88 275.443V273.736C124.948 273.736 125.017 273.736 125.017 273.736C125.153 273.736 125.222 273.672 125.222 273.546V272.218C125.222 272.092 125.085 271.966 124.948 271.966Z" fill="white"/>
<path d="M124.402 271.839C124.59 271.839 124.744 271.698 124.744 271.523C124.744 271.349 124.59 271.207 124.402 271.207C124.213 271.207 124.06 271.349 124.06 271.523C124.06 271.698 124.213 271.839 124.402 271.839Z" fill="white"/>
<path d="M122.486 271.966H121.323C121.187 271.966 121.05 272.092 121.05 272.218V273.546C121.05 273.672 121.118 273.736 121.255 273.736C121.255 273.736 121.323 273.736 121.392 273.736V275.443C121.392 275.759 121.87 275.759 121.87 275.443V273.736H121.939V275.443C121.939 275.759 122.418 275.759 122.418 275.443V273.736C122.486 273.736 122.554 273.736 122.554 273.736C122.691 273.736 122.76 273.672 122.76 273.546V272.218C122.76 272.092 122.623 271.966 122.486 271.966Z" fill="white"/>
<path d="M121.939 271.839C122.128 271.839 122.281 271.698 122.281 271.523C122.281 271.349 122.128 271.207 121.939 271.207C121.75 271.207 121.597 271.349 121.597 271.523C121.597 271.698 121.75 271.839 121.939 271.839Z" fill="white"/>
<path d="M189.434 213.044H210.634V192.751H189.434V213.044Z" fill="black"/>
<path d="M204.073 207.545V202.109C204.073 201.54 203.594 201.097 202.979 201.097H197.097C196.482 201.097 196.003 201.54 196.003 202.109V207.545C196.003 208.114 196.482 208.557 197.097 208.557H202.979C203.594 208.557 204.073 208.114 204.073 207.545ZM203.184 207.735H196.892V201.982H203.184V207.735Z" fill="white"/>
<path d="M200.996 197.557C200.996 197.114 201.68 197.114 201.68 197.557V199.327L202.022 198.948C202.295 198.695 202.706 199.074 202.432 199.327L201.543 200.275C201.406 200.402 201.201 200.402 201.064 200.275L200.175 199.327C199.902 199.011 200.38 198.695 200.585 198.948L200.927 199.39L200.996 197.557Z" fill="white"/>
<path d="M198.397 200.088C198.397 200.53 199.081 200.53 199.081 200.088V198.318L199.423 198.697C199.696 198.95 200.106 198.571 199.833 198.318L198.944 197.369C198.807 197.243 198.602 197.243 198.465 197.369L197.576 198.318C197.302 198.634 197.781 198.95 197.986 198.697L198.328 198.254L198.397 200.088Z" fill="white"/>
<path d="M201.884 203.689H200.722C200.585 203.689 200.448 203.816 200.448 203.942V205.27C200.448 205.396 200.517 205.459 200.653 205.459C200.653 205.459 200.722 205.459 200.79 205.459V207.166C200.79 207.482 201.269 207.482 201.269 207.166V205.459H201.337V207.166C201.337 207.482 201.816 207.482 201.816 207.166V205.459C201.884 205.459 201.953 205.459 201.953 205.459C202.09 205.459 202.158 205.396 202.158 205.27V203.942C202.158 203.753 202.021 203.689 201.884 203.689Z" fill="white"/>
<path d="M201.269 203.499C201.458 203.499 201.611 203.358 201.611 203.183C201.611 203.009 201.458 202.867 201.269 202.867C201.08 202.867 200.927 203.009 200.927 203.183C200.927 203.358 201.08 203.499 201.269 203.499Z" fill="white"/>
<path d="M199.354 203.689H198.192C198.055 203.689 197.918 203.816 197.918 203.942V205.27C197.918 205.396 197.986 205.459 198.123 205.459C198.123 205.459 198.192 205.459 198.26 205.459V207.166C198.26 207.482 198.739 207.482 198.739 207.166V205.459H198.807V207.166C198.807 207.482 199.286 207.482 199.286 207.166V205.459C199.354 205.459 199.423 205.459 199.423 205.459C199.559 205.459 199.628 205.396 199.628 205.27V203.942C199.628 203.753 199.559 203.689 199.354 203.689Z" fill="white"/>
<path d="M198.807 203.499C198.996 203.499 199.149 203.358 199.149 203.183C199.149 203.009 198.996 202.867 198.807 202.867C198.618 202.867 198.465 203.009 198.465 203.183C198.465 203.358 198.618 203.499 198.807 203.499Z" fill="white"/>
<path d="M66.994 239.08H98.7266V218.724H66.994V239.08Z" fill="black"/>
<path d="M39.4602 216.207V239.092H64.6274V216.207H98.7535V155.643H7.62402V216.207H39.4602Z" fill="black"/>
<path d="M86.9224 233.592V228.155C86.9224 227.586 86.4437 227.144 85.8282 227.144H80.0151C79.3996 227.144 78.9209 227.586 78.9209 228.155V233.592C78.9209 234.161 79.3996 234.603 80.0151 234.603H85.8966C86.4437 234.54 86.9224 234.161 86.9224 233.592ZM86.0334 233.718H79.7416V227.965H86.0334V233.718Z" fill="white"/>
<path d="M83.9133 223.604C83.9133 223.161 84.5972 223.161 84.5972 223.604V225.374L84.9391 224.994C85.2127 224.741 85.623 225.121 85.3494 225.374L84.4604 226.322C84.3236 226.448 84.1184 226.448 83.9816 226.322L83.0926 225.374C82.819 225.058 83.2977 224.741 83.5029 224.994L83.8449 225.437L83.9133 223.604Z" fill="white"/>
<path d="M81.2463 226.134C81.2463 226.577 81.9302 226.577 81.9302 226.134V224.364L82.2721 224.743C82.5457 224.996 82.956 224.617 82.6824 224.364L81.7934 223.416C81.6566 223.289 81.4514 223.289 81.3146 223.416L80.4256 224.364C80.152 224.68 80.6308 224.996 80.8359 224.743L81.1779 224.301L81.2463 226.134Z" fill="white"/>
<path d="M84.7345 229.672H83.5719C83.4351 229.672 83.2983 229.799 83.2983 229.925V231.253C83.2983 231.379 83.3667 231.442 83.5035 231.442C83.5035 231.442 83.5719 231.442 83.6403 231.442V233.149C83.6403 233.465 84.119 233.465 84.119 233.149V231.442H84.1874V233.149C84.1874 233.465 84.6661 233.465 84.6661 233.149V231.442C84.7345 231.442 84.8029 231.442 84.8029 231.442C84.9397 231.442 85.0081 231.379 85.0081 231.253V229.925C85.0081 229.799 84.8713 229.672 84.7345 229.672Z" fill="white"/>
<path d="M84.1876 229.546C84.3765 229.546 84.5296 229.404 84.5296 229.23C84.5296 229.055 84.3765 228.914 84.1876 228.914C83.9988 228.914 83.8457 229.055 83.8457 229.23C83.8457 229.404 83.9988 229.546 84.1876 229.546Z" fill="white"/>
<path d="M82.2721 229.672H81.1095C80.9727 229.672 80.8359 229.799 80.8359 229.925V231.253C80.8359 231.379 80.9043 231.442 81.0411 231.442C81.0411 231.442 81.1095 231.442 81.1779 231.442V233.149C81.1779 233.465 81.6566 233.465 81.6566 233.149V231.442H81.725V233.149C81.725 233.465 82.2037 233.465 82.2037 233.149V231.442C82.2721 231.442 82.3405 231.442 82.3405 231.442C82.4773 231.442 82.5457 231.379 82.5457 231.253V229.925C82.5457 229.799 82.4089 229.672 82.2721 229.672Z" fill="white"/>
<path d="M81.7252 229.546C81.9141 229.546 82.0672 229.404 82.0672 229.23C82.0672 229.055 81.9141 228.914 81.7252 228.914C81.5364 228.914 81.3833 229.055 81.3833 229.23C81.3833 229.404 81.5364 229.546 81.7252 229.546Z" fill="white"/>
<path d="M168.071 77.4129H206.438V38.4704L168.071 38.4704V77.4129Z" fill="black"/>
<path d="M256.225 124.698H269.971V88.8535H256.225V124.698Z" fill="black"/>
<path d="M267.128 112.592V107.155C267.128 106.586 266.649 106.143 266.033 106.143H260.152C259.536 106.143 259.058 106.586 259.058 107.155V112.592C259.058 113.161 259.536 113.603 260.152 113.603H266.033C266.649 113.603 267.128 113.161 267.128 112.592ZM266.239 112.781H259.947V107.028H266.239V112.781Z" fill="white"/>
<path d="M264.119 102.603C264.119 102.161 264.803 102.161 264.803 102.603V104.373L265.145 103.994C265.418 103.741 265.829 104.121 265.555 104.373L264.666 105.322C264.529 105.448 264.324 105.448 264.187 105.322L263.298 104.373C263.025 104.057 263.503 103.741 263.708 103.994L264.05 104.437L264.119 102.603Z" fill="white"/>
<path d="M261.452 105.134C261.452 105.576 262.136 105.576 262.136 105.134V103.364L262.478 103.743C262.751 103.996 263.162 103.617 262.888 103.364L261.999 102.415C261.862 102.289 261.657 102.289 261.52 102.415L260.631 103.364C260.358 103.68 260.836 103.996 261.042 103.743L261.383 103.3L261.452 105.134Z" fill="white"/>
<path d="M264.94 108.736H263.777C263.641 108.736 263.504 108.862 263.504 108.988V110.316C263.504 110.442 263.572 110.506 263.709 110.506C263.709 110.506 263.777 110.506 263.846 110.506V112.213C263.846 112.529 264.325 112.529 264.325 112.213V110.506H264.393V112.213C264.393 112.529 264.872 112.529 264.872 112.213V110.506C264.94 110.506 265.009 110.506 265.009 110.506C265.145 110.506 265.214 110.442 265.214 110.316V108.988C265.214 108.799 265.077 108.736 264.94 108.736Z" fill="white"/>
<path d="M264.393 108.546C264.582 108.546 264.735 108.404 264.735 108.23C264.735 108.055 264.582 107.914 264.393 107.914C264.204 107.914 264.051 108.055 264.051 108.23C264.051 108.404 264.204 108.546 264.393 108.546Z" fill="white"/>
<path d="M262.478 108.736H261.315C261.178 108.736 261.042 108.862 261.042 108.988V110.316C261.042 110.442 261.11 110.506 261.247 110.506C261.247 110.506 261.315 110.506 261.383 110.506V112.213C261.383 112.529 261.862 112.529 261.862 112.213V110.506H261.931V112.213C261.931 112.529 262.409 112.529 262.409 112.213V110.506C262.478 110.506 262.546 110.506 262.546 110.506C262.683 110.506 262.751 110.442 262.751 110.316V108.988C262.751 108.799 262.614 108.736 262.478 108.736Z" fill="white"/>
<path d="M261.862 108.546C262.051 108.546 262.204 108.404 262.204 108.23C262.204 108.055 262.051 107.914 261.862 107.914C261.673 107.914 261.52 108.055 261.52 108.23C261.52 108.404 261.673 108.546 261.862 108.546Z" fill="white"/>
<path d="M232.654 145.191H269.994V132.041H232.654V145.191Z" fill="black"/>
<path d="M254.21 161.984H308.368V126.102H278.506V147.75H254.21V161.984Z" fill="black"/>
<path d="M278.527 125.077H308.369V64.589H278.527V125.077Z" fill="#DAC452"/>
<path d="M265.263 54.3368L308.369 54.3368V6.15145L265.263 6.15145V54.3368Z" fill="#DAC452"/>
<path d="M213.316 54.3368L259.737 54.3368V6.15145L213.316 6.15145V54.3368Z" fill="#DAC452"/>
<path d="M250.509 136.046C250.919 136.046 251.261 135.73 251.261 135.351C251.261 134.971 250.919 134.655 250.509 134.655C250.099 134.655 249.757 134.971 249.757 135.351C249.757 135.73 250.099 136.046 250.509 136.046Z" fill="white"/>
<path d="M255.502 135.414H253.792C253.45 135.414 252.971 135.54 252.698 135.793L251.125 137.247V136.805C251.125 135.92 249.689 135.92 249.689 136.805V138.511L248.321 139.776C248.184 139.902 248.184 139.902 247.911 139.902H247.09C246.269 139.902 245.722 140.598 245.722 141.167C245.722 141.736 246.201 142.494 247.158 142.494C247.158 142.494 248.321 142.494 248.663 142.494C249.005 142.494 249.415 142.368 249.757 142.052L254.134 138.069C254.202 138.006 254.271 137.942 254.408 137.942C254.408 137.942 255.023 137.942 255.502 137.942C256.049 137.942 256.733 137.374 256.733 136.615C256.801 135.92 256.117 135.414 255.502 135.414ZM255.433 137.374H254.544C254.134 137.374 253.997 137.437 253.792 137.626L249.415 141.672C249.21 141.862 249.005 141.925 248.731 141.925H247.295C246.953 141.925 246.611 141.609 246.611 141.23C246.611 140.851 246.953 140.661 247.227 140.661H248.184C248.458 140.661 248.663 140.598 248.8 140.408L253.245 136.299C253.45 136.109 253.587 136.109 253.929 136.109H255.433C255.775 136.109 256.049 136.488 256.049 136.741C256.049 136.994 255.912 137.374 255.433 137.374Z" fill="white"/>
<path d="M116.242 324.73H153.582V311.581H116.242V324.73Z" fill="black"/>
<path d="M134.111 315.572C134.522 315.572 134.864 315.256 134.864 314.877C134.864 314.498 134.522 314.182 134.111 314.182C133.701 314.182 133.359 314.498 133.359 314.877C133.359 315.256 133.701 315.572 134.111 315.572Z" fill="white"/>
<path d="M139.103 314.94H137.462C137.12 314.94 136.641 315.067 136.368 315.319L134.795 316.773V316.331C134.795 315.446 133.359 315.446 133.359 316.331V318.038L131.991 319.302C131.854 319.429 131.854 319.429 131.581 319.429H130.76C129.939 319.429 129.392 320.124 129.392 320.693C129.392 321.262 129.871 322.021 130.828 322.021C130.828 322.021 131.991 322.021 132.333 322.021C132.675 322.021 133.085 321.894 133.427 321.578L137.804 317.595C137.872 317.532 137.941 317.469 138.078 317.469C138.078 317.469 138.693 317.469 139.172 317.469C139.719 317.469 140.403 316.9 140.403 316.141C140.403 315.446 139.65 314.94 139.103 314.94ZM139.035 316.9H138.146C137.736 316.9 137.599 316.963 137.394 317.153L133.017 321.199C132.812 321.388 132.606 321.452 132.333 321.452H130.897C130.555 321.452 130.213 321.136 130.213 320.756C130.213 320.377 130.555 320.187 130.828 320.187H131.786C132.059 320.187 132.264 320.124 132.401 319.934L136.847 315.825C137.052 315.635 137.188 315.635 137.53 315.635H139.035C139.377 315.635 139.65 316.015 139.65 316.268C139.65 316.521 139.514 316.9 139.035 316.9Z" fill="white"/>
<path d="M189.592 184.408H226.933V171.259H189.592V184.408Z" fill="black"/>
<path d="M207.424 175.242C207.834 175.242 208.176 174.926 208.176 174.546C208.176 174.167 207.834 173.851 207.424 173.851C207.013 173.851 206.671 174.167 206.671 174.546C206.671 174.926 207.013 175.242 207.424 175.242Z" fill="white"/>
<path d="M212.485 174.609H210.775C210.433 174.609 209.954 174.736 209.681 174.989L208.108 176.443V176C208.108 175.115 206.672 175.115 206.672 176V177.707L205.304 178.971C205.167 179.098 205.167 179.098 204.894 179.098H204.073C203.252 179.098 202.705 179.793 202.705 180.362C202.705 180.931 203.184 181.69 204.141 181.69C204.141 181.69 205.304 181.69 205.646 181.69C205.988 181.69 206.398 181.563 206.74 181.247L211.117 177.265C211.185 177.201 211.254 177.138 211.39 177.138C211.39 177.138 212.006 177.138 212.485 177.138C213.032 177.138 213.716 176.569 213.716 175.81C213.716 175.115 213.032 174.609 212.485 174.609ZM212.348 176.569H211.459C211.049 176.569 210.912 176.632 210.707 176.822L206.33 180.868C206.125 181.058 205.919 181.121 205.646 181.121H204.21C203.868 181.121 203.526 180.805 203.526 180.425C203.526 180.046 203.868 179.857 204.141 179.857H205.099C205.372 179.857 205.577 179.793 205.714 179.604L210.159 175.494C210.365 175.305 210.501 175.305 210.843 175.305H212.348C212.69 175.305 212.963 175.684 212.963 175.937C212.963 176.19 212.827 176.569 212.348 176.569Z" fill="white"/>
<path d="M232.654 77.327H269.994V64.1775H232.654V77.327Z" fill="black"/>
<path d="M250.509 68.2127C250.919 68.2127 251.261 67.8966 251.261 67.5173C251.261 67.138 250.919 66.8219 250.509 66.8219C250.099 66.8219 249.757 67.138 249.757 67.5173C249.757 67.8966 250.099 68.2127 250.509 68.2127Z" fill="white"/>
<path d="M255.502 67.5805H253.792C253.45 67.5805 252.971 67.7069 252.698 67.9598L251.125 69.4138V68.9713C251.125 68.0862 249.689 68.0862 249.689 68.9713V70.6782L248.321 71.9426C248.184 72.069 248.184 72.069 247.911 72.069H247.09C246.269 72.069 245.722 72.7644 245.722 73.3334C245.722 73.9023 246.201 74.6609 247.158 74.6609C247.158 74.6609 248.321 74.6609 248.663 74.6609C249.005 74.6609 249.415 74.5345 249.757 74.2184L254.134 70.2357C254.202 70.1724 254.271 70.1092 254.408 70.1092C254.408 70.1092 255.023 70.1092 255.502 70.1092C256.049 70.1092 256.733 69.5403 256.733 68.7817C256.801 68.0863 256.117 67.5805 255.502 67.5805ZM255.433 69.4771H254.544C254.134 69.4771 253.997 69.5403 253.792 69.7299L249.415 73.7759C249.21 73.9655 249.005 74.0288 248.731 74.0288H247.295C246.953 74.0288 246.611 73.7127 246.611 73.3334C246.611 72.9541 246.953 72.7644 247.227 72.7644H248.184C248.458 72.7644 248.663 72.7012 248.8 72.5115L253.245 68.4023C253.45 68.2127 253.587 68.2127 253.929 68.2127H255.433C255.775 68.2127 256.049 68.592 256.049 68.8449C256.049 69.0977 255.912 69.4771 255.433 69.4771Z" fill="white"/>
<path d="M101.739 173.007H149.542V155.622H101.739V173.007Z" fill="#C8A67C"/>
<path d="M101.739 216.209H149.542V203.502H101.739V216.209Z" fill="#C8A67C"/>
<path d="M120.163 200.94H149.57V190.256H120.163V200.94Z" fill="#C8A67C"/>
<path d="M101.832 218.736H149.567V220.822L130.008 239.092H101.832V218.736Z" fill="#C8A67C"/>
<path d="M101.832 147.742L129.187 129.282L149.567 137.5V153.115H101.832V147.742Z" fill="#C8A67C"/>
<path d="M117.287 200.972V187.696H149.567V175.558H101.832V200.972H117.287Z" fill="#C8A67C"/>
<path d="M171.411 10H176.326V8.73224H172.949V6.99574H176.06V5.72798H172.949V3.99503H176.312V2.72727H171.411V10ZM178.788 10L179.328 8.34162H181.952L182.492 10H184.14L181.633 2.72727H179.651L177.14 10H178.788ZM179.718 7.14134L180.613 4.3892H180.67L181.565 7.14134H179.718ZM188.794 4.81889H190.268C190.247 3.52273 189.181 2.62784 187.562 2.62784C185.968 2.62784 184.799 3.50852 184.806 4.82955C184.803 5.90199 185.559 6.51634 186.788 6.81108L187.58 7.00994C188.372 7.2017 188.812 7.42898 188.816 7.91903C188.812 8.4517 188.308 8.81392 187.527 8.81392C186.727 8.81392 186.152 8.4446 186.102 7.71662H184.615C184.654 9.28977 185.779 10.103 187.544 10.103C189.32 10.103 190.364 9.25426 190.367 7.92259C190.364 6.71165 189.451 6.06889 188.187 5.7848L187.534 5.62855C186.902 5.48295 186.372 5.24858 186.383 4.72656C186.383 4.25781 186.799 3.91335 187.551 3.91335C188.286 3.91335 188.737 4.24716 188.794 4.81889ZM191.125 3.99503H193.351V10H194.871V3.99503H197.098V2.72727H191.125V3.99503ZM160.851 15.995H163.078V22H164.598V15.995H166.824V14.7273H160.851V15.995ZM174.169 18.3636C174.169 15.9844 172.692 14.6278 170.763 14.6278C168.824 14.6278 167.358 15.9844 167.358 18.3636C167.358 20.7322 168.824 22.0994 170.763 22.0994C172.692 22.0994 174.169 20.7429 174.169 18.3636ZM172.61 18.3636C172.61 19.9048 171.878 20.7393 170.763 20.7393C169.645 20.7393 168.917 19.9048 168.917 18.3636C168.917 16.8224 169.645 15.9879 170.763 15.9879C171.878 15.9879 172.61 16.8224 172.61 18.3636ZM176.672 22H178.17L179.552 17.245H179.608L180.993 22H182.492L184.573 14.7273H182.893L181.689 19.7912H181.625L180.301 14.7273H178.863L177.534 19.7805H177.474L176.27 14.7273H174.591L176.672 22ZM185.396 22H190.311V20.7322H186.933V18.9957H190.044V17.728H186.933V15.995H190.296V14.7273H185.396V22ZM191.519 22H193.057V19.4219H194.179L195.557 22H197.254L195.709 19.1733C196.537 18.8182 196.995 18.0973 196.995 17.103C196.995 15.6577 196.039 14.7273 194.388 14.7273H191.519V22ZM193.057 18.1861V15.9844H194.093C194.981 15.9844 195.411 16.3786 195.411 17.103C195.411 17.8239 194.981 18.1861 194.101 18.1861H193.057Z" fill="black"/>
<path d="M195.36 314.945H196.858L198.239 310.19H198.296L199.681 314.945H201.18L203.261 307.672H201.581L200.377 312.736H200.313L198.989 307.672H197.551L196.222 312.725H196.162L194.958 307.672H193.279L195.36 314.945ZM204.084 314.945H208.999V313.677H205.621V311.941H208.732V310.673H205.621V308.94H208.984V307.672H204.084V314.945ZM214.152 309.764H215.626C215.605 308.468 214.539 307.573 212.92 307.573C211.325 307.573 210.157 308.453 210.164 309.774C210.161 310.847 210.917 311.461 212.146 311.756L212.938 311.955C213.73 312.147 214.17 312.374 214.173 312.864C214.17 313.397 213.666 313.759 212.884 313.759C212.085 313.759 211.51 313.389 211.46 312.661H209.972C210.011 314.235 211.137 315.048 212.902 315.048C214.678 315.048 215.722 314.199 215.725 312.867C215.722 311.656 214.809 311.014 213.545 310.73L212.891 310.573C212.259 310.428 211.73 310.193 211.741 309.671C211.741 309.203 212.156 308.858 212.909 308.858C213.644 308.858 214.095 309.192 214.152 309.764ZM216.483 308.94H218.709V314.945H220.229V308.94H222.456V307.672H216.483V308.94ZM193.445 320.94H195.672V326.945H197.192V320.94H199.418V319.672H193.445V320.94ZM206.763 323.308C206.763 320.929 205.286 319.573 203.358 319.573C201.419 319.573 199.952 320.929 199.952 323.308C199.952 325.677 201.419 327.044 203.358 327.044C205.286 327.044 206.763 325.688 206.763 323.308ZM205.204 323.308C205.204 324.85 204.473 325.684 203.358 325.684C202.239 325.684 201.511 324.85 201.511 323.308C201.511 321.767 202.239 320.933 203.358 320.933C204.473 320.933 205.204 321.767 205.204 323.308ZM209.266 326.945H210.764L212.146 322.19H212.203L213.587 326.945H215.086L217.167 319.672H215.487L214.284 324.736H214.22L212.895 319.672H211.457L210.129 324.725H210.068L208.864 319.672H207.185L209.266 326.945ZM217.99 326.945H222.905V325.677H219.528V323.941H222.638V322.673H219.528V320.94H222.891V319.672H217.99V326.945ZM224.113 326.945H225.651V324.367H226.773L228.151 326.945H229.848L228.303 324.118C229.131 323.763 229.589 323.042 229.589 322.048C229.589 320.602 228.634 319.672 226.982 319.672H224.113V326.945ZM225.651 323.131V320.929H226.688C227.575 320.929 228.005 321.323 228.005 322.048C228.005 322.769 227.575 323.131 226.695 323.131H225.651Z" fill="black"/>
<path d="M16.5156 11H10.1563L2.23438 16.0156V22.0156L9.5625 17.4219H9.75V43H16.5156V11ZM24.3086 43H31.0742V29.7812H44.0898V24.2031H31.0742V16.5781H45.4961V11H24.3086V43Z" fill="black"/>
<path d="M278.52 32.7033C279.633 32.7033 280.123 31.9053 280.123 30.9323V27.4253H279.087V30.8483C279.087 31.5623 278.849 31.8073 278.394 31.8073C278.1 31.8073 277.827 31.6463 277.624 31.2683L276.91 31.7933C277.26 32.3953 277.764 32.7033 278.52 32.7033ZM282.918 32.7033C284.115 32.7033 284.822 31.9823 284.822 31.1353C284.822 30.3863 284.409 29.9873 283.779 29.7283L283.1 29.4413C282.659 29.2663 282.288 29.1333 282.288 28.7623C282.288 28.4193 282.582 28.2163 283.037 28.2163C283.464 28.2163 283.807 28.3703 284.136 28.6433L284.661 27.9923C284.241 27.5653 283.639 27.3273 283.037 27.3273C281.987 27.3273 281.245 27.9783 281.245 28.8253C281.245 29.5813 281.77 30.0013 282.295 30.2183L282.988 30.5123C283.45 30.7083 283.765 30.8273 283.765 31.2123C283.765 31.5763 283.478 31.8073 282.939 31.8073C282.484 31.8073 281.994 31.5763 281.623 31.2333L281.028 31.9473C281.532 32.4303 282.225 32.7033 282.918 32.7033ZM285.697 27.4183V28.1673H287.804C287.636 29.5953 286.838 30.6173 285.34 31.3873L285.858 32.0943C288 31.0093 288.735 29.3503 288.735 27.4183H285.697ZM291.353 29.2173H290.45V26.7533H289.526V33.1933H290.45V29.9803H291.353V29.2173ZM297.037 28.6853H293.474V27.7263H296.988V26.9913H292.557V29.4203H297.037V28.6853ZM293.46 31.1633H292.536V33.0953H297.086V32.3603H293.46V31.1633ZM291.85 29.9453V30.6803H297.681V29.9453H291.85Z" fill="black"/>
<path d="M289.056 94.2374H286.782V93.6674H289.056V94.2374ZM289.836 92.4194H289.056V93.0494H286.782V92.4194H285.996V94.8674H289.836V92.4194ZM290.43 95.3894H285.426V96.0194H287.514V97.7414H288.306V96.0194H290.43V95.3894ZM294.57 93.4394H291.528V95.1134H295.506V94.4894H292.338V94.0334H295.374V92.3834H291.522V93.0074H294.57V93.4394ZM295.95 95.5154H290.946V96.1514H293.04V97.7474H293.832V96.1514H295.95V95.5154ZM297.017 96.5054H300.083V97.7534H300.875V95.8814H297.017V96.5054ZM299.357 94.8794V94.3994H300.917V93.7754H297.863V93.0554H300.869V92.4314H297.077V94.3994H298.565V94.8794H296.471V95.5094H301.463V94.8794H299.357Z" fill="black"/>
<path d="M228.715 31.0513C228.365 31.0513 228.113 30.7713 228.113 30.2883C228.113 29.8053 228.365 29.5183 228.715 29.5183C229.065 29.5183 229.317 29.8053 229.317 30.2883C229.317 30.7713 229.065 31.0513 228.715 31.0513ZM228.715 28.7483C227.889 28.7483 227.301 29.3853 227.301 30.2883C227.301 31.1843 227.889 31.8213 228.715 31.8213C229.541 31.8213 230.129 31.1843 230.129 30.2883C230.129 29.3853 229.541 28.7483 228.715 28.7483ZM229.17 26.9353H228.26V27.7333H227.161V28.4683H230.241V27.7333H229.17V26.9353ZM231.823 26.7533V29.3853H231.333V26.8793H230.472V32.9343H231.333V30.1273H231.823V33.2003H232.698V26.7533H231.823ZM236.513 27.7123C237.353 27.7123 237.892 27.9643 237.892 28.4263C237.892 28.8953 237.353 29.1473 236.513 29.1473C235.666 29.1473 235.127 28.8953 235.127 28.4263C235.127 27.9643 235.666 27.7123 236.513 27.7123ZM236.513 29.8823C237.885 29.8823 238.844 29.3153 238.844 28.4263C238.844 27.5513 237.885 26.9773 236.513 26.9773C235.134 26.9773 234.182 27.5513 234.182 28.4263C234.182 29.3153 235.134 29.8823 236.513 29.8823ZM239.446 30.3653H233.608V31.1073H236.044V33.2143H236.968V31.1073H239.446V30.3653ZM241.335 29.7983H243.428V27.3063H240.383V28.0413H242.483V29.0703H240.39V31.7233H240.971C242.14 31.7233 243.085 31.6813 244.135 31.4993L244.037 30.7503C243.127 30.9043 242.315 30.9533 241.335 30.9603V29.7983ZM244.485 26.7533V33.2213H245.409V26.7533H244.485Z" fill="black"/>
<path d="M120.602 145.049C119.354 144.833 118.67 143.975 118.67 143.165V142.769H117.824V143.165C117.824 143.957 117.134 144.833 115.892 145.049L116.228 145.709C117.188 145.523 117.89 144.983 118.244 144.281C118.598 144.983 119.306 145.517 120.266 145.709L120.602 145.049ZM115.772 146.657V147.299H120.776V146.657H115.772ZM125.881 142.445H125.083V145.319H125.881V142.445ZM124.633 144.449C123.931 144.545 123.319 144.563 122.377 144.563V144.209H124.087V143.621H122.377V143.279H124.249V142.667H121.591V145.181H122.065C123.217 145.181 123.907 145.175 124.699 145.067L124.633 144.449ZM122.989 147.335V146.993H125.881V145.535H122.197V146.129H125.095V146.441H122.203V147.929H126.019V147.335H122.989ZM130.387 144.101H128.233V143.669H130.387V144.101ZM131.173 142.589H130.387V143.075H128.233V142.589H127.447V144.719H131.173V142.589ZM131.809 145.703V145.073H126.811V145.703H128.905V146.171H127.363V146.795H130.411V147.977H131.203V146.171H129.697V145.703H131.809ZM137.16 145.049C135.912 144.833 135.228 143.975 135.228 143.165V142.769H134.382V143.165C134.382 143.957 133.692 144.833 132.45 145.049L132.786 145.709C133.746 145.523 134.448 144.983 134.802 144.281C135.156 144.983 135.864 145.517 136.824 145.709L137.16 145.049ZM132.33 146.657V147.299H137.334V146.657H132.33Z" fill="black"/>
<path d="M115.884 163.73C115.884 163.166 116.406 162.836 117.162 162.836C117.924 162.836 118.446 163.166 118.446 163.73C118.446 164.294 117.924 164.624 117.162 164.624C116.406 164.624 115.884 164.294 115.884 163.73ZM117.558 166.166V165.23C118.536 165.116 119.226 164.552 119.226 163.73C119.226 162.806 118.344 162.206 117.162 162.206C115.986 162.206 115.104 162.806 115.104 163.73C115.104 164.552 115.794 165.11 116.766 165.23V166.166H114.666V166.808H119.67V166.166H117.558ZM123.846 163.52H120.762V165.386H124.752V164.756H121.548V164.138H124.626V162.296H120.756V162.926H123.846V163.52ZM120.186 166.178V166.826H125.19V166.178H120.186ZM126.923 163.73C126.923 163.166 127.445 162.836 128.201 162.836C128.963 162.836 129.485 163.166 129.485 163.73C129.485 164.294 128.963 164.624 128.201 164.624C127.445 164.624 126.923 164.294 126.923 163.73ZM128.597 166.166V165.23C129.575 165.116 130.265 164.552 130.265 163.73C130.265 162.806 129.383 162.206 128.201 162.206C127.025 162.206 126.143 162.806 126.143 163.73C126.143 164.552 126.833 165.11 127.805 165.23V166.166H125.705V166.808H130.709V166.166H128.597ZM134.885 163.52H131.801V165.386H135.791V164.756H132.587V164.138H135.665V162.296H131.795V162.926H134.885V163.52ZM131.225 166.178V166.826H136.229V166.178H131.225Z" fill="black"/>
<path d="M122.231 180.181H121.319V179.491H120.539V180.181H119.627V180.817H122.231V180.181ZM120.917 183.037C120.635 183.037 120.425 182.797 120.425 182.377C120.425 181.963 120.635 181.723 120.917 181.723C121.205 181.723 121.409 181.963 121.409 182.377C121.409 182.797 121.205 183.037 120.917 183.037ZM120.917 181.063C120.233 181.063 119.741 181.609 119.741 182.377C119.741 183.151 120.233 183.691 120.917 183.691C121.601 183.691 122.093 183.151 122.093 182.377C122.093 181.609 121.601 181.063 120.917 181.063ZM122.555 181.387H122.099V182.041H122.555V184.633H123.287V179.449H122.555V181.387ZM123.623 179.353V184.879H124.373V179.353H123.623ZM126.635 182.965C126.221 182.965 125.945 182.527 125.945 181.705C125.945 180.889 126.221 180.451 126.635 180.451C127.043 180.451 127.325 180.889 127.325 181.705C127.325 182.527 127.043 182.965 126.635 182.965ZM126.635 179.737C125.795 179.737 125.183 180.493 125.183 181.705C125.183 182.923 125.795 183.685 126.635 183.685C127.469 183.685 128.087 182.923 128.087 181.705C128.087 180.493 127.469 179.737 126.635 179.737ZM130.283 181.435H129.479V179.353H128.687V184.879H129.479V182.089H130.283V181.435Z" fill="black"/>
<path d="M115.908 210.694C115.608 210.694 115.428 210.28 115.428 209.428C115.428 208.582 115.608 208.168 115.908 208.168C116.214 208.168 116.388 208.582 116.388 209.428C116.388 210.28 116.214 210.694 115.908 210.694ZM117.534 209.068H117.096C117.006 208.036 116.562 207.424 115.908 207.424C115.176 207.424 114.714 208.18 114.714 209.428C114.714 210.682 115.176 211.438 115.908 211.438C116.58 211.438 117.03 210.79 117.102 209.71H117.534V212.314H118.272V207.124H117.534V209.068ZM118.656 207.028V212.554H119.406V207.028H118.656ZM121.308 208.168H123.186V207.526H120.516V211.258H121.002C122.178 211.258 122.88 211.234 123.63 211.09L123.558 210.436C122.892 210.562 122.274 210.592 121.308 210.598V208.168ZM123.972 207.034V212.578H124.764V207.034H123.972ZM128.603 211.312V210.394H130.175V209.77H127.097V209.194H130.007V208.582H127.097V208.042H130.133V207.412H126.293V210.394H127.811V211.312H125.705V211.954H130.709V211.312H128.603ZM132.329 209.638H134.123V207.502H131.513V208.132H133.313V209.014H131.519V211.288H132.017C133.019 211.288 133.829 211.252 134.729 211.096L134.645 210.454C133.865 210.586 133.169 210.628 132.329 210.634V209.638ZM135.029 207.028V212.572H135.821V207.028H135.029Z" fill="black"/>
<path d="M116.736 228.08H115.686V227.3H116.736V228.08ZM117.51 227.594H118.494V229.568H119.286V225.494H118.494V226.958H117.51V225.86H116.736V226.694H115.686V225.854H114.9V228.71H117.51V227.594ZM116.43 230.288V229.172H115.638V230.918H119.406V230.288H116.43ZM120.396 226.172V226.802H121.794C121.692 227.888 121.224 228.686 120.114 229.334L120.576 229.886C122.118 228.986 122.574 227.72 122.574 226.172H120.396ZM124.164 225.488V227.57H123.672V225.632H122.934V230.78H123.672V228.206H124.164V231.014H124.92V225.488H124.164ZM128.999 227.996C128.129 227.738 127.751 227.12 127.739 226.49H128.819V225.854H125.831V226.49H126.929C126.917 227.18 126.521 227.882 125.627 228.182L126.023 228.8C126.671 228.59 127.109 228.152 127.355 227.606C127.595 228.062 128.015 228.428 128.621 228.608L128.999 227.996ZM128.249 230.408C127.541 230.408 127.163 230.258 127.163 229.946C127.163 229.628 127.541 229.478 128.249 229.478C128.951 229.478 129.329 229.628 129.329 229.946C129.329 230.258 128.951 230.408 128.249 230.408ZM128.249 228.866C127.097 228.866 126.377 229.268 126.377 229.946C126.377 230.618 127.097 231.014 128.249 231.014C129.395 231.014 130.115 230.618 130.115 229.946C130.115 229.268 129.395 228.866 128.249 228.866ZM130.055 226.76V225.488H129.263V228.77H130.055V227.408H130.787V226.76H130.055ZM132.263 228.104H133.847V227.486H132.263V226.586H134.033V225.95H131.477V229.772H131.927C132.857 229.772 133.565 229.754 134.363 229.628L134.291 228.992C133.613 229.1 133.007 229.13 132.263 229.136V228.104ZM135.071 225.482V227.432H134.123V228.068H135.071V231.026H135.863V225.482H135.071Z" fill="black"/>
<path d="M163.668 256.806C163.254 256.806 162.978 256.368 162.978 255.546C162.978 254.73 163.254 254.292 163.668 254.292C164.076 254.292 164.358 254.73 164.358 255.546C164.358 256.368 164.076 256.806 163.668 256.806ZM163.668 253.578C162.828 253.578 162.216 254.334 162.216 255.546C162.216 256.764 162.828 257.526 163.668 257.526C164.502 257.526 165.12 256.764 165.12 255.546C165.12 254.334 164.502 253.578 163.668 253.578ZM167.316 255.276H166.512V253.194H165.72V258.72H166.512V255.93H167.316V255.276ZM169.733 255.522H168.647V254.838H169.733V255.522ZM170.513 253.548H169.733V254.232H168.647V253.548H167.867V256.14H170.513V253.548ZM170.243 258.114C169.541 258.114 169.163 257.964 169.163 257.652C169.163 257.34 169.541 257.19 170.243 257.19C170.951 257.19 171.329 257.34 171.329 257.652C171.329 257.964 170.951 258.114 170.243 258.114ZM170.243 256.572C169.097 256.572 168.377 256.974 168.377 257.652C168.377 258.324 169.097 258.732 170.243 258.732C171.395 258.732 172.115 258.324 172.115 257.652C172.115 256.974 171.395 256.572 170.243 256.572ZM172.055 254.484V253.2H171.263V256.452H172.055V255.132H172.787V254.484H172.055ZM158.286 263.782H157.566V262.588H158.286V263.782ZM159.534 262.216H159.018V260.698H158.286V261.964H157.566V260.692H156.822V264.412H159.018V262.852H159.534V265.48H160.272V260.29H159.534V262.216ZM160.656 260.188V265.714H161.406V260.188H160.656ZM165.972 260.188V265.732H166.764V260.188H165.972ZM163.794 260.578C162.96 260.578 162.342 261.334 162.342 262.546C162.342 263.764 162.96 264.526 163.794 264.526C164.628 264.526 165.246 263.764 165.246 262.546C165.246 261.334 164.628 260.578 163.794 260.578ZM163.794 261.292C164.202 261.292 164.484 261.73 164.484 262.546C164.484 263.368 164.202 263.806 163.794 263.806C163.386 263.806 163.104 263.368 163.104 262.546C163.104 261.73 163.386 261.292 163.794 261.292ZM167.981 260.722V261.352H169.727C169.703 261.616 169.661 261.856 169.607 262.09L167.687 262.198L167.789 262.864L169.367 262.72C169.049 263.326 168.515 263.836 167.657 264.286L168.089 264.886C170.069 263.848 170.513 262.42 170.513 260.722H167.981ZM171.533 260.194V262.312H170.501V262.954H171.533V265.72H172.325V260.194H171.533ZM174.329 262.798H176.123V260.662H173.513V261.292H175.313V262.174H173.519V264.448H174.017C175.019 264.448 175.829 264.412 176.729 264.256L176.645 263.614C175.865 263.746 175.169 263.788 174.329 263.794V262.798ZM177.029 260.188V265.732H177.821V260.188H177.029Z" fill="black"/>
<path d="M126.92 196.149C126.324 195.957 126.076 195.493 126.076 195.025V194.625H125.54V195.021C125.54 195.525 125.28 196.017 124.66 196.217L124.94 196.629C125.36 196.489 125.652 196.201 125.816 195.833C125.976 196.165 126.248 196.429 126.648 196.561L126.92 196.149ZM125.772 196.841H125.244V198.021H127.744V197.601H125.772V196.841ZM127.616 195.469V194.401H127.088V197.097H127.616V195.905H128.104V195.469H127.616ZM129.068 196.145H130.22V195.733H129.068V195.133H130.272V194.705H128.54V197.253H128.852C129.484 197.253 129.98 197.237 130.54 197.153L130.492 196.733C130.012 196.805 129.588 196.825 129.068 196.829V196.145ZM131.816 195.797H131.28V194.401H130.752V198.089H131.28V196.233H131.816V195.797ZM132.708 195.165H133.428V196.773H132.708V195.165ZM132.188 197.189H133.948V194.749H132.188V197.189ZM135.496 195.789H134.96V194.405H134.432V198.085H134.96V196.225H135.496V195.789ZM136.491 196.137H137.687V194.713H135.947V195.133H137.147V195.721H135.951V197.237H136.283C136.951 197.237 137.491 197.213 138.091 197.109L138.035 196.681C137.515 196.769 137.051 196.797 136.491 196.801V196.137ZM138.291 194.397V198.093H138.819V194.397H138.291ZM140.423 196.809C140.147 196.809 139.963 196.517 139.963 195.969C139.963 195.425 140.147 195.133 140.423 195.133C140.695 195.133 140.883 195.425 140.883 195.969C140.883 196.517 140.695 196.809 140.423 196.809ZM140.423 194.657C139.863 194.657 139.455 195.161 139.455 195.969C139.455 196.781 139.863 197.289 140.423 197.289C140.979 197.289 141.391 196.781 141.391 195.969C141.391 195.161 140.979 194.657 140.423 194.657ZM142.855 195.789H142.319V194.401H141.791V198.085H142.319V196.225H142.855V195.789ZM145.047 197.245V196.405H146.099V195.985H144.019V194.681H143.491V196.405H144.519V197.245H143.115V197.673H146.451V197.245H145.047ZM149.934 194.405H149.434V196.301H149.934V194.405ZM147.894 195.781H147.418V195.393H147.894V195.781ZM148.382 195.589H148.686V196.281H149.178V194.465H148.686V195.173H148.382V194.601H147.894V195.005H147.418V194.605H146.922V196.185H148.382V195.589ZM147.966 197.657V197.433H149.934V196.449H147.43V196.853H149.406V197.053H147.438V198.057H150.05V197.657H147.966ZM151.146 196.137H152.314V194.713H150.622V195.133H151.794V195.721H150.626V197.241H150.938C151.578 197.241 152.086 197.217 152.638 197.117L152.59 196.689C152.11 196.773 151.674 196.801 151.146 196.805V196.137ZM153.894 195.789H153.366V194.397H152.838V198.093H153.366V196.225H153.894V195.789Z" fill="black"/>
</svg>
