<svg width="355" height="120" viewBox="0 0 355 120" fill="none" xmlns="http://www.w3.org/2000/svg">
<path d="M98.5408 120L162.276 81.7775L178.044 91.2567L194.935 81.115L179.167 71.6868L190.852 64.7048L258.874 105.475L354.451 48.1927L297.401 14.0473L278.112 25.616L255.455 12.0088L217.796 34.5855L181.003 12.776L151.406 30.5112L102.164 0.796875L0.922363 61.4941L98.5408 120Z" fill="white"/>
<path d="M226.726 32.1392L272.142 59.3536L251.679 71.6357L206.263 44.4213L226.726 32.1392Z" fill="black"/>
<path d="M203.864 29.591L215.04 36.2672L203.864 42.9434L192.689 36.2672L203.864 29.591Z" fill="black"/>
<path d="M207.494 36.191C207.698 36.3439 208.055 36.3439 208.311 36.191C208.515 36.0381 208.515 35.8343 208.311 35.7323C208.106 35.5795 207.749 35.5795 207.494 35.7323C207.239 35.8343 207.239 36.0381 207.494 36.191Z" fill="white"/>
<path d="M204.892 37.669L203.514 38.4844C203.259 38.6373 202.902 38.4334 203.157 38.2805L204.535 37.4651L204.025 37.1593L206.423 36.3439L206.321 36.293L204.943 36.7516C204.637 36.8536 204.433 36.5987 204.739 36.4968L206.219 36.0381C206.372 35.9872 206.78 35.9362 207.086 36.0891L207.341 36.242L207.648 36.3949C207.954 36.5478 207.852 36.8026 207.801 36.9045L206.984 37.8219C206.831 38.0257 206.372 37.8728 206.576 37.7199L207.341 36.9045L207.239 36.8536L205.913 38.2805L205.402 37.9748L203.974 38.8411C203.718 38.994 203.361 38.7902 203.616 38.6373L205.045 37.7709L204.892 37.669Z" fill="white"/>
<path d="M204.379 34.1678C204.073 34.0149 203.614 34.0149 203.359 34.1678L202.134 34.9322C201.879 35.0851 202.236 35.289 202.491 35.1361L203.614 34.4735L203.716 34.5245L200.552 36.4101C200.246 36.614 200.705 36.8688 201.011 36.665L202.848 35.5438L202.95 35.5947L201.113 36.7159C200.807 36.9198 201.267 37.1746 201.573 36.9707L204.737 35.0851L204.839 35.1361L203.716 35.7986C203.461 35.9515 203.818 36.1553 204.073 36.0024L205.298 35.238C205.553 35.0851 205.604 34.7793 205.298 34.6264L204.379 34.1678Z" fill="white"/>
<path d="M205.298 34.4731C205.608 34.4731 205.859 34.3134 205.859 34.1163C205.859 33.9193 205.608 33.7596 205.298 33.7596C204.988 33.7596 204.736 33.9193 204.736 34.1163C204.736 34.3134 204.988 34.4731 205.298 34.4731Z" fill="white"/>
<path d="M65.7296 25.0554L76.9049 31.7316L65.7296 38.4078L54.5542 31.7316L65.7296 25.0554Z" fill="black"/>
<path d="M68.2866 31.073C68.4907 31.2259 68.8479 31.2259 69.103 31.073C69.3071 30.9201 69.3071 30.7162 69.103 30.6143C68.8989 30.4614 68.5417 30.4614 68.2866 30.6143C68.0314 30.7162 68.0314 30.9201 68.2866 31.073Z" fill="white"/>
<path d="M65.6846 32.5509L64.3068 33.3663C64.0517 33.5192 63.6944 33.3154 63.9496 33.1625L65.3274 32.3471L64.8171 32.0413L67.2154 31.2259L67.1134 31.1749L65.7356 31.6336C65.4294 31.7355 65.2253 31.4807 65.5315 31.3788L67.0113 30.9201C67.1644 30.8691 67.5727 30.8182 67.8788 30.9711L68.134 31.124L68.4401 31.2768C68.7463 31.4297 68.6443 31.6846 68.5932 31.7865L67.7768 32.7038C67.6237 32.9077 67.1644 32.7548 67.3685 32.6019L68.134 31.7865L68.0319 31.7355L66.7052 33.1625L66.1949 32.8567L64.7661 33.7231C64.5109 33.876 64.1537 33.6721 64.4089 33.5192L65.8377 32.6529L65.6846 32.5509Z" fill="white"/>
<path d="M65.1723 29.0497C64.8661 28.8968 64.4068 28.8968 64.1517 29.0497L62.927 29.8141C62.6719 29.967 63.0291 30.1709 63.2842 30.018L64.4068 29.3554L64.5089 29.4064L61.3451 31.292C61.0389 31.4959 61.4982 31.7507 61.8044 31.5469L63.6414 30.4257L63.7435 30.4766L61.9064 31.5978C61.6003 31.8017 62.0595 32.0565 62.3657 31.8526L65.5295 29.967L65.6315 30.018L64.5089 30.6805C64.2538 30.8334 64.611 31.0372 64.8661 30.8843L66.0908 30.1199C66.3459 29.967 66.397 29.6612 66.0908 29.5083L65.1723 29.0497Z" fill="white"/>
<path d="M66.0906 29.355C66.4006 29.355 66.6519 29.1953 66.6519 28.9982C66.6519 28.8012 66.4006 28.6415 66.0906 28.6415C65.7806 28.6415 65.5293 28.8012 65.5293 28.9982C65.5293 29.1953 65.7806 29.355 66.0906 29.355Z" fill="white"/>
<path d="M47.1037 36.1657L105.124 70.9227L84.6611 83.2048L26.6411 48.4479L47.1037 36.1657Z" fill="black"/>
<path d="M106.195 71.5847L113.441 75.9165L92.9785 88.1987L85.7324 83.8668L106.195 71.5847Z" fill="black"/>
<path d="M159.061 81.3188L120.279 104.558L114.461 101.093L115.278 89.8806L129.158 81.5736L159.061 81.3188Z" fill="#C8A67C"/>
<path d="M98.3879 83.1534L101.501 81.3187C101.807 81.1149 101.807 80.8091 101.501 80.6562L98.3879 78.7706C98.0817 78.5667 97.5714 78.5667 97.2652 78.7706L94.1525 80.6052C93.8463 80.8091 93.8463 81.1149 94.1525 81.2678L97.2652 83.1534C97.5714 83.3573 98.0307 83.3573 98.3879 83.1534ZM97.8266 82.9496L94.5097 80.962L97.7755 78.9744L101.092 80.962L97.8266 82.9496Z" fill="white"/>
<path d="M102.47 78.8211C102.725 78.6682 103.083 78.872 102.828 79.0249L101.807 79.6365L102.215 79.5855C102.47 79.5855 102.521 79.8403 102.215 79.8403L101.195 79.8913C101.042 79.8913 100.939 79.8403 100.939 79.7384L101.042 79.1268C101.042 78.923 101.501 78.9739 101.501 79.1268L101.45 79.3817L102.47 78.8211Z" fill="white"/>
<path d="M99.6639 78.8214C99.4088 78.9743 99.766 79.1781 100.021 79.0252L101.042 78.4137L100.991 78.6685C100.991 78.8214 101.399 78.8723 101.45 78.6685L101.552 78.0569C101.552 77.955 101.45 77.9041 101.297 77.9041L100.276 77.955C99.9701 77.955 100.021 78.2098 100.276 78.2098L100.685 78.1589L99.6639 78.8214Z" fill="white"/>
<path d="M99.4602 81.1133L98.8479 80.7565C98.7968 80.7056 98.6437 80.7056 98.5417 80.7565L97.7763 81.2152C97.7252 81.2662 97.7252 81.3171 97.7763 81.3171C97.7763 81.3171 97.7763 81.3171 97.8273 81.3681L96.8578 81.9797C96.7047 82.0816 96.9598 82.2345 97.1129 82.1326L98.0824 81.521H98.1335L97.1639 82.1326C96.9598 82.2345 97.266 82.3874 97.4191 82.2854L98.3886 81.6739C98.4396 81.6739 98.4396 81.7248 98.4396 81.7248C98.4907 81.7758 98.5927 81.7758 98.6438 81.7248L99.4092 81.2662C99.5112 81.2662 99.5112 81.1642 99.4602 81.1133Z" fill="white"/>
<path d="M99.4094 80.9615C99.5504 80.9615 99.6646 80.8931 99.6646 80.8087C99.6646 80.7242 99.5504 80.6558 99.4094 80.6558C99.2685 80.6558 99.1543 80.7242 99.1543 80.8087C99.1543 80.8931 99.2685 80.9615 99.4094 80.9615Z" fill="white"/>
<path d="M98.1331 80.3505L97.5207 79.9937C97.4697 79.9428 97.3166 79.9428 97.2146 79.9937L96.4491 80.4524C96.3981 80.5034 96.3981 80.5543 96.4491 80.5543C96.4491 80.5543 96.4491 80.5543 96.5001 80.6053L95.5306 81.2168C95.3775 81.3188 95.6327 81.4717 95.7857 81.3697L96.7553 80.7582H96.8063L95.8368 81.3697C95.6327 81.4717 95.9388 81.6246 96.0919 81.5226L97.0615 80.9111C97.1125 80.9111 97.1125 80.962 97.1125 80.962C97.1635 81.013 97.2656 81.013 97.3166 80.962L98.082 80.5034C98.2351 80.5034 98.2351 80.4014 98.1331 80.3505Z" fill="white"/>
<path d="M98.0823 80.1972C98.2232 80.1972 98.3374 80.1287 98.3374 80.0443C98.3374 79.9599 98.2232 79.8914 98.0823 79.8914C97.9414 79.8914 97.8271 79.9599 97.8271 80.0443C97.8271 80.1287 97.9414 80.1972 98.0823 80.1972Z" fill="white"/>
<path d="M178.707 74.4392L189.883 81.1154L178.248 88.0974L167.073 81.3702L178.707 74.4392Z" fill="black"/>
<path d="M177.942 84.1218L181.055 82.2871C181.361 82.0833 181.361 81.7775 181.055 81.6246L177.942 79.7389C177.636 79.5351 177.126 79.5351 176.819 79.7389L173.707 81.5736C173.401 81.7775 173.401 82.0833 173.707 82.2361L176.819 84.1218C177.126 84.2747 177.636 84.3256 177.942 84.1218ZM177.381 83.867L174.064 81.8794L177.33 79.8918L180.647 81.8794L177.381 83.867Z" fill="white"/>
<path d="M182.025 79.739C182.28 79.5861 182.637 79.7899 182.382 79.9428L181.362 80.5544L181.77 80.5034C182.025 80.5034 182.076 80.7582 181.77 80.7582L180.749 80.8092C180.596 80.8092 180.494 80.7582 180.494 80.6563L180.596 80.0447C180.596 79.8409 181.055 79.8919 181.055 80.0447L181.004 80.2996L182.025 79.739Z" fill="white"/>
<path d="M179.218 79.7898C178.963 79.9427 179.32 80.1465 179.575 79.9936L180.596 79.3821L180.545 79.6369C180.545 79.7898 180.953 79.8407 181.004 79.6369L181.106 79.0253C181.106 78.9234 181.004 78.8724 180.851 78.8724L179.83 78.9234C179.524 78.9234 179.575 79.1782 179.83 79.1782L180.239 79.1273L179.218 79.7898Z" fill="white"/>
<path d="M179.014 82.0841L178.402 81.7273C178.351 81.6763 178.197 81.6763 178.095 81.7273L177.33 82.186C177.279 82.2369 177.279 82.2879 177.33 82.2879C177.33 82.2879 177.33 82.2879 177.381 82.3389L176.411 82.9504C176.258 83.0524 176.514 83.2053 176.667 83.1033L177.636 82.4918H177.687L176.718 83.1033C176.514 83.2053 176.82 83.3581 176.973 83.2562L177.942 82.6447C177.993 82.6447 177.993 82.6956 177.993 82.6956C178.044 82.7466 178.146 82.7466 178.197 82.6956L178.963 82.2369C179.065 82.2369 179.065 82.135 179.014 82.0841Z" fill="white"/>
<path d="M178.963 81.9308C179.104 81.9308 179.218 81.8623 179.218 81.7779C179.218 81.6935 179.104 81.625 178.963 81.625C178.822 81.625 178.708 81.6935 178.708 81.7779C178.708 81.8623 178.822 81.9308 178.963 81.9308Z" fill="white"/>
<path d="M177.687 81.3191L177.075 80.9624C177.024 80.9114 176.871 80.9114 176.769 80.9624L176.003 81.421C175.952 81.472 175.952 81.523 176.003 81.523C176.003 81.523 176.003 81.523 176.054 81.5739L175.085 82.1855C174.932 82.2874 175.187 82.4403 175.34 82.3384L176.309 81.7268H176.361L175.391 82.3384C175.187 82.4403 175.493 82.5932 175.646 82.4912L176.616 81.8797C176.667 81.8797 176.667 81.9307 176.667 81.9307C176.718 81.9816 176.82 81.9816 176.871 81.9307L177.636 81.472C177.789 81.421 177.789 81.3701 177.687 81.3191Z" fill="white"/>
<path d="M177.636 81.1152C177.777 81.1152 177.892 81.0467 177.892 80.9623C177.892 80.8778 177.777 80.8094 177.636 80.8094C177.496 80.8094 177.381 80.8778 177.381 80.9623C177.381 81.0467 177.496 81.1152 177.636 81.1152Z" fill="white"/>
<path d="M99.2552 44.6255L115.993 54.6653L104.409 61.5963L87.6206 51.5565L99.2552 44.6255Z" fill="black"/>
<path d="M86.1407 35.0446L73.0773 42.842L86.3959 50.7923L99.4593 42.9949L117.421 53.7991L152.019 33.057L102.164 3.19257L67.6172 23.9346L86.1407 35.0446Z" fill="black"/>
<path d="M101.297 55.9896L104.409 54.155C104.716 53.9511 104.716 53.6453 104.409 53.4924L101.297 51.6068C100.99 51.403 100.48 51.403 100.174 51.6068L97.0612 53.4415C96.755 53.6453 96.755 53.9511 97.0612 54.104L100.174 55.9896C100.48 56.1935 100.99 56.1935 101.297 55.9896ZM100.735 55.7858L97.4184 53.7982L100.684 51.8107L104.001 53.7982L100.735 55.7858Z" fill="white"/>
<path d="M105.379 51.6069C105.635 51.4541 105.992 51.6579 105.737 51.8108L104.716 52.4224L105.124 52.3714C105.379 52.3714 105.431 52.6262 105.124 52.6262L104.104 52.6772C103.951 52.6772 103.849 52.6262 103.849 52.5243L103.951 51.9127C103.951 51.7089 104.41 51.7598 104.41 51.9127L104.359 52.1675L105.379 51.6069Z" fill="white"/>
<path d="M102.573 51.6581C102.317 51.811 102.675 52.0149 102.93 51.862L103.95 51.2504L103.899 51.5052C103.899 51.6581 104.308 51.7091 104.359 51.5052L104.461 50.8937C104.461 50.7917 104.359 50.7408 104.206 50.7408L103.185 50.7917C102.879 50.7917 102.93 51.0466 103.185 51.0466L103.593 50.9956L102.573 51.6581Z" fill="white"/>
<path d="M102.368 53.9516L101.756 53.5949C101.705 53.5439 101.552 53.5439 101.45 53.5949L100.684 54.0535C100.633 54.1045 100.633 54.1555 100.684 54.1555C100.684 54.1555 100.684 54.1555 100.736 54.2064L99.766 54.818C99.6129 54.9199 99.868 55.0728 100.021 54.9709L100.991 54.3593H101.042L100.072 54.9709C99.868 55.0728 100.174 55.2257 100.327 55.1238L101.297 54.5122C101.348 54.5122 101.348 54.5632 101.348 54.5632C101.399 54.6141 101.501 54.6141 101.552 54.5632L102.317 54.1045C102.47 54.1045 102.47 54.0026 102.368 53.9516Z" fill="white"/>
<path d="M102.318 53.7985C102.459 53.7985 102.573 53.7301 102.573 53.6456C102.573 53.5612 102.459 53.4927 102.318 53.4927C102.177 53.4927 102.063 53.5612 102.063 53.6456C102.063 53.7301 102.177 53.7985 102.318 53.7985Z" fill="white"/>
<path d="M101.042 53.1861L100.429 52.8294C100.378 52.7784 100.225 52.7784 100.123 52.8294L99.3578 53.288C99.3068 53.339 99.3068 53.39 99.3578 53.39C99.3578 53.39 99.3578 53.39 99.4088 53.4409L98.4393 54.0525C98.2862 54.1544 98.5414 54.3073 98.6944 54.2054L99.664 53.5938H99.715L98.7455 54.2054C98.5414 54.3073 98.8475 54.4602 99.0006 54.3583L99.9702 53.7467C100.021 53.7467 100.021 53.7977 100.021 53.7977C100.072 53.8486 100.174 53.8486 100.225 53.7977L100.991 53.339C101.144 53.288 101.144 53.2371 101.042 53.1861Z" fill="white"/>
<path d="M100.991 52.9832C101.132 52.9832 101.246 52.9148 101.246 52.8303C101.246 52.7459 101.132 52.6774 100.991 52.6774C100.85 52.6774 100.736 52.7459 100.736 52.8303C100.736 52.9148 100.85 52.9832 100.991 52.9832Z" fill="white"/>
<path d="M255.454 14.9136L275.713 27.0429L253.464 40.3443L233.257 28.266L255.454 14.9136Z" fill="black"/>
<path d="M273.264 60.0165L280.51 64.3484L260.047 76.6306L252.75 72.2987L273.264 60.0165Z" fill="black"/>
<path d="M265.406 71.5853L268.519 69.7506C268.825 69.5468 268.825 69.241 268.519 69.0881L265.406 67.2025C265.1 66.9986 264.589 66.9986 264.283 67.2025L261.171 69.0371C260.864 69.241 260.864 69.5468 261.171 69.6997L264.283 71.5853C264.589 71.7891 265.1 71.7891 265.406 71.5853ZM264.845 71.3305L261.528 69.3429L264.794 67.3553L268.11 69.3429L264.845 71.3305Z" fill="white"/>
<path d="M269.488 67.202C269.744 67.0491 270.101 67.253 269.846 67.4059L268.825 68.0174L269.233 67.9665C269.488 67.9665 269.539 68.2213 269.233 68.2213L268.213 68.2723C268.06 68.2723 267.958 68.2213 267.958 68.1194L268.06 67.5078C268.06 67.304 268.519 67.3549 268.519 67.5078L268.468 67.7626L269.488 67.202Z" fill="white"/>
<path d="M266.682 67.2533C266.426 67.4062 266.784 67.61 267.039 67.4571L268.059 66.8456L268.008 67.1004C268.008 67.2533 268.416 67.3042 268.468 67.1004L268.57 66.4888C268.57 66.3869 268.467 66.3359 268.314 66.3359L267.294 66.3869C266.988 66.3869 267.039 66.6417 267.294 66.6417L267.702 66.5908L266.682 67.2533Z" fill="white"/>
<path d="M266.478 69.5457L265.866 69.1889C265.815 69.138 265.662 69.138 265.56 69.1889L264.794 69.6476C264.743 69.6985 264.743 69.7495 264.794 69.7495C264.794 69.7495 264.794 69.7495 264.845 69.8005L263.876 70.412C263.723 70.514 263.978 70.6669 264.131 70.5649L265.1 69.9534H265.152L264.182 70.5649C263.978 70.6669 264.284 70.8197 264.437 70.7178L265.407 70.1063C265.458 70.1063 265.458 70.1572 265.458 70.1572C265.509 70.2082 265.611 70.2082 265.662 70.1572L266.427 69.6986C266.58 69.6986 266.58 69.5966 266.478 69.5457Z" fill="white"/>
<path d="M266.428 69.3935C266.568 69.3935 266.683 69.3251 266.683 69.2406C266.683 69.1562 266.568 69.0878 266.428 69.0878C266.287 69.0878 266.172 69.1562 266.172 69.2406C266.172 69.3251 266.287 69.3935 266.428 69.3935Z" fill="white"/>
<path d="M265.151 68.7822L264.539 68.4255C264.488 68.3745 264.335 68.3745 264.233 68.4255L263.467 68.8842C263.416 68.9351 263.416 68.9861 263.467 68.9861C263.467 68.9861 263.467 68.9861 263.518 69.0371L262.549 69.6486C262.396 69.7505 262.651 69.9034 262.804 69.8015L263.773 69.1899H263.824L262.855 69.8015C262.651 69.9034 262.957 70.0563 263.11 69.9544L264.08 69.3428C264.131 69.3428 264.131 69.3938 264.131 69.3938C264.182 69.4448 264.284 69.4448 264.335 69.3938L265.1 68.9351C265.253 68.8842 265.253 68.8332 265.151 68.7822Z" fill="white"/>
<path d="M265.151 68.5783C265.292 68.5783 265.406 68.5099 265.406 68.4254C265.406 68.341 265.292 68.2725 265.151 68.2725C265.01 68.2725 264.896 68.341 264.896 68.4254C264.896 68.5099 265.01 68.5783 265.151 68.5783Z" fill="white"/>
<path d="M236.116 67.355L255.813 79.1275L248.312 83.6123L228.614 71.8398L236.116 67.355Z" fill="black"/>
<path d="M229.431 84.9376L259.283 102.826L280.46 90.1358L264.028 80.2999L251.934 87.5367L238.514 79.5355L229.431 84.9376Z" fill="black"/>
<path d="M299.069 59.1642L315.5 69.0001L281.531 89.5237L265.1 79.6368L299.069 59.1642Z" fill="#DAC452"/>
<path d="M327.547 33.7596L351.939 48.437L323.159 65.6626L298.716 51.0361L327.547 33.7596Z" fill="#DAC452"/>
<path d="M292.865 47.2935L307.408 38.5787L311.491 41.0759L325.779 32.5141L298.887 16.3588L270.055 33.6353L292.865 47.2935Z" fill="#DAC452"/>
<path d="M243.259 74.3366C243.463 74.4386 243.82 74.4386 244.025 74.3366C244.229 74.2347 244.229 73.9799 244.025 73.878C243.82 73.776 243.463 73.776 243.259 73.878C243.055 73.9799 243.055 74.1837 243.259 74.3366Z" fill="white"/>
<path d="M246.27 75.7129L245.351 75.1523C245.147 75.0504 244.841 74.9484 244.586 74.9484H242.953L243.208 74.7955C243.718 74.4898 242.953 74.0311 242.443 74.3369L241.473 74.9484H240.044C239.891 74.9484 239.891 74.9484 239.789 74.8465L239.33 74.5917C238.871 74.3369 238.207 74.3878 237.901 74.5917C237.544 74.7955 237.391 75.2032 237.901 75.509C237.901 75.509 238.513 75.8658 238.666 75.9677C238.871 76.0696 239.126 76.1716 239.483 76.1716H244.076C244.178 76.1716 244.229 76.1716 244.28 76.2225C244.28 76.2225 244.586 76.4264 244.841 76.5793C245.096 76.7322 245.811 76.7831 246.27 76.5283C246.678 76.3244 246.576 75.9167 246.27 75.7129ZM245.147 76.3754L244.688 76.0696C244.484 75.9677 244.382 75.9167 244.127 75.9167H239.534C239.33 75.9167 239.177 75.8658 239.024 75.7638L238.258 75.3052C238.054 75.2033 238.054 74.9994 238.258 74.8465C238.462 74.6936 238.769 74.7446 238.922 74.8465L239.432 75.1523C239.585 75.2542 239.738 75.2542 239.891 75.2542H244.586C244.79 75.2542 244.892 75.3052 245.045 75.4071L245.862 75.8658C246.066 75.9677 245.964 76.1716 245.862 76.2735C245.759 76.3754 245.351 76.4773 245.147 76.3754Z" fill="white"/>
<path d="M71.6487 92.2761L91.3459 104.1L83.8447 108.584L64.1475 96.8118L71.6487 92.2761Z" fill="black"/>
<path d="M78.7932 99.3089C78.9973 99.4108 79.3545 99.4108 79.5587 99.3089C79.7628 99.2069 79.7628 98.9521 79.5587 98.8502C79.3545 98.7483 78.9973 98.7483 78.7932 98.8502C78.5891 98.9521 78.5891 99.156 78.7932 99.3089Z" fill="white"/>
<path d="M81.8036 100.685L80.8851 100.125C80.681 100.023 80.3748 99.9207 80.1196 99.9207H78.4867L78.7419 99.7678C79.2522 99.462 78.4867 99.0033 77.9764 99.3091L77.0069 99.9207H75.5781C75.425 99.9207 75.425 99.9206 75.3229 99.8187L74.8637 99.5639C74.4044 99.3091 73.741 99.3601 73.4348 99.5639C73.1287 99.7678 72.9246 100.175 73.4348 100.481C73.4348 100.481 74.0472 100.838 74.2003 100.94C74.4044 101.042 74.6595 101.144 75.0167 101.144H79.6094C79.7114 101.144 79.7624 101.144 79.8135 101.195C79.8135 101.195 80.1196 101.399 80.3748 101.551C80.6299 101.704 81.3443 101.755 81.8036 101.501C82.1608 101.246 82.1098 100.838 81.8036 100.685ZM80.681 101.297L80.2217 100.991C80.0176 100.889 79.9155 100.838 79.6604 100.838H75.0678C74.8637 100.838 74.7106 100.787 74.5575 100.685L73.792 100.226C73.5879 100.125 73.5879 99.9207 73.792 99.7678C73.9962 99.6149 74.3023 99.6658 74.4554 99.7678L74.9657 100.074C75.1188 100.175 75.2719 100.175 75.425 100.175H80.1196C80.3238 100.175 80.4258 100.226 80.5789 100.328L81.3954 100.787C81.5995 100.889 81.4974 101.093 81.3954 101.195C81.2423 101.348 80.8851 101.45 80.681 101.297Z" fill="white"/>
<path d="M191.626 67.5377L211.272 79.3102L203.771 83.795L184.074 72.0225L191.626 67.5377Z" fill="black"/>
<path d="M198.719 74.5198C198.924 74.6218 199.281 74.6218 199.485 74.5198C199.689 74.4179 199.689 74.1631 199.485 74.0612C199.281 73.9593 198.924 73.9593 198.719 74.0612C198.515 74.1631 198.515 74.367 198.719 74.5198Z" fill="white"/>
<path d="M201.73 75.8961L200.811 75.3355C200.607 75.2336 200.301 75.1317 200.046 75.1317H198.413L198.668 74.9788C199.178 74.673 198.413 74.2143 197.903 74.5201L196.933 75.1317H195.504C195.351 75.1317 195.351 75.1317 195.249 75.0297L194.79 74.7749C194.331 74.5201 193.667 74.5711 193.361 74.7749C193.055 74.9788 192.851 75.3865 193.361 75.6923C193.361 75.6923 193.973 76.049 194.127 76.1509C194.331 76.2528 194.586 76.3548 194.943 76.3548H199.536C199.638 76.3548 199.689 76.3548 199.74 76.4057C199.74 76.4057 200.046 76.6096 200.301 76.7625C200.556 76.9154 201.271 76.9663 201.73 76.7115C202.138 76.5077 202.036 76.1 201.73 75.8961ZM200.607 76.5586L200.148 76.2528C199.944 76.1509 199.842 76.1 199.587 76.1H194.994C194.79 76.1 194.637 76.049 194.484 75.9471L193.718 75.4884C193.514 75.3865 193.514 75.1826 193.718 75.0297C193.922 74.8768 194.229 74.9278 194.382 75.0297L194.892 75.3355C195.045 75.4374 195.198 75.4374 195.351 75.4374H200.046C200.25 75.4374 200.352 75.4884 200.505 75.5903L201.322 76.049C201.526 76.1509 201.424 76.3548 201.322 76.4567C201.169 76.6096 200.811 76.6606 200.607 76.5586Z" fill="white"/>
<path d="M274.846 44.116L294.543 55.9394L287.042 60.4242L267.345 48.6517L274.846 44.116Z" fill="black"/>
<path d="M281.99 51.1488C282.195 51.2507 282.552 51.2507 282.756 51.1488C282.96 51.0468 282.96 50.792 282.756 50.6901C282.552 50.5882 282.195 50.5882 281.99 50.6901C281.786 50.792 281.786 50.9959 281.99 51.1488Z" fill="white"/>
<path d="M285.001 52.525L284.083 51.9644C283.879 51.8625 283.572 51.7606 283.317 51.7606H281.684L281.939 51.6077C282.45 51.3019 281.684 50.8432 281.174 51.149L280.205 51.7606H278.776C278.623 51.7606 278.623 51.7606 278.521 51.6586L278.061 51.4038C277.602 51.149 276.939 51.2 276.632 51.4038C276.275 51.6077 276.122 52.0154 276.632 52.3212C276.632 52.3212 277.245 52.6779 277.398 52.7798C277.602 52.8818 277.857 52.9837 278.214 52.9837H282.807C282.909 52.9837 282.96 52.9837 283.011 53.0346C283.011 53.0346 283.317 53.2385 283.572 53.3914C283.828 53.5443 284.542 53.5952 285.001 53.3404C285.409 53.0856 285.307 52.6779 285.001 52.525ZM283.879 53.1366L283.419 52.8308C283.215 52.7289 283.113 52.6779 282.858 52.6779H278.265C278.061 52.6779 277.908 52.6269 277.755 52.525L276.99 52.0663C276.786 51.9644 276.786 51.7606 276.99 51.6077C277.194 51.4548 277.5 51.5057 277.653 51.6077L278.163 51.9134C278.316 52.0154 278.47 52.0154 278.623 52.0154H283.317C283.521 52.0154 283.623 52.0663 283.777 52.1683L284.593 52.6269C284.797 52.7289 284.695 52.9327 284.593 53.0346C284.491 53.1366 284.083 53.2895 283.879 53.1366Z" fill="white"/>
<path d="M153.601 34.0248L178.809 49.1099L168.909 55.0726L143.701 39.9875L153.601 34.0248Z" fill="#C8A67C"/>
<path d="M126.3 50.3842L151.509 65.5203L144.263 69.8522L119.054 54.7671L126.3 50.3842Z" fill="#C8A67C"/>
<path d="M143.548 51.658L159.061 60.9843L152.938 64.6537L137.425 55.3274L143.548 51.658Z" fill="#C8A67C"/>
<path d="M117.625 55.6334L142.834 70.7185L141.609 71.432L120.891 71.483L105.991 62.5644L117.625 55.6334Z" fill="#C8A67C"/>
<path d="M158.143 31.3242L183.096 33.6685L189.168 42.9438L180.289 48.295L155.081 33.1589L158.143 31.3242Z" fill="#C8A67C"/>
<path d="M135.894 54.4104L143.497 49.8747L160.541 60.1183L167.481 55.9393L142.273 40.8542L127.729 49.5179L135.894 54.4104Z" fill="#C8A67C"/>
<path d="M3.83988 61.4939L102.164 2.5457L150.124 31.2861L150.895 31.7481L151.666 31.2861L180.492 14.0126L217.025 35.8727L217.796 36.334L218.567 35.8721L255.454 13.7581L277.34 26.9019L278.111 27.3654L278.883 26.9024L297.402 15.7959L351.532 48.1936L258.874 103.727L191.623 63.4182L190.854 62.9568L190.083 63.4172L178.397 70.3991L176.243 71.6863L178.397 72.9742L192.016 81.1177L178.045 89.5068L163.049 80.492L162.277 80.0279L161.505 80.4911L98.5406 118.251L3.83988 61.4939Z" stroke="black" stroke-width="3" stroke-miterlimit="10"/>
</svg>
