<svg width="315" height="740" viewBox="0 0 315 740" fill="none" xmlns="http://www.w3.org/2000/svg">
<path d="M206.616 33.3568H208.116V31.8568V1.5H313.5V328.5H1.5V61.5H161.319H162.819V60V33.3568H206.616Z" fill="#C4C4C4" stroke="black" stroke-width="3" stroke-miterlimit="10"/>
<path d="M251.266 85.3369H241.75V120.373H251.266V85.3369Z" fill="black"/>
<path d="M113.266 244.412H103.75V279.448H113.266V244.412Z" fill="black"/>
<path d="M276.806 85.3369H267.29V120.373H276.806V85.3369Z" fill="black"/>
<path d="M138.806 244.412H129.29V279.448H138.806V244.412Z" fill="black"/>
<path d="M265.448 85.3369H253.107V120.373H265.448V85.3369Z" fill="#FF0000"/>
<path d="M127.448 244.412H115.107V279.448H127.448V244.412Z" fill="black"/>
<path d="M240 85.4121H167V120.412H240V85.4121Z" fill="black"/>
<path d="M102 244.487H29V279.487H102V244.487Z" fill="black"/>
<path d="M262.87 106.285V100.971C262.87 100.414 262.44 99.9819 261.887 99.9819H256.607C256.055 99.9819 255.625 100.414 255.625 100.971V106.285C255.625 106.841 256.055 107.273 256.607 107.273H261.887C262.44 107.212 262.87 106.841 262.87 106.285ZM262.072 106.408H256.423V100.785H262.072V106.408Z" fill="white"/>
<path d="M260.168 96.5212C260.168 96.0886 260.782 96.0886 260.782 96.5212V98.2514L261.089 97.8806C261.335 97.6334 261.703 98.0042 261.457 98.2514L260.659 99.1783C260.536 99.3018 260.352 99.3018 260.229 99.1783L259.431 98.2514C259.186 97.9424 259.616 97.6334 259.8 97.8806L260.107 98.3132L260.168 96.5212Z" fill="white"/>
<path d="M257.774 98.9953C257.774 99.4279 258.388 99.4279 258.388 98.9953V97.2652L258.695 97.6359C258.94 97.8831 259.309 97.5123 259.063 97.2652L258.265 96.3383C258.142 96.2147 257.958 96.2147 257.835 96.3383L257.037 97.2652C256.791 97.5741 257.221 97.8831 257.405 97.6359L257.712 97.2034L257.774 98.9953Z" fill="white"/>
<path d="M260.905 102.453H259.861C259.738 102.453 259.615 102.577 259.615 102.7V103.998C259.615 104.122 259.677 104.183 259.799 104.183C259.799 104.183 259.861 104.183 259.922 104.183V105.852C259.922 106.161 260.352 106.161 260.352 105.852V104.183H260.413V105.852C260.413 106.161 260.843 106.161 260.843 105.852V104.183C260.905 104.183 260.966 104.183 260.966 104.183C261.089 104.183 261.15 104.122 261.15 103.998V102.7C261.15 102.577 261.027 102.453 260.905 102.453Z" fill="white"/>
<path d="M260.352 102.33C260.521 102.33 260.659 102.192 260.659 102.021C260.659 101.85 260.521 101.712 260.352 101.712C260.182 101.712 260.045 101.85 260.045 102.021C260.045 102.192 260.182 102.33 260.352 102.33Z" fill="white"/>
<path d="M258.695 102.453H257.651C257.528 102.453 257.405 102.577 257.405 102.7V103.998C257.405 104.122 257.467 104.183 257.589 104.183C257.589 104.183 257.651 104.183 257.712 104.183V105.852C257.712 106.161 258.142 106.161 258.142 105.852V104.183H258.203V105.852C258.203 106.161 258.633 106.161 258.633 105.852V104.183C258.695 104.183 258.756 104.183 258.756 104.183C258.879 104.183 258.94 104.122 258.94 103.998V102.7C258.94 102.577 258.817 102.453 258.695 102.453Z" fill="white"/>
<path d="M258.141 102.33C258.311 102.33 258.448 102.192 258.448 102.021C258.448 101.85 258.311 101.712 258.141 101.712C257.971 101.712 257.834 101.85 257.834 102.021C257.834 102.192 257.971 102.33 258.141 102.33Z" fill="white"/>
<path d="M124.87 265.36V260.046C124.87 259.49 124.44 259.057 123.887 259.057H118.607C118.055 259.057 117.625 259.49 117.625 260.046V265.36C117.625 265.916 118.055 266.349 118.607 266.349H123.887C124.44 266.287 124.87 265.916 124.87 265.36ZM124.072 265.484H118.423V259.86H124.072V265.484Z" fill="white"/>
<path d="M122.168 255.596C122.168 255.164 122.782 255.164 122.782 255.596V257.327L123.089 256.956C123.335 256.709 123.703 257.079 123.457 257.327L122.659 258.253C122.536 258.377 122.352 258.377 122.229 258.253L121.431 257.327C121.186 257.018 121.616 256.709 121.8 256.956L122.107 257.388L122.168 255.596Z" fill="white"/>
<path d="M119.774 258.071C119.774 258.503 120.388 258.503 120.388 258.071V256.34L120.695 256.711C120.94 256.958 121.309 256.588 121.063 256.34L120.265 255.413C120.142 255.29 119.958 255.29 119.835 255.413L119.037 256.34C118.791 256.649 119.221 256.958 119.405 256.711L119.712 256.279L119.774 258.071Z" fill="white"/>
<path d="M122.905 261.528H121.861C121.738 261.528 121.615 261.652 121.615 261.775V263.073C121.615 263.197 121.677 263.259 121.799 263.259C121.799 263.259 121.861 263.259 121.922 263.259V264.927C121.922 265.236 122.352 265.236 122.352 264.927V263.259H122.413V264.927C122.413 265.236 122.843 265.236 122.843 264.927V263.259C122.905 263.259 122.966 263.259 122.966 263.259C123.089 263.259 123.15 263.197 123.15 263.073V261.775C123.15 261.652 123.027 261.528 122.905 261.528Z" fill="white"/>
<path d="M122.352 261.405C122.521 261.405 122.659 261.267 122.659 261.096C122.659 260.925 122.521 260.787 122.352 260.787C122.182 260.787 122.045 260.925 122.045 261.096C122.045 261.267 122.182 261.405 122.352 261.405Z" fill="white"/>
<path d="M120.695 261.528H119.651C119.528 261.528 119.405 261.652 119.405 261.775V263.073C119.405 263.197 119.467 263.259 119.589 263.259C119.589 263.259 119.651 263.259 119.712 263.259V264.927C119.712 265.236 120.142 265.236 120.142 264.927V263.259H120.203V264.927C120.203 265.236 120.633 265.236 120.633 264.927V263.259C120.695 263.259 120.756 263.259 120.756 263.259C120.879 263.259 120.94 263.197 120.94 263.073V261.775C120.94 261.652 120.817 261.528 120.695 261.528Z" fill="white"/>
<path d="M120.141 261.405C120.311 261.405 120.448 261.267 120.448 261.096C120.448 260.925 120.311 260.787 120.141 260.787C119.971 260.787 119.834 260.925 119.834 261.096C119.834 261.267 119.971 261.405 120.141 261.405Z" fill="white"/>
<path d="M175.632 100.412H177.17V98.0542H178.462C180.135 98.0542 181.108 97.0563 181.108 95.6039C181.108 94.1586 180.153 93.1394 178.501 93.1394H175.632V100.412ZM177.17 96.8219V94.3965H178.207C179.094 94.3965 179.524 94.8794 179.524 95.6039C179.524 96.3248 179.094 96.8219 178.214 96.8219H177.17ZM183.487 100.515C184.293 100.515 184.815 100.164 185.082 99.6557H185.124V100.412H186.559V96.7331C186.559 95.4334 185.458 94.8865 184.244 94.8865C182.937 94.8865 182.077 95.5115 181.868 96.5059L183.267 96.6195C183.37 96.2573 183.693 95.9909 184.237 95.9909C184.751 95.9909 185.046 96.2502 185.046 96.6976V96.7189C185.046 97.0705 184.673 97.1167 183.725 97.209C182.646 97.3084 181.676 97.6706 181.676 98.8887C181.676 99.9682 182.447 100.515 183.487 100.515ZM183.92 99.4711C183.455 99.4711 183.121 99.2544 183.121 98.839C183.121 98.4128 183.473 98.2033 184.006 98.1287C184.336 98.0826 184.876 98.0044 185.057 97.8837V98.4625C185.057 99.0343 184.585 99.4711 183.92 99.4711ZM187.733 100.412H189.245V97.3262C189.245 96.655 189.735 96.1934 190.403 96.1934C190.613 96.1934 190.9 96.2289 191.042 96.275V94.9327C190.907 94.9007 190.719 94.8794 190.566 94.8794C189.956 94.8794 189.455 95.2346 189.256 95.9093H189.199V94.9576H187.733V100.412ZM191.824 100.412H193.337V98.6792L193.746 98.214L195.233 100.412H197.006L194.878 97.3191L196.903 94.9576H195.166L193.419 97.0279H193.337V93.1394H191.824V100.412ZM197.645 100.412H199.157V94.9576H197.645V100.412ZM198.405 94.2544C198.856 94.2544 199.225 93.91 199.225 93.4874C199.225 93.0684 198.856 92.7239 198.405 92.7239C197.957 92.7239 197.588 93.0684 197.588 93.4874C197.588 93.91 197.957 94.2544 198.405 94.2544ZM201.882 97.2587C201.886 96.5556 202.305 96.1436 202.915 96.1436C203.523 96.1436 203.888 96.5414 203.885 97.209V100.412H205.398V96.9391C205.398 95.6678 204.652 94.8865 203.516 94.8865C202.706 94.8865 202.12 95.2843 201.875 95.9199H201.811V94.9576H200.369V100.412H201.882V97.2587ZM209.047 102.571C210.606 102.571 211.714 101.861 211.714 100.465V94.9576H210.212V95.8738H210.155C209.953 95.4299 209.509 94.8865 208.596 94.8865C207.4 94.8865 206.388 95.8169 206.388 97.6742C206.388 99.4888 207.371 100.334 208.6 100.334C209.47 100.334 209.956 99.8972 210.155 99.4462H210.219V100.444C210.219 101.193 209.74 101.485 209.083 101.485C208.415 101.485 208.078 101.193 207.954 100.863L206.555 101.051C206.736 101.911 207.577 102.571 209.047 102.571ZM209.079 99.1976C208.337 99.1976 207.932 98.6081 207.932 97.6671C207.932 96.7402 208.33 96.0904 209.079 96.0904C209.814 96.0904 210.226 96.7118 210.226 97.6671C210.226 98.6294 209.807 99.1976 209.079 99.1976ZM175.632 112.412H180.547V111.144H177.17V109.408H180.281V108.14H177.17V106.407H180.533V105.139H175.632V112.412ZM183.009 112.412L183.548 110.754H186.173L186.713 112.412H188.36L185.853 105.139H183.872L181.361 112.412H183.009ZM183.939 109.553L184.834 106.801H184.891L185.786 109.553H183.939ZM193.015 107.231H194.489C194.467 105.935 193.402 105.04 191.783 105.04C190.188 105.04 189.02 105.921 189.027 107.242C189.023 108.314 189.78 108.928 191.009 109.223L191.8 109.422C192.592 109.614 193.033 109.841 193.036 110.331C193.033 110.864 192.528 111.226 191.747 111.226C190.948 111.226 190.373 110.857 190.323 110.129H188.835C188.874 111.702 190 112.515 191.765 112.515C193.54 112.515 194.585 111.666 194.588 110.335C194.585 109.124 193.672 108.481 192.408 108.197L191.754 108.041C191.122 107.895 190.593 107.661 190.604 107.139C190.604 106.67 191.019 106.325 191.772 106.325C192.507 106.325 192.958 106.659 193.015 107.231ZM195.345 106.407H197.572V112.412H199.092V106.407H201.318V105.139H195.345V106.407ZM204.616 112.412H206.154V109.408H209.276V112.412H210.81V105.139H209.276V108.14H206.154V105.139H204.616V112.412ZM213.331 112.412L213.871 110.754H216.495L217.035 112.412H218.683L216.175 105.139H214.194L211.683 112.412H213.331ZM214.261 109.553L215.156 106.801H215.213L216.108 109.553H214.261ZM219.558 112.412H224.213V111.144H221.096V105.139H219.558V112.412ZM225.232 112.412H229.887V111.144H226.769V105.139H225.232V112.412Z" fill="white"/>
<path d="M37.6321 259.487H39.1697V257.129H40.4624C42.1349 257.129 43.108 256.131 43.108 254.679C43.108 253.234 42.1527 252.215 40.5014 252.215H37.6321V259.487ZM39.1697 255.897V253.472H40.2067C41.0945 253.472 41.5241 253.955 41.5241 254.679C41.5241 255.4 41.0945 255.897 40.2138 255.897H39.1697ZM45.4872 259.59C46.2933 259.59 46.8153 259.239 47.0817 258.731H47.1243V259.487H48.5589V255.808C48.5589 254.509 47.4581 253.962 46.2436 253.962C44.9368 253.962 44.0774 254.587 43.8679 255.581L45.267 255.695C45.37 255.332 45.6932 255.066 46.2365 255.066C46.7514 255.066 47.0462 255.325 47.0462 255.773V255.794C47.0462 256.146 46.6733 256.192 45.7251 256.284C44.6456 256.384 43.6761 256.746 43.6761 257.964C43.6761 259.043 44.4467 259.59 45.4872 259.59ZM45.9205 258.546C45.4553 258.546 45.1214 258.33 45.1214 257.914C45.1214 257.488 45.473 257.278 46.0057 257.204C46.3359 257.158 46.8757 257.08 47.0568 256.959V257.538C47.0568 258.109 46.5845 258.546 45.9205 258.546ZM49.7326 259.487H51.2454V256.401C51.2454 255.73 51.7354 255.269 52.4031 255.269C52.6126 255.269 52.9002 255.304 53.0423 255.35V254.008C52.9073 253.976 52.7191 253.955 52.5664 253.955C51.9556 253.955 51.4549 254.31 51.256 254.984H51.1992V254.033H49.7326V259.487ZM53.8244 259.487H55.3372V257.754L55.7456 257.289L57.2335 259.487H59.0055L56.8784 256.394L58.9025 254.033H57.166L55.4189 256.103H55.3372V252.215H53.8244V259.487ZM59.6447 259.487H61.1575V254.033H59.6447V259.487ZM60.4047 253.33C60.8556 253.33 61.225 252.985 61.225 252.563C61.225 252.144 60.8556 251.799 60.4047 251.799C59.9572 251.799 59.5879 252.144 59.5879 252.563C59.5879 252.985 59.9572 253.33 60.4047 253.33ZM63.8821 256.334C63.8857 255.631 64.3047 255.219 64.9155 255.219C65.5227 255.219 65.8885 255.617 65.8849 256.284V259.487H67.3977V256.014C67.3977 254.743 66.652 253.962 65.5156 253.962C64.706 253.962 64.12 254.359 63.875 254.995H63.8111V254.033H62.3693V259.487H63.8821V256.334ZM71.0474 261.646C72.6064 261.646 73.7143 260.936 73.7143 259.541V254.033H72.2122V254.949H72.1554C71.9529 254.505 71.5091 253.962 70.5964 253.962C69.3997 253.962 68.3876 254.892 68.3876 256.749C68.3876 258.564 69.3713 259.409 70.6 259.409C71.47 259.409 71.9565 258.972 72.1554 258.521H72.2193V259.519C72.2193 260.269 71.7399 260.56 71.0829 260.56C70.4153 260.56 70.0779 260.269 69.9537 259.938L68.5545 260.127C68.7356 260.986 69.5772 261.646 71.0474 261.646ZM71.0794 258.273C70.3372 258.273 69.9324 257.683 69.9324 256.742C69.9324 255.815 70.3301 255.166 71.0794 255.166C71.8145 255.166 72.2264 255.787 72.2264 256.742C72.2264 257.705 71.8074 258.273 71.0794 258.273ZM39.2692 271.487H40.7678L42.1491 266.732H42.206L43.5909 271.487H45.0895L47.1705 264.215H45.4908L44.2869 269.278H44.223L42.8984 264.215H41.4602L40.1321 269.268H40.0717L38.8679 264.215H37.1882L39.2692 271.487ZM47.9934 271.487H52.9082V270.22H49.5311V268.483H52.6419V267.215H49.5311V265.482H52.894V264.215H47.9934V271.487ZM58.0618 266.306H59.5355C59.5142 265.01 58.4489 264.115 56.8295 264.115C55.2351 264.115 54.0668 264.996 54.0739 266.317C54.0703 267.389 54.8267 268.004 56.0554 268.298L56.8473 268.497C57.6392 268.689 58.0795 268.916 58.0831 269.406C58.0795 269.939 57.5753 270.301 56.794 270.301C55.995 270.301 55.4197 269.932 55.37 269.204H53.8821C53.9212 270.777 55.0469 271.59 56.8118 271.59C58.5874 271.59 59.6314 270.742 59.6349 269.41C59.6314 268.199 58.7188 267.556 57.4545 267.272L56.8011 267.116C56.169 266.97 55.6399 266.736 55.6506 266.214C55.6506 265.745 56.0661 265.401 56.8189 265.401C57.554 265.401 58.005 265.734 58.0618 266.306ZM60.3922 265.482H62.6188V271.487H64.1387V265.482H66.3652V264.215H60.3922V265.482ZM69.6634 271.487H71.201V268.483H74.3224V271.487H75.8565V264.215H74.3224V267.215H71.201V264.215H69.6634V271.487ZM78.3778 271.487L78.9176 269.829H81.5419L82.0817 271.487H83.7294L81.2223 264.215H79.2408L76.7301 271.487H78.3778ZM79.3082 268.629L80.2031 265.877H80.2599L81.1548 268.629H79.3082ZM84.6048 271.487H89.2603V270.22H86.1424V264.215H84.6048V271.487ZM90.2786 271.487H94.9341V270.22H91.8162V264.215H90.2786V271.487Z" fill="white"/>
<path d="M2.78125 43.4121H9.54688V33.0371H15.2344C22.5937 33.0371 26.875 28.6465 26.875 22.2559C26.875 15.8965 22.6719 11.4121 15.4063 11.4121H2.78125V43.4121ZM9.54688 27.6152V16.9434H14.1094C18.0156 16.9434 19.9063 19.0684 19.9063 22.2559C19.9063 25.4277 18.0156 27.6152 14.1406 27.6152H9.54688Z" fill="black"/>
<path fill-rule="evenodd" clip-rule="evenodd" d="M229.789 95.8438C233.317 95.2346 236 92.1681 236 88.4769C236 84.3475 232.642 81 228.5 81C224.358 81 221 84.3475 221 88.4769C221 92.1681 223.683 95.2346 227.211 95.8438L228.5 101L229.789 95.8438Z" fill="black"/>
<path fill-rule="evenodd" clip-rule="evenodd" d="M229.789 93.8438C233.317 93.2346 236 90.1681 236 86.4769C236 82.3475 232.642 79 228.5 79C224.358 79 221 82.3475 221 86.4769C221 90.1681 223.683 93.2346 227.211 93.8438L228.5 99L229.789 93.8438Z" fill="#FF0000"/>
<ellipse cx="228.5" cy="86.4767" rx="2.5" ry="2.49231" fill="white"/>
<path d="M186.734 590.352H185.234V591.852V702.119H1.5V525.582H95.2488H96.7488V524.082V474.677H161.319H162.819V473.177V407.616H206.616H208.116V406.116V375.828H313.5V540.32H186.734H185.234V541.82V562.313V563.813H186.734H214.102V590.352H186.734Z" fill="white" stroke="black" stroke-width="3" stroke-miterlimit="10"/>
<path d="M168.086 498.698H254.188V462.853H168.086V498.698Z" fill="#C4C4C4"/>
<path d="M143.45 498.675H164.65V479.078H143.45V498.675Z" fill="black"/>
<path d="M156.495 485.96C156.906 485.96 157.248 485.644 157.248 485.264C157.248 484.885 156.906 484.569 156.495 484.569C156.085 484.569 155.743 484.885 155.743 485.264C155.743 485.644 156.085 485.96 156.495 485.96Z" fill="white"/>
<path d="M156.358 490.448V492.913C156.358 493.356 155.675 493.356 155.675 492.913V490.448H154.717L155.743 487.16H155.538L154.922 488.994C154.786 489.373 154.17 489.247 154.307 488.804L154.991 486.781C155.059 486.528 155.401 486.149 155.948 486.149H156.427H156.974C157.521 486.149 157.863 486.591 157.931 486.781L158.615 488.804C158.752 489.247 158.137 489.436 158 488.994L157.384 487.16H157.179L158.205 490.448H157.248V492.913C157.248 493.356 156.564 493.356 156.564 492.913V490.448H156.358Z" fill="white"/>
<path d="M150.583 486.212C150.036 486.212 149.626 486.592 149.626 487.161V489.31C149.626 489.753 150.31 489.753 150.31 489.31V487.35H150.447V492.85C150.447 493.419 151.336 493.419 151.336 492.85V489.626H151.473V492.85C151.473 493.419 152.362 493.419 152.362 492.85V487.35H152.498V489.31C152.498 489.753 153.182 489.753 153.182 489.31V487.161C153.182 486.718 152.772 486.212 152.225 486.212H150.583Z" fill="white"/>
<path d="M151.404 485.96C151.819 485.96 152.156 485.648 152.156 485.264C152.156 484.88 151.819 484.569 151.404 484.569C150.988 484.569 150.651 484.88 150.651 485.264C150.651 485.648 150.988 485.96 151.404 485.96Z" fill="white"/>
<path d="M7.5406 613.083H28.7412L28.7412 593.485H7.5406L7.5406 613.083Z" fill="black"/>
<path d="M20.6292 600.384C21.0396 600.384 21.3815 600.068 21.3815 599.689C21.3815 599.31 21.0396 598.994 20.6292 598.994C20.2189 598.994 19.877 599.31 19.877 599.689C19.877 600.068 20.2189 600.384 20.6292 600.384Z" fill="white"/>
<path d="M20.4922 604.81V607.276C20.4922 607.718 19.8084 607.718 19.8084 607.276V604.81H18.8509L19.8767 601.523H19.74L19.1245 603.356C18.9877 603.735 18.3722 603.609 18.509 603.166L19.1928 601.143C19.2612 600.891 19.6032 600.511 20.1503 600.511H20.629H21.1761C21.7233 600.511 22.0652 600.954 22.1336 601.143L22.8175 603.166C22.9543 603.609 22.3388 603.799 22.202 603.356L21.5865 601.523H21.3813L22.4071 604.81H21.4497V607.276C21.4497 607.718 20.7658 607.718 20.7658 607.276V604.81H20.4922Z" fill="white"/>
<path d="M14.7856 600.574C14.2385 600.574 13.8281 600.954 13.8281 601.522V603.672C13.8281 604.114 14.512 604.114 14.512 603.672V601.712H14.6488V607.212C14.6488 607.781 15.5379 607.781 15.5379 607.212V603.988H15.6746V607.212C15.6746 607.781 16.5637 607.781 16.5637 607.212V601.712H16.7005V603.672C16.7005 604.114 17.3844 604.114 17.3844 603.672V601.522C17.3844 601.08 16.974 600.574 16.4269 600.574H14.7856Z" fill="white"/>
<path d="M15.5374 600.384C15.9529 600.384 16.2897 600.073 16.2897 599.689C16.2897 599.305 15.9529 598.994 15.5374 598.994C15.122 598.994 14.7852 599.305 14.7852 599.689C14.7852 600.073 15.122 600.384 15.5374 600.384Z" fill="white"/>
<path d="M7.73652 662.086H113.842V626.204H7.73652V662.086Z" fill="#C4C4C4"/>
<path d="M116.266 661.937H130.012V626.092H116.266V661.937Z" fill="black"/>
<path d="M180.672 594V661.96H169.662L152.701 644.891V620.552L180.672 594Z" fill="#C8A67C"/>
<path d="M127.136 649.885V644.448C127.136 643.879 126.658 643.437 126.042 643.437H120.161C119.545 643.437 119.066 643.879 119.066 644.448V649.885C119.066 650.454 119.545 650.896 120.161 650.896H126.042C126.658 650.833 127.136 650.454 127.136 649.885ZM126.247 650.011H119.955V644.258H126.247V650.011Z" fill="white"/>
<path d="M124.128 639.896C124.128 639.454 124.811 639.454 124.811 639.896V641.667L125.153 641.287C125.427 641.034 125.837 641.414 125.564 641.667L124.675 642.615C124.538 642.741 124.333 642.741 124.196 642.615L123.307 641.667C123.033 641.35 123.512 641.034 123.717 641.287L124.059 641.73L124.128 639.896Z" fill="white"/>
<path d="M121.461 642.427C121.461 642.87 122.145 642.87 122.145 642.427V640.657L122.486 641.036C122.76 641.289 123.17 640.91 122.897 640.657L122.008 639.709C121.871 639.582 121.666 639.582 121.529 639.709L120.64 640.657C120.366 640.973 120.845 641.289 121.05 641.036L121.392 640.594L121.461 642.427Z" fill="white"/>
<path d="M124.948 645.965H123.785C123.648 645.965 123.512 646.092 123.512 646.218V647.546C123.512 647.672 123.58 647.735 123.717 647.735C123.717 647.735 123.785 647.735 123.854 647.735V649.442C123.854 649.758 124.332 649.758 124.332 649.442V647.735H124.401V649.442C124.401 649.758 124.879 649.758 124.879 649.442V647.735C124.948 647.735 125.016 647.735 125.016 647.735C125.153 647.735 125.221 647.672 125.221 647.546V646.218C125.221 646.092 125.085 645.965 124.948 645.965Z" fill="white"/>
<path d="M124.401 645.839C124.589 645.839 124.743 645.697 124.743 645.523C124.743 645.348 124.589 645.207 124.401 645.207C124.212 645.207 124.059 645.348 124.059 645.523C124.059 645.697 124.212 645.839 124.401 645.839Z" fill="white"/>
<path d="M122.486 645.965H121.323C121.187 645.965 121.05 646.092 121.05 646.218V647.546C121.05 647.672 121.118 647.735 121.255 647.735C121.255 647.735 121.323 647.735 121.392 647.735V649.442C121.392 649.758 121.87 649.758 121.87 649.442V647.735H121.939V649.442C121.939 649.758 122.418 649.758 122.418 649.442V647.735C122.486 647.735 122.554 647.735 122.554 647.735C122.691 647.735 122.76 647.672 122.76 647.546V646.218C122.76 646.092 122.623 645.965 122.486 645.965Z" fill="white"/>
<path d="M121.939 645.839C122.128 645.839 122.281 645.697 122.281 645.523C122.281 645.348 122.128 645.207 121.939 645.207C121.75 645.207 121.597 645.348 121.597 645.523C121.597 645.697 121.75 645.839 121.939 645.839Z" fill="white"/>
<path d="M189.434 587.044H210.635V566.751H189.434V587.044Z" fill="black"/>
<path d="M204.073 581.545V576.109C204.073 575.54 203.594 575.097 202.979 575.097H197.097C196.482 575.097 196.003 575.54 196.003 576.109V581.545C196.003 582.114 196.482 582.557 197.097 582.557H202.979C203.594 582.557 204.073 582.114 204.073 581.545ZM203.184 581.735H196.892V575.982H203.184V581.735Z" fill="white"/>
<path d="M200.996 571.557C200.996 571.114 201.68 571.114 201.68 571.557V573.327L202.022 572.948C202.295 572.695 202.706 573.074 202.432 573.327L201.543 574.275C201.406 574.402 201.201 574.402 201.064 574.275L200.175 573.327C199.902 573.011 200.38 572.695 200.585 572.948L200.927 573.39L200.996 571.557Z" fill="white"/>
<path d="M198.397 574.088C198.397 574.53 199.081 574.53 199.081 574.088V572.318L199.423 572.697C199.697 572.95 200.107 572.57 199.833 572.318L198.944 571.369C198.807 571.243 198.602 571.243 198.466 571.369L197.576 572.318C197.303 572.634 197.782 572.95 197.987 572.697L198.329 572.254L198.397 574.088Z" fill="white"/>
<path d="M201.884 577.689H200.722C200.585 577.689 200.448 577.816 200.448 577.942V579.27C200.448 579.396 200.517 579.46 200.653 579.46C200.653 579.46 200.722 579.46 200.79 579.46V581.166C200.79 581.482 201.269 581.482 201.269 581.166V579.46H201.337V581.166C201.337 581.482 201.816 581.482 201.816 581.166V579.46C201.884 579.46 201.953 579.46 201.953 579.46C202.09 579.46 202.158 579.396 202.158 579.27V577.942C202.158 577.753 202.021 577.689 201.884 577.689Z" fill="white"/>
<path d="M201.269 577.499C201.458 577.499 201.611 577.358 201.611 577.183C201.611 577.009 201.458 576.867 201.269 576.867C201.08 576.867 200.927 577.009 200.927 577.183C200.927 577.358 201.08 577.499 201.269 577.499Z" fill="white"/>
<path d="M199.354 577.689H198.192C198.055 577.689 197.918 577.816 197.918 577.942V579.27C197.918 579.396 197.986 579.46 198.123 579.46C198.123 579.46 198.192 579.46 198.26 579.46V581.166C198.26 581.482 198.739 581.482 198.739 581.166V579.46H198.807V581.166C198.807 581.482 199.286 581.482 199.286 581.166V579.46C199.354 579.46 199.423 579.46 199.423 579.46C199.559 579.46 199.628 579.396 199.628 579.27V577.942C199.628 577.753 199.559 577.689 199.354 577.689Z" fill="white"/>
<path d="M198.807 577.499C198.996 577.499 199.149 577.358 199.149 577.183C199.149 577.009 198.996 576.867 198.807 576.867C198.618 576.867 198.465 577.009 198.465 577.183C198.465 577.358 198.618 577.499 198.807 577.499Z" fill="white"/>
<path d="M66.994 613.08H98.7266V592.723H66.994V613.08Z" fill="black"/>
<path d="M39.4602 590.206V613.091H64.6274V590.206H98.7535V529.643H7.62402V590.206H39.4602Z" fill="#C4C4C4"/>
<path d="M86.9224 607.592V602.155C86.9224 601.586 86.4437 601.144 85.8282 601.144H80.0151C79.3996 601.144 78.9209 601.586 78.9209 602.155V607.592C78.9209 608.161 79.3996 608.603 80.0151 608.603H85.8966C86.4437 608.54 86.9224 608.161 86.9224 607.592ZM86.0334 607.718H79.7416V601.965H86.0334V607.718Z" fill="white"/>
<path d="M83.9128 597.603C83.9128 597.161 84.5967 597.161 84.5967 597.603V599.373L84.9386 598.994C85.2122 598.741 85.6225 599.121 85.349 599.373L84.4599 600.322C84.3231 600.448 84.1179 600.448 83.9812 600.322L83.0921 599.373C82.8185 599.057 83.2973 598.741 83.5024 598.994L83.8444 599.437L83.9128 597.603Z" fill="white"/>
<path d="M81.2458 600.134C81.2458 600.576 81.9297 600.576 81.9297 600.134V598.363L82.2716 598.743C82.5452 598.996 82.9555 598.616 82.6819 598.363L81.7929 597.415C81.6561 597.289 81.4509 597.289 81.3142 597.415L80.4251 598.363C80.1515 598.68 80.6303 598.996 80.8354 598.743L81.1774 598.3L81.2458 600.134Z" fill="white"/>
<path d="M84.734 603.672H83.5714C83.4346 603.672 83.2979 603.799 83.2979 603.925V605.253C83.2979 605.379 83.3662 605.442 83.503 605.442C83.503 605.442 83.5714 605.442 83.6398 605.442V607.149C83.6398 607.465 84.1185 607.465 84.1185 607.149V605.442H84.1869V607.149C84.1869 607.465 84.6656 607.465 84.6656 607.149V605.442C84.734 605.442 84.8024 605.442 84.8024 605.442C84.9392 605.442 85.0076 605.379 85.0076 605.253V603.925C85.0076 603.799 84.8708 603.672 84.734 603.672Z" fill="white"/>
<path d="M84.1867 603.546C84.3755 603.546 84.5286 603.404 84.5286 603.23C84.5286 603.055 84.3755 602.914 84.1867 602.914C83.9978 602.914 83.8447 603.055 83.8447 603.23C83.8447 603.404 83.9978 603.546 84.1867 603.546Z" fill="white"/>
<path d="M82.2721 603.672H81.1095C80.9727 603.672 80.8359 603.799 80.8359 603.925V605.253C80.8359 605.379 80.9043 605.442 81.0411 605.442C81.0411 605.442 81.1095 605.442 81.1779 605.442V607.149C81.1779 607.465 81.6566 607.465 81.6566 607.149V605.442H81.725V607.149C81.725 607.465 82.2037 607.465 82.2037 607.149V605.442C82.2721 605.442 82.3405 605.442 82.3405 605.442C82.4773 605.442 82.5457 605.379 82.5457 605.253V603.925C82.5457 603.799 82.4089 603.672 82.2721 603.672Z" fill="white"/>
<path d="M81.7247 603.546C81.9136 603.546 82.0667 603.404 82.0667 603.23C82.0667 603.055 81.9136 602.914 81.7247 602.914C81.5359 602.914 81.3828 603.055 81.3828 603.23C81.3828 603.404 81.5359 603.546 81.7247 603.546Z" fill="white"/>
<path d="M168.071 451.413H206.438V412.47H168.071V451.413Z" fill="#C4C4C4"/>
<path d="M256.225 498.698H269.971V462.853H256.225V498.698Z" fill="#FF0000"/>
<path d="M267.128 486.592V481.155C267.128 480.586 266.649 480.144 266.033 480.144H260.152C259.536 480.144 259.058 480.586 259.058 481.155V486.592C259.058 487.161 259.536 487.603 260.152 487.603H266.033C266.649 487.603 267.128 487.161 267.128 486.592ZM266.239 486.782H259.947V481.029H266.239V486.782Z" fill="white"/>
<path d="M264.119 476.603C264.119 476.161 264.803 476.161 264.803 476.603V478.374L265.145 477.994C265.418 477.741 265.829 478.121 265.555 478.374L264.666 479.322C264.529 479.448 264.324 479.448 264.187 479.322L263.298 478.374C263.025 478.057 263.503 477.741 263.708 477.994L264.05 478.437L264.119 476.603Z" fill="white"/>
<path d="M261.452 479.134C261.452 479.577 262.136 479.577 262.136 479.134V477.364L262.478 477.743C262.751 477.996 263.162 477.617 262.888 477.364L261.999 476.416C261.862 476.289 261.657 476.289 261.52 476.416L260.631 477.364C260.358 477.68 260.836 477.996 261.042 477.743L261.383 477.301L261.452 479.134Z" fill="white"/>
<path d="M264.939 482.736H263.777C263.64 482.736 263.503 482.862 263.503 482.989V484.316C263.503 484.443 263.571 484.506 263.708 484.506C263.708 484.506 263.776 484.506 263.845 484.506V486.213C263.845 486.529 264.324 486.529 264.324 486.213V484.506H264.392V486.213C264.392 486.529 264.871 486.529 264.871 486.213V484.506C264.939 484.506 265.008 484.506 265.008 484.506C265.144 484.506 265.213 484.443 265.213 484.316V482.989C265.213 482.799 265.076 482.736 264.939 482.736Z" fill="white"/>
<path d="M264.392 482.546C264.581 482.546 264.734 482.404 264.734 482.23C264.734 482.055 264.581 481.914 264.392 481.914C264.203 481.914 264.05 482.055 264.05 482.23C264.05 482.404 264.203 482.546 264.392 482.546Z" fill="white"/>
<path d="M262.477 482.736H261.315C261.178 482.736 261.041 482.862 261.041 482.989V484.316C261.041 484.443 261.109 484.506 261.246 484.506C261.246 484.506 261.315 484.506 261.383 484.506V486.213C261.383 486.529 261.862 486.529 261.862 486.213V484.506H261.93V486.213C261.93 486.529 262.409 486.529 262.409 486.213V484.506C262.477 484.506 262.546 484.506 262.546 484.506C262.682 484.506 262.751 484.443 262.751 484.316V482.989C262.751 482.799 262.614 482.736 262.477 482.736Z" fill="white"/>
<path d="M261.861 482.546C262.05 482.546 262.203 482.404 262.203 482.23C262.203 482.055 262.05 481.914 261.861 481.914C261.673 481.914 261.52 482.055 261.52 482.23C261.52 482.404 261.673 482.546 261.861 482.546Z" fill="white"/>
<path d="M232.654 519.19H269.994V506.041H232.654V519.19Z" fill="black"/>
<path d="M254.211 535.984H308.369V500.102H278.507V521.75H254.211V535.984Z" fill="#C4C4C4"/>
<path d="M278.527 499.077H308.369V438.589H278.527V499.077Z" fill="#DAC452"/>
<path d="M265.264 428.336H308.369V380.151H265.264V428.336Z" fill="#DAC452"/>
<path d="M213.315 428.336H259.736V380.151H213.315V428.336Z" fill="#DAC452"/>
<path d="M250.51 510.046C250.92 510.046 251.262 509.729 251.262 509.35C251.262 508.971 250.92 508.655 250.51 508.655C250.1 508.655 249.758 508.971 249.758 509.35C249.758 509.729 250.1 510.046 250.51 510.046Z" fill="white"/>
<path d="M255.502 509.413H253.793C253.451 509.413 252.972 509.54 252.698 509.792L251.125 511.246V510.804C251.125 509.919 249.689 509.919 249.689 510.804V512.511L248.321 513.775C248.185 513.902 248.185 513.902 247.911 513.902H247.09C246.27 513.902 245.723 514.597 245.723 515.166C245.723 515.735 246.201 516.494 247.159 516.494C247.159 516.494 248.321 516.494 248.663 516.494C249.005 516.494 249.416 516.367 249.758 516.051L254.135 512.068C254.203 512.005 254.271 511.942 254.408 511.942C254.408 511.942 255.024 511.942 255.502 511.942C256.049 511.942 256.733 511.373 256.733 510.614C256.802 509.919 256.118 509.413 255.502 509.413ZM255.434 511.373H254.545C254.135 511.373 253.998 511.436 253.793 511.626L249.416 515.672C249.211 515.861 249.005 515.925 248.732 515.925H247.296C246.954 515.925 246.612 515.608 246.612 515.229C246.612 514.85 246.954 514.66 247.227 514.66H248.185C248.458 514.66 248.663 514.597 248.8 514.407L253.245 510.298C253.451 510.108 253.587 510.108 253.929 510.108H255.434C255.776 510.108 256.049 510.488 256.049 510.741C256.049 510.994 255.913 511.373 255.434 511.373Z" fill="white"/>
<path d="M116.242 698.73H153.582V685.581H116.242V698.73Z" fill="black"/>
<path d="M134.112 689.572C134.522 689.572 134.864 689.256 134.864 688.877C134.864 688.498 134.522 688.182 134.112 688.182C133.701 688.182 133.359 688.498 133.359 688.877C133.359 689.256 133.701 689.572 134.112 689.572Z" fill="white"/>
<path d="M139.104 688.94H137.463C137.121 688.94 136.642 689.066 136.368 689.319L134.795 690.773V690.331C134.795 689.446 133.359 689.446 133.359 690.331V692.038L131.991 693.302C131.855 693.429 131.855 693.428 131.581 693.428H130.76C129.94 693.428 129.393 694.124 129.393 694.693C129.393 695.262 129.871 696.02 130.829 696.02C130.829 696.02 131.991 696.02 132.333 696.02C132.675 696.02 133.086 695.894 133.428 695.578L137.804 691.595C137.873 691.532 137.941 691.469 138.078 691.469C138.078 691.469 138.694 691.469 139.172 691.469C139.719 691.469 140.403 690.9 140.403 690.141C140.403 689.446 139.651 688.94 139.104 688.94ZM139.035 690.9H138.146C137.736 690.9 137.599 690.963 137.394 691.153L133.017 695.199C132.812 695.388 132.607 695.452 132.333 695.452H130.897C130.555 695.452 130.213 695.135 130.213 694.756C130.213 694.377 130.555 694.187 130.829 694.187H131.786C132.06 694.187 132.265 694.124 132.402 693.934L136.847 689.825C137.052 689.635 137.189 689.635 137.531 689.635H139.035C139.377 689.635 139.651 690.015 139.651 690.268C139.651 690.52 139.514 690.9 139.035 690.9Z" fill="white"/>
<path d="M189.592 558.408H226.933V545.258H189.592V558.408Z" fill="black"/>
<path d="M207.423 549.241C207.834 549.241 208.176 548.925 208.176 548.546C208.176 548.167 207.834 547.851 207.423 547.851C207.013 547.851 206.671 548.167 206.671 548.546C206.671 548.925 207.013 549.241 207.423 549.241Z" fill="white"/>
<path d="M212.485 548.609H210.775C210.433 548.609 209.954 548.735 209.681 548.988L208.108 550.442V550C208.108 549.115 206.672 549.115 206.672 550V551.707L205.304 552.971C205.167 553.097 205.167 553.097 204.894 553.097H204.073C203.252 553.097 202.705 553.793 202.705 554.362C202.705 554.931 203.184 555.689 204.141 555.689C204.141 555.689 205.304 555.689 205.646 555.689C205.988 555.689 206.398 555.563 206.74 555.247L211.117 551.264C211.185 551.201 211.254 551.138 211.39 551.138C211.39 551.138 212.006 551.138 212.485 551.138C213.032 551.138 213.716 550.569 213.716 549.81C213.716 549.115 213.032 548.609 212.485 548.609ZM212.348 550.569H211.459C211.049 550.569 210.912 550.632 210.707 550.822L206.33 554.868C206.125 555.057 205.919 555.12 205.646 555.12H204.21C203.868 555.12 203.526 554.804 203.526 554.425C203.526 554.046 203.868 553.856 204.141 553.856H205.099C205.372 553.856 205.577 553.793 205.714 553.603L210.159 549.494C210.365 549.304 210.501 549.304 210.843 549.304H212.348C212.69 549.304 212.963 549.684 212.963 549.936C212.963 550.189 212.827 550.569 212.348 550.569Z" fill="white"/>
<path d="M232.654 451.327H269.994V438.177H232.654V451.327Z" fill="black"/>
<path d="M250.51 442.213C250.92 442.213 251.262 441.897 251.262 441.517C251.262 441.138 250.92 440.822 250.51 440.822C250.1 440.822 249.758 441.138 249.758 441.517C249.758 441.897 250.1 442.213 250.51 442.213Z" fill="white"/>
<path d="M255.502 441.581H253.793C253.451 441.581 252.972 441.707 252.698 441.96L251.125 443.414V442.971C251.125 442.086 249.689 442.086 249.689 442.971V444.678L248.321 445.943C248.185 446.069 248.185 446.069 247.911 446.069H247.09C246.27 446.069 245.723 446.764 245.723 447.333C245.723 447.902 246.201 448.661 247.159 448.661C247.159 448.661 248.321 448.661 248.663 448.661C249.005 448.661 249.416 448.535 249.758 448.218L254.135 444.236C254.203 444.173 254.271 444.109 254.408 444.109C254.408 444.109 255.024 444.109 255.502 444.109C256.049 444.109 256.733 443.54 256.733 442.782C256.802 442.086 256.118 441.581 255.502 441.581ZM255.434 443.477H254.545C254.135 443.477 253.998 443.54 253.793 443.73L249.416 447.776C249.211 447.966 249.005 448.029 248.732 448.029H247.296C246.954 448.029 246.612 447.713 246.612 447.333C246.612 446.954 246.954 446.764 247.227 446.764H248.185C248.458 446.764 248.663 446.701 248.8 446.512L253.245 442.402C253.451 442.213 253.587 442.213 253.929 442.213H255.434C255.776 442.213 256.049 442.592 256.049 442.845C256.049 443.098 255.913 443.477 255.434 443.477Z" fill="white"/>
<path d="M101.739 547.007H149.543V529.622H101.739V547.007Z" fill="#C8A67C"/>
<path d="M102 594H150V578H102V594Z" fill="#C8A67C"/>
<path d="M120.163 574.94H149.57V564.257H120.163V574.94Z" fill="#C8A67C"/>
<path d="M101.832 592.736H149.568V594.822L130.008 613.092H101.832V592.736Z" fill="#C8A67C"/>
<path d="M101.832 521.741L129.188 503.282L149.568 511.5V527.115H101.832V521.741Z" fill="#C8A67C"/>
<path d="M117.288 574.971V561.696H149.568V549.558H101.832V574.971H117.288Z" fill="#C8A67C"/>
<path d="M171.411 384H176.326V382.732H172.949V380.996H176.059V379.728H172.949V377.995H176.312V376.727H171.411V384ZM178.788 384L179.327 382.342H181.952L182.491 384H184.139L181.632 376.727H179.65L177.14 384H178.788ZM179.718 381.141L180.613 378.389H180.67L181.565 381.141H179.718ZM188.794 378.819H190.267C190.246 377.523 189.181 376.628 187.562 376.628C185.967 376.628 184.799 377.509 184.806 378.83C184.802 379.902 185.559 380.516 186.787 380.811L187.579 381.01C188.371 381.202 188.812 381.429 188.815 381.919C188.812 382.452 188.307 382.814 187.526 382.814C186.727 382.814 186.152 382.445 186.102 381.717H184.614C184.653 383.29 185.779 384.103 187.544 384.103C189.319 384.103 190.363 383.254 190.367 381.923C190.363 380.712 189.451 380.069 188.187 379.785L187.533 379.629C186.901 379.483 186.372 379.249 186.383 378.727C186.383 378.258 186.798 377.913 187.551 377.913C188.286 377.913 188.737 378.247 188.794 378.819ZM191.124 377.995H193.351V384H194.871V377.995H197.097V376.727H191.124V377.995ZM160.851 389.995H163.077V396H164.597V389.995H166.824V388.727H160.851V389.995ZM174.168 392.364C174.168 389.984 172.691 388.628 170.763 388.628C168.824 388.628 167.357 389.984 167.357 392.364C167.357 394.732 168.824 396.099 170.763 396.099C172.691 396.099 174.168 394.743 174.168 392.364ZM172.609 392.364C172.609 393.905 171.878 394.739 170.763 394.739C169.644 394.739 168.916 393.905 168.916 392.364C168.916 390.822 169.644 389.988 170.763 389.988C171.878 389.988 172.609 390.822 172.609 392.364ZM176.671 396H178.17L179.551 391.245H179.608L180.993 396H182.491L184.572 388.727H182.893L181.689 393.791H181.625L180.3 388.727H178.862L177.534 393.781H177.474L176.27 388.727H174.59L176.671 396ZM185.395 396H190.31V394.732H186.933V392.996H190.044V391.728H186.933V389.995H190.296V388.727H185.395V396ZM191.518 396H193.056V393.422H194.178L195.556 396H197.253L195.709 393.173C196.536 392.818 196.994 392.097 196.994 391.103C196.994 389.658 196.039 388.727 194.388 388.727H191.518V396ZM193.056 392.186V389.984H194.093C194.981 389.984 195.41 390.379 195.41 391.103C195.41 391.824 194.981 392.186 194.1 392.186H193.056Z" fill="black"/>
<path d="M195.359 688.945H196.858L198.239 684.19H198.296L199.681 688.945H201.179L203.26 681.672H201.581L200.377 686.736H200.313L198.988 681.672H197.55L196.222 686.725H196.162L194.958 681.672H193.278L195.359 688.945ZM204.083 688.945H208.998V687.677H205.621V685.941H208.732V684.673H205.621V682.94H208.984V681.672H204.083V688.945ZM214.152 683.764H215.625C215.604 682.468 214.539 681.573 212.919 681.573C211.325 681.573 210.157 682.453 210.164 683.774C210.16 684.847 210.917 685.461 212.145 685.756L212.937 685.955C213.729 686.147 214.169 686.374 214.173 686.864C214.169 687.397 213.665 687.759 212.884 687.759C212.085 687.759 211.51 687.389 211.46 686.661H209.972C210.011 688.235 211.137 689.048 212.902 689.048C214.677 689.048 215.721 688.199 215.725 686.867C215.721 685.656 214.809 685.014 213.544 684.73L212.891 684.573C212.259 684.428 211.73 684.193 211.74 683.671C211.74 683.203 212.156 682.858 212.909 682.858C213.644 682.858 214.095 683.192 214.152 683.764ZM216.482 682.94H218.709V688.945H220.229V682.94H222.455V681.672H216.482V682.94ZM193.445 694.94H195.672V700.945H197.191V694.94H199.418V693.672H193.445V694.94ZM206.763 697.308C206.763 694.929 205.285 693.573 203.357 693.573C201.418 693.573 199.952 694.929 199.952 697.308C199.952 699.677 201.418 701.044 203.357 701.044C205.285 701.044 206.763 699.688 206.763 697.308ZM205.204 697.308C205.204 698.85 204.472 699.684 203.357 699.684C202.238 699.684 201.51 698.85 201.51 697.308C201.51 695.767 202.238 694.933 203.357 694.933C204.472 694.933 205.204 695.767 205.204 697.308ZM209.265 700.945H210.764L212.145 696.19H212.202L213.587 700.945H215.086L217.167 693.672H215.487L214.283 698.736H214.219L212.895 693.672H211.456L210.128 698.725H210.068L208.864 693.672H207.184L209.265 700.945ZM217.99 700.945H222.904V699.677H219.527V697.941H222.638V696.673H219.527V694.94H222.89V693.672H217.99V700.945ZM224.113 700.945H225.65V698.367H226.772L228.15 700.945H229.848L228.303 698.118C229.13 697.763 229.588 697.042 229.588 696.048C229.588 694.602 228.633 693.672 226.982 693.672H224.113V700.945ZM225.65 697.131V694.929H226.687C227.575 694.929 228.005 695.323 228.005 696.048C228.005 696.769 227.575 697.131 226.694 697.131H225.65Z" fill="black"/>
<path d="M16.5156 385H10.1563L2.23438 390.016V396.016L9.5625 391.422H9.75V417H16.5156V385ZM24.3086 417H31.0742V403.781H44.0898V398.203H31.0742V390.578H45.4961V385H24.3086V417Z" fill="black"/>
<path d="M278.52 406.703C279.633 406.703 280.123 405.905 280.123 404.932V401.425H279.087V404.848C279.087 405.562 278.849 405.807 278.394 405.807C278.1 405.807 277.827 405.646 277.624 405.268L276.91 405.793C277.26 406.395 277.764 406.703 278.52 406.703ZM282.919 406.703C284.116 406.703 284.823 405.982 284.823 405.135C284.823 404.386 284.41 403.987 283.78 403.728L283.101 403.441C282.66 403.266 282.289 403.133 282.289 402.762C282.289 402.419 282.583 402.216 283.038 402.216C283.465 402.216 283.808 402.37 284.137 402.643L284.662 401.992C284.242 401.565 283.64 401.327 283.038 401.327C281.988 401.327 281.246 401.978 281.246 402.825C281.246 403.581 281.771 404.001 282.296 404.218L282.989 404.512C283.451 404.708 283.766 404.827 283.766 405.212C283.766 405.576 283.479 405.807 282.94 405.807C282.485 405.807 281.995 405.576 281.624 405.233L281.029 405.947C281.533 406.43 282.226 406.703 282.919 406.703ZM285.698 401.418V402.167H287.805C287.637 403.595 286.839 404.617 285.341 405.387L285.859 406.094C288.001 405.009 288.736 403.35 288.736 401.418H285.698ZM291.354 403.217H290.451V400.753H289.527V407.193H290.451V403.98H291.354V403.217ZM297.037 402.685H293.474V401.726H296.988V400.991H292.557V403.42H297.037V402.685ZM293.46 405.163H292.536V407.095H297.086V406.36H293.46V405.163ZM291.85 403.945V404.68H297.681V403.945H291.85Z" fill="black"/>
<path d="M289.056 468.237H286.782V467.667H289.056V468.237ZM289.836 466.419H289.056V467.049H286.782V466.419H285.996V468.867H289.836V466.419ZM290.43 469.389H285.426V470.019H287.514V471.741H288.306V470.019H290.43V469.389ZM294.57 467.439H291.528V469.113H295.506V468.489H292.338V468.033H295.374V466.383H291.522V467.007H294.57V467.439ZM295.95 469.515H290.946V470.151H293.04V471.747H293.832V470.151H295.95V469.515ZM297.017 470.505H300.083V471.753H300.875V469.881H297.017V470.505ZM299.357 468.879V468.399H300.917V467.775H297.863V467.055H300.869V466.431H297.077V468.399H298.565V468.879H296.471V469.509H301.463V468.879H299.357Z" fill="black"/>
<path d="M228.715 405.051C228.365 405.051 228.113 404.771 228.113 404.288C228.113 403.805 228.365 403.518 228.715 403.518C229.065 403.518 229.317 403.805 229.317 404.288C229.317 404.771 229.065 405.051 228.715 405.051ZM228.715 402.748C227.889 402.748 227.301 403.385 227.301 404.288C227.301 405.184 227.889 405.821 228.715 405.821C229.541 405.821 230.129 405.184 230.129 404.288C230.129 403.385 229.541 402.748 228.715 402.748ZM229.17 400.935H228.26V401.733H227.161V402.468H230.241V401.733H229.17V400.935ZM231.823 400.753V403.385H231.333V400.879H230.472V406.934H231.333V404.127H231.823V407.2H232.698V400.753H231.823ZM236.513 401.712C237.353 401.712 237.892 401.964 237.892 402.426C237.892 402.895 237.353 403.147 236.513 403.147C235.666 403.147 235.127 402.895 235.127 402.426C235.127 401.964 235.666 401.712 236.513 401.712ZM236.513 403.882C237.885 403.882 238.844 403.315 238.844 402.426C238.844 401.551 237.885 400.977 236.513 400.977C235.134 400.977 234.182 401.551 234.182 402.426C234.182 403.315 235.134 403.882 236.513 403.882ZM239.446 404.365H233.608V405.107H236.044V407.214H236.968V405.107H239.446V404.365ZM241.335 403.798H243.428V401.306H240.383V402.041H242.483V403.07H240.39V405.723H240.971C242.14 405.723 243.085 405.681 244.135 405.499L244.037 404.75C243.127 404.904 242.315 404.953 241.335 404.96V403.798ZM244.485 400.753V407.221H245.409V400.753H244.485Z" fill="black"/>
<path d="M120.602 519.049C119.354 518.833 118.67 517.975 118.67 517.165V516.769H117.824V517.165C117.824 517.957 117.134 518.833 115.892 519.049L116.228 519.709C117.188 519.523 117.89 518.983 118.244 518.281C118.598 518.983 119.306 519.517 120.266 519.709L120.602 519.049ZM115.772 520.657V521.299H120.776V520.657H115.772ZM125.881 516.445H125.083V519.319H125.881V516.445ZM124.633 518.449C123.931 518.545 123.319 518.563 122.377 518.563V518.209H124.087V517.621H122.377V517.279H124.249V516.667H121.591V519.181H122.065C123.217 519.181 123.907 519.175 124.699 519.067L124.633 518.449ZM122.989 521.335V520.993H125.881V519.535H122.197V520.129H125.095V520.441H122.203V521.929H126.019V521.335H122.989ZM130.387 518.101H128.233V517.669H130.387V518.101ZM131.173 516.589H130.387V517.075H128.233V516.589H127.447V518.719H131.173V516.589ZM131.809 519.703V519.073H126.811V519.703H128.905V520.171H127.363V520.795H130.411V521.977H131.203V520.171H129.697V519.703H131.809ZM137.16 519.049C135.912 518.833 135.228 517.975 135.228 517.165V516.769H134.382V517.165C134.382 517.957 133.692 518.833 132.45 519.049L132.786 519.709C133.746 519.523 134.448 518.983 134.802 518.281C135.156 518.983 135.864 519.517 136.824 519.709L137.16 519.049ZM132.33 520.657V521.299H137.334V520.657H132.33Z" fill="black"/>
<path d="M115.884 537.73C115.884 537.166 116.406 536.836 117.162 536.836C117.924 536.836 118.446 537.166 118.446 537.73C118.446 538.294 117.924 538.624 117.162 538.624C116.406 538.624 115.884 538.294 115.884 537.73ZM117.558 540.166V539.23C118.536 539.116 119.226 538.552 119.226 537.73C119.226 536.806 118.344 536.206 117.162 536.206C115.986 536.206 115.104 536.806 115.104 537.73C115.104 538.552 115.794 539.11 116.766 539.23V540.166H114.666V540.808H119.67V540.166H117.558ZM123.845 537.52H120.761V539.386H124.751V538.756H121.547V538.138H124.625V536.296H120.755V536.926H123.845V537.52ZM120.185 540.178V540.826H125.189V540.178H120.185ZM126.923 537.73C126.923 537.166 127.445 536.836 128.201 536.836C128.963 536.836 129.485 537.166 129.485 537.73C129.485 538.294 128.963 538.624 128.201 538.624C127.445 538.624 126.923 538.294 126.923 537.73ZM128.597 540.166V539.23C129.575 539.116 130.265 538.552 130.265 537.73C130.265 536.806 129.383 536.206 128.201 536.206C127.025 536.206 126.143 536.806 126.143 537.73C126.143 538.552 126.833 539.11 127.805 539.23V540.166H125.705V540.808H130.709V540.166H128.597ZM134.884 537.52H131.8V539.386H135.79V538.756H132.586V538.138H135.664V536.296H131.794V536.926H134.884V537.52ZM131.224 540.178V540.826H136.228V540.178H131.224Z" fill="black"/>
<path d="M122.232 554.181H121.32V553.491H120.54V554.181H119.628V554.817H122.232V554.181ZM120.918 557.037C120.636 557.037 120.426 556.797 120.426 556.377C120.426 555.963 120.636 555.723 120.918 555.723C121.206 555.723 121.41 555.963 121.41 556.377C121.41 556.797 121.206 557.037 120.918 557.037ZM120.918 555.063C120.234 555.063 119.742 555.609 119.742 556.377C119.742 557.151 120.234 557.691 120.918 557.691C121.602 557.691 122.094 557.151 122.094 556.377C122.094 555.609 121.602 555.063 120.918 555.063ZM122.556 555.387H122.1V556.041H122.556V558.633H123.288V553.449H122.556V555.387ZM123.624 553.353V558.879H124.374V553.353H123.624ZM126.635 556.965C126.221 556.965 125.945 556.527 125.945 555.705C125.945 554.889 126.221 554.451 126.635 554.451C127.043 554.451 127.325 554.889 127.325 555.705C127.325 556.527 127.043 556.965 126.635 556.965ZM126.635 553.737C125.795 553.737 125.183 554.493 125.183 555.705C125.183 556.923 125.795 557.685 126.635 557.685C127.469 557.685 128.087 556.923 128.087 555.705C128.087 554.493 127.469 553.737 126.635 553.737ZM130.283 555.435H129.479V553.353H128.687V558.879H129.479V556.089H130.283V555.435Z" fill="black"/>
<path d="M117.315 595.582H116.265V594.802H117.315V595.582ZM118.089 595.096H119.073V597.07H119.865V592.996H119.073V594.46H118.089V593.362H117.315V594.196H116.265V593.356H115.479V596.212H118.089V595.096ZM117.009 597.79V596.674H116.217V598.42H119.985V597.79H117.009ZM120.975 593.674V594.304H122.373C122.271 595.39 121.803 596.188 120.693 596.836L121.155 597.388C122.697 596.488 123.153 595.222 123.153 593.674H120.975ZM124.743 592.99V595.072H124.251V593.134H123.513V598.282H124.251V595.708H124.743V598.516H125.499V592.99H124.743ZM129.578 595.498C128.708 595.24 128.33 594.622 128.318 593.992H129.398V593.356H126.41V593.992H127.508C127.496 594.682 127.1 595.384 126.206 595.684L126.602 596.302C127.25 596.092 127.688 595.654 127.934 595.108C128.174 595.564 128.594 595.93 129.2 596.11L129.578 595.498ZM128.828 597.91C128.12 597.91 127.742 597.76 127.742 597.448C127.742 597.13 128.12 596.98 128.828 596.98C129.53 596.98 129.908 597.13 129.908 597.448C129.908 597.76 129.53 597.91 128.828 597.91ZM128.828 596.368C127.676 596.368 126.956 596.77 126.956 597.448C126.956 598.12 127.676 598.516 128.828 598.516C129.974 598.516 130.694 598.12 130.694 597.448C130.694 596.77 129.974 596.368 128.828 596.368ZM130.634 594.262V592.99H129.842V596.272H130.634V594.91H131.366V594.262H130.634ZM132.842 595.606H134.426V594.988H132.842V594.088H134.612V593.452H132.056V597.274H132.506C133.436 597.274 134.144 597.256 134.942 597.13L134.87 596.494C134.192 596.602 133.586 596.632 132.842 596.638V595.606ZM135.65 592.984V594.934H134.702V595.57H135.65V598.528H136.442V592.984H135.65Z" fill="black"/>
<path d="M163.667 630.806C163.253 630.806 162.977 630.368 162.977 629.546C162.977 628.73 163.253 628.292 163.667 628.292C164.075 628.292 164.357 628.73 164.357 629.546C164.357 630.368 164.075 630.806 163.667 630.806ZM163.667 627.578C162.827 627.578 162.215 628.334 162.215 629.546C162.215 630.764 162.827 631.526 163.667 631.526C164.501 631.526 165.119 630.764 165.119 629.546C165.119 628.334 164.501 627.578 163.667 627.578ZM167.315 629.276H166.511V627.194H165.719V632.72H166.511V629.93H167.315V629.276ZM169.733 629.522H168.647V628.838H169.733V629.522ZM170.513 627.548H169.733V628.232H168.647V627.548H167.867V630.14H170.513V627.548ZM170.243 632.114C169.541 632.114 169.163 631.964 169.163 631.652C169.163 631.34 169.541 631.19 170.243 631.19C170.951 631.19 171.329 631.34 171.329 631.652C171.329 631.964 170.951 632.114 170.243 632.114ZM170.243 630.572C169.097 630.572 168.377 630.974 168.377 631.652C168.377 632.324 169.097 632.732 170.243 632.732C171.395 632.732 172.115 632.324 172.115 631.652C172.115 630.974 171.395 630.572 170.243 630.572ZM172.055 628.484V627.2H171.263V630.452H172.055V629.132H172.787V628.484H172.055ZM158.286 637.782H157.566V636.588H158.286V637.782ZM159.534 636.216H159.018V634.698H158.286V635.964H157.566V634.692H156.822V638.412H159.018V636.852H159.534V639.48H160.272V634.29H159.534V636.216ZM160.656 634.188V639.714H161.406V634.188H160.656ZM165.971 634.188V639.732H166.763V634.188H165.971ZM163.793 634.578C162.959 634.578 162.341 635.334 162.341 636.546C162.341 637.764 162.959 638.526 163.793 638.526C164.627 638.526 165.245 637.764 165.245 636.546C165.245 635.334 164.627 634.578 163.793 634.578ZM163.793 635.292C164.201 635.292 164.483 635.73 164.483 636.546C164.483 637.368 164.201 637.806 163.793 637.806C163.385 637.806 163.103 637.368 163.103 636.546C163.103 635.73 163.385 635.292 163.793 635.292ZM167.981 634.722V635.352H169.727C169.703 635.616 169.661 635.856 169.607 636.09L167.687 636.198L167.789 636.864L169.367 636.72C169.049 637.326 168.515 637.836 167.657 638.286L168.089 638.886C170.069 637.848 170.513 636.42 170.513 634.722H167.981ZM171.533 634.194V636.312H170.501V636.954H171.533V639.72H172.325V634.194H171.533ZM174.328 636.798H176.122V634.662H173.512V635.292H175.312V636.174H173.518V638.448H174.016C175.018 638.448 175.828 638.412 176.728 638.256L176.644 637.614C175.864 637.746 175.168 637.788 174.328 637.794V636.798ZM177.028 634.188V639.732H177.82V634.188H177.028Z" fill="black"/>
<path d="M126.92 570.149C126.324 569.957 126.076 569.493 126.076 569.025V568.625H125.54V569.021C125.54 569.525 125.28 570.017 124.66 570.217L124.94 570.629C125.36 570.489 125.652 570.201 125.816 569.833C125.976 570.165 126.248 570.429 126.648 570.561L126.92 570.149ZM125.772 570.841H125.244V572.021H127.744V571.601H125.772V570.841ZM127.616 569.469V568.401H127.088V571.097H127.616V569.905H128.104V569.469H127.616ZM129.067 570.145H130.219V569.733H129.067V569.133H130.271V568.705H128.539V571.253H128.851C129.483 571.253 129.979 571.237 130.539 571.153L130.491 570.733C130.011 570.805 129.587 570.825 129.067 570.829V570.145ZM131.815 569.797H131.279V568.401H130.751V572.089H131.279V570.233H131.815V569.797ZM132.707 569.165H133.427V570.773H132.707V569.165ZM132.187 571.189H133.947V568.749H132.187V571.189ZM135.495 569.789H134.959V568.405H134.431V572.085H134.959V570.225H135.495V569.789ZM136.491 570.137H137.687V568.713H135.947V569.133H137.147V569.721H135.951V571.237H136.283C136.951 571.237 137.491 571.213 138.091 571.109L138.035 570.681C137.515 570.769 137.051 570.797 136.491 570.801V570.137ZM138.291 568.397V572.093H138.819V568.397H138.291ZM140.423 570.809C140.147 570.809 139.963 570.517 139.963 569.969C139.963 569.425 140.147 569.133 140.423 569.133C140.695 569.133 140.883 569.425 140.883 569.969C140.883 570.517 140.695 570.809 140.423 570.809ZM140.423 568.657C139.863 568.657 139.455 569.161 139.455 569.969C139.455 570.781 139.863 571.289 140.423 571.289C140.979 571.289 141.391 570.781 141.391 569.969C141.391 569.161 140.979 568.657 140.423 568.657ZM142.855 569.789H142.319V568.401H141.791V572.085H142.319V570.225H142.855V569.789ZM145.046 571.245V570.405H146.098V569.985H144.018V568.681H143.49V570.405H144.518V571.245H143.114V571.673H146.45V571.245H145.046ZM149.934 568.405H149.434V570.301H149.934V568.405ZM147.894 569.781H147.418V569.393H147.894V569.781ZM148.382 569.589H148.686V570.281H149.178V568.465H148.686V569.173H148.382V568.601H147.894V569.005H147.418V568.605H146.922V570.185H148.382V569.589ZM147.966 571.657V571.433H149.934V570.449H147.43V570.853H149.406V571.053H147.438V572.057H150.05V571.657H147.966ZM151.146 570.137H152.314V568.713H150.622V569.133H151.794V569.721H150.626V571.241H150.938C151.578 571.241 152.086 571.217 152.638 571.117L152.59 570.689C152.11 570.773 151.674 570.801 151.146 570.805V570.137ZM153.894 569.789H153.366V568.397H152.838V572.093H153.366V570.225H153.894V569.789Z" fill="black"/>
<path fill-rule="evenodd" clip-rule="evenodd" d="M222.789 448.196C226.317 447.587 229 444.521 229 440.829C229 436.7 225.642 433.353 221.5 433.353C217.358 433.353 214 436.7 214 440.829C214 444.521 216.683 447.587 220.211 448.196L221.5 453.353L222.789 448.196Z" fill="black"/>
<path fill-rule="evenodd" clip-rule="evenodd" d="M222.789 446.196C226.317 445.587 229 442.521 229 438.829C229 434.7 225.642 431.353 221.5 431.353C217.358 431.353 214 434.7 214 438.829C214 442.521 216.683 445.587 220.211 446.196L221.5 451.353L222.789 446.196Z" fill="#FF0000"/>
<ellipse cx="221.5" cy="438.829" rx="2.5" ry="2.49231" fill="white"/>
<path d="M6.78125 732.399H2.46777V735.927H7.47852V737H1.15527V727.047H7.41016V728.127H2.46777V731.326H6.78125V732.399ZM14.6084 734.402H10.4385L9.50195 737H8.14844L11.9492 727.047H13.0977L16.9053 737H15.5586L14.6084 734.402ZM10.835 733.322H14.2188L12.5234 728.667L10.835 733.322ZM21.1777 732.563C20.0521 732.24 19.2318 731.843 18.7168 731.374C18.2064 730.9 17.9512 730.317 17.9512 729.624C17.9512 728.84 18.2633 728.193 18.8877 727.683C19.5166 727.168 20.3324 726.91 21.335 726.91C22.0186 726.91 22.627 727.042 23.1602 727.307C23.6979 727.571 24.1126 727.936 24.4043 728.4C24.7005 728.865 24.8486 729.373 24.8486 729.925H23.5293C23.5293 729.323 23.3379 728.852 22.9551 728.51C22.5723 728.163 22.0322 727.99 21.335 727.99C20.6878 727.99 20.182 728.134 19.8174 728.421C19.4574 728.703 19.2773 729.098 19.2773 729.604C19.2773 730.009 19.4482 730.353 19.79 730.636C20.1364 730.914 20.722 731.169 21.5469 731.401C22.3763 731.634 23.0234 731.891 23.4883 732.174C23.9577 732.452 24.304 732.778 24.5273 733.151C24.7552 733.525 24.8691 733.965 24.8691 734.471C24.8691 735.277 24.5547 735.924 23.9258 736.412C23.2969 736.895 22.4561 737.137 21.4033 737.137C20.7197 737.137 20.0817 737.007 19.4893 736.747C18.8968 736.483 18.4388 736.123 18.1152 735.667C17.7962 735.211 17.6367 734.694 17.6367 734.115H18.9561C18.9561 734.717 19.1771 735.193 19.6191 735.544C20.0658 735.89 20.6605 736.063 21.4033 736.063C22.096 736.063 22.627 735.922 22.9961 735.64C23.3652 735.357 23.5498 734.972 23.5498 734.484C23.5498 733.997 23.3789 733.621 23.0371 733.356C22.6953 733.088 22.0755 732.823 21.1777 732.563ZM33.4346 728.127H30.2354V737H28.9297V728.127H25.7373V727.047H33.4346V728.127ZM48.2951 725.492H47.1891V732.016H48.2951V725.492ZM38.8451 728.81C38.8451 727.746 39.6151 726.976 40.6791 726.976C41.7291 726.976 42.4991 727.746 42.4991 728.81C42.4991 729.916 41.7291 730.686 40.6791 730.686C39.6151 730.686 38.8451 729.916 38.8451 728.81ZM44.8231 729.272V731.932H45.9011V725.744H44.8231V728.348H43.4931C43.2971 726.976 42.1771 726.066 40.6791 726.066C39.0131 726.066 37.8231 727.186 37.8231 728.81C37.8231 730.462 39.0131 731.596 40.6791 731.596C42.1771 731.596 43.3111 730.672 43.5071 729.272H44.8231ZM41.1691 736.944V735.6H48.2951V732.604H40.0071V733.514H47.1471V734.732H40.0351V737.868H48.7711V736.944H41.1691ZM52.452 731.12H57.086V726.64H51.262V727.578H55.924V730.196H51.304V735.012H52.34C54.496 735.012 56.4 734.928 58.668 734.55L58.556 733.612C56.358 733.962 54.51 734.06 52.452 734.06V731.12ZM59.732 725.464V738.05H60.88V725.464H59.732ZM67.6409 733.948H64.9949V730.7H67.6409V733.948ZM70.5389 730.252H68.7189V726.724H67.6409V729.776H64.9949V726.724H63.9029V734.886H68.7189V731.19H70.5389V737.42H71.6309V725.758H70.5389V730.252ZM73.0309 725.478V738.036H74.1229V725.478H73.0309ZM85.4618 725.478V738.064H86.6098V725.478H85.4618ZM79.9878 726.444C78.1258 726.444 76.7958 728.152 76.7958 730.826C76.7958 733.5 78.1258 735.208 79.9878 735.208C81.8498 735.208 83.1798 733.5 83.1798 730.826C83.1798 728.152 81.8498 726.444 79.9878 726.444ZM79.9878 727.48C81.2058 727.48 82.0738 728.796 82.0738 730.826C82.0738 732.87 81.2058 734.186 79.9878 734.186C78.7558 734.186 77.8878 732.87 77.8878 730.826C77.8878 728.796 78.7558 727.48 79.9878 727.48ZM90.9347 731.078H95.0507V730.154H90.9347V727.564H95.5967V726.612H89.7867V735.026H90.7527C93.1467 735.026 94.6727 734.956 96.4927 734.634L96.3667 733.696C94.6587 734.004 93.2027 734.088 90.9347 734.088V731.078ZM98.4107 725.464V730.21H95.8207V731.162H98.4107V738.05H99.5587V725.464H98.4107ZM110.884 727.676H103.548V730.364H112.242V729.538H104.682V728.46H112.018V725.842H103.52V726.654H110.884V727.676ZM104.612 735.88H112.06V733.206H103.45V734.032H110.926V735.082H103.478V737.868H112.452V737.042H104.612V735.88ZM102.092 731.316V732.184H113.474V731.316H102.092ZM127.571 725.478V738.064H128.719V725.478H127.571ZM122.097 726.444C120.235 726.444 118.905 728.152 118.905 730.826C118.905 733.5 120.235 735.208 122.097 735.208C123.959 735.208 125.289 733.5 125.289 730.826C125.289 728.152 123.959 726.444 122.097 726.444ZM122.097 727.48C123.315 727.48 124.183 728.796 124.183 730.826C124.183 732.87 123.315 734.186 122.097 734.186C120.865 734.186 119.997 732.87 119.997 730.826C119.997 728.796 120.865 727.48 122.097 727.48ZM136.992 737.14C135.018 737.14 133.856 736.65 133.856 735.796C133.856 734.942 135.018 734.452 136.992 734.452C138.952 734.452 140.128 734.942 140.128 735.796C140.128 736.65 138.952 737.14 136.992 737.14ZM136.992 733.556C134.304 733.556 132.694 734.354 132.694 735.796C132.694 737.238 134.304 738.022 136.992 738.022C139.694 738.022 141.29 737.238 141.29 735.796C141.29 734.354 139.694 733.556 136.992 733.556ZM135.256 730.224C135.774 730.308 136.362 730.364 136.992 730.364C137.636 730.364 138.224 730.308 138.742 730.224V731.694H135.256V730.224ZM133.758 728.04C133.758 727.13 134.99 726.598 136.992 726.598C138.994 726.598 140.226 727.13 140.226 728.04C140.226 728.936 138.994 729.482 136.992 729.482C134.99 729.482 133.758 728.936 133.758 728.04ZM139.876 731.694V729.916C140.842 729.524 141.402 728.88 141.402 728.04C141.402 726.57 139.722 725.702 136.992 725.702C134.276 725.702 132.582 726.57 132.582 728.04C132.582 728.894 133.128 729.524 134.122 729.93V731.694H131.308V732.618H142.676V731.694H139.876ZM147.883 734.284C146.749 734.284 145.923 733.472 145.923 732.352C145.923 731.218 146.749 730.406 147.883 730.406C149.031 730.406 149.857 731.218 149.857 732.352C149.857 733.472 149.031 734.284 147.883 734.284ZM147.883 729.454C146.119 729.454 144.845 730.658 144.845 732.352C144.845 734.06 146.119 735.236 147.883 735.236C149.675 735.236 150.949 734.06 150.949 732.352C150.949 730.658 149.675 729.454 147.883 729.454ZM148.443 725.632H147.295V727.494H144.131V728.418H151.537V727.494H148.443V725.632ZM155.933 730.644H153.875V725.492H152.727V738.036H153.875V731.61H155.933V730.644ZM163.422 732.254C163.506 731.82 163.562 731.344 163.562 730.826C163.562 730.252 163.492 729.72 163.38 729.23H166.278V732.254H163.422ZM160.44 734.186C159.236 734.186 158.396 732.87 158.396 730.826C158.396 728.796 159.236 727.48 160.44 727.48C161.63 727.48 162.484 728.796 162.484 730.826C162.484 732.87 161.63 734.186 160.44 734.186ZM166.278 725.478V728.292H163.058C162.526 727.116 161.602 726.444 160.44 726.444C158.606 726.444 157.304 728.152 157.304 730.826C157.304 733.5 158.606 735.208 160.44 735.208C161.644 735.208 162.624 734.466 163.142 733.192H166.278V738.064H167.426V725.478H166.278ZM182.559 725.478V738.064H183.707V725.478H182.559ZM177.085 726.444C175.223 726.444 173.893 728.152 173.893 730.826C173.893 733.5 175.223 735.208 177.085 735.208C178.947 735.208 180.277 733.5 180.277 730.826C180.277 728.152 178.947 726.444 177.085 726.444ZM177.085 727.48C178.303 727.48 179.171 728.796 179.171 730.826C179.171 732.87 178.303 734.186 177.085 734.186C175.853 734.186 174.985 732.87 174.985 730.826C174.985 728.796 175.853 727.48 177.085 727.48ZM191.994 737.14C190.006 737.14 188.844 736.65 188.844 735.768C188.844 734.886 190.006 734.396 191.994 734.396C193.954 734.396 195.116 734.886 195.116 735.768C195.116 736.65 193.954 737.14 191.994 737.14ZM191.994 733.5C189.306 733.5 187.682 734.312 187.682 735.768C187.682 737.224 189.306 738.036 191.994 738.036C194.654 738.036 196.278 737.224 196.278 735.768C196.278 734.312 194.654 733.5 191.994 733.5ZM192.568 731.68V730.224H196.348V729.3H188.886V726.976H196.264V726.052H187.738V730.224H191.42V731.68H186.31V732.604H197.678V731.68H192.568ZM202.871 734.284C201.737 734.284 200.911 733.472 200.911 732.352C200.911 731.218 201.737 730.406 202.871 730.406C204.019 730.406 204.845 731.218 204.845 732.352C204.845 733.472 204.019 734.284 202.871 734.284ZM202.871 729.454C201.107 729.454 199.833 730.658 199.833 732.352C199.833 734.06 201.107 735.236 202.871 735.236C204.663 735.236 205.937 734.06 205.937 732.352C205.937 730.658 204.663 729.454 202.871 729.454ZM203.431 725.632H202.283V727.494H199.119V728.418H206.525V727.494H203.431V725.632ZM210.921 730.644H208.863V725.492H207.715V738.036H208.863V731.61H210.921V730.644ZM215.792 726.668H214.686V729.062C214.686 731.218 213.65 733.472 211.928 734.48L212.642 735.334C213.888 734.564 214.798 733.15 215.246 731.484C215.694 733.01 216.534 734.34 217.724 735.068L218.382 734.172C216.73 733.164 215.792 731.036 215.792 729.02V726.668ZM219.096 729.986H217.024V730.938H219.096V737.42H220.174V725.758H219.096V729.986ZM221.644 725.478V738.036H222.736V725.478H221.644ZM228.881 732.52C229.399 732.646 230.001 732.716 230.617 732.716C231.247 732.716 231.849 732.646 232.381 732.52V735.474H228.881V732.52ZM230.617 727.172C232.633 727.172 234.089 728.096 234.089 729.496C234.089 730.896 232.633 731.82 230.617 731.82C228.601 731.82 227.159 730.896 227.159 729.496C227.159 728.096 228.601 727.172 230.617 727.172ZM233.529 735.474V732.072C234.565 731.526 235.181 730.63 235.181 729.496C235.181 727.536 233.291 726.276 230.617 726.276C227.957 726.276 226.053 727.536 226.053 729.496C226.053 730.63 226.683 731.54 227.733 732.086V735.474H224.933V736.426H236.343V735.474H233.529ZM238.068 736.337C238.068 736.118 238.132 735.936 238.26 735.79C238.392 735.644 238.588 735.571 238.848 735.571C239.107 735.571 239.303 735.644 239.436 735.79C239.572 735.936 239.641 736.118 239.641 736.337C239.641 736.547 239.572 736.722 239.436 736.863C239.303 737.005 239.107 737.075 238.848 737.075C238.588 737.075 238.392 737.005 238.26 736.863C238.132 736.722 238.068 736.547 238.068 736.337Z" fill="black"/>
<rect x="11" y="312" width="5" height="53.1429" fill="url(#paint0_linear)"/>
<path d="M13.5 372L6.13879 359.25L20.8612 359.25L13.5 372Z" fill="#FF0000"/>
<defs>
<linearGradient id="paint0_linear" x1="13.5" y1="312" x2="13.5" y2="365.143" gradientUnits="userSpaceOnUse">
<stop stop-color="#FF0000" stop-opacity="0"/>
<stop offset="0.546875" stop-color="#FF0000"/>
</linearGradient>
</defs>
</svg>
