<svg width="315" height="756" viewBox="0 0 315 756" fill="none" xmlns="http://www.w3.org/2000/svg">
<path d="M206.616 33.3568H208.116V31.8568V1.5H313.5V328.5H1.5V61.5H161.319H162.819V60V33.3568H206.616Z" fill="#C4C4C4" stroke="black" stroke-width="3" stroke-miterlimit="10"/>
<path d="M251.266 85.3369H241.75V120.373H251.266V85.3369Z" fill="black"/>
<path d="M113.266 244.412H103.75V279.448H113.266V244.412Z" fill="black"/>
<path d="M276.806 85.3369H267.29V120.373H276.806V85.3369Z" fill="black"/>
<path d="M138.806 244.412H129.29V279.448H138.806V244.412Z" fill="black"/>
<path d="M265.448 85.3369H253.107V120.373H265.448V85.3369Z" fill="#FF0000"/>
<path d="M127.448 244.412H115.107V279.448H127.448V244.412Z" fill="black"/>
<path d="M240 85.4121H167V120.412H240V85.4121Z" fill="black"/>
<path d="M102 244.487H29V279.487H102V244.487Z" fill="black"/>
<path d="M262.87 106.285V100.971C262.87 100.414 262.44 99.9819 261.887 99.9819H256.607C256.055 99.9819 255.625 100.414 255.625 100.971V106.285C255.625 106.841 256.055 107.273 256.607 107.273H261.887C262.44 107.212 262.87 106.841 262.87 106.285ZM262.072 106.408H256.423V100.785H262.072V106.408Z" fill="white"/>
<path d="M260.168 96.5212C260.168 96.0886 260.782 96.0886 260.782 96.5212V98.2514L261.089 97.8806C261.335 97.6334 261.703 98.0042 261.457 98.2514L260.659 99.1783C260.536 99.3018 260.352 99.3018 260.229 99.1783L259.431 98.2514C259.186 97.9424 259.616 97.6334 259.8 97.8806L260.107 98.3132L260.168 96.5212Z" fill="white"/>
<path d="M257.774 98.9953C257.774 99.4279 258.388 99.4279 258.388 98.9953V97.2652L258.695 97.6359C258.94 97.8831 259.309 97.5123 259.063 97.2652L258.265 96.3383C258.142 96.2147 257.958 96.2147 257.835 96.3383L257.037 97.2652C256.791 97.5741 257.221 97.8831 257.405 97.6359L257.712 97.2034L257.774 98.9953Z" fill="white"/>
<path d="M260.905 102.453H259.861C259.738 102.453 259.615 102.577 259.615 102.7V103.998C259.615 104.122 259.677 104.183 259.799 104.183C259.799 104.183 259.861 104.183 259.922 104.183V105.852C259.922 106.161 260.352 106.161 260.352 105.852V104.183H260.413V105.852C260.413 106.161 260.843 106.161 260.843 105.852V104.183C260.905 104.183 260.966 104.183 260.966 104.183C261.089 104.183 261.15 104.122 261.15 103.998V102.7C261.15 102.577 261.027 102.453 260.905 102.453Z" fill="white"/>
<path d="M260.352 102.33C260.521 102.33 260.659 102.192 260.659 102.021C260.659 101.85 260.521 101.712 260.352 101.712C260.182 101.712 260.045 101.85 260.045 102.021C260.045 102.192 260.182 102.33 260.352 102.33Z" fill="white"/>
<path d="M258.695 102.453H257.651C257.528 102.453 257.405 102.577 257.405 102.7V103.998C257.405 104.122 257.467 104.183 257.589 104.183C257.589 104.183 257.651 104.183 257.712 104.183V105.852C257.712 106.161 258.142 106.161 258.142 105.852V104.183H258.203V105.852C258.203 106.161 258.633 106.161 258.633 105.852V104.183C258.695 104.183 258.756 104.183 258.756 104.183C258.879 104.183 258.94 104.122 258.94 103.998V102.7C258.94 102.577 258.817 102.453 258.695 102.453Z" fill="white"/>
<path d="M258.141 102.33C258.311 102.33 258.448 102.192 258.448 102.021C258.448 101.85 258.311 101.712 258.141 101.712C257.971 101.712 257.834 101.85 257.834 102.021C257.834 102.192 257.971 102.33 258.141 102.33Z" fill="white"/>
<path d="M124.87 265.36V260.046C124.87 259.49 124.44 259.057 123.887 259.057H118.607C118.055 259.057 117.625 259.49 117.625 260.046V265.36C117.625 265.916 118.055 266.349 118.607 266.349H123.887C124.44 266.287 124.87 265.916 124.87 265.36ZM124.072 265.484H118.423V259.86H124.072V265.484Z" fill="white"/>
<path d="M122.168 255.596C122.168 255.164 122.782 255.164 122.782 255.596V257.327L123.089 256.956C123.335 256.709 123.703 257.079 123.457 257.327L122.659 258.253C122.536 258.377 122.352 258.377 122.229 258.253L121.431 257.327C121.186 257.018 121.616 256.709 121.8 256.956L122.107 257.388L122.168 255.596Z" fill="white"/>
<path d="M119.774 258.071C119.774 258.503 120.388 258.503 120.388 258.071V256.34L120.695 256.711C120.94 256.958 121.309 256.588 121.063 256.34L120.265 255.413C120.142 255.29 119.958 255.29 119.835 255.413L119.037 256.34C118.791 256.649 119.221 256.958 119.405 256.711L119.712 256.279L119.774 258.071Z" fill="white"/>
<path d="M122.905 261.528H121.861C121.738 261.528 121.615 261.652 121.615 261.775V263.073C121.615 263.197 121.677 263.259 121.799 263.259C121.799 263.259 121.861 263.259 121.922 263.259V264.927C121.922 265.236 122.352 265.236 122.352 264.927V263.259H122.413V264.927C122.413 265.236 122.843 265.236 122.843 264.927V263.259C122.905 263.259 122.966 263.259 122.966 263.259C123.089 263.259 123.15 263.197 123.15 263.073V261.775C123.15 261.652 123.027 261.528 122.905 261.528Z" fill="white"/>
<path d="M122.352 261.405C122.521 261.405 122.659 261.267 122.659 261.096C122.659 260.925 122.521 260.787 122.352 260.787C122.182 260.787 122.045 260.925 122.045 261.096C122.045 261.267 122.182 261.405 122.352 261.405Z" fill="white"/>
<path d="M120.695 261.528H119.651C119.528 261.528 119.405 261.652 119.405 261.775V263.073C119.405 263.197 119.467 263.259 119.589 263.259C119.589 263.259 119.651 263.259 119.712 263.259V264.927C119.712 265.236 120.142 265.236 120.142 264.927V263.259H120.203V264.927C120.203 265.236 120.633 265.236 120.633 264.927V263.259C120.695 263.259 120.756 263.259 120.756 263.259C120.879 263.259 120.94 263.197 120.94 263.073V261.775C120.94 261.652 120.817 261.528 120.695 261.528Z" fill="white"/>
<path d="M120.141 261.405C120.311 261.405 120.448 261.267 120.448 261.096C120.448 260.925 120.311 260.787 120.141 260.787C119.971 260.787 119.834 260.925 119.834 261.096C119.834 261.267 119.971 261.405 120.141 261.405Z" fill="white"/>
<path d="M175.632 100.412H177.17V98.0542H178.462C180.135 98.0542 181.108 97.0563 181.108 95.6039C181.108 94.1586 180.153 93.1394 178.501 93.1394H175.632V100.412ZM177.17 96.8219V94.3965H178.207C179.094 94.3965 179.524 94.8794 179.524 95.6039C179.524 96.3248 179.094 96.8219 178.214 96.8219H177.17ZM183.487 100.515C184.293 100.515 184.815 100.164 185.082 99.6557H185.124V100.412H186.559V96.7331C186.559 95.4334 185.458 94.8865 184.244 94.8865C182.937 94.8865 182.077 95.5115 181.868 96.5059L183.267 96.6195C183.37 96.2573 183.693 95.9909 184.237 95.9909C184.751 95.9909 185.046 96.2502 185.046 96.6976V96.7189C185.046 97.0705 184.673 97.1167 183.725 97.209C182.646 97.3084 181.676 97.6706 181.676 98.8887C181.676 99.9682 182.447 100.515 183.487 100.515ZM183.92 99.4711C183.455 99.4711 183.121 99.2544 183.121 98.839C183.121 98.4128 183.473 98.2033 184.006 98.1287C184.336 98.0826 184.876 98.0044 185.057 97.8837V98.4625C185.057 99.0343 184.585 99.4711 183.92 99.4711ZM187.733 100.412H189.245V97.3262C189.245 96.655 189.735 96.1934 190.403 96.1934C190.613 96.1934 190.9 96.2289 191.042 96.275V94.9327C190.907 94.9007 190.719 94.8794 190.566 94.8794C189.956 94.8794 189.455 95.2346 189.256 95.9093H189.199V94.9576H187.733V100.412ZM191.824 100.412H193.337V98.6792L193.746 98.214L195.233 100.412H197.006L194.878 97.3191L196.903 94.9576H195.166L193.419 97.0279H193.337V93.1394H191.824V100.412ZM197.645 100.412H199.157V94.9576H197.645V100.412ZM198.405 94.2544C198.856 94.2544 199.225 93.91 199.225 93.4874C199.225 93.0684 198.856 92.7239 198.405 92.7239C197.957 92.7239 197.588 93.0684 197.588 93.4874C197.588 93.91 197.957 94.2544 198.405 94.2544ZM201.882 97.2587C201.886 96.5556 202.305 96.1436 202.915 96.1436C203.523 96.1436 203.888 96.5414 203.885 97.209V100.412H205.398V96.9391C205.398 95.6678 204.652 94.8865 203.516 94.8865C202.706 94.8865 202.12 95.2843 201.875 95.9199H201.811V94.9576H200.369V100.412H201.882V97.2587ZM209.047 102.571C210.606 102.571 211.714 101.861 211.714 100.465V94.9576H210.212V95.8738H210.155C209.953 95.4299 209.509 94.8865 208.596 94.8865C207.4 94.8865 206.388 95.8169 206.388 97.6742C206.388 99.4888 207.371 100.334 208.6 100.334C209.47 100.334 209.956 99.8972 210.155 99.4462H210.219V100.444C210.219 101.193 209.74 101.485 209.083 101.485C208.415 101.485 208.078 101.193 207.954 100.863L206.555 101.051C206.736 101.911 207.577 102.571 209.047 102.571ZM209.079 99.1976C208.337 99.1976 207.932 98.6081 207.932 97.6671C207.932 96.7402 208.33 96.0904 209.079 96.0904C209.814 96.0904 210.226 96.7118 210.226 97.6671C210.226 98.6294 209.807 99.1976 209.079 99.1976ZM175.632 112.412H180.547V111.144H177.17V109.408H180.281V108.14H177.17V106.407H180.533V105.139H175.632V112.412ZM183.009 112.412L183.548 110.754H186.173L186.713 112.412H188.36L185.853 105.139H183.872L181.361 112.412H183.009ZM183.939 109.553L184.834 106.801H184.891L185.786 109.553H183.939ZM193.015 107.231H194.489C194.467 105.935 193.402 105.04 191.783 105.04C190.188 105.04 189.02 105.921 189.027 107.242C189.023 108.314 189.78 108.928 191.009 109.223L191.8 109.422C192.592 109.614 193.033 109.841 193.036 110.331C193.033 110.864 192.528 111.226 191.747 111.226C190.948 111.226 190.373 110.857 190.323 110.129H188.835C188.874 111.702 190 112.515 191.765 112.515C193.54 112.515 194.585 111.666 194.588 110.335C194.585 109.124 193.672 108.481 192.408 108.197L191.754 108.041C191.122 107.895 190.593 107.661 190.604 107.139C190.604 106.67 191.019 106.325 191.772 106.325C192.507 106.325 192.958 106.659 193.015 107.231ZM195.345 106.407H197.572V112.412H199.092V106.407H201.318V105.139H195.345V106.407ZM204.616 112.412H206.154V109.408H209.276V112.412H210.81V105.139H209.276V108.14H206.154V105.139H204.616V112.412ZM213.331 112.412L213.871 110.754H216.495L217.035 112.412H218.683L216.175 105.139H214.194L211.683 112.412H213.331ZM214.261 109.553L215.156 106.801H215.213L216.108 109.553H214.261ZM219.558 112.412H224.213V111.144H221.096V105.139H219.558V112.412ZM225.232 112.412H229.887V111.144H226.769V105.139H225.232V112.412Z" fill="white"/>
<path d="M37.6321 259.487H39.1697V257.129H40.4624C42.1349 257.129 43.108 256.131 43.108 254.679C43.108 253.234 42.1527 252.215 40.5014 252.215H37.6321V259.487ZM39.1697 255.897V253.472H40.2067C41.0945 253.472 41.5241 253.955 41.5241 254.679C41.5241 255.4 41.0945 255.897 40.2138 255.897H39.1697ZM45.4872 259.59C46.2933 259.59 46.8153 259.239 47.0817 258.731H47.1243V259.487H48.5589V255.808C48.5589 254.509 47.4581 253.962 46.2436 253.962C44.9368 253.962 44.0774 254.587 43.8679 255.581L45.267 255.695C45.37 255.332 45.6932 255.066 46.2365 255.066C46.7514 255.066 47.0462 255.325 47.0462 255.773V255.794C47.0462 256.146 46.6733 256.192 45.7251 256.284C44.6456 256.384 43.6761 256.746 43.6761 257.964C43.6761 259.043 44.4467 259.59 45.4872 259.59ZM45.9205 258.546C45.4553 258.546 45.1214 258.33 45.1214 257.914C45.1214 257.488 45.473 257.278 46.0057 257.204C46.3359 257.158 46.8757 257.08 47.0568 256.959V257.538C47.0568 258.109 46.5845 258.546 45.9205 258.546ZM49.7326 259.487H51.2454V256.401C51.2454 255.73 51.7354 255.269 52.4031 255.269C52.6126 255.269 52.9002 255.304 53.0423 255.35V254.008C52.9073 253.976 52.7191 253.955 52.5664 253.955C51.9556 253.955 51.4549 254.31 51.256 254.984H51.1992V254.033H49.7326V259.487ZM53.8244 259.487H55.3372V257.754L55.7456 257.289L57.2335 259.487H59.0055L56.8784 256.394L58.9025 254.033H57.166L55.4189 256.103H55.3372V252.215H53.8244V259.487ZM59.6447 259.487H61.1575V254.033H59.6447V259.487ZM60.4047 253.33C60.8556 253.33 61.225 252.985 61.225 252.563C61.225 252.144 60.8556 251.799 60.4047 251.799C59.9572 251.799 59.5879 252.144 59.5879 252.563C59.5879 252.985 59.9572 253.33 60.4047 253.33ZM63.8821 256.334C63.8857 255.631 64.3047 255.219 64.9155 255.219C65.5227 255.219 65.8885 255.617 65.8849 256.284V259.487H67.3977V256.014C67.3977 254.743 66.652 253.962 65.5156 253.962C64.706 253.962 64.12 254.359 63.875 254.995H63.8111V254.033H62.3693V259.487H63.8821V256.334ZM71.0474 261.646C72.6064 261.646 73.7143 260.936 73.7143 259.541V254.033H72.2122V254.949H72.1554C71.9529 254.505 71.5091 253.962 70.5964 253.962C69.3997 253.962 68.3876 254.892 68.3876 256.749C68.3876 258.564 69.3713 259.409 70.6 259.409C71.47 259.409 71.9565 258.972 72.1554 258.521H72.2193V259.519C72.2193 260.269 71.7399 260.56 71.0829 260.56C70.4153 260.56 70.0779 260.269 69.9537 259.938L68.5545 260.127C68.7356 260.986 69.5772 261.646 71.0474 261.646ZM71.0794 258.273C70.3372 258.273 69.9324 257.683 69.9324 256.742C69.9324 255.815 70.3301 255.166 71.0794 255.166C71.8145 255.166 72.2264 255.787 72.2264 256.742C72.2264 257.705 71.8074 258.273 71.0794 258.273ZM39.2692 271.487H40.7678L42.1491 266.732H42.206L43.5909 271.487H45.0895L47.1705 264.215H45.4908L44.2869 269.278H44.223L42.8984 264.215H41.4602L40.1321 269.268H40.0717L38.8679 264.215H37.1882L39.2692 271.487ZM47.9934 271.487H52.9082V270.22H49.5311V268.483H52.6419V267.215H49.5311V265.482H52.894V264.215H47.9934V271.487ZM58.0618 266.306H59.5355C59.5142 265.01 58.4489 264.115 56.8295 264.115C55.2351 264.115 54.0668 264.996 54.0739 266.317C54.0703 267.389 54.8267 268.004 56.0554 268.298L56.8473 268.497C57.6392 268.689 58.0795 268.916 58.0831 269.406C58.0795 269.939 57.5753 270.301 56.794 270.301C55.995 270.301 55.4197 269.932 55.37 269.204H53.8821C53.9212 270.777 55.0469 271.59 56.8118 271.59C58.5874 271.59 59.6314 270.742 59.6349 269.41C59.6314 268.199 58.7188 267.556 57.4545 267.272L56.8011 267.116C56.169 266.97 55.6399 266.736 55.6506 266.214C55.6506 265.745 56.0661 265.401 56.8189 265.401C57.554 265.401 58.005 265.734 58.0618 266.306ZM60.3922 265.482H62.6188V271.487H64.1387V265.482H66.3652V264.215H60.3922V265.482ZM69.6634 271.487H71.201V268.483H74.3224V271.487H75.8565V264.215H74.3224V267.215H71.201V264.215H69.6634V271.487ZM78.3778 271.487L78.9176 269.829H81.5419L82.0817 271.487H83.7294L81.2223 264.215H79.2408L76.7301 271.487H78.3778ZM79.3082 268.629L80.2031 265.877H80.2599L81.1548 268.629H79.3082ZM84.6048 271.487H89.2603V270.22H86.1424V264.215H84.6048V271.487ZM90.2786 271.487H94.9341V270.22H91.8162V264.215H90.2786V271.487Z" fill="white"/>
<path d="M2.78125 43.4121H9.54688V33.0371H15.2344C22.5937 33.0371 26.875 28.6465 26.875 22.2559C26.875 15.8965 22.6719 11.4121 15.4063 11.4121H2.78125V43.4121ZM9.54688 27.6152V16.9434H14.1094C18.0156 16.9434 19.9063 19.0684 19.9063 22.2559C19.9063 25.4277 18.0156 27.6152 14.1406 27.6152H9.54688Z" fill="black"/>
<path fill-rule="evenodd" clip-rule="evenodd" d="M229.789 95.8438C233.317 95.2346 236 92.1681 236 88.4769C236 84.3475 232.642 81 228.5 81C224.358 81 221 84.3475 221 88.4769C221 92.1681 223.683 95.2346 227.211 95.8438L228.5 101L229.789 95.8438Z" fill="black"/>
<path fill-rule="evenodd" clip-rule="evenodd" d="M229.789 93.8438C233.317 93.2346 236 90.1681 236 86.4769C236 82.3475 232.642 79 228.5 79C224.358 79 221 82.3475 221 86.4769C221 90.1681 223.683 93.2346 227.211 93.8438L228.5 99L229.789 93.8438Z" fill="#FF0000"/>
<ellipse cx="228.5" cy="86.4767" rx="2.5" ry="2.49231" fill="white"/>
<g clip-path="url(#clip0)">
<mask id="mask0" mask-type="alpha" maskUnits="userSpaceOnUse" x="0" y="374" width="180" height="330">
<path d="M179.053 374H0V703.072H179.053V374Z" fill="#EDEAE6"/>
</mask>
<g mask="url(#mask0)">
<path d="M179.053 374H20C8.9543 374 0 382.954 0 394V703.072H179.053V374Z" fill="#EDEAE6"/>
<path d="M56.1472 560.286H-48.5212H-65.7633H-118.042C-120.032 560.286 -121.579 561.864 -121.579 563.892V742.515C-121.579 744.544 -120.032 746.122 -118.042 746.122H-48.5212C-46.5317 746.122 -44.9844 744.544 -44.9844 742.515V655.965H56.1472C58.1367 655.965 59.6841 654.387 59.6841 652.359V563.892C59.7946 561.864 58.1367 560.286 56.1472 560.286Z" fill="#84A359"/>
<path d="M256.2 560.286H151.532H134.289H82.0105C80.021 560.286 78.4736 561.864 78.4736 563.892V742.515C78.4736 744.544 80.021 746.122 82.0105 746.122H151.532C153.521 746.122 155.068 744.544 155.068 742.515V655.965H256.2C258.189 655.965 259.737 654.387 259.737 652.359V563.892C259.847 561.864 258.189 560.286 256.2 560.286Z" fill="#84A359"/>
<path d="M130.421 473.02V520.223C130.421 521.905 131.21 523.5 132.525 524.562L137.959 528.813C151.808 539.706 167.762 547.5 184.854 551.751L194.408 554.142C197.827 555.027 201.158 552.371 201.158 548.828V503.485C201.158 501.359 200.018 499.499 198.177 498.525L138.397 468.237C134.628 466.2 130.421 468.857 130.421 473.02Z" fill="#84A359"/>
<path d="M-10.8491 469.333L7.55125 473.117C9.79926 473.558 11.631 471.269 10.8816 468.981L9.2997 464.228C5.88605 454.194 5.46976 443.368 8.05081 433.071L8.46711 431.574C8.71688 430.518 8.46711 429.374 7.71777 428.582L-8.18483 410.979C-10.0165 409.043 -13.2637 410.363 -13.2637 413.179V466.252C-13.2637 467.749 -12.2646 469.069 -10.8491 469.333Z" fill="#84A359"/>
<path d="M28.2056 490.344L14.1554 480.338C13.4742 479.899 12.793 479.548 12.0266 479.373L-6.45148 475.511C-9.94273 474.897 -13.2637 477.705 -13.2637 481.391V495.347C-13.2637 498.155 -11.0497 500.35 -8.40998 500.35H6.06593V520.536H-8.40998C-11.1349 520.536 -13.2637 522.818 -13.2637 525.539V547.218C-13.2637 550.466 -10.7091 553.186 -7.47331 553.186H18.0724C20.0309 553.186 21.9043 552.133 22.9261 550.466L34.3365 532.122C37.9129 526.329 39.8714 519.571 39.7863 512.637C39.7011 503.773 35.3584 495.434 28.2056 490.344Z" fill="#84A359"/>
<path d="M105.837 371.884C100.274 373.291 96.3621 378.303 96.3621 384.106V394.657C96.3621 401.603 90.7989 407.23 83.9319 407.23H47.9454C37.4276 407.23 27.4313 412.066 20.8251 420.419C15.8704 426.662 13.2627 434.399 13.2627 442.313V449.347C13.2627 457.348 15.9573 465.173 20.912 471.328L29.8652 482.495C30.039 482.671 30.2129 482.847 30.2998 483.022L42.643 496.827C47.5108 502.278 48.9885 509.752 47.0761 516.874C45.9461 521.006 46.9892 525.403 49.8577 528.568L53.5085 532.701C57.4201 537.185 65.504 540.79 71.4149 540.79C87.4089 539.295 102.099 531.294 112.182 518.544C119.136 509.752 123.482 499.113 124.699 487.946L125.047 484.429C126.09 475.285 124.96 466.141 121.918 457.436L115.833 440.29C115.572 439.499 115.312 438.708 115.225 437.828C114.008 430.091 120.005 423.409 127.481 423.409H159.99C166.857 423.409 172.421 417.781 172.421 410.835V371.796C172.421 369.422 171.725 367.136 170.595 365.29C168.401 361.503 114.136 369.817 105.837 371.884Z" fill="#84A359"/>
<path d="M157.5 402.174C160.247 402.174 162.474 399.903 162.474 397.103C162.474 394.302 160.247 392.031 157.5 392.031C154.753 392.031 152.526 394.302 152.526 397.103C152.526 399.903 154.753 402.174 157.5 402.174Z" fill="#B5B758"/>
<path d="M64.6575 422.459C66.794 422.459 68.5259 420.441 68.5259 417.951C68.5259 415.462 66.794 413.443 64.6575 413.443C62.521 413.443 60.7891 415.462 60.7891 417.951C60.7891 420.441 62.521 422.459 64.6575 422.459Z" fill="#B5B758"/>
<path d="M29.2891 431.475C32.036 431.475 34.2628 429.456 34.2628 426.967C34.2628 424.477 32.036 422.459 29.2891 422.459C26.5422 422.459 24.3154 424.477 24.3154 426.967C24.3154 429.456 26.5422 431.475 29.2891 431.475Z" fill="#B5B758"/>
<path d="M85.6573 534.028C88.4042 534.028 90.631 532.01 90.631 529.52C90.631 527.03 88.4042 525.012 85.6573 525.012C82.9104 525.012 80.6836 527.03 80.6836 529.52C80.6836 532.01 82.9104 534.028 85.6573 534.028Z" fill="#B5B758"/>
<path d="M100.579 531.774C103.021 531.774 105 529.503 105 526.703C105 523.902 103.021 521.631 100.579 521.631C98.1376 521.631 96.1582 523.902 96.1582 526.703C96.1582 529.503 98.1376 531.774 100.579 531.774Z" fill="#B5B758"/>
<path d="M108.316 387.523C110.757 387.523 112.737 385.505 112.737 383.016C112.737 380.526 110.757 378.508 108.316 378.508C105.874 378.508 103.895 380.526 103.895 383.016C103.895 385.505 105.874 387.523 108.316 387.523Z" fill="#B5B758"/>
<path d="M1.10465 430.348C3.54633 430.348 5.5257 428.077 5.5257 425.276C5.5257 422.476 3.54633 420.205 1.10465 420.205C-1.33703 420.205 -3.31641 422.476 -3.31641 425.276C-3.31641 428.077 -1.33703 430.348 1.10465 430.348Z" fill="#B5B758"/>
<path d="M4.97368 452.887C7.72057 452.887 9.94737 450.869 9.94737 448.379C9.94737 445.889 7.72057 443.871 4.97368 443.871C2.22679 443.871 0 445.889 0 448.379C0 450.869 2.22679 452.887 4.97368 452.887Z" fill="#B5B758"/>
<path d="M11.0529 490.077C13.4946 490.077 15.4739 487.806 15.4739 485.005C15.4739 482.205 13.4946 479.934 11.0529 479.934C8.61121 479.934 6.63184 482.205 6.63184 485.005C6.63184 487.806 8.61121 490.077 11.0529 490.077Z" fill="#B5B758"/>
<path d="M24.8682 517.124C27.6151 517.124 29.8419 515.105 29.8419 512.616C29.8419 510.126 27.6151 508.108 24.8682 508.108C22.1213 508.108 19.8945 510.126 19.8945 512.616C19.8945 515.105 22.1213 517.124 24.8682 517.124Z" fill="#B5B758"/>
<path d="M7.18365 537.409C9.93054 537.409 12.1573 535.138 12.1573 532.337C12.1573 529.537 9.93054 527.266 7.18365 527.266C4.43676 527.266 2.20996 529.537 2.20996 532.337C2.20996 535.138 4.43676 537.409 7.18365 537.409Z" fill="#B5B758"/>
<path d="M-0.552684 527.266C2.19421 527.266 4.421 525.248 4.421 522.758C4.421 520.269 2.19421 518.25 -0.552684 518.25C-3.29957 518.25 -5.52637 520.269 -5.52637 522.758C-5.52637 525.248 -3.29957 527.266 -0.552684 527.266Z" fill="#B5B758"/>
<path d="M64.6575 504.727C66.794 504.727 68.5259 502.457 68.5259 499.656C68.5259 496.855 66.794 494.584 64.6575 494.584C62.521 494.584 60.7891 496.855 60.7891 499.656C60.7891 502.457 62.521 504.727 64.6575 504.727Z" fill="#B5B758"/>
<path d="M38.6837 474.299C41.1254 474.299 43.1048 472.029 43.1048 469.228C43.1048 466.427 41.1254 464.157 38.6837 464.157C36.2421 464.157 34.2627 466.427 34.2627 469.228C34.2627 472.029 36.2421 474.299 38.6837 474.299Z" fill="#B5B758"/>
<path d="M43.6573 490.077C46.4042 490.077 48.631 487.806 48.631 485.005C48.631 482.205 46.4042 479.934 43.6573 479.934C40.9104 479.934 38.6836 482.205 38.6836 485.005C38.6836 487.806 40.9104 490.077 43.6573 490.077Z" fill="#B5B758"/>
<path d="M105.553 450.633C108.3 450.633 110.526 448.362 110.526 445.562C110.526 442.761 108.3 440.49 105.553 440.49C102.806 440.49 100.579 442.761 100.579 445.562C100.579 448.362 102.806 450.633 105.553 450.633Z" fill="#B5B758"/>
<path d="M104.447 431.475C107.194 431.475 109.421 429.456 109.421 426.967C109.421 424.477 107.194 422.459 104.447 422.459C101.7 422.459 99.4736 424.477 99.4736 426.967C99.4736 429.456 101.7 431.475 104.447 431.475Z" fill="#B5B758"/>
<path d="M116.606 483.315C119.352 483.315 121.579 481.297 121.579 478.807C121.579 476.318 119.352 474.299 116.606 474.299C113.859 474.299 111.632 476.318 111.632 478.807C111.632 481.297 113.859 483.315 116.606 483.315Z" fill="#B5B758"/>
<path d="M109.974 479.934C112.721 479.934 114.947 477.664 114.947 474.863C114.947 472.062 112.721 469.792 109.974 469.792C107.227 469.792 105 472.062 105 474.863C105 477.664 107.227 479.934 109.974 479.934Z" fill="#507146"/>
<path d="M85.6573 457.395C88.4042 457.395 90.631 455.629 90.631 453.45C90.631 451.272 88.4042 449.506 85.6573 449.506C82.9104 449.506 80.6836 451.272 80.6836 453.45C80.6836 455.629 82.9104 457.395 85.6573 457.395Z" fill="#507146"/>
<path d="M35.3683 430.348C37.81 430.348 39.7894 428.077 39.7894 425.276C39.7894 422.476 37.81 420.205 35.3683 420.205C32.9266 420.205 30.9473 422.476 30.9473 425.276C30.9473 428.077 32.9266 430.348 35.3683 430.348Z" fill="#507146"/>
<path d="M-0.552684 463.03C2.19421 463.03 4.421 461.012 4.421 458.522C4.421 456.032 2.19421 454.014 -0.552684 454.014C-3.29957 454.014 -5.52637 456.032 -5.52637 458.522C-5.52637 461.012 -3.29957 463.03 -0.552684 463.03Z" fill="#507146"/>
<path d="M92.2891 531.774C95.036 531.774 97.2628 529.503 97.2628 526.703C97.2628 523.902 95.036 521.631 92.2891 521.631C89.5422 521.631 87.3154 523.902 87.3154 526.703C87.3154 529.503 89.5422 531.774 92.2891 531.774Z" fill="#507146"/>
<path d="M49.1836 500.219C51.9305 500.219 54.1573 497.949 54.1573 495.148C54.1573 492.347 51.9305 490.077 49.1836 490.077C46.4368 490.077 44.21 492.347 44.21 495.148C44.21 497.949 46.4368 500.219 49.1836 500.219Z" fill="#507146"/>
<path d="M38.6837 483.315C41.1254 483.315 43.1048 481.297 43.1048 478.807C43.1048 476.318 41.1254 474.299 38.6837 474.299C36.2421 474.299 34.2627 476.318 34.2627 478.807C34.2627 481.297 36.2421 483.315 38.6837 483.315Z" fill="#507146"/>
<path d="M23.7627 527.266C26.5096 527.266 28.7364 524.996 28.7364 522.195C28.7364 519.394 26.5096 517.124 23.7627 517.124C21.0159 517.124 18.7891 519.394 18.7891 522.195C18.7891 524.996 21.0159 527.266 23.7627 527.266Z" fill="#507146"/>
<path d="M19.3419 543.044C22.0887 543.044 24.3155 540.773 24.3155 537.972C24.3155 535.171 22.0887 532.901 19.3419 532.901C16.595 532.901 14.3682 535.171 14.3682 537.972C14.3682 540.773 16.595 543.044 19.3419 543.044Z" fill="#507146"/>
<path d="M4.97368 490.077C7.72057 490.077 9.94737 488.058 9.94737 485.569C9.94737 483.079 7.72057 481.061 4.97368 481.061C2.22679 481.061 0 483.079 0 485.569C0 488.058 2.22679 490.077 4.97368 490.077Z" fill="#507146"/>
<path d="M132.631 520.504C135.073 520.504 137.052 518.738 137.052 516.56C137.052 514.382 135.073 512.616 132.631 512.616C130.189 512.616 128.21 514.382 128.21 516.56C128.21 518.738 130.189 520.504 132.631 520.504Z" fill="#B5B758"/>
<path d="M139.263 511.489C141.705 511.489 143.684 509.471 143.684 506.981C143.684 504.491 141.705 502.473 139.263 502.473C136.821 502.473 134.842 504.491 134.842 506.981C134.842 509.471 136.821 511.489 139.263 511.489Z" fill="#B5B758"/>
<path d="M139.263 529.52C141.705 529.52 143.684 527.25 143.684 524.449C143.684 521.648 141.705 519.377 139.263 519.377C136.821 519.377 134.842 521.648 134.842 524.449C134.842 527.25 136.821 529.52 139.263 529.52Z" fill="#507146"/>
<path d="M108.868 519.377C111.615 519.377 113.842 517.107 113.842 514.306C113.842 511.505 111.615 509.235 108.868 509.235C106.121 509.235 103.895 511.505 103.895 514.306C103.895 517.107 106.121 519.377 108.868 519.377Z" fill="#507146"/>
<path d="M121.026 494.584C123.773 494.584 126 492.566 126 490.077C126 487.587 123.773 485.569 121.026 485.569C118.28 485.569 116.053 487.587 116.053 490.077C116.053 492.566 118.28 494.584 121.026 494.584Z" fill="#507146"/>
<path d="M121.026 467.538C123.773 467.538 126 465.267 126 462.466C126 459.666 123.773 457.395 121.026 457.395C118.28 457.395 116.053 459.666 116.053 462.466C116.053 465.267 118.28 467.538 121.026 467.538Z" fill="#507146"/>
<path d="M108.316 485.569C110.757 485.569 112.737 483.551 112.737 481.061C112.737 478.571 110.757 476.553 108.316 476.553C105.874 476.553 103.895 478.571 103.895 481.061C103.895 483.551 105.874 485.569 108.316 485.569Z" fill="#849258"/>
<path d="M4.97368 529.52C7.72057 529.52 9.94737 527.25 9.94737 524.449C9.94737 521.648 7.72057 519.377 4.97368 519.377C2.22679 519.377 0 521.648 0 524.449C0 527.25 2.22679 529.52 4.97368 529.52Z" fill="#849258"/>
<path d="M-3.86811 447.252C-1.12122 447.252 1.10557 444.981 1.10557 442.181C1.10557 439.38 -1.12122 437.109 -3.86811 437.109C-6.615 437.109 -8.8418 439.38 -8.8418 442.181C-8.8418 444.981 -6.615 447.252 -3.86811 447.252Z" fill="#849258"/>
<path d="M113.289 457.395C115.426 457.395 117.158 455.629 117.158 453.45C117.158 451.272 115.426 449.506 113.289 449.506C111.153 449.506 109.421 451.272 109.421 453.45C109.421 455.629 111.153 457.395 113.289 457.395Z" fill="#849258"/>
<path d="M119.921 475.426C122.668 475.426 124.895 473.156 124.895 470.355C124.895 467.554 122.668 465.284 119.921 465.284C117.174 465.284 114.947 467.554 114.947 470.355C114.947 473.156 117.174 475.426 119.921 475.426Z" fill="#849258"/>
<path d="M114.947 511.489C117.389 511.489 119.368 509.471 119.368 506.981C119.368 504.491 117.389 502.473 114.947 502.473C112.506 502.473 110.526 504.491 110.526 506.981C110.526 509.471 112.506 511.489 114.947 511.489Z" fill="#849258"/>
<path d="M111.079 394.285C113.826 394.285 116.053 392.267 116.053 389.777C116.053 387.288 113.826 385.27 111.079 385.27C108.332 385.27 106.105 387.288 106.105 389.777C106.105 392.267 108.332 394.285 111.079 394.285Z" fill="#849258"/>
<path d="M21.5528 552.059C24.2997 552.059 26.5265 549.789 26.5265 546.988C26.5265 544.187 24.2997 541.917 21.5528 541.917C18.8059 541.917 16.5791 544.187 16.5791 546.988C16.5791 549.789 18.8059 552.059 21.5528 552.059Z" fill="#849258"/>
<path d="M52.5003 529.52C54.6367 529.52 56.3687 527.25 56.3687 524.449C56.3687 521.648 54.6367 519.377 52.5003 519.377C50.3638 519.377 48.6318 521.648 48.6318 524.449C48.6318 527.25 50.3638 529.52 52.5003 529.52Z" fill="#849258"/>
<path d="M80.6838 543.044C83.1254 543.044 85.1048 540.773 85.1048 537.972C85.1048 535.171 83.1254 532.901 80.6838 532.901C78.2421 532.901 76.2627 535.171 76.2627 537.972C76.2627 540.773 78.2421 543.044 80.6838 543.044Z" fill="#849258"/>
<path d="M72.3946 541.917C75.1415 541.917 77.3683 539.646 77.3683 536.845C77.3683 534.044 75.1415 531.774 72.3946 531.774C69.6477 531.774 67.4209 534.044 67.4209 536.845C67.4209 539.646 69.6477 541.917 72.3946 541.917Z" fill="#849258"/>
<path d="M44.7627 485.569C47.5096 485.569 49.7364 483.298 49.7364 480.498C49.7364 477.697 47.5096 475.426 44.7627 475.426C42.0159 475.426 39.7891 477.697 39.7891 480.498C39.7891 483.298 42.0159 485.569 44.7627 485.569Z" fill="#849258"/>
</g>
<path d="M1.5 702.86V575.347H177.5V702.86H1.5Z" fill="white" stroke="black" stroke-width="3" stroke-miterlimit="10"/>
<path d="M208.956 391.968H210.456V390.468V375.5H313.5V524.425H164.481V494.831V493.331H162.981H148.5V391.968H208.956Z" fill="white" stroke="black" stroke-width="3" stroke-miterlimit="10"/>
<path d="M243.561 449.608H230.141V476.016H243.561V449.608Z" fill="black"/>
<path d="M195.423 449.608H182.003V476.016H195.423V449.608Z" fill="black"/>
<path d="M96.5497 631.124H83.1299V657.532H96.5497V631.124Z" fill="black"/>
<path d="M35.6601 631.124H22.2402V657.532H35.6601V631.124Z" fill="black"/>
<path d="M28.1828 642.383C27.6486 642.383 27.248 642.793 27.248 643.407V645.727C27.248 646.205 27.9157 646.205 27.9157 645.727V643.612H28.0492V649.548C28.0492 650.163 28.9172 650.163 28.9172 649.548V646.068H29.0507V649.548C29.0507 650.163 29.9187 650.163 29.9187 649.548V643.612H30.0522V645.727C30.0522 646.205 30.7199 646.205 30.7199 645.727V643.407C30.7199 642.929 30.3193 642.383 29.7851 642.383H28.1828Z" fill="white"/>
<path d="M28.9834 642.111C29.389 642.111 29.7179 641.775 29.7179 641.36C29.7179 640.945 29.389 640.609 28.9834 640.609C28.5778 640.609 28.249 640.945 28.249 641.36C28.249 641.775 28.5778 642.111 28.9834 642.111Z" fill="white"/>
<path d="M130.668 631.124H117.248V669.815H130.668V631.124Z" fill="black"/>
<path d="M127.931 654.188V648.32C127.931 647.706 127.464 647.228 126.863 647.228H121.121C120.52 647.228 120.053 647.706 120.053 648.32V654.188C120.053 654.803 120.52 655.28 121.121 655.28H126.863C127.464 655.28 127.931 654.871 127.931 654.188ZM127.063 654.393H120.921V648.183H127.063V654.393Z" fill="white"/>
<path d="M124.926 643.475C124.926 642.997 125.594 642.997 125.594 643.475V645.386L125.928 644.976C126.195 644.703 126.596 645.113 126.329 645.386L125.461 646.409C125.327 646.546 125.127 646.546 124.993 646.409L124.125 645.386C123.858 645.044 124.326 644.703 124.526 644.976L124.86 645.454L124.926 643.475Z" fill="white"/>
<path d="M122.389 646.136C122.389 646.614 123.057 646.614 123.057 646.136V644.226L123.391 644.635C123.658 644.908 124.059 644.499 123.791 644.226L122.924 643.202C122.79 643.065 122.59 643.065 122.456 643.202L121.588 644.226C121.321 644.567 121.788 644.908 121.989 644.635L122.323 644.157L122.389 646.136Z" fill="white"/>
<path d="M125.728 650.026H124.593C124.46 650.026 124.326 650.163 124.326 650.299V651.732C124.326 651.869 124.393 651.937 124.526 651.937C124.526 651.937 124.593 651.937 124.66 651.937V653.779C124.66 654.121 125.127 654.121 125.127 653.779V651.937H125.194V653.779C125.194 654.121 125.661 654.121 125.661 653.779V651.937C125.728 651.937 125.795 651.937 125.795 651.937C125.929 651.937 125.995 651.869 125.995 651.732V650.299C125.995 650.163 125.929 650.026 125.728 650.026Z" fill="white"/>
<path d="M125.194 649.889C125.379 649.889 125.528 649.737 125.528 649.548C125.528 649.36 125.379 649.207 125.194 649.207C125.01 649.207 124.86 649.36 124.86 649.548C124.86 649.737 125.01 649.889 125.194 649.889Z" fill="white"/>
<path d="M123.325 650.026H122.19C122.056 650.026 121.923 650.163 121.923 650.299V651.732C121.923 651.869 121.99 651.937 122.123 651.937C122.123 651.937 122.19 651.937 122.257 651.937V653.779C122.257 654.121 122.724 654.121 122.724 653.779V651.937H122.791V653.779C122.791 654.121 123.258 654.121 123.258 653.779V651.937C123.325 651.937 123.392 651.937 123.392 651.937C123.525 651.937 123.592 651.869 123.592 651.732V650.299C123.592 650.163 123.458 650.026 123.325 650.026Z" fill="white"/>
<path d="M122.791 649.889C122.975 649.889 123.125 649.737 123.125 649.548C123.125 649.36 122.975 649.207 122.791 649.207C122.606 649.207 122.457 649.36 122.457 649.548C122.457 649.737 122.606 649.889 122.791 649.889Z" fill="white"/>
<path d="M90.0079 642.111C90.4084 642.111 90.7423 641.769 90.7423 641.36C90.7423 640.951 90.4084 640.609 90.0079 640.609C89.6073 640.609 89.2734 640.951 89.2734 641.36C89.2734 641.769 89.6073 642.111 90.0079 642.111Z" fill="white"/>
<path d="M89.8744 646.955V649.617C89.8744 650.094 89.2067 650.094 89.2067 649.617V646.955H88.272L89.2735 643.407H89.14L88.5391 645.386C88.4055 645.795 87.8046 645.659 87.9382 645.181L88.6058 642.997C88.6726 642.724 89.0064 642.315 89.5406 642.315H90.0079H90.5421C91.0762 642.315 91.41 642.793 91.4768 642.997L92.1445 645.181C92.278 645.659 91.6771 645.863 91.5436 645.386L90.9427 643.407H90.7424L91.7439 646.955H90.8091V649.617C90.8091 650.094 90.1415 650.094 90.1415 649.617V646.955H89.8744Z" fill="white"/>
<path d="M204.436 573.46H183.738V595.364H204.436V573.46Z" fill="black"/>
<path d="M197.96 589.428V583.559C197.96 582.945 197.493 582.467 196.892 582.467H191.15C190.549 582.467 190.082 582.945 190.082 583.559V589.428C190.082 590.042 190.549 590.519 191.15 590.519H196.892C197.493 590.519 197.96 590.11 197.96 589.428ZM197.092 589.632H190.95V583.423H197.092V589.632Z" fill="white"/>
<path d="M195.023 578.714C195.023 578.236 195.691 578.236 195.691 578.714V580.624L196.025 580.215C196.292 579.942 196.692 580.351 196.425 580.624L195.557 581.648C195.424 581.785 195.223 581.785 195.09 581.648L194.222 580.624C193.955 580.283 194.422 579.942 194.623 580.215L194.956 580.693L195.023 578.714Z" fill="white"/>
<path d="M192.419 581.375C192.419 581.853 193.086 581.853 193.086 581.375V579.465L193.42 579.874C193.687 580.147 194.088 579.738 193.821 579.465L192.953 578.441C192.819 578.305 192.619 578.305 192.485 578.441L191.617 579.465C191.35 579.806 191.818 580.147 192.018 579.874L192.352 579.397L192.419 581.375Z" fill="white"/>
<path d="M195.824 585.266H194.689C194.555 585.266 194.422 585.402 194.422 585.539V586.972C194.422 587.108 194.489 587.176 194.622 587.176C194.622 587.176 194.689 587.176 194.756 587.176V589.019C194.756 589.36 195.223 589.36 195.223 589.019V587.176H195.29V589.019C195.29 589.36 195.757 589.36 195.757 589.019V587.176C195.824 587.176 195.891 587.176 195.891 587.176C196.024 587.176 196.091 587.108 196.091 586.972V585.539C196.091 585.402 195.957 585.266 195.824 585.266Z" fill="white"/>
<path d="M195.29 585.129C195.474 585.129 195.624 584.976 195.624 584.788C195.624 584.599 195.474 584.446 195.29 584.446C195.106 584.446 194.956 584.599 194.956 584.788C194.956 584.976 195.106 585.129 195.29 585.129Z" fill="white"/>
<path d="M193.421 585.266H192.286C192.152 585.266 192.019 585.402 192.019 585.539V586.972C192.019 587.108 192.085 587.176 192.219 587.176C192.219 587.176 192.286 587.176 192.352 587.176V589.019C192.352 589.36 192.82 589.36 192.82 589.019V587.176H192.887V589.019C192.887 589.36 193.354 589.36 193.354 589.019V587.176C193.421 587.176 193.487 587.176 193.487 587.176C193.621 587.176 193.688 587.108 193.688 586.972V585.539C193.688 585.402 193.554 585.266 193.421 585.266Z" fill="white"/>
<path d="M192.82 585.129C193.004 585.129 193.154 584.976 193.154 584.788C193.154 584.599 193.004 584.446 192.82 584.446C192.636 584.446 192.486 584.599 192.486 584.788C192.486 584.976 192.636 585.129 192.82 585.129Z" fill="white"/>
<path d="M109.636 585.062H78.6572V607.035H109.636V585.062Z" fill="black"/>
<path d="M78.6572 579.809V582.675H112.374V607.036H130.668V582.675V579.809H78.6572Z" fill="#C4C4C4"/>
<path d="M172.421 580.234H133.736V669.264H172.421V580.234Z" fill="#C8A67C"/>
<path d="M58.694 579.809H6.68359V616.521H58.694V579.809Z" fill="#C8A67C"/>
<path d="M98.0189 601.031V595.163C98.0189 594.548 97.5516 594.071 96.9507 594.071H91.2089C90.608 594.071 90.1406 594.548 90.1406 595.163V601.031C90.1406 601.645 90.608 602.123 91.2089 602.123H96.9507C97.5516 602.123 98.0189 601.645 98.0189 601.031ZM97.151 601.236H91.0086V595.026H97.151V601.236Z" fill="white"/>
<path d="M95.0144 588.063C95.0144 587.586 95.682 587.586 95.682 588.063V589.974L96.0158 589.565C96.2829 589.292 96.6835 589.701 96.4164 589.974L95.5485 590.998C95.415 591.134 95.2147 591.134 95.0811 590.998L94.2132 589.974C93.9461 589.633 94.4135 589.292 94.6138 589.565L94.9476 590.042L95.0144 588.063Z" fill="white"/>
<path d="M92.4772 590.725C92.4772 591.202 93.1449 591.202 93.1449 590.725V588.814L93.4787 589.223C93.7458 589.496 94.1464 589.087 93.8793 588.814L93.0114 587.79C92.8778 587.654 92.6775 587.654 92.544 587.79L91.6761 588.814C91.409 589.155 91.8764 589.496 92.0767 589.223L92.4105 588.746L92.4772 590.725Z" fill="white"/>
<path d="M95.8825 596.868H94.7475C94.614 596.868 94.4805 597.005 94.4805 597.141V598.574C94.4805 598.711 94.5472 598.779 94.6808 598.779C94.6808 598.779 94.7475 598.779 94.8143 598.779V600.621C94.8143 600.962 95.2816 600.962 95.2816 600.621V598.711H95.3484V600.553C95.3484 600.894 95.8158 600.894 95.8158 600.553V598.711C95.8825 598.711 95.9493 598.711 95.9493 598.711C96.0828 598.711 96.1496 598.642 96.1496 598.506V597.073C96.1496 596.936 96.0161 596.868 95.8825 596.868Z" fill="white"/>
<path d="M95.2821 596.732C95.4665 596.732 95.6159 596.579 95.6159 596.39C95.6159 596.202 95.4665 596.049 95.2821 596.049C95.0977 596.049 94.9482 596.202 94.9482 596.39C94.9482 596.579 95.0977 596.732 95.2821 596.732Z" fill="white"/>
<path d="M93.4792 596.868H92.3442C92.2107 596.868 92.0771 597.005 92.0771 597.141V598.574C92.0771 598.711 92.1439 598.779 92.2774 598.779C92.2774 598.779 92.3442 598.779 92.411 598.779V600.621C92.411 600.962 92.8783 600.962 92.8783 600.621V598.711H92.9451V600.553C92.9451 600.894 93.4125 600.894 93.4125 600.553V598.711C93.4792 598.711 93.546 598.711 93.546 598.711C93.6795 598.711 93.7463 598.642 93.7463 598.506V597.073C93.6795 596.936 93.6128 596.868 93.4792 596.868Z" fill="white"/>
<path d="M92.8788 596.732C93.0631 596.732 93.2126 596.579 93.2126 596.39C93.2126 596.202 93.0631 596.049 92.8788 596.049C92.6944 596.049 92.5449 596.202 92.5449 596.39C92.5449 596.579 92.6944 596.732 92.8788 596.732Z" fill="white"/>
<path d="M163.224 545.924H199.678V531.73H163.224V545.924Z" fill="black"/>
<path d="M180.667 536.066C181.068 536.066 181.402 535.725 181.402 535.316C181.402 534.906 181.068 534.565 180.667 534.565C180.266 534.565 179.933 534.906 179.933 535.316C179.933 535.725 180.266 536.066 180.667 536.066Z" fill="white"/>
<path d="M185.608 535.384H183.939C183.605 535.384 183.138 535.52 182.871 535.793L181.335 537.363V536.885C181.335 535.93 179.933 535.93 179.933 536.885V538.727L178.598 540.092C178.464 540.229 178.464 540.229 178.197 540.229H177.396C176.595 540.229 176.061 540.979 176.061 541.593C176.061 542.208 176.528 543.026 177.463 543.026C177.463 543.026 178.598 543.026 178.931 543.026C179.265 543.026 179.666 542.89 180 542.549L184.273 538.25C184.339 538.182 184.406 538.113 184.54 538.113C184.54 538.113 185.141 538.113 185.608 538.113C186.142 538.113 186.81 537.499 186.81 536.68C186.877 535.93 186.142 535.384 185.608 535.384ZM185.541 537.499H184.673C184.273 537.499 184.139 537.567 183.939 537.772L179.666 542.139C179.466 542.344 179.265 542.412 178.998 542.412H177.596C177.262 542.412 176.928 542.071 176.928 541.662C176.928 541.252 177.262 541.048 177.529 541.048H178.464C178.731 541.048 178.931 540.979 179.065 540.775L183.405 536.339C183.605 536.134 183.739 536.134 184.072 536.134H185.541C185.875 536.134 186.142 536.544 186.142 536.817C186.142 537.09 185.942 537.499 185.541 537.499Z" fill="white"/>
<path d="M254.954 488.358H268.374V449.667H254.954V488.358Z" fill="#FF0000"/>
<path d="M278.527 487.823H308.369V417.952H278.527V487.823Z" fill="#DAC452"/>
<path d="M268.397 423.062H231.943V437.256H268.397V423.062Z" fill="black"/>
<path d="M249.37 427.363C249.771 427.363 250.105 427.022 250.105 426.612C250.105 426.203 249.771 425.862 249.37 425.862C248.97 425.862 248.636 426.203 248.636 426.612C248.636 427.022 248.97 427.363 249.37 427.363Z" fill="white"/>
<path d="M254.244 426.681H252.575C252.241 426.681 251.773 426.817 251.506 427.09L249.971 428.66V428.182C249.971 427.227 248.569 427.227 248.569 428.182V430.024L247.233 431.389C247.1 431.526 247.1 431.526 246.833 431.526H246.032C245.23 431.526 244.696 432.276 244.696 432.89C244.696 433.504 245.164 434.323 246.098 434.323C246.098 434.323 247.233 434.323 247.567 434.323C247.901 434.323 248.302 434.187 248.635 433.846L252.908 429.547C252.975 429.478 253.042 429.41 253.175 429.41C253.175 429.41 253.776 429.41 254.244 429.41C254.778 429.41 255.445 428.796 255.445 427.977C255.512 427.227 254.845 426.681 254.244 426.681ZM254.177 428.796H253.309C252.908 428.796 252.775 428.864 252.575 429.069L248.302 433.436C248.101 433.641 247.901 433.709 247.634 433.709H246.232C245.898 433.709 245.564 433.368 245.564 432.959C245.564 432.549 245.898 432.344 246.165 432.344H247.1C247.367 432.344 247.567 432.276 247.701 432.071L252.04 427.636C252.241 427.431 252.374 427.431 252.708 427.431H254.177C254.511 427.431 254.778 427.841 254.778 428.114C254.778 428.387 254.644 428.796 254.177 428.796Z" fill="white"/>
<path d="M98.553 631.124V659.511H81.0604V631.124H37.7296V659.511H20.237V631.124H6.68359V669.815H115.244V631.124H98.553Z" fill="#C4C4C4"/>
<path d="M187.878 460.867C187.344 460.867 186.943 461.277 186.943 461.891V464.211C186.943 464.688 187.611 464.688 187.611 464.211V462.027H187.745V467.964C187.745 468.578 188.613 468.578 188.613 467.964V464.484H188.746V467.964C188.746 468.578 189.614 468.578 189.614 467.964V462.027H189.748V464.143C189.748 464.62 190.415 464.62 190.415 464.143V461.822C190.415 461.345 190.015 460.799 189.48 460.799L187.878 460.867Z" fill="white"/>
<path d="M188.679 460.662C189.084 460.662 189.413 460.326 189.413 459.912C189.413 459.497 189.084 459.161 188.679 459.161C188.273 459.161 187.944 459.497 187.944 459.912C187.944 460.326 188.273 460.662 188.679 460.662Z" fill="white"/>
<path d="M170.453 449.608H153.828V488.299H170.453V449.608Z" fill="#DAC452"/>
<path d="M178.064 411.735H153.828V433.094H178.064V411.735Z" fill="#DAC452"/>
<path d="M209.043 398.02H179.934V433.026H209.043V398.02Z" fill="#C4C4C4"/>
<path d="M308.369 381.888H266.369V415.697H308.369V381.888Z" fill="#DAC452"/>
<path d="M260.841 381.888H216.631V415.697H260.841V381.888Z" fill="#DAC452"/>
<path d="M265.593 472.741V466.872C265.593 466.258 265.126 465.78 264.525 465.78H258.783C258.182 465.78 257.715 466.258 257.715 466.872V472.741C257.715 473.355 258.182 473.832 258.783 473.832H264.525C265.126 473.764 265.593 473.355 265.593 472.741ZM264.725 472.877H258.583V466.667H264.725V472.877Z" fill="white"/>
<path d="M262.656 461.959C262.656 461.481 263.324 461.481 263.324 461.959V463.87L263.657 463.46C263.925 463.187 264.325 463.597 264.058 463.87L263.19 464.893C263.057 465.03 262.856 465.03 262.723 464.893L261.855 463.87C261.588 463.528 262.055 463.187 262.255 463.46L262.589 463.938L262.656 461.959Z" fill="white"/>
<path d="M260.051 464.687C260.051 465.165 260.719 465.165 260.719 464.687V462.777L261.053 463.186C261.32 463.459 261.721 463.05 261.453 462.777L260.586 461.753C260.452 461.617 260.252 461.617 260.118 461.753L259.25 462.777C258.983 463.118 259.451 463.459 259.651 463.186L259.985 462.709L260.051 464.687Z" fill="white"/>
<path d="M263.457 468.509H262.322C262.188 468.509 262.055 468.646 262.055 468.782V470.215C262.055 470.352 262.121 470.42 262.255 470.42C262.255 470.42 262.322 470.42 262.389 470.42V472.262C262.389 472.604 262.856 472.604 262.856 472.262V470.42H262.923V472.262C262.923 472.604 263.39 472.604 263.39 472.262V470.42C263.457 470.42 263.524 470.42 263.524 470.42C263.657 470.42 263.724 470.352 263.724 470.215V468.782C263.724 468.646 263.59 468.509 263.457 468.509Z" fill="white"/>
<path d="M262.923 468.373C263.107 468.373 263.257 468.22 263.257 468.032C263.257 467.843 263.107 467.69 262.923 467.69C262.738 467.69 262.589 467.843 262.589 468.032C262.589 468.22 262.738 468.373 262.923 468.373Z" fill="white"/>
<path d="M261.053 468.509H259.918C259.785 468.509 259.651 468.646 259.651 468.782V470.215C259.651 470.352 259.718 470.42 259.852 470.42C259.852 470.42 259.918 470.42 259.985 470.42V472.262C259.985 472.604 260.453 472.604 260.453 472.262V470.42H260.519V472.262C260.519 472.604 260.987 472.604 260.987 472.262V470.42C261.053 470.42 261.12 470.42 261.12 470.42C261.254 470.42 261.32 470.352 261.32 470.215V468.782C261.32 468.646 261.187 468.509 261.053 468.509Z" fill="white"/>
<path d="M260.453 468.373C260.637 468.373 260.787 468.22 260.787 468.032C260.787 467.843 260.637 467.69 260.453 467.69C260.269 467.69 260.119 467.843 260.119 468.032C260.119 468.22 260.269 468.373 260.453 468.373Z" fill="white"/>
<path d="M237.019 460.662C237.419 460.662 237.753 460.321 237.753 459.912C237.753 459.502 237.419 459.161 237.019 459.161C236.618 459.161 236.284 459.502 236.284 459.912C236.284 460.321 236.618 460.662 237.019 460.662Z" fill="white"/>
<path d="M236.952 465.439V468.1C236.952 468.578 236.284 468.578 236.284 468.1V465.439H235.349L236.351 461.891H236.217L235.616 463.87C235.483 464.279 234.882 464.142 235.015 463.665L235.683 461.481C235.75 461.208 236.084 460.799 236.618 460.799H237.085H237.619C238.153 460.799 238.487 461.276 238.554 461.481L239.222 463.665C239.355 464.142 238.754 464.347 238.621 463.87L238.02 461.891H237.819L238.821 465.439H237.886V468.1C237.886 468.578 237.219 468.578 237.219 468.1V465.439H236.952Z" fill="white"/>
<path d="M245.63 449.608V478.063H228.138V449.608H197.425V478.063H179.933V449.608H172.455V488.367H252.974V449.608H245.63Z" fill="#C4C4C4"/>
<path d="M113.482 400.559H118.397V399.291H115.02V397.555H118.131V396.287H115.02V394.554H118.383V393.286H113.482V400.559ZM120.859 400.559L121.398 398.901H124.023L124.563 400.559H126.21L123.703 393.286H121.722L119.211 400.559H120.859ZM121.789 397.7L122.684 394.948H122.741L123.636 397.7H121.789ZM130.865 395.378H132.339C132.317 394.082 131.252 393.187 129.633 393.187C128.038 393.187 126.87 394.068 126.877 395.389C126.873 396.461 127.63 397.075 128.859 397.37L129.65 397.569C130.442 397.761 130.883 397.988 130.886 398.478C130.883 399.011 130.378 399.373 129.597 399.373C128.798 399.373 128.223 399.004 128.173 398.276H126.685C126.724 399.849 127.85 400.662 129.615 400.662C131.391 400.662 132.435 399.813 132.438 398.482C132.435 397.271 131.522 396.628 130.258 396.344L129.604 396.188C128.972 396.042 128.443 395.808 128.454 395.286C128.454 394.817 128.869 394.472 129.622 394.472C130.357 394.472 130.808 394.806 130.865 395.378ZM133.195 394.554H135.422V400.559H136.942V394.554H139.168V393.286H133.195V394.554ZM102.922 406.554H105.148V412.559H106.668V406.554H108.895V405.286H102.922V406.554ZM116.24 408.923C116.24 406.543 114.762 405.187 112.834 405.187C110.895 405.187 109.429 406.543 109.429 408.923C109.429 411.291 110.895 412.659 112.834 412.659C114.762 412.659 116.24 411.302 116.24 408.923ZM114.681 408.923C114.681 410.464 113.949 411.298 112.834 411.298C111.715 411.298 110.987 410.464 110.987 408.923C110.987 407.382 111.715 406.547 112.834 406.547C113.949 406.547 114.681 407.382 114.681 408.923ZM118.742 412.559H120.241L121.622 407.804H121.679L123.064 412.559H124.563L126.644 405.286H124.964L123.76 410.35H123.696L122.372 405.286H120.933L119.605 410.34H119.545L118.341 405.286H116.661L118.742 412.559ZM127.466 412.559H132.381V411.291H129.004V409.555H132.115V408.287H129.004V406.554H132.367V405.286H127.466V412.559ZM133.59 412.559H135.127V409.981H136.249L137.627 412.559H139.325L137.78 409.732C138.607 409.377 139.065 408.656 139.065 407.662C139.065 406.217 138.11 405.286 136.459 405.286H133.59V412.559ZM135.127 408.745V406.543H136.164C137.052 406.543 137.482 406.938 137.482 407.662C137.482 408.383 137.052 408.745 136.171 408.745H135.127Z" fill="black"/>
<path d="M187.874 685.862H189.372L190.754 681.107H190.81L192.195 685.862H193.694L195.775 678.589H194.095L192.891 683.653H192.828L191.503 678.589H190.065L188.737 683.642H188.676L187.472 678.589H185.793L187.874 685.862ZM196.598 685.862H201.513V684.594H198.136V682.858H201.246V681.59H198.136V679.857H201.498V678.589H196.598V685.862ZM206.666 680.681H208.14C208.119 679.385 207.053 678.49 205.434 678.49C203.84 678.49 202.671 679.37 202.678 680.691C202.675 681.764 203.431 682.378 204.66 682.673L205.452 682.872C206.244 683.064 206.684 683.291 206.688 683.781C206.684 684.314 206.18 684.676 205.399 684.676C204.6 684.676 204.024 684.306 203.975 683.578H202.487C202.526 685.152 203.651 685.965 205.416 685.965C207.192 685.965 208.236 685.116 208.239 683.784C208.236 682.573 207.323 681.931 206.059 681.647L205.406 681.49C204.774 681.345 204.244 681.11 204.255 680.588C204.255 680.12 204.671 679.775 205.423 679.775C206.158 679.775 206.609 680.109 206.666 680.681ZM208.997 679.857H211.223V685.862H212.743V679.857H214.97V678.589H208.997V679.857ZM185.96 691.857H188.186V697.862H189.706V691.857H191.933V690.589H185.96V691.857ZM199.277 694.225C199.277 691.846 197.8 690.49 195.872 690.49C193.933 690.49 192.466 691.846 192.466 694.225C192.466 696.594 193.933 697.961 195.872 697.961C197.8 697.961 199.277 696.605 199.277 694.225ZM197.718 694.225C197.718 695.767 196.987 696.601 195.872 696.601C194.753 696.601 194.025 695.767 194.025 694.225C194.025 692.684 194.753 691.85 195.872 691.85C196.987 691.85 197.718 692.684 197.718 694.225ZM201.78 697.862H203.278L204.66 693.107H204.717L206.102 697.862H207.6L209.681 690.589H208.002L206.798 695.653H206.734L205.409 690.589H203.971L202.643 695.642H202.582L201.379 690.589H199.699L201.78 697.862ZM210.504 697.862H215.419V696.594H212.042V694.858H215.153V693.59H212.042V691.857H215.405V690.589H210.504V697.862ZM216.627 697.862H218.165V695.284H219.287L220.665 697.862H222.362L220.818 695.035C221.645 694.68 222.103 693.959 222.103 692.965C222.103 691.519 221.148 690.589 219.497 690.589H216.627V697.862ZM218.165 694.048V691.846H219.202C220.09 691.846 220.519 692.24 220.519 692.965C220.519 693.686 220.09 694.048 219.209 694.048H218.165Z" fill="black"/>
<path d="M2.59375 417H25.4063V411.469H11.9688V411.25L16.6406 406.672C23.2188 400.672 24.9844 397.672 24.9844 394.031C24.9844 388.484 20.4531 384.562 13.5938 384.562C6.875 384.562 2.26563 388.578 2.28125 394.859H8.70313C8.6875 391.797 10.625 389.922 13.5469 389.922C16.3594 389.922 18.4531 391.672 18.4531 394.484C18.4531 397.031 16.8906 398.781 13.9844 401.578L2.59375 412.125V417ZM30.4961 417H37.2617V403.781H50.2773V398.203H37.2617V390.578H51.6836V385H30.4961V417Z" fill="black"/>
<path d="M149.887 619.89C148.639 619.674 147.955 618.816 147.955 618.006V617.61H147.109V618.006C147.109 618.798 146.419 619.674 145.177 619.89L145.513 620.55C146.473 620.364 147.175 619.824 147.529 619.122C147.883 619.824 148.591 620.358 149.551 620.55L149.887 619.89ZM145.057 621.498V622.14H150.061V621.498H145.057ZM153.475 621.564V620.646H155.047V620.022H151.969V619.446H154.879V618.834H151.969V618.294H155.005V617.664H151.165V620.646H152.683V621.564H150.577V622.206H155.581V621.564H153.475ZM157.2 619.89H158.994V617.754H156.384V618.384H158.184V619.266H156.39V621.54H156.888C157.89 621.54 158.7 621.504 159.6 621.348L159.516 620.706C158.736 620.838 158.04 620.88 157.2 620.886V619.89ZM159.9 617.28V622.824H160.692V617.28H159.9ZM146.437 625.432H147.055V627.868C146.845 627.874 146.641 627.886 146.437 627.886V625.432ZM147.817 625.432H148.291V624.796H145.189V625.432H145.669V627.904C145.453 627.904 145.243 627.904 145.045 627.904L145.129 628.552C146.119 628.546 147.391 628.522 148.555 628.324L148.507 627.754C148.279 627.784 148.051 627.808 147.817 627.82V625.432ZM148.861 624.292V629.818H149.659V624.292H148.861ZM154.207 626.314H151.933V625.744H154.207V626.314ZM154.987 624.496H154.207V625.126H151.933V624.496H151.147V626.944H154.987V624.496ZM155.581 627.466H150.577V628.096H152.665V629.818H153.457V628.096H155.581V627.466ZM159.024 627.4C159.174 626.488 159.174 625.816 159.174 625.282V624.832H156.33V625.462H158.394C158.394 625.954 158.376 626.548 158.25 627.334L159.024 627.4ZM157.818 626.416H157.038V628.048C156.69 628.054 156.354 628.054 156.048 628.054L156.12 628.702C157.08 628.696 158.316 628.672 159.438 628.48L159.396 627.91C158.892 627.97 158.352 628.006 157.818 628.024V626.416ZM161.184 626.506H160.44V624.28H159.648V629.806H160.44V627.166H161.184V626.506Z" fill="black"/>
<path d="M20.6664 593.614H22.3764V592.984H19.8744V596.698H20.3244C21.3324 596.698 21.9924 596.674 22.7364 596.536L22.6584 595.894C22.0284 596.002 21.4584 596.044 20.6664 596.05V593.614ZM23.4624 592.492V594.4H22.1124V595.036H23.4624V598.036H24.2544V592.492H23.4624ZM29.606 595.342H26.528V594.724H29.438V594.112H26.528V593.53H29.564V592.894H25.724V595.966H29.606V595.342ZM25.136 596.74V597.382H30.14V596.74H25.136ZM31.7595 595.096H33.5535V592.96H30.9435V593.59H32.7435V594.472H30.9495V596.746H31.4475C32.4495 596.746 33.2595 596.71 34.1595 596.554L34.0755 595.912C33.2955 596.044 32.5995 596.086 31.7595 596.092V595.096ZM34.4595 592.486V598.03H35.2515V592.486H34.4595ZM37.249 593.014H36.463V596.656H36.955C37.795 596.656 38.713 596.596 39.655 596.398L39.571 595.738C38.761 595.9 37.975 595.96 37.249 595.978V593.014ZM39.997 592.486V598.012H40.789V592.486H39.997ZM42.7806 595.108H44.5566V594.49H42.7806V593.59H44.7846V592.948H41.9886V596.77H42.4686C43.4586 596.77 44.2326 596.746 45.0966 596.614L45.0246 595.984C44.2686 596.098 43.6026 596.128 42.7806 596.134V595.108ZM45.4986 592.492V598.024H46.2966V592.492H45.4986ZM32.7257 602.096C31.4777 601.88 30.7937 601.022 30.7937 600.212V599.816H29.9477V600.212C29.9477 601.004 29.2577 601.88 28.0157 602.096L28.3517 602.756C29.3117 602.57 30.0137 602.03 30.3677 601.328C30.7217 602.03 31.4297 602.564 32.3897 602.756L32.7257 602.096ZM27.8957 603.704V604.346H32.8997V603.704H27.8957ZM34.7293 600.638H35.2993V603.074C35.1073 603.08 34.9153 603.086 34.7293 603.092V600.638ZM36.0613 600.638H36.5353V600.002H33.4873V600.638H33.9613V603.11C33.7453 603.11 33.5353 603.11 33.3433 603.11L33.4273 603.758C34.3693 603.758 35.6233 603.734 36.7453 603.536L36.6973 602.96C36.4933 602.99 36.2773 603.002 36.0613 603.02V600.638ZM38.5453 601.58H37.7413V599.498H36.9493V605.024H37.7413V602.234H38.5453V601.58Z" fill="black"/>
<path d="M287.49 394.498C286.242 394.282 285.558 393.424 285.558 392.614V392.218H284.712V392.614C284.712 393.406 284.022 394.282 282.78 394.498L283.116 395.158C284.076 394.972 284.778 394.432 285.132 393.73C285.486 394.432 286.194 394.966 287.154 395.158L287.49 394.498ZM282.66 396.106V396.748H287.664V396.106H282.66ZM290.321 392.32H289.529V393.124C289.529 394.198 289.073 395.266 288.107 395.68L288.581 396.334C289.241 396.022 289.691 395.428 289.937 394.69C290.183 395.368 290.609 395.914 291.245 396.202L291.695 395.56C290.759 395.158 290.321 394.15 290.321 393.124V392.32ZM291.965 391.888V397.432H292.757V391.888H291.965ZM278.622 402.506C278.208 402.506 277.932 402.068 277.932 401.246C277.932 400.43 278.208 399.992 278.622 399.992C279.03 399.992 279.312 400.43 279.312 401.246C279.312 402.068 279.03 402.506 278.622 402.506ZM278.622 399.278C277.782 399.278 277.17 400.034 277.17 401.246C277.17 402.464 277.782 403.226 278.622 403.226C279.456 403.226 280.074 402.464 280.074 401.246C280.074 400.034 279.456 399.278 278.622 399.278ZM282.27 400.976H281.466V398.894H280.674V404.42H281.466V401.63H282.27V400.976ZM283.668 401.498H285.42V399.362H282.882V399.992H284.64V400.874H282.888V403.154H283.356C284.316 403.154 285.078 403.118 285.906 402.968L285.834 402.326C285.114 402.452 284.46 402.494 283.668 402.5V401.498ZM287.79 400.976H286.998V398.888H286.206V404.432H286.998V401.63H287.79V400.976ZM288.449 399.392V403.106H291.107V399.392H288.449ZM290.327 400.016V402.482H289.229V400.016H290.327ZM291.965 398.894V404.432H292.757V398.894H291.965ZM294.203 402.32C295.163 402.146 295.853 401.66 296.201 401.006C296.549 401.648 297.251 402.122 298.223 402.29L298.523 401.666C297.275 401.48 296.621 400.748 296.615 399.986H298.277V399.362H294.113V399.986H295.775C295.769 400.748 295.115 401.498 293.897 401.69L294.203 402.32ZM293.699 403.118V403.76H298.703V403.118H293.699Z" fill="black"/>
<path d="M229.811 397.434H232.193V398.898H229.811V397.434ZM231.401 400.644V399.522H232.967V396.81H229.037V399.522H230.609V400.644H228.509V401.286H233.513V400.644H231.401ZM238.492 398.31H235.432V398.01H238.324V397.434H235.432V397.146H238.45V396.546H234.646V398.91H238.492V398.31ZM237.634 401.022C237.634 401.25 237.274 401.352 236.512 401.352C235.75 401.352 235.396 401.25 235.396 401.022C235.396 400.794 235.75 400.698 236.512 400.698C237.274 400.698 237.634 400.794 237.634 401.022ZM239.02 399.816V399.192H234.022V399.816H236.122V400.128C235.15 400.194 234.598 400.494 234.598 401.022C234.598 401.61 235.3 401.934 236.512 401.934C237.724 401.934 238.432 401.61 238.432 401.022C238.432 400.5 237.88 400.194 236.914 400.128V399.816H239.02ZM243.334 396.396V401.94H244.126V396.396H243.334ZM241.156 396.786C240.322 396.786 239.704 397.542 239.704 398.754C239.704 399.972 240.322 400.734 241.156 400.734C241.99 400.734 242.608 399.972 242.608 398.754C242.608 397.542 241.99 396.786 241.156 396.786ZM241.156 397.5C241.564 397.5 241.846 397.938 241.846 398.754C241.846 399.576 241.564 400.014 241.156 400.014C240.748 400.014 240.466 399.576 240.466 398.754C240.466 397.938 240.748 397.5 241.156 397.5ZM247.557 397.218C248.277 397.218 248.739 397.434 248.739 397.83C248.739 398.232 248.277 398.448 247.557 398.448C246.831 398.448 246.369 398.232 246.369 397.83C246.369 397.434 246.831 397.218 247.557 397.218ZM247.557 399.078C248.733 399.078 249.555 398.592 249.555 397.83C249.555 397.08 248.733 396.588 247.557 396.588C246.375 396.588 245.559 397.08 245.559 397.83C245.559 398.592 246.375 399.078 247.557 399.078ZM250.071 399.492H245.067V400.128H247.155V401.934H247.947V400.128H250.071V399.492Z" fill="black"/>
<path d="M287.623 450.331V452.941H288.288V450.331H287.623ZM285.223 453.146V454.881H288.288V453.146H285.223ZM287.643 453.661V454.366H285.873V453.661H287.643ZM285.783 450.541C285.068 450.541 284.528 451.001 284.528 451.651C284.528 452.296 285.068 452.756 285.783 452.756C286.498 452.756 287.033 452.296 287.033 451.651C287.033 451.001 286.498 450.541 285.783 450.541ZM285.783 451.091C286.128 451.091 286.388 451.301 286.388 451.651C286.388 451.996 286.128 452.206 285.783 452.206C285.433 452.206 285.173 451.996 285.173 451.651C285.173 451.301 285.433 451.091 285.783 451.091ZM291.608 452.636H290.668V451.256H291.608V452.636ZM290.013 452.636H289.413V453.161H292.873V452.636H292.263V451.256H292.888V450.731H289.388V451.256H290.013V452.636ZM289.063 453.866V454.401H293.233V453.866H289.063ZM294.427 452.546H295.412V450.781H293.782V451.306H294.772V452.026H293.787V453.861H294.112C294.687 453.861 295.197 453.846 295.792 453.741L295.737 453.211C295.272 453.286 294.862 453.311 294.427 453.321V452.546ZM296.052 451.896H295.597V452.436H296.052V454.721H296.662V450.411H296.052V451.896ZM296.987 450.326V454.931H297.612V450.326H296.987ZM301.452 453.741H302.112V450.331H301.452V450.931H300.687V451.456H301.452V451.816H300.687V452.346H301.452V453.741ZM301.012 452.661C300.282 452.386 299.982 451.756 299.982 451.126V450.591H299.312V451.126C299.312 451.796 298.997 452.441 298.237 452.711L298.582 453.226C299.107 453.031 299.457 452.656 299.652 452.186C299.842 452.626 300.167 452.981 300.647 453.171L301.012 452.661ZM299.732 454.331V453.431H299.072V454.856H302.212V454.331H299.732Z" fill="black"/>
<path d="M162.466 417.836V418.256H163.63C163.614 418.432 163.586 418.592 163.55 418.748L162.27 418.82L162.338 419.264L163.39 419.168C163.178 419.572 162.822 419.912 162.25 420.212L162.538 420.612C163.858 419.92 164.154 418.968 164.154 417.836H162.466ZM164.834 417.484V418.896H164.146V419.324H164.834V421.168H165.362V417.484H164.834ZM166.882 418.248H167.294V419.872C167.154 419.876 167.018 419.884 166.882 419.884V418.248ZM167.802 418.248H168.118V417.824H166.05V418.248H166.37V419.896C166.226 419.896 166.086 419.896 165.954 419.896L166.01 420.328C166.67 420.324 167.518 420.308 168.294 420.176L168.262 419.796C168.11 419.816 167.958 419.832 167.802 419.84V418.248ZM168.498 417.488V421.172H169.03V417.488H168.498ZM163.662 424.22C162.83 424.076 162.374 423.504 162.374 422.964V422.7H161.81V422.964C161.81 423.492 161.35 424.076 160.522 424.22L160.746 424.66C161.386 424.536 161.854 424.176 162.09 423.708C162.326 424.176 162.798 424.532 163.438 424.66L163.662 424.22ZM160.442 425.292V425.72H163.778V425.292H160.442ZM164.838 422.832H164.314V425.26H164.642C165.202 425.26 165.814 425.22 166.442 425.088L166.386 424.648C165.846 424.756 165.322 424.796 164.838 424.808V422.832ZM166.67 422.48V426.164H167.198V422.48H166.67ZM168.702 423.228H169.066V424.88C168.942 424.888 168.822 424.892 168.702 424.896V423.228ZM169.574 423.228H169.918V422.808H167.886V423.228H168.19V424.908C168.05 424.908 167.914 424.908 167.786 424.908L167.842 425.336C168.47 425.336 169.306 425.32 170.042 425.192L170.01 424.808C169.87 424.824 169.722 424.84 169.574 424.848V423.228ZM170.366 422.484V423.82H169.818V424.248H170.366V426.172H170.894V422.484H170.366Z" fill="black"/>
<path d="M157.692 466.682C157.692 466.4 157.953 466.235 158.331 466.235C158.712 466.235 158.973 466.4 158.973 466.682C158.973 466.964 158.712 467.129 158.331 467.129C157.953 467.129 157.692 466.964 157.692 466.682ZM158.529 467.9V467.432C159.018 467.375 159.363 467.093 159.363 466.682C159.363 466.22 158.922 465.92 158.331 465.92C157.743 465.92 157.302 466.22 157.302 466.682C157.302 467.093 157.647 467.372 158.133 467.432V467.9H157.083V468.221H159.585V467.9H158.529ZM160.395 467.081H161.292V466.013H159.987V466.328H160.887V466.769H159.99V467.906H160.239C160.74 467.906 161.145 467.888 161.595 467.81L161.553 467.489C161.163 467.555 160.815 467.576 160.395 467.579V467.081ZM161.745 465.776V468.548H162.141V465.776H161.745ZM163.67 466.37H164.24V466.043H162.692V466.37H163.268V466.523C163.268 466.994 163.043 467.501 162.581 467.708L162.806 468.023C163.13 467.876 163.352 467.573 163.475 467.213C163.598 467.546 163.817 467.816 164.138 467.954L164.354 467.642C163.892 467.45 163.67 466.973 163.67 466.523V466.37ZM164.495 465.779V468.542H164.891V465.779H164.495ZM167.276 467.174H167.672V465.776H167.276V466.163H166.607V466.478H167.276V467.174ZM166.952 466.691C166.586 466.754 166.241 466.781 165.905 466.787V465.89H165.512V467.114H165.746C166.145 467.114 166.556 467.093 167.003 467.009L166.952 466.691ZM166.25 468.2V468.032H167.672V467.279H165.851V467.588H167.276V467.741H165.854V468.509H167.741V468.2H166.25ZM158.874 470.901H159.063V471.87H159.438V469.782H159.063V470.58H158.874V469.83H158.505V471.78H158.874V470.901ZM157.632 470.349H157.845V471.108C157.776 471.111 157.701 471.114 157.632 471.114V470.349ZM158.397 471.063C158.337 471.072 158.268 471.078 158.199 471.087V470.349H158.37V470.034H157.107V470.349H157.278V471.123C157.2 471.123 157.128 471.123 157.059 471.123L157.101 471.444C157.443 471.444 157.998 471.435 158.421 471.351L158.397 471.063ZM157.962 472.179V471.621H157.563V472.494H159.504V472.179H157.962ZM161.268 470.82H160.983C161.04 470.595 161.061 470.349 161.061 470.088H159.984V470.406H160.68C160.671 470.517 160.656 470.622 160.632 470.721L159.846 470.763L159.891 471.093L160.527 471.027C160.398 471.291 160.179 471.519 159.831 471.723L160.05 471.999C160.47 471.756 160.728 471.465 160.875 471.135H161.268V472.419H161.637V469.839H161.268V470.82ZM161.844 469.776V472.539H162.219V469.776H161.844ZM164.495 469.776V472.548H164.891V469.776H164.495ZM163.406 469.971C162.989 469.971 162.68 470.349 162.68 470.955C162.68 471.564 162.989 471.945 163.406 471.945C163.823 471.945 164.132 471.564 164.132 470.955C164.132 470.349 163.823 469.971 163.406 469.971ZM163.406 470.328C163.61 470.328 163.751 470.547 163.751 470.955C163.751 471.366 163.61 471.585 163.406 471.585C163.202 471.585 163.061 471.366 163.061 470.955C163.061 470.547 163.202 470.328 163.406 470.328ZM165.566 470.835L165.614 471.156L167.192 471.075C167.174 471.261 167.144 471.462 167.09 471.687L167.48 471.726C167.609 471.126 167.609 470.745 167.609 470.343V470.022H165.644V470.337H167.219V470.343C167.219 470.484 167.219 470.628 167.213 470.781L165.566 470.835ZM165.365 471.891V472.215H167.861V471.891H165.365Z" fill="black"/>
</g>
<path fill-rule="evenodd" clip-rule="evenodd" d="M87.789 620.844C91.317 620.235 94 617.168 94 613.477C94 609.348 90.6421 606 86.5 606C82.3579 606 79 609.348 79 613.477C79 617.168 81.683 620.235 85.211 620.844L86.5 626L87.789 620.844Z" fill="black"/>
<path fill-rule="evenodd" clip-rule="evenodd" d="M87.789 618.844C91.317 618.235 94 615.168 94 611.477C94 607.348 90.6421 604 86.5 604C82.3579 604 79 607.348 79 611.477C79 615.168 81.683 618.235 85.211 618.844L86.5 624L87.789 618.844Z" fill="#FF0000"/>
<ellipse cx="86.5" cy="611.477" rx="2.5" ry="2.49231" fill="white"/>
<path d="M69.5 615.998V549.498C129 528 132.5 495.5 129 439.498C129 439.5 211.5 439.498 211.5 439.498" stroke="#FF0000" stroke-width="3" stroke-linecap="round"/>
<path d="M6.78125 732.399H2.46777V735.927H7.47852V737H1.15527V727.047H7.41016V728.127H2.46777V731.326H6.78125V732.399ZM14.6084 734.402H10.4385L9.50195 737H8.14844L11.9492 727.047H13.0977L16.9053 737H15.5586L14.6084 734.402ZM10.835 733.322H14.2188L12.5234 728.667L10.835 733.322ZM21.1777 732.563C20.0521 732.24 19.2318 731.843 18.7168 731.374C18.2064 730.9 17.9512 730.317 17.9512 729.624C17.9512 728.84 18.2633 728.193 18.8877 727.683C19.5166 727.168 20.3324 726.91 21.335 726.91C22.0186 726.91 22.627 727.042 23.1602 727.307C23.6979 727.571 24.1126 727.936 24.4043 728.4C24.7005 728.865 24.8486 729.373 24.8486 729.925H23.5293C23.5293 729.323 23.3379 728.852 22.9551 728.51C22.5723 728.163 22.0322 727.99 21.335 727.99C20.6878 727.99 20.182 728.134 19.8174 728.421C19.4574 728.703 19.2773 729.098 19.2773 729.604C19.2773 730.009 19.4482 730.353 19.79 730.636C20.1364 730.914 20.722 731.169 21.5469 731.401C22.3763 731.634 23.0234 731.891 23.4883 732.174C23.9577 732.452 24.304 732.778 24.5273 733.151C24.7552 733.525 24.8691 733.965 24.8691 734.471C24.8691 735.277 24.5547 735.924 23.9258 736.412C23.2969 736.895 22.4561 737.137 21.4033 737.137C20.7197 737.137 20.0817 737.007 19.4893 736.747C18.8968 736.483 18.4388 736.123 18.1152 735.667C17.7962 735.211 17.6367 734.694 17.6367 734.115H18.9561C18.9561 734.717 19.1771 735.193 19.6191 735.544C20.0658 735.89 20.6605 736.063 21.4033 736.063C22.096 736.063 22.627 735.922 22.9961 735.64C23.3652 735.357 23.5498 734.972 23.5498 734.484C23.5498 733.997 23.3789 733.621 23.0371 733.356C22.6953 733.088 22.0755 732.823 21.1777 732.563ZM33.4346 728.127H30.2354V737H28.9297V728.127H25.7373V727.047H33.4346V728.127ZM48.2951 725.492H47.1891V732.016H48.2951V725.492ZM38.8451 728.81C38.8451 727.746 39.6151 726.976 40.6791 726.976C41.7291 726.976 42.4991 727.746 42.4991 728.81C42.4991 729.916 41.7291 730.686 40.6791 730.686C39.6151 730.686 38.8451 729.916 38.8451 728.81ZM44.8231 729.272V731.932H45.9011V725.744H44.8231V728.348H43.4931C43.2971 726.976 42.1771 726.066 40.6791 726.066C39.0131 726.066 37.8231 727.186 37.8231 728.81C37.8231 730.462 39.0131 731.596 40.6791 731.596C42.1771 731.596 43.3111 730.672 43.5071 729.272H44.8231ZM41.1691 736.944V735.6H48.2951V732.604H40.0071V733.514H47.1471V734.732H40.0351V737.868H48.7711V736.944H41.1691ZM52.452 731.12H57.086V726.64H51.262V727.578H55.924V730.196H51.304V735.012H52.34C54.496 735.012 56.4 734.928 58.668 734.55L58.556 733.612C56.358 733.962 54.51 734.06 52.452 734.06V731.12ZM59.732 725.464V738.05H60.88V725.464H59.732ZM67.6409 733.948H64.9949V730.7H67.6409V733.948ZM70.5389 730.252H68.7189V726.724H67.6409V729.776H64.9949V726.724H63.9029V734.886H68.7189V731.19H70.5389V737.42H71.6309V725.758H70.5389V730.252ZM73.0309 725.478V738.036H74.1229V725.478H73.0309ZM85.4618 725.478V738.064H86.6098V725.478H85.4618ZM79.9878 726.444C78.1258 726.444 76.7958 728.152 76.7958 730.826C76.7958 733.5 78.1258 735.208 79.9878 735.208C81.8498 735.208 83.1798 733.5 83.1798 730.826C83.1798 728.152 81.8498 726.444 79.9878 726.444ZM79.9878 727.48C81.2058 727.48 82.0738 728.796 82.0738 730.826C82.0738 732.87 81.2058 734.186 79.9878 734.186C78.7558 734.186 77.8878 732.87 77.8878 730.826C77.8878 728.796 78.7558 727.48 79.9878 727.48ZM90.9347 731.078H95.0507V730.154H90.9347V727.564H95.5967V726.612H89.7867V735.026H90.7527C93.1467 735.026 94.6727 734.956 96.4927 734.634L96.3667 733.696C94.6587 734.004 93.2027 734.088 90.9347 734.088V731.078ZM98.4107 725.464V730.21H95.8207V731.162H98.4107V738.05H99.5587V725.464H98.4107ZM108.35 735.544V733.178H112.368V732.254H104.64V730.224H112.074V726.402H103.478V727.34H110.954V729.3H103.506V733.178H107.188V735.544H102.078V736.482H113.488V735.544H108.35ZM125.05 737H118.528V736.091L121.974 732.263C122.484 731.684 122.835 731.215 123.026 730.854C123.222 730.49 123.32 730.114 123.32 729.727C123.32 729.207 123.163 728.781 122.849 728.448C122.534 728.116 122.115 727.949 121.591 727.949C120.962 727.949 120.472 728.129 120.121 728.489C119.775 728.845 119.602 729.341 119.602 729.979H118.337C118.337 729.063 118.631 728.323 119.219 727.758C119.811 727.193 120.602 726.91 121.591 726.91C122.516 726.91 123.247 727.154 123.785 727.642C124.323 728.125 124.592 728.77 124.592 729.576C124.592 730.556 123.967 731.723 122.719 733.076L120.053 735.968H125.05V737ZM132.207 732.604H128.03V737H126.718V727.047H132.884V728.127H128.03V731.531H132.207V732.604ZM141.197 734.284C140.063 734.284 139.237 733.472 139.237 732.352C139.237 731.218 140.063 730.406 141.197 730.406C142.345 730.406 143.171 731.218 143.171 732.352C143.171 733.472 142.345 734.284 141.197 734.284ZM141.197 729.454C139.433 729.454 138.159 730.658 138.159 732.352C138.159 734.06 139.433 735.236 141.197 735.236C142.989 735.236 144.263 734.06 144.263 732.352C144.263 730.658 142.989 729.454 141.197 729.454ZM141.757 725.632H140.609V727.494H137.445V728.418H144.851V727.494H141.757V725.632ZM149.247 730.644H147.189V725.492H146.041V738.036H147.189V731.61H149.247V730.644ZM154.594 728.572H157.38V727.648H154.594V725.702H153.446V727.648H150.618V728.572H153.46V729.552C153.46 731.722 152.116 733.85 150.282 734.746L150.926 735.614C152.354 734.914 153.502 733.458 154.034 731.736C154.566 733.346 155.63 734.718 157.002 735.39L157.646 734.494C155.84 733.626 154.594 731.568 154.594 729.552V728.572ZM162.126 730.644H160.054V725.478H158.906V738.036H160.054V731.596H162.126V730.644ZM177.428 726.92H173.004V725.408H171.842V726.92H167.334V727.844H177.428V726.92ZM175.3 730.658C175.3 731.428 174.264 731.876 172.43 731.876C170.596 731.876 169.532 731.428 169.532 730.658C169.532 729.888 170.596 729.44 172.43 729.44C174.264 729.44 175.3 729.888 175.3 730.658ZM168.342 730.658C168.342 732.002 169.868 732.744 172.43 732.744C174.964 732.744 176.49 732.002 176.49 730.658C176.49 729.314 174.964 728.558 172.43 728.558C169.868 728.558 168.342 729.314 168.342 730.658ZM178.128 733.626H166.746V734.564H171.842V738.05H173.004V734.564H178.128V733.626ZM184.931 729.23C184.931 728.068 185.883 727.27 187.157 727.27C188.473 727.27 189.411 728.068 189.411 729.23C189.411 730.406 188.473 731.218 187.157 731.218C185.883 731.218 184.931 730.406 184.931 729.23ZM187.731 732.156C189.397 731.96 190.531 730.812 190.531 729.23C190.531 727.48 189.131 726.29 187.157 726.29C185.225 726.29 183.811 727.48 183.811 729.23C183.811 730.812 184.959 731.946 186.583 732.156V734.326C185.351 734.368 184.189 734.368 183.181 734.368L183.321 735.334C185.589 735.334 188.627 735.306 191.455 734.788L191.357 733.934C190.195 734.116 188.949 734.214 187.731 734.284V732.156ZM192.183 725.464V738.064H193.331V725.464H192.183ZM204.768 730.476H198.538V728.628H204.768V730.476ZM205.916 725.982H204.768V727.704H198.538V725.982H197.404V731.414H205.916V725.982ZM207.358 732.926H195.962V733.85H201.058V738.05H202.206V733.85H207.358V732.926ZM215.561 728.74V729.678H218.039V732.968H219.201V725.492H218.039V728.74H215.561ZM216.261 731.596C214.441 730.952 213.209 729.37 213.209 727.76V727.326H215.967V726.402H209.261V727.326H212.061V727.76C212.061 729.566 210.773 731.26 208.897 731.946L209.499 732.856C210.969 732.296 212.131 731.12 212.663 729.664C213.209 730.952 214.287 731.988 215.687 732.492L216.261 731.596ZM215.057 737.14C213.167 737.14 212.019 736.608 212.019 735.698C212.019 734.788 213.167 734.242 215.057 734.242C216.947 734.242 218.095 734.788 218.095 735.698C218.095 736.608 216.947 737.14 215.057 737.14ZM215.057 733.36C212.481 733.36 210.871 734.214 210.871 735.698C210.871 737.182 212.481 738.036 215.057 738.036C217.633 738.036 219.243 737.182 219.243 735.698C219.243 734.214 217.633 733.36 215.057 733.36ZM228.314 732.898V733.752H230.862V735.04H232.01V725.478H230.862V732.898H228.314ZM225.752 726.836C226.942 726.836 227.754 727.368 227.754 728.166C227.754 728.978 226.942 729.51 225.752 729.51C224.562 729.51 223.75 728.978 223.75 728.166C223.75 727.368 224.562 726.836 225.752 726.836ZM225.752 730.364C227.586 730.364 228.846 729.51 228.846 728.166C228.846 726.85 227.586 725.982 225.752 725.982C223.918 725.982 222.658 726.85 222.658 728.166C222.658 729.51 223.918 730.364 225.752 730.364ZM225.304 734.592H226.452V732.114C227.586 732.044 228.748 731.918 229.854 731.75L229.756 730.924C227.096 731.26 223.988 731.288 221.664 731.288L221.818 732.24C222.854 732.24 224.058 732.226 225.304 732.17V734.592ZM224.604 736.818V734.102H223.456V737.756H232.332V736.818H224.604ZM240.283 726.556C242.341 726.556 243.517 727.032 243.517 727.872C243.517 728.712 242.341 729.188 240.283 729.188C238.225 729.188 237.049 728.712 237.049 727.872C237.049 727.032 238.225 726.556 240.283 726.556ZM240.283 730.042C243.041 730.042 244.693 729.286 244.693 727.872C244.693 726.458 243.041 725.688 240.283 725.688C237.525 725.688 235.873 726.458 235.873 727.872C235.873 729.286 237.525 730.042 240.283 730.042ZM237.133 735.726H244.511V732.898H235.971V733.766H243.377V734.886H236.013V737.896H244.889V737H237.133V735.726ZM234.599 730.896V731.82H245.967V730.896H234.599ZM256.635 737.154C254.619 737.154 253.485 736.762 253.485 736.006C253.485 735.264 254.619 734.858 256.635 734.858C258.665 734.858 259.785 735.264 259.785 736.006C259.785 736.762 258.665 737.154 256.635 737.154ZM256.635 734.004C253.905 734.004 252.337 734.704 252.337 736.006C252.337 737.322 253.905 738.022 256.635 738.022C259.365 738.022 260.933 737.322 260.933 736.006C260.933 734.704 259.365 734.004 256.635 734.004ZM257.209 732.128V730.896H260.989V730H253.597V728.768H260.583V727.9H253.597V726.738H260.919V725.842H252.449V730.896H256.061V732.128H250.951V733.052H262.319V732.128H257.209ZM266.952 734.172C265.972 734.172 265.286 733.374 265.286 732.254C265.286 731.162 265.972 730.364 266.952 730.364C267.918 730.364 268.618 731.162 268.618 732.254C268.618 733.374 267.918 734.172 266.952 734.172ZM266.952 729.398C265.398 729.398 264.264 730.574 264.264 732.254C264.264 733.962 265.398 735.124 266.952 735.124C268.506 735.124 269.64 733.962 269.64 732.254C269.64 730.574 268.506 729.398 266.952 729.398ZM267.512 725.842H266.378V727.62H263.83V728.558H270.06V727.62H267.512V725.842ZM273.378 725.464V730.77H271.768V725.758H270.69V737.42H271.768V731.708H273.378V738.022H274.484V725.464H273.378ZM3.30176 749.862L3.49316 751.175L3.77344 749.992L5.74219 743.047H6.84961L8.77051 749.992L9.04395 751.195L9.25586 749.855L10.8008 743.047H12.1201L9.70703 753H8.51074L6.45996 745.747L6.30273 744.988L6.14551 745.747L4.01953 753H2.82324L0.416992 743.047H1.72949L3.30176 749.862ZM19.209 748.399H14.8955V751.927H19.9062V753H13.583V743.047H19.8379V744.127H14.8955V747.326H19.209V748.399ZM24.4727 748.563C23.347 748.24 22.5267 747.843 22.0117 747.374C21.5013 746.9 21.2461 746.317 21.2461 745.624C21.2461 744.84 21.5583 744.193 22.1826 743.683C22.8115 743.168 23.6273 742.91 24.6299 742.91C25.3135 742.91 25.9219 743.042 26.4551 743.307C26.9928 743.571 27.4076 743.936 27.6992 744.4C27.9954 744.865 28.1436 745.373 28.1436 745.925H26.8242C26.8242 745.323 26.6328 744.852 26.25 744.51C25.8672 744.163 25.3271 743.99 24.6299 743.99C23.9827 743.99 23.4769 744.134 23.1123 744.421C22.7523 744.703 22.5723 745.098 22.5723 745.604C22.5723 746.009 22.7432 746.353 23.085 746.636C23.4313 746.914 24.0169 747.169 24.8418 747.401C25.6712 747.634 26.3184 747.891 26.7832 748.174C27.2526 748.452 27.599 748.778 27.8223 749.151C28.0501 749.525 28.1641 749.965 28.1641 750.471C28.1641 751.277 27.8496 751.924 27.2207 752.412C26.5918 752.895 25.751 753.137 24.6982 753.137C24.0146 753.137 23.3766 753.007 22.7842 752.747C22.1917 752.483 21.7337 752.123 21.4102 751.667C21.0911 751.211 20.9316 750.694 20.9316 750.115H22.251C22.251 750.717 22.472 751.193 22.9141 751.544C23.3607 751.89 23.9554 752.063 24.6982 752.063C25.391 752.063 25.9219 751.922 26.291 751.64C26.6602 751.357 26.8447 750.972 26.8447 750.484C26.8447 749.997 26.6738 749.621 26.332 749.356C25.9902 749.088 25.3704 748.823 24.4727 748.563ZM36.7295 744.127H33.5303V753H32.2246V744.127H29.0322V743.047H36.7295V744.127ZM48.0088 744.127H44.8096V753H43.5039V744.127H40.3115V743.047H48.0088V744.127ZM56.9502 748.345C56.9502 749.32 56.7861 750.172 56.458 750.901C56.1299 751.626 55.665 752.18 55.0635 752.562C54.4619 752.945 53.7601 753.137 52.958 753.137C52.1742 753.137 51.4792 752.945 50.873 752.562C50.2669 752.175 49.7952 751.626 49.458 750.915C49.1253 750.2 48.9544 749.372 48.9453 748.434V747.716C48.9453 746.759 49.1117 745.913 49.4443 745.18C49.777 744.446 50.2464 743.885 50.8525 743.498C51.4632 743.106 52.1605 742.91 52.9443 742.91C53.7419 742.91 54.4437 743.104 55.0498 743.491C55.6605 743.874 56.1299 744.432 56.458 745.166C56.7861 745.895 56.9502 746.745 56.9502 747.716V748.345ZM55.6445 747.702C55.6445 746.522 55.4076 745.617 54.9336 744.988C54.4596 744.355 53.7965 744.038 52.9443 744.038C52.1149 744.038 51.4609 744.355 50.9824 744.988C50.5085 745.617 50.2646 746.492 50.251 747.613V748.345C50.251 749.489 50.4902 750.389 50.9688 751.045C51.4518 751.697 52.1149 752.022 52.958 752.022C53.8057 752.022 54.4619 751.715 54.9268 751.1C55.3916 750.48 55.6309 749.593 55.6445 748.44V747.702ZM61.0654 749.862L61.2568 751.175L61.5371 749.992L63.5059 743.047H64.6133L66.5342 749.992L66.8076 751.195L67.0195 749.855L68.5645 743.047H69.8838L67.4707 753H66.2744L64.2236 745.747L64.0664 744.988L63.9092 745.747L61.7832 753H60.5869L58.1807 743.047H59.4932L61.0654 749.862ZM76.9727 748.399H72.6592V751.927H77.6699V753H71.3467V743.047H77.6016V744.127H72.6592V747.326H76.9727V748.399ZM82.9541 748.974H80.6162V753H79.2969V743.047H82.5918C83.7129 743.047 84.5742 743.302 85.1758 743.812C85.7819 744.323 86.085 745.066 86.085 746.041C86.085 746.661 85.9163 747.201 85.5791 747.661C85.2464 748.121 84.7816 748.465 84.1846 748.693L86.5225 752.918V753H85.1143L82.9541 748.974ZM80.6162 747.9H82.6328C83.2845 747.9 83.8018 747.732 84.1846 747.395C84.5719 747.057 84.7656 746.606 84.7656 746.041C84.7656 745.426 84.5811 744.954 84.2119 744.626C83.8473 744.298 83.3187 744.132 82.626 744.127H80.6162V747.9ZM93.7754 751.544V749.178H97.7934V748.254H90.0654V746.224H97.4994V742.402H88.9034V743.34H96.3794V745.3H88.9314V749.178H92.6134V751.544H87.5034V752.482H98.9134V751.544H93.7754ZM112.997 741.478V754.064H114.145V741.478H112.997ZM107.523 742.444C105.661 742.444 104.331 744.152 104.331 746.826C104.331 749.5 105.661 751.208 107.523 751.208C109.385 751.208 110.715 749.5 110.715 746.826C110.715 744.152 109.385 742.444 107.523 742.444ZM107.523 743.48C108.741 743.48 109.609 744.796 109.609 746.826C109.609 748.87 108.741 750.186 107.523 750.186C106.291 750.186 105.423 748.87 105.423 746.826C105.423 744.796 106.291 743.48 107.523 743.48ZM122.432 753.14C120.444 753.14 119.282 752.65 119.282 751.768C119.282 750.886 120.444 750.396 122.432 750.396C124.392 750.396 125.554 750.886 125.554 751.768C125.554 752.65 124.392 753.14 122.432 753.14ZM122.432 749.5C119.744 749.5 118.12 750.312 118.12 751.768C118.12 753.224 119.744 754.036 122.432 754.036C125.092 754.036 126.716 753.224 126.716 751.768C126.716 750.312 125.092 749.5 122.432 749.5ZM123.006 747.68V746.224H126.786V745.3H119.324V742.976H126.702V742.052H118.176V746.224H121.858V747.68H116.748V748.604H128.116V747.68H123.006ZM133.309 750.284C132.175 750.284 131.349 749.472 131.349 748.352C131.349 747.218 132.175 746.406 133.309 746.406C134.457 746.406 135.283 747.218 135.283 748.352C135.283 749.472 134.457 750.284 133.309 750.284ZM133.309 745.454C131.545 745.454 130.271 746.658 130.271 748.352C130.271 750.06 131.545 751.236 133.309 751.236C135.101 751.236 136.375 750.06 136.375 748.352C136.375 746.658 135.101 745.454 133.309 745.454ZM133.869 741.632H132.721V743.494H129.557V744.418H136.963V743.494H133.869V741.632ZM141.359 746.644H139.301V741.492H138.153V754.036H139.301V747.61H141.359V746.644ZM146.23 742.668H145.124V745.062C145.124 747.218 144.088 749.472 142.366 750.48L143.08 751.334C144.326 750.564 145.236 749.15 145.684 747.484C146.132 749.01 146.972 750.34 148.162 751.068L148.82 750.172C147.168 749.164 146.23 747.036 146.23 745.02V742.668ZM149.534 745.986H147.462V746.938H149.534V753.42H150.612V741.758H149.534V745.986ZM152.082 741.478V754.036H153.174V741.478H152.082ZM159.319 748.52C159.837 748.646 160.439 748.716 161.055 748.716C161.685 748.716 162.287 748.646 162.819 748.52V751.474H159.319V748.52ZM161.055 743.172C163.071 743.172 164.527 744.096 164.527 745.496C164.527 746.896 163.071 747.82 161.055 747.82C159.039 747.82 157.597 746.896 157.597 745.496C157.597 744.096 159.039 743.172 161.055 743.172ZM163.967 751.474V748.072C165.003 747.526 165.619 746.63 165.619 745.496C165.619 743.536 163.729 742.276 161.055 742.276C158.395 742.276 156.491 743.536 156.491 745.496C156.491 746.63 157.121 747.54 158.171 748.086V751.474H155.371V752.426H166.781V751.474H163.967ZM168.506 752.337C168.506 752.118 168.57 751.936 168.697 751.79C168.829 751.644 169.025 751.571 169.285 751.571C169.545 751.571 169.741 751.644 169.873 751.79C170.01 751.936 170.078 752.118 170.078 752.337C170.078 752.547 170.01 752.722 169.873 752.863C169.741 753.005 169.545 753.075 169.285 753.075C169.025 753.075 168.829 753.005 168.697 752.863C168.57 752.722 168.506 752.547 168.506 752.337Z" fill="black"/>
<rect x="11" y="312" width="5" height="53.1429" fill="url(#paint0_linear)"/>
<path d="M13.5 372L6.13879 359.25L20.8612 359.25L13.5 372Z" fill="#FF0000"/>
<defs>
<linearGradient id="paint0_linear" x1="13.5" y1="312" x2="13.5" y2="365.143" gradientUnits="userSpaceOnUse">
<stop stop-color="#FF0000" stop-opacity="0"/>
<stop offset="0.546875" stop-color="#FF0000"/>
</linearGradient>
<clipPath id="clip0">
<rect width="315" height="330" fill="white" transform="translate(0 374)"/>
</clipPath>
</defs>
</svg>
