<svg width="315" height="740" viewBox="0 0 315 740" fill="none" xmlns="http://www.w3.org/2000/svg">
<path d="M206.616 33.3568H208.116V31.8568V1.5H313.5V328.5H1.5V61.5H161.319H162.819V60V33.3568H206.616Z" fill="#C4C4C4" stroke="black" stroke-width="3" stroke-miterlimit="10"/>
<path d="M251.266 85.3369H241.75V120.373H251.266V85.3369Z" fill="black"/>
<path d="M113.266 244.412H103.75V279.448H113.266V244.412Z" fill="black"/>
<path d="M276.806 85.3369H267.29V120.373H276.806V85.3369Z" fill="black"/>
<path d="M138.806 244.412H129.29V279.448H138.806V244.412Z" fill="black"/>
<path d="M265.448 85.3369H253.107V120.373H265.448V85.3369Z" fill="#FF0000"/>
<path d="M127.448 244.412H115.107V279.448H127.448V244.412Z" fill="black"/>
<path d="M240 85.4121H167V120.412H240V85.4121Z" fill="black"/>
<path d="M102 244.487H29V279.487H102V244.487Z" fill="black"/>
<path d="M262.869 106.285V100.971C262.869 100.414 262.44 99.9819 261.887 99.9819H256.607C256.054 99.9819 255.625 100.414 255.625 100.971V106.285C255.625 106.841 256.054 107.273 256.607 107.273H261.887C262.44 107.212 262.869 106.841 262.869 106.285ZM262.071 106.408H256.423V100.785H262.071V106.408Z" fill="white"/>
<path d="M260.168 96.5212C260.168 96.0886 260.782 96.0886 260.782 96.5212V98.2514L261.089 97.8806C261.334 97.6334 261.702 98.0042 261.457 98.2514L260.659 99.1783C260.536 99.3018 260.352 99.3018 260.229 99.1783L259.431 98.2514C259.185 97.9424 259.615 97.6334 259.799 97.8806L260.106 98.3132L260.168 96.5212Z" fill="white"/>
<path d="M257.773 98.9953C257.773 99.4279 258.387 99.4279 258.387 98.9953V97.2652L258.694 97.6359C258.94 97.8831 259.308 97.5123 259.062 97.2652L258.264 96.3383C258.141 96.2147 257.957 96.2147 257.834 96.3383L257.036 97.2652C256.791 97.5741 257.221 97.8831 257.405 97.6359L257.712 97.2034L257.773 98.9953Z" fill="white"/>
<path d="M260.905 102.453H259.861C259.738 102.453 259.615 102.577 259.615 102.7V103.998C259.615 104.122 259.677 104.183 259.799 104.183C259.799 104.183 259.861 104.183 259.922 104.183V105.852C259.922 106.161 260.352 106.161 260.352 105.852V104.183H260.413V105.852C260.413 106.161 260.843 106.161 260.843 105.852V104.183C260.905 104.183 260.966 104.183 260.966 104.183C261.089 104.183 261.15 104.122 261.15 103.998V102.7C261.15 102.577 261.027 102.453 260.905 102.453Z" fill="white"/>
<path d="M260.351 102.33C260.521 102.33 260.658 102.192 260.658 102.021C260.658 101.85 260.521 101.712 260.351 101.712C260.182 101.712 260.044 101.85 260.044 102.021C260.044 102.192 260.182 102.33 260.351 102.33Z" fill="white"/>
<path d="M258.695 102.453H257.651C257.528 102.453 257.405 102.577 257.405 102.7V103.998C257.405 104.122 257.467 104.183 257.589 104.183C257.589 104.183 257.651 104.183 257.712 104.183V105.852C257.712 106.161 258.142 106.161 258.142 105.852V104.183H258.203V105.852C258.203 106.161 258.633 106.161 258.633 105.852V104.183C258.695 104.183 258.756 104.183 258.756 104.183C258.879 104.183 258.94 104.122 258.94 103.998V102.7C258.94 102.577 258.817 102.453 258.695 102.453Z" fill="white"/>
<path d="M258.141 102.33C258.311 102.33 258.448 102.192 258.448 102.021C258.448 101.85 258.311 101.712 258.141 101.712C257.972 101.712 257.834 101.85 257.834 102.021C257.834 102.192 257.972 102.33 258.141 102.33Z" fill="white"/>
<path d="M124.869 265.36V260.046C124.869 259.49 124.44 259.057 123.887 259.057H118.607C118.054 259.057 117.625 259.49 117.625 260.046V265.36C117.625 265.916 118.054 266.349 118.607 266.349H123.887C124.44 266.287 124.869 265.916 124.869 265.36ZM124.071 265.484H118.423V259.86H124.071V265.484Z" fill="white"/>
<path d="M122.168 255.596C122.168 255.164 122.782 255.164 122.782 255.596V257.327L123.089 256.956C123.334 256.709 123.702 257.079 123.457 257.327L122.659 258.253C122.536 258.377 122.352 258.377 122.229 258.253L121.431 257.327C121.185 257.018 121.615 256.709 121.799 256.956L122.106 257.388L122.168 255.596Z" fill="white"/>
<path d="M119.773 258.071C119.773 258.503 120.387 258.503 120.387 258.071V256.34L120.694 256.711C120.94 256.958 121.308 256.588 121.062 256.34L120.264 255.413C120.141 255.29 119.957 255.29 119.834 255.413L119.036 256.34C118.791 256.649 119.221 256.958 119.405 256.711L119.712 256.279L119.773 258.071Z" fill="white"/>
<path d="M122.905 261.528H121.861C121.738 261.528 121.615 261.652 121.615 261.775V263.073C121.615 263.197 121.677 263.259 121.799 263.259C121.799 263.259 121.861 263.259 121.922 263.259V264.927C121.922 265.236 122.352 265.236 122.352 264.927V263.259H122.413V264.927C122.413 265.236 122.843 265.236 122.843 264.927V263.259C122.905 263.259 122.966 263.259 122.966 263.259C123.089 263.259 123.15 263.197 123.15 263.073V261.775C123.15 261.652 123.027 261.528 122.905 261.528Z" fill="white"/>
<path d="M122.351 261.405C122.521 261.405 122.658 261.267 122.658 261.096C122.658 260.925 122.521 260.787 122.351 260.787C122.182 260.787 122.044 260.925 122.044 261.096C122.044 261.267 122.182 261.405 122.351 261.405Z" fill="white"/>
<path d="M120.695 261.528H119.651C119.528 261.528 119.405 261.652 119.405 261.775V263.073C119.405 263.197 119.467 263.259 119.589 263.259C119.589 263.259 119.651 263.259 119.712 263.259V264.927C119.712 265.236 120.142 265.236 120.142 264.927V263.259H120.203V264.927C120.203 265.236 120.633 265.236 120.633 264.927V263.259C120.695 263.259 120.756 263.259 120.756 263.259C120.879 263.259 120.94 263.197 120.94 263.073V261.775C120.94 261.652 120.817 261.528 120.695 261.528Z" fill="white"/>
<path d="M120.141 261.405C120.311 261.405 120.448 261.267 120.448 261.096C120.448 260.925 120.311 260.787 120.141 260.787C119.972 260.787 119.834 260.925 119.834 261.096C119.834 261.267 119.972 261.405 120.141 261.405Z" fill="white"/>
<path d="M175.632 100.412H177.17V98.0542H178.462C180.135 98.0542 181.108 97.0563 181.108 95.6039C181.108 94.1586 180.153 93.1394 178.501 93.1394H175.632V100.412ZM177.17 96.8219V94.3965H178.207C179.094 94.3965 179.524 94.8794 179.524 95.6039C179.524 96.3248 179.094 96.8219 178.214 96.8219H177.17ZM183.487 100.515C184.293 100.515 184.815 100.164 185.082 99.6557H185.124V100.412H186.559V96.7331C186.559 95.4334 185.458 94.8865 184.244 94.8865C182.937 94.8865 182.077 95.5115 181.868 96.5059L183.267 96.6195C183.37 96.2573 183.693 95.9909 184.237 95.9909C184.751 95.9909 185.046 96.2502 185.046 96.6976V96.7189C185.046 97.0705 184.673 97.1167 183.725 97.209C182.646 97.3084 181.676 97.6706 181.676 98.8887C181.676 99.9682 182.447 100.515 183.487 100.515ZM183.92 99.4711C183.455 99.4711 183.121 99.2544 183.121 98.839C183.121 98.4128 183.473 98.2033 184.006 98.1287C184.336 98.0826 184.876 98.0044 185.057 97.8837V98.4625C185.057 99.0343 184.585 99.4711 183.92 99.4711ZM187.733 100.412H189.245V97.3262C189.245 96.655 189.735 96.1934 190.403 96.1934C190.613 96.1934 190.9 96.2289 191.042 96.275V94.9327C190.907 94.9007 190.719 94.8794 190.566 94.8794C189.956 94.8794 189.455 95.2346 189.256 95.9093H189.199V94.9576H187.733V100.412ZM191.824 100.412H193.337V98.6792L193.746 98.214L195.233 100.412H197.006L194.878 97.3191L196.903 94.9576H195.166L193.419 97.0279H193.337V93.1394H191.824V100.412ZM197.645 100.412H199.157V94.9576H197.645V100.412ZM198.405 94.2544C198.856 94.2544 199.225 93.91 199.225 93.4874C199.225 93.0684 198.856 92.7239 198.405 92.7239C197.957 92.7239 197.588 93.0684 197.588 93.4874C197.588 93.91 197.957 94.2544 198.405 94.2544ZM201.882 97.2587C201.886 96.5556 202.305 96.1436 202.915 96.1436C203.523 96.1436 203.888 96.5414 203.885 97.209V100.412H205.398V96.9391C205.398 95.6678 204.652 94.8865 203.516 94.8865C202.706 94.8865 202.12 95.2843 201.875 95.9199H201.811V94.9576H200.369V100.412H201.882V97.2587ZM209.047 102.571C210.606 102.571 211.714 101.861 211.714 100.465V94.9576H210.212V95.8738H210.155C209.953 95.4299 209.509 94.8865 208.596 94.8865C207.4 94.8865 206.388 95.8169 206.388 97.6742C206.388 99.4888 207.371 100.334 208.6 100.334C209.47 100.334 209.956 99.8972 210.155 99.4462H210.219V100.444C210.219 101.193 209.74 101.485 209.083 101.485C208.415 101.485 208.078 101.193 207.954 100.863L206.555 101.051C206.736 101.911 207.577 102.571 209.047 102.571ZM209.079 99.1976C208.337 99.1976 207.932 98.6081 207.932 97.6671C207.932 96.7402 208.33 96.0904 209.079 96.0904C209.814 96.0904 210.226 96.7118 210.226 97.6671C210.226 98.6294 209.807 99.1976 209.079 99.1976ZM175.632 112.412H180.547V111.144H177.17V109.408H180.281V108.14H177.17V106.407H180.533V105.139H175.632V112.412ZM183.009 112.412L183.548 110.754H186.173L186.713 112.412H188.36L185.853 105.139H183.872L181.361 112.412H183.009ZM183.939 109.553L184.834 106.801H184.891L185.786 109.553H183.939ZM193.015 107.231H194.489C194.467 105.935 193.402 105.04 191.783 105.04C190.188 105.04 189.02 105.921 189.027 107.242C189.023 108.314 189.78 108.928 191.009 109.223L191.8 109.422C192.592 109.614 193.033 109.841 193.036 110.331C193.033 110.864 192.528 111.226 191.747 111.226C190.948 111.226 190.373 110.857 190.323 110.129H188.835C188.874 111.702 190 112.515 191.765 112.515C193.54 112.515 194.585 111.666 194.588 110.335C194.585 109.124 193.672 108.481 192.408 108.197L191.754 108.041C191.122 107.895 190.593 107.661 190.604 107.139C190.604 106.67 191.019 106.325 191.772 106.325C192.507 106.325 192.958 106.659 193.015 107.231ZM195.345 106.407H197.572V112.412H199.092V106.407H201.318V105.139H195.345V106.407ZM204.616 112.412H206.154V109.408H209.276V112.412H210.81V105.139H209.276V108.14H206.154V105.139H204.616V112.412ZM213.331 112.412L213.871 110.754H216.495L217.035 112.412H218.683L216.175 105.139H214.194L211.683 112.412H213.331ZM214.261 109.553L215.156 106.801H215.213L216.108 109.553H214.261ZM219.558 112.412H224.213V111.144H221.096V105.139H219.558V112.412ZM225.232 112.412H229.887V111.144H226.769V105.139H225.232V112.412Z" fill="white"/>
<path d="M37.6321 259.487H39.1697V257.129H40.4624C42.1349 257.129 43.108 256.131 43.108 254.679C43.108 253.234 42.1527 252.215 40.5014 252.215H37.6321V259.487ZM39.1697 255.897V253.472H40.2067C41.0945 253.472 41.5241 253.955 41.5241 254.679C41.5241 255.4 41.0945 255.897 40.2138 255.897H39.1697ZM45.4872 259.59C46.2933 259.59 46.8153 259.239 47.0817 258.731H47.1243V259.487H48.5589V255.808C48.5589 254.509 47.4581 253.962 46.2436 253.962C44.9368 253.962 44.0774 254.587 43.8679 255.581L45.267 255.695C45.37 255.332 45.6932 255.066 46.2365 255.066C46.7514 255.066 47.0462 255.325 47.0462 255.773V255.794C47.0462 256.146 46.6733 256.192 45.7251 256.284C44.6456 256.384 43.6761 256.746 43.6761 257.964C43.6761 259.043 44.4467 259.59 45.4872 259.59ZM45.9205 258.546C45.4553 258.546 45.1214 258.33 45.1214 257.914C45.1214 257.488 45.473 257.278 46.0057 257.204C46.3359 257.158 46.8757 257.08 47.0568 256.959V257.538C47.0568 258.109 46.5845 258.546 45.9205 258.546ZM49.7326 259.487H51.2454V256.401C51.2454 255.73 51.7354 255.269 52.4031 255.269C52.6126 255.269 52.9002 255.304 53.0423 255.35V254.008C52.9073 253.976 52.7191 253.955 52.5664 253.955C51.9556 253.955 51.4549 254.31 51.256 254.984H51.1992V254.033H49.7326V259.487ZM53.8244 259.487H55.3372V257.754L55.7456 257.289L57.2335 259.487H59.0055L56.8784 256.394L58.9025 254.033H57.166L55.4189 256.103H55.3372V252.215H53.8244V259.487ZM59.6447 259.487H61.1575V254.033H59.6447V259.487ZM60.4047 253.33C60.8556 253.33 61.225 252.985 61.225 252.563C61.225 252.144 60.8556 251.799 60.4047 251.799C59.9572 251.799 59.5879 252.144 59.5879 252.563C59.5879 252.985 59.9572 253.33 60.4047 253.33ZM63.8821 256.334C63.8857 255.631 64.3047 255.219 64.9155 255.219C65.5227 255.219 65.8885 255.617 65.8849 256.284V259.487H67.3977V256.014C67.3977 254.743 66.652 253.962 65.5156 253.962C64.706 253.962 64.12 254.359 63.875 254.995H63.8111V254.033H62.3693V259.487H63.8821V256.334ZM71.0474 261.646C72.6064 261.646 73.7143 260.936 73.7143 259.541V254.033H72.2122V254.949H72.1554C71.9529 254.505 71.5091 253.962 70.5964 253.962C69.3997 253.962 68.3876 254.892 68.3876 256.749C68.3876 258.564 69.3713 259.409 70.6 259.409C71.47 259.409 71.9565 258.972 72.1554 258.521H72.2193V259.519C72.2193 260.269 71.7399 260.56 71.0829 260.56C70.4153 260.56 70.0779 260.269 69.9537 259.938L68.5545 260.127C68.7356 260.986 69.5772 261.646 71.0474 261.646ZM71.0794 258.273C70.3372 258.273 69.9324 257.683 69.9324 256.742C69.9324 255.815 70.3301 255.166 71.0794 255.166C71.8145 255.166 72.2264 255.787 72.2264 256.742C72.2264 257.705 71.8074 258.273 71.0794 258.273ZM39.2692 271.487H40.7678L42.1491 266.732H42.206L43.5909 271.487H45.0895L47.1705 264.215H45.4908L44.2869 269.278H44.223L42.8984 264.215H41.4602L40.1321 269.268H40.0717L38.8679 264.215H37.1882L39.2692 271.487ZM47.9934 271.487H52.9082V270.22H49.5311V268.483H52.6419V267.215H49.5311V265.482H52.894V264.215H47.9934V271.487ZM58.0618 266.306H59.5355C59.5142 265.01 58.4489 264.115 56.8295 264.115C55.2351 264.115 54.0668 264.996 54.0739 266.317C54.0703 267.389 54.8267 268.004 56.0554 268.298L56.8473 268.497C57.6392 268.689 58.0795 268.916 58.0831 269.406C58.0795 269.939 57.5753 270.301 56.794 270.301C55.995 270.301 55.4197 269.932 55.37 269.204H53.8821C53.9212 270.777 55.0469 271.59 56.8118 271.59C58.5874 271.59 59.6314 270.742 59.6349 269.41C59.6314 268.199 58.7188 267.556 57.4545 267.272L56.8011 267.116C56.169 266.97 55.6399 266.736 55.6506 266.214C55.6506 265.745 56.0661 265.401 56.8189 265.401C57.554 265.401 58.005 265.734 58.0618 266.306ZM60.3922 265.482H62.6188V271.487H64.1387V265.482H66.3652V264.215H60.3922V265.482ZM69.6634 271.487H71.201V268.483H74.3224V271.487H75.8565V264.215H74.3224V267.215H71.201V264.215H69.6634V271.487ZM78.3778 271.487L78.9176 269.829H81.5419L82.0817 271.487H83.7294L81.2223 264.215H79.2408L76.7301 271.487H78.3778ZM79.3082 268.629L80.2031 265.877H80.2599L81.1548 268.629H79.3082ZM84.6048 271.487H89.2603V270.22H86.1424V264.215H84.6048V271.487ZM90.2786 271.487H94.9341V270.22H91.8162V264.215H90.2786V271.487Z" fill="white"/>
<path d="M2.78125 43.4121H9.54688V33.0371H15.2344C22.5937 33.0371 26.875 28.6465 26.875 22.2559C26.875 15.8965 22.6719 11.4121 15.4063 11.4121H2.78125V43.4121ZM9.54688 27.6152V16.9434H14.1094C18.0156 16.9434 19.9063 19.0684 19.9063 22.2559C19.9063 25.4277 18.0156 27.6152 14.1406 27.6152H9.54688Z" fill="black"/>
<path fill-rule="evenodd" clip-rule="evenodd" d="M229.789 95.8438C233.317 95.2346 236 92.1681 236 88.4769C236 84.3475 232.642 81 228.5 81C224.358 81 221 84.3475 221 88.4769C221 92.1681 223.683 95.2346 227.211 95.8438L228.5 101L229.789 95.8438Z" fill="black"/>
<path fill-rule="evenodd" clip-rule="evenodd" d="M229.789 93.8438C233.317 93.2346 236 90.1681 236 86.4769C236 82.3475 232.642 79 228.5 79C224.358 79 221 82.3475 221 86.4769C221 90.1681 223.683 93.2346 227.211 93.8438L228.5 99L229.789 93.8438Z" fill="#FF0000"/>
<ellipse cx="228.5" cy="86.4767" rx="2.5" ry="2.49231" fill="white"/>
<g clip-path="url(#clip0)">
<path d="M175 703.412L295 703.412C306.046 703.412 315 694.457 315 683.412L315 533.412L175 533.412L175 703.412Z" fill="#EDEAE6"/>
<path d="M222.429 607.347L204.784 616.227C203.239 617.01 202.263 618.664 202.263 620.406V652.008C202.263 654.62 204.215 656.622 206.573 656.622H227.796C230.235 656.622 232.105 654.533 232.105 652.008V644.434C232.105 644.26 232.105 644.086 232.105 643.912L228.446 611.003C228.202 607.869 225.112 605.954 222.429 607.347Z" fill="#84A359"/>
<path d="M243.079 679.281L236.006 689.843C234.663 691.851 235.737 694.557 238.155 695.081L257.046 699.62C258.478 699.97 259.911 699.446 260.806 698.311L264.566 693.335C265.372 692.288 265.462 690.978 264.924 689.843L260.269 679.717C259.732 678.495 258.389 677.622 257.046 677.622H246.033C244.869 677.709 243.706 678.32 243.079 679.281Z" fill="#84A359"/>
<path d="M218.842 698.508C218.842 697.222 218.134 696.022 216.896 695.507L201.588 687.962C199.376 686.848 196.81 688.22 196.544 690.62L195.66 698.165C195.394 700.137 197.075 701.938 199.11 701.938H215.214C217.25 701.938 218.842 700.395 218.842 698.508Z" fill="#84A359"/>
<path d="M251.752 594.704L274.025 559.546C274.967 558.036 276.595 557.148 278.308 557.148H302.123C304.95 557.148 307.263 559.546 307.263 562.475V605.979C307.263 608.909 304.95 611.306 302.123 611.306H261.775C260.147 611.306 258.52 610.507 257.578 609.087L251.838 600.652C250.639 598.965 250.553 596.568 251.752 594.704Z" fill="#84A359"/>
<path d="M267.882 616.833H302.954C305.367 616.833 307.263 618.716 307.263 621.113V665.207C307.263 666.406 306.746 667.604 305.798 668.461L296.405 676.594C295.63 677.279 294.596 677.622 293.561 677.622H283.221C280.808 677.622 278.912 675.738 278.912 673.341V663.495C278.912 661.097 277.016 659.214 274.603 659.214H269.261C267.71 659.214 266.331 658.358 265.555 657.073L257.024 642.433C256.679 641.748 256.421 641.063 256.421 640.292V633.014C256.421 632.244 256.593 631.473 257.024 630.788L264.176 618.716C264.952 617.603 266.417 616.833 267.882 616.833Z" fill="#84A359"/>
<path d="M283.442 683.148H295.73C297.255 683.148 298.421 684.386 298.421 685.801V691.548C298.421 693.052 297.165 694.201 295.73 694.201H286.133C285.057 694.201 284.16 693.582 283.711 692.698L281.02 686.951C280.124 685.182 281.469 683.148 283.442 683.148Z" fill="#84A359"/>
<path d="M154.737 582.775V572.035C154.737 568.008 158.411 565.144 162.17 566.218L184.898 573.288C188.145 574.273 189.854 578.032 188.572 581.343L181.822 598.705C180.968 600.943 178.832 602.464 176.525 602.464H160.462C157.3 602.464 154.737 599.779 154.737 596.468V582.775Z" fill="#84A359"/>
<path d="M185.971 584.78H187.228C188.652 584.78 189.909 585.654 190.496 586.964L197.617 603.034C199.377 606.964 199.377 611.418 197.701 615.436L189.239 635.611C187.731 639.279 182.369 638.143 182.369 634.126V588.448C182.369 586.44 183.961 584.78 185.971 584.78Z" fill="#84A359"/>
<path d="M144.79 477.35V523.043C144.79 524.672 145.578 526.215 146.893 527.244L152.328 531.359C166.177 541.904 182.13 549.448 199.223 553.563L208.777 555.877C212.196 556.735 215.526 554.163 215.526 550.734V506.841C215.526 504.783 214.387 502.983 212.546 502.04L152.766 472.721C148.997 470.749 144.79 473.321 144.79 477.35Z" fill="#84A359"/>
<path d="M209.448 703.043C211.584 703.043 213.316 701.064 213.316 698.622C213.316 696.181 211.584 694.201 209.448 694.201C207.311 694.201 205.579 696.181 205.579 698.622C205.579 701.064 207.311 703.043 209.448 703.043Z" fill="#507146"/>
<path d="M257.526 694.201C260.578 694.201 263.053 691.974 263.053 689.227C263.053 686.48 260.578 684.253 257.526 684.253C254.474 684.253 252 686.48 252 689.227C252 691.974 254.474 694.201 257.526 694.201Z" fill="#507146"/>
<path d="M145.895 525.096C148.336 525.096 150.316 523.117 150.316 520.675C150.316 518.233 148.336 516.254 145.895 516.254C143.453 516.254 141.474 518.233 141.474 520.675C141.474 523.117 143.453 525.096 145.895 525.096Z" fill="#B5B758"/>
<path d="M152.526 516.254C155.578 516.254 158.053 513.78 158.053 510.727C158.053 507.675 155.578 505.201 152.526 505.201C149.474 505.201 147 507.675 147 510.727C147 513.78 149.474 516.254 152.526 516.254Z" fill="#B5B758"/>
<path d="M204.474 557.148C206.915 557.148 208.895 555.169 208.895 552.727C208.895 550.286 206.915 548.306 204.474 548.306C202.032 548.306 200.053 550.286 200.053 552.727C200.053 555.169 202.032 557.148 204.474 557.148Z" fill="#B5B758"/>
<path d="M216.631 617.938C219.073 617.938 221.053 615.711 221.053 612.964C221.053 610.218 219.073 607.991 216.631 607.991C214.19 607.991 212.21 610.218 212.21 612.964C212.21 615.711 214.19 617.938 216.631 617.938Z" fill="#B5B758"/>
<path d="M219.947 633.412C222.389 633.412 224.368 631.432 224.368 628.99C224.368 626.549 222.389 624.569 219.947 624.569C217.506 624.569 215.526 626.549 215.526 628.99C215.526 631.432 217.506 633.412 219.947 633.412Z" fill="#B5B758"/>
<path d="M203.921 655.517C206.058 655.517 207.79 653.538 207.79 651.096C207.79 648.654 206.058 646.675 203.921 646.675C201.785 646.675 200.053 648.654 200.053 651.096C200.053 653.538 201.785 655.517 203.921 655.517Z" fill="#B5B758"/>
<path d="M270.237 614.622C272.374 614.622 274.105 612.148 274.105 609.096C274.105 606.044 272.374 603.569 270.237 603.569C268.101 603.569 266.369 606.044 266.369 609.096C266.369 612.148 268.101 614.622 270.237 614.622Z" fill="#B5B758"/>
<path d="M281.842 578.148C284.284 578.148 286.263 575.674 286.263 572.622C286.263 569.57 284.284 567.096 281.842 567.096C279.401 567.096 277.421 569.57 277.421 572.622C277.421 575.674 279.401 578.148 281.842 578.148Z" fill="#B5B758"/>
<path d="M265.263 580.359C267.705 580.359 269.684 578.38 269.684 575.938C269.684 573.496 267.705 571.517 265.263 571.517C262.822 571.517 260.842 573.496 260.842 575.938C260.842 578.38 262.822 580.359 265.263 580.359Z" fill="#B5B758"/>
<path d="M294.553 626.78C297.3 626.78 299.526 624.801 299.526 622.359C299.526 619.917 297.3 617.938 294.553 617.938C291.806 617.938 289.579 619.917 289.579 622.359C289.579 624.801 291.806 626.78 294.553 626.78Z" fill="#B5B758"/>
<path d="M281.842 632.306C284.284 632.306 286.263 630.327 286.263 627.885C286.263 625.444 284.284 623.464 281.842 623.464C279.401 623.464 277.421 625.444 277.421 627.885C277.421 630.327 279.401 632.306 281.842 632.306Z" fill="#B5B758"/>
<path d="M263.052 653.306C265.494 653.306 267.473 651.079 267.473 648.333C267.473 645.586 265.494 643.359 263.052 643.359C260.611 643.359 258.631 645.586 258.631 648.333C258.631 651.079 260.611 653.306 263.052 653.306Z" fill="#B5B758"/>
<path d="M282.395 674.307C284.531 674.307 286.263 671.832 286.263 668.78C286.263 665.728 284.531 663.254 282.395 663.254C280.258 663.254 278.526 665.728 278.526 668.78C278.526 671.832 280.258 674.307 282.395 674.307Z" fill="#B5B758"/>
<path d="M246.474 690.886C248.915 690.886 250.895 688.906 250.895 686.465C250.895 684.023 248.915 682.043 246.474 682.043C244.032 682.043 242.053 684.023 242.053 686.465C242.053 688.906 244.032 690.886 246.474 690.886Z" fill="#B5B758"/>
<path d="M213.868 687.57C216.615 687.57 218.842 685.59 218.842 683.149C218.842 680.707 216.615 678.728 213.868 678.728C211.121 678.728 208.895 680.707 208.895 683.149C208.895 685.59 211.121 687.57 213.868 687.57Z" fill="#B5B758"/>
<path d="M204.474 703.043C206.915 703.043 208.895 701.064 208.895 698.622C208.895 696.181 206.915 694.201 204.474 694.201C202.032 694.201 200.053 696.181 200.053 698.622C200.053 701.064 202.032 703.043 204.474 703.043Z" fill="#B5B758"/>
<path d="M285.158 666.569C287.6 666.569 289.579 664.343 289.579 661.596C289.579 658.849 287.6 656.622 285.158 656.622C282.716 656.622 280.737 658.849 280.737 661.596C280.737 664.343 282.716 666.569 285.158 666.569Z" fill="#507146"/>
<path d="M267.474 657.728C269.915 657.728 271.895 655.501 271.895 652.754C271.895 650.007 269.915 647.78 267.474 647.78C265.032 647.78 263.053 650.007 263.053 652.754C263.053 655.501 265.032 657.728 267.474 657.728Z" fill="#507146"/>
<path d="M212.21 628.99C215.262 628.99 217.737 627.258 217.737 625.122C217.737 622.985 215.262 621.253 212.21 621.253C209.158 621.253 206.684 622.985 206.684 625.122C206.684 627.258 209.158 628.99 212.21 628.99Z" fill="#507146"/>
<path d="M225.474 649.991C227.915 649.991 229.895 648.259 229.895 646.122C229.895 643.986 227.915 642.254 225.474 642.254C223.032 642.254 221.053 643.986 221.053 646.122C221.053 648.259 223.032 649.991 225.474 649.991Z" fill="#507146"/>
<path d="M277.974 579.254C280.721 579.254 282.947 577.274 282.947 574.833C282.947 572.391 280.721 570.412 277.974 570.412C275.227 570.412 273 572.391 273 574.833C273 577.274 275.227 579.254 277.974 579.254Z" fill="#507146"/>
<path d="M294.553 567.096C297.3 567.096 299.526 565.117 299.526 562.675C299.526 560.233 297.3 558.254 294.553 558.254C291.806 558.254 289.579 560.233 289.579 562.675C289.579 565.117 291.806 567.096 294.553 567.096Z" fill="#507146"/>
<path d="M152.526 532.833C155.578 532.833 158.053 530.606 158.053 527.859C158.053 525.112 155.578 522.885 152.526 522.885C149.474 522.885 147 525.112 147 527.859C147 530.606 149.474 532.833 152.526 532.833Z" fill="#507146"/>
<path d="M273 571.517C276.052 571.517 278.526 569.29 278.526 566.543C278.526 563.797 276.052 561.57 273 561.57C269.948 561.57 267.474 563.797 267.474 566.543C267.474 569.29 269.948 571.517 273 571.517Z" fill="#849258"/>
<path d="M265.263 605.78C267.705 605.78 269.684 604.048 269.684 601.911C269.684 599.775 267.705 598.043 265.263 598.043C262.822 598.043 260.842 599.775 260.842 601.911C260.842 604.048 262.822 605.78 265.263 605.78Z" fill="#849258"/>
<path d="M279.632 609.096C282.073 609.096 284.053 607.117 284.053 604.675C284.053 602.233 282.073 600.254 279.632 600.254C277.19 600.254 275.21 602.233 275.21 604.675C275.21 607.117 277.19 609.096 279.632 609.096Z" fill="#849258"/>
<path d="M291.237 632.306C293.373 632.306 295.105 630.327 295.105 627.885C295.105 625.444 293.373 623.464 291.237 623.464C289.1 623.464 287.368 625.444 287.368 627.885C287.368 630.327 289.1 632.306 291.237 632.306Z" fill="#849258"/>
<path d="M225.474 625.675C227.915 625.675 229.895 623.448 229.895 620.701C229.895 617.954 227.915 615.728 225.474 615.728C223.032 615.728 221.053 617.954 221.053 620.701C221.053 623.448 223.032 625.675 225.474 625.675Z" fill="#849258"/>
<path d="M265.263 646.674C267.705 646.674 269.684 644.695 269.684 642.253C269.684 639.812 267.705 637.833 265.263 637.833C262.822 637.833 260.842 639.812 260.842 642.253C260.842 644.695 262.822 646.674 265.263 646.674Z" fill="#849258"/>
<path d="M225.671 544.145H224.171V545.645V560.5H176.5V407.502H214.024H215.524V406.002V375.5H313.5V544.145H225.671Z" fill="white" stroke="black" stroke-width="3" stroke-miterlimit="10"/>
<path d="M221.5 590.5L221.5 702.5L46.5 702.5L46.5 590.5L221.5 590.5Z" fill="white" stroke="black" stroke-width="3" stroke-miterlimit="10"/>
<path d="M118.015 659.848L130.398 659.848L130.398 624.822L118.015 624.822L118.015 659.848Z" fill="black"/>
<path d="M180.734 532.912L204.145 532.912L204.145 520.989L180.734 520.989L180.734 532.912Z" fill="black"/>
<path d="M217.339 488.432L229.723 488.432L229.723 453.406L217.339 453.406L217.339 488.432Z" fill="black"/>
<path d="M126.4 639.682C126.77 639.682 127.078 639.373 127.078 639.002C127.078 638.632 126.77 638.323 126.4 638.323C126.031 638.323 125.723 638.632 125.723 639.002C125.723 639.373 126.031 639.682 126.4 639.682Z" fill="white"/>
<path d="M126.277 644.005V646.415C126.277 646.847 125.661 646.847 125.661 646.415V644.005H124.798L125.723 640.793H125.599L125.045 642.585C124.922 642.955 124.367 642.832 124.49 642.399L125.106 640.422C125.168 640.175 125.476 639.805 125.969 639.805H126.4H126.893C127.386 639.805 127.694 640.237 127.756 640.422L128.372 642.399C128.495 642.832 127.941 643.017 127.817 642.585L127.263 640.793H127.078L128.002 644.005H127.14V646.415C127.14 646.847 126.524 646.847 126.524 646.415V644.005H126.277Z" fill="white"/>
<path d="M121.132 639.867C120.639 639.867 120.269 640.237 120.269 640.793V642.894C120.269 643.326 120.885 643.326 120.885 642.894V640.979H121.008V646.353C121.008 646.909 121.809 646.909 121.809 646.353V643.203H121.932V646.353C121.932 646.909 122.733 646.909 122.733 646.353V640.979H122.857V642.894C122.857 643.326 123.473 643.326 123.473 642.894V640.793C123.473 640.361 123.103 639.867 122.61 639.867H121.132Z" fill="white"/>
<path d="M121.871 639.62C122.245 639.62 122.548 639.315 122.548 638.94C122.548 638.565 122.245 638.261 121.871 638.261C121.496 638.261 121.193 638.565 121.193 638.94C121.193 639.315 121.496 639.62 121.871 639.62Z" fill="white"/>
<path d="M223.359 468.444C223.729 468.444 224.037 468.135 224.037 467.764C224.037 467.393 223.729 467.084 223.359 467.084C222.989 467.084 222.681 467.393 222.681 467.764C222.681 468.135 222.989 468.444 223.359 468.444Z" fill="white"/>
<path d="M223.236 472.768V475.177C223.236 475.609 222.619 475.609 222.619 475.177V472.768H221.757L222.681 469.555H222.558L222.003 471.347C221.88 471.717 221.326 471.594 221.449 471.161L222.065 469.185C222.127 468.938 222.435 468.567 222.928 468.567H223.359H223.852C224.345 468.567 224.653 468.999 224.714 469.185L225.33 471.161C225.453 471.594 224.899 471.779 224.776 471.347L224.221 469.555H224.036L224.961 472.768H224.098V475.177C224.098 475.609 223.482 475.609 223.482 475.177V472.768H223.236Z" fill="white"/>
<path d="M191.877 524.287C191.384 524.287 191.014 524.658 191.014 525.214V527.314C191.014 527.746 191.63 527.746 191.63 527.314V525.399H191.753V530.773C191.753 531.329 192.554 531.329 192.554 530.773V527.623H192.678V530.773C192.678 531.329 193.479 531.329 193.479 530.773V525.399H193.602V527.314C193.602 527.746 194.218 527.746 194.218 527.314V525.214C194.218 524.781 193.848 524.287 193.355 524.287H191.877Z" fill="white"/>
<path d="M192.616 524.102C192.99 524.102 193.293 523.797 193.293 523.422C193.293 523.047 192.99 522.743 192.616 522.743C192.241 522.743 191.938 523.047 191.938 523.422C191.938 523.797 192.241 524.102 192.616 524.102Z" fill="white"/>
<path d="M180.745 556.246L191.773 556.246L191.773 535.366L180.745 535.366L180.745 556.246Z" fill="#C4C4C4"/>
<path d="M193.786 556.286H206.293H219.539V535.407V521.013H206.293V535.407H193.786V556.286Z" fill="#DAC452"/>
<path d="M232.198 488.432L256.349 488.432L256.349 453.406L232.198 453.406L232.198 488.432Z" fill="#C4C4C4"/>
<path d="M258.209 488.432L270.593 488.432L270.593 453.406L258.209 453.406L258.209 488.432Z" fill="#FF0000"/>
<path d="M268.025 474.312V469C268.025 468.444 267.594 468.011 267.039 468.011H261.741C261.187 468.011 260.755 468.444 260.755 469V474.312C260.755 474.868 261.187 475.301 261.741 475.301H267.039C267.594 475.239 268.025 474.868 268.025 474.312ZM267.224 474.436H261.556V468.814H267.224V474.436Z" fill="white"/>
<path d="M265.253 464.552C265.253 464.119 265.869 464.119 265.869 464.552V466.282L266.177 465.911C266.423 465.664 266.793 466.034 266.547 466.282L265.746 467.208C265.623 467.332 265.438 467.332 265.315 467.208L264.514 466.282C264.267 465.973 264.698 465.664 264.883 465.911L265.191 466.343L265.253 464.552Z" fill="white"/>
<path d="M262.912 467.021C262.912 467.453 263.528 467.453 263.528 467.021V465.291L263.836 465.662C264.082 465.909 264.452 465.538 264.205 465.291L263.404 464.365C263.281 464.241 263.096 464.241 262.973 464.365L262.172 465.291C261.926 465.6 262.357 465.909 262.542 465.662L262.85 465.229L262.912 467.021Z" fill="white"/>
<path d="M265.993 470.482H264.946C264.822 470.482 264.699 470.605 264.699 470.729V472.026C264.699 472.15 264.761 472.212 264.884 472.212C264.884 472.212 264.946 472.212 265.007 472.212V473.88C265.007 474.188 265.439 474.188 265.439 473.88V472.212H265.5V473.88C265.5 474.188 265.931 474.188 265.931 473.88V472.212C265.993 472.212 266.055 472.212 266.055 472.212C266.178 472.212 266.239 472.15 266.239 472.026V470.729C266.239 470.605 266.178 470.482 265.993 470.482Z" fill="white"/>
<path d="M265.5 470.359C265.671 470.359 265.808 470.22 265.808 470.05C265.808 469.879 265.671 469.741 265.5 469.741C265.33 469.741 265.192 469.879 265.192 470.05C265.192 470.22 265.33 470.359 265.5 470.359Z" fill="white"/>
<path d="M263.775 470.482H262.727C262.604 470.482 262.481 470.605 262.481 470.729V472.026C262.481 472.15 262.543 472.212 262.666 472.212C262.666 472.212 262.727 472.212 262.789 472.212V473.88C262.789 474.188 263.22 474.188 263.22 473.88V472.212H263.282V473.88C263.282 474.188 263.713 474.188 263.713 473.88V472.212C263.775 472.212 263.836 472.212 263.836 472.212C263.96 472.212 264.021 472.15 264.021 472.026V470.729C264.021 470.605 263.898 470.482 263.775 470.482Z" fill="white"/>
<path d="M263.282 470.359C263.452 470.359 263.59 470.22 263.59 470.05C263.59 469.879 263.452 469.741 263.282 469.741C263.112 469.741 262.974 469.879 262.974 470.05C262.974 470.22 263.112 470.359 263.282 470.359Z" fill="white"/>
<path d="M180.553 488.432L215.485 488.432L215.485 453.406L180.553 453.406L180.553 488.432Z" fill="#C4C4C4"/>
<path d="M281.333 453.432H308.749V488.458H296.92L281.333 466.59V453.432Z" fill="#DAC452"/>
<path d="M260.14 379.859V428.105H308.749V379.859L260.14 379.859Z" fill="#DAC452"/>
<path d="M220 380.412V428.412H247V380.412L220 380.412Z" fill="#DAC452"/>
<path d="M180.553 450.93L215.485 450.93L215.485 412.877L180.553 412.877L180.553 450.93Z" fill="#C4C4C4"/>
<path d="M132.871 659.848L150.122 659.848L150.122 624.822L132.871 624.822L132.871 659.848Z" fill="#C4C4C4"/>
<path d="M174 659.588L183 659.588L183 640.588L174 640.588L174 659.588Z" fill="#C8A67C"/>
<path d="M185 659.588L192 659.588L192 640.588L185 640.588L185 659.588Z" fill="#C8A67C"/>
<path d="M194.494 659.847L217.413 659.847L217.413 640.944L194.494 640.944L194.494 659.847Z" fill="#C8A67C"/>
<path d="M173.64 622.694V638.755H217.383V594.71H166.74V622.694H173.64Z" fill="#C4C4C4"/>
<path d="M158.884 659.848L171.268 659.848L171.268 624.822L158.884 624.822L158.884 659.848Z" fill="black"/>
<path d="M168.65 647.836V642.523C168.65 641.967 168.219 641.535 167.664 641.535H162.366C161.812 641.535 161.38 641.967 161.38 642.523V647.836C161.38 648.392 161.812 648.824 162.366 648.824H167.664C168.219 648.762 168.65 648.392 168.65 647.836ZM167.911 647.959H162.243V642.338H167.911V647.959Z" fill="white"/>
<path d="M165.939 638.075C165.939 637.643 166.556 637.643 166.556 638.075V639.805L166.864 639.434C167.11 639.187 167.48 639.558 167.233 639.805L166.432 640.732C166.309 640.855 166.124 640.855 166.001 640.732L165.2 639.805C164.954 639.496 165.385 639.187 165.57 639.434L165.878 639.867L165.939 638.075Z" fill="white"/>
<path d="M163.537 640.544C163.537 640.977 164.153 640.977 164.153 640.544V638.815L164.461 639.185C164.707 639.432 165.077 639.062 164.83 638.815L164.029 637.888C163.906 637.765 163.721 637.765 163.598 637.888L162.797 638.815C162.551 639.124 162.982 639.432 163.167 639.185L163.475 638.753L163.537 640.544Z" fill="white"/>
<path d="M166.68 644.005H165.632C165.509 644.005 165.386 644.128 165.386 644.252V645.549C165.386 645.673 165.447 645.735 165.571 645.735C165.571 645.735 165.632 645.735 165.694 645.735V647.402C165.694 647.711 166.125 647.711 166.125 647.402V645.735H166.187V647.402C166.187 647.711 166.618 647.711 166.618 647.402V645.735C166.68 645.735 166.741 645.735 166.741 645.735C166.864 645.735 166.926 645.673 166.926 645.549V644.252C166.926 644.128 166.864 644.005 166.68 644.005Z" fill="white"/>
<path d="M166.186 643.881C166.357 643.881 166.495 643.743 166.495 643.573C166.495 643.402 166.357 643.264 166.186 643.264C166.016 643.264 165.878 643.402 165.878 643.573C165.878 643.743 166.016 643.881 166.186 643.881Z" fill="white"/>
<path d="M164.461 644.005H163.414C163.291 644.005 163.167 644.128 163.167 644.252V645.549C163.167 645.673 163.229 645.735 163.352 645.735C163.352 645.735 163.414 645.735 163.476 645.735V647.402C163.476 647.711 163.907 647.711 163.907 647.402V645.735H163.968V647.402C163.968 647.711 164.4 647.711 164.4 647.402V645.735C164.461 645.735 164.523 645.735 164.523 645.735C164.646 645.735 164.708 645.673 164.708 645.549V644.252C164.708 644.128 164.584 644.005 164.461 644.005Z" fill="white"/>
<path d="M163.968 643.881C164.138 643.881 164.276 643.743 164.276 643.573C164.276 643.402 164.138 643.264 163.968 643.264C163.798 643.264 163.66 643.402 163.66 643.573C163.66 643.743 163.798 643.881 163.968 643.881Z" fill="white"/>
<path d="M116.158 659.82V624.794H88.0644V594.71H69.8281V624.794V659.82H116.158Z" fill="#C4C4C4"/>
<path d="M118.05 622.74L143.988 622.74L143.988 594.756L118.05 594.756L118.05 622.74Z" fill="#C4C4C4"/>
<path d="M90 697.412L116 697.412L116 673.412L90 673.412L90 697.412Z" fill="#C8A67C"/>
<path d="M119 697.412L145 697.412L145 673.412L119 673.412L119 697.412Z" fill="#C8A67C"/>
<path d="M51.0731 659.865L67.646 659.865L67.646 594.755L51.0731 594.755L51.0731 659.865Z" fill="#C4C4C4"/>
<path d="M51.0686 697.634L88.0957 697.634L88.0957 661.805L51.0686 661.805L51.0686 697.634Z" fill="#C4C4C4"/>
<path d="M246.832 446.231L270.552 446.231L270.552 433.382L246.832 433.382L246.832 446.231Z" fill="black"/>
<path d="M257.921 437.248C258.291 437.248 258.599 436.939 258.599 436.568C258.599 436.198 258.291 435.889 257.921 435.889C257.552 435.889 257.244 436.198 257.244 436.568C257.305 437.001 257.552 437.248 257.921 437.248Z" fill="white"/>
<path d="M262.481 436.692H260.94C260.632 436.692 260.201 436.815 259.955 437.063L258.538 438.483V438.051C258.538 437.186 257.244 437.186 257.244 438.051V439.719L256.012 440.954C255.888 441.078 255.888 441.078 255.642 441.078H254.903C254.163 441.078 253.67 441.757 253.67 442.313C253.67 442.869 254.102 443.611 254.964 443.611C254.964 443.611 256.012 443.611 256.32 443.611C256.628 443.611 256.997 443.487 257.305 443.178L261.248 439.286C261.31 439.225 261.372 439.163 261.495 439.163C261.495 439.163 262.049 439.163 262.481 439.163C262.973 439.163 263.589 438.607 263.589 437.866C263.651 437.186 262.973 436.692 262.481 436.692ZM262.419 438.545H261.618C261.248 438.545 261.125 438.607 260.94 438.792L256.997 442.746C256.812 442.931 256.628 442.993 256.381 442.993H255.087C254.779 442.993 254.471 442.684 254.471 442.313C254.471 441.943 254.779 441.757 255.026 441.757H255.888C256.135 441.757 256.32 441.696 256.443 441.51L260.447 437.495C260.632 437.31 260.755 437.31 261.064 437.31H262.419C262.727 437.31 262.973 437.68 262.973 437.927C262.973 438.174 262.789 438.545 262.419 438.545Z" fill="white"/>
<path d="M236.912 512.843L270.551 512.843L270.551 499.994L236.912 499.994L236.912 512.843Z" fill="black"/>
<path d="M252.993 503.84C253.362 503.84 253.67 503.531 253.67 503.16C253.67 502.79 253.362 502.481 252.993 502.481C252.623 502.481 252.315 502.79 252.315 503.16C252.377 503.593 252.623 503.84 252.993 503.84Z" fill="white"/>
<path d="M257.552 503.284H256.012C255.704 503.284 255.272 503.407 255.026 503.654L253.609 505.075V504.643C253.609 503.778 252.315 503.778 252.315 504.643V506.311L251.083 507.546C250.96 507.67 250.96 507.67 250.713 507.67H249.974C249.235 507.67 248.742 508.349 248.742 508.905C248.742 509.461 249.173 510.202 250.035 510.202C250.035 510.202 251.083 510.202 251.391 510.202C251.699 510.202 252.069 510.079 252.377 509.77L256.32 505.878C256.381 505.816 256.443 505.755 256.566 505.755C256.566 505.755 257.121 505.755 257.552 505.755C258.045 505.755 258.661 505.199 258.661 504.457C258.722 503.778 258.045 503.284 257.552 503.284ZM257.49 505.137H256.689C256.32 505.137 256.196 505.199 256.012 505.384L252.069 509.338C251.884 509.523 251.699 509.585 251.453 509.585H250.159C249.851 509.585 249.543 509.276 249.543 508.905C249.543 508.535 249.851 508.349 250.097 508.349H250.96C251.206 508.349 251.391 508.287 251.514 508.102L255.519 504.087C255.704 503.901 255.827 503.901 256.135 503.901H257.49C257.798 503.901 258.045 504.272 258.045 504.519C258.045 504.766 257.86 505.137 257.49 505.137Z" fill="white"/>
<path d="M158.864 697.632L192.502 697.632L192.502 684.783L158.864 684.783L158.864 697.632Z" fill="black"/>
<path d="M174.934 688.669C175.304 688.669 175.612 688.36 175.612 687.989C175.612 687.618 175.304 687.31 174.934 687.31C174.564 687.31 174.256 687.618 174.256 687.989C174.256 688.36 174.564 688.669 174.934 688.669Z" fill="white"/>
<path d="M179.493 688.051H177.953C177.645 688.051 177.214 688.174 176.967 688.421L175.55 689.842V689.41C175.55 688.545 174.256 688.545 174.256 689.41V691.078L173.024 692.313C172.901 692.437 172.901 692.437 172.655 692.437H171.915C171.176 692.437 170.683 693.116 170.683 693.672C170.683 694.228 171.114 694.969 171.977 694.969C171.977 694.969 173.024 694.969 173.332 694.969C173.64 694.969 174.01 694.846 174.318 694.537L178.199 690.645C178.261 690.584 178.323 690.522 178.446 690.522C178.446 690.522 179 690.522 179.432 690.522C179.924 690.522 180.541 689.966 180.541 689.224C180.602 688.607 179.986 688.051 179.493 688.051ZM179.37 689.966H178.569C178.199 689.966 178.076 690.028 177.891 690.213L173.948 694.166C173.764 694.352 173.579 694.414 173.332 694.414H171.977C171.669 694.414 171.361 694.105 171.361 693.734C171.361 693.363 171.669 693.178 171.915 693.178H172.778C173.024 693.178 173.209 693.116 173.332 692.931L177.337 688.916C177.522 688.73 177.645 688.73 177.953 688.73H179.308C179.616 688.73 179.863 689.101 179.863 689.348C179.863 689.595 179.801 689.966 179.37 689.966Z" fill="white"/>
<path d="M223.079 568.703H242.178L242.24 586.123H223.141L223.079 568.703Z" fill="black"/>
<path d="M236.264 581.923V576.61C236.264 576.054 235.832 575.622 235.278 575.622H229.979C229.425 575.622 228.994 576.054 228.994 576.61V581.923C228.994 582.479 229.425 582.911 229.979 582.911H235.278C235.832 582.911 236.264 582.479 236.264 581.923ZM235.463 582.108H229.795V576.486H235.463V582.108Z" fill="white"/>
<path d="M233.491 572.224C233.491 571.792 234.107 571.792 234.107 572.224V573.954L234.415 573.583C234.662 573.336 235.031 573.707 234.785 573.954L233.984 574.88C233.861 575.004 233.676 575.004 233.553 574.88L232.752 573.954C232.505 573.645 232.937 573.336 233.122 573.583L233.43 574.016L233.491 572.224Z" fill="white"/>
<path d="M231.15 574.633C231.15 575.066 231.766 575.066 231.766 574.633V572.904L232.074 573.274C232.32 573.521 232.69 573.151 232.444 572.904L231.643 571.977C231.52 571.853 231.335 571.853 231.212 571.977L230.411 572.904C230.164 573.212 230.595 573.521 230.78 573.274L231.088 572.842L231.15 574.633Z" fill="white"/>
<path d="M234.231 578.154H233.184C233.061 578.154 232.938 578.278 232.938 578.401V579.699C232.938 579.822 232.999 579.884 233.122 579.884C233.122 579.884 233.184 579.884 233.246 579.884V581.552C233.246 581.861 233.677 581.861 233.677 581.552V579.884H233.738V581.552C233.738 581.861 234.17 581.861 234.17 581.552V579.884C234.231 579.884 234.293 579.884 234.293 579.884C234.416 579.884 234.478 579.822 234.478 579.699V578.401C234.478 578.278 234.416 578.154 234.231 578.154Z" fill="white"/>
<path d="M233.739 578.031C233.909 578.031 234.047 577.893 234.047 577.722C234.047 577.551 233.909 577.413 233.739 577.413C233.569 577.413 233.431 577.551 233.431 577.722C233.431 577.893 233.569 578.031 233.739 578.031Z" fill="white"/>
<path d="M232.013 578.154H230.966C230.842 578.154 230.719 578.278 230.719 578.401V579.699C230.719 579.822 230.781 579.884 230.904 579.884C230.904 579.884 230.966 579.884 231.027 579.884V581.552C231.027 581.861 231.459 581.861 231.459 581.552V579.884H231.52V581.552C231.52 581.861 231.951 581.861 231.951 581.552V579.884C232.013 579.884 232.075 579.884 232.075 579.884C232.198 579.884 232.26 579.822 232.26 579.699V578.401C232.26 578.278 232.136 578.154 232.013 578.154Z" fill="white"/>
<path d="M231.521 578.031C231.691 578.031 231.829 577.893 231.829 577.722C231.829 577.551 231.691 577.413 231.521 577.413C231.351 577.413 231.213 577.551 231.213 577.722C231.213 577.893 231.351 578.031 231.521 578.031Z" fill="white"/>
<path d="M227.719 561.63L261.358 561.63L261.358 548.781L227.719 548.781L227.719 561.63Z" fill="black"/>
<path d="M243.78 552.642C244.15 552.642 244.458 552.333 244.458 551.962C244.458 551.592 244.15 551.283 243.78 551.283C243.411 551.283 243.103 551.592 243.103 551.962C243.164 552.395 243.411 552.642 243.78 552.642Z" fill="white"/>
<path d="M248.339 552.086H246.799C246.491 552.086 246.06 552.209 245.813 552.457L244.396 553.877V553.445C244.396 552.58 243.103 552.58 243.103 553.445V555.113L241.87 556.348C241.747 556.472 241.747 556.472 241.501 556.472H240.761C240.022 556.472 239.529 557.151 239.529 557.707C239.529 558.263 239.961 559.005 240.823 559.005C240.823 559.005 241.87 559.005 242.178 559.005C242.487 559.005 242.856 558.881 243.164 558.572L247.107 554.68C247.169 554.619 247.23 554.557 247.354 554.557C247.354 554.557 247.908 554.557 248.339 554.557C248.832 554.557 249.448 554.001 249.448 553.26C249.51 552.58 248.832 552.086 248.339 552.086ZM248.278 553.939H247.477C247.107 553.939 246.984 554.001 246.799 554.186L242.856 558.14C242.671 558.325 242.487 558.387 242.24 558.387H240.946C240.638 558.387 240.33 558.078 240.33 557.707C240.33 557.337 240.638 557.151 240.885 557.151H241.747C241.994 557.151 242.178 557.09 242.302 556.904L246.306 552.889C246.491 552.704 246.614 552.704 246.922 552.704H248.278C248.586 552.704 248.832 553.074 248.832 553.321C248.832 553.569 248.709 553.939 248.278 553.939Z" fill="white"/>
<path d="M231.222 689.393H232.72L234.102 684.638H234.159L235.544 689.393H237.042L239.123 682.12H237.443L236.24 687.184H236.176L234.851 682.12H233.413L232.085 687.174H232.024L230.821 682.12H229.141L231.222 689.393ZM239.946 689.393H244.861V688.125H241.484V686.389H244.595V685.121H241.484V683.388H244.847V682.12H239.946V689.393ZM250.014 684.212H251.488C251.467 682.916 250.402 682.021 248.782 682.021C247.188 682.021 246.019 682.902 246.027 684.223C246.023 685.295 246.779 685.909 248.008 686.204L248.8 686.403C249.592 686.595 250.032 686.822 250.036 687.312C250.032 687.845 249.528 688.207 248.747 688.207C247.948 688.207 247.372 687.838 247.323 687.11H245.835C245.874 688.683 247 689.496 248.764 689.496C250.54 689.496 251.584 688.647 251.588 687.316C251.584 686.105 250.671 685.462 249.407 685.178L248.754 685.022C248.122 684.876 247.593 684.642 247.603 684.12C247.603 683.651 248.019 683.306 248.772 683.306C249.507 683.306 249.958 683.64 250.014 684.212ZM252.345 683.388H254.571V689.393H256.091V683.388H258.318V682.12H252.345V683.388ZM229.308 695.388H231.534V701.393H233.054V695.388H235.281V694.12H229.308V695.388ZM242.625 697.757C242.625 695.377 241.148 694.021 239.22 694.021C237.281 694.021 235.814 695.377 235.814 697.757C235.814 700.125 237.281 701.492 239.22 701.492C241.148 701.492 242.625 700.136 242.625 697.757ZM241.066 697.757C241.066 699.298 240.335 700.132 239.22 700.132C238.101 700.132 237.373 699.298 237.373 697.757C237.373 696.216 238.101 695.381 239.22 695.381C240.335 695.381 241.066 696.216 241.066 697.757ZM245.128 701.393H246.627L248.008 696.638H248.065L249.45 701.393H250.948L253.029 694.12H251.35L250.146 699.184H250.082L248.757 694.12H247.319L245.991 699.174H245.931L244.727 694.12H243.047L245.128 701.393ZM253.852 701.393H258.767V700.125H255.39V698.389H258.501V697.121H255.39V695.388H258.753V694.12H253.852V701.393ZM259.975 701.393H261.513V698.815H262.635L264.013 701.393H265.71L264.166 698.566C264.993 698.211 265.451 697.49 265.451 696.496C265.451 695.051 264.496 694.12 262.845 694.12H259.975V701.393ZM261.513 697.579V695.377H262.55C263.438 695.377 263.867 695.772 263.867 696.496C263.867 697.217 263.438 697.579 262.557 697.579H261.513Z" fill="black"/>
<path d="M180.308 384.412H185.223V383.144H181.846V381.407H184.957V380.14H181.846V378.407H185.209V377.139H180.308V384.412ZM187.685 384.412L188.225 382.753H190.849L191.389 384.412H193.037L190.529 377.139H188.548L186.037 384.412H187.685ZM188.615 381.553L189.51 378.801H189.567L190.462 381.553H188.615ZM197.691 379.231H199.165C199.144 377.934 198.078 377.039 196.459 377.039C194.864 377.039 193.696 377.92 193.703 379.241C193.7 380.314 194.456 380.928 195.685 381.223L196.477 381.422C197.269 381.613 197.709 381.841 197.712 382.331C197.709 382.863 197.205 383.226 196.423 383.226C195.624 383.226 195.049 382.856 194.999 382.128H193.511C193.551 383.701 194.676 384.515 196.441 384.515C198.217 384.515 199.261 383.666 199.264 382.334C199.261 381.123 198.348 380.481 197.084 380.196L196.431 380.04C195.798 379.895 195.269 379.66 195.28 379.138C195.28 378.669 195.695 378.325 196.448 378.325C197.183 378.325 197.634 378.659 197.691 379.231ZM200.022 378.407H202.248V384.412H203.768V378.407H205.995V377.139H200.022V378.407ZM169.748 390.407H171.975V396.412H173.495V390.407H175.721V389.139H169.748V390.407ZM183.066 392.775C183.066 390.396 181.589 389.039 179.66 389.039C177.721 389.039 176.255 390.396 176.255 392.775C176.255 395.144 177.721 396.511 179.66 396.511C181.589 396.511 183.066 395.155 183.066 392.775ZM181.507 392.775C181.507 394.316 180.775 395.151 179.66 395.151C178.542 395.151 177.814 394.316 177.814 392.775C177.814 391.234 178.542 390.4 179.66 390.4C180.775 390.4 181.507 391.234 181.507 392.775ZM185.568 396.412H187.067L188.448 391.657H188.505L189.89 396.412H191.389L193.47 389.139H191.79L190.586 394.203H190.522L189.198 389.139H187.76L186.431 394.192H186.371L185.167 389.139H183.488L185.568 396.412ZM194.293 396.412H199.208V395.144H195.83V393.407H198.941V392.14H195.83V390.407H199.193V389.139H194.293V396.412ZM200.416 396.412H201.953V393.833H203.076L204.453 396.412H206.151L204.606 393.585C205.434 393.23 205.892 392.509 205.892 391.515C205.892 390.069 204.936 389.139 203.285 389.139H200.416V396.412ZM201.953 392.598V390.396H202.99C203.878 390.396 204.308 390.79 204.308 391.515C204.308 392.235 203.878 392.598 202.997 392.598H201.953Z" fill="black"/>
<path d="M2.78125 417H16.4531C23.6406 417 27.4688 413.25 27.4688 408.156C27.4688 403.422 24.0781 400.562 20.4375 400.391V400.078C23.7656 399.328 26.2188 396.969 26.2188 393.203C26.2188 388.406 22.6563 385 15.5937 385H2.78125V417ZM9.54688 411.469V402.969H15.2188C18.4688 402.969 20.4844 404.844 20.4844 407.484C20.4844 409.891 18.8438 411.469 15.0625 411.469H9.54688ZM9.54688 398.391V390.469H14.6875C17.6875 390.469 19.3906 392.016 19.3906 394.328C19.3906 396.859 17.3281 398.391 14.5625 398.391H9.54688ZM45.6055 385H39.2461L31.3242 390.016V396.016L38.6523 391.422H38.8398V417H45.6055V385Z" fill="black"/>
<path d="M99.8925 684.932H101.02V684.302H99.8925V683.534H99.1005V684.302H97.9485V684.932H99.1005V685.124C99.1005 685.964 98.6685 686.9 97.7625 687.308L98.1885 687.914C98.8185 687.632 99.2625 687.068 99.5085 686.402C99.7545 687.032 100.192 687.56 100.816 687.818L101.236 687.212C100.33 686.822 99.8925 685.922 99.8925 685.124V684.932ZM101.53 683.402V688.928H102.322V683.402H101.53ZM106.186 686.516C106.336 685.604 106.336 684.932 106.336 684.398V683.948H103.492V684.578H105.556C105.556 685.07 105.538 685.664 105.412 686.45L106.186 686.516ZM104.98 685.532H104.2V687.164C103.852 687.17 103.516 687.17 103.21 687.17L103.282 687.818C104.242 687.812 105.478 687.788 106.6 687.596L106.558 687.026C106.054 687.086 105.514 687.122 104.98 687.14V685.532ZM108.346 685.622H107.602V683.396H106.81V688.922H107.602V686.282H108.346V685.622Z" fill="black"/>
<path d="M176.277 649.911C176.277 649.695 176.43 649.569 176.64 649.569C176.847 649.569 177.003 649.695 177.003 649.911C177.003 650.124 176.847 650.253 176.64 650.253C176.43 650.253 176.277 650.124 176.277 649.911ZM177.387 649.911C177.387 649.518 177.063 649.233 176.64 649.233C176.214 649.233 175.89 649.518 175.89 649.911C175.89 650.304 176.214 650.586 176.64 650.586C177.063 650.586 177.387 650.304 177.387 649.911ZM176.202 651.141H177.648V651.849H178.044V650.823H176.202V651.141ZM178.398 649.764V649.443H178.044V649.083H177.648V650.712H178.044V650.364H178.398V650.04H178.044V649.764H178.398ZM181.131 650.469V650.154H180.783C180.837 649.86 180.837 649.629 180.837 649.422V649.2H178.938V649.518H180.447C180.447 649.701 180.438 649.902 180.387 650.154H178.629V650.469H179.679V650.859H178.881V651.171H180.444V651.846H180.843V650.859H180.075V650.469H181.131Z" fill="black"/>
<path d="M188.038 650.073C188.125 649.758 188.125 649.506 188.125 649.329V649.173H187.135V649.485H187.738C187.735 649.629 187.717 649.806 187.657 650.034L188.038 650.073ZM186.784 650.082C186.928 649.758 186.928 649.497 186.928 649.32V649.173H186.073V649.485H186.541C186.529 649.623 186.496 649.788 186.397 650.025L186.784 650.082ZM188.059 651.12V650.814H187.318V650.595H186.916V650.814H186.178V651.12H186.901C186.838 651.309 186.571 651.492 186.067 651.54L186.199 651.834C186.643 651.786 186.955 651.633 187.117 651.42C187.279 651.636 187.594 651.786 188.038 651.834L188.17 651.54C187.666 651.492 187.396 651.309 187.333 651.12H188.059ZM187.36 650.193V649.803H186.973V650.193H185.875V650.511H188.365V650.193H187.36ZM190.351 650.244C189.931 650.121 189.727 649.836 189.706 649.545H190.249V649.233H188.746V649.545H189.298C189.277 649.857 189.076 650.157 188.638 650.286L188.836 650.598C189.16 650.499 189.382 650.292 189.508 650.034C189.634 650.271 189.847 650.46 190.159 650.55L190.351 650.244ZM190.531 651.498H189.481V651.255H190.531V651.498ZM190.531 650.952H189.481V650.7H189.088V651.813H190.924V650.7H190.531V650.952ZM190.525 649.086V650.583H190.924V649.086H190.525Z" fill="black"/>
<path d="M200.821 649.068V652.764H201.349V649.068H200.821ZM199.369 649.328C198.813 649.328 198.401 649.832 198.401 650.64C198.401 651.452 198.813 651.96 199.369 651.96C199.925 651.96 200.337 651.452 200.337 650.64C200.337 649.832 199.925 649.328 199.369 649.328ZM199.369 649.804C199.641 649.804 199.829 650.096 199.829 650.64C199.829 651.188 199.641 651.48 199.369 651.48C199.097 651.48 198.909 651.188 198.909 650.64C198.909 650.096 199.097 649.804 199.369 649.804ZM202.609 649.836H203.329V651.444H202.609V649.836ZM202.089 651.86H203.849V649.42H202.089V651.86ZM205.397 650.46H204.861V649.076H204.333V652.756H204.861V650.896H205.397V650.46ZM208.636 650.972H206.584V650.56H208.524V650.152H206.584V649.764H208.608V649.34H206.048V651.388H208.636V650.972ZM205.656 651.904V652.332H208.992V651.904H205.656ZM209.336 652.412H211.32V651.916H210.676C210.54 651.916 210.344 651.932 210.196 651.948C210.736 651.42 211.18 650.844 211.18 650.308C211.18 649.756 210.808 649.396 210.248 649.396C209.844 649.396 209.58 649.556 209.308 649.844L209.628 650.164C209.776 650 209.956 649.86 210.172 649.86C210.452 649.86 210.616 650.04 210.616 650.34C210.616 650.796 210.14 651.352 209.336 652.072V652.412ZM212.176 651.196L212.636 650.46C212.72 650.3 212.8 650.136 212.872 649.98H212.888C212.88 650.152 212.864 650.42 212.864 650.592V651.196H212.176ZM213.764 651.196H213.412V649.452H212.708L211.604 651.244V651.644H212.864V652.412H213.412V651.644H213.764V651.196Z" fill="black"/>
<path d="M125.721 687.062C125.421 687.062 125.241 686.648 125.241 685.796C125.241 684.95 125.421 684.536 125.721 684.536C126.027 684.536 126.201 684.95 126.201 685.796C126.201 686.648 126.027 687.062 125.721 687.062ZM127.347 685.436H126.909C126.819 684.404 126.375 683.792 125.721 683.792C124.989 683.792 124.527 684.548 124.527 685.796C124.527 687.05 124.989 687.806 125.721 687.806C126.393 687.806 126.843 687.158 126.915 686.078H127.347V688.682H128.085V683.492H127.347V685.436ZM128.469 683.396V688.922H129.219V683.396H128.469ZM133.784 683.396V688.94H134.576V683.396H133.784ZM131.606 683.786C130.772 683.786 130.154 684.542 130.154 685.754C130.154 686.972 130.772 687.734 131.606 687.734C132.44 687.734 133.058 686.972 133.058 685.754C133.058 684.542 132.44 683.786 131.606 683.786ZM131.606 684.5C132.014 684.5 132.296 684.938 132.296 685.754C132.296 686.576 132.014 687.014 131.606 687.014C131.198 687.014 130.916 686.576 130.916 685.754C130.916 684.938 131.198 684.5 131.606 684.5ZM136.412 685.082C136.412 684.65 136.724 684.398 137.144 684.398C137.564 684.398 137.882 684.65 137.882 685.082C137.882 685.514 137.564 685.772 137.144 685.772C136.724 685.772 136.412 685.514 136.412 685.082ZM137.546 686.396C138.194 686.252 138.65 685.748 138.65 685.082C138.65 684.29 138.002 683.72 137.144 683.72C136.292 683.72 135.644 684.29 135.644 685.082C135.644 685.754 136.106 686.264 136.76 686.402V687.182C136.298 687.188 135.848 687.188 135.458 687.188L135.554 687.83C136.484 687.836 137.714 687.836 138.866 687.62L138.8 687.05C138.398 687.098 137.978 687.134 137.546 687.152V686.396ZM140.606 685.568H139.88V683.396H139.088V688.922H139.88V686.222H140.606V685.568Z" fill="black"/>
<path d="M278.057 399.605C276.601 399.353 275.803 398.352 275.803 397.407V396.945H274.816V397.407C274.816 398.331 274.011 399.353 272.562 399.605L272.954 400.375C274.074 400.158 274.893 399.528 275.306 398.709C275.719 399.528 276.545 400.151 277.665 400.375L278.057 399.605ZM272.422 401.481V402.23H278.26V401.481H272.422ZM280.038 399.619H282.054V398.898H280.038V397.848H282.145V397.099H279.114V401.558H279.66C280.766 401.558 281.634 401.53 282.614 401.383L282.53 400.648C281.69 400.774 280.948 400.809 280.038 400.816V399.619ZM284.847 399.01H283.909V396.567H282.985V403.021H283.909V399.773H284.847V399.01ZM286.302 401.432H289.767V403.021H290.691V400.704H286.302V401.432ZM287.716 399.388H286.491V398.555H287.716V399.388ZM289.767 396.574V398.142H288.619V396.938H287.716V397.848H286.491V396.945H285.574V400.13H288.619V398.884H289.767V400.417H290.691V396.567L289.767 396.574ZM297.375 399.605C295.919 399.353 295.121 398.352 295.121 397.407V396.945H294.134V397.407C294.134 398.331 293.329 399.353 291.88 399.605L292.272 400.375C293.392 400.158 294.211 399.528 294.624 398.709C295.037 399.528 295.863 400.151 296.983 400.375L297.375 399.605ZM291.74 401.481V402.23H297.578V401.481H291.74ZM276.93 408.605H279.023V406.113H275.978V406.848H278.078V407.877H275.985V410.53H276.566C277.735 410.53 278.68 410.488 279.73 410.306L279.632 409.557C278.722 409.711 277.91 409.76 276.93 409.767V408.605ZM280.08 405.56V412.028H281.004V405.56H280.08ZM284.503 406.932H285.826V406.183H282.249V406.932H283.572V407.156C283.572 408.353 283.061 409.592 281.983 410.096L282.529 410.824C283.271 410.453 283.775 409.739 284.048 408.871C284.328 409.676 284.825 410.341 285.553 410.698L286.085 409.97C285.014 409.48 284.503 408.29 284.503 407.156V406.932ZM286.568 405.56V407.814H285.434V408.563H286.568V412.028H287.492V405.56H286.568ZM288.521 410.495V411.251H294.359V410.495H288.521ZM289.137 405.987V409.424H293.722V405.987H292.812V407.03H290.054V405.987H289.137ZM290.054 407.751H292.812V408.689H290.054V407.751Z" fill="black"/>
<path d="M228.268 396.938V397.666H230.263C230.13 398.52 229.325 399.227 227.897 399.584L228.247 400.305C230.165 399.815 231.25 398.653 231.25 396.938H228.268ZM229.864 401.159H232.307V402.216H229.864V401.159ZM228.954 402.937H233.217V400.431H228.954V402.937ZM232.286 396.574V400.158H233.217V396.574H232.286ZM237.745 397.078H236.87V398.163C236.87 398.919 236.807 399.759 236.422 400.41C236.03 399.752 235.967 398.905 235.967 398.163V397.078H235.099V398.163C235.099 399.192 234.98 400.312 234.161 400.949L234.756 401.579C235.148 401.264 235.393 400.802 235.547 400.256C235.708 400.83 235.974 401.341 236.422 401.684C236.87 401.341 237.143 400.83 237.297 400.235C237.451 400.809 237.71 401.285 238.13 401.614L238.69 400.949C237.864 400.312 237.745 399.199 237.745 398.163V397.078ZM238.872 396.567V403.014H239.796V396.567H238.872ZM225.748 406.904H227.008V409.718H225.748V406.904ZM224.838 410.446H227.918V406.176H224.838V410.446ZM230.627 407.996H229.689V405.574H228.765V412.014H229.689V408.759H230.627V407.996ZM236.912 408.682H236.065C236.226 407.779 236.226 407.121 236.226 406.519V405.938H231.753V406.68H235.323C235.323 407.233 235.309 407.863 235.148 408.682H231.088V409.424H233.496V412.014H234.434V409.424H236.912V408.682ZM240.895 410.551V409.592H242.848V408.85H239.11V408.129H242.701V405.98H238.186V406.715H241.791V407.408H238.193V409.592H239.971V410.551H237.521V411.307H243.359V410.551H240.895Z" fill="black"/>
<path d="M284.961 460.637C284.961 460.277 285.221 460.067 285.571 460.067C285.921 460.067 286.186 460.277 286.186 460.637C286.186 460.997 285.921 461.212 285.571 461.212C285.221 461.212 284.961 460.997 284.961 460.637ZM285.906 461.732C286.446 461.612 286.826 461.192 286.826 460.637C286.826 459.977 286.286 459.502 285.571 459.502C284.861 459.502 284.321 459.977 284.321 460.637C284.321 461.197 284.706 461.622 285.251 461.737V462.387C284.866 462.392 284.491 462.392 284.166 462.392L284.246 462.927C285.021 462.932 286.046 462.932 287.006 462.752L286.951 462.277C286.616 462.317 286.266 462.347 285.906 462.362V461.732ZM288.456 461.042H287.851V459.232H287.191V463.837H287.851V461.587H288.456V461.042ZM292.641 459.242H291.976V462.547H292.641V459.242ZM289.526 460.702C289.526 460.322 289.796 460.102 290.136 460.102C290.481 460.102 290.741 460.322 290.741 460.702C290.741 461.072 290.481 461.297 290.136 461.297C289.796 461.297 289.526 461.072 289.526 460.702ZM291.386 460.702C291.386 460.022 290.841 459.532 290.136 459.532C289.431 459.532 288.881 460.022 288.881 460.702C288.881 461.372 289.431 461.867 290.136 461.867C290.841 461.867 291.386 461.372 291.386 460.702ZM290.236 463.237V462.222H289.576V463.762H292.756V463.237H290.236ZM296.365 461.062H296.715V462.667H297.34V459.237H296.715V460.532H296.365V459.322H295.75V462.517H296.365V461.062ZM294.025 460.737C294.025 460.357 294.215 460.142 294.485 460.142C294.75 460.142 294.945 460.357 294.945 460.737C294.945 461.117 294.75 461.332 294.485 461.332C294.215 461.332 294.025 461.117 294.025 460.737ZM295.535 460.737C295.535 460.052 295.095 459.572 294.485 459.572C293.875 459.572 293.43 460.052 293.43 460.737C293.43 461.422 293.875 461.902 294.485 461.902C295.095 461.902 295.535 461.422 295.535 460.737ZM294.9 463.237V462.232H294.24V463.762H297.455V463.237H294.9ZM299.1 460.097H301.085V461.317H299.1V460.097ZM300.425 462.772V461.837H301.73V459.577H298.455V461.837H299.765V462.772H298.015V463.307H302.185V462.772H300.425ZM303.874 462.247C303.539 462.247 303.314 461.882 303.314 461.197C303.314 460.517 303.539 460.152 303.874 460.152C304.214 460.152 304.439 460.517 304.439 461.197C304.439 461.882 304.214 462.247 303.874 462.247ZM305.819 459.232V460.892H305.049C304.959 460.062 304.494 459.557 303.874 459.557C303.189 459.557 302.684 460.187 302.684 461.197C302.684 462.212 303.189 462.847 303.874 462.847C304.514 462.847 304.984 462.307 305.054 461.427H305.819V463.852H306.479V459.232H305.819Z" fill="black"/>
<path d="M198.846 547.362C198.536 547.362 198.306 547.152 198.306 546.802C198.306 546.452 198.536 546.237 198.846 546.237C199.156 546.237 199.381 546.452 199.381 546.797C199.381 547.152 199.156 547.362 198.846 547.362ZM198.846 545.702C198.176 545.702 197.676 546.157 197.676 546.797C197.676 547.447 198.176 547.902 198.846 547.902C199.511 547.902 200.006 547.447 200.006 546.797C200.006 546.157 199.511 545.702 198.846 545.702ZM199.171 544.317H198.511V544.917H197.491V545.442H200.171V544.917H199.171V544.317ZM201.791 546.037H201.131V544.237H200.471V548.842H201.131V546.582H201.791V546.037ZM205.275 544.237V546.712H205.94V544.237H205.275ZM202.88 546.912V548.787H205.94V546.912H205.285V547.342H203.535V546.912H202.88ZM203.535 547.847H205.285V548.267H203.535V547.847ZM203.435 544.427C202.72 544.427 202.18 544.882 202.18 545.512C202.18 546.147 202.72 546.602 203.435 546.602C204.15 546.602 204.685 546.147 204.685 545.512C204.685 544.882 204.15 544.427 203.435 544.427ZM203.435 544.972C203.785 544.972 204.04 545.177 204.04 545.512C204.04 545.857 203.785 546.057 203.435 546.057C203.085 546.057 202.825 545.857 202.825 545.512C202.825 545.177 203.085 544.972 203.435 544.972ZM210.54 544.237H209.875V547.622H210.54V544.237ZM208.535 546.382H207.6V545.727H208.535V546.382ZM209.185 544.567H208.535V545.222H207.6V544.567H206.945V546.907H209.185V544.567ZM208.125 548.237V547.292H207.46V548.762H210.645V548.237H208.125ZM215.34 546.407C214.3 546.227 213.73 545.512 213.73 544.837V544.507H213.025V544.837C213.025 545.497 212.45 546.227 211.415 546.407L211.695 546.957C212.495 546.802 213.08 546.352 213.375 545.767C213.67 546.352 214.26 546.797 215.06 546.957L215.34 546.407ZM211.315 547.747V548.282H215.485V547.747H211.315Z" fill="black"/>
</g>
<path fill-rule="evenodd" clip-rule="evenodd" d="M281.789 494.432C285.317 493.822 288 490.756 288 487.065C288 482.935 284.642 479.588 280.5 479.588C276.358 479.588 273 482.935 273 487.065C273 490.756 275.683 493.822 279.211 494.432L280.5 499.588L281.789 494.432Z" fill="black"/>
<path fill-rule="evenodd" clip-rule="evenodd" d="M281.789 492.432C285.317 491.822 288 488.756 288 485.065C288 480.935 284.642 477.588 280.5 477.588C276.358 477.588 273 480.935 273 485.065C273 488.756 275.683 491.822 279.211 492.432L280.5 497.588L281.789 492.432Z" fill="#FF0000"/>
<ellipse cx="280.5" cy="485.065" rx="2.5" ry="2.49231" fill="white"/>
<path d="M6.78125 732.399H2.46777V735.927H7.47852V737H1.15527V727.047H7.41016V728.127H2.46777V731.326H6.78125V732.399ZM14.6084 734.402H10.4385L9.50195 737H8.14844L11.9492 727.047H13.0977L16.9053 737H15.5586L14.6084 734.402ZM10.835 733.322H14.2188L12.5234 728.667L10.835 733.322ZM21.1777 732.563C20.0521 732.24 19.2318 731.843 18.7168 731.374C18.2064 730.9 17.9512 730.317 17.9512 729.624C17.9512 728.84 18.2633 728.193 18.8877 727.683C19.5166 727.168 20.3324 726.91 21.335 726.91C22.0186 726.91 22.627 727.042 23.1602 727.307C23.6979 727.571 24.1126 727.936 24.4043 728.4C24.7005 728.865 24.8486 729.373 24.8486 729.925H23.5293C23.5293 729.323 23.3379 728.852 22.9551 728.51C22.5723 728.163 22.0322 727.99 21.335 727.99C20.6878 727.99 20.182 728.134 19.8174 728.421C19.4574 728.703 19.2773 729.098 19.2773 729.604C19.2773 730.009 19.4482 730.353 19.79 730.636C20.1364 730.914 20.722 731.169 21.5469 731.401C22.3763 731.634 23.0234 731.891 23.4883 732.174C23.9577 732.452 24.304 732.778 24.5273 733.151C24.7552 733.525 24.8691 733.965 24.8691 734.471C24.8691 735.277 24.5547 735.924 23.9258 736.412C23.2969 736.895 22.4561 737.137 21.4033 737.137C20.7197 737.137 20.0817 737.007 19.4893 736.747C18.8968 736.483 18.4388 736.123 18.1152 735.667C17.7962 735.211 17.6367 734.694 17.6367 734.115H18.9561C18.9561 734.717 19.1771 735.193 19.6191 735.544C20.0658 735.89 20.6605 736.063 21.4033 736.063C22.096 736.063 22.627 735.922 22.9961 735.64C23.3652 735.357 23.5498 734.972 23.5498 734.484C23.5498 733.997 23.3789 733.621 23.0371 733.356C22.6953 733.088 22.0755 732.823 21.1777 732.563ZM33.4346 728.127H30.2354V737H28.9297V728.127H25.7373V727.047H33.4346V728.127ZM48.2951 725.492H47.1891V732.016H48.2951V725.492ZM38.8451 728.81C38.8451 727.746 39.6151 726.976 40.6791 726.976C41.7291 726.976 42.4991 727.746 42.4991 728.81C42.4991 729.916 41.7291 730.686 40.6791 730.686C39.6151 730.686 38.8451 729.916 38.8451 728.81ZM44.8231 729.272V731.932H45.9011V725.744H44.8231V728.348H43.4931C43.2971 726.976 42.1771 726.066 40.6791 726.066C39.0131 726.066 37.8231 727.186 37.8231 728.81C37.8231 730.462 39.0131 731.596 40.6791 731.596C42.1771 731.596 43.3111 730.672 43.5071 729.272H44.8231ZM41.1691 736.944V735.6H48.2951V732.604H40.0071V733.514H47.1471V734.732H40.0351V737.868H48.7711V736.944H41.1691ZM52.452 731.12H57.086V726.64H51.262V727.578H55.924V730.196H51.304V735.012H52.34C54.496 735.012 56.4 734.928 58.668 734.55L58.556 733.612C56.358 733.962 54.51 734.06 52.452 734.06V731.12ZM59.732 725.464V738.05H60.88V725.464H59.732ZM67.6409 733.948H64.9949V730.7H67.6409V733.948ZM70.5389 730.252H68.7189V726.724H67.6409V729.776H64.9949V726.724H63.9029V734.886H68.7189V731.19H70.5389V737.42H71.6309V725.758H70.5389V730.252ZM73.0309 725.478V738.036H74.1229V725.478H73.0309ZM85.4618 725.478V738.064H86.6098V725.478H85.4618ZM79.9878 726.444C78.1258 726.444 76.7958 728.152 76.7958 730.826C76.7958 733.5 78.1258 735.208 79.9878 735.208C81.8498 735.208 83.1798 733.5 83.1798 730.826C83.1798 728.152 81.8498 726.444 79.9878 726.444ZM79.9878 727.48C81.2058 727.48 82.0738 728.796 82.0738 730.826C82.0738 732.87 81.2058 734.186 79.9878 734.186C78.7558 734.186 77.8878 732.87 77.8878 730.826C77.8878 728.796 78.7558 727.48 79.9878 727.48ZM90.9347 731.078H95.0507V730.154H90.9347V727.564H95.5967V726.612H89.7867V735.026H90.7527C93.1467 735.026 94.6727 734.956 96.4927 734.634L96.3667 733.696C94.6587 734.004 93.2027 734.088 90.9347 734.088V731.078ZM98.4107 725.464V730.21H95.8207V731.162H98.4107V738.05H99.5587V725.464H98.4107ZM110.884 727.676H103.548V730.364H112.242V729.538H104.682V728.46H112.018V725.842H103.52V726.654H110.884V727.676ZM104.612 735.88H112.06V733.206H103.45V734.032H110.926V735.082H103.478V737.868H112.452V737.042H104.612V735.88ZM102.092 731.316V732.184H113.474V731.316H102.092ZM127.571 725.478V738.064H128.719V725.478H127.571ZM122.097 726.444C120.235 726.444 118.905 728.152 118.905 730.826C118.905 733.5 120.235 735.208 122.097 735.208C123.959 735.208 125.289 733.5 125.289 730.826C125.289 728.152 123.959 726.444 122.097 726.444ZM122.097 727.48C123.315 727.48 124.183 728.796 124.183 730.826C124.183 732.87 123.315 734.186 122.097 734.186C120.865 734.186 119.997 732.87 119.997 730.826C119.997 728.796 120.865 727.48 122.097 727.48ZM136.992 737.14C135.018 737.14 133.856 736.65 133.856 735.796C133.856 734.942 135.018 734.452 136.992 734.452C138.952 734.452 140.128 734.942 140.128 735.796C140.128 736.65 138.952 737.14 136.992 737.14ZM136.992 733.556C134.304 733.556 132.694 734.354 132.694 735.796C132.694 737.238 134.304 738.022 136.992 738.022C139.694 738.022 141.29 737.238 141.29 735.796C141.29 734.354 139.694 733.556 136.992 733.556ZM135.256 730.224C135.774 730.308 136.362 730.364 136.992 730.364C137.636 730.364 138.224 730.308 138.742 730.224V731.694H135.256V730.224ZM133.758 728.04C133.758 727.13 134.99 726.598 136.992 726.598C138.994 726.598 140.226 727.13 140.226 728.04C140.226 728.936 138.994 729.482 136.992 729.482C134.99 729.482 133.758 728.936 133.758 728.04ZM139.876 731.694V729.916C140.842 729.524 141.402 728.88 141.402 728.04C141.402 726.57 139.722 725.702 136.992 725.702C134.276 725.702 132.582 726.57 132.582 728.04C132.582 728.894 133.128 729.524 134.122 729.93V731.694H131.308V732.618H142.676V731.694H139.876ZM147.883 734.284C146.749 734.284 145.923 733.472 145.923 732.352C145.923 731.218 146.749 730.406 147.883 730.406C149.031 730.406 149.857 731.218 149.857 732.352C149.857 733.472 149.031 734.284 147.883 734.284ZM147.883 729.454C146.119 729.454 144.845 730.658 144.845 732.352C144.845 734.06 146.119 735.236 147.883 735.236C149.675 735.236 150.949 734.06 150.949 732.352C150.949 730.658 149.675 729.454 147.883 729.454ZM148.443 725.632H147.295V727.494H144.131V728.418H151.537V727.494H148.443V725.632ZM155.933 730.644H153.875V725.492H152.727V738.036H153.875V731.61H155.933V730.644ZM163.422 732.254C163.506 731.82 163.562 731.344 163.562 730.826C163.562 730.252 163.492 729.72 163.38 729.23H166.278V732.254H163.422ZM160.44 734.186C159.236 734.186 158.396 732.87 158.396 730.826C158.396 728.796 159.236 727.48 160.44 727.48C161.63 727.48 162.484 728.796 162.484 730.826C162.484 732.87 161.63 734.186 160.44 734.186ZM166.278 725.478V728.292H163.058C162.526 727.116 161.602 726.444 160.44 726.444C158.606 726.444 157.304 728.152 157.304 730.826C157.304 733.5 158.606 735.208 160.44 735.208C161.644 735.208 162.624 734.466 163.142 733.192H166.278V738.064H167.426V725.478H166.278ZM182.559 725.478V738.064H183.707V725.478H182.559ZM177.085 726.444C175.223 726.444 173.893 728.152 173.893 730.826C173.893 733.5 175.223 735.208 177.085 735.208C178.947 735.208 180.277 733.5 180.277 730.826C180.277 728.152 178.947 726.444 177.085 726.444ZM177.085 727.48C178.303 727.48 179.171 728.796 179.171 730.826C179.171 732.87 178.303 734.186 177.085 734.186C175.853 734.186 174.985 732.87 174.985 730.826C174.985 728.796 175.853 727.48 177.085 727.48ZM191.994 737.14C190.006 737.14 188.844 736.65 188.844 735.768C188.844 734.886 190.006 734.396 191.994 734.396C193.954 734.396 195.116 734.886 195.116 735.768C195.116 736.65 193.954 737.14 191.994 737.14ZM191.994 733.5C189.306 733.5 187.682 734.312 187.682 735.768C187.682 737.224 189.306 738.036 191.994 738.036C194.654 738.036 196.278 737.224 196.278 735.768C196.278 734.312 194.654 733.5 191.994 733.5ZM192.568 731.68V730.224H196.348V729.3H188.886V726.976H196.264V726.052H187.738V730.224H191.42V731.68H186.31V732.604H197.678V731.68H192.568ZM202.871 734.284C201.737 734.284 200.911 733.472 200.911 732.352C200.911 731.218 201.737 730.406 202.871 730.406C204.019 730.406 204.845 731.218 204.845 732.352C204.845 733.472 204.019 734.284 202.871 734.284ZM202.871 729.454C201.107 729.454 199.833 730.658 199.833 732.352C199.833 734.06 201.107 735.236 202.871 735.236C204.663 735.236 205.937 734.06 205.937 732.352C205.937 730.658 204.663 729.454 202.871 729.454ZM203.431 725.632H202.283V727.494H199.119V728.418H206.525V727.494H203.431V725.632ZM210.921 730.644H208.863V725.492H207.715V738.036H208.863V731.61H210.921V730.644ZM215.792 726.668H214.686V729.062C214.686 731.218 213.65 733.472 211.928 734.48L212.642 735.334C213.888 734.564 214.798 733.15 215.246 731.484C215.694 733.01 216.534 734.34 217.724 735.068L218.382 734.172C216.73 733.164 215.792 731.036 215.792 729.02V726.668ZM219.096 729.986H217.024V730.938H219.096V737.42H220.174V725.758H219.096V729.986ZM221.644 725.478V738.036H222.736V725.478H221.644ZM228.881 732.52C229.399 732.646 230.001 732.716 230.617 732.716C231.247 732.716 231.849 732.646 232.381 732.52V735.474H228.881V732.52ZM230.617 727.172C232.633 727.172 234.089 728.096 234.089 729.496C234.089 730.896 232.633 731.82 230.617 731.82C228.601 731.82 227.159 730.896 227.159 729.496C227.159 728.096 228.601 727.172 230.617 727.172ZM233.529 735.474V732.072C234.565 731.526 235.181 730.63 235.181 729.496C235.181 727.536 233.291 726.276 230.617 726.276C227.957 726.276 226.053 727.536 226.053 729.496C226.053 730.63 226.683 731.54 227.733 732.086V735.474H224.933V736.426H236.343V735.474H233.529ZM238.068 736.337C238.068 736.118 238.132 735.936 238.26 735.79C238.392 735.644 238.588 735.571 238.848 735.571C239.107 735.571 239.303 735.644 239.436 735.79C239.572 735.936 239.641 736.118 239.641 736.337C239.641 736.547 239.572 736.722 239.436 736.863C239.303 737.005 239.107 737.075 238.848 737.075C238.588 737.075 238.392 737.005 238.26 736.863C238.132 736.722 238.068 736.547 238.068 736.337Z" fill="black"/>
<rect x="11" y="312" width="5" height="53.1429" fill="url(#paint0_linear)"/>
<path d="M13.5 372L6.13879 359.25L20.8612 359.25L13.5 372Z" fill="#FF0000"/>
<defs>
<linearGradient id="paint0_linear" x1="13.5" y1="312" x2="13.5" y2="365.143" gradientUnits="userSpaceOnUse">
<stop stop-color="#FF0000" stop-opacity="0"/>
<stop offset="0.546875" stop-color="#FF0000"/>
</linearGradient>
<clipPath id="clip0">
<rect width="315" height="330" fill="white" transform="translate(0 374)"/>
</clipPath>
</defs>
</svg>
