<svg width="315" height="740" viewBox="0 0 315 740" fill="none" xmlns="http://www.w3.org/2000/svg">
<path d="M206.616 33.3568H208.116V31.8568V1.5H313.5V328.5H1.5V61.5H161.319H162.819V60V33.3568H206.616Z" fill="#C4C4C4" stroke="black" stroke-width="3" stroke-miterlimit="10"/>
<path d="M251.266 85.3369H241.75V120.373H251.266V85.3369Z" fill="black"/>
<path d="M113.266 244.412H103.75V279.448H113.266V244.412Z" fill="black"/>
<path d="M276.806 85.3369H267.29V120.373H276.806V85.3369Z" fill="black"/>
<path d="M138.806 244.412H129.29V279.448H138.806V244.412Z" fill="black"/>
<path d="M265.448 85.3369H253.107V120.373H265.448V85.3369Z" fill="#FF0000"/>
<path d="M127.448 244.412H115.107V279.448H127.448V244.412Z" fill="black"/>
<path d="M240 85.4121H167V120.412H240V85.4121Z" fill="black"/>
<path d="M102 244.487H29V279.487H102V244.487Z" fill="black"/>
<path d="M262.869 106.285V100.971C262.869 100.414 262.44 99.9819 261.887 99.9819H256.607C256.054 99.9819 255.625 100.414 255.625 100.971V106.285C255.625 106.841 256.054 107.273 256.607 107.273H261.887C262.44 107.212 262.869 106.841 262.869 106.285ZM262.071 106.408H256.423V100.785H262.071V106.408Z" fill="white"/>
<path d="M260.168 96.5212C260.168 96.0886 260.782 96.0886 260.782 96.5212V98.2514L261.089 97.8806C261.334 97.6334 261.702 98.0042 261.457 98.2514L260.659 99.1783C260.536 99.3018 260.352 99.3018 260.229 99.1783L259.431 98.2514C259.185 97.9424 259.615 97.6334 259.799 97.8806L260.106 98.3132L260.168 96.5212Z" fill="white"/>
<path d="M257.773 98.9953C257.773 99.4279 258.387 99.4279 258.387 98.9953V97.2652L258.694 97.6359C258.94 97.8831 259.308 97.5123 259.062 97.2652L258.264 96.3383C258.141 96.2147 257.957 96.2147 257.834 96.3383L257.036 97.2652C256.791 97.5741 257.221 97.8831 257.405 97.6359L257.712 97.2034L257.773 98.9953Z" fill="white"/>
<path d="M260.905 102.453H259.861C259.738 102.453 259.615 102.577 259.615 102.7V103.998C259.615 104.122 259.677 104.183 259.799 104.183C259.799 104.183 259.861 104.183 259.922 104.183V105.852C259.922 106.161 260.352 106.161 260.352 105.852V104.183H260.413V105.852C260.413 106.161 260.843 106.161 260.843 105.852V104.183C260.905 104.183 260.966 104.183 260.966 104.183C261.089 104.183 261.15 104.122 261.15 103.998V102.7C261.15 102.577 261.027 102.453 260.905 102.453Z" fill="white"/>
<path d="M260.351 102.33C260.521 102.33 260.658 102.192 260.658 102.021C260.658 101.85 260.521 101.712 260.351 101.712C260.182 101.712 260.044 101.85 260.044 102.021C260.044 102.192 260.182 102.33 260.351 102.33Z" fill="white"/>
<path d="M258.695 102.453H257.651C257.528 102.453 257.405 102.577 257.405 102.7V103.998C257.405 104.122 257.467 104.183 257.589 104.183C257.589 104.183 257.651 104.183 257.712 104.183V105.852C257.712 106.161 258.142 106.161 258.142 105.852V104.183H258.203V105.852C258.203 106.161 258.633 106.161 258.633 105.852V104.183C258.695 104.183 258.756 104.183 258.756 104.183C258.879 104.183 258.94 104.122 258.94 103.998V102.7C258.94 102.577 258.817 102.453 258.695 102.453Z" fill="white"/>
<path d="M258.141 102.33C258.311 102.33 258.448 102.192 258.448 102.021C258.448 101.85 258.311 101.712 258.141 101.712C257.972 101.712 257.834 101.85 257.834 102.021C257.834 102.192 257.972 102.33 258.141 102.33Z" fill="white"/>
<path d="M124.869 265.36V260.046C124.869 259.49 124.44 259.057 123.887 259.057H118.607C118.054 259.057 117.625 259.49 117.625 260.046V265.36C117.625 265.916 118.054 266.349 118.607 266.349H123.887C124.44 266.287 124.869 265.916 124.869 265.36ZM124.071 265.484H118.423V259.86H124.071V265.484Z" fill="white"/>
<path d="M122.168 255.596C122.168 255.164 122.782 255.164 122.782 255.596V257.327L123.089 256.956C123.334 256.709 123.702 257.079 123.457 257.327L122.659 258.253C122.536 258.377 122.352 258.377 122.229 258.253L121.431 257.327C121.185 257.018 121.615 256.709 121.799 256.956L122.106 257.388L122.168 255.596Z" fill="white"/>
<path d="M119.773 258.071C119.773 258.503 120.387 258.503 120.387 258.071V256.34L120.694 256.711C120.94 256.958 121.308 256.588 121.062 256.34L120.264 255.413C120.141 255.29 119.957 255.29 119.834 255.413L119.036 256.34C118.791 256.649 119.221 256.958 119.405 256.711L119.712 256.279L119.773 258.071Z" fill="white"/>
<path d="M122.905 261.528H121.861C121.738 261.528 121.615 261.652 121.615 261.775V263.073C121.615 263.197 121.677 263.259 121.799 263.259C121.799 263.259 121.861 263.259 121.922 263.259V264.927C121.922 265.236 122.352 265.236 122.352 264.927V263.259H122.413V264.927C122.413 265.236 122.843 265.236 122.843 264.927V263.259C122.905 263.259 122.966 263.259 122.966 263.259C123.089 263.259 123.15 263.197 123.15 263.073V261.775C123.15 261.652 123.027 261.528 122.905 261.528Z" fill="white"/>
<path d="M122.351 261.405C122.521 261.405 122.658 261.267 122.658 261.096C122.658 260.925 122.521 260.787 122.351 260.787C122.182 260.787 122.044 260.925 122.044 261.096C122.044 261.267 122.182 261.405 122.351 261.405Z" fill="white"/>
<path d="M120.695 261.528H119.651C119.528 261.528 119.405 261.652 119.405 261.775V263.073C119.405 263.197 119.467 263.259 119.589 263.259C119.589 263.259 119.651 263.259 119.712 263.259V264.927C119.712 265.236 120.142 265.236 120.142 264.927V263.259H120.203V264.927C120.203 265.236 120.633 265.236 120.633 264.927V263.259C120.695 263.259 120.756 263.259 120.756 263.259C120.879 263.259 120.94 263.197 120.94 263.073V261.775C120.94 261.652 120.817 261.528 120.695 261.528Z" fill="white"/>
<path d="M120.141 261.405C120.311 261.405 120.448 261.267 120.448 261.096C120.448 260.925 120.311 260.787 120.141 260.787C119.972 260.787 119.834 260.925 119.834 261.096C119.834 261.267 119.972 261.405 120.141 261.405Z" fill="white"/>
<path d="M175.632 100.412H177.17V98.0542H178.462C180.135 98.0542 181.108 97.0563 181.108 95.6039C181.108 94.1586 180.153 93.1394 178.501 93.1394H175.632V100.412ZM177.17 96.8219V94.3965H178.207C179.094 94.3965 179.524 94.8794 179.524 95.6039C179.524 96.3248 179.094 96.8219 178.214 96.8219H177.17ZM183.487 100.515C184.293 100.515 184.815 100.164 185.082 99.6557H185.124V100.412H186.559V96.7331C186.559 95.4334 185.458 94.8865 184.244 94.8865C182.937 94.8865 182.077 95.5115 181.868 96.5059L183.267 96.6195C183.37 96.2573 183.693 95.9909 184.237 95.9909C184.751 95.9909 185.046 96.2502 185.046 96.6976V96.7189C185.046 97.0705 184.673 97.1167 183.725 97.209C182.646 97.3084 181.676 97.6706 181.676 98.8887C181.676 99.9682 182.447 100.515 183.487 100.515ZM183.92 99.4711C183.455 99.4711 183.121 99.2544 183.121 98.839C183.121 98.4128 183.473 98.2033 184.006 98.1287C184.336 98.0826 184.876 98.0044 185.057 97.8837V98.4625C185.057 99.0343 184.585 99.4711 183.92 99.4711ZM187.733 100.412H189.245V97.3262C189.245 96.655 189.735 96.1934 190.403 96.1934C190.613 96.1934 190.9 96.2289 191.042 96.275V94.9327C190.907 94.9007 190.719 94.8794 190.566 94.8794C189.956 94.8794 189.455 95.2346 189.256 95.9093H189.199V94.9576H187.733V100.412ZM191.824 100.412H193.337V98.6792L193.746 98.214L195.233 100.412H197.006L194.878 97.3191L196.903 94.9576H195.166L193.419 97.0279H193.337V93.1394H191.824V100.412ZM197.645 100.412H199.157V94.9576H197.645V100.412ZM198.405 94.2544C198.856 94.2544 199.225 93.91 199.225 93.4874C199.225 93.0684 198.856 92.7239 198.405 92.7239C197.957 92.7239 197.588 93.0684 197.588 93.4874C197.588 93.91 197.957 94.2544 198.405 94.2544ZM201.882 97.2587C201.886 96.5556 202.305 96.1436 202.915 96.1436C203.523 96.1436 203.888 96.5414 203.885 97.209V100.412H205.398V96.9391C205.398 95.6678 204.652 94.8865 203.516 94.8865C202.706 94.8865 202.12 95.2843 201.875 95.9199H201.811V94.9576H200.369V100.412H201.882V97.2587ZM209.047 102.571C210.606 102.571 211.714 101.861 211.714 100.465V94.9576H210.212V95.8738H210.155C209.953 95.4299 209.509 94.8865 208.596 94.8865C207.4 94.8865 206.388 95.8169 206.388 97.6742C206.388 99.4888 207.371 100.334 208.6 100.334C209.47 100.334 209.956 99.8972 210.155 99.4462H210.219V100.444C210.219 101.193 209.74 101.485 209.083 101.485C208.415 101.485 208.078 101.193 207.954 100.863L206.555 101.051C206.736 101.911 207.577 102.571 209.047 102.571ZM209.079 99.1976C208.337 99.1976 207.932 98.6081 207.932 97.6671C207.932 96.7402 208.33 96.0904 209.079 96.0904C209.814 96.0904 210.226 96.7118 210.226 97.6671C210.226 98.6294 209.807 99.1976 209.079 99.1976ZM175.632 112.412H180.547V111.144H177.17V109.408H180.281V108.14H177.17V106.407H180.533V105.139H175.632V112.412ZM183.009 112.412L183.548 110.754H186.173L186.713 112.412H188.36L185.853 105.139H183.872L181.361 112.412H183.009ZM183.939 109.553L184.834 106.801H184.891L185.786 109.553H183.939ZM193.015 107.231H194.489C194.467 105.935 193.402 105.04 191.783 105.04C190.188 105.04 189.02 105.921 189.027 107.242C189.023 108.314 189.78 108.928 191.009 109.223L191.8 109.422C192.592 109.614 193.033 109.841 193.036 110.331C193.033 110.864 192.528 111.226 191.747 111.226C190.948 111.226 190.373 110.857 190.323 110.129H188.835C188.874 111.702 190 112.515 191.765 112.515C193.54 112.515 194.585 111.666 194.588 110.335C194.585 109.124 193.672 108.481 192.408 108.197L191.754 108.041C191.122 107.895 190.593 107.661 190.604 107.139C190.604 106.67 191.019 106.325 191.772 106.325C192.507 106.325 192.958 106.659 193.015 107.231ZM195.345 106.407H197.572V112.412H199.092V106.407H201.318V105.139H195.345V106.407ZM204.616 112.412H206.154V109.408H209.276V112.412H210.81V105.139H209.276V108.14H206.154V105.139H204.616V112.412ZM213.331 112.412L213.871 110.754H216.495L217.035 112.412H218.683L216.175 105.139H214.194L211.683 112.412H213.331ZM214.261 109.553L215.156 106.801H215.213L216.108 109.553H214.261ZM219.558 112.412H224.213V111.144H221.096V105.139H219.558V112.412ZM225.232 112.412H229.887V111.144H226.769V105.139H225.232V112.412Z" fill="white"/>
<path d="M37.6321 259.487H39.1697V257.129H40.4624C42.1349 257.129 43.108 256.131 43.108 254.679C43.108 253.234 42.1527 252.215 40.5014 252.215H37.6321V259.487ZM39.1697 255.897V253.472H40.2067C41.0945 253.472 41.5241 253.955 41.5241 254.679C41.5241 255.4 41.0945 255.897 40.2138 255.897H39.1697ZM45.4872 259.59C46.2933 259.59 46.8153 259.239 47.0817 258.731H47.1243V259.487H48.5589V255.808C48.5589 254.509 47.4581 253.962 46.2436 253.962C44.9368 253.962 44.0774 254.587 43.8679 255.581L45.267 255.695C45.37 255.332 45.6932 255.066 46.2365 255.066C46.7514 255.066 47.0462 255.325 47.0462 255.773V255.794C47.0462 256.146 46.6733 256.192 45.7251 256.284C44.6456 256.384 43.6761 256.746 43.6761 257.964C43.6761 259.043 44.4467 259.59 45.4872 259.59ZM45.9205 258.546C45.4553 258.546 45.1214 258.33 45.1214 257.914C45.1214 257.488 45.473 257.278 46.0057 257.204C46.3359 257.158 46.8757 257.08 47.0568 256.959V257.538C47.0568 258.109 46.5845 258.546 45.9205 258.546ZM49.7326 259.487H51.2454V256.401C51.2454 255.73 51.7354 255.269 52.4031 255.269C52.6126 255.269 52.9002 255.304 53.0423 255.35V254.008C52.9073 253.976 52.7191 253.955 52.5664 253.955C51.9556 253.955 51.4549 254.31 51.256 254.984H51.1992V254.033H49.7326V259.487ZM53.8244 259.487H55.3372V257.754L55.7456 257.289L57.2335 259.487H59.0055L56.8784 256.394L58.9025 254.033H57.166L55.4189 256.103H55.3372V252.215H53.8244V259.487ZM59.6447 259.487H61.1575V254.033H59.6447V259.487ZM60.4047 253.33C60.8556 253.33 61.225 252.985 61.225 252.563C61.225 252.144 60.8556 251.799 60.4047 251.799C59.9572 251.799 59.5879 252.144 59.5879 252.563C59.5879 252.985 59.9572 253.33 60.4047 253.33ZM63.8821 256.334C63.8857 255.631 64.3047 255.219 64.9155 255.219C65.5227 255.219 65.8885 255.617 65.8849 256.284V259.487H67.3977V256.014C67.3977 254.743 66.652 253.962 65.5156 253.962C64.706 253.962 64.12 254.359 63.875 254.995H63.8111V254.033H62.3693V259.487H63.8821V256.334ZM71.0474 261.646C72.6064 261.646 73.7143 260.936 73.7143 259.541V254.033H72.2122V254.949H72.1554C71.9529 254.505 71.5091 253.962 70.5964 253.962C69.3997 253.962 68.3876 254.892 68.3876 256.749C68.3876 258.564 69.3713 259.409 70.6 259.409C71.47 259.409 71.9565 258.972 72.1554 258.521H72.2193V259.519C72.2193 260.269 71.7399 260.56 71.0829 260.56C70.4153 260.56 70.0779 260.269 69.9537 259.938L68.5545 260.127C68.7356 260.986 69.5772 261.646 71.0474 261.646ZM71.0794 258.273C70.3372 258.273 69.9324 257.683 69.9324 256.742C69.9324 255.815 70.3301 255.166 71.0794 255.166C71.8145 255.166 72.2264 255.787 72.2264 256.742C72.2264 257.705 71.8074 258.273 71.0794 258.273ZM39.2692 271.487H40.7678L42.1491 266.732H42.206L43.5909 271.487H45.0895L47.1705 264.215H45.4908L44.2869 269.278H44.223L42.8984 264.215H41.4602L40.1321 269.268H40.0717L38.8679 264.215H37.1882L39.2692 271.487ZM47.9934 271.487H52.9082V270.22H49.5311V268.483H52.6419V267.215H49.5311V265.482H52.894V264.215H47.9934V271.487ZM58.0618 266.306H59.5355C59.5142 265.01 58.4489 264.115 56.8295 264.115C55.2351 264.115 54.0668 264.996 54.0739 266.317C54.0703 267.389 54.8267 268.004 56.0554 268.298L56.8473 268.497C57.6392 268.689 58.0795 268.916 58.0831 269.406C58.0795 269.939 57.5753 270.301 56.794 270.301C55.995 270.301 55.4197 269.932 55.37 269.204H53.8821C53.9212 270.777 55.0469 271.59 56.8118 271.59C58.5874 271.59 59.6314 270.742 59.6349 269.41C59.6314 268.199 58.7188 267.556 57.4545 267.272L56.8011 267.116C56.169 266.97 55.6399 266.736 55.6506 266.214C55.6506 265.745 56.0661 265.401 56.8189 265.401C57.554 265.401 58.005 265.734 58.0618 266.306ZM60.3922 265.482H62.6188V271.487H64.1387V265.482H66.3652V264.215H60.3922V265.482ZM69.6634 271.487H71.201V268.483H74.3224V271.487H75.8565V264.215H74.3224V267.215H71.201V264.215H69.6634V271.487ZM78.3778 271.487L78.9176 269.829H81.5419L82.0817 271.487H83.7294L81.2223 264.215H79.2408L76.7301 271.487H78.3778ZM79.3082 268.629L80.2031 265.877H80.2599L81.1548 268.629H79.3082ZM84.6048 271.487H89.2603V270.22H86.1424V264.215H84.6048V271.487ZM90.2786 271.487H94.9341V270.22H91.8162V264.215H90.2786V271.487Z" fill="white"/>
<path d="M2.78125 43.4121H9.54688V33.0371H15.2344C22.5937 33.0371 26.875 28.6465 26.875 22.2559C26.875 15.8965 22.6719 11.4121 15.4063 11.4121H2.78125V43.4121ZM9.54688 27.6152V16.9434H14.1094C18.0156 16.9434 19.9063 19.0684 19.9063 22.2559C19.9063 25.4277 18.0156 27.6152 14.1406 27.6152H9.54688Z" fill="black"/>
<path fill-rule="evenodd" clip-rule="evenodd" d="M229.789 95.8438C233.317 95.2346 236 92.1681 236 88.4769C236 84.3475 232.642 81 228.5 81C224.358 81 221 84.3475 221 88.4769C221 92.1681 223.683 95.2346 227.211 95.8438L228.5 101L229.789 95.8438Z" fill="black"/>
<path fill-rule="evenodd" clip-rule="evenodd" d="M229.789 93.8438C233.317 93.2346 236 90.1681 236 86.4769C236 82.3475 232.642 79 228.5 79C224.358 79 221 82.3475 221 86.4769C221 90.1681 223.683 93.2346 227.211 93.8438L228.5 99L229.789 93.8438Z" fill="#FF0000"/>
<ellipse cx="228.5" cy="86.4767" rx="2.5" ry="2.49231" fill="white"/>
<mask id="path-30-inside-1" fill="white">
<path d="M285 704L280.014 697.385H159V672.413H187.554V649.43H210.537V503.839H180.381V448.486H210.537V374H314V648.484H292.39V678.397L312.833 704"/>
</mask>
<path d="M285 704L280.014 697.385H159V672.413H187.554V649.43H210.537V503.839H180.381V448.486H210.537V374H314V648.484H292.39V678.397L312.833 704" fill="white"/>
<path d="M280.014 697.385L282.41 695.579L281.51 694.385H280.014V697.385ZM159 697.385H156V700.385H159V697.385ZM159 672.413V669.413H156V672.413H159ZM187.554 672.413V675.413H190.554V672.413H187.554ZM187.554 649.43V646.43H184.554V649.43H187.554ZM210.537 649.43V652.43H213.537V649.43H210.537ZM210.537 503.839H213.537V500.839H210.537V503.839ZM180.381 503.839H177.381V506.839H180.381V503.839ZM180.381 448.486V445.486H177.381V448.486H180.381ZM210.537 448.486V451.486H213.537V448.486H210.537ZM210.537 374V371H207.537V374H210.537ZM314 374H317V371H314V374ZM314 648.484V651.484H317V648.484H314ZM292.39 648.484V645.484H289.39V648.484H292.39ZM292.39 678.397H289.39V679.447L290.046 680.269L292.39 678.397ZM287.396 702.194L282.41 695.579L277.618 699.19L282.604 705.806L287.396 702.194ZM280.014 694.385H159V700.385H280.014V694.385ZM162 697.385V672.413H156V697.385H162ZM159 675.413H187.554V669.413H159V675.413ZM190.554 672.413V649.43H184.554V672.413H190.554ZM187.554 652.43H210.537V646.43H187.554V652.43ZM213.537 649.43V503.839H207.537V649.43H213.537ZM210.537 500.839H180.381V506.839H210.537V500.839ZM183.381 503.839V448.486H177.381V503.839H183.381ZM180.381 451.486H210.537V445.486H180.381V451.486ZM213.537 448.486V374H207.537V448.486H213.537ZM210.537 377H314V371H210.537V377ZM311 374V648.484H317V374H311ZM314 645.484H292.39V651.484H314V645.484ZM289.39 648.484V678.397H295.39V648.484H289.39ZM290.046 680.269L310.489 705.872L315.177 702.128L294.735 676.525L290.046 680.269Z" fill="black" mask="url(#path-30-inside-1)"/>
<path d="M251.266 459.073H241.75V494.109H251.266V459.073Z" fill="#C4C4C4"/>
<path d="M276.806 459.073H267.29V494.109H276.806V459.073Z" fill="#C4C4C4"/>
<path d="M216.27 380.598V452.153H283.068V494.11H308.179V380.598H216.27Z" fill="#DAC452"/>
<path d="M276.745 501.339H253.107V514.192H276.745V501.339Z" fill="black"/>
<path d="M188.431 678.115H164.794V690.967H188.431V678.115Z" fill="black"/>
<path d="M265.448 459.073H253.107V494.109H265.448V459.073Z" fill="#FF0000"/>
<path d="M239.908 459.073H186.002V494.109H239.908V459.073Z" fill="#C4C4C4"/>
<path d="M235.118 501.339H216.085V520.494H235.118V501.339Z" fill="black"/>
<path d="M213.016 655.634H193.983V674.789H213.016V655.634Z" fill="black"/>
<path d="M235.118 524.388H216.085V546.324H235.118V524.388Z" fill="#DAC452"/>
<path d="M235.118 549.413H216.085V571.349H235.118V549.413Z" fill="#DAC452"/>
<path d="M235.118 600.454H216.085V622.39H235.118V600.454Z" fill="#DAC452"/>
<path d="M277.033 560.148H258V582.085H277.033V560.148Z" fill="#DAC452"/>
<path d="M277.033 524.148H258V546.085H277.033V524.148Z" fill="#DAC452"/>
<path d="M277 600.148H258V647.148H277V600.148Z" fill="#DAC452"/>
<path d="M235.118 574.439H216.085V591.803H235.118V574.439Z" fill="black"/>
<path d="M235.118 625.479H216.085V647.416H235.118V625.479Z" fill="#DAC452"/>
<path d="M258 675.148H235V691.148H258V675.148Z" fill="#DAC452"/>
<path d="M308.179 524.388H289.146V546.324H308.179V524.388Z" fill="#DAC452"/>
<path d="M308 497.148H289V521.148H308V497.148Z" fill="#DAC452"/>
<path d="M308.179 549.413H289.146V571.349H308.179V549.413Z" fill="#DAC452"/>
<path d="M308.179 574.439H289.146V596.376H308.179V574.439Z" fill="#DAC452"/>
<path d="M308.179 614.479H289.146V642.409H308.179V614.479Z" fill="#00AC8D"/>
<path d="M205.666 662.307C206.034 662.307 206.341 661.998 206.341 661.627C206.341 661.256 206.034 660.947 205.666 660.947C205.297 660.947 204.99 661.256 204.99 661.627C204.99 661.998 205.297 662.307 205.666 662.307Z" fill="white"/>
<path d="M205.543 666.694V669.103C205.543 669.536 204.929 669.536 204.929 669.103V666.694H204.07L204.991 663.48H204.868L204.315 665.272C204.193 665.643 203.64 665.52 203.763 665.087L204.377 663.11C204.438 662.862 204.745 662.492 205.236 662.492H205.666H206.157C206.648 662.492 206.955 662.924 207.017 663.11L207.631 665.087C207.754 665.52 207.201 665.705 207.078 665.272L206.526 663.48H206.341L207.262 666.694H206.403V669.103C206.403 669.536 205.789 669.536 205.789 669.103V666.694H205.543Z" fill="white"/>
<path d="M200.412 662.492C199.921 662.492 199.553 662.862 199.553 663.419V665.52C199.553 665.952 200.167 665.952 200.167 665.52V663.604H200.289V668.98C200.289 669.536 201.088 669.536 201.088 668.98V665.828H201.21V668.98C201.21 669.536 202.009 669.536 202.009 668.98V663.604H202.131V665.52C202.131 665.952 202.745 665.952 202.745 665.52V663.419C202.745 662.986 202.377 662.492 201.886 662.492H200.412Z" fill="white"/>
<path d="M201.087 662.307C201.46 662.307 201.763 662.002 201.763 661.627C201.763 661.252 201.46 660.947 201.087 660.947C200.714 660.947 200.412 661.252 200.412 661.627C200.412 662.002 200.714 662.307 201.087 662.307Z" fill="white"/>
<path d="M227.829 508.013C228.198 508.013 228.505 507.704 228.505 507.333C228.505 506.962 228.198 506.653 227.829 506.653C227.461 506.653 227.154 506.962 227.154 507.333C227.154 507.704 227.461 508.013 227.829 508.013Z" fill="white"/>
<path d="M227.707 512.4V514.81C227.707 515.243 227.093 515.243 227.093 514.81V512.4H226.233L227.154 509.187H227.031L226.479 510.979C226.356 511.35 225.804 511.226 225.926 510.794L226.54 508.816C226.602 508.569 226.909 508.198 227.4 508.198H227.83H228.321C228.812 508.198 229.119 508.631 229.18 508.816L229.794 510.794C229.917 511.226 229.365 511.411 229.242 510.979L228.689 509.187H228.505L229.426 512.4H228.566V514.81C228.566 515.243 227.952 515.243 227.952 514.81V512.4H227.707Z" fill="white"/>
<path d="M222.576 508.26C222.085 508.26 221.716 508.631 221.716 509.187V511.288C221.716 511.72 222.33 511.72 222.33 511.288V509.372H222.453V514.748C222.453 515.304 223.251 515.304 223.251 514.748V511.597H223.374V514.748C223.374 515.304 224.172 515.304 224.172 514.748V509.372H224.295V511.288C224.295 511.72 224.909 511.72 224.909 511.288V509.187C224.909 508.754 224.541 508.26 224.049 508.26H222.576Z" fill="white"/>
<path d="M223.251 508.013C223.624 508.013 223.926 507.708 223.926 507.333C223.926 506.958 223.624 506.653 223.251 506.653C222.878 506.653 222.576 506.958 222.576 507.333C222.576 507.708 222.878 508.013 223.251 508.013Z" fill="white"/>
<path d="M262.869 480.021V474.707C262.869 474.151 262.44 473.718 261.887 473.718H256.607C256.054 473.718 255.625 474.151 255.625 474.707V480.021C255.625 480.577 256.054 481.01 256.607 481.01H261.887C262.44 480.948 262.869 480.577 262.869 480.021ZM262.071 480.145H256.423V474.522H262.071V480.145Z" fill="white"/>
<path d="M260.168 470.258C260.168 469.825 260.782 469.825 260.782 470.258V471.988L261.089 471.617C261.334 471.37 261.702 471.741 261.457 471.988L260.659 472.915C260.536 473.038 260.352 473.038 260.229 472.915L259.431 471.988C259.185 471.679 259.615 471.37 259.799 471.617L260.106 472.049L260.168 470.258Z" fill="white"/>
<path d="M257.773 472.732C257.773 473.164 258.387 473.164 258.387 472.732V471.001L258.694 471.372C258.94 471.619 259.308 471.249 259.062 471.001L258.264 470.075C258.141 469.951 257.957 469.951 257.834 470.075L257.036 471.001C256.791 471.31 257.221 471.619 257.405 471.372L257.712 470.94L257.773 472.732Z" fill="white"/>
<path d="M260.905 476.189H259.861C259.738 476.189 259.615 476.313 259.615 476.437V477.734C259.615 477.858 259.677 477.92 259.799 477.92C259.799 477.92 259.861 477.92 259.922 477.92V479.588C259.922 479.897 260.352 479.897 260.352 479.588V477.92H260.413V479.588C260.413 479.897 260.843 479.897 260.843 479.588V477.92C260.905 477.92 260.966 477.92 260.966 477.92C261.089 477.92 261.15 477.858 261.15 477.734V476.437C261.15 476.313 261.027 476.189 260.905 476.189Z" fill="white"/>
<path d="M260.351 476.066C260.521 476.066 260.658 475.928 260.658 475.757C260.658 475.587 260.521 475.448 260.351 475.448C260.182 475.448 260.044 475.587 260.044 475.757C260.044 475.928 260.182 476.066 260.351 476.066Z" fill="white"/>
<path d="M258.695 476.189H257.651C257.528 476.189 257.405 476.313 257.405 476.437V477.734C257.405 477.858 257.467 477.92 257.589 477.92C257.589 477.92 257.651 477.92 257.712 477.92V479.588C257.712 479.897 258.142 479.897 258.142 479.588V477.92H258.203V479.588C258.203 479.897 258.633 479.897 258.633 479.588V477.92C258.695 477.92 258.756 477.92 258.756 477.92C258.879 477.92 258.94 477.858 258.94 477.734V476.437C258.94 476.313 258.817 476.189 258.695 476.189Z" fill="white"/>
<path d="M258.141 476.066C258.311 476.066 258.448 475.928 258.448 475.757C258.448 475.587 258.311 475.448 258.141 475.448C257.972 475.448 257.834 475.587 257.834 475.757C257.834 475.928 257.972 476.066 258.141 476.066Z" fill="white"/>
<path d="M229.224 587.663V582.349C229.224 581.793 228.794 581.36 228.242 581.36H222.962C222.409 581.36 221.979 581.793 221.979 582.349V587.663C221.979 588.219 222.409 588.652 222.962 588.652H228.242C228.794 588.652 229.224 588.219 229.224 587.663ZM228.426 587.849H222.778V582.225H228.426V587.849Z" fill="white"/>
<path d="M226.523 577.962C226.523 577.529 227.137 577.529 227.137 577.962V579.692L227.444 579.321C227.689 579.074 228.057 579.445 227.812 579.692L227.014 580.619C226.891 580.742 226.707 580.742 226.584 580.619L225.786 579.692C225.54 579.383 225.97 579.074 226.154 579.321L226.461 579.754L226.523 577.962Z" fill="white"/>
<path d="M224.128 580.371C224.128 580.804 224.742 580.804 224.742 580.371V578.641L225.049 579.012C225.295 579.259 225.663 578.888 225.417 578.641L224.619 577.714C224.496 577.591 224.312 577.591 224.189 577.714L223.391 578.641C223.146 578.95 223.575 579.259 223.76 579.012L224.067 578.579L224.128 580.371Z" fill="white"/>
<path d="M227.26 583.893H226.216C226.093 583.893 225.97 584.016 225.97 584.14V585.437C225.97 585.561 226.032 585.623 226.154 585.623C226.154 585.623 226.216 585.623 226.277 585.623V587.291C226.277 587.6 226.707 587.6 226.707 587.291V585.623H226.768V587.291C226.768 587.6 227.198 587.6 227.198 587.291V585.623C227.26 585.623 227.321 585.623 227.321 585.623C227.444 585.623 227.505 585.561 227.505 585.437V584.14C227.505 583.954 227.382 583.893 227.26 583.893Z" fill="white"/>
<path d="M226.769 583.769C226.938 583.769 227.076 583.631 227.076 583.46C227.076 583.29 226.938 583.151 226.769 583.151C226.599 583.151 226.462 583.29 226.462 583.46C226.462 583.631 226.599 583.769 226.769 583.769Z" fill="white"/>
<path d="M225.05 583.893H224.006C223.883 583.893 223.76 584.016 223.76 584.14V585.437C223.76 585.561 223.822 585.623 223.944 585.623C223.944 585.623 224.006 585.623 224.067 585.623V587.291C224.067 587.6 224.497 587.6 224.497 587.291V585.623H224.558V587.291C224.558 587.6 224.988 587.6 224.988 587.291V585.623C225.05 585.623 225.111 585.623 225.111 585.623C225.234 585.623 225.295 585.561 225.295 585.437V584.14C225.295 583.954 225.172 583.893 225.05 583.893Z" fill="white"/>
<path d="M224.496 583.769C224.666 583.769 224.803 583.631 224.803 583.46C224.803 583.29 224.666 583.151 224.496 583.151C224.327 583.151 224.189 583.29 224.189 583.46C224.189 583.631 224.327 583.769 224.496 583.769Z" fill="white"/>
<path d="M294.427 629.338H295.962V627.731H297.497V626.125H299.032V624.58H300.628V623.035H302.9V623.838H301.365V625.383H299.83V626.928H298.295V628.535H296.699V630.141H294.427V629.338Z" fill="white"/>
<path d="M175.845 682.008C176.214 682.008 176.521 681.699 176.521 681.328C176.521 680.957 176.214 680.648 175.845 680.648C175.477 680.648 175.17 680.957 175.17 681.328C175.17 681.699 175.477 682.008 175.845 682.008Z" fill="white"/>
<path d="M180.389 681.39H178.854C178.547 681.39 178.117 681.513 177.871 681.76L176.459 683.182V682.749C176.459 681.884 175.17 681.884 175.17 682.749V684.417L173.942 685.653C173.819 685.777 173.819 685.777 173.574 685.777H172.837C172.1 685.777 171.609 686.457 171.609 687.013C171.609 687.569 172.039 688.31 172.898 688.31C172.898 688.31 173.942 688.31 174.249 688.31C174.556 688.31 174.924 688.187 175.231 687.878L179.099 683.985C179.161 683.923 179.222 683.861 179.345 683.861C179.345 683.861 179.897 683.861 180.327 683.861C180.818 683.861 181.432 683.305 181.432 682.564C181.555 681.884 180.88 681.39 180.389 681.39ZM180.327 683.243H179.529C179.161 683.243 179.038 683.305 178.854 683.491L174.924 687.445C174.74 687.631 174.556 687.692 174.31 687.692H173.021C172.714 687.692 172.407 687.383 172.407 687.013C172.407 686.642 172.714 686.457 172.96 686.457H173.819C174.065 686.457 174.249 686.395 174.372 686.209L178.362 682.193C178.547 682.008 178.669 682.008 178.976 682.008H180.327C180.634 682.008 180.88 682.378 180.88 682.625C180.88 682.873 180.695 683.243 180.327 683.243Z" fill="white"/>
<path d="M264.158 505.231C264.527 505.231 264.834 504.923 264.834 504.552C264.834 504.181 264.527 503.872 264.158 503.872C263.79 503.872 263.483 504.181 263.483 504.552C263.544 504.923 263.79 505.231 264.158 505.231Z" fill="white"/>
<path d="M268.701 504.613H267.167C266.86 504.613 266.43 504.737 266.184 504.984L264.772 506.405V505.973C264.772 505.108 263.483 505.108 263.483 505.973V507.641L262.255 508.877C262.132 509.001 262.132 509.001 261.887 509.001H261.15C260.413 509.001 259.922 509.68 259.922 510.236C259.922 510.792 260.352 511.534 261.211 511.534C261.211 511.534 262.255 511.534 262.562 511.534C262.869 511.534 263.237 511.41 263.544 511.101L267.412 507.209C267.474 507.147 267.535 507.085 267.658 507.085C267.658 507.085 268.21 507.085 268.64 507.085C269.131 507.085 269.745 506.529 269.745 505.787C269.868 505.108 269.193 504.613 268.701 504.613ZM268.64 506.529H267.842C267.474 506.529 267.351 506.591 267.167 506.776L263.237 510.731C263.053 510.916 262.869 510.978 262.623 510.978H261.334C261.027 510.978 260.72 510.669 260.72 510.298C260.72 509.927 261.027 509.742 261.273 509.742H262.132C262.378 509.742 262.562 509.68 262.685 509.495L266.675 505.478C266.86 505.293 266.982 505.293 267.289 505.293H268.64C268.947 505.293 269.193 505.664 269.193 505.911C269.193 506.158 269.07 506.529 268.64 506.529Z" fill="white"/>
<path d="M178.026 384.148H182.941V382.881H179.564V381.144H182.675V379.876H179.564V378.143H182.927V376.876H178.026V384.148ZM185.403 384.148L185.943 382.49H188.567L189.107 384.148H190.754L188.247 376.876H186.266L183.755 384.148H185.403ZM186.333 381.29L187.228 378.538H187.285L188.18 381.29H186.333ZM195.409 378.967H196.883C196.861 377.671 195.796 376.776 194.177 376.776C192.582 376.776 191.414 377.657 191.421 378.978C191.417 380.05 192.174 380.665 193.403 380.96L194.194 381.158C194.986 381.35 195.427 381.577 195.43 382.067C195.427 382.6 194.922 382.962 194.141 382.962C193.342 382.962 192.767 382.593 192.717 381.865H191.229C191.268 383.438 192.394 384.251 194.159 384.251C195.935 384.251 196.979 383.403 196.982 382.071C196.979 380.86 196.066 380.217 194.802 379.933L194.148 379.777C193.516 379.631 192.987 379.397 192.998 378.875C192.998 378.406 193.413 378.062 194.166 378.062C194.901 378.062 195.352 378.396 195.409 378.967ZM197.739 378.143H199.966V384.148H201.486V378.143H203.712V376.876H197.739V378.143ZM167.466 390.143H169.693V396.148H171.212V390.143H173.439V388.876H167.466V390.143ZM180.784 392.512C180.784 390.133 179.306 388.776 177.378 388.776C175.439 388.776 173.973 390.133 173.973 392.512C173.973 394.881 175.439 396.248 177.378 396.248C179.306 396.248 180.784 394.891 180.784 392.512ZM179.225 392.512C179.225 394.053 178.493 394.888 177.378 394.888C176.259 394.888 175.531 394.053 175.531 392.512C175.531 390.971 176.259 390.136 177.378 390.136C178.493 390.136 179.225 390.971 179.225 392.512ZM183.286 396.148H184.785L186.166 391.393H186.223L187.608 396.148H189.107L191.188 388.876H189.508L188.304 393.94H188.24L186.916 388.876H185.477L184.149 393.929H184.089L182.885 388.876H181.205L183.286 396.148ZM192.011 396.148H196.925V394.881H193.548V393.144H196.659V391.876H193.548V390.143H196.911V388.876H192.011V396.148ZM198.134 396.148H199.671V393.57H200.793L202.171 396.148H203.869L202.324 393.322C203.151 392.967 203.609 392.246 203.609 391.251C203.609 389.806 202.654 388.876 201.003 388.876H198.134V396.148ZM199.671 392.335V390.133H200.708C201.596 390.133 202.026 390.527 202.026 391.251C202.026 391.972 201.596 392.335 200.715 392.335H199.671Z" fill="black"/>
<path d="M2.78125 417H16.4531C23.6406 417 27.4688 413.25 27.4688 408.156C27.4688 403.422 24.0781 400.562 20.4375 400.391V400.078C23.7656 399.328 26.2188 396.969 26.2188 393.203C26.2188 388.406 22.6563 385 15.5937 385H2.78125V417ZM9.54688 411.469V402.969H15.2188C18.4688 402.969 20.4844 404.844 20.4844 407.484C20.4844 409.891 18.8438 411.469 15.0625 411.469H9.54688ZM9.54688 398.391V390.469H14.6875C17.6875 390.469 19.3906 392.016 19.3906 394.328C19.3906 396.859 17.3281 398.391 14.5625 398.391H9.54688ZM31.6836 417H54.4961V411.469H41.0586V411.25L45.7305 406.672C52.3086 400.672 54.0742 397.672 54.0742 394.031C54.0742 388.484 49.543 384.562 42.6836 384.562C35.9648 384.562 31.3555 388.578 31.3711 394.859H37.793C37.7773 391.797 39.7148 389.922 42.6367 389.922C45.4492 389.922 47.543 391.672 47.543 394.484C47.543 397.031 45.9805 398.781 43.0742 401.578L31.6836 412.125V417Z" fill="black"/>
<path d="M237.497 421.288C238.527 421.288 239.397 420.888 239.897 420.398V417.058H237.267V418.268H238.577V419.728C238.367 419.908 238.007 420.008 237.647 420.008C236.197 420.008 235.457 419.038 235.457 417.428C235.457 415.838 236.317 414.878 237.547 414.878C238.217 414.878 238.637 415.148 238.997 415.498L239.787 414.558C239.307 414.068 238.567 413.608 237.497 413.608C235.527 413.608 233.947 415.038 233.947 417.478C233.947 419.948 235.477 421.288 237.497 421.288ZM241.485 421.148H243.595C245.775 421.148 247.175 419.908 247.175 417.418C247.175 414.918 245.775 413.748 243.515 413.748H241.485V421.148ZM242.965 419.958V414.928H243.425C244.805 414.928 245.665 415.608 245.665 417.418C245.665 419.218 244.805 419.958 243.425 419.958H242.965ZM250.104 414.918H251.064C252.014 414.918 252.534 415.188 252.534 415.988C252.534 416.778 252.014 417.178 251.064 417.178H250.104V414.918ZM254.304 421.148L252.574 418.118C253.424 417.788 253.984 417.098 253.984 415.988C253.984 414.288 252.754 413.748 251.204 413.748H248.624V421.148H250.104V418.348H251.134L252.654 421.148H254.304ZM259.696 418.818C259.006 418.818 258.546 418.088 258.546 416.718C258.546 415.358 259.006 414.628 259.696 414.628C260.376 414.628 260.846 415.358 260.846 416.718C260.846 418.088 260.376 418.818 259.696 418.818ZM259.696 413.438C258.296 413.438 257.276 414.698 257.276 416.718C257.276 418.748 258.296 420.018 259.696 420.018C261.086 420.018 262.116 418.748 262.116 416.718C262.116 414.698 261.086 413.438 259.696 413.438ZM265.776 416.268H264.436V412.798H263.116V422.008H264.436V417.358H265.776V416.268ZM266.955 413.678V414.728H269.875C269.845 415.168 269.775 415.568 269.685 415.948L266.465 416.138L266.635 417.258L269.305 416.998C268.785 418.008 267.895 418.868 266.385 419.618L267.085 420.638C270.515 418.888 271.185 416.518 271.185 413.678H266.955ZM274.925 416.308H273.635V412.788H272.315V421.988H273.635V417.398H274.925V416.308ZM277.194 414.888H279.404V413.838H275.894V419.958H276.524C277.874 419.958 278.784 419.918 279.814 419.718L279.704 418.638C278.894 418.798 278.154 418.858 277.194 418.878V414.888ZM280.374 416.158H278.774V417.228H280.374V421.598H281.604V412.968H280.374V416.158ZM282.284 412.788V421.998H283.534V412.788H282.284ZM285.274 413.628V419.818H289.704V413.628H285.274ZM288.404 414.668V418.778H286.574V414.668H288.404ZM291.134 412.798V422.028H292.454V412.798H291.134Z" fill="black"/>
<path d="M296.984 507.752H296.496C296.62 507.152 296.62 506.724 296.62 506.344V506.012H294.04V506.432H296.112C296.112 506.552 296.112 506.676 296.104 506.808L293.92 506.876L293.98 507.324L296.068 507.216C296.048 507.38 296.02 507.56 295.976 507.752H293.656V508.18H295.052V509.484H295.58V508.18H296.984V507.752ZM300.472 505.808H299.972V508.548H300.472V505.808ZM297.816 507.004C297.816 506.7 297.972 506.528 298.188 506.528C298.404 506.528 298.56 506.7 298.56 507.004C298.56 507.304 298.404 507.48 298.188 507.48C297.972 507.48 297.816 507.304 297.816 507.004ZM299.24 507.228V508.44H299.732V505.872H299.24V506.804H299.012C298.936 506.372 298.612 506.076 298.188 506.076C297.7 506.076 297.344 506.46 297.344 507.004C297.344 507.552 297.7 507.936 298.188 507.936C298.604 507.936 298.924 507.652 299.008 507.228H299.24ZM298.52 509.008V508.2H297.992V509.428H300.564V509.008H298.52ZM301.348 508.092C301.988 507.976 302.448 507.652 302.68 507.216C302.912 507.644 303.38 507.96 304.028 508.072L304.228 507.656C303.396 507.532 302.96 507.044 302.956 506.536H304.064V506.12H301.288V506.536H302.396C302.392 507.044 301.956 507.544 301.144 507.672L301.348 508.092ZM301.012 508.624V509.052H304.348V508.624H301.012ZM296.876 513.212H296.152V512.396H296.876V513.212ZM298.056 510.804V512.1H297.396V511.096H296.876V511.984H296.152V511.096H295.628V513.632H297.396V512.524H298.056V514.5H298.584V510.804H298.056ZM302.228 510.808H301.7V513.252H302.228V510.808ZM299.42 511.04V511.46H300.584C300.572 511.564 300.552 511.672 300.52 511.768L299.232 511.812L299.308 512.224L300.3 512.148C300.092 512.396 299.748 512.604 299.228 512.756L299.432 513.172C300.68 512.78 301.14 512.084 301.14 511.04H299.42ZM301.256 513.032H300.712V513.104C300.712 513.528 300.34 513.948 299.54 514.064L299.744 514.48C300.34 514.38 300.764 514.116 300.984 513.756C301.196 514.112 301.608 514.372 302.188 514.472L302.396 514.06C301.612 513.944 301.256 513.532 301.256 513.104V513.032Z" fill="black"/>
<path d="M296.992 531.696V532.124H297.544V533H298.072V530.808H297.544V531.696H296.992ZM297.212 532.488C296.652 532.304 296.396 531.872 296.38 531.452H297.096V531.028H295.116V531.452H295.84C295.824 531.912 295.556 532.38 294.972 532.584L295.24 533C295.668 532.856 295.96 532.556 296.12 532.184C296.28 532.508 296.556 532.768 296.956 532.9L297.212 532.488ZM296.828 534.096C296.344 534.096 296.092 533.996 296.092 533.788C296.092 533.58 296.344 533.48 296.828 533.48C297.308 533.48 297.56 533.58 297.56 533.788C297.56 533.996 297.308 534.096 296.828 534.096ZM296.828 533.08C296.044 533.08 295.564 533.34 295.564 533.788C295.564 534.236 296.044 534.496 296.828 534.496C297.608 534.496 298.088 534.236 298.088 533.788C298.088 533.34 297.608 533.08 296.828 533.08ZM300.336 530.864C299.52 530.864 299.004 531.128 299.004 531.564C299.004 532 299.52 532.26 300.336 532.26C301.152 532.26 301.672 532 301.672 531.564C301.672 531.128 301.152 530.864 300.336 530.864ZM300.336 531.264C300.844 531.264 301.128 531.36 301.128 531.564C301.128 531.764 300.844 531.86 300.336 531.86C299.832 531.86 299.548 531.764 299.548 531.564C299.548 531.36 299.832 531.264 300.336 531.264ZM299.06 533.056V534.448H301.604V533.056H301.076V533.344H299.584V533.056H299.06ZM299.584 533.74H301.076V534.036H299.584V533.74ZM298.672 532.452V532.872H302V532.452H298.672ZM294.453 535.808H293.953V538.28H294.453V535.808ZM291.789 536.952C291.789 536.664 291.941 536.492 292.161 536.492C292.381 536.492 292.533 536.664 292.533 536.952C292.533 537.24 292.381 537.408 292.161 537.408C291.941 537.408 291.789 537.24 291.789 536.952ZM293.237 536.744V537.172H292.977C292.989 537.1 292.997 537.032 292.997 536.956C292.997 536.88 292.989 536.812 292.977 536.744H293.237ZM293.237 537.592V537.928H293.729V535.88H293.237V536.324H292.777C292.629 536.156 292.413 536.056 292.161 536.056C291.677 536.056 291.325 536.424 291.325 536.952C291.325 537.484 291.677 537.852 292.161 537.852C292.409 537.852 292.621 537.756 292.769 537.592H293.237ZM293.445 538.092H292.917V538.188C292.917 538.568 292.541 538.968 291.745 539.072L291.937 539.48C292.529 539.396 292.957 539.148 293.181 538.812C293.405 539.148 293.833 539.396 294.425 539.48L294.621 539.072C293.825 538.968 293.445 538.568 293.445 538.188V538.092ZM297.064 536.952C296.572 537.048 296.104 537.08 295.668 537.088V535.968H295.14V537.528H295.452C295.968 537.528 296.524 537.492 297.124 537.372L297.064 536.952ZM295.992 538.796H297.892V537.776H295.46V538.192H297.364V538.408H295.464V539.448H297.996V539.036H295.992V538.796ZM297.892 536.496V535.804H297.364V537.628H297.892V536.924H298.38V536.496H297.892ZM298.904 536.02V536.436H300.044C299.968 536.924 299.508 537.328 298.692 537.532L298.892 537.944C299.988 537.664 300.608 537 300.608 536.02H298.904ZM299.816 538.432H301.212V539.036H299.816V538.432ZM299.296 539.448H301.732V538.016H299.296V539.448ZM301.2 535.812V537.86H301.732V535.812H301.2ZM303.704 537.284H302.98V536.836H303.704V537.284ZM304.224 535.988H303.704V536.432H302.98V535.988H302.46V537.7H304.224V535.988ZM304.728 539.032H303.368V538.716H304.728V539.032ZM304.728 538.308H303.368V537.988H302.848V539.452H305.252V537.988H304.728V538.308ZM305.74 536.584H305.252V535.808H304.724V537.832H305.252V537.016H305.74V536.584Z" fill="black"/>
<path d="M298.716 558.488C297.876 558.352 297.424 557.8 297.424 557.276V557.012H296.86V557.276C296.86 557.788 296.404 558.352 295.572 558.488L295.788 558.924C296.432 558.808 296.9 558.46 297.14 558.008C297.38 558.464 297.852 558.808 298.5 558.924L298.716 558.488ZM297.408 559.632V558.808H296.88V559.632H295.492V560.056H298.828V559.632H297.408ZM301.696 556.804V560.5H302.224V556.804H301.696ZM300.244 557.064C299.688 557.064 299.276 557.568 299.276 558.376C299.276 559.188 299.688 559.696 300.244 559.696C300.8 559.696 301.212 559.188 301.212 558.376C301.212 557.568 300.8 557.064 300.244 557.064ZM300.244 557.54C300.516 557.54 300.704 557.832 300.704 558.376C300.704 558.924 300.516 559.216 300.244 559.216C299.972 559.216 299.784 558.924 299.784 558.376C299.784 557.832 299.972 557.54 300.244 557.54ZM296.04 562.98C296.04 562.676 296.24 562.488 296.508 562.488C296.78 562.488 296.98 562.676 296.98 562.98C296.98 563.288 296.78 563.476 296.508 563.476C296.24 563.476 296.04 563.288 296.04 562.98ZM298.044 562.74V563.216H297.452C297.472 563.144 297.48 563.06 297.48 562.98C297.48 562.896 297.468 562.816 297.452 562.74H298.044ZM298.044 563.636V564.504H298.572V561.808H298.044V562.32H297.224C297.044 562.136 296.796 562.028 296.508 562.028C295.964 562.028 295.54 562.432 295.54 562.98C295.54 563.532 295.964 563.936 296.508 563.936C296.796 563.936 297.052 563.824 297.232 563.636H298.044ZM296.672 565.008V564.24H296.144V565.428H298.656V565.008H296.672ZM301.256 563.12C300.76 563.216 300.288 563.252 299.848 563.26V561.98H299.32V563.7H299.632C300.152 563.7 300.716 563.664 301.316 563.544L301.256 563.12ZM300.192 564.464H301.556V565.036H300.192V564.464ZM299.672 565.448H302.072V564.052H299.672V565.448ZM302.56 562.584H302.072V561.808H301.544V563.88H302.072V563.016H302.56V562.584Z" fill="black"/>
<path d="M296.824 584.828H297.556V584.408H296.828V583.896H296.3V584.408H295.552V584.828H296.3V584.956C296.3 585.508 296.024 586.132 295.428 586.408L295.712 586.812C296.124 586.628 296.408 586.256 296.568 585.816C296.72 586.224 296.988 586.568 297.38 586.748L297.66 586.348C297.084 586.072 296.824 585.476 296.824 584.956V584.828ZM298.912 585.24H298.376V583.812H297.848V587.492H298.376V585.676H298.912V585.24ZM299.708 584.748C299.708 584.492 299.904 584.336 300.18 584.336C300.456 584.336 300.652 584.492 300.652 584.748C300.652 585.008 300.456 585.164 300.18 585.164C299.904 585.164 299.708 585.008 299.708 584.748ZM301.16 584.748C301.16 584.264 300.744 583.912 300.18 583.912C299.62 583.912 299.2 584.264 299.2 584.748C299.2 585.24 299.62 585.588 300.18 585.588C300.744 585.588 301.16 585.24 301.16 584.748ZM300.168 586.8H302.072V585.792H299.64V586.2H301.552V586.42H299.644V587.448H302.176V587.04H300.168V586.8ZM302.072 584.516V583.808H301.544V585.648H302.072V584.948H302.556V584.516H302.072Z" fill="black"/>
<path d="M263.82 531.604H264.356V531.176H262.716V531.604H263.308V531.784C263.308 532.416 263.116 533.076 262.58 533.416L262.892 533.804C263.224 533.596 263.44 533.236 263.568 532.816C263.688 533.204 263.896 533.524 264.224 533.716L264.532 533.332C264 533.02 263.82 532.4 263.82 531.784V531.604ZM264.568 532.064H264.1V532.492H264.568V534.324H265.06V530.868H264.568V532.064ZM265.312 530.804V534.488H265.812V530.804H265.312ZM266.992 531.16H266.476V533.612H266.732C267.196 533.612 267.596 533.596 268.036 533.504L267.972 533.064C267.632 533.128 267.324 533.152 266.992 533.16V531.16ZM268.22 531.968H267.496V532.396H268.22V534.328H268.712V530.868H268.22V531.968ZM269 530.804V534.488H269.5V530.804H269ZM272.136 532.148C271.672 532.224 271.272 532.24 270.668 532.244V531.984H271.82V530.976H270.14V531.376H271.3V531.616H270.144V532.648H270.456C271.2 532.648 271.66 532.636 272.176 532.548L272.136 532.148ZM271.032 533.84H272.912V532.86H270.504V533.256H272.392V533.468H270.512V534.464H273.044V534.068H271.032V533.84ZM272.912 531.532V530.804H272.384V532.72H272.912V531.964H273.4V531.532H272.912ZM265.632 537.508H263.568V536.54H265.604V536.112H263.04V537.928H265.632V537.508ZM262.652 538.62V539.052H265.988V538.62H262.652ZM269.392 535.808H268.86V538.044H269.392V535.808ZM268.556 537.368C268.076 537.448 267.648 537.468 267.04 537.472V537.148H268.212V536.024H266.516V536.444H267.692V536.756H266.52V537.896H266.844C267.576 537.896 268.068 537.88 268.616 537.788L268.556 537.368ZM268.152 539.088C267.672 539.088 267.42 539 267.42 538.804C267.42 538.612 267.672 538.524 268.152 538.524C268.636 538.524 268.888 538.612 268.888 538.804C268.888 539 268.636 539.088 268.152 539.088ZM268.152 538.112C267.372 538.112 266.892 538.368 266.892 538.804C266.892 539.24 267.372 539.496 268.152 539.496C268.936 539.496 269.416 539.24 269.416 538.804C269.416 538.368 268.936 538.112 268.152 538.112ZM270.284 537.216L270.348 537.644L272.452 537.536C272.428 537.784 272.388 538.052 272.316 538.352L272.836 538.404C273.008 537.604 273.008 537.096 273.008 536.56V536.132H270.388V536.552H272.488V536.56C272.488 536.748 272.488 536.94 272.48 537.144L270.284 537.216ZM270.016 538.624V539.056H273.344V538.624H270.016Z" fill="black"/>
<path d="M218.279 532.792C218.759 532.792 219.067 532.936 219.067 533.2C219.067 533.468 218.759 533.612 218.279 533.612C217.795 533.612 217.487 533.468 217.487 533.2C217.487 532.936 217.795 532.792 218.279 532.792ZM218.279 534.032C219.063 534.032 219.611 533.708 219.611 533.2C219.611 532.7 219.063 532.372 218.279 532.372C217.491 532.372 216.947 532.7 216.947 533.2C216.947 533.708 217.491 534.032 218.279 534.032ZM219.955 534.308H216.619V534.732H218.011V535.936H218.539V534.732H219.955V534.308ZM221.127 534.688C220.927 534.688 220.807 534.412 220.807 533.844C220.807 533.28 220.927 533.004 221.127 533.004C221.331 533.004 221.447 533.28 221.447 533.844C221.447 534.412 221.331 534.688 221.127 534.688ZM222.211 533.604H221.919C221.859 532.916 221.563 532.508 221.127 532.508C220.639 532.508 220.331 533.012 220.331 533.844C220.331 534.68 220.639 535.184 221.127 535.184C221.575 535.184 221.875 534.752 221.923 534.032H222.211V535.768H222.703V532.308H222.211V533.604ZM222.959 532.244V535.928H223.459V532.244H222.959ZM225.911 535.092V534.252H226.963V533.832H224.883V532.528H224.355V534.252H225.383V535.092H223.979V535.52H227.315V535.092H225.911ZM228.142 534.372L228.602 533.636C228.686 533.476 228.766 533.312 228.838 533.156H228.854C228.846 533.328 228.83 533.596 228.83 533.768V534.372H228.142ZM229.73 534.372H229.378V532.628H228.674L227.57 534.42V534.82H228.83V535.588H229.378V534.82H229.73V534.372ZM230.014 535.588H231.998V535.092H231.354C231.218 535.092 231.022 535.108 230.874 535.124C231.414 534.596 231.858 534.02 231.858 533.484C231.858 532.932 231.486 532.572 230.926 532.572C230.522 532.572 230.258 532.732 229.986 533.02L230.306 533.34C230.454 533.176 230.634 533.036 230.85 533.036C231.13 533.036 231.294 533.216 231.294 533.516C231.294 533.972 230.818 534.528 230.014 535.248V535.588ZM232.525 535.588H234.305V535.112H233.749V532.628H233.313C233.125 532.744 232.921 532.82 232.625 532.876V533.24H233.161V535.112H232.525V535.588ZM219.689 539.66H218.949V538.844H219.689V539.66ZM219.689 538.432H218.949V537.54H218.425V540.08H220.213V537.54H219.689V538.432ZM221.733 538.62H221.197V537.252H220.669V540.932H221.197V539.06H221.733V538.62ZM224.516 537.244V540.94H225.044V537.244H224.516ZM223.064 537.504C222.508 537.504 222.096 538.008 222.096 538.816C222.096 539.628 222.508 540.136 223.064 540.136C223.62 540.136 224.032 539.628 224.032 538.816C224.032 538.008 223.62 537.504 223.064 537.504ZM223.064 537.98C223.336 537.98 223.524 538.272 223.524 538.816C223.524 539.364 223.336 539.656 223.064 539.656C222.792 539.656 222.604 539.364 222.604 538.816C222.604 538.272 222.792 537.98 223.064 537.98ZM228.54 539.68C228.688 538.896 228.688 538.376 228.688 537.916V537.564H226.012V537.984H228.16C228.16 538.412 228.152 538.924 228.012 539.62L228.54 539.68ZM227.38 540.064V538.796H226.852V540.064H225.676V540.488H229.008V540.064H227.38ZM230.42 539.6H229.948V538.04H230.42V539.6ZM231.264 538.584H230.908V537.624H229.456V540.012H230.908V539.012H231.264V540.764H231.756V537.304H231.264V538.584ZM232.012 537.244V540.928H232.512V537.244H232.012Z" fill="black"/>
<path d="M220.832 559.58V562.056H222.604V559.58H220.832ZM222.084 559.996V561.64H221.352V559.996H222.084ZM223.176 559.248V562.94H223.704V559.248H223.176ZM224.512 559.58V562.056H226.284V559.58H224.512ZM225.764 559.996V561.64H225.032V559.996H225.764ZM226.856 559.248V562.94H227.384V559.248H226.856ZM230.096 560.652C229.696 560.736 229.332 560.76 228.676 560.764V559.896H229.792V559.472H228.152V561.188H228.46C229.276 561.188 229.696 561.168 230.148 561.068L230.096 560.652ZM229.036 561.888H230.396V562.476H229.036V561.888ZM228.516 562.888H230.912V561.472H228.516V562.888ZM231.4 560.076H230.912V559.244H230.384V561.312H230.912V560.504H231.4V560.076Z" fill="black"/>
<path d="M221.824 611.196H221V610.804H220.468V611.196H219.652V611.608H221.82L221.824 611.196ZM220.336 612.448C220.336 612.248 220.5 612.14 220.736 612.14C220.968 612.14 221.136 612.248 221.136 612.448C221.136 612.652 220.968 612.76 220.736 612.76C220.5 612.76 220.336 612.652 220.336 612.448ZM221.64 612.448C221.64 612.032 221.264 611.74 220.736 611.74C220.208 611.74 219.832 612.032 219.832 612.448C219.832 612.872 220.208 613.16 220.736 613.16C221.264 613.16 221.64 612.872 221.64 612.448ZM220.704 613.36H220.176V614.428H222.684V614.008H220.704V613.36ZM222.552 611.932V610.808H222.024V613.564H222.552V612.368H223.04V611.932H222.552ZM226.668 612.656V612.236H226.204C226.276 611.844 226.276 611.536 226.276 611.26V610.964H223.744V611.388H225.756C225.756 611.632 225.744 611.9 225.676 612.236H223.332V612.656H224.732V613.176H223.668V613.592H225.752V614.492H226.284V613.176H225.26V612.656H226.668ZM229.308 612.356C228.748 612.192 228.476 611.812 228.448 611.424H229.172V611.008H227.168V611.424H227.904C227.876 611.84 227.608 612.24 227.024 612.412L227.288 612.828C227.72 612.696 228.016 612.42 228.184 612.076C228.352 612.392 228.636 612.644 229.052 612.764L229.308 612.356ZM229.548 614.028H228.148V613.704H229.548V614.028ZM229.548 613.3H228.148V612.964H227.624V614.448H230.072V612.964H229.548V613.3ZM229.54 610.812V612.808H230.072V610.812H229.54Z" fill="black"/>
<path d="M221.84 636.408C221.26 636.216 221.012 635.756 221.012 635.3V634.996H220.476V635.312C220.476 635.808 220.22 636.3 219.604 636.508L219.88 636.92C220.308 636.772 220.596 636.484 220.756 636.112C220.916 636.432 221.18 636.688 221.564 636.82L221.84 636.408ZM220.676 637.5H222.036V638.036H220.676V637.5ZM220.156 638.448H222.552V637.084H220.156V638.448ZM223.04 635.64H222.552V634.808H222.024V636.936H222.552V636.076H223.04V635.64ZM224.432 636.412H223.956V635.964H224.432V636.412ZM224.92 635.044H224.432V635.56H223.956V635.044H223.46V636.824H224.92V635.044ZM223.936 637.616H225.944V638.496H226.472V637.196H223.936V637.616ZM225.972 634.808V635.708H225.684V634.872H225.192V637.012H225.684V636.132H225.972V637.024H226.472V634.808H225.972ZM227.936 637.352H227.408V638.428H230.008V638.008H227.936V637.352ZM228.944 636.688V636.328H229.98V635.908H227.944V635.404H229.948V634.984H227.42V636.328H228.416V636.688H227.016V637.108H230.348V636.688H228.944Z" fill="black"/>
<path d="M261.189 621.572H261.569V623.196C261.441 623.2 261.313 623.204 261.189 623.208V621.572ZM262.077 621.572H262.393V621.148H260.361V621.572H260.677V623.22C260.533 623.22 260.393 623.22 260.265 623.22L260.321 623.652C260.949 623.652 261.785 623.636 262.533 623.504L262.501 623.12C262.365 623.14 262.221 623.148 262.077 623.16V621.572ZM263.733 622.2H263.197V620.812H262.669V624.496H263.197V622.636H263.733V622.2ZM266.516 620.804V624.5H267.044V620.804H266.516ZM265.064 621.064C264.508 621.064 264.096 621.568 264.096 622.376C264.096 623.188 264.508 623.696 265.064 623.696C265.62 623.696 266.032 623.188 266.032 622.376C266.032 621.568 265.62 621.064 265.064 621.064ZM265.064 621.54C265.336 621.54 265.524 621.832 265.524 622.376C265.524 622.924 265.336 623.216 265.064 623.216C264.792 623.216 264.604 622.924 264.604 622.376C264.604 621.832 264.792 621.54 265.064 621.54ZM268.68 623.216C268.412 623.216 268.232 622.924 268.232 622.376C268.232 621.832 268.412 621.54 268.68 621.54C268.952 621.54 269.132 621.832 269.132 622.376C269.132 622.924 268.952 623.216 268.68 623.216ZM270.236 620.804V622.132H269.62C269.548 621.468 269.176 621.064 268.68 621.064C268.132 621.064 267.728 621.568 267.728 622.376C267.728 623.188 268.132 623.696 268.68 623.696C269.192 623.696 269.568 623.264 269.624 622.56H270.236V624.5H270.764V620.804H270.236ZM274.492 620.812H273.992V622.708H274.492V620.812ZM272.452 622.188H271.976V621.8H272.452V622.188ZM272.94 621.996H273.244V622.688H273.736V620.872H273.244V621.58H272.94V621.008H272.452V621.412H271.976V621.012H271.48V622.592H272.94V621.996ZM272.524 624.064V623.84H274.492V622.856H271.988V623.26H273.964V623.46H271.996V624.464H274.608V624.064H272.524ZM261.061 626.564H262.313V626.136H260.533V628.624H260.857C261.641 628.624 262.109 628.608 262.609 628.512L262.561 628.076C262.117 628.16 261.705 628.18 261.061 628.184V626.564ZM262.837 625.808V629.504H263.365V625.808H262.837ZM265 628.216C264.732 628.216 264.552 627.924 264.552 627.376C264.552 626.832 264.732 626.54 265 626.54C265.272 626.54 265.452 626.832 265.452 627.376C265.452 627.924 265.272 628.216 265 628.216ZM266.556 625.804V627.132H265.94C265.868 626.468 265.496 626.064 265 626.064C264.452 626.064 264.048 626.568 264.048 627.376C264.048 628.188 264.452 628.696 265 628.696C265.512 628.696 265.888 628.264 265.944 627.56H266.556V629.5H267.084V625.804H266.556ZM270.54 628.24C270.688 627.456 270.688 626.936 270.688 626.476V626.124H268.012V626.544H270.16C270.16 626.972 270.152 627.484 270.012 628.18L270.54 628.24ZM269.38 628.624V627.356H268.852V628.624H267.676V629.048H271.008V628.624H269.38ZM272.42 628.16H271.948V626.6H272.42V628.16ZM273.264 627.144H272.908V626.184H271.456V628.572H272.908V627.572H273.264V629.324H273.756V625.864H273.264V627.144ZM274.012 625.804V629.488H274.512V625.804H274.012Z" fill="black"/>
<path d="M239.493 682.14V684.616H241.265V682.14H239.493ZM240.745 682.556V684.2H240.013V682.556H240.745ZM241.837 681.808V685.5H242.365V681.808H241.837ZM243.98 684.216C243.704 684.216 243.52 683.924 243.52 683.376C243.52 682.832 243.704 682.54 243.98 682.54C244.252 682.54 244.44 682.832 244.44 683.376C244.44 683.924 244.252 684.216 243.98 684.216ZM243.98 682.064C243.42 682.064 243.012 682.568 243.012 683.376C243.012 684.188 243.42 684.696 243.98 684.696C244.536 684.696 244.948 684.188 244.948 683.376C244.948 682.568 244.536 682.064 243.98 682.064ZM246.412 683.196H245.876V681.808H245.348V685.492H245.876V683.632H246.412V683.196ZM247.592 684.3H247.064V685.428H249.664V685.008H247.592V684.3ZM248.608 683.656V683.216H249.632V682.796H247.616V681.912H247.088V683.216H248.08V683.656H246.676V684.076H250.008V683.656H248.608ZM250.992 682.156H250.464V684.588H250.784C251.32 684.588 251.912 684.556 252.524 684.428L252.472 683.996C251.956 684.096 251.456 684.136 250.992 684.148V682.156ZM253.752 683.196H253.236V681.804H252.708V685.484H253.236V683.632H253.752V683.196Z" fill="black"/>
<path d="M293.937 635.48H294.465V632.808H293.937V633.62H293.509V634.04H293.937V635.48ZM293.781 634.592C293.353 634.328 293.249 633.844 293.249 633.38V633.056H292.877V633.06H292.757V633.384C292.757 633.712 292.713 634.08 292.513 634.368C292.313 634.08 292.269 633.704 292.269 633.384V633.06H292.149V633.056H291.773V633.38C291.773 633.828 291.669 634.32 291.241 634.592L291.525 634.964C291.769 634.812 291.925 634.576 292.021 634.3C292.109 634.588 292.261 634.84 292.513 635.008C292.765 634.844 292.917 634.596 293.005 634.308C293.097 634.584 293.253 634.816 293.497 634.964L293.781 634.592ZM292.433 636.008V635.232H291.905V636.428H294.545V636.008H292.433ZM295.908 635.256H295.38V636.428H297.992V636.008H295.908V635.256ZM297.844 634.568C297.936 634.06 297.936 633.684 297.936 633.32V632.972H295.404V633.392H297.416C297.416 633.5 297.416 633.608 297.412 633.724L295.3 633.768L295.36 634.192L297.384 634.108C297.368 634.252 297.348 634.4 297.312 634.568H294.992V634.988H298.324V634.568H297.844ZM298.84 633.184V633.612H300.044C299.948 634.428 299.492 635.012 298.636 635.452L298.932 635.856C300.156 635.236 300.576 634.288 300.576 633.184H298.84ZM302.072 634.212H301.556V632.804H301.028V636.484H301.556V634.648H302.072V634.212ZM305.32 633.908H303.284V633.36H305.292V632.94H302.76V634.328H305.32V633.908ZM303.276 635.324H302.748V636.428H305.348V636.008H303.276V635.324ZM302.356 634.628V635.048H305.688V634.628H302.356Z" fill="white"/>
<path d="M265.164 568.544H266.332V567.12H264.64V567.54H265.812V568.128H264.644V569.648H264.956C265.596 569.648 266.104 569.624 266.656 569.524L266.608 569.096C266.128 569.18 265.692 569.208 265.164 569.212V568.544ZM267.912 568.196H267.384V566.804H266.856V570.5H267.384V568.632H267.912V568.196ZM271.312 566.812H270.812V569.548H271.312V566.812ZM269.272 568.496H268.792V567.568H269.272V568.496ZM269.76 568.22H270.072V569.44H270.564V566.872H270.072V567.796H269.76V567.164H268.3V568.9H269.76V568.22ZM269.36 570.008V569.228H268.832V570.428H271.404V570.008H269.36ZM263.732 574.2H263.252V573.404H263.732V574.2ZM264.564 573.156H264.22V572.144H263.732V572.988H263.252V572.14H262.756V574.62H264.22V573.58H264.564V575.332H265.056V571.872H264.564V573.156ZM265.312 571.804V575.488H265.812V571.804H265.312ZM267.004 573.544H268.172V572.12H266.48V572.54H267.652V573.128H266.484V574.648H266.796C267.436 574.648 267.944 574.624 268.496 574.524L268.448 574.096C267.968 574.18 267.532 574.208 267.004 574.212V573.544ZM269.752 573.196H269.224V571.804H268.696V575.5H269.224V573.632H269.752V573.196ZM270.888 573.024H272.464V573.54H270.888V573.024ZM271.94 574.636V573.96H272.984V572.036H272.464V572.608H270.888V572.036H270.364V573.96H271.412V574.636H270.012V575.064H273.348V574.636H271.94Z" fill="black"/>
<path fill-rule="evenodd" clip-rule="evenodd" d="M248.789 621.432C252.317 620.822 255 617.756 255 614.065C255 609.935 251.642 606.588 247.5 606.588C243.358 606.588 240 609.935 240 614.065C240 617.756 242.683 620.822 246.211 621.432L247.5 626.588L248.789 621.432Z" fill="black"/>
<path fill-rule="evenodd" clip-rule="evenodd" d="M248.789 619.432C252.317 618.822 255 615.756 255 612.065C255 607.935 251.642 604.588 247.5 604.588C243.358 604.588 240 607.935 240 612.065C240 615.756 242.683 618.822 246.211 619.432L247.5 624.588L248.789 619.432Z" fill="#FF0000"/>
<ellipse cx="247.5" cy="612.065" rx="2.5" ry="2.49231" fill="white"/>
<path d="M247 598.588V554.856H283V527.588" stroke="#FF0000" stroke-width="3" stroke-linecap="round"/>
<path d="M6.78125 732.399H2.46777V735.927H7.47852V737H1.15527V727.047H7.41016V728.127H2.46777V731.326H6.78125V732.399ZM14.6084 734.402H10.4385L9.50195 737H8.14844L11.9492 727.047H13.0977L16.9053 737H15.5586L14.6084 734.402ZM10.835 733.322H14.2188L12.5234 728.667L10.835 733.322ZM21.1777 732.563C20.0521 732.24 19.2318 731.843 18.7168 731.374C18.2064 730.9 17.9512 730.317 17.9512 729.624C17.9512 728.84 18.2633 728.193 18.8877 727.683C19.5166 727.168 20.3324 726.91 21.335 726.91C22.0186 726.91 22.627 727.042 23.1602 727.307C23.6979 727.571 24.1126 727.936 24.4043 728.4C24.7005 728.865 24.8486 729.373 24.8486 729.925H23.5293C23.5293 729.323 23.3379 728.852 22.9551 728.51C22.5723 728.163 22.0322 727.99 21.335 727.99C20.6878 727.99 20.182 728.134 19.8174 728.421C19.4574 728.703 19.2773 729.098 19.2773 729.604C19.2773 730.009 19.4482 730.353 19.79 730.636C20.1364 730.914 20.722 731.169 21.5469 731.401C22.3763 731.634 23.0234 731.891 23.4883 732.174C23.9577 732.452 24.304 732.778 24.5273 733.151C24.7552 733.525 24.8691 733.965 24.8691 734.471C24.8691 735.277 24.5547 735.924 23.9258 736.412C23.2969 736.895 22.4561 737.137 21.4033 737.137C20.7197 737.137 20.0817 737.007 19.4893 736.747C18.8968 736.483 18.4388 736.123 18.1152 735.667C17.7962 735.211 17.6367 734.694 17.6367 734.115H18.9561C18.9561 734.717 19.1771 735.193 19.6191 735.544C20.0658 735.89 20.6605 736.063 21.4033 736.063C22.096 736.063 22.627 735.922 22.9961 735.64C23.3652 735.357 23.5498 734.972 23.5498 734.484C23.5498 733.997 23.3789 733.621 23.0371 733.356C22.6953 733.088 22.0755 732.823 21.1777 732.563ZM33.4346 728.127H30.2354V737H28.9297V728.127H25.7373V727.047H33.4346V728.127ZM48.2951 725.492H47.1891V732.016H48.2951V725.492ZM38.8451 728.81C38.8451 727.746 39.6151 726.976 40.6791 726.976C41.7291 726.976 42.4991 727.746 42.4991 728.81C42.4991 729.916 41.7291 730.686 40.6791 730.686C39.6151 730.686 38.8451 729.916 38.8451 728.81ZM44.8231 729.272V731.932H45.9011V725.744H44.8231V728.348H43.4931C43.2971 726.976 42.1771 726.066 40.6791 726.066C39.0131 726.066 37.8231 727.186 37.8231 728.81C37.8231 730.462 39.0131 731.596 40.6791 731.596C42.1771 731.596 43.3111 730.672 43.5071 729.272H44.8231ZM41.1691 736.944V735.6H48.2951V732.604H40.0071V733.514H47.1471V734.732H40.0351V737.868H48.7711V736.944H41.1691ZM52.452 731.12H57.086V726.64H51.262V727.578H55.924V730.196H51.304V735.012H52.34C54.496 735.012 56.4 734.928 58.668 734.55L58.556 733.612C56.358 733.962 54.51 734.06 52.452 734.06V731.12ZM59.732 725.464V738.05H60.88V725.464H59.732ZM67.6409 733.948H64.9949V730.7H67.6409V733.948ZM70.5389 730.252H68.7189V726.724H67.6409V729.776H64.9949V726.724H63.9029V734.886H68.7189V731.19H70.5389V737.42H71.6309V725.758H70.5389V730.252ZM73.0309 725.478V738.036H74.1229V725.478H73.0309ZM85.4618 725.478V738.064H86.6098V725.478H85.4618ZM79.9878 726.444C78.1258 726.444 76.7958 728.152 76.7958 730.826C76.7958 733.5 78.1258 735.208 79.9878 735.208C81.8498 735.208 83.1798 733.5 83.1798 730.826C83.1798 728.152 81.8498 726.444 79.9878 726.444ZM79.9878 727.48C81.2058 727.48 82.0738 728.796 82.0738 730.826C82.0738 732.87 81.2058 734.186 79.9878 734.186C78.7558 734.186 77.8878 732.87 77.8878 730.826C77.8878 728.796 78.7558 727.48 79.9878 727.48ZM90.9347 731.078H95.0507V730.154H90.9347V727.564H95.5967V726.612H89.7867V735.026H90.7527C93.1467 735.026 94.6727 734.956 96.4927 734.634L96.3667 733.696C94.6587 734.004 93.2027 734.088 90.9347 734.088V731.078ZM98.4107 725.464V730.21H95.8207V731.162H98.4107V738.05H99.5587V725.464H98.4107ZM110.884 727.676H103.548V730.364H112.242V729.538H104.682V728.46H112.018V725.842H103.52V726.654H110.884V727.676ZM104.612 735.88H112.06V733.206H103.45V734.032H110.926V735.082H103.478V737.868H112.452V737.042H104.612V735.88ZM102.092 731.316V732.184H113.474V731.316H102.092ZM127.571 725.478V738.064H128.719V725.478H127.571ZM122.097 726.444C120.235 726.444 118.905 728.152 118.905 730.826C118.905 733.5 120.235 735.208 122.097 735.208C123.959 735.208 125.289 733.5 125.289 730.826C125.289 728.152 123.959 726.444 122.097 726.444ZM122.097 727.48C123.315 727.48 124.183 728.796 124.183 730.826C124.183 732.87 123.315 734.186 122.097 734.186C120.865 734.186 119.997 732.87 119.997 730.826C119.997 728.796 120.865 727.48 122.097 727.48ZM136.992 737.14C135.018 737.14 133.856 736.65 133.856 735.796C133.856 734.942 135.018 734.452 136.992 734.452C138.952 734.452 140.128 734.942 140.128 735.796C140.128 736.65 138.952 737.14 136.992 737.14ZM136.992 733.556C134.304 733.556 132.694 734.354 132.694 735.796C132.694 737.238 134.304 738.022 136.992 738.022C139.694 738.022 141.29 737.238 141.29 735.796C141.29 734.354 139.694 733.556 136.992 733.556ZM135.256 730.224C135.774 730.308 136.362 730.364 136.992 730.364C137.636 730.364 138.224 730.308 138.742 730.224V731.694H135.256V730.224ZM133.758 728.04C133.758 727.13 134.99 726.598 136.992 726.598C138.994 726.598 140.226 727.13 140.226 728.04C140.226 728.936 138.994 729.482 136.992 729.482C134.99 729.482 133.758 728.936 133.758 728.04ZM139.876 731.694V729.916C140.842 729.524 141.402 728.88 141.402 728.04C141.402 726.57 139.722 725.702 136.992 725.702C134.276 725.702 132.582 726.57 132.582 728.04C132.582 728.894 133.128 729.524 134.122 729.93V731.694H131.308V732.618H142.676V731.694H139.876ZM147.883 734.284C146.749 734.284 145.923 733.472 145.923 732.352C145.923 731.218 146.749 730.406 147.883 730.406C149.031 730.406 149.857 731.218 149.857 732.352C149.857 733.472 149.031 734.284 147.883 734.284ZM147.883 729.454C146.119 729.454 144.845 730.658 144.845 732.352C144.845 734.06 146.119 735.236 147.883 735.236C149.675 735.236 150.949 734.06 150.949 732.352C150.949 730.658 149.675 729.454 147.883 729.454ZM148.443 725.632H147.295V727.494H144.131V728.418H151.537V727.494H148.443V725.632ZM155.933 730.644H153.875V725.492H152.727V738.036H153.875V731.61H155.933V730.644ZM163.422 732.254C163.506 731.82 163.562 731.344 163.562 730.826C163.562 730.252 163.492 729.72 163.38 729.23H166.278V732.254H163.422ZM160.44 734.186C159.236 734.186 158.396 732.87 158.396 730.826C158.396 728.796 159.236 727.48 160.44 727.48C161.63 727.48 162.484 728.796 162.484 730.826C162.484 732.87 161.63 734.186 160.44 734.186ZM166.278 725.478V728.292H163.058C162.526 727.116 161.602 726.444 160.44 726.444C158.606 726.444 157.304 728.152 157.304 730.826C157.304 733.5 158.606 735.208 160.44 735.208C161.644 735.208 162.624 734.466 163.142 733.192H166.278V738.064H167.426V725.478H166.278ZM182.559 725.478V738.064H183.707V725.478H182.559ZM177.085 726.444C175.223 726.444 173.893 728.152 173.893 730.826C173.893 733.5 175.223 735.208 177.085 735.208C178.947 735.208 180.277 733.5 180.277 730.826C180.277 728.152 178.947 726.444 177.085 726.444ZM177.085 727.48C178.303 727.48 179.171 728.796 179.171 730.826C179.171 732.87 178.303 734.186 177.085 734.186C175.853 734.186 174.985 732.87 174.985 730.826C174.985 728.796 175.853 727.48 177.085 727.48ZM191.994 737.14C190.006 737.14 188.844 736.65 188.844 735.768C188.844 734.886 190.006 734.396 191.994 734.396C193.954 734.396 195.116 734.886 195.116 735.768C195.116 736.65 193.954 737.14 191.994 737.14ZM191.994 733.5C189.306 733.5 187.682 734.312 187.682 735.768C187.682 737.224 189.306 738.036 191.994 738.036C194.654 738.036 196.278 737.224 196.278 735.768C196.278 734.312 194.654 733.5 191.994 733.5ZM192.568 731.68V730.224H196.348V729.3H188.886V726.976H196.264V726.052H187.738V730.224H191.42V731.68H186.31V732.604H197.678V731.68H192.568ZM202.871 734.284C201.737 734.284 200.911 733.472 200.911 732.352C200.911 731.218 201.737 730.406 202.871 730.406C204.019 730.406 204.845 731.218 204.845 732.352C204.845 733.472 204.019 734.284 202.871 734.284ZM202.871 729.454C201.107 729.454 199.833 730.658 199.833 732.352C199.833 734.06 201.107 735.236 202.871 735.236C204.663 735.236 205.937 734.06 205.937 732.352C205.937 730.658 204.663 729.454 202.871 729.454ZM203.431 725.632H202.283V727.494H199.119V728.418H206.525V727.494H203.431V725.632ZM210.921 730.644H208.863V725.492H207.715V738.036H208.863V731.61H210.921V730.644ZM215.792 726.668H214.686V729.062C214.686 731.218 213.65 733.472 211.928 734.48L212.642 735.334C213.888 734.564 214.798 733.15 215.246 731.484C215.694 733.01 216.534 734.34 217.724 735.068L218.382 734.172C216.73 733.164 215.792 731.036 215.792 729.02V726.668ZM219.096 729.986H217.024V730.938H219.096V737.42H220.174V725.758H219.096V729.986ZM221.644 725.478V738.036H222.736V725.478H221.644ZM228.881 732.52C229.399 732.646 230.001 732.716 230.617 732.716C231.247 732.716 231.849 732.646 232.381 732.52V735.474H228.881V732.52ZM230.617 727.172C232.633 727.172 234.089 728.096 234.089 729.496C234.089 730.896 232.633 731.82 230.617 731.82C228.601 731.82 227.159 730.896 227.159 729.496C227.159 728.096 228.601 727.172 230.617 727.172ZM233.529 735.474V732.072C234.565 731.526 235.181 730.63 235.181 729.496C235.181 727.536 233.291 726.276 230.617 726.276C227.957 726.276 226.053 727.536 226.053 729.496C226.053 730.63 226.683 731.54 227.733 732.086V735.474H224.933V736.426H236.343V735.474H233.529ZM238.068 736.337C238.068 736.118 238.132 735.936 238.26 735.79C238.392 735.644 238.588 735.571 238.848 735.571C239.107 735.571 239.303 735.644 239.436 735.79C239.572 735.936 239.641 736.118 239.641 736.337C239.641 736.547 239.572 736.722 239.436 736.863C239.303 737.005 239.107 737.075 238.848 737.075C238.588 737.075 238.392 737.005 238.26 736.863C238.132 736.722 238.068 736.547 238.068 736.337Z" fill="black"/>
<rect x="11" y="312" width="5" height="53.1429" fill="url(#paint0_linear)"/>
<path d="M13.5 372L6.13879 359.25L20.8612 359.25L13.5 372Z" fill="#FF0000"/>
<defs>
<linearGradient id="paint0_linear" x1="13.5" y1="312" x2="13.5" y2="365.143" gradientUnits="userSpaceOnUse">
<stop stop-color="#FF0000" stop-opacity="0"/>
<stop offset="0.546875" stop-color="#FF0000"/>
</linearGradient>
</defs>
</svg>
