<svg width="315" height="732" viewBox="0 0 315 732" fill="none" xmlns="http://www.w3.org/2000/svg">
<path d="M206.616 33.3568H208.116V31.8568V1.5H313.5V328.5H1.5V61.5H161.319H162.819V60V33.3568H206.616Z" fill="#C4C4C4" stroke="black" stroke-width="3" stroke-miterlimit="10"/>
<path d="M251.266 85.3369H241.75V120.373H251.266V85.3369Z" fill="black"/>
<path d="M113.266 244.412H103.75V279.448H113.266V244.412Z" fill="black"/>
<path d="M276.806 85.3369H267.29V120.373H276.806V85.3369Z" fill="black"/>
<path d="M138.806 244.412H129.29V279.448H138.806V244.412Z" fill="black"/>
<path d="M265.448 85.3369H253.107V120.373H265.448V85.3369Z" fill="#FF0000"/>
<path d="M127.448 244.412H115.107V279.448H127.448V244.412Z" fill="black"/>
<path d="M240 85.4121H167V120.412H240V85.4121Z" fill="black"/>
<path d="M102 244.487H29V279.487H102V244.487Z" fill="black"/>
<path d="M262.869 106.285V100.971C262.869 100.414 262.44 99.9819 261.887 99.9819H256.607C256.054 99.9819 255.625 100.414 255.625 100.971V106.285C255.625 106.841 256.054 107.273 256.607 107.273H261.887C262.44 107.212 262.869 106.841 262.869 106.285ZM262.071 106.408H256.423V100.785H262.071V106.408Z" fill="white"/>
<path d="M260.168 96.5212C260.168 96.0886 260.782 96.0886 260.782 96.5212V98.2514L261.089 97.8806C261.334 97.6334 261.702 98.0042 261.457 98.2514L260.659 99.1783C260.536 99.3018 260.352 99.3018 260.229 99.1783L259.431 98.2514C259.185 97.9424 259.615 97.6334 259.799 97.8806L260.106 98.3132L260.168 96.5212Z" fill="white"/>
<path d="M257.773 98.9953C257.773 99.4279 258.387 99.4279 258.387 98.9953V97.2652L258.694 97.6359C258.94 97.8831 259.308 97.5123 259.062 97.2652L258.264 96.3383C258.141 96.2147 257.957 96.2147 257.834 96.3383L257.036 97.2652C256.791 97.5741 257.221 97.8831 257.405 97.6359L257.712 97.2034L257.773 98.9953Z" fill="white"/>
<path d="M260.905 102.453H259.861C259.738 102.453 259.615 102.577 259.615 102.7V103.998C259.615 104.122 259.677 104.183 259.799 104.183C259.799 104.183 259.861 104.183 259.922 104.183V105.852C259.922 106.161 260.352 106.161 260.352 105.852V104.183H260.413V105.852C260.413 106.161 260.843 106.161 260.843 105.852V104.183C260.905 104.183 260.966 104.183 260.966 104.183C261.089 104.183 261.15 104.122 261.15 103.998V102.7C261.15 102.577 261.027 102.453 260.905 102.453Z" fill="white"/>
<path d="M260.351 102.33C260.521 102.33 260.658 102.192 260.658 102.021C260.658 101.85 260.521 101.712 260.351 101.712C260.182 101.712 260.044 101.85 260.044 102.021C260.044 102.192 260.182 102.33 260.351 102.33Z" fill="white"/>
<path d="M258.695 102.453H257.651C257.528 102.453 257.405 102.577 257.405 102.7V103.998C257.405 104.122 257.467 104.183 257.589 104.183C257.589 104.183 257.651 104.183 257.712 104.183V105.852C257.712 106.161 258.142 106.161 258.142 105.852V104.183H258.203V105.852C258.203 106.161 258.633 106.161 258.633 105.852V104.183C258.695 104.183 258.756 104.183 258.756 104.183C258.879 104.183 258.94 104.122 258.94 103.998V102.7C258.94 102.577 258.817 102.453 258.695 102.453Z" fill="white"/>
<path d="M258.141 102.33C258.311 102.33 258.448 102.192 258.448 102.021C258.448 101.85 258.311 101.712 258.141 101.712C257.972 101.712 257.834 101.85 257.834 102.021C257.834 102.192 257.972 102.33 258.141 102.33Z" fill="white"/>
<path d="M124.869 265.36V260.046C124.869 259.49 124.44 259.057 123.887 259.057H118.607C118.054 259.057 117.625 259.49 117.625 260.046V265.36C117.625 265.916 118.054 266.349 118.607 266.349H123.887C124.44 266.287 124.869 265.916 124.869 265.36ZM124.071 265.484H118.423V259.86H124.071V265.484Z" fill="white"/>
<path d="M122.168 255.596C122.168 255.164 122.782 255.164 122.782 255.596V257.327L123.089 256.956C123.334 256.709 123.702 257.079 123.457 257.327L122.659 258.253C122.536 258.377 122.352 258.377 122.229 258.253L121.431 257.327C121.185 257.018 121.615 256.709 121.799 256.956L122.106 257.388L122.168 255.596Z" fill="white"/>
<path d="M119.773 258.071C119.773 258.503 120.387 258.503 120.387 258.071V256.34L120.694 256.711C120.94 256.958 121.308 256.588 121.062 256.34L120.264 255.413C120.141 255.29 119.957 255.29 119.834 255.413L119.036 256.34C118.791 256.649 119.221 256.958 119.405 256.711L119.712 256.279L119.773 258.071Z" fill="white"/>
<path d="M122.905 261.528H121.861C121.738 261.528 121.615 261.652 121.615 261.775V263.073C121.615 263.197 121.677 263.259 121.799 263.259C121.799 263.259 121.861 263.259 121.922 263.259V264.927C121.922 265.236 122.352 265.236 122.352 264.927V263.259H122.413V264.927C122.413 265.236 122.843 265.236 122.843 264.927V263.259C122.905 263.259 122.966 263.259 122.966 263.259C123.089 263.259 123.15 263.197 123.15 263.073V261.775C123.15 261.652 123.027 261.528 122.905 261.528Z" fill="white"/>
<path d="M122.351 261.405C122.521 261.405 122.658 261.267 122.658 261.096C122.658 260.925 122.521 260.787 122.351 260.787C122.182 260.787 122.044 260.925 122.044 261.096C122.044 261.267 122.182 261.405 122.351 261.405Z" fill="white"/>
<path d="M120.695 261.528H119.651C119.528 261.528 119.405 261.652 119.405 261.775V263.073C119.405 263.197 119.467 263.259 119.589 263.259C119.589 263.259 119.651 263.259 119.712 263.259V264.927C119.712 265.236 120.142 265.236 120.142 264.927V263.259H120.203V264.927C120.203 265.236 120.633 265.236 120.633 264.927V263.259C120.695 263.259 120.756 263.259 120.756 263.259C120.879 263.259 120.94 263.197 120.94 263.073V261.775C120.94 261.652 120.817 261.528 120.695 261.528Z" fill="white"/>
<path d="M120.141 261.405C120.311 261.405 120.448 261.267 120.448 261.096C120.448 260.925 120.311 260.787 120.141 260.787C119.972 260.787 119.834 260.925 119.834 261.096C119.834 261.267 119.972 261.405 120.141 261.405Z" fill="white"/>
<path d="M175.845 308.272C176.214 308.272 176.521 307.963 176.521 307.592C176.521 307.221 176.214 306.912 175.845 306.912C175.477 306.912 175.17 307.221 175.17 307.592C175.17 307.963 175.477 308.272 175.845 308.272Z" fill="white"/>
<path d="M264.158 131.495C264.527 131.495 264.834 131.186 264.834 130.815C264.834 130.445 264.527 130.136 264.158 130.136C263.79 130.136 263.483 130.445 263.483 130.815C263.544 131.186 263.79 131.495 264.158 131.495Z" fill="white"/>
<path d="M126.158 290.57C126.527 290.57 126.834 290.261 126.834 289.891C126.834 289.52 126.527 289.211 126.158 289.211C125.79 289.211 125.483 289.52 125.483 289.891C125.544 290.261 125.79 290.57 126.158 290.57Z" fill="white"/>
<path d="M175.632 100.412H177.17V98.0542H178.462C180.135 98.0542 181.108 97.0563 181.108 95.6039C181.108 94.1586 180.153 93.1394 178.501 93.1394H175.632V100.412ZM177.17 96.8219V94.3965H178.207C179.094 94.3965 179.524 94.8794 179.524 95.6039C179.524 96.3248 179.094 96.8219 178.214 96.8219H177.17ZM183.487 100.515C184.293 100.515 184.815 100.164 185.082 99.6557H185.124V100.412H186.559V96.7331C186.559 95.4334 185.458 94.8865 184.244 94.8865C182.937 94.8865 182.077 95.5115 181.868 96.5059L183.267 96.6195C183.37 96.2573 183.693 95.9909 184.237 95.9909C184.751 95.9909 185.046 96.2502 185.046 96.6976V96.7189C185.046 97.0705 184.673 97.1167 183.725 97.209C182.646 97.3084 181.676 97.6706 181.676 98.8887C181.676 99.9682 182.447 100.515 183.487 100.515ZM183.92 99.4711C183.455 99.4711 183.121 99.2544 183.121 98.839C183.121 98.4128 183.473 98.2033 184.006 98.1287C184.336 98.0826 184.876 98.0044 185.057 97.8837V98.4625C185.057 99.0343 184.585 99.4711 183.92 99.4711ZM187.733 100.412H189.245V97.3262C189.245 96.655 189.735 96.1934 190.403 96.1934C190.613 96.1934 190.9 96.2289 191.042 96.275V94.9327C190.907 94.9007 190.719 94.8794 190.566 94.8794C189.956 94.8794 189.455 95.2346 189.256 95.9093H189.199V94.9576H187.733V100.412ZM191.824 100.412H193.337V98.6792L193.746 98.214L195.233 100.412H197.006L194.878 97.3191L196.903 94.9576H195.166L193.419 97.0279H193.337V93.1394H191.824V100.412ZM197.645 100.412H199.157V94.9576H197.645V100.412ZM198.405 94.2544C198.856 94.2544 199.225 93.91 199.225 93.4874C199.225 93.0684 198.856 92.7239 198.405 92.7239C197.957 92.7239 197.588 93.0684 197.588 93.4874C197.588 93.91 197.957 94.2544 198.405 94.2544ZM201.882 97.2587C201.886 96.5556 202.305 96.1436 202.915 96.1436C203.523 96.1436 203.888 96.5414 203.885 97.209V100.412H205.398V96.9391C205.398 95.6678 204.652 94.8865 203.516 94.8865C202.706 94.8865 202.12 95.2843 201.875 95.9199H201.811V94.9576H200.369V100.412H201.882V97.2587ZM209.047 102.571C210.606 102.571 211.714 101.861 211.714 100.465V94.9576H210.212V95.8738H210.155C209.953 95.4299 209.509 94.8865 208.596 94.8865C207.4 94.8865 206.388 95.8169 206.388 97.6742C206.388 99.4888 207.371 100.334 208.6 100.334C209.47 100.334 209.956 99.8972 210.155 99.4462H210.219V100.444C210.219 101.193 209.74 101.485 209.083 101.485C208.415 101.485 208.078 101.193 207.954 100.863L206.555 101.051C206.736 101.911 207.577 102.571 209.047 102.571ZM209.079 99.1976C208.337 99.1976 207.932 98.6081 207.932 97.6671C207.932 96.7402 208.33 96.0904 209.079 96.0904C209.814 96.0904 210.226 96.7118 210.226 97.6671C210.226 98.6294 209.807 99.1976 209.079 99.1976ZM175.632 112.412H180.547V111.144H177.17V109.408H180.281V108.14H177.17V106.407H180.533V105.139H175.632V112.412ZM183.009 112.412L183.548 110.754H186.173L186.713 112.412H188.36L185.853 105.139H183.872L181.361 112.412H183.009ZM183.939 109.553L184.834 106.801H184.891L185.786 109.553H183.939ZM193.015 107.231H194.489C194.467 105.935 193.402 105.04 191.783 105.04C190.188 105.04 189.02 105.921 189.027 107.242C189.023 108.314 189.78 108.928 191.009 109.223L191.8 109.422C192.592 109.614 193.033 109.841 193.036 110.331C193.033 110.864 192.528 111.226 191.747 111.226C190.948 111.226 190.373 110.857 190.323 110.129H188.835C188.874 111.702 190 112.515 191.765 112.515C193.54 112.515 194.585 111.666 194.588 110.335C194.585 109.124 193.672 108.481 192.408 108.197L191.754 108.041C191.122 107.895 190.593 107.661 190.604 107.139C190.604 106.67 191.019 106.325 191.772 106.325C192.507 106.325 192.958 106.659 193.015 107.231ZM195.345 106.407H197.572V112.412H199.092V106.407H201.318V105.139H195.345V106.407ZM204.616 112.412H206.154V109.408H209.276V112.412H210.81V105.139H209.276V108.14H206.154V105.139H204.616V112.412ZM213.331 112.412L213.871 110.754H216.495L217.035 112.412H218.683L216.175 105.139H214.194L211.683 112.412H213.331ZM214.261 109.553L215.156 106.801H215.213L216.108 109.553H214.261ZM219.558 112.412H224.213V111.144H221.096V105.139H219.558V112.412ZM225.232 112.412H229.887V111.144H226.769V105.139H225.232V112.412Z" fill="white"/>
<path d="M37.6321 259.487H39.1697V257.129H40.4624C42.1349 257.129 43.108 256.131 43.108 254.679C43.108 253.234 42.1527 252.215 40.5014 252.215H37.6321V259.487ZM39.1697 255.897V253.472H40.2067C41.0945 253.472 41.5241 253.955 41.5241 254.679C41.5241 255.4 41.0945 255.897 40.2138 255.897H39.1697ZM45.4872 259.59C46.2933 259.59 46.8153 259.239 47.0817 258.731H47.1243V259.487H48.5589V255.808C48.5589 254.509 47.4581 253.962 46.2436 253.962C44.9368 253.962 44.0774 254.587 43.8679 255.581L45.267 255.695C45.37 255.332 45.6932 255.066 46.2365 255.066C46.7514 255.066 47.0462 255.325 47.0462 255.773V255.794C47.0462 256.146 46.6733 256.192 45.7251 256.284C44.6456 256.384 43.6761 256.746 43.6761 257.964C43.6761 259.043 44.4467 259.59 45.4872 259.59ZM45.9205 258.546C45.4553 258.546 45.1214 258.33 45.1214 257.914C45.1214 257.488 45.473 257.278 46.0057 257.204C46.3359 257.158 46.8757 257.08 47.0568 256.959V257.538C47.0568 258.109 46.5845 258.546 45.9205 258.546ZM49.7326 259.487H51.2454V256.401C51.2454 255.73 51.7354 255.269 52.4031 255.269C52.6126 255.269 52.9002 255.304 53.0423 255.35V254.008C52.9073 253.976 52.7191 253.955 52.5664 253.955C51.9556 253.955 51.4549 254.31 51.256 254.984H51.1992V254.033H49.7326V259.487ZM53.8244 259.487H55.3372V257.754L55.7456 257.289L57.2335 259.487H59.0055L56.8784 256.394L58.9025 254.033H57.166L55.4189 256.103H55.3372V252.215H53.8244V259.487ZM59.6447 259.487H61.1575V254.033H59.6447V259.487ZM60.4047 253.33C60.8556 253.33 61.225 252.985 61.225 252.563C61.225 252.144 60.8556 251.799 60.4047 251.799C59.9572 251.799 59.5879 252.144 59.5879 252.563C59.5879 252.985 59.9572 253.33 60.4047 253.33ZM63.8821 256.334C63.8857 255.631 64.3047 255.219 64.9155 255.219C65.5227 255.219 65.8885 255.617 65.8849 256.284V259.487H67.3977V256.014C67.3977 254.743 66.652 253.962 65.5156 253.962C64.706 253.962 64.12 254.359 63.875 254.995H63.8111V254.033H62.3693V259.487H63.8821V256.334ZM71.0474 261.646C72.6064 261.646 73.7143 260.936 73.7143 259.541V254.033H72.2122V254.949H72.1554C71.9529 254.505 71.5091 253.962 70.5964 253.962C69.3997 253.962 68.3876 254.892 68.3876 256.749C68.3876 258.564 69.3713 259.409 70.6 259.409C71.47 259.409 71.9565 258.972 72.1554 258.521H72.2193V259.519C72.2193 260.269 71.7399 260.56 71.0829 260.56C70.4153 260.56 70.0779 260.269 69.9537 259.938L68.5545 260.127C68.7356 260.986 69.5772 261.646 71.0474 261.646ZM71.0794 258.273C70.3372 258.273 69.9324 257.683 69.9324 256.742C69.9324 255.815 70.3301 255.166 71.0794 255.166C71.8145 255.166 72.2264 255.787 72.2264 256.742C72.2264 257.705 71.8074 258.273 71.0794 258.273ZM39.2692 271.487H40.7678L42.1491 266.732H42.206L43.5909 271.487H45.0895L47.1705 264.215H45.4908L44.2869 269.278H44.223L42.8984 264.215H41.4602L40.1321 269.268H40.0717L38.8679 264.215H37.1882L39.2692 271.487ZM47.9934 271.487H52.9082V270.22H49.5311V268.483H52.6419V267.215H49.5311V265.482H52.894V264.215H47.9934V271.487ZM58.0618 266.306H59.5355C59.5142 265.01 58.4489 264.115 56.8295 264.115C55.2351 264.115 54.0668 264.996 54.0739 266.317C54.0703 267.389 54.8267 268.004 56.0554 268.298L56.8473 268.497C57.6392 268.689 58.0795 268.916 58.0831 269.406C58.0795 269.939 57.5753 270.301 56.794 270.301C55.995 270.301 55.4197 269.932 55.37 269.204H53.8821C53.9212 270.777 55.0469 271.59 56.8118 271.59C58.5874 271.59 59.6314 270.742 59.6349 269.41C59.6314 268.199 58.7188 267.556 57.4545 267.272L56.8011 267.116C56.169 266.97 55.6399 266.736 55.6506 266.214C55.6506 265.745 56.0661 265.401 56.8189 265.401C57.554 265.401 58.005 265.734 58.0618 266.306ZM60.3922 265.482H62.6188V271.487H64.1387V265.482H66.3652V264.215H60.3922V265.482ZM69.6634 271.487H71.201V268.483H74.3224V271.487H75.8565V264.215H74.3224V267.215H71.201V264.215H69.6634V271.487ZM78.3778 271.487L78.9176 269.829H81.5419L82.0817 271.487H83.7294L81.2223 264.215H79.2408L76.7301 271.487H78.3778ZM79.3082 268.629L80.2031 265.877H80.2599L81.1548 268.629H79.3082ZM84.6048 271.487H89.2603V270.22H86.1424V264.215H84.6048V271.487ZM90.2786 271.487H94.9341V270.22H91.8162V264.215H90.2786V271.487Z" fill="white"/>
<path d="M2.78125 43.4121H9.54688V33.0371H15.2344C22.5937 33.0371 26.875 28.6465 26.875 22.2559C26.875 15.8965 22.6719 11.4121 15.4063 11.4121H2.78125V43.4121ZM9.54688 27.6152V16.9434H14.1094C18.0156 16.9434 19.9063 19.0684 19.9063 22.2559C19.9063 25.4277 18.0156 27.6152 14.1406 27.6152H9.54688Z" fill="black"/>
<path fill-rule="evenodd" clip-rule="evenodd" d="M91.789 254.844C95.317 254.235 98 251.168 98 247.477C98 243.348 94.6421 240 90.5 240C86.3579 240 83 243.348 83 247.477C83 251.168 85.683 254.235 89.211 254.844L90.5 260L91.789 254.844Z" fill="black"/>
<path fill-rule="evenodd" clip-rule="evenodd" d="M91.789 252.844C95.317 252.235 98 249.168 98 245.477C98 241.348 94.6421 238 90.5 238C86.3579 238 83 241.348 83 245.477C83 249.168 85.683 252.235 89.211 252.844L90.5 258L91.789 252.844Z" fill="#FF0000"/>
<ellipse cx="90.5" cy="245.477" rx="2.5" ry="2.49231" fill="white"/>
<path d="M230 127V262H146" stroke="#FF0000" stroke-width="3" stroke-linecap="round"/>
<path d="M13.3259 357.582C15.2719 357.246 17.1199 356.196 17.8899 354.712C18.6459 356.196 20.5079 357.246 22.4539 357.582L22.9019 356.672C20.6899 356.35 18.5199 354.908 18.5199 353.256V353.186H22.4539V352.262H13.2839V353.186H17.2459V353.256C17.2459 354.908 15.0759 356.35 12.8919 356.672L13.3259 357.582ZM23.5599 358.632H12.2199V359.57H17.2879V364.036H18.4359V359.57H23.5739L23.5599 358.632ZM29.2848 354.572H32.0708V353.648H29.2848V351.702H28.1368V353.648H25.3088V354.572H28.1508V355.552C28.1508 357.722 26.8068 359.85 24.9728 360.746L25.6168 361.614C27.0448 360.914 28.1928 359.458 28.7248 357.736C29.2568 359.346 30.3208 360.718 31.6928 361.39L32.3368 360.494C30.5308 359.626 29.2848 357.568 29.2848 355.552V354.572ZM36.8168 356.644H34.7448V351.478H33.5968V364.036H34.7448V357.596H36.8168V356.644ZM45.2437 357.554C43.3957 356.938 42.2057 355.468 42.2057 353.83V353.34H44.9777V352.416H38.2437V353.34H41.0577V353.83C41.0577 355.636 39.7977 357.26 37.9077 357.918L38.4957 358.828C39.9937 358.296 41.1277 357.176 41.6597 355.748C42.1917 356.994 43.2697 357.988 44.6977 358.45L45.2437 357.554ZM43.7177 363.112C41.8417 363.112 40.7217 362.594 40.7217 361.698C40.7217 360.816 41.8417 360.298 43.7177 360.298C45.5657 360.298 46.6997 360.816 46.6997 361.698C46.6997 362.594 45.5657 363.112 43.7177 363.112ZM43.7177 359.388C41.1417 359.388 39.5737 360.242 39.5737 361.698C39.5737 363.168 41.1417 364.022 43.7177 364.022C46.2657 364.022 47.8477 363.168 47.8477 361.698C47.8477 360.242 46.2657 359.388 43.7177 359.388ZM47.7077 354.656V351.492H46.5597V359.066H47.7077V355.622H49.5697V354.656H47.7077ZM56.5126 352.556C58.5706 352.556 59.7466 353.032 59.7466 353.872C59.7466 354.712 58.5706 355.188 56.5126 355.188C54.4546 355.188 53.2786 354.712 53.2786 353.872C53.2786 353.032 54.4546 352.556 56.5126 352.556ZM56.5126 356.042C59.2706 356.042 60.9226 355.286 60.9226 353.872C60.9226 352.458 59.2706 351.688 56.5126 351.688C53.7546 351.688 52.1026 352.458 52.1026 353.872C52.1026 355.286 53.7546 356.042 56.5126 356.042ZM53.3626 361.726H60.7406V358.898H52.2006V359.766H59.6066V360.886H52.2426V363.896H61.1186V363H53.3626V361.726ZM50.8286 356.896V357.82H62.1966V356.896H50.8286ZM72.8641 363.154C70.8481 363.154 69.7141 362.762 69.7141 362.006C69.7141 361.264 70.8481 360.858 72.8641 360.858C74.8941 360.858 76.0141 361.264 76.0141 362.006C76.0141 362.762 74.8941 363.154 72.8641 363.154ZM72.8641 360.004C70.1341 360.004 68.5661 360.704 68.5661 362.006C68.5661 363.322 70.1341 364.022 72.8641 364.022C75.5941 364.022 77.1621 363.322 77.1621 362.006C77.1621 360.704 75.5941 360.004 72.8641 360.004ZM73.4381 358.128V356.896H77.2181V356H69.8261V354.768H76.8121V353.9H69.8261V352.738H77.1481V351.842H68.6781V356.896H72.2901V358.128H67.1801V359.052H78.5481V358.128H73.4381ZM86.6251 358.52C86.9751 356.182 86.9751 354.544 86.9751 353.536V352.85H80.6331V353.788H85.8551C85.8551 354.796 85.8271 356.322 85.4771 358.408L86.6251 358.52ZM83.7411 356.434H82.6071V360.298C81.6691 360.326 80.7451 360.34 79.9471 360.34L80.0731 361.292C82.2991 361.292 85.2531 361.236 87.8571 360.816L87.7871 359.976C86.5131 360.13 85.1131 360.214 83.7411 360.27V356.434ZM91.7071 356.728H89.7051V351.478H88.5571V364.036H89.7051V357.694H91.7071V356.728ZM96.634 360.284C95.5 360.284 94.674 359.472 94.674 358.352C94.674 357.218 95.5 356.406 96.634 356.406C97.782 356.406 98.608 357.218 98.608 358.352C98.608 359.472 97.782 360.284 96.634 360.284ZM96.634 355.454C94.87 355.454 93.596 356.658 93.596 358.352C93.596 360.06 94.87 361.236 96.634 361.236C98.426 361.236 99.7 360.06 99.7 358.352C99.7 356.658 98.426 355.454 96.634 355.454ZM97.194 351.632H96.046V353.494H92.882V354.418H100.288V353.494H97.194V351.632ZM104.684 356.644H102.626V351.492H101.478V364.036H102.626V357.61H104.684V356.644ZM112.173 358.254C112.257 357.82 112.313 357.344 112.313 356.826C112.313 356.252 112.243 355.72 112.131 355.23H115.029V358.254H112.173ZM109.191 360.186C107.987 360.186 107.147 358.87 107.147 356.826C107.147 354.796 107.987 353.48 109.191 353.48C110.381 353.48 111.235 354.796 111.235 356.826C111.235 358.87 110.381 360.186 109.191 360.186ZM115.029 351.478V354.292H111.809C111.277 353.116 110.353 352.444 109.191 352.444C107.357 352.444 106.055 354.152 106.055 356.826C106.055 359.5 107.357 361.208 109.191 361.208C110.395 361.208 111.375 360.466 111.893 359.192H115.029V364.064H116.177V351.478H115.029ZM128.222 358.399H123.908V361.927H128.919V363H122.596V353.047H128.851V354.127H123.908V357.326H128.222V358.399ZM136.049 360.402H131.879L130.942 363H129.589L133.39 353.047H134.538L138.346 363H136.999L136.049 360.402ZM132.275 359.322H135.659L133.964 354.667L132.275 359.322ZM142.618 358.563C141.493 358.24 140.672 357.843 140.157 357.374C139.647 356.9 139.392 356.317 139.392 355.624C139.392 354.84 139.704 354.193 140.328 353.683C140.957 353.168 141.773 352.91 142.775 352.91C143.459 352.91 144.067 353.042 144.601 353.307C145.138 353.571 145.553 353.936 145.845 354.4C146.141 354.865 146.289 355.373 146.289 355.925H144.97C144.97 355.323 144.778 354.852 144.396 354.51C144.013 354.163 143.473 353.99 142.775 353.99C142.128 353.99 141.622 354.134 141.258 354.421C140.898 354.703 140.718 355.098 140.718 355.604C140.718 356.009 140.889 356.353 141.23 356.636C141.577 356.914 142.162 357.169 142.987 357.401C143.817 357.634 144.464 357.891 144.929 358.174C145.398 358.452 145.744 358.778 145.968 359.151C146.196 359.525 146.31 359.965 146.31 360.471C146.31 361.277 145.995 361.924 145.366 362.412C144.737 362.895 143.896 363.137 142.844 363.137C142.16 363.137 141.522 363.007 140.93 362.747C140.337 362.483 139.879 362.123 139.556 361.667C139.237 361.211 139.077 360.694 139.077 360.115H140.396C140.396 360.717 140.618 361.193 141.06 361.544C141.506 361.89 142.101 362.063 142.844 362.063C143.536 362.063 144.067 361.922 144.437 361.64C144.806 361.357 144.99 360.972 144.99 360.484C144.99 359.997 144.819 359.621 144.478 359.356C144.136 359.088 143.516 358.823 142.618 358.563ZM154.875 354.127H151.676V363H150.37V354.127H147.178V353.047H154.875V354.127ZM169.736 351.492H168.63V358.016H169.736V351.492ZM160.286 354.81C160.286 353.746 161.056 352.976 162.12 352.976C163.17 352.976 163.94 353.746 163.94 354.81C163.94 355.916 163.17 356.686 162.12 356.686C161.056 356.686 160.286 355.916 160.286 354.81ZM166.264 355.272V357.932H167.342V351.744H166.264V354.348H164.934C164.738 352.976 163.618 352.066 162.12 352.066C160.454 352.066 159.264 353.186 159.264 354.81C159.264 356.462 160.454 357.596 162.12 357.596C163.618 357.596 164.752 356.672 164.948 355.272H166.264ZM162.61 362.944V361.6H169.736V358.604H161.448V359.514H168.588V360.732H161.476V363.868H170.212V362.944H162.61ZM173.892 357.12H178.526V352.64H172.702V353.578H177.364V356.196H172.744V361.012H173.78C175.936 361.012 177.84 360.928 180.108 360.55L179.996 359.612C177.798 359.962 175.95 360.06 173.892 360.06V357.12ZM181.172 351.464V364.05H182.32V351.464H181.172ZM189.081 359.948H186.435V356.7H189.081V359.948ZM191.979 356.252H190.159V352.724H189.081V355.776H186.435V352.724H185.343V360.886H190.159V357.19H191.979V363.42H193.071V351.758H191.979V356.252ZM194.471 351.478V364.036H195.563V351.478H194.471ZM206.902 351.478V364.064H208.05V351.478H206.902ZM201.428 352.444C199.566 352.444 198.236 354.152 198.236 356.826C198.236 359.5 199.566 361.208 201.428 361.208C203.29 361.208 204.62 359.5 204.62 356.826C204.62 354.152 203.29 352.444 201.428 352.444ZM201.428 353.48C202.646 353.48 203.514 354.796 203.514 356.826C203.514 358.87 202.646 360.186 201.428 360.186C200.196 360.186 199.328 358.87 199.328 356.826C199.328 354.796 200.196 353.48 201.428 353.48ZM212.375 357.078H216.491V356.154H212.375V353.564H217.037V352.612H211.227V361.026H212.193C214.587 361.026 216.113 360.956 217.933 360.634L217.807 359.696C216.099 360.004 214.643 360.088 212.375 360.088V357.078ZM219.851 351.464V356.21H217.261V357.162H219.851V364.05H220.999V351.464H219.851ZM229.79 361.544V359.178H233.808V358.254H226.08V356.224H233.514V352.402H224.918V353.34H232.394V355.3H224.946V359.178H228.628V361.544H223.518V362.482H234.928V361.544H229.79ZM249.012 351.478V364.064H250.16V351.478H249.012ZM243.538 352.444C241.676 352.444 240.346 354.152 240.346 356.826C240.346 359.5 241.676 361.208 243.538 361.208C245.4 361.208 246.73 359.5 246.73 356.826C246.73 354.152 245.4 352.444 243.538 352.444ZM243.538 353.48C244.756 353.48 245.624 354.796 245.624 356.826C245.624 358.87 244.756 360.186 243.538 360.186C242.306 360.186 241.438 358.87 241.438 356.826C241.438 354.796 242.306 353.48 243.538 353.48ZM258.447 363.14C256.459 363.14 255.297 362.65 255.297 361.768C255.297 360.886 256.459 360.396 258.447 360.396C260.407 360.396 261.569 360.886 261.569 361.768C261.569 362.65 260.407 363.14 258.447 363.14ZM258.447 359.5C255.759 359.5 254.135 360.312 254.135 361.768C254.135 363.224 255.759 364.036 258.447 364.036C261.107 364.036 262.731 363.224 262.731 361.768C262.731 360.312 261.107 359.5 258.447 359.5ZM259.021 357.68V356.224H262.801V355.3H255.339V352.976H262.717V352.052H254.191V356.224H257.873V357.68H252.763V358.604H264.131V357.68H259.021ZM269.323 360.284C268.189 360.284 267.363 359.472 267.363 358.352C267.363 357.218 268.189 356.406 269.323 356.406C270.471 356.406 271.297 357.218 271.297 358.352C271.297 359.472 270.471 360.284 269.323 360.284ZM269.323 355.454C267.559 355.454 266.285 356.658 266.285 358.352C266.285 360.06 267.559 361.236 269.323 361.236C271.115 361.236 272.389 360.06 272.389 358.352C272.389 356.658 271.115 355.454 269.323 355.454ZM269.883 351.632H268.735V353.494H265.571V354.418H272.977V353.494H269.883V351.632ZM277.373 356.644H275.315V351.492H274.167V364.036H275.315V357.61H277.373V356.644ZM282.244 352.668H281.138V355.062C281.138 357.218 280.102 359.472 278.38 360.48L279.094 361.334C280.34 360.564 281.25 359.15 281.698 357.484C282.146 359.01 282.986 360.34 284.176 361.068L284.834 360.172C283.182 359.164 282.244 357.036 282.244 355.02V352.668ZM285.548 355.986H283.476V356.938H285.548V363.42H286.626V351.758H285.548V355.986ZM288.096 351.478V364.036H289.188V351.478H288.096ZM295.333 358.52C295.851 358.646 296.453 358.716 297.069 358.716C297.699 358.716 298.301 358.646 298.833 358.52V361.474H295.333V358.52ZM297.069 353.172C299.085 353.172 300.541 354.096 300.541 355.496C300.541 356.896 299.085 357.82 297.069 357.82C295.053 357.82 293.611 356.896 293.611 355.496C293.611 354.096 295.053 353.172 297.069 353.172ZM299.981 361.474V358.072C301.017 357.526 301.633 356.63 301.633 355.496C301.633 353.536 299.743 352.276 297.069 352.276C294.409 352.276 292.505 353.536 292.505 355.496C292.505 356.63 293.135 357.54 294.185 358.086V361.474H291.385V362.426H302.795V361.474H299.981Z" fill="black"/>
<mask id="path-35-inside-1" fill="white">
<path d="M285 716L280.014 709.385H159V684.413H187.554V661.43H210.537V515.839H180.381V460.486H210.537V386H314V660.484H292.39V690.397L312.833 716"/>
</mask>
<path d="M285 716L280.014 709.385H159V684.413H187.554V661.43H210.537V515.839H180.381V460.486H210.537V386H314V660.484H292.39V690.397L312.833 716" fill="white"/>
<path d="M280.014 709.385L282.41 707.579L281.51 706.385H280.014V709.385ZM159 709.385H156V712.385H159V709.385ZM159 684.413V681.413H156V684.413H159ZM187.554 684.413V687.413H190.554V684.413H187.554ZM187.554 661.43V658.43H184.554V661.43H187.554ZM210.537 661.43V664.43H213.537V661.43H210.537ZM210.537 515.839H213.537V512.839H210.537V515.839ZM180.381 515.839H177.381V518.839H180.381V515.839ZM180.381 460.486V457.486H177.381V460.486H180.381ZM210.537 460.486V463.486H213.537V460.486H210.537ZM210.537 386V383H207.537V386H210.537ZM314 386H317V383H314V386ZM314 660.484V663.484H317V660.484H314ZM292.39 660.484V657.484H289.39V660.484H292.39ZM292.39 690.397H289.39V691.447L290.046 692.269L292.39 690.397ZM287.396 714.194L282.41 707.579L277.618 711.19L282.604 717.806L287.396 714.194ZM280.014 706.385H159V712.385H280.014V706.385ZM162 709.385V684.413H156V709.385H162ZM159 687.413H187.554V681.413H159V687.413ZM190.554 684.413V661.43H184.554V684.413H190.554ZM187.554 664.43H210.537V658.43H187.554V664.43ZM213.537 661.43V515.839H207.537V661.43H213.537ZM210.537 512.839H180.381V518.839H210.537V512.839ZM183.381 515.839V460.486H177.381V515.839H183.381ZM180.381 463.486H210.537V457.486H180.381V463.486ZM213.537 460.486V386H207.537V460.486H213.537ZM210.537 389H314V383H210.537V389ZM311 386V660.484H317V386H311ZM314 657.484H292.39V663.484H314V657.484ZM289.39 660.484V690.397H295.39V660.484H289.39ZM290.046 692.269L310.489 717.872L315.177 714.128L294.735 688.525L290.046 692.269Z" fill="black" mask="url(#path-35-inside-1)"/>
<path d="M251.266 471.073H241.75V506.109H251.266V471.073Z" fill="black"/>
<path d="M276.806 471.073H267.29V506.109H276.806V471.073Z" fill="black"/>
<path d="M216.27 392.598V464.153H283.068V506.11H308.179V392.598H216.27Z" fill="#DAC452"/>
<path d="M276.745 513.339H253.107V526.192H276.745V513.339Z" fill="black"/>
<path d="M188.431 690.115H164.794V702.967H188.431V690.115Z" fill="black"/>
<path d="M265.448 471.073H253.107V506.109H265.448V471.073Z" fill="#FF0000"/>
<path d="M239.908 471.073H186.002V506.109H239.908V471.073Z" fill="black"/>
<path d="M235.118 513.339H216.085V532.494H235.118V513.339Z" fill="black"/>
<path d="M213.016 667.634H193.983V686.789H213.016V667.634Z" fill="black"/>
<path d="M235.118 536.388H216.085V558.324H235.118V536.388Z" fill="#DAC452"/>
<path d="M235.118 561.413H216.085V583.349H235.118V561.413Z" fill="#DAC452"/>
<path d="M235.118 612.454H216.085V634.39H235.118V612.454Z" fill="#DAC452"/>
<path d="M277.033 572.148H258V594.085H277.033V572.148Z" fill="#DAC452"/>
<path d="M277.033 536.148H258V558.085H277.033V536.148Z" fill="#DAC452"/>
<path d="M277 612.148H258V659.148H277V612.148Z" fill="#DAC452"/>
<path d="M235.118 586.439H216.085V603.803H235.118V586.439Z" fill="black"/>
<path d="M235.118 637.479H216.085V659.416H235.118V637.479Z" fill="#DAC452"/>
<path d="M258 687.148H235V703.148H258V687.148Z" fill="#DAC452"/>
<path d="M308.179 536.388H289.146V558.324H308.179V536.388Z" fill="#DAC452"/>
<path d="M308 509.148H289V533.148H308V509.148Z" fill="#DAC452"/>
<path d="M308.179 561.413H289.146V583.349H308.179V561.413Z" fill="#DAC452"/>
<path d="M308.179 586.439H289.146V608.376H308.179V586.439Z" fill="#DAC452"/>
<path d="M308.179 626.479H289.146V654.409H308.179V626.479Z" fill="#00AC8D"/>
<path d="M205.666 674.307C206.034 674.307 206.341 673.998 206.341 673.627C206.341 673.256 206.034 672.947 205.666 672.947C205.297 672.947 204.99 673.256 204.99 673.627C204.99 673.998 205.297 674.307 205.666 674.307Z" fill="white"/>
<path d="M205.543 678.694V681.103C205.543 681.536 204.929 681.536 204.929 681.103V678.694H204.07L204.991 675.48H204.868L204.315 677.272C204.193 677.643 203.64 677.52 203.763 677.087L204.377 675.11C204.438 674.862 204.745 674.492 205.236 674.492H205.666H206.157C206.648 674.492 206.955 674.924 207.017 675.11L207.631 677.087C207.754 677.52 207.201 677.705 207.078 677.272L206.526 675.48H206.341L207.262 678.694H206.403V681.103C206.403 681.536 205.789 681.536 205.789 681.103V678.694H205.543Z" fill="white"/>
<path d="M200.412 674.492C199.921 674.492 199.553 674.862 199.553 675.419V677.52C199.553 677.952 200.167 677.952 200.167 677.52V675.604H200.289V680.98C200.289 681.536 201.088 681.536 201.088 680.98V677.828H201.21V680.98C201.21 681.536 202.009 681.536 202.009 680.98V675.604H202.131V677.52C202.131 677.952 202.745 677.952 202.745 677.52V675.419C202.745 674.986 202.377 674.492 201.886 674.492H200.412Z" fill="white"/>
<path d="M201.087 674.307C201.46 674.307 201.763 674.002 201.763 673.627C201.763 673.252 201.46 672.947 201.087 672.947C200.714 672.947 200.412 673.252 200.412 673.627C200.412 674.002 200.714 674.307 201.087 674.307Z" fill="white"/>
<path d="M227.829 520.013C228.198 520.013 228.505 519.704 228.505 519.333C228.505 518.962 228.198 518.653 227.829 518.653C227.461 518.653 227.154 518.962 227.154 519.333C227.154 519.704 227.461 520.013 227.829 520.013Z" fill="white"/>
<path d="M227.707 524.4V526.81C227.707 527.243 227.093 527.243 227.093 526.81V524.4H226.233L227.154 521.187H227.031L226.479 522.979C226.356 523.35 225.804 523.226 225.926 522.794L226.54 520.816C226.602 520.569 226.909 520.198 227.4 520.198H227.83H228.321C228.812 520.198 229.119 520.631 229.18 520.816L229.794 522.794C229.917 523.226 229.365 523.411 229.242 522.979L228.689 521.187H228.505L229.426 524.4H228.566V526.81C228.566 527.243 227.952 527.243 227.952 526.81V524.4H227.707Z" fill="white"/>
<path d="M222.576 520.26C222.085 520.26 221.716 520.631 221.716 521.187V523.288C221.716 523.72 222.33 523.72 222.33 523.288V521.372H222.453V526.748C222.453 527.304 223.251 527.304 223.251 526.748V523.597H223.374V526.748C223.374 527.304 224.172 527.304 224.172 526.748V521.372H224.295V523.288C224.295 523.72 224.909 523.72 224.909 523.288V521.187C224.909 520.754 224.541 520.26 224.049 520.26H222.576Z" fill="white"/>
<path d="M223.251 520.013C223.624 520.013 223.926 519.708 223.926 519.333C223.926 518.958 223.624 518.653 223.251 518.653C222.878 518.653 222.576 518.958 222.576 519.333C222.576 519.708 222.878 520.013 223.251 520.013Z" fill="white"/>
<path d="M262.869 492.021V486.707C262.869 486.151 262.44 485.718 261.887 485.718H256.607C256.054 485.718 255.625 486.151 255.625 486.707V492.021C255.625 492.577 256.054 493.01 256.607 493.01H261.887C262.44 492.948 262.869 492.577 262.869 492.021ZM262.071 492.145H256.423V486.522H262.071V492.145Z" fill="white"/>
<path d="M260.168 482.258C260.168 481.825 260.782 481.825 260.782 482.258V483.988L261.089 483.617C261.334 483.37 261.702 483.741 261.457 483.988L260.659 484.915C260.536 485.038 260.352 485.038 260.229 484.915L259.431 483.988C259.185 483.679 259.615 483.37 259.799 483.617L260.106 484.049L260.168 482.258Z" fill="white"/>
<path d="M257.773 484.732C257.773 485.164 258.387 485.164 258.387 484.732V483.001L258.694 483.372C258.94 483.619 259.308 483.249 259.062 483.001L258.264 482.075C258.141 481.951 257.957 481.951 257.834 482.075L257.036 483.001C256.791 483.31 257.221 483.619 257.405 483.372L257.712 482.94L257.773 484.732Z" fill="white"/>
<path d="M260.905 488.189H259.861C259.738 488.189 259.615 488.313 259.615 488.437V489.734C259.615 489.858 259.677 489.92 259.799 489.92C259.799 489.92 259.861 489.92 259.922 489.92V491.588C259.922 491.897 260.352 491.897 260.352 491.588V489.92H260.413V491.588C260.413 491.897 260.843 491.897 260.843 491.588V489.92C260.905 489.92 260.966 489.92 260.966 489.92C261.089 489.92 261.15 489.858 261.15 489.734V488.437C261.15 488.313 261.027 488.189 260.905 488.189Z" fill="white"/>
<path d="M260.351 488.066C260.521 488.066 260.658 487.928 260.658 487.757C260.658 487.587 260.521 487.448 260.351 487.448C260.182 487.448 260.044 487.587 260.044 487.757C260.044 487.928 260.182 488.066 260.351 488.066Z" fill="white"/>
<path d="M258.695 488.189H257.651C257.528 488.189 257.405 488.313 257.405 488.437V489.734C257.405 489.858 257.467 489.92 257.589 489.92C257.589 489.92 257.651 489.92 257.712 489.92V491.588C257.712 491.897 258.142 491.897 258.142 491.588V489.92H258.203V491.588C258.203 491.897 258.633 491.897 258.633 491.588V489.92C258.695 489.92 258.756 489.92 258.756 489.92C258.879 489.92 258.94 489.858 258.94 489.734V488.437C258.94 488.313 258.817 488.189 258.695 488.189Z" fill="white"/>
<path d="M258.141 488.066C258.311 488.066 258.448 487.928 258.448 487.757C258.448 487.587 258.311 487.448 258.141 487.448C257.972 487.448 257.834 487.587 257.834 487.757C257.834 487.928 257.972 488.066 258.141 488.066Z" fill="white"/>
<path d="M229.224 599.663V594.349C229.224 593.793 228.794 593.36 228.242 593.36H222.962C222.409 593.36 221.979 593.793 221.979 594.349V599.663C221.979 600.219 222.409 600.652 222.962 600.652H228.242C228.794 600.652 229.224 600.219 229.224 599.663ZM228.426 599.849H222.778V594.225H228.426V599.849Z" fill="white"/>
<path d="M226.523 589.962C226.523 589.529 227.137 589.529 227.137 589.962V591.692L227.444 591.321C227.689 591.074 228.057 591.445 227.812 591.692L227.014 592.619C226.891 592.742 226.707 592.742 226.584 592.619L225.786 591.692C225.54 591.383 225.97 591.074 226.154 591.321L226.461 591.754L226.523 589.962Z" fill="white"/>
<path d="M224.128 592.371C224.128 592.804 224.742 592.804 224.742 592.371V590.641L225.049 591.012C225.295 591.259 225.663 590.888 225.417 590.641L224.619 589.714C224.496 589.591 224.312 589.591 224.189 589.714L223.391 590.641C223.146 590.95 223.575 591.259 223.76 591.012L224.067 590.579L224.128 592.371Z" fill="white"/>
<path d="M227.26 595.893H226.216C226.093 595.893 225.97 596.016 225.97 596.14V597.437C225.97 597.561 226.032 597.623 226.154 597.623C226.154 597.623 226.216 597.623 226.277 597.623V599.291C226.277 599.6 226.707 599.6 226.707 599.291V597.623H226.768V599.291C226.768 599.6 227.198 599.6 227.198 599.291V597.623C227.26 597.623 227.321 597.623 227.321 597.623C227.444 597.623 227.505 597.561 227.505 597.437V596.14C227.505 595.954 227.382 595.893 227.26 595.893Z" fill="white"/>
<path d="M226.769 595.769C226.938 595.769 227.076 595.631 227.076 595.46C227.076 595.29 226.938 595.151 226.769 595.151C226.599 595.151 226.462 595.29 226.462 595.46C226.462 595.631 226.599 595.769 226.769 595.769Z" fill="white"/>
<path d="M225.05 595.893H224.006C223.883 595.893 223.76 596.016 223.76 596.14V597.437C223.76 597.561 223.822 597.623 223.944 597.623C223.944 597.623 224.006 597.623 224.067 597.623V599.291C224.067 599.6 224.497 599.6 224.497 599.291V597.623H224.558V599.291C224.558 599.6 224.988 599.6 224.988 599.291V597.623C225.05 597.623 225.111 597.623 225.111 597.623C225.234 597.623 225.295 597.561 225.295 597.437V596.14C225.295 595.954 225.172 595.893 225.05 595.893Z" fill="white"/>
<path d="M224.496 595.769C224.666 595.769 224.803 595.631 224.803 595.46C224.803 595.29 224.666 595.151 224.496 595.151C224.327 595.151 224.189 595.29 224.189 595.46C224.189 595.631 224.327 595.769 224.496 595.769Z" fill="white"/>
<path d="M294.427 641.338H295.962V639.731H297.497V638.125H299.032V636.58H300.628V635.035H302.9V635.838H301.365V637.383H299.83V638.928H298.295V640.535H296.699V642.141H294.427V641.338Z" fill="white"/>
<path d="M175.845 694.008C176.214 694.008 176.521 693.699 176.521 693.328C176.521 692.957 176.214 692.648 175.845 692.648C175.477 692.648 175.17 692.957 175.17 693.328C175.17 693.699 175.477 694.008 175.845 694.008Z" fill="white"/>
<path d="M180.389 693.39H178.854C178.547 693.39 178.117 693.513 177.871 693.76L176.459 695.182V694.749C176.459 693.884 175.17 693.884 175.17 694.749V696.417L173.942 697.653C173.819 697.777 173.819 697.777 173.574 697.777H172.837C172.1 697.777 171.609 698.457 171.609 699.013C171.609 699.569 172.039 700.31 172.898 700.31C172.898 700.31 173.942 700.31 174.249 700.31C174.556 700.31 174.924 700.187 175.231 699.878L179.099 695.985C179.161 695.923 179.222 695.861 179.345 695.861C179.345 695.861 179.897 695.861 180.327 695.861C180.818 695.861 181.432 695.305 181.432 694.564C181.555 693.884 180.88 693.39 180.389 693.39ZM180.327 695.243H179.529C179.161 695.243 179.038 695.305 178.854 695.491L174.924 699.445C174.74 699.631 174.556 699.692 174.31 699.692H173.021C172.714 699.692 172.407 699.383 172.407 699.013C172.407 698.642 172.714 698.457 172.96 698.457H173.819C174.065 698.457 174.249 698.395 174.372 698.209L178.362 694.193C178.547 694.008 178.669 694.008 178.976 694.008H180.327C180.634 694.008 180.88 694.378 180.88 694.625C180.88 694.873 180.695 695.243 180.327 695.243Z" fill="white"/>
<path d="M264.158 517.231C264.527 517.231 264.834 516.923 264.834 516.552C264.834 516.181 264.527 515.872 264.158 515.872C263.79 515.872 263.483 516.181 263.483 516.552C263.544 516.923 263.79 517.231 264.158 517.231Z" fill="white"/>
<path d="M268.701 516.613H267.167C266.86 516.613 266.43 516.737 266.184 516.984L264.772 518.405V517.973C264.772 517.108 263.483 517.108 263.483 517.973V519.641L262.255 520.877C262.132 521.001 262.132 521.001 261.887 521.001H261.15C260.413 521.001 259.922 521.68 259.922 522.236C259.922 522.792 260.352 523.534 261.211 523.534C261.211 523.534 262.255 523.534 262.562 523.534C262.869 523.534 263.237 523.41 263.544 523.101L267.412 519.209C267.474 519.147 267.535 519.085 267.658 519.085C267.658 519.085 268.21 519.085 268.64 519.085C269.131 519.085 269.745 518.529 269.745 517.787C269.868 517.108 269.193 516.613 268.701 516.613ZM268.64 518.529H267.842C267.474 518.529 267.351 518.591 267.167 518.776L263.237 522.731C263.053 522.916 262.869 522.978 262.623 522.978H261.334C261.027 522.978 260.72 522.669 260.72 522.298C260.72 521.927 261.027 521.742 261.273 521.742H262.132C262.378 521.742 262.562 521.68 262.685 521.495L266.675 517.478C266.86 517.293 266.982 517.293 267.289 517.293H268.64C268.947 517.293 269.193 517.664 269.193 517.911C269.193 518.158 269.07 518.529 268.64 518.529Z" fill="white"/>
<path d="M178.026 396.148H182.941V394.881H179.564V393.144H182.675V391.876H179.564V390.143H182.927V388.876H178.026V396.148ZM185.403 396.148L185.943 394.49H188.567L189.107 396.148H190.754L188.247 388.876H186.266L183.755 396.148H185.403ZM186.333 393.29L187.228 390.538H187.285L188.18 393.29H186.333ZM195.409 390.967H196.883C196.861 389.671 195.796 388.776 194.177 388.776C192.582 388.776 191.414 389.657 191.421 390.978C191.417 392.05 192.174 392.665 193.403 392.96L194.194 393.158C194.986 393.35 195.427 393.577 195.43 394.067C195.427 394.6 194.922 394.962 194.141 394.962C193.342 394.962 192.767 394.593 192.717 393.865H191.229C191.268 395.438 192.394 396.251 194.159 396.251C195.935 396.251 196.979 395.403 196.982 394.071C196.979 392.86 196.066 392.217 194.802 391.933L194.148 391.777C193.516 391.631 192.987 391.397 192.998 390.875C192.998 390.406 193.413 390.062 194.166 390.062C194.901 390.062 195.352 390.396 195.409 390.967ZM197.739 390.143H199.966V396.148H201.486V390.143H203.712V388.876H197.739V390.143ZM167.466 402.143H169.693V408.148H171.212V402.143H173.439V400.876H167.466V402.143ZM180.784 404.512C180.784 402.133 179.306 400.776 177.378 400.776C175.439 400.776 173.973 402.133 173.973 404.512C173.973 406.881 175.439 408.248 177.378 408.248C179.306 408.248 180.784 406.891 180.784 404.512ZM179.225 404.512C179.225 406.053 178.493 406.888 177.378 406.888C176.259 406.888 175.531 406.053 175.531 404.512C175.531 402.971 176.259 402.136 177.378 402.136C178.493 402.136 179.225 402.971 179.225 404.512ZM183.286 408.148H184.785L186.166 403.393H186.223L187.608 408.148H189.107L191.188 400.876H189.508L188.304 405.94H188.24L186.916 400.876H185.477L184.149 405.929H184.089L182.885 400.876H181.205L183.286 408.148ZM192.011 408.148H196.925V406.881H193.548V405.144H196.659V403.876H193.548V402.143H196.911V400.876H192.011V408.148ZM198.134 408.148H199.671V405.57H200.793L202.171 408.148H203.869L202.324 405.322C203.151 404.967 203.609 404.246 203.609 403.251C203.609 401.806 202.654 400.876 201.003 400.876H198.134V408.148ZM199.671 404.335V402.133H200.708C201.596 402.133 202.026 402.527 202.026 403.251C202.026 403.972 201.596 404.335 200.715 404.335H199.671Z" fill="black"/>
<path d="M2.78125 429H16.4531C23.6406 429 27.4688 425.25 27.4688 420.156C27.4688 415.422 24.0781 412.562 20.4375 412.391V412.078C23.7656 411.328 26.2188 408.969 26.2188 405.203C26.2188 400.406 22.6563 397 15.5937 397H2.78125V429ZM9.54688 423.469V414.969H15.2188C18.4688 414.969 20.4844 416.844 20.4844 419.484C20.4844 421.891 18.8438 423.469 15.0625 423.469H9.54688ZM9.54688 410.391V402.469H14.6875C17.6875 402.469 19.3906 404.016 19.3906 406.328C19.3906 408.859 17.3281 410.391 14.5625 410.391H9.54688ZM31.6836 429H54.4961V423.469H41.0586V423.25L45.7305 418.672C52.3086 412.672 54.0742 409.672 54.0742 406.031C54.0742 400.484 49.543 396.562 42.6836 396.562C35.9648 396.562 31.3555 400.578 31.3711 406.859H37.793C37.7773 403.797 39.7148 401.922 42.6367 401.922C45.4492 401.922 47.543 403.672 47.543 406.484C47.543 409.031 45.9805 410.781 43.0742 413.578L31.6836 424.125V429Z" fill="black"/>
<path d="M237.497 433.288C238.527 433.288 239.397 432.888 239.897 432.398V429.058H237.267V430.268H238.577V431.728C238.367 431.908 238.007 432.008 237.647 432.008C236.197 432.008 235.457 431.038 235.457 429.428C235.457 427.838 236.317 426.878 237.547 426.878C238.217 426.878 238.637 427.148 238.997 427.498L239.787 426.558C239.307 426.068 238.567 425.608 237.497 425.608C235.527 425.608 233.947 427.038 233.947 429.478C233.947 431.948 235.477 433.288 237.497 433.288ZM241.485 433.148H243.595C245.775 433.148 247.175 431.908 247.175 429.418C247.175 426.918 245.775 425.748 243.515 425.748H241.485V433.148ZM242.965 431.958V426.928H243.425C244.805 426.928 245.665 427.608 245.665 429.418C245.665 431.218 244.805 431.958 243.425 431.958H242.965ZM250.104 426.918H251.064C252.014 426.918 252.534 427.188 252.534 427.988C252.534 428.778 252.014 429.178 251.064 429.178H250.104V426.918ZM254.304 433.148L252.574 430.118C253.424 429.788 253.984 429.098 253.984 427.988C253.984 426.288 252.754 425.748 251.204 425.748H248.624V433.148H250.104V430.348H251.134L252.654 433.148H254.304ZM259.696 430.818C259.006 430.818 258.546 430.088 258.546 428.718C258.546 427.358 259.006 426.628 259.696 426.628C260.376 426.628 260.846 427.358 260.846 428.718C260.846 430.088 260.376 430.818 259.696 430.818ZM259.696 425.438C258.296 425.438 257.276 426.698 257.276 428.718C257.276 430.748 258.296 432.018 259.696 432.018C261.086 432.018 262.116 430.748 262.116 428.718C262.116 426.698 261.086 425.438 259.696 425.438ZM265.776 428.268H264.436V424.798H263.116V434.008H264.436V429.358H265.776V428.268ZM266.955 425.678V426.728H269.875C269.845 427.168 269.775 427.568 269.685 427.948L266.465 428.138L266.635 429.258L269.305 428.998C268.785 430.008 267.895 430.868 266.385 431.618L267.085 432.638C270.515 430.888 271.185 428.518 271.185 425.678H266.955ZM274.925 428.308H273.635V424.788H272.315V433.988H273.635V429.398H274.925V428.308ZM277.194 426.888H279.404V425.838H275.894V431.958H276.524C277.874 431.958 278.784 431.918 279.814 431.718L279.704 430.638C278.894 430.798 278.154 430.858 277.194 430.878V426.888ZM280.374 428.158H278.774V429.228H280.374V433.598H281.604V424.968H280.374V428.158ZM282.284 424.788V433.998H283.534V424.788H282.284ZM285.274 425.628V431.818H289.704V425.628H285.274ZM288.404 426.668V430.778H286.574V426.668H288.404ZM291.134 424.798V434.028H292.454V424.798H291.134Z" fill="black"/>
<path d="M296.984 519.752H296.496C296.62 519.152 296.62 518.724 296.62 518.344V518.012H294.04V518.432H296.112C296.112 518.552 296.112 518.676 296.104 518.808L293.92 518.876L293.98 519.324L296.068 519.216C296.048 519.38 296.02 519.56 295.976 519.752H293.656V520.18H295.052V521.484H295.58V520.18H296.984V519.752ZM300.472 517.808H299.972V520.548H300.472V517.808ZM297.816 519.004C297.816 518.7 297.972 518.528 298.188 518.528C298.404 518.528 298.56 518.7 298.56 519.004C298.56 519.304 298.404 519.48 298.188 519.48C297.972 519.48 297.816 519.304 297.816 519.004ZM299.24 519.228V520.44H299.732V517.872H299.24V518.804H299.012C298.936 518.372 298.612 518.076 298.188 518.076C297.7 518.076 297.344 518.46 297.344 519.004C297.344 519.552 297.7 519.936 298.188 519.936C298.604 519.936 298.924 519.652 299.008 519.228H299.24ZM298.52 521.008V520.2H297.992V521.428H300.564V521.008H298.52ZM301.348 520.092C301.988 519.976 302.448 519.652 302.68 519.216C302.912 519.644 303.38 519.96 304.028 520.072L304.228 519.656C303.396 519.532 302.96 519.044 302.956 518.536H304.064V518.12H301.288V518.536H302.396C302.392 519.044 301.956 519.544 301.144 519.672L301.348 520.092ZM301.012 520.624V521.052H304.348V520.624H301.012ZM296.876 525.212H296.152V524.396H296.876V525.212ZM298.056 522.804V524.1H297.396V523.096H296.876V523.984H296.152V523.096H295.628V525.632H297.396V524.524H298.056V526.5H298.584V522.804H298.056ZM302.228 522.808H301.7V525.252H302.228V522.808ZM299.42 523.04V523.46H300.584C300.572 523.564 300.552 523.672 300.52 523.768L299.232 523.812L299.308 524.224L300.3 524.148C300.092 524.396 299.748 524.604 299.228 524.756L299.432 525.172C300.68 524.78 301.14 524.084 301.14 523.04H299.42ZM301.256 525.032H300.712V525.104C300.712 525.528 300.34 525.948 299.54 526.064L299.744 526.48C300.34 526.38 300.764 526.116 300.984 525.756C301.196 526.112 301.608 526.372 302.188 526.472L302.396 526.06C301.612 525.944 301.256 525.532 301.256 525.104V525.032Z" fill="black"/>
<path d="M296.992 543.696V544.124H297.544V545H298.072V542.808H297.544V543.696H296.992ZM297.212 544.488C296.652 544.304 296.396 543.872 296.38 543.452H297.096V543.028H295.116V543.452H295.84C295.824 543.912 295.556 544.38 294.972 544.584L295.24 545C295.668 544.856 295.96 544.556 296.12 544.184C296.28 544.508 296.556 544.768 296.956 544.9L297.212 544.488ZM296.828 546.096C296.344 546.096 296.092 545.996 296.092 545.788C296.092 545.58 296.344 545.48 296.828 545.48C297.308 545.48 297.56 545.58 297.56 545.788C297.56 545.996 297.308 546.096 296.828 546.096ZM296.828 545.08C296.044 545.08 295.564 545.34 295.564 545.788C295.564 546.236 296.044 546.496 296.828 546.496C297.608 546.496 298.088 546.236 298.088 545.788C298.088 545.34 297.608 545.08 296.828 545.08ZM300.336 542.864C299.52 542.864 299.004 543.128 299.004 543.564C299.004 544 299.52 544.26 300.336 544.26C301.152 544.26 301.672 544 301.672 543.564C301.672 543.128 301.152 542.864 300.336 542.864ZM300.336 543.264C300.844 543.264 301.128 543.36 301.128 543.564C301.128 543.764 300.844 543.86 300.336 543.86C299.832 543.86 299.548 543.764 299.548 543.564C299.548 543.36 299.832 543.264 300.336 543.264ZM299.06 545.056V546.448H301.604V545.056H301.076V545.344H299.584V545.056H299.06ZM299.584 545.74H301.076V546.036H299.584V545.74ZM298.672 544.452V544.872H302V544.452H298.672ZM294.453 547.808H293.953V550.28H294.453V547.808ZM291.789 548.952C291.789 548.664 291.941 548.492 292.161 548.492C292.381 548.492 292.533 548.664 292.533 548.952C292.533 549.24 292.381 549.408 292.161 549.408C291.941 549.408 291.789 549.24 291.789 548.952ZM293.237 548.744V549.172H292.977C292.989 549.1 292.997 549.032 292.997 548.956C292.997 548.88 292.989 548.812 292.977 548.744H293.237ZM293.237 549.592V549.928H293.729V547.88H293.237V548.324H292.777C292.629 548.156 292.413 548.056 292.161 548.056C291.677 548.056 291.325 548.424 291.325 548.952C291.325 549.484 291.677 549.852 292.161 549.852C292.409 549.852 292.621 549.756 292.769 549.592H293.237ZM293.445 550.092H292.917V550.188C292.917 550.568 292.541 550.968 291.745 551.072L291.937 551.48C292.529 551.396 292.957 551.148 293.181 550.812C293.405 551.148 293.833 551.396 294.425 551.48L294.621 551.072C293.825 550.968 293.445 550.568 293.445 550.188V550.092ZM297.064 548.952C296.572 549.048 296.104 549.08 295.668 549.088V547.968H295.14V549.528H295.452C295.968 549.528 296.524 549.492 297.124 549.372L297.064 548.952ZM295.992 550.796H297.892V549.776H295.46V550.192H297.364V550.408H295.464V551.448H297.996V551.036H295.992V550.796ZM297.892 548.496V547.804H297.364V549.628H297.892V548.924H298.38V548.496H297.892ZM298.904 548.02V548.436H300.044C299.968 548.924 299.508 549.328 298.692 549.532L298.892 549.944C299.988 549.664 300.608 549 300.608 548.02H298.904ZM299.816 550.432H301.212V551.036H299.816V550.432ZM299.296 551.448H301.732V550.016H299.296V551.448ZM301.2 547.812V549.86H301.732V547.812H301.2ZM303.704 549.284H302.98V548.836H303.704V549.284ZM304.224 547.988H303.704V548.432H302.98V547.988H302.46V549.7H304.224V547.988ZM304.728 551.032H303.368V550.716H304.728V551.032ZM304.728 550.308H303.368V549.988H302.848V551.452H305.252V549.988H304.728V550.308ZM305.74 548.584H305.252V547.808H304.724V549.832H305.252V549.016H305.74V548.584Z" fill="black"/>
<path d="M298.716 570.488C297.876 570.352 297.424 569.8 297.424 569.276V569.012H296.86V569.276C296.86 569.788 296.404 570.352 295.572 570.488L295.788 570.924C296.432 570.808 296.9 570.46 297.14 570.008C297.38 570.464 297.852 570.808 298.5 570.924L298.716 570.488ZM297.408 571.632V570.808H296.88V571.632H295.492V572.056H298.828V571.632H297.408ZM301.696 568.804V572.5H302.224V568.804H301.696ZM300.244 569.064C299.688 569.064 299.276 569.568 299.276 570.376C299.276 571.188 299.688 571.696 300.244 571.696C300.8 571.696 301.212 571.188 301.212 570.376C301.212 569.568 300.8 569.064 300.244 569.064ZM300.244 569.54C300.516 569.54 300.704 569.832 300.704 570.376C300.704 570.924 300.516 571.216 300.244 571.216C299.972 571.216 299.784 570.924 299.784 570.376C299.784 569.832 299.972 569.54 300.244 569.54ZM296.04 574.98C296.04 574.676 296.24 574.488 296.508 574.488C296.78 574.488 296.98 574.676 296.98 574.98C296.98 575.288 296.78 575.476 296.508 575.476C296.24 575.476 296.04 575.288 296.04 574.98ZM298.044 574.74V575.216H297.452C297.472 575.144 297.48 575.06 297.48 574.98C297.48 574.896 297.468 574.816 297.452 574.74H298.044ZM298.044 575.636V576.504H298.572V573.808H298.044V574.32H297.224C297.044 574.136 296.796 574.028 296.508 574.028C295.964 574.028 295.54 574.432 295.54 574.98C295.54 575.532 295.964 575.936 296.508 575.936C296.796 575.936 297.052 575.824 297.232 575.636H298.044ZM296.672 577.008V576.24H296.144V577.428H298.656V577.008H296.672ZM301.256 575.12C300.76 575.216 300.288 575.252 299.848 575.26V573.98H299.32V575.7H299.632C300.152 575.7 300.716 575.664 301.316 575.544L301.256 575.12ZM300.192 576.464H301.556V577.036H300.192V576.464ZM299.672 577.448H302.072V576.052H299.672V577.448ZM302.56 574.584H302.072V573.808H301.544V575.88H302.072V575.016H302.56V574.584Z" fill="black"/>
<path d="M296.824 596.828H297.556V596.408H296.828V595.896H296.3V596.408H295.552V596.828H296.3V596.956C296.3 597.508 296.024 598.132 295.428 598.408L295.712 598.812C296.124 598.628 296.408 598.256 296.568 597.816C296.72 598.224 296.988 598.568 297.38 598.748L297.66 598.348C297.084 598.072 296.824 597.476 296.824 596.956V596.828ZM298.912 597.24H298.376V595.812H297.848V599.492H298.376V597.676H298.912V597.24ZM299.708 596.748C299.708 596.492 299.904 596.336 300.18 596.336C300.456 596.336 300.652 596.492 300.652 596.748C300.652 597.008 300.456 597.164 300.18 597.164C299.904 597.164 299.708 597.008 299.708 596.748ZM301.16 596.748C301.16 596.264 300.744 595.912 300.18 595.912C299.62 595.912 299.2 596.264 299.2 596.748C299.2 597.24 299.62 597.588 300.18 597.588C300.744 597.588 301.16 597.24 301.16 596.748ZM300.168 598.8H302.072V597.792H299.64V598.2H301.552V598.42H299.644V599.448H302.176V599.04H300.168V598.8ZM302.072 596.516V595.808H301.544V597.648H302.072V596.948H302.556V596.516H302.072Z" fill="black"/>
<path d="M263.82 543.604H264.356V543.176H262.716V543.604H263.308V543.784C263.308 544.416 263.116 545.076 262.58 545.416L262.892 545.804C263.224 545.596 263.44 545.236 263.568 544.816C263.688 545.204 263.896 545.524 264.224 545.716L264.532 545.332C264 545.02 263.82 544.4 263.82 543.784V543.604ZM264.568 544.064H264.1V544.492H264.568V546.324H265.06V542.868H264.568V544.064ZM265.312 542.804V546.488H265.812V542.804H265.312ZM266.992 543.16H266.476V545.612H266.732C267.196 545.612 267.596 545.596 268.036 545.504L267.972 545.064C267.632 545.128 267.324 545.152 266.992 545.16V543.16ZM268.22 543.968H267.496V544.396H268.22V546.328H268.712V542.868H268.22V543.968ZM269 542.804V546.488H269.5V542.804H269ZM272.136 544.148C271.672 544.224 271.272 544.24 270.668 544.244V543.984H271.82V542.976H270.14V543.376H271.3V543.616H270.144V544.648H270.456C271.2 544.648 271.66 544.636 272.176 544.548L272.136 544.148ZM271.032 545.84H272.912V544.86H270.504V545.256H272.392V545.468H270.512V546.464H273.044V546.068H271.032V545.84ZM272.912 543.532V542.804H272.384V544.72H272.912V543.964H273.4V543.532H272.912ZM265.632 549.508H263.568V548.54H265.604V548.112H263.04V549.928H265.632V549.508ZM262.652 550.62V551.052H265.988V550.62H262.652ZM269.392 547.808H268.86V550.044H269.392V547.808ZM268.556 549.368C268.076 549.448 267.648 549.468 267.04 549.472V549.148H268.212V548.024H266.516V548.444H267.692V548.756H266.52V549.896H266.844C267.576 549.896 268.068 549.88 268.616 549.788L268.556 549.368ZM268.152 551.088C267.672 551.088 267.42 551 267.42 550.804C267.42 550.612 267.672 550.524 268.152 550.524C268.636 550.524 268.888 550.612 268.888 550.804C268.888 551 268.636 551.088 268.152 551.088ZM268.152 550.112C267.372 550.112 266.892 550.368 266.892 550.804C266.892 551.24 267.372 551.496 268.152 551.496C268.936 551.496 269.416 551.24 269.416 550.804C269.416 550.368 268.936 550.112 268.152 550.112ZM270.284 549.216L270.348 549.644L272.452 549.536C272.428 549.784 272.388 550.052 272.316 550.352L272.836 550.404C273.008 549.604 273.008 549.096 273.008 548.56V548.132H270.388V548.552H272.488V548.56C272.488 548.748 272.488 548.94 272.48 549.144L270.284 549.216ZM270.016 550.624V551.056H273.344V550.624H270.016Z" fill="black"/>
<path d="M218.279 540.792C218.759 540.792 219.067 540.936 219.067 541.2C219.067 541.468 218.759 541.612 218.279 541.612C217.795 541.612 217.487 541.468 217.487 541.2C217.487 540.936 217.795 540.792 218.279 540.792ZM218.279 542.032C219.063 542.032 219.611 541.708 219.611 541.2C219.611 540.7 219.063 540.372 218.279 540.372C217.491 540.372 216.947 540.7 216.947 541.2C216.947 541.708 217.491 542.032 218.279 542.032ZM219.955 542.308H216.619V542.732H218.011V543.936H218.539V542.732H219.955V542.308ZM221.127 542.688C220.927 542.688 220.807 542.412 220.807 541.844C220.807 541.28 220.927 541.004 221.127 541.004C221.331 541.004 221.447 541.28 221.447 541.844C221.447 542.412 221.331 542.688 221.127 542.688ZM222.211 541.604H221.919C221.859 540.916 221.563 540.508 221.127 540.508C220.639 540.508 220.331 541.012 220.331 541.844C220.331 542.68 220.639 543.184 221.127 543.184C221.575 543.184 221.875 542.752 221.923 542.032H222.211V543.768H222.703V540.308H222.211V541.604ZM222.959 540.244V543.928H223.459V540.244H222.959ZM225.911 543.092V542.252H226.963V541.832H224.883V540.528H224.355V542.252H225.383V543.092H223.979V543.52H227.315V543.092H225.911ZM228.142 542.372L228.602 541.636C228.686 541.476 228.766 541.312 228.838 541.156H228.854C228.846 541.328 228.83 541.596 228.83 541.768V542.372H228.142ZM229.73 542.372H229.378V540.628H228.674L227.57 542.42V542.82H228.83V543.588H229.378V542.82H229.73V542.372ZM230.014 543.588H231.998V543.092H231.354C231.218 543.092 231.022 543.108 230.874 543.124C231.414 542.596 231.858 542.02 231.858 541.484C231.858 540.932 231.486 540.572 230.926 540.572C230.522 540.572 230.258 540.732 229.986 541.02L230.306 541.34C230.454 541.176 230.634 541.036 230.85 541.036C231.13 541.036 231.294 541.216 231.294 541.516C231.294 541.972 230.818 542.528 230.014 543.248V543.588ZM232.525 543.588H234.305V543.112H233.749V540.628H233.313C233.125 540.744 232.921 540.82 232.625 540.876V541.24H233.161V543.112H232.525V543.588ZM219.689 547.66H218.949V546.844H219.689V547.66ZM219.689 546.432H218.949V545.54H218.425V548.08H220.213V545.54H219.689V546.432ZM221.733 546.62H221.197V545.252H220.669V548.932H221.197V547.06H221.733V546.62ZM224.516 545.244V548.94H225.044V545.244H224.516ZM223.064 545.504C222.508 545.504 222.096 546.008 222.096 546.816C222.096 547.628 222.508 548.136 223.064 548.136C223.62 548.136 224.032 547.628 224.032 546.816C224.032 546.008 223.62 545.504 223.064 545.504ZM223.064 545.98C223.336 545.98 223.524 546.272 223.524 546.816C223.524 547.364 223.336 547.656 223.064 547.656C222.792 547.656 222.604 547.364 222.604 546.816C222.604 546.272 222.792 545.98 223.064 545.98ZM228.54 547.68C228.688 546.896 228.688 546.376 228.688 545.916V545.564H226.012V545.984H228.16C228.16 546.412 228.152 546.924 228.012 547.62L228.54 547.68ZM227.38 548.064V546.796H226.852V548.064H225.676V548.488H229.008V548.064H227.38ZM230.42 547.6H229.948V546.04H230.42V547.6ZM231.264 546.584H230.908V545.624H229.456V548.012H230.908V547.012H231.264V548.764H231.756V545.304H231.264V546.584ZM232.012 545.244V548.928H232.512V545.244H232.012ZM219.697 550.532H219.165V551.064C219.165 551.764 218.885 552.48 218.261 552.768L218.589 553.192C219.001 552.984 219.277 552.6 219.437 552.128C219.589 552.572 219.857 552.932 220.261 553.128L220.573 552.708C219.965 552.436 219.697 551.76 219.697 551.064V550.532ZM220.877 550.244V551.4H220.169V551.824H220.877V553.94H221.405V550.244H220.877ZM222.3 552.016C222.972 551.956 223.428 551.748 223.656 551.44C223.88 551.748 224.34 551.956 225.012 552.016L225.176 551.612C224.388 551.556 224.024 551.292 223.96 551.016H225.004V550.608H223.916V550.26H223.388V550.608H222.312V551.016H223.348C223.284 551.292 222.916 551.556 222.132 551.612L222.3 552.016ZM222.924 552.856H222.396V553.868H224.948V553.448H222.924V552.856ZM223.916 552.232V551.832H223.388V552.232H221.992V552.648H225.32V552.232H223.916ZM225.904 550.46V550.876H227.044C226.968 551.364 226.508 551.768 225.692 551.972L225.892 552.384C226.988 552.104 227.608 551.44 227.608 550.46H225.904ZM226.816 552.872H228.212V553.476H226.816V552.872ZM226.296 553.888H228.732V552.456H226.296V553.888ZM228.2 550.252V552.3H228.732V550.252H228.2ZM231.32 550.54H230.82V551.16C230.82 551.592 230.784 552.072 230.564 552.444C230.34 552.068 230.304 551.584 230.304 551.16V550.54H229.808V551.16C229.808 551.748 229.74 552.388 229.272 552.752L229.612 553.112C229.836 552.932 229.976 552.668 230.064 552.356C230.156 552.684 230.308 552.976 230.564 553.172C230.82 552.976 230.976 552.684 231.064 552.344C231.152 552.672 231.3 552.944 231.54 553.132L231.86 552.752C231.388 552.388 231.32 551.752 231.32 551.16V550.54ZM231.964 550.248V553.932H232.492V550.248H231.964Z" fill="black"/>
<path d="M222.08 566.084V565.316H223.132V564.892H221.072V563.924H223.104V563.5H220.54V565.316H221.552V566.084H220.152V566.516H223.488V566.084H222.08ZM226.028 563.652H225.212V563.264H224.684V563.652H223.86V564.068H226.028V563.652ZM224.548 564.908C224.548 564.716 224.708 564.612 224.948 564.612C225.188 564.612 225.348 564.716 225.348 564.908C225.348 565.1 225.188 565.204 224.948 565.204C224.708 565.204 224.548 565.1 224.548 564.908ZM225.212 565.572C225.596 565.496 225.848 565.244 225.848 564.908C225.848 564.492 225.476 564.212 224.948 564.212C224.42 564.212 224.048 564.492 224.048 564.908C224.048 565.244 224.3 565.496 224.684 565.572V565.884C224.36 565.892 224.056 565.892 223.792 565.892L223.856 566.32C224.48 566.32 225.308 566.32 226.084 566.168L226.044 565.788C225.78 565.828 225.496 565.848 225.212 565.864V565.572ZM227.22 564.748H226.76V563.248H226.232V566.932H226.76V565.184H227.22V564.748ZM229.512 564.136V564.564H230.064V565.44H230.592V563.248H230.064V564.136H229.512ZM229.732 564.928C229.172 564.744 228.916 564.312 228.9 563.892H229.616V563.468H227.636V563.892H228.36C228.344 564.352 228.076 564.82 227.492 565.024L227.76 565.44C228.188 565.296 228.48 564.996 228.64 564.624C228.8 564.948 229.076 565.208 229.476 565.34L229.732 564.928ZM229.348 566.536C228.864 566.536 228.612 566.436 228.612 566.228C228.612 566.02 228.864 565.92 229.348 565.92C229.828 565.92 230.08 566.02 230.08 566.228C230.08 566.436 229.828 566.536 229.348 566.536ZM229.348 565.52C228.564 565.52 228.084 565.78 228.084 566.228C228.084 566.676 228.564 566.936 229.348 566.936C230.128 566.936 230.608 566.676 230.608 566.228C230.608 565.78 230.128 565.52 229.348 565.52ZM222.98 569.7C223.084 569.32 223.084 569.008 223.084 568.716V568.412H220.532V568.828H222.556C222.556 569.072 222.544 569.32 222.46 569.648L222.98 569.7ZM221.796 571.536C221.3 571.536 221.016 571.436 221.016 571.24C221.016 571.04 221.3 570.94 221.796 570.94C222.296 570.94 222.58 571.04 222.58 571.24C222.58 571.436 222.296 571.536 221.796 571.536ZM221.796 570.544C221.004 570.544 220.492 570.808 220.492 571.24C220.492 571.668 221.004 571.932 221.796 571.932C222.592 571.932 223.104 571.668 223.104 571.24C223.104 570.808 222.592 570.544 221.796 570.544ZM221.916 569.896V569.252H221.388V569.896H220.16V570.312H223.476V569.896H221.916ZM224 568.624V569.052H225.204C225.108 569.868 224.652 570.452 223.796 570.892L224.092 571.296C225.316 570.676 225.736 569.728 225.736 568.624H224ZM227.232 569.652H226.716V568.244H226.188V571.924H226.716V570.088H227.232V569.652ZM228.172 568.6H227.656V571.052H227.912C228.376 571.052 228.776 571.036 229.216 570.944L229.152 570.504C228.812 570.568 228.504 570.592 228.172 570.6V568.6ZM229.4 569.408H228.676V569.836H229.4V571.768H229.892V568.308H229.4V569.408ZM230.18 568.244V571.928H230.68V568.244H230.18ZM221.536 573.532H221.004V574.064C221.004 574.764 220.724 575.48 220.1 575.768L220.428 576.192C220.84 575.984 221.116 575.6 221.276 575.128C221.428 575.572 221.696 575.932 222.1 576.128L222.412 575.708C221.804 575.436 221.536 574.76 221.536 574.064V573.532ZM222.716 573.244V574.4H222.008V574.824H222.716V576.94H223.244V573.244H222.716ZM224.644 574.452C224.644 574.076 224.992 573.856 225.496 573.856C226.004 573.856 226.352 574.076 226.352 574.452C226.352 574.828 226.004 575.048 225.496 575.048C224.992 575.048 224.644 574.828 224.644 574.452ZM225.76 576.076V575.452C226.412 575.376 226.872 575 226.872 574.452C226.872 573.836 226.284 573.436 225.496 573.436C224.712 573.436 224.124 573.836 224.124 574.452C224.124 575 224.584 575.372 225.232 575.452V576.076H223.832V576.504H227.168V576.076H225.76ZM229.92 573.948H227.928V574.936H230.512V574.536H228.448V574.316H230.44V573.336H227.92V573.736H229.92V573.948ZM229.928 576.336C229.928 576.484 229.688 576.548 229.168 576.548C228.652 576.548 228.412 576.484 228.412 576.336C228.412 576.192 228.652 576.128 229.168 576.128C229.688 576.128 229.928 576.192 229.928 576.336ZM230.848 575.536V575.124H227.512V575.536H228.916V575.748C228.252 575.788 227.876 575.992 227.876 576.336C227.876 576.728 228.348 576.936 229.168 576.936C229.988 576.936 230.46 576.728 230.46 576.336C230.46 575.996 230.092 575.792 229.444 575.748V575.536H230.848ZM218.481 578.624V579.052H219.685C219.589 579.868 219.133 580.452 218.277 580.892L218.573 581.296C219.797 580.676 220.217 579.728 220.217 578.624H218.481ZM221.713 579.652H221.197V578.244H220.669V581.924H221.197V580.088H221.713V579.652ZM222.624 579.012H223.344V580.62H222.624V579.012ZM222.104 581.036H223.864V578.596H222.104V581.036ZM225.412 579.636H224.876V578.252H224.348V581.932H224.876V580.072H225.412V579.636ZM228.824 579.2C227.976 579.112 227.6 578.756 227.6 578.364V578.296H227.06V578.364C227.06 578.756 226.684 579.112 225.84 579.2L226.02 579.6C226.648 579.524 227.1 579.296 227.332 578.96C227.564 579.296 228.016 579.524 228.644 579.6L228.824 579.2ZM226.6 581.328H228.56V580.968H226.6V580.784H228.624V580.404H226.076V581.904H228.688V581.524H226.6V581.328ZM227.596 579.796V579.396H227.068V579.796H225.672V580.208H229V579.796H227.596ZM231.524 578.636H230.7V578.244H230.168V578.636H229.352V579.048H231.52L231.524 578.636ZM230.036 579.888C230.036 579.688 230.2 579.58 230.436 579.58C230.668 579.58 230.836 579.688 230.836 579.888C230.836 580.092 230.668 580.2 230.436 580.2C230.2 580.2 230.036 580.092 230.036 579.888ZM231.34 579.888C231.34 579.472 230.964 579.18 230.436 579.18C229.908 579.18 229.532 579.472 229.532 579.888C229.532 580.312 229.908 580.6 230.436 580.6C230.964 580.6 231.34 580.312 231.34 579.888ZM230.404 580.8H229.876V581.868H232.384V581.448H230.404V580.8ZM232.252 579.372V578.248H231.724V581.004H232.252V579.808H232.74V579.372H232.252Z" fill="black"/>
<path d="M221.824 623.196H221V622.804H220.468V623.196H219.652V623.608H221.82L221.824 623.196ZM220.336 624.448C220.336 624.248 220.5 624.14 220.736 624.14C220.968 624.14 221.136 624.248 221.136 624.448C221.136 624.652 220.968 624.76 220.736 624.76C220.5 624.76 220.336 624.652 220.336 624.448ZM221.64 624.448C221.64 624.032 221.264 623.74 220.736 623.74C220.208 623.74 219.832 624.032 219.832 624.448C219.832 624.872 220.208 625.16 220.736 625.16C221.264 625.16 221.64 624.872 221.64 624.448ZM220.704 625.36H220.176V626.428H222.684V626.008H220.704V625.36ZM222.552 623.932V622.808H222.024V625.564H222.552V624.368H223.04V623.932H222.552ZM226.668 624.656V624.236H226.204C226.276 623.844 226.276 623.536 226.276 623.26V622.964H223.744V623.388H225.756C225.756 623.632 225.744 623.9 225.676 624.236H223.332V624.656H224.732V625.176H223.668V625.592H225.752V626.492H226.284V625.176H225.26V624.656H226.668ZM229.308 624.356C228.748 624.192 228.476 623.812 228.448 623.424H229.172V623.008H227.168V623.424H227.904C227.876 623.84 227.608 624.24 227.024 624.412L227.288 624.828C227.72 624.696 228.016 624.42 228.184 624.076C228.352 624.392 228.636 624.644 229.052 624.764L229.308 624.356ZM229.548 626.028H228.148V625.704H229.548V626.028ZM229.548 625.3H228.148V624.964H227.624V626.448H230.072V624.964H229.548V625.3ZM229.54 622.812V624.808H230.072V622.812H229.54Z" fill="black"/>
<path d="M221.84 648.408C221.26 648.216 221.012 647.756 221.012 647.3V646.996H220.476V647.312C220.476 647.808 220.22 648.3 219.604 648.508L219.88 648.92C220.308 648.772 220.596 648.484 220.756 648.112C220.916 648.432 221.18 648.688 221.564 648.82L221.84 648.408ZM220.676 649.5H222.036V650.036H220.676V649.5ZM220.156 650.448H222.552V649.084H220.156V650.448ZM223.04 647.64H222.552V646.808H222.024V648.936H222.552V648.076H223.04V647.64ZM224.432 648.412H223.956V647.964H224.432V648.412ZM224.92 647.044H224.432V647.56H223.956V647.044H223.46V648.824H224.92V647.044ZM223.936 649.616H225.944V650.496H226.472V649.196H223.936V649.616ZM225.972 646.808V647.708H225.684V646.872H225.192V649.012H225.684V648.132H225.972V649.024H226.472V646.808H225.972ZM227.936 649.352H227.408V650.428H230.008V650.008H227.936V649.352ZM228.944 648.688V648.328H229.98V647.908H227.944V647.404H229.948V646.984H227.42V648.328H228.416V648.688H227.016V649.108H230.348V648.688H228.944Z" fill="black"/>
<path d="M261.189 633.572H261.569V635.196C261.441 635.2 261.313 635.204 261.189 635.208V633.572ZM262.077 633.572H262.393V633.148H260.361V633.572H260.677V635.22C260.533 635.22 260.393 635.22 260.265 635.22L260.321 635.652C260.949 635.652 261.785 635.636 262.533 635.504L262.501 635.12C262.365 635.14 262.221 635.148 262.077 635.16V633.572ZM263.733 634.2H263.197V632.812H262.669V636.496H263.197V634.636H263.733V634.2ZM266.516 632.804V636.5H267.044V632.804H266.516ZM265.064 633.064C264.508 633.064 264.096 633.568 264.096 634.376C264.096 635.188 264.508 635.696 265.064 635.696C265.62 635.696 266.032 635.188 266.032 634.376C266.032 633.568 265.62 633.064 265.064 633.064ZM265.064 633.54C265.336 633.54 265.524 633.832 265.524 634.376C265.524 634.924 265.336 635.216 265.064 635.216C264.792 635.216 264.604 634.924 264.604 634.376C264.604 633.832 264.792 633.54 265.064 633.54ZM268.68 635.216C268.412 635.216 268.232 634.924 268.232 634.376C268.232 633.832 268.412 633.54 268.68 633.54C268.952 633.54 269.132 633.832 269.132 634.376C269.132 634.924 268.952 635.216 268.68 635.216ZM270.236 632.804V634.132H269.62C269.548 633.468 269.176 633.064 268.68 633.064C268.132 633.064 267.728 633.568 267.728 634.376C267.728 635.188 268.132 635.696 268.68 635.696C269.192 635.696 269.568 635.264 269.624 634.56H270.236V636.5H270.764V632.804H270.236ZM274.492 632.812H273.992V634.708H274.492V632.812ZM272.452 634.188H271.976V633.8H272.452V634.188ZM272.94 633.996H273.244V634.688H273.736V632.872H273.244V633.58H272.94V633.008H272.452V633.412H271.976V633.012H271.48V634.592H272.94V633.996ZM272.524 636.064V635.84H274.492V634.856H271.988V635.26H273.964V635.46H271.996V636.464H274.608V636.064H272.524ZM261.061 638.564H262.313V638.136H260.533V640.624H260.857C261.641 640.624 262.109 640.608 262.609 640.512L262.561 640.076C262.117 640.16 261.705 640.18 261.061 640.184V638.564ZM262.837 637.808V641.504H263.365V637.808H262.837ZM265 640.216C264.732 640.216 264.552 639.924 264.552 639.376C264.552 638.832 264.732 638.54 265 638.54C265.272 638.54 265.452 638.832 265.452 639.376C265.452 639.924 265.272 640.216 265 640.216ZM266.556 637.804V639.132H265.94C265.868 638.468 265.496 638.064 265 638.064C264.452 638.064 264.048 638.568 264.048 639.376C264.048 640.188 264.452 640.696 265 640.696C265.512 640.696 265.888 640.264 265.944 639.56H266.556V641.5H267.084V637.804H266.556ZM270.54 640.24C270.688 639.456 270.688 638.936 270.688 638.476V638.124H268.012V638.544H270.16C270.16 638.972 270.152 639.484 270.012 640.18L270.54 640.24ZM269.38 640.624V639.356H268.852V640.624H267.676V641.048H271.008V640.624H269.38ZM272.42 640.16H271.948V638.6H272.42V640.16ZM273.264 639.144H272.908V638.184H271.456V640.572H272.908V639.572H273.264V641.324H273.756V637.864H273.264V639.144ZM274.012 637.804V641.488H274.512V637.804H274.012Z" fill="black"/>
<path d="M239.493 694.14V696.616H241.265V694.14H239.493ZM240.745 694.556V696.2H240.013V694.556H240.745ZM241.837 693.808V697.5H242.365V693.808H241.837ZM243.98 696.216C243.704 696.216 243.52 695.924 243.52 695.376C243.52 694.832 243.704 694.54 243.98 694.54C244.252 694.54 244.44 694.832 244.44 695.376C244.44 695.924 244.252 696.216 243.98 696.216ZM243.98 694.064C243.42 694.064 243.012 694.568 243.012 695.376C243.012 696.188 243.42 696.696 243.98 696.696C244.536 696.696 244.948 696.188 244.948 695.376C244.948 694.568 244.536 694.064 243.98 694.064ZM246.412 695.196H245.876V693.808H245.348V697.492H245.876V695.632H246.412V695.196ZM247.592 696.3H247.064V697.428H249.664V697.008H247.592V696.3ZM248.608 695.656V695.216H249.632V694.796H247.616V693.912H247.088V695.216H248.08V695.656H246.676V696.076H250.008V695.656H248.608ZM250.992 694.156H250.464V696.588H250.784C251.32 696.588 251.912 696.556 252.524 696.428L252.472 695.996C251.956 696.096 251.456 696.136 250.992 696.148V694.156ZM253.752 695.196H253.236V693.804H252.708V697.484H253.236V695.632H253.752V695.196Z" fill="black"/>
<path d="M293.937 647.48H294.465V644.808H293.937V645.62H293.509V646.04H293.937V647.48ZM293.781 646.592C293.353 646.328 293.249 645.844 293.249 645.38V645.056H292.877V645.06H292.757V645.384C292.757 645.712 292.713 646.08 292.513 646.368C292.313 646.08 292.269 645.704 292.269 645.384V645.06H292.149V645.056H291.773V645.38C291.773 645.828 291.669 646.32 291.241 646.592L291.525 646.964C291.769 646.812 291.925 646.576 292.021 646.3C292.109 646.588 292.261 646.84 292.513 647.008C292.765 646.844 292.917 646.596 293.005 646.308C293.097 646.584 293.253 646.816 293.497 646.964L293.781 646.592ZM292.433 648.008V647.232H291.905V648.428H294.545V648.008H292.433ZM295.908 647.256H295.38V648.428H297.992V648.008H295.908V647.256ZM297.844 646.568C297.936 646.06 297.936 645.684 297.936 645.32V644.972H295.404V645.392H297.416C297.416 645.5 297.416 645.608 297.412 645.724L295.3 645.768L295.36 646.192L297.384 646.108C297.368 646.252 297.348 646.4 297.312 646.568H294.992V646.988H298.324V646.568H297.844ZM298.84 645.184V645.612H300.044C299.948 646.428 299.492 647.012 298.636 647.452L298.932 647.856C300.156 647.236 300.576 646.288 300.576 645.184H298.84ZM302.072 646.212H301.556V644.804H301.028V648.484H301.556V646.648H302.072V646.212ZM305.32 645.908H303.284V645.36H305.292V644.94H302.76V646.328H305.32V645.908ZM303.276 647.324H302.748V648.428H305.348V648.008H303.276V647.324ZM302.356 646.628V647.048H305.688V646.628H302.356Z" fill="white"/>
<path d="M265.164 580.544H266.332V579.12H264.64V579.54H265.812V580.128H264.644V581.648H264.956C265.596 581.648 266.104 581.624 266.656 581.524L266.608 581.096C266.128 581.18 265.692 581.208 265.164 581.212V580.544ZM267.912 580.196H267.384V578.804H266.856V582.5H267.384V580.632H267.912V580.196ZM271.312 578.812H270.812V581.548H271.312V578.812ZM269.272 580.496H268.792V579.568H269.272V580.496ZM269.76 580.22H270.072V581.44H270.564V578.872H270.072V579.796H269.76V579.164H268.3V580.9H269.76V580.22ZM269.36 582.008V581.228H268.832V582.428H271.404V582.008H269.36ZM263.732 586.2H263.252V585.404H263.732V586.2ZM264.564 585.156H264.22V584.144H263.732V584.988H263.252V584.14H262.756V586.62H264.22V585.58H264.564V587.332H265.056V583.872H264.564V585.156ZM265.312 583.804V587.488H265.812V583.804H265.312ZM267.004 585.544H268.172V584.12H266.48V584.54H267.652V585.128H266.484V586.648H266.796C267.436 586.648 267.944 586.624 268.496 586.524L268.448 586.096C267.968 586.18 267.532 586.208 267.004 586.212V585.544ZM269.752 585.196H269.224V583.804H268.696V587.5H269.224V585.632H269.752V585.196ZM270.888 585.024H272.464V585.54H270.888V585.024ZM271.94 586.636V585.96H272.984V584.036H272.464V584.608H270.888V584.036H270.364V585.96H271.412V586.636H270.012V587.064H273.348V586.636H271.94Z" fill="black"/>
<path fill-rule="evenodd" clip-rule="evenodd" d="M284.789 529.432C288.317 528.822 291 525.756 291 522.065C291 517.935 287.642 514.588 283.5 514.588C279.358 514.588 276 517.935 276 522.065C276 525.756 278.683 528.822 282.211 529.432L283.5 534.588L284.789 529.432Z" fill="black"/>
<path fill-rule="evenodd" clip-rule="evenodd" d="M284.789 527.432C288.317 526.822 291 523.756 291 520.065C291 515.935 287.642 512.588 283.5 512.588C279.358 512.588 276 515.935 276 520.065C276 523.756 278.683 526.822 282.211 527.432L283.5 532.588L284.789 527.432Z" fill="#FF0000"/>
<ellipse cx="283.5" cy="520.065" rx="2.5" ry="2.49231" fill="white"/>
</svg>
