<svg width="315" height="372" viewBox="0 0 315 372" fill="none" xmlns="http://www.w3.org/2000/svg">
<path d="M206.616 33.3568H208.116V31.8568V1.5H313.5V328.5H1.5V61.5H161.319H162.819V60V33.3568H206.616Z" fill="#C4C4C4" stroke="black" stroke-width="3" stroke-miterlimit="10"/>
<path d="M251.266 85.3369H241.75V120.373H251.266V85.3369Z" fill="black"/>
<path d="M113.266 244.412H103.75V279.448H113.266V244.412Z" fill="black"/>
<path d="M276.806 85.3369H267.29V120.373H276.806V85.3369Z" fill="black"/>
<path d="M138.806 244.412H129.29V279.448H138.806V244.412Z" fill="black"/>
<path d="M265.448 85.3369H253.107V120.373H265.448V85.3369Z" fill="black"/>
<path d="M127.448 244.412H115.107V279.448H127.448V244.412Z" fill="black"/>
<path d="M240 85.4121H167V120.412H240V85.4121Z" fill="black"/>
<path d="M102 244.487H29V279.487H102V244.487Z" fill="black"/>
<path d="M262.869 106.285V100.971C262.869 100.414 262.44 99.9819 261.887 99.9819H256.607C256.054 99.9819 255.625 100.414 255.625 100.971V106.285C255.625 106.841 256.054 107.273 256.607 107.273H261.887C262.44 107.212 262.869 106.841 262.869 106.285ZM262.071 106.408H256.423V100.785H262.071V106.408Z" fill="white"/>
<path d="M260.168 96.5212C260.168 96.0886 260.782 96.0886 260.782 96.5212V98.2514L261.089 97.8806C261.334 97.6334 261.702 98.0042 261.457 98.2514L260.659 99.1783C260.536 99.3018 260.352 99.3018 260.229 99.1783L259.431 98.2514C259.185 97.9424 259.615 97.6334 259.799 97.8806L260.106 98.3132L260.168 96.5212Z" fill="white"/>
<path d="M257.773 98.9953C257.773 99.4279 258.387 99.4279 258.387 98.9953V97.2652L258.694 97.6359C258.94 97.8831 259.308 97.5123 259.062 97.2652L258.264 96.3383C258.141 96.2147 257.957 96.2147 257.834 96.3383L257.036 97.2652C256.791 97.5741 257.221 97.8831 257.405 97.6359L257.712 97.2034L257.773 98.9953Z" fill="white"/>
<path d="M260.905 102.453H259.861C259.738 102.453 259.615 102.577 259.615 102.7V103.998C259.615 104.122 259.677 104.183 259.799 104.183C259.799 104.183 259.861 104.183 259.922 104.183V105.852C259.922 106.161 260.352 106.161 260.352 105.852V104.183H260.413V105.852C260.413 106.161 260.843 106.161 260.843 105.852V104.183C260.905 104.183 260.966 104.183 260.966 104.183C261.089 104.183 261.15 104.122 261.15 103.998V102.7C261.15 102.577 261.027 102.453 260.905 102.453Z" fill="white"/>
<path d="M260.351 102.33C260.521 102.33 260.658 102.192 260.658 102.021C260.658 101.85 260.521 101.712 260.351 101.712C260.182 101.712 260.044 101.85 260.044 102.021C260.044 102.192 260.182 102.33 260.351 102.33Z" fill="white"/>
<path d="M258.695 102.453H257.651C257.528 102.453 257.405 102.577 257.405 102.7V103.998C257.405 104.122 257.467 104.183 257.589 104.183C257.589 104.183 257.651 104.183 257.712 104.183V105.852C257.712 106.161 258.142 106.161 258.142 105.852V104.183H258.203V105.852C258.203 106.161 258.633 106.161 258.633 105.852V104.183C258.695 104.183 258.756 104.183 258.756 104.183C258.879 104.183 258.94 104.122 258.94 103.998V102.7C258.94 102.577 258.817 102.453 258.695 102.453Z" fill="white"/>
<path d="M258.141 102.33C258.311 102.33 258.448 102.192 258.448 102.021C258.448 101.85 258.311 101.712 258.141 101.712C257.972 101.712 257.834 101.85 257.834 102.021C257.834 102.192 257.972 102.33 258.141 102.33Z" fill="white"/>
<path d="M124.869 265.36V260.046C124.869 259.49 124.44 259.057 123.887 259.057H118.607C118.054 259.057 117.625 259.49 117.625 260.046V265.36C117.625 265.916 118.054 266.349 118.607 266.349H123.887C124.44 266.287 124.869 265.916 124.869 265.36ZM124.071 265.484H118.423V259.86H124.071V265.484Z" fill="white"/>
<path d="M122.168 255.596C122.168 255.164 122.782 255.164 122.782 255.596V257.327L123.089 256.956C123.334 256.709 123.702 257.079 123.457 257.327L122.659 258.253C122.536 258.377 122.352 258.377 122.229 258.253L121.431 257.327C121.185 257.018 121.615 256.709 121.799 256.956L122.106 257.388L122.168 255.596Z" fill="white"/>
<path d="M119.773 258.071C119.773 258.503 120.387 258.503 120.387 258.071V256.34L120.694 256.711C120.94 256.958 121.308 256.588 121.062 256.34L120.264 255.413C120.141 255.29 119.957 255.29 119.834 255.413L119.036 256.34C118.791 256.649 119.221 256.958 119.405 256.711L119.712 256.279L119.773 258.071Z" fill="white"/>
<path d="M122.905 261.528H121.861C121.738 261.528 121.615 261.652 121.615 261.775V263.073C121.615 263.197 121.677 263.259 121.799 263.259C121.799 263.259 121.861 263.259 121.922 263.259V264.927C121.922 265.236 122.352 265.236 122.352 264.927V263.259H122.413V264.927C122.413 265.236 122.843 265.236 122.843 264.927V263.259C122.905 263.259 122.966 263.259 122.966 263.259C123.089 263.259 123.15 263.197 123.15 263.073V261.775C123.15 261.652 123.027 261.528 122.905 261.528Z" fill="white"/>
<path d="M122.351 261.405C122.521 261.405 122.658 261.267 122.658 261.096C122.658 260.925 122.521 260.787 122.351 260.787C122.182 260.787 122.044 260.925 122.044 261.096C122.044 261.267 122.182 261.405 122.351 261.405Z" fill="white"/>
<path d="M120.695 261.528H119.651C119.528 261.528 119.405 261.652 119.405 261.775V263.073C119.405 263.197 119.467 263.259 119.589 263.259C119.589 263.259 119.651 263.259 119.712 263.259V264.927C119.712 265.236 120.142 265.236 120.142 264.927V263.259H120.203V264.927C120.203 265.236 120.633 265.236 120.633 264.927V263.259C120.695 263.259 120.756 263.259 120.756 263.259C120.879 263.259 120.94 263.197 120.94 263.073V261.775C120.94 261.652 120.817 261.528 120.695 261.528Z" fill="white"/>
<path d="M120.141 261.405C120.311 261.405 120.448 261.267 120.448 261.096C120.448 260.925 120.311 260.787 120.141 260.787C119.972 260.787 119.834 260.925 119.834 261.096C119.834 261.267 119.972 261.405 120.141 261.405Z" fill="white"/>
<path d="M175.632 100.412H177.17V98.0542H178.462C180.135 98.0542 181.108 97.0563 181.108 95.6039C181.108 94.1586 180.153 93.1394 178.501 93.1394H175.632V100.412ZM177.17 96.8219V94.3965H178.207C179.094 94.3965 179.524 94.8794 179.524 95.6039C179.524 96.3248 179.094 96.8219 178.214 96.8219H177.17ZM183.487 100.515C184.293 100.515 184.815 100.164 185.082 99.6557H185.124V100.412H186.559V96.7331C186.559 95.4334 185.458 94.8865 184.244 94.8865C182.937 94.8865 182.077 95.5115 181.868 96.5059L183.267 96.6195C183.37 96.2573 183.693 95.9909 184.237 95.9909C184.751 95.9909 185.046 96.2502 185.046 96.6976V96.7189C185.046 97.0705 184.673 97.1167 183.725 97.209C182.646 97.3084 181.676 97.6706 181.676 98.8887C181.676 99.9682 182.447 100.515 183.487 100.515ZM183.92 99.4711C183.455 99.4711 183.121 99.2544 183.121 98.839C183.121 98.4128 183.473 98.2033 184.006 98.1287C184.336 98.0826 184.876 98.0044 185.057 97.8837V98.4625C185.057 99.0343 184.585 99.4711 183.92 99.4711ZM187.733 100.412H189.245V97.3262C189.245 96.655 189.735 96.1934 190.403 96.1934C190.613 96.1934 190.9 96.2289 191.042 96.275V94.9327C190.907 94.9007 190.719 94.8794 190.566 94.8794C189.956 94.8794 189.455 95.2346 189.256 95.9093H189.199V94.9576H187.733V100.412ZM191.824 100.412H193.337V98.6792L193.746 98.214L195.233 100.412H197.006L194.878 97.3191L196.903 94.9576H195.166L193.419 97.0279H193.337V93.1394H191.824V100.412ZM197.645 100.412H199.157V94.9576H197.645V100.412ZM198.405 94.2544C198.856 94.2544 199.225 93.91 199.225 93.4874C199.225 93.0684 198.856 92.7239 198.405 92.7239C197.957 92.7239 197.588 93.0684 197.588 93.4874C197.588 93.91 197.957 94.2544 198.405 94.2544ZM201.882 97.2587C201.886 96.5556 202.305 96.1436 202.915 96.1436C203.523 96.1436 203.888 96.5414 203.885 97.209V100.412H205.398V96.9391C205.398 95.6678 204.652 94.8865 203.516 94.8865C202.706 94.8865 202.12 95.2843 201.875 95.9199H201.811V94.9576H200.369V100.412H201.882V97.2587ZM209.047 102.571C210.606 102.571 211.714 101.861 211.714 100.465V94.9576H210.212V95.8738H210.155C209.953 95.4299 209.509 94.8865 208.596 94.8865C207.4 94.8865 206.388 95.8169 206.388 97.6742C206.388 99.4888 207.371 100.334 208.6 100.334C209.47 100.334 209.956 99.8972 210.155 99.4462H210.219V100.444C210.219 101.193 209.74 101.485 209.083 101.485C208.415 101.485 208.078 101.193 207.954 100.863L206.555 101.051C206.736 101.911 207.577 102.571 209.047 102.571ZM209.079 99.1976C208.337 99.1976 207.932 98.6081 207.932 97.6671C207.932 96.7402 208.33 96.0904 209.079 96.0904C209.814 96.0904 210.226 96.7118 210.226 97.6671C210.226 98.6294 209.807 99.1976 209.079 99.1976ZM175.632 112.412H180.547V111.144H177.17V109.408H180.281V108.14H177.17V106.407H180.533V105.139H175.632V112.412ZM183.009 112.412L183.548 110.754H186.173L186.713 112.412H188.36L185.853 105.139H183.872L181.361 112.412H183.009ZM183.939 109.553L184.834 106.801H184.891L185.786 109.553H183.939ZM193.015 107.231H194.489C194.467 105.935 193.402 105.04 191.783 105.04C190.188 105.04 189.02 105.921 189.027 107.242C189.023 108.314 189.78 108.928 191.009 109.223L191.8 109.422C192.592 109.614 193.033 109.841 193.036 110.331C193.033 110.864 192.528 111.226 191.747 111.226C190.948 111.226 190.373 110.857 190.323 110.129H188.835C188.874 111.702 190 112.515 191.765 112.515C193.54 112.515 194.585 111.666 194.588 110.335C194.585 109.124 193.672 108.481 192.408 108.197L191.754 108.041C191.122 107.895 190.593 107.661 190.604 107.139C190.604 106.67 191.019 106.325 191.772 106.325C192.507 106.325 192.958 106.659 193.015 107.231ZM195.345 106.407H197.572V112.412H199.092V106.407H201.318V105.139H195.345V106.407ZM204.616 112.412H206.154V109.408H209.276V112.412H210.81V105.139H209.276V108.14H206.154V105.139H204.616V112.412ZM213.331 112.412L213.871 110.754H216.495L217.035 112.412H218.683L216.175 105.139H214.194L211.683 112.412H213.331ZM214.261 109.553L215.156 106.801H215.213L216.108 109.553H214.261ZM219.558 112.412H224.213V111.144H221.096V105.139H219.558V112.412ZM225.232 112.412H229.887V111.144H226.769V105.139H225.232V112.412Z" fill="white"/>
<path d="M37.6321 259.487H39.1697V257.129H40.4624C42.1349 257.129 43.108 256.131 43.108 254.679C43.108 253.234 42.1527 252.215 40.5014 252.215H37.6321V259.487ZM39.1697 255.897V253.472H40.2067C41.0945 253.472 41.5241 253.955 41.5241 254.679C41.5241 255.4 41.0945 255.897 40.2138 255.897H39.1697ZM45.4872 259.59C46.2933 259.59 46.8153 259.239 47.0817 258.731H47.1243V259.487H48.5589V255.808C48.5589 254.509 47.4581 253.962 46.2436 253.962C44.9368 253.962 44.0774 254.587 43.8679 255.581L45.267 255.695C45.37 255.332 45.6932 255.066 46.2365 255.066C46.7514 255.066 47.0462 255.325 47.0462 255.773V255.794C47.0462 256.146 46.6733 256.192 45.7251 256.284C44.6456 256.384 43.6761 256.746 43.6761 257.964C43.6761 259.043 44.4467 259.59 45.4872 259.59ZM45.9205 258.546C45.4553 258.546 45.1214 258.33 45.1214 257.914C45.1214 257.488 45.473 257.278 46.0057 257.204C46.3359 257.158 46.8757 257.08 47.0568 256.959V257.538C47.0568 258.109 46.5845 258.546 45.9205 258.546ZM49.7326 259.487H51.2454V256.401C51.2454 255.73 51.7354 255.269 52.4031 255.269C52.6126 255.269 52.9002 255.304 53.0423 255.35V254.008C52.9073 253.976 52.7191 253.955 52.5664 253.955C51.9556 253.955 51.4549 254.31 51.256 254.984H51.1992V254.033H49.7326V259.487ZM53.8244 259.487H55.3372V257.754L55.7456 257.289L57.2335 259.487H59.0055L56.8784 256.394L58.9025 254.033H57.166L55.4189 256.103H55.3372V252.215H53.8244V259.487ZM59.6447 259.487H61.1575V254.033H59.6447V259.487ZM60.4047 253.33C60.8556 253.33 61.225 252.985 61.225 252.563C61.225 252.144 60.8556 251.799 60.4047 251.799C59.9572 251.799 59.5879 252.144 59.5879 252.563C59.5879 252.985 59.9572 253.33 60.4047 253.33ZM63.8821 256.334C63.8857 255.631 64.3047 255.219 64.9155 255.219C65.5227 255.219 65.8885 255.617 65.8849 256.284V259.487H67.3977V256.014C67.3977 254.743 66.652 253.962 65.5156 253.962C64.706 253.962 64.12 254.359 63.875 254.995H63.8111V254.033H62.3693V259.487H63.8821V256.334ZM71.0474 261.646C72.6064 261.646 73.7143 260.936 73.7143 259.541V254.033H72.2122V254.949H72.1554C71.9529 254.505 71.5091 253.962 70.5964 253.962C69.3997 253.962 68.3876 254.892 68.3876 256.749C68.3876 258.564 69.3713 259.409 70.6 259.409C71.47 259.409 71.9565 258.972 72.1554 258.521H72.2193V259.519C72.2193 260.269 71.7399 260.56 71.0829 260.56C70.4153 260.56 70.0779 260.269 69.9537 259.938L68.5545 260.127C68.7356 260.986 69.5772 261.646 71.0474 261.646ZM71.0794 258.273C70.3372 258.273 69.9324 257.683 69.9324 256.742C69.9324 255.815 70.3301 255.166 71.0794 255.166C71.8145 255.166 72.2264 255.787 72.2264 256.742C72.2264 257.705 71.8074 258.273 71.0794 258.273ZM39.2692 271.487H40.7678L42.1491 266.732H42.206L43.5909 271.487H45.0895L47.1705 264.215H45.4908L44.2869 269.278H44.223L42.8984 264.215H41.4602L40.1321 269.268H40.0717L38.8679 264.215H37.1882L39.2692 271.487ZM47.9934 271.487H52.9082V270.22H49.5311V268.483H52.6419V267.215H49.5311V265.482H52.894V264.215H47.9934V271.487ZM58.0618 266.306H59.5355C59.5142 265.01 58.4489 264.115 56.8295 264.115C55.2351 264.115 54.0668 264.996 54.0739 266.317C54.0703 267.389 54.8267 268.004 56.0554 268.298L56.8473 268.497C57.6392 268.689 58.0795 268.916 58.0831 269.406C58.0795 269.939 57.5753 270.301 56.794 270.301C55.995 270.301 55.4197 269.932 55.37 269.204H53.8821C53.9212 270.777 55.0469 271.59 56.8118 271.59C58.5874 271.59 59.6314 270.742 59.6349 269.41C59.6314 268.199 58.7188 267.556 57.4545 267.272L56.8011 267.116C56.169 266.97 55.6399 266.736 55.6506 266.214C55.6506 265.745 56.0661 265.401 56.8189 265.401C57.554 265.401 58.005 265.734 58.0618 266.306ZM60.3922 265.482H62.6188V271.487H64.1387V265.482H66.3652V264.215H60.3922V265.482ZM69.6634 271.487H71.201V268.483H74.3224V271.487H75.8565V264.215H74.3224V267.215H71.201V264.215H69.6634V271.487ZM78.3778 271.487L78.9176 269.829H81.5419L82.0817 271.487H83.7294L81.2223 264.215H79.2408L76.7301 271.487H78.3778ZM79.3082 268.629L80.2031 265.877H80.2599L81.1548 268.629H79.3082ZM84.6048 271.487H89.2603V270.22H86.1424V264.215H84.6048V271.487ZM90.2786 271.487H94.9341V270.22H91.8162V264.215H90.2786V271.487Z" fill="white"/>
<path d="M2.78125 43.4121H9.54688V33.0371H15.2344C22.5937 33.0371 26.875 28.6465 26.875 22.2559C26.875 15.8965 22.6719 11.4121 15.4063 11.4121H2.78125V43.4121ZM9.54688 27.6152V16.9434H14.1094C18.0156 16.9434 19.9063 19.0684 19.9063 22.2559C19.9063 25.4277 18.0156 27.6152 14.1406 27.6152H9.54688Z" fill="black"/>
<path fill-rule="evenodd" clip-rule="evenodd" d="M229.789 95.8438C233.317 95.2346 236 92.1681 236 88.4769C236 84.3475 232.642 81 228.5 81C224.358 81 221 84.3475 221 88.4769C221 92.1681 223.683 95.2346 227.211 95.8438L228.5 101L229.789 95.8438Z" fill="black"/>
<path fill-rule="evenodd" clip-rule="evenodd" d="M229.789 93.8438C233.317 93.2346 236 90.1681 236 86.4769C236 82.3475 232.642 79 228.5 79C224.358 79 221 82.3475 221 86.4769C221 90.1681 223.683 93.2346 227.211 93.8438L228.5 99L229.789 93.8438Z" fill="#FF0000"/>
<ellipse cx="228.5" cy="86.4767" rx="2.5" ry="2.49231" fill="white"/>
<path fill-rule="evenodd" clip-rule="evenodd" d="M91.789 254.844C95.317 254.235 98 251.168 98 247.477C98 243.348 94.6421 240 90.5 240C86.3579 240 83 243.348 83 247.477C83 251.168 85.683 254.235 89.211 254.844L90.5 260L91.789 254.844Z" fill="black"/>
<path fill-rule="evenodd" clip-rule="evenodd" d="M91.789 252.844C95.317 252.235 98 249.168 98 245.477C98 241.348 94.6421 238 90.5 238C86.3579 238 83 241.348 83 245.477C83 249.168 85.683 252.235 89.211 252.844L90.5 258L91.789 252.844Z" fill="#FF0000"/>
<ellipse cx="90.5" cy="245.477" rx="2.5" ry="2.49231" fill="white"/>
<path d="M230 127V262H146" stroke="#FF0000" stroke-width="3" stroke-linecap="round"/>
<path d="M1.862 357.582C3.808 357.246 5.656 356.196 6.426 354.712C7.182 356.196 9.044 357.246 10.99 357.582L11.438 356.672C9.226 356.35 7.056 354.908 7.056 353.256V353.186H10.99V352.262H1.82V353.186H5.782V353.256C5.782 354.908 3.612 356.35 1.428 356.672L1.862 357.582ZM12.096 358.632H0.756V359.57H5.824V364.036H6.972V359.57H12.11L12.096 358.632ZM17.8209 354.572H20.6069V353.648H17.8209V351.702H16.6729V353.648H13.8449V354.572H16.6869V355.552C16.6869 357.722 15.3429 359.85 13.5089 360.746L14.1529 361.614C15.5809 360.914 16.7289 359.458 17.2609 357.736C17.7929 359.346 18.8569 360.718 20.2289 361.39L20.8729 360.494C19.0669 359.626 17.8209 357.568 17.8209 355.552V354.572ZM25.3529 356.644H23.2809V351.478H22.1329V364.036H23.2809V357.596H25.3529V356.644ZM33.7798 357.554C31.9318 356.938 30.7418 355.468 30.7418 353.83V353.34H33.5138V352.416H26.7798V353.34H29.5938V353.83C29.5938 355.636 28.3338 357.26 26.4438 357.918L27.0318 358.828C28.5298 358.296 29.6638 357.176 30.1958 355.748C30.7278 356.994 31.8058 357.988 33.2338 358.45L33.7798 357.554ZM32.2538 363.112C30.3778 363.112 29.2578 362.594 29.2578 361.698C29.2578 360.816 30.3778 360.298 32.2538 360.298C34.1018 360.298 35.2358 360.816 35.2358 361.698C35.2358 362.594 34.1018 363.112 32.2538 363.112ZM32.2538 359.388C29.6778 359.388 28.1098 360.242 28.1098 361.698C28.1098 363.168 29.6778 364.022 32.2538 364.022C34.8018 364.022 36.3838 363.168 36.3838 361.698C36.3838 360.242 34.8018 359.388 32.2538 359.388ZM36.2438 354.656V351.492H35.0958V359.066H36.2438V355.622H38.1058V354.656H36.2438ZM45.0487 352.556C47.1067 352.556 48.2827 353.032 48.2827 353.872C48.2827 354.712 47.1067 355.188 45.0487 355.188C42.9907 355.188 41.8147 354.712 41.8147 353.872C41.8147 353.032 42.9907 352.556 45.0487 352.556ZM45.0487 356.042C47.8067 356.042 49.4587 355.286 49.4587 353.872C49.4587 352.458 47.8067 351.688 45.0487 351.688C42.2907 351.688 40.6387 352.458 40.6387 353.872C40.6387 355.286 42.2907 356.042 45.0487 356.042ZM41.8987 361.726H49.2767V358.898H40.7367V359.766H48.1427V360.886H40.7787V363.896H49.6547V363H41.8987V361.726ZM39.3647 356.896V357.82H50.7327V356.896H39.3647ZM61.4003 363.154C59.3843 363.154 58.2503 362.762 58.2503 362.006C58.2503 361.264 59.3843 360.858 61.4003 360.858C63.4303 360.858 64.5503 361.264 64.5503 362.006C64.5503 362.762 63.4303 363.154 61.4003 363.154ZM61.4003 360.004C58.6703 360.004 57.1023 360.704 57.1023 362.006C57.1023 363.322 58.6703 364.022 61.4003 364.022C64.1303 364.022 65.6983 363.322 65.6983 362.006C65.6983 360.704 64.1303 360.004 61.4003 360.004ZM61.9743 358.128V356.896H65.7543V356H58.3623V354.768H65.3483V353.9H58.3623V352.738H65.6843V351.842H57.2143V356.896H60.8263V358.128H55.7163V359.052H67.0843V358.128H61.9743ZM75.1612 358.52C75.5112 356.182 75.5112 354.544 75.5112 353.536V352.85H69.1692V353.788H74.3912C74.3912 354.796 74.3632 356.322 74.0132 358.408L75.1612 358.52ZM72.2772 356.434H71.1432V360.298C70.2052 360.326 69.2812 360.34 68.4832 360.34L68.6092 361.292C70.8352 361.292 73.7892 361.236 76.3932 360.816L76.3232 359.976C75.0492 360.13 73.6492 360.214 72.2772 360.27V356.434ZM80.2432 356.728H78.2412V351.478H77.0932V364.036H78.2412V357.694H80.2432V356.728ZM85.1701 360.284C84.0361 360.284 83.2101 359.472 83.2101 358.352C83.2101 357.218 84.0361 356.406 85.1701 356.406C86.3181 356.406 87.1441 357.218 87.1441 358.352C87.1441 359.472 86.3181 360.284 85.1701 360.284ZM85.1701 355.454C83.4061 355.454 82.1321 356.658 82.1321 358.352C82.1321 360.06 83.4061 361.236 85.1701 361.236C86.9621 361.236 88.2361 360.06 88.2361 358.352C88.2361 356.658 86.9621 355.454 85.1701 355.454ZM85.7301 351.632H84.5821V353.494H81.4181V354.418H88.8241V353.494H85.7301V351.632ZM93.2201 356.644H91.1621V351.492H90.0141V364.036H91.1621V357.61H93.2201V356.644ZM100.709 358.254C100.793 357.82 100.849 357.344 100.849 356.826C100.849 356.252 100.779 355.72 100.667 355.23H103.565V358.254H100.709ZM97.727 360.186C96.523 360.186 95.683 358.87 95.683 356.826C95.683 354.796 96.523 353.48 97.727 353.48C98.917 353.48 99.771 354.796 99.771 356.826C99.771 358.87 98.917 360.186 97.727 360.186ZM103.565 351.478V354.292H100.345C99.813 353.116 98.889 352.444 97.727 352.444C95.893 352.444 94.591 354.152 94.591 356.826C94.591 359.5 95.893 361.208 97.727 361.208C98.931 361.208 99.911 360.466 100.429 359.192H103.565V364.064H104.713V351.478H103.565ZM119.847 351.478V364.064H120.995V351.478H119.847ZM114.373 352.444C112.511 352.444 111.181 354.152 111.181 356.826C111.181 359.5 112.511 361.208 114.373 361.208C116.235 361.208 117.565 359.5 117.565 356.826C117.565 354.152 116.235 352.444 114.373 352.444ZM114.373 353.48C115.591 353.48 116.459 354.796 116.459 356.826C116.459 358.87 115.591 360.186 114.373 360.186C113.141 360.186 112.273 358.87 112.273 356.826C112.273 354.796 113.141 353.48 114.373 353.48ZM129.281 363.14C127.293 363.14 126.131 362.65 126.131 361.768C126.131 360.886 127.293 360.396 129.281 360.396C131.241 360.396 132.403 360.886 132.403 361.768C132.403 362.65 131.241 363.14 129.281 363.14ZM129.281 359.5C126.593 359.5 124.969 360.312 124.969 361.768C124.969 363.224 126.593 364.036 129.281 364.036C131.941 364.036 133.565 363.224 133.565 361.768C133.565 360.312 131.941 359.5 129.281 359.5ZM129.855 357.68V356.224H133.635V355.3H126.173V352.976H133.551V352.052H125.025V356.224H128.707V357.68H123.597V358.604H134.965V357.68H129.855ZM140.158 360.284C139.024 360.284 138.198 359.472 138.198 358.352C138.198 357.218 139.024 356.406 140.158 356.406C141.306 356.406 142.132 357.218 142.132 358.352C142.132 359.472 141.306 360.284 140.158 360.284ZM140.158 355.454C138.394 355.454 137.12 356.658 137.12 358.352C137.12 360.06 138.394 361.236 140.158 361.236C141.95 361.236 143.224 360.06 143.224 358.352C143.224 356.658 141.95 355.454 140.158 355.454ZM140.718 351.632H139.57V353.494H136.406V354.418H143.812V353.494H140.718V351.632ZM148.208 356.644H146.15V351.492H145.002V364.036H146.15V357.61H148.208V356.644ZM153.079 352.668H151.973V355.062C151.973 357.218 150.937 359.472 149.215 360.48L149.929 361.334C151.175 360.564 152.085 359.15 152.533 357.484C152.981 359.01 153.821 360.34 155.011 361.068L155.669 360.172C154.017 359.164 153.079 357.036 153.079 355.02V352.668ZM156.383 355.986H154.311V356.938H156.383V363.42H157.461V351.758H156.383V355.986ZM158.931 351.478V364.036H160.023V351.478H158.931ZM166.168 358.52C166.686 358.646 167.288 358.716 167.904 358.716C168.534 358.716 169.136 358.646 169.668 358.52V361.474H166.168V358.52ZM167.904 353.172C169.92 353.172 171.376 354.096 171.376 355.496C171.376 356.896 169.92 357.82 167.904 357.82C165.888 357.82 164.446 356.896 164.446 355.496C164.446 354.096 165.888 353.172 167.904 353.172ZM170.816 361.474V358.072C171.852 357.526 172.468 356.63 172.468 355.496C172.468 353.536 170.578 352.276 167.904 352.276C165.244 352.276 163.34 353.536 163.34 355.496C163.34 356.63 163.97 357.54 165.02 358.086V361.474H162.22V362.426H173.63V361.474H170.816ZM175.355 362.337C175.355 362.118 175.419 361.936 175.547 361.79C175.679 361.644 175.875 361.571 176.135 361.571C176.395 361.571 176.59 361.644 176.723 361.79C176.859 361.936 176.928 362.118 176.928 362.337C176.928 362.547 176.859 362.722 176.723 362.863C176.59 363.005 176.395 363.075 176.135 363.075C175.875 363.075 175.679 363.005 175.547 362.863C175.419 362.722 175.355 362.547 175.355 362.337Z" fill="black"/>
</svg>
