<svg width="285" height="335" viewBox="0 0 285 335" fill="none" xmlns="http://www.w3.org/2000/svg">
<g clip-path="url(#clip0)">
<mask id="path-1-inside-1" fill="white">
<path d="M258.651 329.442L251.814 322.847H131.233V297.95H159.685V275.036H182.586V129.882H152.537V74.6955H182.586V0.432861H285.679V274.093H264.146V303.916L284.516 329.442"/>
</mask>
<path d="M258.651 329.442L251.814 322.847H131.233V297.95H159.685V275.036H182.586V129.882H152.537V74.6955H182.586V0.432861H285.679V274.093H264.146V303.916L284.516 329.442" fill="white"/>
<path d="M251.814 322.847L253.897 320.688L253.026 319.847H251.814V322.847ZM131.233 322.847H128.233V325.847H131.233V322.847ZM131.233 297.95V294.95H128.233V297.95H131.233ZM159.685 297.95V300.95H162.685V297.95H159.685ZM159.685 275.036V272.036H156.685V275.036H159.685ZM182.586 275.036V278.036H185.586V275.036H182.586ZM182.586 129.882H185.586V126.882H182.586V129.882ZM152.537 129.882H149.537V132.882H152.537V129.882ZM152.537 74.6955V71.6955H149.537V74.6955H152.537ZM182.586 74.6955V77.6955H185.586V74.6955H182.586ZM182.586 0.432861V-2.56714H179.586V0.432861H182.586ZM285.679 0.432861H288.679V-2.56714H285.679V0.432861ZM285.679 274.093V277.093H288.679V274.093H285.679ZM264.146 274.093V271.093H261.146V274.093H264.146ZM264.146 303.916H261.146V304.966L261.802 305.787L264.146 303.916ZM260.734 327.283L253.897 320.688L249.731 325.006L256.568 331.601L260.734 327.283ZM251.814 319.847H131.233V325.847H251.814V319.847ZM134.233 322.847V297.95H128.233V322.847H134.233ZM131.233 300.95H159.685V294.95H131.233V300.95ZM162.685 297.95V275.036H156.685V297.95H162.685ZM159.685 278.036H182.586V272.036H159.685V278.036ZM185.586 275.036V129.882H179.586V275.036H185.586ZM182.586 126.882H152.537V132.882H182.586V126.882ZM155.537 129.882V74.6955H149.537V129.882H155.537ZM152.537 77.6955H182.586V71.6955H152.537V77.6955ZM185.586 74.6955V0.432861H179.586V74.6955H185.586ZM182.586 3.43286H285.679V-2.56714H182.586V3.43286ZM282.679 0.432861V274.093H288.679V0.432861H282.679ZM285.679 271.093H264.146V277.093H285.679V271.093ZM261.146 274.093V303.916H267.146V274.093H261.146ZM261.802 305.787L282.171 331.314L286.861 327.571L266.491 302.045L261.802 305.787Z" fill="black" mask="url(#path-1-inside-1)"/>
<path d="M223.266 84.9246H213.749V119.961H223.266V84.9246Z" fill="black"/>
<path d="M248.806 84.9246H239.29V119.961H248.806V84.9246Z" fill="black"/>
<path d="M188.27 6.44922V78.0043H255.068V119.961H280.179V6.44922H188.27Z" fill="#DAC452"/>
<path d="M248.745 127.191H225.107V140.043H248.745V127.191Z" fill="black"/>
<path d="M160.431 303.966H136.794V316.819H160.431V303.966Z" fill="black"/>
<path d="M237.448 84.9246H225.107V119.961H237.448V84.9246Z" fill="black"/>
<path d="M211.907 84.9246H158.002V119.961H211.907V84.9246Z" fill="black"/>
<path d="M207.118 127.191H188.086V146.346H207.118V127.191Z" fill="black"/>
<path d="M185.016 281.485H165.983V300.641H185.016V281.485Z" fill="black"/>
<path d="M207.118 150.239H188.085V172.175H207.118V150.239Z" fill="#DAC452"/>
<path d="M207.118 175.265H188.085V197.201H207.118V175.265Z" fill="#DAC452"/>
<path d="M207.118 226.305H188.085V248.241H207.118V226.305Z" fill="#DAC452"/>
<path d="M249.033 186H230V207.936H249.033V186Z" fill="#DAC452"/>
<path d="M249.033 150H230V171.936H249.033V150Z" fill="#DAC452"/>
<path d="M249 226H230V273H249V226Z" fill="#DAC452"/>
<path d="M207.118 200.291H188.086V217.654H207.118V200.291Z" fill="black"/>
<path d="M207.118 251.331H188.085V273.267H207.118V251.331Z" fill="#DAC452"/>
<path d="M230 301H207V317H230V301Z" fill="#DAC452"/>
<path d="M280.179 150.239H261.146V172.175H280.179V150.239Z" fill="#DAC452"/>
<path d="M280 123H261V147H280V123Z" fill="#DAC452"/>
<path d="M280.18 175.265H261.147V197.201H280.18V175.265Z" fill="#DAC452"/>
<path d="M280.18 200.291H261.147V222.227H280.18V200.291Z" fill="#DAC452"/>
<path d="M280.18 240.331H261.147V268.261H280.18V240.331Z" fill="#00AC8D"/>
<path d="M177.666 288.158C178.034 288.158 178.341 287.849 178.341 287.479C178.341 287.108 178.034 286.799 177.666 286.799C177.298 286.799 176.991 287.108 176.991 287.479C176.991 287.849 177.298 288.158 177.666 288.158Z" fill="white"/>
<path d="M177.544 292.545V294.955C177.544 295.388 176.93 295.388 176.93 294.955V292.545H176.07L176.991 289.332H176.868L176.316 291.124C176.193 291.495 175.64 291.371 175.763 290.939L176.377 288.961C176.438 288.714 176.745 288.344 177.237 288.344H177.666H178.157C178.649 288.344 178.956 288.776 179.017 288.961L179.631 290.939C179.754 291.371 179.201 291.557 179.078 291.124L178.526 289.332H178.342L179.263 292.545H178.403V294.955C178.403 295.388 177.789 295.388 177.789 294.955V292.545H177.544Z" fill="white"/>
<path d="M172.412 288.344C171.921 288.344 171.553 288.714 171.553 289.27V291.371C171.553 291.804 172.167 291.804 172.167 291.371V289.456H172.289V294.832C172.289 295.388 173.088 295.388 173.088 294.832V291.68H173.21V294.832C173.21 295.388 174.009 295.388 174.009 294.832V289.456H174.131V291.371C174.131 291.804 174.745 291.804 174.745 291.371V289.27C174.745 288.838 174.377 288.344 173.886 288.344H172.412Z" fill="white"/>
<path d="M173.087 288.158C173.46 288.158 173.763 287.854 173.763 287.479C173.763 287.103 173.46 286.799 173.087 286.799C172.714 286.799 172.412 287.103 172.412 287.479C172.412 287.854 172.714 288.158 173.087 288.158Z" fill="white"/>
<path d="M199.829 133.864C200.198 133.864 200.505 133.555 200.505 133.184C200.505 132.814 200.198 132.505 199.829 132.505C199.461 132.505 199.154 132.814 199.154 133.184C199.154 133.555 199.461 133.864 199.829 133.864Z" fill="white"/>
<path d="M199.707 138.251V140.661C199.707 141.094 199.093 141.094 199.093 140.661V138.251H198.233L199.154 135.038H199.031L198.479 136.83C198.356 137.201 197.804 137.077 197.926 136.645L198.54 134.667C198.602 134.42 198.909 134.049 199.4 134.049H199.83H200.321C200.812 134.049 201.119 134.482 201.18 134.667L201.794 136.645C201.917 137.077 201.365 137.263 201.242 136.83L200.689 135.038H200.505L201.426 138.251H200.566V140.661C200.566 141.094 199.952 141.094 199.952 140.661V138.251H199.707Z" fill="white"/>
<path d="M194.576 134.111C194.084 134.111 193.716 134.482 193.716 135.038V137.139C193.716 137.572 194.33 137.572 194.33 137.139V135.224H194.453V140.6C194.453 141.156 195.251 141.156 195.251 140.6V137.448H195.374V140.6C195.374 141.156 196.172 141.156 196.172 140.6V135.224H196.295V137.139C196.295 137.572 196.909 137.572 196.909 137.139V135.038C196.909 134.606 196.54 134.111 196.049 134.111H194.576Z" fill="white"/>
<path d="M195.251 133.864C195.624 133.864 195.926 133.56 195.926 133.184C195.926 132.809 195.624 132.505 195.251 132.505C194.878 132.505 194.575 132.809 194.575 133.184C194.575 133.56 194.878 133.864 195.251 133.864Z" fill="white"/>
<path d="M234.869 105.873V100.559C234.869 100.002 234.44 99.5698 233.887 99.5698H228.607C228.054 99.5698 227.625 100.002 227.625 100.559V105.873C227.625 106.429 228.054 106.861 228.607 106.861H233.887C234.44 106.799 234.869 106.429 234.869 105.873ZM234.071 105.996H228.423V100.373H234.071V105.996Z" fill="white"/>
<path d="M232.168 96.1093C232.168 95.6767 232.782 95.6767 232.782 96.1093V97.8394L233.089 97.4687C233.335 97.2215 233.703 97.5923 233.457 97.8394L232.659 98.7663C232.536 98.8899 232.352 98.8899 232.229 98.7663L231.431 97.8394C231.186 97.5305 231.616 97.2215 231.8 97.4687L232.107 97.9012L232.168 96.1093Z" fill="white"/>
<path d="M229.773 98.5832C229.773 99.0158 230.387 99.0158 230.387 98.5832V96.8531L230.694 97.2238C230.94 97.471 231.308 97.1002 231.063 96.8531L230.265 95.9262C230.142 95.8026 229.958 95.8026 229.835 95.9262L229.037 96.8531C228.791 97.162 229.221 97.471 229.405 97.2238L229.712 96.7913L229.773 98.5832Z" fill="white"/>
<path d="M232.904 102.041H231.861C231.738 102.041 231.615 102.165 231.615 102.288V103.586C231.615 103.71 231.676 103.771 231.799 103.771C231.799 103.771 231.861 103.771 231.922 103.771V105.44C231.922 105.749 232.352 105.749 232.352 105.44V103.771H232.413V105.44C232.413 105.749 232.843 105.749 232.843 105.44V103.771C232.904 103.771 232.966 103.771 232.966 103.771C233.089 103.771 233.15 103.71 233.15 103.586V102.288C233.15 102.165 233.027 102.041 232.904 102.041Z" fill="white"/>
<path d="M232.351 101.918C232.521 101.918 232.658 101.779 232.658 101.609C232.658 101.438 232.521 101.3 232.351 101.3C232.182 101.3 232.044 101.438 232.044 101.609C232.044 101.779 232.182 101.918 232.351 101.918Z" fill="white"/>
<path d="M230.695 102.041H229.651C229.528 102.041 229.405 102.165 229.405 102.288V103.586C229.405 103.71 229.467 103.771 229.589 103.771C229.589 103.771 229.651 103.771 229.712 103.771V105.44C229.712 105.749 230.142 105.749 230.142 105.44V103.771H230.203V105.44C230.203 105.749 230.633 105.749 230.633 105.44V103.771C230.695 103.771 230.756 103.771 230.756 103.771C230.879 103.771 230.94 103.71 230.94 103.586V102.288C230.94 102.165 230.817 102.041 230.695 102.041Z" fill="white"/>
<path d="M230.141 101.918C230.311 101.918 230.448 101.779 230.448 101.609C230.448 101.438 230.311 101.3 230.141 101.3C229.972 101.3 229.834 101.438 229.834 101.609C229.834 101.779 229.972 101.918 230.141 101.918Z" fill="white"/>
<path d="M201.224 213.515V208.201C201.224 207.644 200.794 207.212 200.242 207.212H194.962C194.409 207.212 193.979 207.644 193.979 208.201V213.515C193.979 214.071 194.409 214.503 194.962 214.503H200.242C200.794 214.503 201.224 214.071 201.224 213.515ZM200.426 213.7H194.778V208.077H200.426V213.7Z" fill="white"/>
<path d="M198.523 203.813C198.523 203.381 199.137 203.381 199.137 203.813V205.544L199.444 205.173C199.689 204.926 200.057 205.296 199.812 205.544L199.014 206.47C198.891 206.594 198.707 206.594 198.584 206.47L197.786 205.544C197.54 205.235 197.97 204.926 198.154 205.173L198.461 205.605L198.523 203.813Z" fill="white"/>
<path d="M196.128 206.223C196.128 206.656 196.742 206.656 196.742 206.223V204.493L197.049 204.864C197.295 205.111 197.663 204.74 197.417 204.493L196.619 203.566C196.496 203.442 196.312 203.442 196.189 203.566L195.391 204.493C195.146 204.802 195.575 205.111 195.76 204.864L196.067 204.431L196.128 206.223Z" fill="white"/>
<path d="M199.259 209.745H198.215C198.093 209.745 197.97 209.868 197.97 209.992V211.289C197.97 211.413 198.031 211.475 198.154 211.475C198.154 211.475 198.215 211.475 198.277 211.475V213.143C198.277 213.452 198.706 213.452 198.706 213.143V211.475H198.768V213.143C198.768 213.452 199.198 213.452 199.198 213.143V211.475C199.259 211.475 199.32 211.475 199.32 211.475C199.443 211.475 199.505 211.413 199.505 211.289V209.992C199.505 209.806 199.382 209.745 199.259 209.745Z" fill="white"/>
<path d="M198.768 209.621C198.938 209.621 199.075 209.483 199.075 209.312C199.075 209.142 198.938 209.003 198.768 209.003C198.599 209.003 198.461 209.142 198.461 209.312C198.461 209.483 198.599 209.621 198.768 209.621Z" fill="white"/>
<path d="M197.049 209.745H196.006C195.883 209.745 195.76 209.868 195.76 209.992V211.289C195.76 211.413 195.821 211.475 195.944 211.475C195.944 211.475 196.006 211.475 196.067 211.475V213.143C196.067 213.452 196.497 213.452 196.497 213.143V211.475H196.558V213.143C196.558 213.452 196.988 213.452 196.988 213.143V211.475C197.049 211.475 197.111 211.475 197.111 211.475C197.233 211.475 197.295 211.413 197.295 211.289V209.992C197.295 209.806 197.172 209.745 197.049 209.745Z" fill="white"/>
<path d="M196.496 209.621C196.666 209.621 196.803 209.483 196.803 209.312C196.803 209.142 196.666 209.003 196.496 209.003C196.327 209.003 196.189 209.142 196.189 209.312C196.189 209.483 196.327 209.621 196.496 209.621Z" fill="white"/>
<path d="M266.427 258.19H267.962V256.583H269.497V254.976H271.032V253.432H272.628V251.887H274.9V252.69H273.365V254.235H271.83V255.78H270.295V257.386H268.699V258.993H266.427V258.19Z" fill="white"/>
<path d="M147.845 307.859C148.214 307.859 148.521 307.55 148.521 307.18C148.521 306.809 148.214 306.5 147.845 306.5C147.477 306.5 147.17 306.809 147.17 307.18C147.17 307.55 147.477 307.859 147.845 307.859Z" fill="white"/>
<path d="M152.389 307.241H150.854C150.547 307.241 150.117 307.365 149.871 307.612L148.459 309.033V308.601C148.459 307.736 147.17 307.736 147.17 308.601V310.269L145.942 311.505C145.819 311.628 145.819 311.628 145.574 311.628H144.837C144.1 311.628 143.609 312.308 143.609 312.864C143.609 313.42 144.039 314.162 144.898 314.162C144.898 314.162 145.942 314.162 146.249 314.162C146.556 314.162 146.924 314.038 147.231 313.729L151.099 309.836C151.161 309.775 151.222 309.713 151.345 309.713C151.345 309.713 151.897 309.713 152.327 309.713C152.818 309.713 153.432 309.157 153.432 308.415C153.555 307.736 152.88 307.241 152.389 307.241ZM152.327 309.095H151.529C151.161 309.095 151.038 309.157 150.854 309.342L146.924 313.297C146.74 313.482 146.556 313.544 146.31 313.544H145.021C144.714 313.544 144.407 313.235 144.407 312.864C144.407 312.494 144.714 312.308 144.96 312.308H145.819C146.065 312.308 146.249 312.246 146.372 312.061L150.362 308.045C150.547 307.859 150.669 307.859 150.976 307.859H152.327C152.634 307.859 152.88 308.23 152.88 308.477C152.88 308.724 152.695 309.095 152.327 309.095Z" fill="white"/>
<path d="M236.158 131.083C236.527 131.083 236.834 130.774 236.834 130.404C236.834 130.033 236.527 129.724 236.158 129.724C235.79 129.724 235.483 130.033 235.483 130.404C235.544 130.774 235.79 131.083 236.158 131.083Z" fill="white"/>
<path d="M240.701 130.465H239.167C238.86 130.465 238.43 130.589 238.184 130.836L236.772 132.257V131.825C236.772 130.959 235.483 130.959 235.483 131.825V133.493L234.255 134.729C234.132 134.852 234.132 134.852 233.887 134.852H233.15C232.413 134.852 231.922 135.532 231.922 136.088C231.922 136.644 232.352 137.386 233.211 137.386C233.211 137.386 234.255 137.386 234.562 137.386C234.869 137.386 235.237 137.262 235.544 136.953L239.412 133.06C239.474 132.999 239.535 132.937 239.658 132.937C239.658 132.937 240.21 132.937 240.64 132.937C241.131 132.937 241.745 132.381 241.745 131.639C241.868 130.959 241.193 130.465 240.701 130.465ZM240.64 132.381H239.842C239.474 132.381 239.351 132.442 239.167 132.628L235.237 136.583C235.053 136.768 234.869 136.83 234.623 136.83H233.334C233.027 136.83 232.72 136.521 232.72 136.15C232.72 135.779 233.027 135.594 233.273 135.594H234.132C234.378 135.594 234.562 135.532 234.685 135.347L238.675 131.33C238.86 131.145 238.982 131.145 239.289 131.145H240.64C240.947 131.145 241.193 131.516 241.193 131.763C241.193 132.01 241.07 132.381 240.64 132.381Z" fill="white"/>
<path d="M150.026 10H154.941V8.73224H151.564V6.99574H154.675V5.72798H151.564V3.99503H154.927V2.72727H150.026V10ZM157.403 10L157.943 8.34162H160.567L161.107 10H162.754L160.247 2.72727H158.266L155.755 10H157.403ZM158.333 7.14134L159.228 4.3892H159.285L160.18 7.14134H158.333ZM167.409 4.81889H168.883C168.861 3.52273 167.796 2.62784 166.177 2.62784C164.582 2.62784 163.414 3.50852 163.421 4.82955C163.417 5.90199 164.174 6.51634 165.403 6.81108L166.194 7.00994C166.986 7.2017 167.427 7.42898 167.43 7.91903C167.427 8.4517 166.922 8.81392 166.141 8.81392C165.342 8.81392 164.767 8.4446 164.717 7.71662H163.229C163.268 9.28977 164.394 10.103 166.159 10.103C167.935 10.103 168.979 9.25426 168.982 7.92259C168.979 6.71165 168.066 6.06889 166.802 5.7848L166.148 5.62855C165.516 5.48295 164.987 5.24858 164.998 4.72656C164.998 4.25781 165.413 3.91335 166.166 3.91335C166.901 3.91335 167.352 4.24716 167.409 4.81889ZM169.739 3.99503H171.966V10H173.486V3.99503H175.712V2.72727H169.739V3.99503ZM139.466 15.995H141.693V22H143.212V15.995H145.439V14.7273H139.466V15.995ZM152.784 18.3636C152.784 15.9844 151.306 14.6278 149.378 14.6278C147.439 14.6278 145.973 15.9844 145.973 18.3636C145.973 20.7322 147.439 22.0994 149.378 22.0994C151.306 22.0994 152.784 20.7429 152.784 18.3636ZM151.225 18.3636C151.225 19.9048 150.493 20.7393 149.378 20.7393C148.259 20.7393 147.531 19.9048 147.531 18.3636C147.531 16.8224 148.259 15.9879 149.378 15.9879C150.493 15.9879 151.225 16.8224 151.225 18.3636ZM155.286 22H156.785L158.166 17.245H158.223L159.608 22H161.107L163.188 14.7273H161.508L160.304 19.7912H160.24L158.916 14.7273H157.477L156.149 19.7805H156.089L154.885 14.7273H153.205L155.286 22ZM164.011 22H168.925V20.7322H165.548V18.9957H168.659V17.728H165.548V15.995H168.911V14.7273H164.011V22ZM170.134 22H171.671V19.4219H172.793L174.171 22H175.869L174.324 19.1733C175.151 18.8182 175.609 18.0973 175.609 17.103C175.609 15.6577 174.654 14.7273 173.003 14.7273H170.134V22ZM171.671 18.1861V15.9844H172.708C173.596 15.9844 174.026 16.3786 174.026 17.103C174.026 17.8239 173.596 18.1861 172.715 18.1861H171.671Z" fill="black"/>
<path d="M215.682 42H216.409C216.193 40.875 215.25 40.1023 214.023 40.1023C212.531 40.1023 211.477 41.25 211.477 43.0909C211.477 44.9318 212.523 46.0795 214.068 46.0795C215.455 46.0795 216.443 45.1562 216.443 43.7159V43.0909H214.227V43.7159H215.761C215.741 44.7614 215.054 45.4205 214.068 45.4205C212.989 45.4205 212.159 44.6023 212.159 43.0909C212.159 41.5795 212.989 40.7614 214.023 40.7614C214.864 40.7614 215.435 41.2358 215.682 42ZM219.445 46C221.218 46 222.218 44.8977 222.218 43.0795C222.218 41.2727 221.218 40.1818 219.525 40.1818H217.65V46H219.445ZM218.354 45.375V40.8068H219.479C220.843 40.8068 221.536 41.6705 221.536 43.0795C221.536 44.5 220.843 45.375 219.4 45.375H218.354ZM223.4 46H224.104V43.7273H225.377C225.428 43.7273 225.477 43.7273 225.525 43.7244L226.752 46H227.57L226.255 43.5966C226.996 43.3438 227.343 42.7386 227.343 41.9659C227.343 40.9375 226.729 40.1818 225.366 40.1818H223.4V46ZM224.104 43.0909V40.8068H225.343C226.286 40.8068 226.65 41.267 226.65 41.9659C226.65 42.6648 226.286 43.0909 225.354 43.0909H224.104ZM232.399 44.392C231.703 44.392 231.215 43.64 231.215 42.472C231.215 41.312 231.703 40.56 232.399 40.56C233.087 40.56 233.575 41.312 233.575 42.472C233.575 43.64 233.087 44.392 232.399 44.392ZM232.399 39.968C231.343 39.968 230.59 40.944 230.59 42.472C230.59 44 231.343 44.976 232.399 44.976C233.455 44.976 234.199 44 234.199 42.472C234.199 40.944 233.455 39.968 232.399 39.968ZM237.191 42.28H236.007V39.424H235.351V46.592H236.007V42.832H237.191V42.28ZM238.302 40.16V40.696H240.886C240.862 41.136 240.79 41.552 240.67 41.952L237.942 42.136L238.054 42.712L240.47 42.48C240.03 43.44 239.238 44.256 237.91 44.912L238.27 45.416C240.838 44.136 241.542 42.24 241.542 40.16H238.302ZM244.518 42.328H243.366V39.416H242.71V46.592H243.366V42.872H244.518V42.328ZM246.117 40.824H248.165V40.296H245.469V44.864H245.933C247.077 44.864 247.773 44.832 248.589 44.656L248.525 44.12C247.773 44.28 247.133 44.312 246.117 44.32V40.824ZM249.229 42.152H247.685V42.696H249.229V46.232H249.845V39.592H249.229V42.152ZM250.669 39.416V46.592H251.293V39.416H250.669ZM252.981 40.12V44.784H256.277V40.12H252.981ZM255.637 40.648V44.264H253.621V40.648H255.637ZM257.781 39.416V46.608H258.437V39.416H257.781Z" fill="black"/>
<path d="M2.52841 39H14.9574C21.4915 39 24.9716 35.5909 24.9716 30.9602C24.9716 26.6562 21.8892 24.0568 18.5795 23.9006V23.6165C21.6051 22.9347 23.8352 20.7898 23.8352 17.3665C23.8352 13.0057 20.5966 9.90909 14.1761 9.90909H2.52841V39ZM8.67898 33.9716V26.2443H13.8352C16.7898 26.2443 18.6222 27.9489 18.6222 30.3494C18.6222 32.5369 17.1307 33.9716 13.6932 33.9716H8.67898ZM8.67898 22.0824V14.8807H13.3523C16.0795 14.8807 17.6278 16.2869 17.6278 18.3892C17.6278 20.6903 15.7528 22.0824 13.2386 22.0824H8.67898ZM28.8033 39H49.5419V33.9716H37.326V33.7727L41.5732 29.6108C47.5533 24.1562 49.1584 21.429 49.1584 18.1193C49.1584 13.0767 45.0391 9.51136 38.8033 9.51136C32.6953 9.51136 28.505 13.1619 28.5192 18.8722H34.3572C34.343 16.0881 36.1044 14.3835 38.7607 14.3835C41.3175 14.3835 43.2209 15.9744 43.2209 18.5312C43.2209 20.8466 41.8004 22.4375 39.1584 24.9801L28.8033 34.5682V39Z" fill="black"/>
</g>
<path fill-rule="evenodd" clip-rule="evenodd" d="M240.789 254.844C244.317 254.235 247 251.168 247 247.477C247 243.348 243.642 240 239.5 240C235.358 240 232 243.348 232 247.477C232 251.168 234.683 254.235 238.211 254.844L239.5 260L240.789 254.844Z" fill="black"/>
<path fill-rule="evenodd" clip-rule="evenodd" d="M240.789 252.844C244.317 252.235 247 249.168 247 245.477C247 241.348 243.642 238 239.5 238C235.358 238 232 241.348 232 245.477C232 249.168 234.683 252.235 238.211 252.844L239.5 258L240.789 252.844Z" fill="#FF0000"/>
<ellipse cx="239.5" cy="245.477" rx="2.5" ry="2.49231" fill="white"/>
<defs>
<clipPath id="clip0">
<rect width="285" height="335" fill="white"/>
</clipPath>
</defs>
</svg>
