<svg width="32" height="27" viewBox="0 0 32 27" fill="none" xmlns="http://www.w3.org/2000/svg">
<path fill-rule="evenodd" clip-rule="evenodd" d="M17.789 20.8438C21.317 20.2346 24 17.1681 24 13.4769C24 9.34753 20.6421 6 16.5 6C12.3579 6 9 9.34753 9 13.4769C9 17.1681 11.683 20.2346 15.211 20.8438L16.5 26L17.789 20.8438Z" fill="black"/>
<path fill-rule="evenodd" clip-rule="evenodd" d="M17.789 18.8438C21.317 18.2346 24 15.1681 24 11.4769C24 7.34753 20.6421 4 16.5 4C12.3579 4 9 7.34753 9 11.4769C9 15.1681 11.683 18.2346 15.211 18.8438L16.5 24L17.789 18.8438Z" fill="#FF0000"/>
<ellipse cx="16.5" cy="11.4769" rx="2.5" ry="2.49231" fill="white"/>
</svg>
